  0
SECTION
  2
HEADER
  9
$ACADVER
  1
AC1015
  9
$ACADMAINTVER
 70
     6
  9
$DWGCODEPAGE
  3
ANSI_1252
  9
$INSBASE
 10
0.0
 20
0.0
 30
0.0
  9
$EXTMIN
 10
2830.2735557272
 20
1354.0316527246
 30
0.0
  9
$EXTMAX
 10
2946.2937787807
 20
1535.3437919076
 30
0.0
  9
$LIMMIN
 10
0.0
 20
0.0
  9
$LIMMAX
 10
420.0
 20
297.0
  9
$ORTHOMODE
 70
     0
  9
$REGENMODE
 70
     1
  9
$FILLMODE
 70
     1
  9
$QTEXTMODE
 70
     0
  9
$MIRRTEXT
 70
     1
  9
$LTSCALE
 40
1.0
  9
$ATTMODE
 70
     1
  9
$TEXTSIZE
 40
3.5
  9
$TRACEWID
 40
1.0
  9
$TEXTSTYLE
  7
Standard
  9
$CLAYER
  8
0
  9
$CELTYPE
  6
ByLayer
  9
$CECOLOR
 62
   256
  9
$CELTSCALE
 40
1.0
  9
$DISPSILH
 70
     0
  9
$DIMSCALE
 40
1.0
  9
$DIMASZ
 40
3.302
  9
$DIMEXO
 40
1.0
  9
$DIMDLI
 40
3.75
  9
$DIMRND
 40
0.0
  9
$DIMDLE
 40
0.0
  9
$DIMEXE
 40
1.0
  9
$DIMTP
 40
0.0
  9
$DIMTM
 40
0.0
  9
$DIMTXT
 40
3.5
  9
$DIMCEN
 40
2.5
  9
$DIMTSZ
 40
0.0
  9
$DIMTOL
 70
     0
  9
$DIMLIM
 70
     0
  9
$DIMTIH
 70
     1
  9
$DIMTOH
 70
     1
  9
$DIMSE1
 70
     0
  9
$DIMSE2
 70
     0
  9
$DIMTAD
 70
     1
  9
$DIMZIN
 70
     1
  9
$DIMBLK
  1

  9
$DIMASO
 70
     1
  9
$DIMSHO
 70
     1
  9
$DIMPOST
  1

  9
$DIMAPOST
  1

  9
$DIMALT
 70
     0
  9
$DIMALTD
 70
     3
  9
$DIMALTF
 40
0.0393700787
  9
$DIMLFAC
 40
1.0
  9
$DIMTOFL
 70
     1
  9
$DIMTVP
 40
0.0
  9
$DIMTIX
 70
     0
  9
$DIMSOXD
 70
     0
  9
$DIMSAH
 70
     0
  9
$DIMBLK1
  1

  9
$DIMBLK2
  1

  9
$DIMSTYLE
  2
ISO-25
  9
$DIMCLRD
 70
     0
  9
$DIMCLRE
 70
     0
  9
$DIMCLRT
 70
     0
  9
$DIMTFAC
 40
1.0
  9
$DIMGAP
 40
1.524
  9
$DIMJUST
 70
     0
  9
$DIMSD1
 70
     0
  9
$DIMSD2
 70
     0
  9
$DIMTOLJ
 70
     0
  9
$DIMTZIN
 70
     1
  9
$DIMALTZ
 70
     0
  9
$DIMALTTZ
 70
     0
  9
$DIMUPT
 70
     0
  9
$DIMDEC
 70
     2
  9
$DIMTDEC
 70
     2
  9
$DIMALTU
 70
     2
  9
$DIMALTTD
 70
     3
  9
$DIMTXSTY
  7
Standard
  9
$DIMAUNIT
 70
     0
  9
$DIMADEC
 70
     2
  9
$DIMALTRND
 40
0.0
  9
$DIMAZIN
 70
     0
  9
$DIMDSEP
 70
    44
  9
$DIMATFIT
 70
     3
  9
$DIMFRAC
 70
     0
  9
$DIMLDRBLK
  1

  9
$DIMLUNIT
 70
     2
  9
$DIMLWD
 70
    -2
  9
$DIMLWE
 70
    -2
  9
$DIMTMOVE
 70
     0
  9
$LUNITS
 70
     2
  9
$LUPREC
 70
     2
  9
$SKETCHINC
 40
1.0
  9
$FILLETRAD
 40
10.0
  9
$AUNITS
 70
     0
  9
$AUPREC
 70
     2
  9
$MENU
  1
.
  9
$ELEVATION
 40
0.0
  9
$PELEVATION
 40
0.0
  9
$THICKNESS
 40
0.0
  9
$LIMCHECK
 70
     0
  9
$CHAMFERA
 40
0.0
  9
$CHAMFERB
 40
0.0
  9
$CHAMFERC
 40
0.0
  9
$CHAMFERD
 40
0.0
  9
$SKPOLY
 70
     0
  9
$TDCREATE
 40
2458650.009402558
  9
$TDUCREATE
 40
2458650.217735891
  9
$TDUPDATE
 40
2458650.009441076
  9
$TDUUPDATE
 40
2458650.21777441
  9
$TDINDWG
 40
0.0000000116
  9
$TDUSRTIMER
 40
0.0000000116
  9
$USRTIMER
 70
     1
  9
$ANGBASE
 50
0.0
  9
$ANGDIR
 70
     0
  9
$PDMODE
 70
     0
  9
$PDSIZE
 40
-1.0
  9
$PLINEWID
 40
0.0
  9
$SPLFRAME
 70
     0
  9
$SPLINETYPE
 70
     6
  9
$SPLINESEGS
 70
     8
  9
$HANDSEED
  5
131
  9
$SURFTAB1
 70
     6
  9
$SURFTAB2
 70
     6
  9
$SURFTYPE
 70
     6
  9
$SURFU
 70
     6
  9
$SURFV
 70
     6
  9
$UCSBASE
  2

  9
$UCSNAME
  2

  9
$UCSORG
 10
0.0
 20
0.0
 30
0.0
  9
$UCSXDIR
 10
1.0
 20
0.0
 30
0.0
  9
$UCSYDIR
 10
0.0
 20
1.0
 30
0.0
  9
$UCSORTHOREF
  2

  9
$UCSORTHOVIEW
 70
     0
  9
$UCSORGTOP
 10
0.0
 20
0.0
 30
0.0
  9
$UCSORGBOTTOM
 10
0.0
 20
0.0
 30
0.0
  9
$UCSORGLEFT
 10
0.0
 20
0.0
 30
0.0
  9
$UCSORGRIGHT
 10
0.0
 20
0.0
 30
0.0
  9
$UCSORGFRONT
 10
0.0
 20
0.0
 30
0.0
  9
$UCSORGBACK
 10
0.0
 20
0.0
 30
0.0
  9
$PUCSBASE
  2

  9
$PUCSNAME
  2

  9
$PUCSORG
 10
0.0
 20
0.0
 30
0.0
  9
$PUCSXDIR
 10
1.0
 20
0.0
 30
0.0
  9
$PUCSYDIR
 10
0.0
 20
1.0
 30
0.0
  9
$PUCSORTHOREF
  2

  9
$PUCSORTHOVIEW
 70
     0
  9
$PUCSORGTOP
 10
0.0
 20
0.0
 30
0.0
  9
$PUCSORGBOTTOM
 10
0.0
 20
0.0
 30
0.0
  9
$PUCSORGLEFT
 10
0.0
 20
0.0
 30
0.0
  9
$PUCSORGRIGHT
 10
0.0
 20
0.0
 30
0.0
  9
$PUCSORGFRONT
 10
0.0
 20
0.0
 30
0.0
  9
$PUCSORGBACK
 10
0.0
 20
0.0
 30
0.0
  9
$USERI1
 70
     0
  9
$USERI2
 70
     0
  9
$USERI3
 70
     0
  9
$USERI4
 70
     0
  9
$USERI5
 70
     0
  9
$USERR1
 40
0.0
  9
$USERR2
 40
0.0
  9
$USERR3
 40
0.0
  9
$USERR4
 40
0.0
  9
$USERR5
 40
0.0
  9
$WORLDVIEW
 70
     1
  9
$SHADEDGE
 70
     3
  9
$SHADEDIF
 70
    70
  9
$TILEMODE
 70
     1
  9
$MAXACTVP
 70
    64
  9
$PINSBASE
 10
0.0
 20
0.0
 30
0.0
  9
$PLIMCHECK
 70
     0
  9
$PEXTMIN
 10
1.0000000000E+20
 20
1.0000000000E+20
 30
1.0000000000E+20
  9
$PEXTMAX
 10
-1.0000000000E+20
 20
-1.0000000000E+20
 30
-1.0000000000E+20
  9
$PLIMMIN
 10
0.0
 20
0.0
  9
$PLIMMAX
 10
420.0
 20
297.0
  9
$UNITMODE
 70
     0
  9
$VISRETAIN
 70
     1
  9
$PLINEGEN
 70
     0
  9
$PSLTSCALE
 70
     1
  9
$TREEDEPTH
 70
  3020
  9
$CMLSTYLE
  2
Standard
  9
$CMLJUST
 70
     0
  9
$CMLSCALE
 40
20.0
  9
$PROXYGRAPHICS
 70
     1
  9
$MEASUREMENT
 70
     1
  9
$CELWEIGHT
370
    -1
  9
$ENDCAPS
280
     0
  9
$JOINSTYLE
280
     0
  9
$LWDISPLAY
290
     1
  9
$INSUNITS
 70
     4
  9
$HYPERLINKBASE
  1

  9
$STYLESHEET
  1

  9
$XEDIT
290
     1
  9
$CEPSNTYPE
380
     0
  9
$PSTYLEMODE
290
     1
  9
$FINGERPRINTGUID
  2
{366069C2-6FB7-4422-8144-881EB60EF474}
  9
$VERSIONGUID
  2
{FAEB1C32-E019-11D5-929B-00C0DF256EC4}
  9
$EXTNAMES
290
     1
  9
$PSVPSCALE
 40
0.0
  9
$OLESTARTUP
290
     0
  0
ENDSEC
  0
SECTION
  2
CLASSES
  0
CLASS
  1
ACDBDICTIONARYWDFLT
  2
AcDbDictionaryWithDefault
  3
ObjectDBX Classes
 90
        0
280
     0
281
     0
  0
CLASS
  1
VISUALSTYLE
  2
AcDbVisualStyle
  3
ObjectDBX Classes
 90
     4095
280
     0
281
     0
  0
CLASS
  1
MATERIAL
  2
AcDbMaterial
  3
ObjectDBX Classes
 90
     1153
280
     0
281
     0
  0
CLASS
  1
SCALE
  2
AcDbScale
  3
ObjectDBX Classes
 90
     1153
280
     0
281
     0
  0
CLASS
  1
TABLESTYLE
  2
AcDbTableStyle
  3
ObjectDBX Classes
 90
     4095
280
     0
281
     0
  0
CLASS
  1
MLEADERSTYLE
  2
AcDbMLeaderStyle
  3
ACDB_MLEADERSTYLE_CLASS
 90
     4095
280
     0
281
     0
  0
CLASS
  1
SUN
  2
AcDbSun
  3
SCENEOE
 90
     1153
280
     0
281
     0
  0
CLASS
  1
ACDBPLACEHOLDER
  2
AcDbPlaceHolder
  3
ObjectDBX Classes
 90
        0
280
     0
281
     0
  0
CLASS
  1
LAYOUT
  2
AcDbLayout
  3
ObjectDBX Classes
 90
        0
280
     0
281
     0
  0
ENDSEC
  0
SECTION
  2
TABLES
  0
TABLE
  2
VPORT
  5
8
330
0
100
AcDbSymbolTable
 70
     1
  0
VPORT
  5
29
330
8
100
AcDbSymbolTableRecord
100
AcDbViewportTableRecord
  2
*Active
 70
     0
 10
0.0
 20
0.0
 11
1.0
 21
1.0
 12
2888.283667254
 22
1444.6877223161
 13
0.0
 23
0.0
 14
10.0
 24
10.0
 15
10.0
 25
10.0
 16
0.0
 26
0.0
 36
1.0
 17
0.0
 27
0.0
 37
0.0
 40
184.9383819666
 41
0.6398921968
 42
50.0
 43
0.0
 44
0.0
 50
0.0
 51
0.0
 71
     0
 72
   100
 73
     1
 74
     3
 75
     0
 76
     0
 77
     0
 78
     0
281
     0
 65
     1
110
0.0
120
0.0
130
0.0
111
1.0
121
0.0
131
0.0
112
0.0
122
1.0
132
0.0
 79
     0
146
0.0
  0
ENDTAB
  0
TABLE
  2
LTYPE
  5
5
330
0
100
AcDbSymbolTable
 70
     6
  0
LTYPE
  5
14
330
5
100
AcDbSymbolTableRecord
100
AcDbLinetypeTableRecord
  2
ByBlock
 70
     0
  3

 72
    65
 73
     0
 40
0.0
  0
LTYPE
  5
15
330
5
100
AcDbSymbolTableRecord
100
AcDbLinetypeTableRecord
  2
ByLayer
 70
     0
  3

 72
    65
 73
     0
 40
0.0
  0
LTYPE
  5
16
330
5
100
AcDbSymbolTableRecord
100
AcDbLinetypeTableRecord
  2
Continuous
 70
     0
  3
Solid line
 72
    65
 73
     0
 40
0.0
  0
LTYPE
  5
6E
330
5
100
AcDbSymbolTableRecord
100
AcDbLinetypeTableRecord
  2
HIDDEN
 70
     0
  3
Hidden __ __ __ __ __ __ __ __ __ __ __ __ __ __
 72
    65
 73
     2
 40
1.905
 49
1.27
 74
     0
 49
-0.635
 74
     0
  0
LTYPE
  5
6F
330
5
100
AcDbSymbolTableRecord
100
AcDbLinetypeTableRecord
  2
PHANTOM
 70
     0
  3
Phantom ______  __  __  ______  __  __  ______
 72
    65
 73
     6
 40
12.7
 49
6.35
 74
     0
 49
-1.27
 74
     0
 49
1.27
 74
     0
 49
-1.27
 74
     0
 49
1.27
 74
     0
 49
-1.27
 74
     0
  0
LTYPE
  5
70
330
5
100
AcDbSymbolTableRecord
100
AcDbLinetypeTableRecord
  2
CENTER
 70
     0
  3
Center ____ _ ____ _ ____ _ ____ _ ____ _ ____
 72
    65
 73
     4
 40
10.16
 49
6.35
 74
     0
 49
-1.27
 74
     0
 49
1.27
 74
     0
 49
-1.27
 74
     0
  0
LTYPE
  5
71
330
5
100
AcDbSymbolTableRecord
100
AcDbLinetypeTableRecord
  2
CENTERX2
 70
     0
  3
Center (2x) ________  __  ________  __  _____
 72
    65
 73
     4
 40
20.32
 49
12.7
 74
     0
 49
-2.54
 74
     0
 49
2.54
 74
     0
 49
-2.54
 74
     0
  0
LTYPE
  5
72
330
5
100
AcDbSymbolTableRecord
100
AcDbLinetypeTableRecord
  2
DOT2
 70
     0
  3
Dot (.5x) ........................................
 72
    65
 73
     2
 40
0.635
 49
0.0
 74
     0
 49
-0.635
 74
     0
  0
ENDTAB
  0
TABLE
  2
LAYER
  5
2
330
0
100
AcDbSymbolTable
 70
     1
  0
LAYER
  5
10
330
2
100
AcDbSymbolTableRecord
100
AcDbLayerTableRecord
  2
0
 70
     0
 62
     7
  6
Continuous
370
    -3
390
F
  0
ENDTAB
  0
TABLE
  2
STYLE
  5
3
330
0
100
AcDbSymbolTable
 70
     1
  0
STYLE
  5
11
330
3
100
AcDbSymbolTableRecord
100
AcDbTextStyleTableRecord
  2
Standard
 70
     0
 40
0.0
 41
1.0
 50
0.0
 71
     0
 42
3.5
  3
txt
  4

  0
ENDTAB
  0
TABLE
  2
VIEW
  5
6
330
0
100
AcDbSymbolTable
 70
     0
  0
ENDTAB
  0
TABLE
  2
UCS
  5
7
330
0
100
AcDbSymbolTable
 70
     0
  0
ENDTAB
  0
TABLE
  2
APPID
  5
9
330
0
100
AcDbSymbolTable
 70
     1
  0
APPID
  5
12
330
9
100
AcDbSymbolTableRecord
100
AcDbRegAppTableRecord
  2
ACAD
 70
     0
  0
ENDTAB
  0
TABLE
  2
DIMSTYLE
  5
A
330
0
100
AcDbSymbolTable
 70
     1
100
AcDbDimStyleTable
  0
DIMSTYLE
105
27
330
A
100
AcDbSymbolTableRecord
100
AcDbDimStyleTableRecord
  2
ISO-25
 70
     0
 41
2.5
 42
0.625
 43
3.75
 44
1.25
 73
     0
 74
     0
 77
     1
 78
     8
140
2.5
141
2.5
143
0.0393700787
147
0.625
171
     3
172
     1
178
     0
271
     2
272
     2
274
     3
278
    44
283
     0
284
     8
340
11
  0
ENDTAB
  0
TABLE
  2
BLOCK_RECORD
  5
1
330
0
100
AcDbSymbolTable
 70
     1
  0
BLOCK_RECORD
  5
1F
330
1
100
AcDbSymbolTableRecord
100
AcDbBlockTableRecord
  2
*Model_Space
340
22
  0
BLOCK_RECORD
  5
1B
330
1
100
AcDbSymbolTableRecord
100
AcDbBlockTableRecord
  2
*Paper_Space
340
1E
  0
BLOCK_RECORD
  5
23
330
1
100
AcDbSymbolTableRecord
100
AcDbBlockTableRecord
  2
*Paper_Space0
340
26
  0
ENDTAB
  0
ENDSEC
  0
SECTION
  2
BLOCKS
  0
BLOCK
  5
20
330
1F
100
AcDbEntity
  8
0
100
AcDbBlockBegin
  2
*Model_Space
 70
     0
 10
0.0
 20
0.0
 30
0.0
  3
*Model_Space
  1

  0
ENDBLK
  5
21
330
1F
100
AcDbEntity
  8
0
100
AcDbBlockEnd
  0
BLOCK
  5
1C
330
1B
100
AcDbEntity
 67
     1
  8
0
100
AcDbBlockBegin
  2
*Paper_Space
 70
     0
 10
0.0
 20
0.0
 30
0.0
  3
*Paper_Space
  1

  0
ENDBLK
  5
1D
330
1B
100
AcDbEntity
 67
     1
  8
0
100
AcDbBlockEnd
  0
BLOCK
  5
24
330
23
100
AcDbEntity
  8
0
100
AcDbBlockBegin
  2
*Paper_Space0
 70
     0
 10
0.0
 20
0.0
 30
0.0
  3
*Paper_Space0
  1

  0
ENDBLK
  5
25
330
23
100
AcDbEntity
  8
0
100
AcDbBlockEnd
  0
ENDSEC
  0
SECTION
  2
ENTITIES
  0
SPLINE
  5
73
330
1F
100
AcDbEntity
  8
0
  6
Continuous
 62
     7
370
    25
100
AcDbSpline
210
0.0
220
0.0
230
1.0
 70
     8
 71
     3
 72
    13
 73
     9
 74
     0
 42
0.000000001
 43
0.00000001
 40
0.0
 40
0.0
 40
0.0
 40
0.0
 40
0.5248203374698371
 40
0.6315954106004449
 40
0.676671899631647
 40
0.6995581398711115
 40
0.7626807056180268
 40
1.0
 40
1.0
 40
1.0
 40
1.0
 10
2895.70914619835
 20
1370.55534640487
 30
0.0
 10
2895.480847879761
 20
1369.392176643959
 30
0.0
 10
2895.13270599846
 20
1367.833537483864
 30
0.0
 10
2895.558031394688
 20
1366.306400286974
 30
0.0
 10
2895.929306711608
 20
1365.994167311295
 30
0.0
 10
2896.227610532842
 20
1366.132471376876
 30
0.0
 10
2896.789204932538
 20
1366.624299479501
 30
0.0
 10
2897.305444320776
 20
1367.11983896117
 30
0.0
 10
2897.68439902622
 20
1367.5218848891
 30
0.0
  0
LINE
  5
74
330
1F
100
AcDbEntity
  8
0
  6
Continuous
 62
     7
370
    25
100
AcDbLine
 10
2895.7091461983
 20
1370.5553464049
 30
0.0
 11
2898.9583828059
 21
1389.5239385545
 31
0.0
  0
SPLINE
  5
75
330
1F
100
AcDbEntity
  8
0
  6
Continuous
 62
     7
370
    25
100
AcDbSpline
210
0.0
220
0.0
230
1.0
 70
     8
 71
     3
 72
     8
 73
     4
 74
     0
 42
0.000000001
 43
0.00000001
 40
0.0
 40
0.0
 40
0.0
 40
0.0
 40
1.0
 40
1.0
 40
1.0
 40
1.0
 10
2898.95838280592
 20
1389.52393855445
 30
0.0
 10
2899.136276241786
 20
1390.968311434843
 30
0.0
 10
2900.284864977832
 20
1392.389993484106
 30
0.0
 10
2901.91127894675
 20
1392.3109751078
 30
0.0
  0
LINE
  5
76
330
1F
100
AcDbEntity
  8
0
  6
Continuous
 62
     7
370
    25
100
AcDbLine
 10
2901.9112789467
 20
1392.3109751078
 30
0.0
 11
2905.1699732289
 21
1388.7554149326
 31
0.0
  0
LINE
  5
77
330
1F
100
AcDbEntity
  8
0
  6
Continuous
 62
     7
370
    25
100
AcDbLine
 10
2905.1699732289
 20
1388.7554149326
 30
0.0
 11
2902.5624573485
 21
1371.7575219161
 31
0.0
  0
LINE
  5
78
330
1F
100
AcDbEntity
  8
0
  6
Continuous
 62
     7
370
    25
100
AcDbLine
 10
2902.5624573485
 20
1371.7575219161
 30
0.0
 11
2897.6843990262
 21
1367.5218848891
 31
0.0
  0
LINE
  5
79
330
1F
100
AcDbEntity
  8
0
  6
Continuous
 62
     7
370
    25
100
AcDbLine
 10
2898.0448415088
 20
1366.5740157366
 30
0.0
 11
2897.6843990262
 21
1366.2655575172
 31
0.0
  0
LINE
  5
7A
330
1F
100
AcDbEntity
  8
0
  6
Continuous
 62
     7
370
    25
100
AcDbLine
 10
2898.0448415088
 20
1366.5740157366
 30
0.0
 11
2903.3548002987
 21
1371.3441865129
 31
0.0
  0
LINE
  5
7B
330
1F
100
AcDbEntity
  8
0
  6
Continuous
 62
     7
370
    25
100
AcDbLine
 10
2903.3548002987
 20
1371.3441865129
 30
0.0
 11
2921.2203473771
 21
1371.3441865129
 31
0.0
  0
LINE
  5
7C
330
1F
100
AcDbEntity
  8
0
  6
Continuous
 62
     7
370
    25
100
AcDbLine
 10
2921.2203473771
 20
1371.3441865129
 30
0.0
 11
2925.7817487468
 21
1365.3536254453
 31
0.0
  0
SPLINE
  5
7D
330
1F
100
AcDbEntity
  8
0
  6
Continuous
 62
     7
370
    25
100
AcDbSpline
210
0.0
220
0.0
230
1.0
 70
     8
 71
     2
 72
     6
 73
     3
 74
     0
 42
0.000000001
 43
0.00000001
 40
0.0
 40
0.0
 40
0.0
 40
1.0
 40
1.0
 40
1.0
 10
2922.30027368816
 20
1364.03165272462
 30
0.0
 10
2924.361466698188
 20
1363.893291357365
 30
0.0
 10
2925.78174874677
 20
1365.35362544534
 30
0.0
  0
LINE
  5
7E
330
1F
100
AcDbEntity
  8
0
  6
Continuous
 62
     7
370
    25
100
AcDbLine
 10
2900.7784597156
 20
1364.0316527246
 30
0.0
 11
2922.3002736882
 21
1364.0316527246
 31
0.0
  0
SPLINE
  5
7F
330
1F
100
AcDbEntity
  8
0
  6
Continuous
 62
     7
370
    25
100
AcDbSpline
210
0.0
220
0.0
230
1.0
 70
     8
 71
     3
 72
     8
 73
     4
 74
     0
 42
0.000000001
 43
0.00000001
 40
0.0
 40
0.0
 40
0.0
 40
0.0
 40
1.0
 40
1.0
 40
1.0
 40
1.0
 10
2900.77845971561
 20
1364.03165272462
 30
0.0
 10
2900.278843210967
 20
1364.030474605595
 30
0.0
 10
2894.960814028967
 20
1363.712891667504
 30
0.0
 10
2897.68439902622
 20
1366.265557517163
 30
0.0
  0
SPLINE
  5
80
330
1F
100
AcDbEntity
  8
0
  6
Continuous
 62
     7
370
    25
100
AcDbSpline
210
0.0
220
0.0
230
1.0
 70
     8
 71
     3
 72
    11
 73
     7
 74
     0
 42
0.000000001
 43
0.00000001
 40
0.0
 40
0.0
 40
0.0
 40
0.0
 40
0.3111866404740387
 40
0.3703231883102713
 40
0.5913654783623259
 40
1.0
 40
1.0
 40
1.0
 40
1.0
 10
2900.28666064299
 20
1396.41437983393
 30
0.0
 10
2900.119836658183
 20
1395.82234832127
 30
0.0
 10
2900.038691921945
 20
1395.147343665065
 30
0.0
 10
2900.297655661432
 20
1394.445732509072
 30
0.0
 10
2900.893566357126
 20
1393.64235074766
 30
0.0
 10
2901.821214216102
 20
1393.579533683012
 30
0.0
 10
2902.33862571934
 20
1393.5628909807
 30
0.0
  0
LINE
  5
81
330
1F
100
AcDbEntity
  8
0
  6
Continuous
 62
     7
370
    25
100
AcDbLine
 10
2903.8746221104
 20
1416.3325925572
 30
0.0
 11
2900.286660643
 21
1396.4143798339
 31
0.0
  0
SPLINE
  5
82
330
1F
100
AcDbEntity
  8
0
  6
Continuous
 62
     7
370
    25
100
AcDbSpline
210
0.0
220
0.0
230
1.0
 70
     8
 71
     3
 72
     8
 73
     4
 74
     0
 42
0.000000001
 43
0.00000001
 40
0.0
 40
0.0
 40
0.0
 40
0.0
 40
1.0
 40
1.0
 40
1.0
 40
1.0
 10
2905.45405374727
 20
1419.73140053507
 30
0.0
 10
2904.336459056368
 20
1418.992583585934
 30
0.0
 10
2904.101856750168
 20
1417.523809090595
 30
0.0
 10
2903.87462211042
 20
1416.33259255719
 30
0.0
  0
LINE
  5
83
330
1F
100
AcDbEntity
  8
0
  6
Continuous
 62
     7
370
    25
100
AcDbLine
 10
2905.4540537473
 20
1419.7314005351
 30
0.0
 11
2910.3688919148
 21
1414.1871015888
 31
0.0
  0
LINE
  5
84
330
1F
100
AcDbEntity
  8
0
  6
Continuous
 62
     7
370
    25
100
AcDbLine
 10
2910.3688919148
 20
1414.1871015888
 30
0.0
 11
2907.056604144
 21
1397.5198768944
 31
0.0
  0
LINE
  5
85
330
1F
100
AcDbEntity
  8
0
  6
Continuous
 62
     7
370
    25
100
AcDbLine
 10
2907.056604144
 20
1397.5198768944
 30
0.0
 11
2902.3386257193
 21
1393.5628909807
 31
0.0
  0
SPLINE
  5
86
330
1F
100
AcDbEntity
  8
0
  6
Continuous
 62
     7
370
    25
100
AcDbSpline
210
0.0
220
0.0
230
1.0
 70
     8
 71
     3
 72
    13
 73
     9
 74
     0
 42
0.000000001
 43
0.00000001
 40
0.0
 40
0.0
 40
0.0
 40
0.0
 40
0.5248203374698469
 40
0.6315954106004542
 40
0.6766718996316561
 40
0.6995581398711309
 40
0.762680705618027
 40
1.0
 40
1.0
 40
1.0
 40
1.0
 10
2845.70914619835
 20
1370.55534640487
 30
0.0
 10
2845.480847879759
 20
1369.39217664396
 30
0.0
 10
2845.132705998461
 20
1367.833537483864
 30
0.0
 10
2845.558031394688
 20
1366.306400286974
 30
0.0
 10
2845.929306711608
 20
1365.994167311295
 30
0.0
 10
2846.227610532842
 20
1366.132471376877
 30
0.0
 10
2846.789204932541
 20
1366.6242994795
 30
0.0
 10
2847.305444320774
 20
1367.11983896117
 30
0.0
 10
2847.68439902622
 20
1367.5218848891
 30
0.0
  0
LINE
  5
87
330
1F
100
AcDbEntity
  8
0
  6
Continuous
 62
     7
370
    25
100
AcDbLine
 10
2845.7091461983
 20
1370.5553464049
 30
0.0
 11
2848.9583828059
 21
1389.5239385545
 31
0.0
  0
SPLINE
  5
88
330
1F
100
AcDbEntity
  8
0
  6
Continuous
 62
     7
370
    25
100
AcDbSpline
210
0.0
220
0.0
230
1.0
 70
     8
 71
     3
 72
     8
 73
     4
 74
     0
 42
0.000000001
 43
0.00000001
 40
0.0
 40
0.0
 40
0.0
 40
0.0
 40
1.0
 40
1.0
 40
1.0
 40
1.0
 10
2848.95838280592
 20
1389.52393855445
 30
0.0
 10
2849.136276241786
 20
1390.968311434844
 30
0.0
 10
2850.284864977833
 20
1392.389993484105
 30
0.0
 10
2851.91127894675
 20
1392.3109751078
 30
0.0
  0
LINE
  5
89
330
1F
100
AcDbEntity
  8
0
  6
Continuous
 62
     7
370
    25
100
AcDbLine
 10
2851.9112789467
 20
1392.3109751078
 30
0.0
 11
2855.1699732289
 21
1388.7554149326
 31
0.0
  0
LINE
  5
8A
330
1F
100
AcDbEntity
  8
0
  6
Continuous
 62
     7
370
    25
100
AcDbLine
 10
2855.1699732289
 20
1388.7554149326
 30
0.0
 11
2852.5624573485
 21
1371.7575219161
 31
0.0
  0
LINE
  5
8B
330
1F
100
AcDbEntity
  8
0
  6
Continuous
 62
     7
370
    25
100
AcDbLine
 10
2852.5624573485
 20
1371.7575219161
 30
0.0
 11
2847.6843990262
 21
1367.5218848891
 31
0.0
  0
LINE
  5
8C
330
1F
100
AcDbEntity
  8
0
  6
Continuous
 62
     7
370
    25
100
AcDbLine
 10
2848.0448415088
 20
1366.5740157366
 30
0.0
 11
2847.6843990262
 21
1366.2655575172
 31
0.0
  0
LINE
  5
8D
330
1F
100
AcDbEntity
  8
0
  6
Continuous
 62
     7
370
    25
100
AcDbLine
 10
2848.0448415088
 20
1366.5740157366
 30
0.0
 11
2853.3548002987
 21
1371.3441865129
 31
0.0
  0
LINE
  5
8E
330
1F
100
AcDbEntity
  8
0
  6
Continuous
 62
     7
370
    25
100
AcDbLine
 10
2853.3548002987
 20
1371.3441865129
 30
0.0
 11
2871.2203473771
 21
1371.3441865129
 31
0.0
  0
LINE
  5
8F
330
1F
100
AcDbEntity
  8
0
  6
Continuous
 62
     7
370
    25
100
AcDbLine
 10
2871.2203473771
 20
1371.3441865129
 30
0.0
 11
2875.7817487468
 21
1365.3536254453
 31
0.0
  0
SPLINE
  5
90
330
1F
100
AcDbEntity
  8
0
  6
Continuous
 62
     7
370
    25
100
AcDbSpline
210
0.0
220
0.0
230
1.0
 70
     8
 71
     2
 72
     6
 73
     3
 74
     0
 42
0.000000001
 43
0.00000001
 40
0.0
 40
0.0
 40
0.0
 40
1.0
 40
1.0
 40
1.0
 10
2872.30027368816
 20
1364.03165272462
 30
0.0
 10
2874.361466698188
 20
1363.893291357366
 30
0.0
 10
2875.78174874677
 20
1365.35362544534
 30
0.0
  0
LINE
  5
91
330
1F
100
AcDbEntity
  8
0
  6
Continuous
 62
     7
370
    25
100
AcDbLine
 10
2850.7784597156
 20
1364.0316527246
 30
0.0
 11
2872.3002736882
 21
1364.0316527246
 31
0.0
  0
SPLINE
  5
92
330
1F
100
AcDbEntity
  8
0
  6
Continuous
 62
     7
370
    25
100
AcDbSpline
210
0.0
220
0.0
230
1.0
 70
     8
 71
     3
 72
     8
 73
     4
 74
     0
 42
0.000000001
 43
0.00000001
 40
0.0
 40
0.0
 40
0.0
 40
0.0
 40
1.0
 40
1.0
 40
1.0
 40
1.0
 10
2850.77845971561
 20
1364.03165272462
 30
0.0
 10
2850.278843210966
 20
1364.030474605594
 30
0.0
 10
2844.960814028969
 20
1363.712891667505
 30
0.0
 10
2847.68439902622
 20
1366.265557517163
 30
0.0
  0
SPLINE
  5
93
330
1F
100
AcDbEntity
  8
0
  6
Continuous
 62
     7
370
    25
100
AcDbSpline
210
0.0
220
0.0
230
1.0
 70
     8
 71
     3
 72
    11
 73
     7
 74
     0
 42
0.000000001
 43
0.00000001
 40
0.0
 40
0.0
 40
0.0
 40
0.0
 40
0.3111866404740387
 40
0.3703231883102713
 40
0.5913654783623259
 40
1.0
 40
1.0
 40
1.0
 40
1.0
 10
2850.28666064299
 20
1396.41437983393
 30
0.0
 10
2850.119836658183
 20
1395.82234832127
 30
0.0
 10
2850.038691921944
 20
1395.147343665065
 30
0.0
 10
2850.297655661432
 20
1394.445732509072
 30
0.0
 10
2850.893566357125
 20
1393.642350747661
 30
0.0
 10
2851.821214216102
 20
1393.579533683012
 30
0.0
 10
2852.33862571934
 20
1393.5628909807
 30
0.0
  0
LINE
  5
94
330
1F
100
AcDbEntity
  8
0
  6
Continuous
 62
     7
370
    25
100
AcDbLine
 10
2853.8746221104
 20
1416.3325925572
 30
0.0
 11
2850.286660643
 21
1396.4143798339
 31
0.0
  0
SPLINE
  5
95
330
1F
100
AcDbEntity
  8
0
  6
Continuous
 62
     7
370
    25
100
AcDbSpline
210
0.0
220
0.0
230
1.0
 70
     8
 71
     3
 72
     8
 73
     4
 74
     0
 42
0.000000001
 43
0.00000001
 40
0.0
 40
0.0
 40
0.0
 40
0.0
 40
1.0
 40
1.0
 40
1.0
 40
1.0
 10
2855.45405374727
 20
1419.73140053507
 30
0.0
 10
2854.336459056366
 20
1418.992583585934
 30
0.0
 10
2854.101856750169
 20
1417.523809090594
 30
0.0
 10
2853.87462211042
 20
1416.33259255719
 30
0.0
  0
LINE
  5
96
330
1F
100
AcDbEntity
  8
0
  6
Continuous
 62
     7
370
    25
100
AcDbLine
 10
2855.4540537473
 20
1419.7314005351
 30
0.0
 11
2860.3688919148
 21
1414.1871015888
 31
0.0
  0
LINE
  5
97
330
1F
100
AcDbEntity
  8
0
  6
Continuous
 62
     7
370
    25
100
AcDbLine
 10
2860.3688919148
 20
1414.1871015888
 30
0.0
 11
2857.056604144
 21
1397.5198768944
 31
0.0
  0
LINE
  5
98
330
1F
100
AcDbEntity
  8
0
  6
Continuous
 62
     7
370
    25
100
AcDbLine
 10
2857.056604144
 20
1397.5198768944
 30
0.0
 11
2852.3386257193
 21
1393.5628909807
 31
0.0
  0
SPLINE
  5
99
330
1F
100
AcDbEntity
  8
0
  6
Continuous
 62
     7
370
    25
100
AcDbSpline
210
0.0
220
0.0
230
1.0
 70
     8
 71
     3
 72
    13
 73
     9
 74
     0
 42
0.000000001
 43
0.00000001
 40
0.0
 40
0.0
 40
0.0
 40
0.0
 40
0.2055595684768029
 40
0.3244896654878535
 40
0.3934627531111176
 40
0.4561196477453954
 40
0.6048233373458247
 40
1.0
 40
1.0
 40
1.0
 40
1.0
 10
2892.945046129989
 20
1470.06578632182
 30
0.0
 10
2892.580669501609
 20
1469.725173688875
 30
0.0
 10
2892.12614997771
 20
1469.397983102378
 30
0.0
 10
2891.694046763685
 20
1468.555711166877
 30
0.0
 10
2891.983839463614
 20
1468.066965599389
 30
0.0
 10
2892.49384346649
 20
1467.775962659513
 30
0.0
 10
2893.729511352311
 20
1467.482204797574
 30
0.0
 10
2894.86251040554
 20
1467.487891708035
 30
0.0
 10
2895.678664336759
 20
1467.52342330984
 30
0.0
  0
LINE
  5
9A
330
1F
100
AcDbEntity
  8
0
  6
Continuous
 62
     7
370
    25
100
AcDbLine
 10
2898.2550049198
 20
1474.8359570981
 30
0.0
 11
2892.94504613
 21
1470.0657863218
 31
0.0
  0
LINE
  5
9B
330
1F
100
AcDbEntity
  8
0
  6
Continuous
 62
     7
370
    25
100
AcDbLine
 10
2916.1205519982
 20
1474.8359570981
 30
0.0
 11
2898.2550049198
 21
1474.8359570981
 31
0.0
  0
LINE
  5
9C
330
1F
100
AcDbEntity
  8
0
  6
Continuous
 62
     7
370
    25
100
AcDbLine
 10
2920.6819533679
 20
1468.8453960306
 30
0.0
 11
2916.1205519982
 21
1474.8359570981
 31
0.0
  0
SPLINE
  5
9D
330
1F
100
AcDbEntity
  8
0
  6
Continuous
 62
     7
370
    25
100
AcDbSpline
210
0.0
220
0.0
230
1.0
 70
     8
 71
     3
 72
     8
 73
     4
 74
     0
 42
0.000000001
 43
0.00000001
 40
0.0
 40
0.0
 40
0.0
 40
0.0
 40
1.0
 40
1.0
 40
1.0
 40
1.0
 10
2920.68195336792
 20
1468.84539603056
 30
0.0
 10
2919.810474687936
 20
1467.658093136037
 30
0.0
 10
2918.05588658004
 20
1467.479689307905
 30
0.0
 10
2916.71253236335
 20
1467.52342330984
 30
0.0
  0
LINE
  5
9E
330
1F
100
AcDbEntity
  8
0
  6
Continuous
 62
     7
370
    25
100
AcDbLine
 10
2895.6786643368
 20
1467.5234233098
 30
0.0
 11
2916.7125323633
 21
1467.5234233098
 31
0.0
  0
SPLINE
  5
9F
330
1F
100
AcDbEntity
  8
0
  6
Continuous
 62
     7
370
    25
100
AcDbSpline
210
0.0
220
0.0
230
1.0
 70
     8
 71
     3
 72
    13
 73
     9
 74
     0
 42
0.000000001
 43
0.00000001
 40
0.0
 40
0.0
 40
0.0
 40
0.0
 40
0.4810697296734995
 40
0.5991793734197335
 40
0.676420961395779
 40
0.7059367049819686
 40
0.7577005409311928
 40
1.0
 40
1.0
 40
1.0
 40
1.0
 10
2890.609350819499
 20
1474.0471169901
 30
0.0
 10
2890.335466358435
 20
1473.014976451148
 30
0.0
 10
2890.146482380783
 20
1471.480171970184
 30
0.0
 10
2890.353487509509
 20
1470.002941676303
 30
0.0
 10
2890.769473449217
 20
1469.444453288689
 30
0.0
 10
2891.129124374756
 20
1469.633170863514
 30
0.0
 10
2891.69431503529
 20
1470.109906089221
 30
0.0
 10
2892.201224185149
 20
1470.610728671195
 30
0.0
 10
2892.584603647369
 20
1471.01365547432
 30
0.0
  0
LINE
  5
A0
330
1F
100
AcDbEntity
  8
0
  6
Continuous
 62
     7
370
    25
100
AcDbLine
 10
2893.8585874271
 20
1493.0157091397
 30
0.0
 11
2890.6093508195
 21
1474.0471169901
 31
0.0
  0
SPLINE
  5
A1
330
1F
100
AcDbEntity
  8
0
  6
Continuous
 62
     7
370
    25
100
AcDbSpline
210
0.0
220
0.0
230
1.0
 70
     8
 71
     2
 72
     6
 73
     3
 74
     0
 42
0.000000001
 43
0.00000001
 40
0.0
 40
0.0
 40
0.0
 40
1.0
 40
1.0
 40
1.0
 10
2896.811483567899
 20
1495.80274569302
 30
0.0
 10
2894.252535662
 20
1495.571546151214
 30
0.0
 10
2893.858587427069
 20
1493.01570913967
 30
0.0
  0
LINE
  5
A2
330
1F
100
AcDbEntity
  8
0
  6
Continuous
 62
     7
370
    25
100
AcDbLine
 10
2896.8114835679
 20
1495.802745693
 30
0.0
 11
2900.07017785
 21
1492.2471855178
 31
0.0
  0
LINE
  5
A3
330
1F
100
AcDbEntity
  8
0
  6
Continuous
 62
     7
370
    25
100
AcDbLine
 10
2900.07017785
 20
1492.2471855178
 30
0.0
 11
2897.4626619696
 21
1475.2492925014
 31
0.0
  0
LINE
  5
A4
330
1F
100
AcDbEntity
  8
0
  6
Continuous
 62
     7
370
    25
100
AcDbLine
 10
2897.4626619696
 20
1475.2492925014
 30
0.0
 11
2892.5846036474
 21
1471.0136554743
 31
0.0
  0
SPLINE
  5
A5
330
1F
100
AcDbEntity
  8
0
  6
Continuous
 62
     7
370
    25
100
AcDbSpline
210
0.0
220
0.0
230
1.0
 70
     8
 71
     2
 72
     6
 73
     3
 74
     0
 42
0.000000001
 43
0.00000001
 40
0.0
 40
0.0
 40
0.0
 40
1.0
 40
1.0
 40
1.0
 10
2895.186865264139
 20
1499.90615041915
 30
0.0
 10
2894.370811468551
 20
1497.153323373311
 30
0.0
 10
2897.23883034049
 20
1497.05466156592
 30
0.0
  0
LINE
  5
A6
330
1F
100
AcDbEntity
  8
0
  6
Continuous
 62
     7
370
    25
100
AcDbLine
 10
2898.7748267316
 20
1519.8243631424
 30
0.0
 11
2895.1868652641
 21
1499.9061504191
 31
0.0
  0
SPLINE
  5
A7
330
1F
100
AcDbEntity
  8
0
  6
Continuous
 62
     7
370
    25
100
AcDbSpline
210
0.0
220
0.0
230
1.0
 70
     8
 71
     3
 72
     8
 73
     4
 74
     0
 42
0.000000001
 43
0.00000001
 40
0.0
 40
0.0
 40
0.0
 40
0.0
 40
0.7719642858606911
 40
0.7719642858606911
 40
0.7719642858606911
 40
0.7719642858606911
 10
2900.35425836842
 20
1523.22317112029
 30
0.0
 10
2899.246032589714
 20
1522.410766497715
 30
0.0
 10
2898.989786034815
 20
1521.104040451877
 30
0.0
 10
2898.77482673157
 20
1519.82436314241
 30
0.0
  0
LINE
  5
A8
330
1F
100
AcDbEntity
  8
0
  6
Continuous
 62
     7
370
    25
100
AcDbLine
 10
2905.2690965359
 20
1517.678872174
 30
0.0
 11
2900.3542583684
 21
1523.2231711203
 31
0.0
  0
LINE
  5
A9
330
1F
100
AcDbEntity
  8
0
  6
Continuous
 62
     7
370
    25
100
AcDbLine
 10
2901.9568087652
 20
1501.0116474797
 30
0.0
 11
2905.2690965359
 21
1517.678872174
 31
0.0
  0
LINE
  5
AA
330
1F
100
AcDbEntity
  8
0
  6
Continuous
 62
     7
370
    25
100
AcDbLine
 10
2897.2388303405
 20
1497.0546615659
 30
0.0
 11
2901.9568087652
 21
1501.0116474797
 31
0.0
  0
SPLINE
  5
AB
330
1F
100
AcDbEntity
  8
0
  6
Continuous
 62
     7
370
    25
100
AcDbSpline
210
0.0
220
0.0
230
1.0
 70
     8
 71
     3
 72
    13
 73
     9
 74
     0
 42
0.000000001
 43
0.00000001
 40
0.0
 40
0.0
 40
0.0
 40
0.0
 40
0.4810697296734894
 40
0.5991793734197153
 40
0.6764209613957556
 40
0.7059367049819433
 40
0.7577005409311639
 40
1.0
 40
1.0
 40
1.0
 40
1.0
 10
2840.6093508195
 20
1474.0471169901
 30
0.0
 10
2840.335466358436
 20
1473.014976451149
 30
0.0
 10
2840.146482380782
 20
1471.480171970184
 30
0.0
 10
2840.35348750951
 20
1470.002941676303
 30
0.0
 10
2840.769473449218
 20
1469.444453288689
 30
0.0
 10
2841.129124374755
 20
1469.633170863513
 30
0.0
 10
2841.694315035293
 20
1470.109906089222
 30
0.0
 10
2842.201224185148
 20
1470.610728671194
 30
0.0
 10
2842.58460364737
 20
1471.01365547432
 30
0.0
  0
LINE
  5
AC
330
1F
100
AcDbEntity
  8
0
  6
Continuous
 62
     7
370
    25
100
AcDbLine
 10
2843.8585874271
 20
1493.0157091397
 30
0.0
 11
2840.6093508195
 21
1474.0471169901
 31
0.0
  0
SPLINE
  5
AD
330
1F
100
AcDbEntity
  8
0
  6
Continuous
 62
     7
370
    25
100
AcDbSpline
210
0.0
220
0.0
230
1.0
 70
     8
 71
     2
 72
     6
 73
     3
 74
     0
 42
0.000000001
 43
0.00000001
 40
0.0
 40
0.0
 40
0.0
 40
1.0
 40
1.0
 40
1.0
 10
2846.8114835679
 20
1495.80274569302
 30
0.0
 10
2844.252535661999
 20
1495.571546151214
 30
0.0
 10
2843.85858742707
 20
1493.01570913967
 30
0.0
  0
LINE
  5
AE
330
1F
100
AcDbEntity
  8
0
  6
Continuous
 62
     7
370
    25
100
AcDbLine
 10
2846.8114835679
 20
1495.802745693
 30
0.0
 11
2850.07017785
 21
1492.2471855178
 31
0.0
  0
LINE
  5
AF
330
1F
100
AcDbEntity
  8
0
  6
Continuous
 62
     7
370
    25
100
AcDbLine
 10
2850.07017785
 20
1492.2471855178
 30
0.0
 11
2847.4626619696
 21
1475.2492925014
 31
0.0
  0
LINE
  5
B0
330
1F
100
AcDbEntity
  8
0
  6
Continuous
 62
     7
370
    25
100
AcDbLine
 10
2847.4626619696
 20
1475.2492925014
 30
0.0
 11
2842.5846036474
 21
1471.0136554743
 31
0.0
  0
SPLINE
  5
B1
330
1F
100
AcDbEntity
  8
0
  6
Continuous
 62
     7
370
    25
100
AcDbSpline
210
0.0
220
0.0
230
1.0
 70
     8
 71
     3
 72
     8
 73
     4
 74
     0
 42
0.000000001
 43
0.00000001
 40
0.2911708244720482
 40
0.2911708244720482
 40
0.2911708244720482
 40
0.2911708244720482
 40
0.5125982361526046
 40
0.5125982361526046
 40
0.5125982361526046
 40
0.5125982361526046
 10
2849.420372136466
 20
1522.12089990384
 30
0.0
 10
2849.25376102877
 20
1521.802187621794
 30
0.0
 10
2849.13208865777
 20
1521.458984504362
 30
0.0
 10
2849.036223110474
 20
1521.103594618777
 30
0.0
  0
SPLINE
  5
B2
330
1F
100
AcDbEntity
  8
0
  6
Continuous
 62
     7
370
    25
100
AcDbSpline
210
0.0
220
0.0
230
1.0
 70
     8
 71
     3
 72
     8
 73
     4
 74
     0
 42
0.000000001
 43
0.00000001
 40
0.0
 40
0.0
 40
0.0
 40
0.0
 40
1.0
 40
1.0
 40
1.0
 40
1.0
 10
2850.35425836842
 20
1523.22317112029
 30
0.0
 10
2850.354228675673
 20
1523.22315913325
 30
0.0
 10
2849.873101720029
 20
1523.028926931391
 30
0.0
 10
2849.420372136466
 20
1522.120899903841
 30
0.0
  0
LINE
  5
B3
330
1F
100
AcDbEntity
  8
0
  6
Continuous
 62
     7
370
    25
100
AcDbLine
 10
2855.2690965359
 20
1517.678872174
 30
0.0
 11
2850.3542583684
 21
1523.2231711203
 31
0.0
  0
LINE
  5
B4
330
1F
100
AcDbEntity
  8
0
  6
Continuous
 62
     7
370
    25
100
AcDbLine
 10
2851.9568087652
 20
1501.0116474797
 30
0.0
 11
2855.2690965359
 21
1517.678872174
 31
0.0
  0
LINE
  5
B5
330
1F
100
AcDbEntity
  8
0
  6
Continuous
 62
     7
370
    25
100
AcDbLine
 10
2847.2388303405
 20
1497.0546615659
 30
0.0
 11
2851.9568087652
 21
1501.0116474797
 31
0.0
  0
SPLINE
  5
B6
330
1F
100
AcDbEntity
  8
0
  6
Continuous
 62
     7
370
    25
100
AcDbSpline
210
0.0
220
0.0
230
1.0
 70
     8
 71
     3
 72
     8
 73
     4
 74
     0
 42
0.000000001
 43
0.00000001
 40
0.0
 40
0.0
 40
0.0
 40
0.0
 40
1.0
 40
1.0
 40
1.0
 40
1.0
 10
2845.292699587134
 20
1497.815657160032
 30
0.0
 10
2845.592439185881
 20
1497.382400682569
 30
0.0
 10
2846.171815318244
 20
1497.05466156592
 30
0.0
 10
2847.23883034049
 20
1497.05466156592
 30
0.0
  0
SPLINE
  5
B7
330
1F
100
AcDbEntity
  8
0
  6
Continuous
 62
     7
370
    25
100
AcDbSpline
210
0.0
220
0.0
230
1.0
 70
     8
 71
     2
 72
     6
 73
     3
 74
     0
 42
0.000000001
 43
0.00000001
 40
0.2709274231504906
 40
0.2709274231504906
 40
0.2709274231504906
 40
0.5004236380691476
 40
0.5004236380691476
 40
0.5004236380691476
 10
2845.015099641254
 20
1498.609337900616
 30
0.0
 10
2845.056882300225
 20
1498.14260206259
 30
0.0
 10
2845.292699587134
 20
1497.815657160032
 30
0.0
  0
SPLINE
  5
B8
330
1F
100
AcDbEntity
  8
0
  6
Continuous
 62
     7
370
    25
100
AcDbSpline
210
0.0
220
0.0
230
1.0
 70
     8
 71
     3
 72
     8
 73
     4
 74
     0
 42
0.000000001
 43
0.00000001
 40
0.0
 40
0.0
 40
0.0
 40
0.0
 40
1.0
 40
1.0
 40
1.0
 40
1.0
 10
2845.18686526414
 20
1499.90615041915
 30
0.0
 10
2845.186856840743
 20
1499.90612849058
 30
0.0
 10
2844.945086178256
 20
1499.276728401702
 30
0.0
 10
2845.015099641254
 20
1498.609337900609
 30
0.0
  0
LINE
  5
B9
330
1F
100
AcDbEntity
  8
0
  6
Continuous
 62
     7
370
    25
100
AcDbLine
 10
2848.7748267316
 20
1519.8243631424
 30
0.0
 11
2845.1868652641
 21
1499.9061504192
 31
0.0
  0
SPLINE
  5
BA
330
1F
100
AcDbEntity
  8
0
  6
Continuous
 62
     7
370
    25
100
AcDbSpline
210
0.0
220
0.0
230
1.0
 70
     8
 71
     3
 72
     8
 73
     4
 74
     0
 42
0.000000001
 43
0.00000001
 40
0.0
 40
0.0
 40
0.0
 40
0.0
 40
1.0
 40
1.0
 40
1.0
 40
1.0
 10
2849.036223110475
 20
1521.103594618777
 30
0.0
 10
2848.93351097878
 20
1520.740471279591
 30
0.0
 10
2848.8432864832
 20
1520.317214336993
 30
0.0
 10
2848.77482673157
 20
1519.82436314241
 30
0.0
  0
CIRCLE
  5
BB
330
1F
100
AcDbEntity
  8
0
  6
Continuous
 62
     7
370
    25
100
AcDbCircle
 10
2863.3535557272
 20
1425.2816527246
 30
0.0
 40
3.0
  0
CIRCLE
  5
BC
330
1F
100
AcDbEntity
  8
0
  6
Continuous
 62
     7
370
    25
100
AcDbCircle
 10
2863.3535557272
 20
1464.0937919076
 30
0.0
 40
3.0
  0
CIRCLE
  5
BD
330
1F
100
AcDbEntity
  8
0
  6
Continuous
 62
     7
370
    25
100
AcDbCircle
 10
2863.3535557272
 20
1528.9937919076
 30
0.0
 40
3.0
  0
CIRCLE
  5
BE
330
1F
100
AcDbEntity
  8
0
  6
Continuous
 62
     7
370
    25
100
AcDbCircle
 10
2913.2137787807
 20
1528.9937919076
 30
0.0
 40
3.0
  0
LINE
  5
BF
330
1F
100
AcDbEntity
  8
0
  6
Continuous
 62
     7
370
    25
100
AcDbLine
 10
2871.4133468605
 20
1499.8346924343
 30
0.0
 11
2851.6159822
 21
1499.8346924343
 31
0.0
  0
LINE
  5
C0
330
1F
100
AcDbEntity
  8
0
  6
Continuous
 62
     7
370
    25
100
AcDbLine
 10
2874.3385705464
 20
1496.2118776849
 30
0.0
 11
2871.4133468605
 21
1499.8346924343
 31
0.0
  0
LINE
  5
C1
330
1F
100
AcDbEntity
  8
0
  6
Continuous
 62
     7
370
    25
100
AcDbLine
 10
2870.0349783772
 20
1492.9393471754
 30
0.0
 11
2874.3385705464
 21
1496.2118776849
 31
0.0
  0
LINE
  5
C2
330
1F
100
AcDbEntity
  8
0
  6
Continuous
 62
     7
370
    25
100
AcDbLine
 10
2850.3451509783
 20
1492.9393471754
 30
0.0
 11
2870.0349783772
 21
1492.9393471754
 31
0.0
  0
LINE
  5
C3
330
1F
100
AcDbEntity
  8
0
  6
Continuous
 62
     7
370
    25
100
AcDbLine
 10
2847.4892835719
 20
1496.2118776849
 30
0.0
 11
2850.3451509783
 21
1492.9393471754
 31
0.0
  0
LINE
  5
C4
330
1F
100
AcDbEntity
  8
0
  6
Continuous
 62
     7
370
    25
100
AcDbLine
 10
2851.6159822
 20
1499.8346924343
 30
0.0
 11
2847.4892835719
 21
1496.2118776849
 31
0.0
  0
LINE
  5
C5
330
1F
100
AcDbEntity
  8
0
  6
Continuous
 62
     7
370
    25
100
AcDbLine
 10
2897.4892835719
 20
1496.2118776849
 30
0.0
 11
2900.3451509783
 21
1492.9393471754
 31
0.0
  0
LINE
  5
C6
330
1F
100
AcDbEntity
  8
0
  6
Continuous
 62
     7
370
    25
100
AcDbLine
 10
2901.6159822
 20
1499.8346924343
 30
0.0
 11
2897.4892835719
 21
1496.2118776849
 31
0.0
  0
LINE
  5
C7
330
1F
100
AcDbEntity
  8
0
  6
Continuous
 62
     7
370
    25
100
AcDbLine
 10
2921.4133468605
 20
1499.8346924343
 30
0.0
 11
2901.6159822
 21
1499.8346924343
 31
0.0
  0
LINE
  5
C8
330
1F
100
AcDbEntity
  8
0
  6
Continuous
 62
     7
370
    25
100
AcDbLine
 10
2924.3385705464
 20
1496.2118776849
 30
0.0
 11
2921.4133468605
 21
1499.8346924343
 31
0.0
  0
LINE
  5
C9
330
1F
100
AcDbEntity
  8
0
  6
Continuous
 62
     7
370
    25
100
AcDbLine
 10
2920.0349783772
 20
1492.9393471753
 30
0.0
 11
2924.3385705464
 21
1496.2118776849
 31
0.0
  0
LINE
  5
CA
330
1F
100
AcDbEntity
  8
0
  6
Continuous
 62
     7
370
    25
100
AcDbLine
 10
2900.3451509783
 20
1492.9393471754
 30
0.0
 11
2920.0349783772
 21
1492.9393471753
 31
0.0
  0
LINE
  5
CB
330
1F
100
AcDbEntity
  8
0
  6
Continuous
 62
     7
370
    25
100
AcDbLine
 10
2856.7157775789
 20
1396.342921849
 30
0.0
 11
2852.5890789507
 21
1392.7201070997
 31
0.0
  0
LINE
  5
CC
330
1F
100
AcDbEntity
  8
0
  6
Continuous
 62
     7
370
    25
100
AcDbLine
 10
2876.5131422393
 20
1396.342921849
 30
0.0
 11
2856.7157775789
 21
1396.342921849
 31
0.0
  0
LINE
  5
CD
330
1F
100
AcDbEntity
  8
0
  6
Continuous
 62
     7
370
    25
100
AcDbLine
 10
2879.4383659252
 20
1392.7201070997
 30
0.0
 11
2876.5131422393
 21
1396.342921849
 31
0.0
  0
LINE
  5
CE
330
1F
100
AcDbEntity
  8
0
  6
Continuous
 62
     7
370
    25
100
AcDbLine
 10
2875.1347737561
 20
1389.4475765901
 30
0.0
 11
2879.4383659252
 21
1392.7201070997
 31
0.0
  0
LINE
  5
CF
330
1F
100
AcDbEntity
  8
0
  6
Continuous
 62
     7
370
    25
100
AcDbLine
 10
2855.4449463572
 20
1389.4475765901
 30
0.0
 11
2875.1347737561
 21
1389.4475765901
 31
0.0
  0
LINE
  5
D0
330
1F
100
AcDbEntity
  8
0
  6
Continuous
 62
     7
370
    25
100
AcDbLine
 10
2852.5890789507
 20
1392.7201070997
 30
0.0
 11
2855.4449463572
 21
1389.4475765901
 31
0.0
  0
LINE
  5
D1
330
1F
100
AcDbEntity
  8
0
  6
Continuous
 62
     7
370
    25
100
AcDbLine
 10
2906.7157775789
 20
1396.342921849
 30
0.0
 11
2902.5890789507
 21
1392.7201070997
 31
0.0
  0
LINE
  5
D2
330
1F
100
AcDbEntity
  8
0
  6
Continuous
 62
     7
370
    25
100
AcDbLine
 10
2926.5131422393
 20
1396.342921849
 30
0.0
 11
2906.7157775789
 21
1396.342921849
 31
0.0
  0
LINE
  5
D3
330
1F
100
AcDbEntity
  8
0
  6
Continuous
 62
     7
370
    25
100
AcDbLine
 10
2929.4383659252
 20
1392.7201070997
 30
0.0
 11
2926.5131422393
 21
1396.342921849
 31
0.0
  0
LINE
  5
D4
330
1F
100
AcDbEntity
  8
0
  6
Continuous
 62
     7
370
    25
100
AcDbLine
 10
2925.1347737561
 20
1389.4475765901
 30
0.0
 11
2929.4383659252
 21
1392.7201070997
 31
0.0
  0
LINE
  5
D5
330
1F
100
AcDbEntity
  8
0
  6
Continuous
 62
     7
370
    25
100
AcDbLine
 10
2905.4449463572
 20
1389.4475765901
 30
0.0
 11
2925.1347737561
 21
1389.4475765901
 31
0.0
  0
LINE
  5
D6
330
1F
100
AcDbEntity
  8
0
  6
Continuous
 62
     7
370
    25
100
AcDbLine
 10
2902.5890789507
 20
1392.7201070997
 30
0.0
 11
2905.4449463572
 21
1389.4475765901
 31
0.0
  0
LINE
  5
D7
330
1F
100
AcDbEntity
  8
0
  6
Continuous
 62
     7
370
    25
100
AcDbLine
 10
2844.2735557272
 20
1535.3437919076
 30
0.0
 11
2932.2937787807
 21
1535.3437919076
 31
0.0
  0
ARC
  5
D8
330
1F
100
AcDbEntity
  8
0
  6
Continuous
 62
     7
370
    25
100
AcDbCircle
 10
2844.2735557272
 20
1521.3437919076
 30
0.0
 40
14.0
100
AcDbArc
 50
90.0
 51
180.0
  0
LINE
  5
D9
330
1F
100
AcDbEntity
  8
0
  6
Continuous
 62
     7
370
    25
100
AcDbLine
 10
2830.2735557272
 20
1521.3437919076
 30
0.0
 11
2830.2735557272
 21
1368.0316527246
 31
0.0
  0
ARC
  5
DA
330
1F
100
AcDbEntity
  8
0
  6
Continuous
 62
     7
370
    25
100
AcDbCircle
 10
2844.2735557272
 20
1368.0316527246
 30
0.0
 40
14.00000000000023
100
AcDbArc
 50
180.0
 51
270.0
  0
LINE
  5
DB
330
1F
100
AcDbEntity
  8
0
  6
Continuous
 62
     7
370
    25
100
AcDbLine
 10
2844.2735557272
 20
1354.0316527246
 30
0.0
 11
2932.2937787807
 21
1354.0316527246
 31
0.0
  0
ARC
  5
DC
330
1F
100
AcDbEntity
  8
0
  6
Continuous
 62
     7
370
    25
100
AcDbCircle
 10
2932.2937787807
 20
1368.0316527246
 30
0.0
 40
14.00000000000023
100
AcDbArc
 50
270.0
 51
0.0
  0
LINE
  5
DD
330
1F
100
AcDbEntity
  8
0
  6
Continuous
 62
     7
370
    25
100
AcDbLine
 10
2946.2937787807
 20
1521.3437919076
 30
0.0
 11
2946.2937787807
 21
1368.0316527246
 31
0.0
  0
ARC
  5
DE
330
1F
100
AcDbEntity
  8
0
  6
Continuous
 62
     7
370
    25
100
AcDbCircle
 10
2932.2937787807
 20
1521.3437919076
 30
0.0
 40
14.0
100
AcDbArc
 50
0.0
 51
90.0
  0
CIRCLE
  5
DF
330
1F
100
AcDbEntity
  8
0
  6
Continuous
 62
     7
370
    25
100
AcDbCircle
 10
2863.3535557272
 20
1360.3816527246
 30
0.0
 40
3.0
  0
CIRCLE
  5
E0
330
1F
100
AcDbEntity
  8
0
  6
Continuous
 62
     7
370
    25
100
AcDbCircle
 10
2913.2137787807
 20
1360.3816527246
 30
0.0
 40
3.0
  0
CIRCLE
  5
E1
330
1F
100
AcDbEntity
  8
0
  6
Continuous
 62
     7
370
    25
100
AcDbCircle
 10
2913.2137787807
 20
1464.0937919076
 30
0.0
 40
3.0
  0
CIRCLE
  5
E2
330
1F
100
AcDbEntity
  8
0
  6
Continuous
 62
     7
370
    25
100
AcDbCircle
 10
2913.2137787807
 20
1425.2816527246
 30
0.0
 40
3.0
  0
SPLINE
  5
E3
330
1F
100
AcDbEntity
  8
0
  6
Continuous
 62
     7
370
    25
100
AcDbSpline
210
0.0
220
0.0
230
1.0
 70
     8
 71
     3
 72
    15
 73
    11
 74
     0
 42
0.000000001
 43
0.00000001
 40
0.0
 40
0.0
 40
0.0
 40
0.0
 40
0.2537270956670836
 40
0.3038313839941528
 40
0.4791304944621871
 40
0.5195934468653995
 40
0.6679979556230649
 40
0.7057235967571499
 40
0.8591242170721648
 40
1.0
 40
1.0
 40
1.0
 40
1.0
 10
2876.81227784726
 20
1525.34379190757
 30
0.0
 10
2877.047288392195
 20
1525.311583944472
 30
0.0
 10
2877.653616976858
 20
1525.239008390756
 30
0.0
 10
2878.464891013032
 20
1525.084962193444
 30
0.0
 10
2878.807169606447
 20
1524.972524295851
 30
0.0
 10
2879.303276577541
 20
1524.800652167938
 30
0.0
 10
2879.600300369279
 20
1524.608185970151
 30
0.0
 10
2879.977909434212
 20
1524.269906757406
 30
0.0
 10
2879.857832245601
 20
1523.581116587521
 30
0.0
 10
2879.411616112818
 20
1523.370459487153
 30
0.0
 10
2879.30139765465
 20
1523.22317112029
 30
0.0
  0
SPLINE
  5
E4
330
1F
100
AcDbEntity
  8
0
  6
Continuous
 62
     7
370
    25
100
AcDbSpline
210
0.0
220
0.0
230
1.0
 70
     8
 71
     3
 72
     9
 73
     5
 74
     0
 42
0.000000001
 43
0.00000001
 40
0.0
 40
0.0
 40
0.0
 40
0.0
 40
0.603465416146531
 40
1.0
 40
1.0
 40
1.0
 40
1.0
 10
2879.30139765465
 20
1523.22317112029
 30
0.0
 10
2878.097023080978
 20
1522.299696273478
 30
0.0
 10
2876.177257797984
 20
1520.675286165206
 30
0.0
 10
2874.299423743402
 20
1519.003750767641
 30
0.0
 10
2873.56234067108
 20
1518.33250256541
 30
0.0
  0
LINE
  5
E5
330
1F
100
AcDbEntity
  8
0
  6
Continuous
 62
     7
370
    25
100
AcDbLine
 10
2855.6379458405
 20
1518.3325025654
 30
0.0
 11
2873.5623406711
 21
1518.3325025654
 31
0.0
  0
LINE
  5
E6
330
1F
100
AcDbEntity
  8
0
  6
Continuous
 62
     7
370
    25
100
AcDbLine
 10
2851.0411657626
 20
1523.6603258514
 30
0.0
 11
2855.6379458405
 21
1518.3325025654
 31
0.0
  0
SPLINE
  5
E7
330
1F
100
AcDbEntity
  8
0
  6
Continuous
 62
     7
370
    25
100
AcDbSpline
210
0.0
220
0.0
230
1.0
 70
     8
 71
     3
 72
     8
 73
     4
 74
     0
 42
0.000000001
 43
0.00000001
 40
0.0
 40
0.0
 40
0.0
 40
0.0
 40
1.0
 40
1.0
 40
1.0
 40
1.0
 10
2851.04116576258
 20
1523.66032585145
 30
0.0
 10
2852.0605186485
 20
1525.247411841684
 30
0.0
 10
2853.953085698989
 20
1525.374354909016
 30
0.0
 10
2855.640437515856
 20
1525.338509109498
 30
0.0
  0
LINE
  5
E8
330
1F
100
AcDbEntity
  8
0
  6
Continuous
 62
     7
370
    25
100
AcDbLine
 10
2855.6404375159
 20
1525.3385091095
 30
0.0
 11
2876.8122778473
 21
1525.3437919076
 31
0.0
  0
LINE
  5
E9
330
1F
100
AcDbEntity
  8
0
  6
Continuous
 62
     7
370
    25
100
AcDbLine
 10
2905.6404375159
 20
1525.3385091095
 30
0.0
 11
2926.8122778473
 21
1525.3437919076
 31
0.0
  0
SPLINE
  5
EA
330
1F
100
AcDbEntity
  8
0
  6
Continuous
 62
     7
370
    25
100
AcDbSpline
210
0.0
220
0.0
230
1.0
 70
     8
 71
     3
 72
    15
 73
    11
 74
     0
 42
0.000000001
 43
0.00000001
 40
0.0
 40
0.0
 40
0.0
 40
0.0
 40
0.2537270956670836
 40
0.3038313839941528
 40
0.4791304944621871
 40
0.5195934468653995
 40
0.6679979556230649
 40
0.7057235967571499
 40
0.8591242170721648
 40
1.0
 40
1.0
 40
1.0
 40
1.0
 10
2926.812277847259
 20
1525.34379190757
 30
0.0
 10
2927.047288392194
 20
1525.311583944472
 30
0.0
 10
2927.653616976858
 20
1525.239008390756
 30
0.0
 10
2928.464891013033
 20
1525.084962193444
 30
0.0
 10
2928.807169606446
 20
1524.972524295851
 30
0.0
 10
2929.30327657754
 20
1524.800652167938
 30
0.0
 10
2929.60030036928
 20
1524.608185970151
 30
0.0
 10
2929.977909434212
 20
1524.269906757407
 30
0.0
 10
2929.857832245601
 20
1523.581116587522
 30
0.0
 10
2929.411616112817
 20
1523.370459487154
 30
0.0
 10
2929.30139765465
 20
1523.22317112029
 30
0.0
  0
SPLINE
  5
EB
330
1F
100
AcDbEntity
  8
0
  6
Continuous
 62
     7
370
    25
100
AcDbSpline
210
0.0
220
0.0
230
1.0
 70
     8
 71
     3
 72
     9
 73
     5
 74
     0
 42
0.000000001
 43
0.00000001
 40
0.0
 40
0.0
 40
0.0
 40
0.0
 40
0.6034654161462307
 40
1.0
 40
1.0
 40
1.0
 40
1.0
 10
2929.30139765465
 20
1523.22317112029
 30
0.0
 10
2928.097023080979
 20
1522.299696273479
 30
0.0
 10
2926.177257797984
 20
1520.675286165205
 30
0.0
 10
2924.299423743402
 20
1519.003750767641
 30
0.0
 10
2923.562340671079
 20
1518.33250256541
 30
0.0
  0
LINE
  5
EC
330
1F
100
AcDbEntity
  8
0
  6
Continuous
 62
     7
370
    25
100
AcDbLine
 10
2905.6379458405
 20
1518.3325025654
 30
0.0
 11
2923.5623406711
 21
1518.3325025654
 31
0.0
  0
LINE
  5
ED
330
1F
100
AcDbEntity
  8
0
  6
Continuous
 62
     7
370
    25
100
AcDbLine
 10
2901.0411657626
 20
1523.6603258514
 30
0.0
 11
2905.6379458405
 21
1518.3325025654
 31
0.0
  0
SPLINE
  5
EE
330
1F
100
AcDbEntity
  8
0
  6
Continuous
 62
     7
370
    25
100
AcDbSpline
210
0.0
220
0.0
230
1.0
 70
     8
 71
     3
 72
     8
 73
     4
 74
     0
 42
0.000000001
 43
0.00000001
 40
0.0
 40
0.0
 40
0.0
 40
0.0
 40
1.0
 40
1.0
 40
1.0
 40
1.0
 10
2901.04116576258
 20
1523.66032585145
 30
0.0
 10
2902.060518648502
 20
1525.247411841683
 30
0.0
 10
2903.953085698986
 20
1525.374354909016
 30
0.0
 10
2905.640437515855
 20
1525.338509109498
 30
0.0
  0
LINE
  5
EF
330
1F
100
AcDbEntity
  8
0
  6
Continuous
 62
     7
370
    25
100
AcDbLine
 10
2870.6819533679
 20
1468.8453960306
 30
0.0
 11
2866.1205519982
 21
1474.8359570981
 31
0.0
  0
SPLINE
  5
F0
330
1F
100
AcDbEntity
  8
0
  6
Continuous
 62
     7
370
    25
100
AcDbSpline
210
0.0
220
0.0
230
1.0
 70
     8
 71
     3
 72
     8
 73
     4
 74
     0
 42
0.000000001
 43
0.00000001
 40
0.0
 40
0.0
 40
0.0
 40
0.0
 40
1.0
 40
1.0
 40
1.0
 40
1.0
 10
2870.68195336792
 20
1468.84539603056
 30
0.0
 10
2869.810474687936
 20
1467.658093136036
 30
0.0
 10
2868.055886580041
 20
1467.479689307906
 30
0.0
 10
2866.71253236335
 20
1467.52342330984
 30
0.0
  0
LINE
  5
F1
330
1F
100
AcDbEntity
  8
0
  6
Continuous
 62
     7
370
    25
100
AcDbLine
 10
2845.6786643368
 20
1467.5234233098
 30
0.0
 11
2866.7125323633
 21
1467.5234233098
 31
0.0
  0
SPLINE
  5
F2
330
1F
100
AcDbEntity
  8
0
  6
Continuous
 62
     7
370
    25
100
AcDbSpline
210
0.0
220
0.0
230
1.0
 70
     8
 71
     3
 72
    13
 73
     9
 74
     0
 42
0.000000001
 43
0.00000001
 40
0.0
 40
0.0
 40
0.0
 40
0.0
 40
0.2055595684768252
 40
0.3244896654878624
 40
0.3934627531111405
 40
0.4561196477454459
 40
0.6048233373458347
 40
1.0
 40
1.0
 40
1.0
 40
1.0
 10
2842.94504612999
 20
1470.06578632182
 30
0.0
 10
2842.580669501619
 20
1469.725173688875
 30
0.0
 10
2842.126149977707
 20
1469.397983102378
 30
0.0
 10
2841.694046763686
 20
1468.555711166877
 30
0.0
 10
2841.983839463614
 20
1468.066965599388
 30
0.0
 10
2842.493843466489
 20
1467.775962659514
 30
0.0
 10
2843.729511352312
 20
1467.482204797572
 30
0.0
 10
2844.862510405539
 20
1467.487891708035
 30
0.0
 10
2845.67866433676
 20
1467.52342330984
 30
0.0
  0
LINE
  5
F3
330
1F
100
AcDbEntity
  8
0
  6
Continuous
 62
     7
370
    25
100
AcDbLine
 10
2848.2550049198
 20
1474.8359570981
 30
0.0
 11
2842.94504613
 21
1470.0657863218
 31
0.0
  0
LINE
  5
F4
330
1F
100
AcDbEntity
  8
0
  6
Continuous
 62
     7
370
    25
100
AcDbLine
 10
2866.1205519982
 20
1474.8359570981
 30
0.0
 11
2848.2550049198
 21
1474.8359570981
 31
0.0
  0
LINE
  5
F5
330
1F
100
AcDbEntity
  8
0
  6
Continuous
 62
     7
370
    25
100
AcDbLine
 10
2881.1939834018
 20
1518.8025840152
 30
0.0
 11
2877.9436959415
 21
1499.8346924342
 31
0.0
  0
SPLINE
  5
F6
330
1F
100
AcDbEntity
  8
0
  6
Continuous
 62
     7
370
    25
100
AcDbSpline
210
0.0
220
0.0
230
1.0
 70
     8
 71
     2
 72
     6
 73
     3
 74
     0
 42
0.000000001
 43
0.00000001
 40
0.0
 40
0.0
 40
0.0
 40
1.0
 40
1.0
 40
1.0
 10
2877.94369594146
 20
1499.83469243421
 30
0.0
 10
2877.35557951628
 20
1497.113460826378
 30
0.0
 10
2874.54418739499
 20
1497.05466156592
 30
0.0
  0
LINE
  5
F7
330
1F
100
AcDbEntity
  8
0
  6
Continuous
 62
     7
370
    25
100
AcDbLine
 10
2871.4133468604
 20
1500.8333528016
 30
0.0
 11
2874.544187395
 21
1497.0546615659
 31
0.0
  0
LINE
  5
F8
330
1F
100
AcDbEntity
  8
0
  6
Continuous
 62
     7
370
    25
100
AcDbLine
 10
2874.3385705464
 20
1517.937381943
 30
0.0
 11
2871.4133468604
 21
1500.8333528016
 31
0.0
  0
LINE
  5
F9
330
1F
100
AcDbEntity
  8
0
  6
Continuous
 62
     7
370
    25
100
AcDbLine
 10
2878.8838588409
 20
1521.8374466681
 30
0.0
 11
2874.3385705464
 21
1517.937381943
 31
0.0
  0
SPLINE
  5
FA
330
1F
100
AcDbEntity
  8
0
  6
Continuous
 62
     7
370
    25
100
AcDbSpline
210
0.0
220
0.0
230
1.0
 70
     8
 71
     3
 72
    13
 73
     9
 74
     0
 42
0.000000001
 43
0.00000001
 40
0.0
 40
0.0
 40
0.0
 40
0.0
 40
0.4638583280196789
 40
0.6087985705298677
 40
0.652532866956505
 40
0.679932770277857
 40
0.741305413621215
 40
1.0
 40
1.0
 40
1.0
 40
1.0
 10
2881.19398340184
 20
1518.80258401521
 30
0.0
 10
2881.46085386705
 20
1519.903125785693
 30
0.0
 10
2881.66961735137
 20
1521.359506424828
 30
0.0
 10
2881.433513398579
 20
1522.978990566018
 30
0.0
 10
2880.961560386468
 20
1523.3690745561
 30
0.0
 10
2880.648627440059
 20
1523.216936360717
 30
0.0
 10
2879.974065070606
 20
1522.747373446198
 30
0.0
 10
2879.356902597961
 20
1522.236717093758
 30
0.0
 10
2878.883858840909
 20
1521.83744666813
 30
0.0
  0
LINE
  5
FB
330
1F
100
AcDbEntity
  8
0
  6
Continuous
 62
     7
370
    25
100
AcDbLine
 10
2876.614717536
 20
1492.9435505863
 30
0.0
 11
2873.0267560685
 21
1473.0256881474
 31
0.0
  0
SPLINE
  5
FC
330
1F
100
AcDbEntity
  8
0
  6
Continuous
 62
     7
370
    25
100
AcDbSpline
210
0.0
220
0.0
230
1.0
 70
     8
 71
     2
 72
     6
 73
     3
 74
     0
 42
0.000000001
 43
0.00000001
 40
0.0
 40
0.0
 40
0.0
 40
1.0
 40
1.0
 40
1.0
 10
2873.02675606852
 20
1473.02568814741
 30
0.0
 10
2872.91129216466
 20
1470.914471943962
 30
0.0
 10
2871.27463430148
 20
1469.60971624175
 30
0.0
  0
LINE
  5
FD
330
1F
100
AcDbEntity
  8
0
  6
Continuous
 62
     7
370
    25
100
AcDbLine
 10
2866.7125323633
 20
1475.250693638
 30
0.0
 11
2871.2746343015
 21
1469.6097162417
 31
0.0
  0
LINE
  5
FE
330
1F
100
AcDbEntity
  8
0
  6
Continuous
 62
     7
370
    25
100
AcDbLine
 10
2870.245148921
 20
1492.1750269643
 30
0.0
 11
2866.7125323633
 21
1475.250693638
 31
0.0
  0
LINE
  5
FF
330
1F
100
AcDbEntity
  8
0
  6
Continuous
 62
     7
370
    25
100
AcDbLine
 10
2875.0699640389
 20
1495.7957400083
 30
0.0
 11
2870.245148921
 21
1492.1750269643
 31
0.0
  0
SPLINE
  5
100
330
1F
100
AcDbEntity
  8
0
  6
Continuous
 62
     7
370
    25
100
AcDbSpline
210
0.0
220
0.0
230
1.0
 70
     8
 71
     2
 72
     6
 73
     3
 74
     0
 42
0.000000001
 43
0.00000001
 40
0.0
 40
0.0
 40
0.0
 40
1.0
 40
1.0
 40
1.0
 10
2875.06996403888
 20
1495.79574000829
 30
0.0
 10
2877.501731963357
 20
1495.611408452331
 30
0.0
 10
2876.61471753598
 20
1492.94355058629
 30
0.0
  0
LINE
  5
101
330
1F
100
AcDbEntity
  8
0
  6
Continuous
 62
     7
370
    25
100
AcDbLine
 10
2931.1939834018
 20
1518.8025840152
 30
0.0
 11
2927.9436959415
 21
1499.8346924342
 31
0.0
  0
SPLINE
  5
102
330
1F
100
AcDbEntity
  8
0
  6
Continuous
 62
     7
370
    25
100
AcDbSpline
210
0.0
220
0.0
230
1.0
 70
     8
 71
     2
 72
     6
 73
     3
 74
     0
 42
0.000000001
 43
0.00000001
 40
0.0
 40
0.0
 40
0.0
 40
1.0
 40
1.0
 40
1.0
 10
2927.94369594146
 20
1499.83469243421
 30
0.0
 10
2927.355579516277
 20
1497.11346082638
 30
0.0
 10
2924.544187394989
 20
1497.05466156592
 30
0.0
  0
LINE
  5
103
330
1F
100
AcDbEntity
  8
0
  6
Continuous
 62
     7
370
    25
100
AcDbLine
 10
2921.4133468604
 20
1500.8333528016
 30
0.0
 11
2924.544187395
 21
1497.0546615659
 31
0.0
  0
LINE
  5
104
330
1F
100
AcDbEntity
  8
0
  6
Continuous
 62
     7
370
    25
100
AcDbLine
 10
2924.3385705463
 20
1517.937381943
 30
0.0
 11
2921.4133468604
 21
1500.8333528016
 31
0.0
  0
LINE
  5
105
330
1F
100
AcDbEntity
  8
0
  6
Continuous
 62
     7
370
    25
100
AcDbLine
 10
2928.8838588409
 20
1521.8374466681
 30
0.0
 11
2924.3385705463
 21
1517.937381943
 31
0.0
  0
SPLINE
  5
106
330
1F
100
AcDbEntity
  8
0
  6
Continuous
 62
     7
370
    25
100
AcDbSpline
210
0.0
220
0.0
230
1.0
 70
     8
 71
     3
 72
    13
 73
     9
 74
     0
 42
0.000000001
 43
0.00000001
 40
0.0
 40
0.0
 40
0.0
 40
0.0
 40
0.4638583280266896
 40
0.6087985705299697
 40
0.6525328669566257
 40
0.6799327702779387
 40
0.7413054136212733
 40
1.0
 40
1.0
 40
1.0
 40
1.0
 10
2931.193983401839
 20
1518.80258401521
 30
0.0
 10
2931.460853867044
 20
1519.903125785706
 30
0.0
 10
2931.669617351394
 20
1521.359506424855
 30
0.0
 10
2931.433513398565
 20
1522.97899056603
 30
0.0
 10
2930.961560386467
 20
1523.3690745561
 30
0.0
 10
2930.64862744006
 20
1523.216936360716
 30
0.0
 10
2929.974065070603
 20
1522.747373446201
 30
0.0
 10
2929.35690259796
 20
1522.236717093756
 30
0.0
 10
2928.883858840909
 20
1521.83744666813
 30
0.0
  0
LINE
  5
107
330
1F
100
AcDbEntity
  8
0
  6
Continuous
 62
     7
370
    25
100
AcDbLine
 10
2925.0699640389
 20
1495.7957400083
 30
0.0
 11
2920.245148921
 21
1492.1750269643
 31
0.0
  0
SPLINE
  5
108
330
1F
100
AcDbEntity
  8
0
  6
Continuous
 62
     7
370
    25
100
AcDbSpline
210
0.0
220
0.0
230
1.0
 70
     8
 71
     2
 72
     6
 73
     3
 74
     0
 42
0.000000001
 43
0.00000001
 40
0.0
 40
0.0
 40
0.0
 40
1.0
 40
1.0
 40
1.0
 10
2925.069964038879
 20
1495.79574000829
 30
0.0
 10
2927.501731963358
 20
1495.611408452334
 30
0.0
 10
2926.614717535979
 20
1492.94355058629
 30
0.0
  0
LINE
  5
109
330
1F
100
AcDbEntity
  8
0
  6
Continuous
 62
     7
370
    25
100
AcDbLine
 10
2926.614717536
 20
1492.9435505863
 30
0.0
 11
2923.0267560685
 21
1473.0256881474
 31
0.0
  0
SPLINE
  5
10A
330
1F
100
AcDbEntity
  8
0
  6
Continuous
 62
     7
370
    25
100
AcDbSpline
210
0.0
220
0.0
230
1.0
 70
     8
 71
     2
 72
     6
 73
     3
 74
     0
 42
0.000000001
 43
0.00000001
 40
0.0
 40
0.0
 40
0.0
 40
1.0
 40
1.0
 40
1.0
 10
2923.026756068519
 20
1473.02568814741
 30
0.0
 10
2922.911292164661
 20
1470.914471943962
 30
0.0
 10
2921.274634301479
 20
1469.60971624175
 30
0.0
  0
LINE
  5
10B
330
1F
100
AcDbEntity
  8
0
  6
Continuous
 62
     7
370
    25
100
AcDbLine
 10
2916.7125323633
 20
1475.250693638
 30
0.0
 11
2921.2746343015
 21
1469.6097162417
 31
0.0
  0
LINE
  5
10C
330
1F
100
AcDbEntity
  8
0
  6
Continuous
 62
     7
370
    25
100
AcDbLine
 10
2920.245148921
 20
1492.1750269643
 30
0.0
 11
2916.7125323633
 21
1475.250693638
 31
0.0
  0
SPLINE
  5
10D
330
1F
100
AcDbEntity
  8
0
  6
Continuous
 62
     7
370
    25
100
AcDbSpline
210
0.0
220
0.0
230
1.0
 70
     8
 71
     3
 72
    12
 73
     8
 74
     0
 42
0.000000001
 43
0.00000001
 40
0.0
 40
0.0
 40
0.0
 40
0.0
 40
0.1847011162925065
 40
0.2845146496643141
 40
0.3467925466852298
 40
0.4873832406126481
 40
1.0
 40
1.0
 40
1.0
 40
1.0
 10
2884.4011930335
 20
1419.73140053507
 30
0.0
 10
2884.575950317373
 20
1419.933893531046
 30
0.0
 10
2885.019370468743
 20
1420.177072792763
 30
0.0
 10
2885.038253655741
 20
1420.791348728643
 30
0.0
 10
2884.710618013562
 20
1421.145157855677
 30
0.0
 10
2883.71082751335
 20
1421.641870902273
 30
0.0
 10
2882.687752902796
 20
1421.747235820806
 30
0.0
 10
2881.91207322611
 20
1421.85202132235
 30
0.0
  0
SPLINE
  5
10E
330
1F
100
AcDbEntity
  8
0
  6
Continuous
 62
     7
370
    25
100
AcDbSpline
210
0.0
220
0.0
230
1.0
 70
     8
 71
     3
 72
    10
 73
     6
 74
     0
 42
0.000000001
 43
0.00000001
 40
0.0
 40
0.0
 40
0.0
 40
0.0
 40
0.4598684794373507
 40
0.6470008268518094
 40
1.0
 40
1.0
 40
1.0
 40
1.0
 10
2884.4011930335
 20
1419.73140053507
 30
0.0
 10
2883.482008053176
 20
1419.029663540938
 30
0.0
 10
2882.230692648959
 20
1417.989755557976
 30
0.0
 10
2880.331235283491
 20
1416.342766345573
 30
0.0
 10
2879.318466474306
 20
1415.438069607406
 30
0.0
 10
2878.66213604993
 20
1414.84073198019
 30
0.0
  0
LINE
  5
10F
330
1F
100
AcDbEntity
  8
0
  6
Continuous
 62
     7
370
    25
100
AcDbLine
 10
2860.7377412194
 20
1414.8407319802
 30
0.0
 11
2878.6621360499
 21
1414.8407319802
 31
0.0
  0
LINE
  5
110
330
1F
100
AcDbEntity
  8
0
  6
Continuous
 62
     7
370
    25
100
AcDbLine
 10
2856.1409611414
 20
1420.1685552662
 30
0.0
 11
2860.7377412194
 21
1414.8407319802
 31
0.0
  0
SPLINE
  5
111
330
1F
100
AcDbEntity
  8
0
  6
Continuous
 62
     7
370
    25
100
AcDbSpline
210
0.0
220
0.0
230
1.0
 70
     8
 71
     3
 72
     8
 73
     4
 74
     0
 42
0.000000001
 43
0.00000001
 40
0.0
 40
0.0
 40
0.0
 40
0.0
 40
1.0
 40
1.0
 40
1.0
 40
1.0
 10
2860.5289718124
 20
1421.8502699011
 30
0.0
 10
2858.958228116844
 20
1421.841026579237
 30
0.0
 10
2857.076694411539
 20
1421.713682758631
 30
0.0
 10
2856.14096114143
 20
1420.16855526623
 30
0.0
  0
LINE
  5
112
330
1F
100
AcDbEntity
  8
0
  6
Continuous
 62
     7
370
    25
100
AcDbLine
 10
2860.5289718124
 20
1421.8502699011
 30
0.0
 11
2881.9120732261
 21
1421.8520213224
 31
0.0
  0
LINE
  5
113
330
1F
100
AcDbEntity
  8
0
  6
Continuous
 62
     7
370
    25
100
AcDbLine
 10
2886.2937787807
 20
1415.31081343
 30
0.0
 11
2883.0434913203
 21
1396.342921849
 31
0.0
  0
SPLINE
  5
114
330
1F
100
AcDbEntity
  8
0
  6
Continuous
 62
     7
370
    25
100
AcDbSpline
210
0.0
220
0.0
230
1.0
 70
     8
 71
     3
 72
     8
 73
     4
 74
     0
 42
0.000000001
 43
0.00000001
 40
0.0
 40
0.0
 40
0.0
 40
0.0
 40
1.0
 40
1.0
 40
1.0
 40
1.0
 10
2883.04349132031
 20
1396.34292184898
 30
0.0
 10
2882.850340463276
 20
1394.755328017472
 30
0.0
 10
2881.312556932508
 20
1393.40184834425
 30
0.0
 10
2879.64398277384
 20
1393.5628909807
 30
0.0
  0
LINE
  5
115
330
1F
100
AcDbEntity
  8
0
  6
Continuous
 62
     7
370
    25
100
AcDbLine
 10
2876.5131422393
 20
1397.3415822163
 30
0.0
 11
2879.6439827738
 21
1393.5628909807
 31
0.0
  0
LINE
  5
116
330
1F
100
AcDbEntity
  8
0
  6
Continuous
 62
     7
370
    25
100
AcDbLine
 10
2879.4383659252
 20
1414.4456113578
 30
0.0
 11
2876.5131422393
 21
1397.3415822163
 31
0.0
  0
LINE
  5
117
330
1F
100
AcDbEntity
  8
0
  6
Continuous
 62
     7
370
    25
100
AcDbLine
 10
2883.9836542198
 20
1418.3456760829
 30
0.0
 11
2879.4383659252
 21
1414.4456113578
 31
0.0
  0
SPLINE
  5
118
330
1F
100
AcDbEntity
  8
0
  6
Continuous
 62
     7
370
    25
100
AcDbSpline
210
0.0
220
0.0
230
1.0
 70
     8
 71
     3
 72
    13
 73
     9
 74
     0
 42
0.000000001
 43
0.00000001
 40
0.0
 40
0.0
 40
0.0
 40
0.0
 40
0.3109244772880024
 40
0.3468049608633368
 40
0.3772771071511798
 40
0.4487268925568034
 40
0.5367413126877838
 40
1.0
 40
1.0
 40
1.0
 40
1.0
 10
2883.98365421977
 20
1418.34567608291
 30
0.0
 10
2884.643334564055
 20
1418.8708646795
 30
0.0
 10
2885.145710974421
 20
1419.347524882901
 30
0.0
 10
2886.007967949097
 20
1419.873979293466
 30
0.0
 10
2886.327022542063
 20
1419.681696839772
 30
0.0
 10
2886.542428959615
 20
1419.260840971634
 30
0.0
 10
2886.79444149052
 20
1417.756555156159
 30
0.0
 10
2886.512214751535
 20
1416.398029755674
 30
0.0
 10
2886.29377878069
 20
1415.31081342999
 30
0.0
  0
LINE
  5
119
330
1F
100
AcDbEntity
  8
0
  6
Continuous
 62
     7
370
    25
100
AcDbLine
 10
2881.7145129148
 20
1389.4517800011
 30
0.0
 11
2878.1265514474
 21
1369.5339175622
 31
0.0
  0
SPLINE
  5
11A
330
1F
100
AcDbEntity
  8
0
  6
Continuous
 62
     7
370
    25
100
AcDbSpline
210
0.0
220
0.0
230
1.0
 70
     8
 71
     2
 72
     6
 73
     3
 74
     0
 42
0.000000001
 43
0.00000001
 40
0.0
 40
0.0
 40
0.0
 40
1.0
 40
1.0
 40
1.0
 10
2878.12655144737
 20
1369.53391756219
 30
0.0
 10
2878.003309611383
 20
1367.437956369819
 30
0.0
 10
2876.37442968033
 20
1366.11794565653
 30
0.0
  0
LINE
  5
11B
330
1F
100
AcDbEntity
  8
0
  6
Continuous
 62
     7
370
    25
100
AcDbLine
 10
2871.8123277422
 20
1371.7589230528
 30
0.0
 11
2876.3744296803
 21
1366.1179456565
 31
0.0
  0
LINE
  5
11C
330
1F
100
AcDbEntity
  8
0
  6
Continuous
 62
     7
370
    25
100
AcDbLine
 10
2875.3449442998
 20
1388.6832563791
 30
0.0
 11
2871.8123277422
 21
1371.7589230528
 31
0.0
  0
LINE
  5
11D
330
1F
100
AcDbEntity
  8
0
  6
Continuous
 62
     7
370
    25
100
AcDbLine
 10
2880.1697594177
 20
1392.3039694231
 30
0.0
 11
2875.3449442998
 21
1388.6832563791
 31
0.0
  0
SPLINE
  5
11E
330
1F
100
AcDbEntity
  8
0
  6
Continuous
 62
     7
370
    25
100
AcDbSpline
210
0.0
220
0.0
230
1.0
 70
     8
 71
     3
 72
     8
 73
     4
 74
     0
 42
0.000000001
 43
0.00000001
 40
0.0
 40
0.0
 40
0.0
 40
0.0
 40
1.0
 40
1.0
 40
1.0
 40
1.0
 10
2880.16975941774
 20
1392.30396942307
 30
0.0
 10
2881.674053075662
 20
1392.581280874302
 30
0.0
 10
2882.319071078437
 20
1390.518255328849
 30
0.0
 10
2881.71451291483
 20
1389.45178000107
 30
0.0
  0
SPLINE
  5
11F
330
1F
100
AcDbEntity
  8
0
  6
Continuous
 62
     7
370
    25
100
AcDbSpline
210
0.0
220
0.0
230
1.0
 70
     8
 71
     3
 72
    12
 73
     8
 74
     0
 42
0.000000001
 43
0.00000001
 40
0.0
 40
0.0
 40
0.0
 40
0.0
 40
0.1847011162925398
 40
0.2845146496643495
 40
0.3467925466852522
 40
0.4873832406126377
 40
1.0
 40
1.0
 40
1.0
 40
1.0
 10
2934.4011930335
 20
1419.73140053507
 30
0.0
 10
2934.575950317377
 20
1419.933893531045
 30
0.0
 10
2935.01937046874
 20
1420.177072792763
 30
0.0
 10
2935.038253655742
 20
1420.791348728643
 30
0.0
 10
2934.710618013562
 20
1421.145157855676
 30
0.0
 10
2933.710827513351
 20
1421.641870902275
 30
0.0
 10
2932.687752902794
 20
1421.747235820804
 30
0.0
 10
2931.91207322611
 20
1421.85202132235
 30
0.0
  0
SPLINE
  5
120
330
1F
100
AcDbEntity
  8
0
  6
Continuous
 62
     7
370
    25
100
AcDbSpline
210
0.0
220
0.0
230
1.0
 70
     8
 71
     3
 72
    10
 73
     6
 74
     0
 42
0.000000001
 43
0.00000001
 40
0.0
 40
0.0
 40
0.0
 40
0.0
 40
0.4598684794373704
 40
0.6470008268518289
 40
1.0
 40
1.0
 40
1.0
 40
1.0
 10
2934.4011930335
 20
1419.73140053507
 30
0.0
 10
2933.482008053175
 20
1419.029663540939
 30
0.0
 10
2932.230692648959
 20
1417.989755557976
 30
0.0
 10
2930.331235283491
 20
1416.342766345572
 30
0.0
 10
2929.318466474306
 20
1415.438069607407
 30
0.0
 10
2928.66213604993
 20
1414.84073198019
 30
0.0
  0
LINE
  5
121
330
1F
100
AcDbEntity
  8
0
  6
Continuous
 62
     7
370
    25
100
AcDbLine
 10
2910.7377412194
 20
1414.8407319802
 30
0.0
 11
2928.6621360499
 21
1414.8407319802
 31
0.0
  0
LINE
  5
122
330
1F
100
AcDbEntity
  8
0
  6
Continuous
 62
     7
370
    25
100
AcDbLine
 10
2906.1409611414
 20
1420.1685552662
 30
0.0
 11
2910.7377412194
 21
1414.8407319802
 31
0.0
  0
SPLINE
  5
123
330
1F
100
AcDbEntity
  8
0
  6
Continuous
 62
     7
370
    25
100
AcDbSpline
210
0.0
220
0.0
230
1.0
 70
     8
 71
     3
 72
     8
 73
     4
 74
     0
 42
0.000000001
 43
0.00000001
 40
0.0
 40
0.0
 40
0.0
 40
0.0
 40
1.0
 40
1.0
 40
1.0
 40
1.0
 10
2910.5289718124
 20
1421.8502699011
 30
0.0
 10
2908.958228116844
 20
1421.841026579236
 30
0.0
 10
2907.076694411539
 20
1421.713682758632
 30
0.0
 10
2906.14096114143
 20
1420.16855526623
 30
0.0
  0
LINE
  5
124
330
1F
100
AcDbEntity
  8
0
  6
Continuous
 62
     7
370
    25
100
AcDbLine
 10
2910.5289718124
 20
1421.8502699011
 30
0.0
 11
2931.9120732261
 21
1421.8520213224
 31
0.0
  0
LINE
  5
125
330
1F
100
AcDbEntity
  8
0
  6
Continuous
 62
     7
370
    25
100
AcDbLine
 10
2936.2937787807
 20
1415.31081343
 30
0.0
 11
2933.0434913203
 21
1396.342921849
 31
0.0
  0
SPLINE
  5
126
330
1F
100
AcDbEntity
  8
0
  6
Continuous
 62
     7
370
    25
100
AcDbSpline
210
0.0
220
0.0
230
1.0
 70
     8
 71
     3
 72
     8
 73
     4
 74
     0
 42
0.000000001
 43
0.00000001
 40
0.0
 40
0.0
 40
0.0
 40
0.0
 40
1.0
 40
1.0
 40
1.0
 40
1.0
 10
2933.04349132031
 20
1396.34292184898
 30
0.0
 10
2932.850340463274
 20
1394.755328017471
 30
0.0
 10
2931.312556932509
 20
1393.40184834425
 30
0.0
 10
2929.64398277384
 20
1393.5628909807
 30
0.0
  0
LINE
  5
127
330
1F
100
AcDbEntity
  8
0
  6
Continuous
 62
     7
370
    25
100
AcDbLine
 10
2926.5131422393
 20
1397.3415822163
 30
0.0
 11
2929.6439827738
 21
1393.5628909807
 31
0.0
  0
LINE
  5
128
330
1F
100
AcDbEntity
  8
0
  6
Continuous
 62
     7
370
    25
100
AcDbLine
 10
2929.4383659252
 20
1414.4456113578
 30
0.0
 11
2926.5131422393
 21
1397.3415822163
 31
0.0
  0
LINE
  5
129
330
1F
100
AcDbEntity
  8
0
  6
Continuous
 62
     7
370
    25
100
AcDbLine
 10
2933.9836542198
 20
1418.3456760829
 30
0.0
 11
2929.4383659252
 21
1414.4456113578
 31
0.0
  0
SPLINE
  5
12A
330
1F
100
AcDbEntity
  8
0
  6
Continuous
 62
     7
370
    25
100
AcDbSpline
210
0.0
220
0.0
230
1.0
 70
     8
 71
     3
 72
    13
 73
     9
 74
     0
 42
0.000000001
 43
0.00000001
 40
0.0
 40
0.0
 40
0.0
 40
0.0
 40
0.3109244772880047
 40
0.3468049608633395
 40
0.3772771071511829
 40
0.4487268925568073
 40
0.5367413126877888
 40
1.0
 40
1.0
 40
1.0
 40
1.0
 10
2933.98365421977
 20
1418.34567608291
 30
0.0
 10
2934.643334564054
 20
1418.870864679497
 30
0.0
 10
2935.14571097442
 20
1419.347524882902
 30
0.0
 10
2936.007967949098
 20
1419.873979293466
 30
0.0
 10
2936.327022542063
 20
1419.681696839772
 30
0.0
 10
2936.542428959615
 20
1419.260840971634
 30
0.0
 10
2936.794441490522
 20
1417.756555156159
 30
0.0
 10
2936.51221475153
 20
1416.398029755674
 30
0.0
 10
2936.29377878069
 20
1415.31081342999
 30
0.0
  0
LINE
  5
12B
330
1F
100
AcDbEntity
  8
0
  6
Continuous
 62
     7
370
    25
100
AcDbLine
 10
2931.7145129148
 20
1389.4517800011
 30
0.0
 11
2928.1265514474
 21
1369.5339175622
 31
0.0
  0
SPLINE
  5
12C
330
1F
100
AcDbEntity
  8
0
  6
Continuous
 62
     7
370
    25
100
AcDbSpline
210
0.0
220
0.0
230
1.0
 70
     8
 71
     2
 72
     6
 73
     3
 74
     0
 42
0.000000001
 43
0.00000001
 40
0.0
 40
0.0
 40
0.0
 40
1.0
 40
1.0
 40
1.0
 10
2928.12655144737
 20
1369.53391756219
 30
0.0
 10
2928.003309611381
 20
1367.43795636982
 30
0.0
 10
2926.37442968033
 20
1366.11794565653
 30
0.0
  0
LINE
  5
12D
330
1F
100
AcDbEntity
  8
0
  6
Continuous
 62
     7
370
    25
100
AcDbLine
 10
2921.8123277422
 20
1371.7589230528
 30
0.0
 11
2926.3744296803
 21
1366.1179456565
 31
0.0
  0
LINE
  5
12E
330
1F
100
AcDbEntity
  8
0
  6
Continuous
 62
     7
370
    25
100
AcDbLine
 10
2925.3449442998
 20
1388.6832563791
 30
0.0
 11
2921.8123277422
 21
1371.7589230528
 31
0.0
  0
LINE
  5
12F
330
1F
100
AcDbEntity
  8
0
  6
Continuous
 62
     7
370
    25
100
AcDbLine
 10
2930.1697594177
 20
1392.3039694231
 30
0.0
 11
2925.3449442998
 21
1388.6832563791
 31
0.0
  0
SPLINE
  5
130
330
1F
100
AcDbEntity
  8
0
  6
Continuous
 62
     7
370
    25
100
AcDbSpline
210
0.0
220
0.0
230
1.0
 70
     8
 71
     3
 72
     8
 73
     4
 74
     0
 42
0.000000001
 43
0.00000001
 40
0.0
 40
0.0
 40
0.0
 40
0.0
 40
1.0
 40
1.0
 40
1.0
 40
1.0
 10
2930.169759417739
 20
1392.30396942307
 30
0.0
 10
2931.674053075662
 20
1392.581280874301
 30
0.0
 10
2932.319071078437
 20
1390.51825532885
 30
0.0
 10
2931.71451291483
 20
1389.45178000107
 30
0.0
  0
ENDSEC
  0
SECTION
  2
OBJECTS
  0
DICTIONARY
  5
C
330
0
100
AcDbDictionary
281
     1
  3
ACAD_GROUP
350
D
  3
ACAD_LAYOUT
350
1A
  3
ACAD_MLINESTYLE
350
17
  3
ACAD_PLOTSETTINGS
350
19
  3
ACAD_PLOTSTYLENAME
350
E
  3
ACAD_SCALELIST
350
47
  0
DICTIONARY
  5
D
102
{ACAD_REACTORS
330
C
102
}
330
C
100
AcDbDictionary
281
     1
  0
DICTIONARY
  5
1A
102
{ACAD_REACTORS
330
C
102
}
330
C
100
AcDbDictionary
281
     1
  3
Layout1
350
1E
  3
Layout2
350
26
  3
Model
350
22
  0
DICTIONARY
  5
17
102
{ACAD_REACTORS
330
C
102
}
330
C
100
AcDbDictionary
281
     1
  3
Standard
350
18
  0
DICTIONARY
  5
19
102
{ACAD_REACTORS
330
C
102
}
330
C
100
AcDbDictionary
281
     1
  0
ACDBDICTIONARYWDFLT
  5
E
102
{ACAD_REACTORS
330
C
102
}
330
C
100
AcDbDictionary
281
     1
  3
Normal
350
F
100
AcDbDictionaryWithDefault
340
F
  0
DICTIONARY
  5
47
102
{ACAD_REACTORS
330
C
102
}
330
C
100
AcDbDictionary
281
     1
  3
A0
350
48
  3
A1
350
49
  3
A2
350
4A
  3
A3
350
4B
  3
A4
350
4C
  3
A5
350
4D
  3
A6
350
4E
  3
A7
350
4F
  3
A8
350
50
  3
A9
350
51
  3
B0
350
52
  3
B1
350
53
  3
B2
350
54
  3
B3
350
55
  3
B4
350
56
  3
B5
350
57
  3
B6
350
58
  3
B7
350
59
  3
B8
350
5A
  3
B9
350
5B
  3
C0
350
5C
  3
C1
350
5D
  3
C2
350
5E
  3
C3
350
5F
  3
C4
350
60
  3
C5
350
61
  3
C6
350
62
  3
C7
350
63
  3
C8
350
64
  3
C9
350
65
  3
D0
350
66
  3
D1
350
67
  3
D2
350
68
  0
LAYOUT
  5
1E
102
{ACAD_REACTORS
330
1A
102
}
330
1A
100
AcDbPlotSettings
  1

  2
none_device
  4

  6

 40
0.0
 41
0.0
 42
0.0
 43
0.0
 44
0.0
 45
0.0
 46
0.0
 47
0.0
 48
0.0
 49
0.0
140
0.0
141
0.0
142
1.0
143
1.0
 70
   688
 72
     1
 73
     0
 74
     5
  7

 75
    16
147
1.0
148
0.0
149
0.0
100
AcDbLayout
  1
Layout1
 70
     1
 71
     1
 10
0.0
 20
0.0
 11
420.0
 21
297.0
 12
0.0
 22
0.0
 32
0.0
 14
1.0000000000E+20
 24
1.0000000000E+20
 34
1.0000000000E+20
 15
-1.0000000000E+20
 25
-1.0000000000E+20
 35
-1.0000000000E+20
146
0.0
 13
0.0
 23
0.0
 33
0.0
 16
1.0
 26
0.0
 36
0.0
 17
0.0
 27
1.0
 37
0.0
 76
     0
330
1B
  0
LAYOUT
  5
26
102
{ACAD_REACTORS
330
1A
102
}
330
1A
100
AcDbPlotSettings
  1

  2
none_device
  4

  6

 40
0.0
 41
0.0
 42
0.0
 43
0.0
 44
0.0
 45
0.0
 46
0.0
 47
0.0
 48
0.0
 49
0.0
140
0.0
141
0.0
142
1.0
143
1.0
 70
   688
 72
     1
 73
     0
 74
     5
  7

 75
    16
147
1.0
148
0.0
149
0.0
100
AcDbLayout
  1
Layout2
 70
     1
 71
     2
 10
0.0
 20
0.0
 11
0.0
 21
0.0
 12
0.0
 22
0.0
 32
0.0
 14
0.0
 24
0.0
 34
0.0
 15
0.0
 25
0.0
 35
0.0
146
0.0
 13
0.0
 23
0.0
 33
0.0
 16
1.0
 26
0.0
 36
0.0
 17
0.0
 27
1.0
 37
0.0
 76
     0
330
23
  0
LAYOUT
  5
22
102
{ACAD_REACTORS
330
1A
102
}
330
1A
100
AcDbPlotSettings
  1

  2
none_device
  4
ANSI_A_(11.00_x_8.50_Inches)
  6

 40
6.35
 41
19.05
 42
6.35000508
 43
19.05000254
 44
279.4
 45
215.9
 46
-3271.5220762162
 47
-1614.1795625562
 48
0.0
 49
0.0
140
0.0
141
0.0
142
0.0464116746
143
1.0
 70
  1696
 72
     0
 73
     0
 74
     0
  7

 75
     0
147
0.0179189148
148
-1300.4909072572
149
0.0
100
AcDbLayout
  1
Model
 70
     1
 71
     0
 10
0.0
 20
0.0
 11
420.0
 21
297.0
 12
0.0
 22
0.0
 32
0.0
 14
2830.2735557272
 24
1354.0316527246
 34
0.0
 15
2946.2937787807
 25
1535.3437919076
 35
0.0
146
0.0
 13
0.0
 23
0.0
 33
0.0
 16
1.0
 26
0.0
 36
0.0
 17
0.0
 27
1.0
 37
0.0
 76
     0
330
1F
331
29
  0
MLINESTYLE
  5
18
102
{ACAD_REACTORS
330
17
102
}
330
17
100
AcDbMlineStyle
  2
Standard
 70
     0
  3

 62
   256
 51
90.0
 52
90.0
 71
     2
 49
0.5
 62
   256
  6
BYLAYER
 49
-0.5
 62
   256
  6
BYLAYER
  0
ACDBPLACEHOLDER
  5
F
102
{ACAD_REACTORS
330
E
102
}
330
E
  0
SCALE
  5
48
102
{ACAD_REACTORS
330
47
102
}
330
47
100
AcDbScale
 70
     0
300
1:1
140
1.0
141
1.0
290
     1
  0
SCALE
  5
49
102
{ACAD_REACTORS
330
47
102
}
330
47
100
AcDbScale
 70
     0
300
1:2
140
1.0
141
2.0
290
     0
  0
SCALE
  5
4A
102
{ACAD_REACTORS
330
47
102
}
330
47
100
AcDbScale
 70
     0
300
1:4
140
1.0
141
4.0
290
     0
  0
SCALE
  5
4B
102
{ACAD_REACTORS
330
47
102
}
330
47
100
AcDbScale
 70
     0
300
1:5
140
1.0
141
5.0
290
     0
  0
SCALE
  5
4C
102
{ACAD_REACTORS
330
47
102
}
330
47
100
AcDbScale
 70
     0
300
1:8
140
1.0
141
8.0
290
     0
  0
SCALE
  5
4D
102
{ACAD_REACTORS
330
47
102
}
330
47
100
AcDbScale
 70
     0
300
1:10
140
1.0
141
10.0
290
     0
  0
SCALE
  5
4E
102
{ACAD_REACTORS
330
47
102
}
330
47
100
AcDbScale
 70
     0
300
1:16
140
1.0
141
16.0
290
     0
  0
SCALE
  5
4F
102
{ACAD_REACTORS
330
47
102
}
330
47
100
AcDbScale
 70
     0
300
1:20
140
1.0
141
20.0
290
     0
  0
SCALE
  5
50
102
{ACAD_REACTORS
330
47
102
}
330
47
100
AcDbScale
 70
     0
300
1:30
140
1.0
141
30.0
290
     0
  0
SCALE
  5
51
102
{ACAD_REACTORS
330
47
102
}
330
47
100
AcDbScale
 70
     0
300
1:40
140
1.0
141
40.0
290
     0
  0
SCALE
  5
52
102
{ACAD_REACTORS
330
47
102
}
330
47
100
AcDbScale
 70
     0
300
1:50
140
1.0
141
50.0
290
     0
  0
SCALE
  5
53
102
{ACAD_REACTORS
330
47
102
}
330
47
100
AcDbScale
 70
     0
300
1:100
140
1.0
141
100.0
290
     0
  0
SCALE
  5
54
102
{ACAD_REACTORS
330
47
102
}
330
47
100
AcDbScale
 70
     0
300
2:1
140
2.0
141
1.0
290
     0
  0
SCALE
  5
55
102
{ACAD_REACTORS
330
47
102
}
330
47
100
AcDbScale
 70
     0
300
4:1
140
4.0
141
1.0
290
     0
  0
SCALE
  5
56
102
{ACAD_REACTORS
330
47
102
}
330
47
100
AcDbScale
 70
     0
300
8:1
140
8.0
141
1.0
290
     0
  0
SCALE
  5
57
102
{ACAD_REACTORS
330
47
102
}
330
47
100
AcDbScale
 70
     0
300
10:1
140
10.0
141
1.0
290
     0
  0
SCALE
  5
58
102
{ACAD_REACTORS
330
47
102
}
330
47
100
AcDbScale
 70
     0
300
100:1
140
100.0
141
1.0
290
     0
  0
SCALE
  5
59
102
{ACAD_REACTORS
330
47
102
}
330
47
100
AcDbScale
 70
     0
300
1/128" = 1'-0"
140
0.0078125
141
12.0
290
     0
  0
SCALE
  5
5A
102
{ACAD_REACTORS
330
47
102
}
330
47
100
AcDbScale
 70
     0
300
1/64" = 1'-0"
140
0.015625
141
12.0
290
     0
  0
SCALE
  5
5B
102
{ACAD_REACTORS
330
47
102
}
330
47
100
AcDbScale
 70
     0
300
1/32" = 1'-0"
140
0.03125
141
12.0
290
     0
  0
SCALE
  5
5C
102
{ACAD_REACTORS
330
47
102
}
330
47
100
AcDbScale
 70
     0
300
1/16" = 1'-0"
140
0.0625
141
12.0
290
     0
  0
SCALE
  5
5D
102
{ACAD_REACTORS
330
47
102
}
330
47
100
AcDbScale
 70
     0
300
3/32" = 1'-0"
140
0.09375
141
12.0
290
     0
  0
SCALE
  5
5E
102
{ACAD_REACTORS
330
47
102
}
330
47
100
AcDbScale
 70
     0
300
1/8" = 1'-0"
140
0.125
141
12.0
290
     0
  0
SCALE
  5
5F
102
{ACAD_REACTORS
330
47
102
}
330
47
100
AcDbScale
 70
     0
300
3/16" = 1'-0"
140
0.1875
141
12.0
290
     0
  0
SCALE
  5
60
102
{ACAD_REACTORS
330
47
102
}
330
47
100
AcDbScale
 70
     0
300
1/4" = 1'-0"
140
0.25
141
12.0
290
     0
  0
SCALE
  5
61
102
{ACAD_REACTORS
330
47
102
}
330
47
100
AcDbScale
 70
     0
300
3/8" = 1'-0"
140
0.375
141
12.0
290
     0
  0
SCALE
  5
62
102
{ACAD_REACTORS
330
47
102
}
330
47
100
AcDbScale
 70
     0
300
1/2" = 1'-0"
140
0.5
141
12.0
290
     0
  0
SCALE
  5
63
102
{ACAD_REACTORS
330
47
102
}
330
47
100
AcDbScale
 70
     0
300
3/4" = 1'-0"
140
0.75
141
12.0
290
     0
  0
SCALE
  5
64
102
{ACAD_REACTORS
330
47
102
}
330
47
100
AcDbScale
 70
     0
300
1" = 1'-0"
140
1.0
141
12.0
290
     0
  0
SCALE
  5
65
102
{ACAD_REACTORS
330
47
102
}
330
47
100
AcDbScale
 70
     0
300
1-1/2" = 1'-0"
140
1.5
141
12.0
290
     0
  0
SCALE
  5
66
102
{ACAD_REACTORS
330
47
102
}
330
47
100
AcDbScale
 70
     0
300
3" = 1'-0"
140
3.0
141
12.0
290
     0
  0
SCALE
  5
67
102
{ACAD_REACTORS
330
47
102
}
330
47
100
AcDbScale
 70
     0
300
6" = 1'-0"
140
6.0
141
12.0
290
     0
  0
SCALE
  5
68
102
{ACAD_REACTORS
330
47
102
}
330
47
100
AcDbScale
 70
     0
300
1'-0" = 1'-0"
140
12.0
141
12.0
290
     0
  0
ENDSEC
  0
EOF
