**ABCDEFGHIJKLMNOPQRSTUVWXYZabcdefghijklmnopqrstuvwxyz**************************
**PARASOLID !"#$%&'()*+,-./:;<=>?@[\]^_`{|}~0123456789**************************
**PART1;
MC=AMD64;
MC_MODEL=Intel64 Family 6 Model 158 Stepping 10, GenuineIntel;
MC_ID=unknown;
OS=Windows_NT;
OS_RELEASE=unknown;
FRU=Parasolid Version 30.0, build 226,  7-26-2017;
APPL=SOLIDWORKS 2018-2017278;
SITE=;
USER=unknown;
FORMAT=text;
GUISE=transmit;
KEY=Cruz capa 2;
FILE=Cruz capa 2.x_t;
DATE=Tue May 28 18:11:02 2019;
**PART2;
SCH=SCH_3000226_30000;
USFLD_SIZE=0;
**PART3;
**END_OF_HEADER*****************************************************************
T51 : TRANSMIT FILE created by modeller version 300022623 SCH_3000226_30000_1300
6205 0 12 33 CCCCCCI4 mesh1006 0 I8 polyline1008 0 CCCCCCCDI5 owner1040 0 CCCCCC
I13 boundary_mesh1006 0 I17 boundary_polyline1008 0 CCCA16 index_map_offset0 0 1
 dA9 index_map82 0 A17 node_id_index_map82 0 A20 schema_embedding_map82 0 A5 chi
ld12 0 A14 lowest_node_id0 0 1 dZ1 1500 2 3 0 0 0 0 0 0 1e3 1e-8 0 4 0 1 0 1 1 5
 6 7 8 0 0 9 10 11 0 0 0 0 0 0 81 255 2 2 1329 12 1 0 0 0 0 13 0 70 11 CI9 list_
type0 0 1 uI10 notransmit0 0 1 lCCCDCCDI12 finger_index0 0 1 dI12 finger_block10
12 0 CZ3 0 4 T1 0 0 3 20 1 14 14 13 255 5 414 0 1 0 15 0 0 16 0 51 255 6 393 0 1
7 18 0 0 --.283764 .113764 .006 0 0 -1 .018736 -1 0 0 30 255 7 413 0 10 19 0 0 +
-.3025 .113764 .006 0 0 -1 29 255 8 545 0 11 20 0 -.1225 .1225 .006 19 8 CCCCCCC
A5 owner12 0 Z9 124 0 1 16 0 21 V0 16 255 10 333 0 ?22 0 23 7 0 0 1 18 255 11 54
3 0 24 0 25 8 ?1 17 255 24 0 26 27 28 11 29 30 0 31 -18 25 462 0 32 11 33 20 ?1
 17 32 0 34 35 36 25 37 38 0 39 -18 33 121 0 40 25 41 42 ?1 29 20 464 0 25 43 8
 -.283764 .1225 0 29 43 294 0 44 45 20 -.283764 .1325 0 18 44 253 0 46 47 48 43
 ?1 29 45 295 0 48 49 43 -.1325 .1325 0 18 48 254 0 50 44 51 45 ?1 29 49 296 0 5
1 52 45 -.1325 .283764 0 18 51 255 0 53 48 54 49 ?1 29 52 297 0 54 55 49 -.11376
4 .3025 0 18 54 256 0 56 51 57 52 ?1 29 55 298 0 57 58 52 .113764 .3025 0 18 57
 257 0 59 54 60 55 ?1 29 58 299 0 60 61 55 .1325 .283764 0 18 60 258 0 62 57 63
 58 ?1 29 61 300 0 63 64 58 .1325 .1325 0 18 63 259 0 65 60 66 61 ?1 29 64 301 0
 66 67 61 .283764 .1325 0 18 66 260 0 68 63 69 64 ?1 29 67 302 0 69 70 64 .3025
 .113764 0 18 69 261 0 71 66 72 67 ?1 29 70 303 0 72 73 67 .3025 -.113764 0 18 7
2 262 0 74 69 75 70 ?1 29 73 304 0 75 76 70 .283764 -.1325 0 18 75 263 0 77 72 7
8 73 ?1 29 76 305 0 78 79 73 .1325 -.1325 0 18 78 264 0 80 75 81 76 ?1 29 79 306
 0 81 82 76 .1325 -.283764 0 18 81 265 0 83 78 84 79 ?1 29 82 307 0 84 85 79 .11
3764 -.3025 0 18 84 266 0 86 81 87 82 ?1 29 85 308 0 87 88 82 -.113764 -.3025 0
 18 87 267 0 89 84 90 85 ?1 29 88 309 0 90 91 85 -.1325 -.283764 0 18 90 268 0 9
2 87 93 88 ?1 29 91 310 0 93 94 88 -.1325 -.1325 0 18 93 269 0 95 90 96 91 ?1 29
 94 311 0 96 97 91 -.283764 -.1325 0 18 96 270 0 98 93 99 94 ?1 29 97 312 0 99 1
00 94 -.3025 -.113764 0 18 99 271 0 101 96 102 97 ?1 29 100 313 0 102 42 97 -.30
25 .113764 0 18 102 272 0 103 99 104 100 ?1 29 42 123 0 33 105 100 -.283764 .132
5 .006 29 105 120 0 41 106 42 -.1325 .1325 .006 18 41 118 0 107 33 108 105 ?1 29
 106 117 0 108 109 105 -.1325 .283764 .006 18 108 115 0 110 41 111 106 ?1 29 109
 114 0 111 112 106 -.113764 .3025 .006 18 111 112 0 113 108 114 109 ?1 29 112 11
1 0 114 115 109 .113764 .3025 .006 18 114 109 0 116 111 117 112 ?1 29 115 108 0
 117 118 112 .1325 .283764 .006 18 117 106 0 119 114 120 115 ?1 29 118 105 0 120
 121 115 .1325 .1325 .006 18 120 103 0 122 117 123 118 ?1 29 121 102 0 123 124 1
18 .283764 .1325 .006 18 123 100 0 125 120 126 121 ?1 29 124 99 0 126 127 121 .3
025 .113764 .006 18 126 97 0 128 123 129 124 ?1 29 127 96 0 129 130 124 .3025 -.
113764 .006 18 129 94 0 131 126 132 127 ?1 29 130 93 0 132 133 127 .283764 -.132
5 .006 18 132 91 0 134 129 135 130 ?1 29 133 90 0 135 136 130 .1325 -.1325 .006
 18 135 88 0 137 132 138 133 ?1 29 136 87 0 138 139 133 .1325 -.283764 .006 18 1
38 85 0 140 135 141 136 ?1 29 139 84 0 141 142 136 .113764 -.3025 .006 18 141 82
 0 143 138 144 139 ?1 29 142 81 0 144 145 139 -.113764 -.3025 .006 18 144 79 0 1
46 141 147 142 ?1 29 145 78 0 147 148 142 -.1325 -.283764 .006 18 147 76 0 149 1
44 150 145 ?1 29 148 75 0 150 151 145 -.1325 -.1325 .006 18 150 73 0 152 147 153
 148 ?1 29 151 72 0 153 154 148 -.283764 -.1325 .006 18 153 70 0 155 150 156 151
 ?1 29 154 69 0 156 157 151 -.3025 -.113764 .006 18 156 67 0 158 153 47 154 ?1 2
9 157 66 0 47 159 154 -.3025 .113764 .006 18 47 64 0 160 156 44 157 ?1 29 159 97
9 0 161 162 157 -.1225 .1225 0 18 161 786 0 29 163 164 159 ?1 29 162 980 0 164 1
65 159 -.1225 .283764 0 18 164 785 0 166 161 167 162 ?1 29 165 981 0 167 168 162
 -.113764 .2925 0 18 167 784 0 169 164 170 165 ?1 29 168 982 0 170 171 165 .1137
64 .2925 0 18 170 783 0 172 167 173 168 ?1 29 171 983 0 173 174 168 .1225 .28376
4 0 18 173 782 0 175 170 176 171 ?1 29 174 984 0 176 177 171 .1225 .1225 0 18 17
6 781 0 178 173 179 174 ?1 29 177 985 0 179 180 174 .283764 .1225 0 18 179 780 0
 181 176 182 177 ?1 29 180 986 0 182 183 177 .2925 .113764 0 18 182 779 0 184 17
9 185 180 ?1 29 183 987 0 185 186 180 .2925 -.113764 0 18 185 778 0 187 182 188
 183 ?1 29 186 988 0 188 189 183 .283764 -.1225 0 18 188 777 0 190 185 191 186 ?
1 29 189 989 0 191 192 186 .1225 -.1225 0 18 191 776 0 193 188 194 189 ?1 29 192
 990 0 194 195 189 .1225 -.283764 0 18 194 775 0 196 191 197 192 ?1 29 195 991 0
 197 198 192 .113764 -.2925 0 18 197 774 0 199 194 200 195 ?1 29 198 992 0 200 2
01 195 -.113764 -.2925 0 18 200 773 0 202 197 203 198 ?1 29 201 993 0 203 204 19
8 -.1225 -.283764 0 18 203 772 0 205 200 206 201 ?1 29 204 994 0 206 207 201 -.1
225 -.1225 0 18 206 771 0 208 203 209 204 ?1 29 207 995 0 209 210 204 -.283764 -
.1225 0 18 209 770 0 211 206 212 207 ?1 29 210 996 0 212 213 207 -.2925 -.113764
 0 18 212 768 0 214 209 215 210 ?1 29 213 997 0 215 216 210 -.2925 .113764 0 18
 215 807 0 217 212 0 213 ?1 29 216 998 0 104 218 213 -.283764 .1225 .006 18 104
 806 0 27 102 219 216 ?1 29 218 1000 0 219 220 216 -.1225 .283764 .006 18 219 80
4 0 221 104 222 218 ?1 29 220 1001 0 222 223 218 -.113764 .2925 .006 18 222 803
 0 224 219 225 220 ?1 29 223 1002 0 225 226 220 .113764 .2925 .006 18 225 802 0
 227 222 228 223 ?1 29 226 1003 0 228 229 223 .1225 .283764 .006 18 228 801 0 23
0 225 231 226 ?1 29 229 1004 0 231 232 226 .1225 .1225 .006 18 231 800 0 233 228
 234 229 ?1 29 232 1005 0 234 235 229 .283764 .1225 .006 18 234 799 0 236 231 23
7 232 ?1 29 235 1006 0 237 238 232 .2925 .113764 .006 18 237 798 0 239 234 240 2
35 ?1 29 238 1007 0 240 241 235 .2925 -.113764 .006 18 240 797 0 242 237 243 238
 ?1 29 241 1008 0 243 244 238 .283764 -.1225 .006 18 243 796 0 245 240 246 241 ?
1 29 244 1009 0 246 247 241 .1225 -.1225 .006 18 246 795 0 248 243 249 244 ?1 29
 247 1010 0 249 250 244 .1225 -.283764 .006 18 249 794 0 251 246 252 247 ?1 29 2
50 1011 0 252 253 247 .113764 -.2925 .006 18 252 793 0 254 249 255 250 ?1 29 253
 1012 0 255 256 250 -.113764 -.2925 .006 18 255 792 0 257 252 258 253 ?1 29 256
 1013 0 258 259 253 -.1225 -.283764 .006 18 258 791 0 260 255 261 256 ?1 29 259
 1014 0 261 262 256 -.1225 -.1225 .006 18 261 790 0 263 258 264 259 ?1 29 262 10
15 0 264 265 259 -.283764 -.1225 .006 18 264 789 0 266 261 267 262 ?1 29 265 101
6 0 267 268 262 -.2925 -.113764 .006 18 267 788 0 269 264 163 265 ?1 29 268 1017
 0 163 0 265 -.2925 .113764 .006 18 163 769 0 270 267 161 268 ?1 17 270 0 34 36
 35 163 271 272 0 273 +15 255 34 811 0 32 274 0 17 36 0 34 32 270 215 273 275 0
 37 +17 35 0 34 270 32 104 39 276 0 271 -17 271 0 277 278 279 104 270 272 0 0 -1
6 272 708 0 ?270 280 281 282 0 0 1 17 273 0 283 269 217 163 36 275 0 279 -15 283
 815 0 217 284 0 17 269 0 283 214 273 267 279 280 0 285 +17 217 0 283 273 214 21
5 286 287 0 36 -16 275 635 0 ?36 288 289 290 0 0 1 17 279 0 277 271 291 163 269
 280 0 0 -15 277 623 0 271 15 0 17 291 0 277 279 292 267 266 293 0 0 -16 280 711
 0 ?269 293 272 294 0 0 1 16 293 714 0 ?266 295 280 296 0 0 1 30 294 976 0 280 2
82 296 0 +-.2925 .113764 .006 0 -1 0 31 255 282 977 0 272 0 294 0 +-.283764 .113
764 .006 0 0 1 -1 0 0 .008736 31 296 975 0 293 294 297 0 +-.283764 -.113764 .006
 0 0 1 -1 0 0 .008736 30 297 974 0 295 296 298 0 +-.283764 -.1225 .006 1 -344225
31520524e-29 0 16 295 717 0 ?263 299 293 297 0 0 1 30 298 973 0 299 297 300 0 +-
.1225 -.283764 .006 17211265760262e-29 -1 0 16 299 720 0 ?260 301 295 298 0 0 1
 31 300 972 0 301 298 302 0 +-.113764 -.283764 .006 0 0 1 -1 0 0 .008736 16 301
 723 0 ?257 303 299 300 0 0 1 30 302 971 0 303 300 304 0 +-.113764 -.2925 .006 1
 0 0 16 303 726 0 ?254 305 301 302 0 0 1 31 304 970 0 305 302 306 0 +.113764 -.2
83764 .006 0 0 1 -1 0 0 .008736 16 305 729 0 ?251 307 303 304 0 0 1 30 306 969 0
 307 304 308 0 +.1225 -.1225 .006 -17211265760262e-29 1 0 16 307 732 0 ?248 309
 305 306 0 0 1 30 308 968 0 309 306 310 0 +.283764 -.1225 .006 1 17211265760262e
-29 0 16 309 735 0 ?245 311 307 308 0 0 1 31 310 967 0 311 308 312 0 +.283764 -.
113764 .006 0 0 1 -1 0 0 .008736 16 311 738 0 ?242 313 309 310 0 0 1 30 312 966
 0 313 310 314 0 +.2925 .113764 .006 -24397503266085e-29 1 0 16 313 741 0 ?239 3
15 311 312 0 0 1 31 314 965 0 315 312 316 0 +.283764 .113764 .006 0 0 1 -1 0 0 .
008736 16 315 744 0 ?236 317 313 314 0 0 1 30 316 964 0 317 314 318 0 +.1225 .12
25 .006 -1 0 0 16 317 747 0 ?233 319 315 316 0 0 1 30 318 963 0 319 316 320 0 +.
1225 .283764 .006 -17211265760262e-29 1 0 16 319 750 0 ?230 321 317 318 0 0 1 31
 320 962 0 321 318 322 0 +.113764 .283764 .006 0 0 1 -1 0 0 .008736 16 321 753 0
 ?227 323 319 320 0 0 1 30 322 961 0 323 320 324 0 +-.113764 .2925 .006 -1 0 0 1
6 323 756 0 ?224 325 321 322 0 0 1 31 324 960 0 325 322 326 0 +-.113764 .283764
 .006 0 0 1 -1 0 0 .008736 16 325 759 0 ?221 327 323 324 0 0 1 30 326 959 0 327
 324 328 0 +-.1225 .1225 .006 0 -1 0 16 327 762 0 ?31 329 325 326 0 0 1 30 328 9
58 0 329 326 330 0 +-.283764 .1225 .006 -1 0 0 16 329 765 0 ?27 276 327 328 0 0
 1 31 330 957 0 38 328 331 0 +-.283764 .113764 0 0 0 1 -1 0 0 .008736 16 38 628
 0 ?37 287 0 330 0 0 1 30 331 956 0 287 330 332 0 +-.2925 .113764 0 0 -1 0 16 28
7 632 0 ?286 333 38 331 0 0 1 31 332 955 0 333 331 334 0 +-.283764 -.113764 0 0
 0 1 -1 0 0 .008736 16 333 636 0 ?335 336 287 332 0 0 1 30 334 954 0 336 332 337
 0 +-.283764 -.1225 0 1 -34422531520524e-29 0 16 336 640 0 ?338 339 333 334 0 0
 1 30 337 953 0 339 334 340 0 +-.1225 -.283764 0 17211265760262e-29 -1 0 16 339
 644 0 ?341 342 336 337 0 0 1 31 340 952 0 342 337 343 0 +-.113764 -.283764 0 0
 0 1 -1 0 0 .008736 16 342 648 0 ?344 345 339 340 0 0 1 30 343 951 0 345 340 346
 0 +-.113764 -.2925 0 1 0 0 16 345 652 0 ?347 348 342 343 0 0 1 31 346 950 0 348
 343 349 0 +.113764 -.283764 0 0 0 1 -1 0 0 .008736 16 348 656 0 ?350 351 345 34
6 0 0 1 30 349 949 0 351 346 352 0 +.1225 -.1225 0 -17211265760262e-29 1 0 16 35
1 660 0 ?353 354 348 349 0 0 1 30 352 948 0 354 349 355 0 +.283764 -.1225 0 1 17
211265760262e-29 0 16 354 664 0 ?356 357 351 352 0 0 1 31 355 947 0 357 352 358
 0 +.283764 -.113764 0 0 0 1 -1 0 0 .008736 16 357 668 0 ?359 360 354 355 0 0 1
 30 358 946 0 360 355 361 0 +.2925 .113764 0 -24397503266085e-29 1 0 16 360 672
 0 ?362 363 357 358 0 0 1 31 361 945 0 363 358 364 0 +.283764 .113764 0 0 0 1 -1
 0 0 .008736 16 363 676 0 ?365 366 360 361 0 0 1 30 364 944 0 366 361 367 0 +.12
25 .1225 0 -1 0 0 16 366 680 0 ?368 369 363 364 0 0 1 30 367 943 0 369 364 370 0
 +.1225 .283764 0 -17211265760262e-29 1 0 16 369 684 0 ?371 372 366 367 0 0 1 31
 370 942 0 372 367 373 0 +.113764 .283764 0 0 0 1 -1 0 0 .008736 16 372 688 0 ?3
74 375 369 370 0 0 1 30 373 941 0 375 370 376 0 +-.113764 .2925 0 -1 0 0 16 375
 692 0 ?377 378 372 373 0 0 1 31 376 940 0 378 373 379 0 +-.113764 .283764 0 0 0
 1 -1 0 0 .008736 16 378 696 0 ?380 381 375 376 0 0 1 30 379 939 0 381 376 382 0
 +-.1225 .1225 0 0 -1 0 16 381 700 0 ?383 281 378 379 0 0 1 30 382 938 0 281 379
 384 0 +-.283764 .1225 0 -1 0 0 16 281 704 0 ?385 272 381 382 0 0 1 30 384 937 0
 276 382 386 0 +-.283764 .1225 .006 0 0 -1 16 276 631 0 ?39 30 329 384 0 0 1 30
 386 936 0 30 384 387 0 +-.1225 .1225 .006 0 0 -1 16 30 707 0 ?29 388 276 386 0
 0 1 30 387 935 0 388 386 389 0 +-.1225 .283764 .006 0 0 -1 16 388 703 0 ?166 39
0 30 387 0 0 1 30 389 934 0 390 387 391 0 +-.113764 .2925 .006 0 0 -1 16 390 699
 0 ?169 392 388 389 0 0 1 30 391 933 0 392 389 393 0 +.113764 .2925 .006 0 0 -1
 16 392 695 0 ?172 394 390 391 0 0 1 30 393 932 0 394 391 395 0 +.1225 .283764 .
006 0 0 -1 16 394 691 0 ?175 396 392 393 0 0 1 30 395 931 0 396 393 397 0 +.1225
 .1225 .006 0 0 -1 16 396 687 0 ?178 398 394 395 0 0 1 30 397 930 0 398 395 399
 0 +.283764 .1225 .006 0 0 -1 16 398 683 0 ?181 400 396 397 0 0 1 30 399 929 0 4
00 397 401 0 +.2925 .113764 .006 0 0 -1 16 400 679 0 ?184 402 398 399 0 0 1 30 4
01 928 0 402 399 403 0 +.2925 -.113764 .006 0 0 -1 16 402 675 0 ?187 404 400 401
 0 0 1 30 403 927 0 404 401 405 0 +.283764 -.1225 .006 0 0 -1 16 404 671 0 ?190
 406 402 403 0 0 1 30 405 926 0 406 403 407 0 +.1225 -.1225 .006 0 0 -1 16 406 6
67 0 ?193 408 404 405 0 0 1 30 407 925 0 408 405 409 0 +.1225 -.283764 .006 0 0
 -1 16 408 663 0 ?196 410 406 407 0 0 1 30 409 924 0 410 407 411 0 +.113764 -.29
25 .006 0 0 -1 16 410 659 0 ?199 412 408 409 0 0 1 30 411 923 0 412 409 413 0 +-
.113764 -.2925 .006 0 0 -1 16 412 655 0 ?202 414 410 411 0 0 1 30 413 922 0 414
 411 415 0 +-.1225 -.283764 .006 0 0 -1 16 414 651 0 ?205 416 412 413 0 0 1 30 4
15 921 0 416 413 417 0 +-.1225 -.1225 .006 0 0 -1 16 416 647 0 ?208 418 414 415
 0 0 1 30 417 920 0 418 415 419 0 +-.283764 -.1225 .006 0 0 -1 16 418 643 0 ?211
 289 416 417 0 0 1 30 419 919 0 289 417 290 0 +-.2925 -.113764 .006 0 0 -1 16 28
9 639 0 ?214 275 418 419 0 0 1 30 290 918 0 275 419 420 0 +-.2925 .113764 .006 0
 0 -1 31 420 5 0 421 290 422 0 +-.283764 .113764 .006 0 0 1 -1 0 0 .018736 16 42
1 4 0 ?423 424 425 420 0 0 1 30 422 8 0 424 420 426 0 +-.3025 .113764 .006 0 -1
 0 16 424 7 0 ?158 427 421 422 0 0 1 31 426 11 0 427 422 428 0 +-.283764 -.11376
4 .006 0 0 1 -1 0 0 .018736 16 427 10 0 ?155 429 424 426 0 0 1 30 428 14 0 429 4
26 430 0 +-.283764 -.1325 .006 1 -183490953667951e-30 0 16 429 13 0 ?152 431 427
 428 0 0 1 30 430 17 0 431 428 432 0 +-.1325 -.283764 .006 0 -1 0 16 431 16 0 ?1
49 433 429 430 0 0 1 31 432 20 0 433 430 434 0 +-.113764 -.283764 .006 0 0 1 -1
 0 0 .018736 16 433 19 0 ?146 435 431 432 0 0 1 30 434 23 0 435 432 436 0 +-.113
764 -.3025 .006 1 0 0 16 435 22 0 ?143 437 433 434 0 0 1 31 436 26 0 437 434 438
 0 +.113764 -.283764 .006 0 0 1 -1 0 0 .018736 16 437 25 0 ?140 439 435 436 0 0
 1 30 438 29 0 439 436 440 0 +.1325 -.1325 .006 -3669819073359015e-31 1 0 16 439
 28 0 ?137 441 437 438 0 0 1 30 440 32 0 441 438 442 0 +.283764 -.1325 .006 1 0
 0 16 441 31 0 ?134 443 439 440 0 0 1 31 442 35 0 443 440 444 0 +.283764 -.11376
4 .006 0 0 1 -1 0 0 .018736 16 443 34 0 ?131 445 441 442 0 0 1 30 444 38 0 445 4
42 446 0 +.3025 .113764 .006 0 1 0 16 445 37 0 ?128 447 443 444 0 0 1 31 446 41
 0 447 444 448 0 +.283764 .113764 .006 0 0 1 -1 0 0 .018736 16 447 40 0 ?125 449
 445 446 0 0 1 30 448 44 0 449 446 450 0 +.1325 .1325 .006 -1 -3669819073359015e
-31 0 16 449 43 0 ?122 451 447 448 0 0 1 30 450 47 0 451 448 452 0 +.1325 .28376
4 .006 0 1 0 16 451 46 0 ?119 453 449 450 0 0 1 31 452 50 0 453 450 454 0 +.1137
64 .283764 .006 0 0 1 -1 0 0 .018736 16 453 49 0 ?116 455 451 452 0 0 1 30 454 5
3 0 455 452 456 0 +-.113764 .3025 .006 -1 0 0 16 455 52 0 ?113 457 453 454 0 0 1
 31 456 56 0 457 454 458 0 +-.113764 .283764 .006 0 0 1 -1 0 0 .018736 16 457 55
 0 ?110 459 455 456 0 0 1 30 458 59 0 459 456 460 0 +-.1325 .1325 .006 0 -1 0 16
 459 58 0 ?107 461 457 458 0 0 1 30 460 62 0 461 458 462 0 +-.283764 .1325 .006
 -1 -183490953667951e-30 0 16 461 61 0 ?40 463 459 460 0 0 1 31 462 293 0 288 46
0 464 0 +-.283764 .113764 0 0 0 1 -1 0 0 .018736 16 288 249 0 ?465 466 275 462 0
 0 1 30 464 292 0 466 462 467 0 +-.3025 .113764 0 0 -1 0 16 466 245 0 ?101 468 2
88 464 0 0 1 31 467 291 0 468 464 469 0 +-.283764 -.113764 0 0 0 1 -1 0 0 .01873
6 16 468 241 0 ?98 470 466 467 0 0 1 30 469 290 0 470 467 471 0 +-.283764 -.1325
 0 1 -183490953667951e-30 0 16 470 237 0 ?95 472 468 469 0 0 1 30 471 289 0 472
 469 473 0 +-.1325 -.283764 0 0 -1 0 16 472 233 0 ?92 474 470 471 0 0 1 31 473 2
88 0 474 471 475 0 +-.113764 -.283764 0 0 0 1 -1 0 0 .018736 16 474 229 0 ?89 47
6 472 473 0 0 1 30 475 287 0 476 473 477 0 +-.113764 -.3025 0 1 0 0 16 476 225 0
 ?86 478 474 475 0 0 1 31 477 286 0 478 475 479 0 +.113764 -.283764 0 0 0 1 -1 0
 0 .018736 16 478 221 0 ?83 480 476 477 0 0 1 30 479 285 0 480 477 481 0 +.1325
 -.1325 0 -3669819073359015e-31 1 0 16 480 217 0 ?80 482 478 479 0 0 1 30 481 28
4 0 482 479 483 0 +.283764 -.1325 0 1 0 0 16 482 213 0 ?77 484 480 481 0 0 1 31
 483 283 0 484 481 485 0 +.283764 -.113764 0 0 0 1 -1 0 0 .018736 16 484 209 0 ?
74 486 482 483 0 0 1 30 485 282 0 486 483 487 0 +.3025 .113764 0 0 1 0 16 486 20
5 0 ?71 488 484 485 0 0 1 31 487 281 0 488 485 489 0 +.283764 .113764 0 0 0 1 -1
 0 0 .018736 16 488 201 0 ?68 490 486 487 0 0 1 30 489 280 0 490 487 491 0 +.132
5 .1325 0 -1 -3669819073359015e-31 0 16 490 197 0 ?65 492 488 489 0 0 1 30 491 2
79 0 492 489 493 0 +.1325 .283764 0 0 1 0 16 492 193 0 ?62 494 490 491 0 0 1 31
 493 278 0 494 491 495 0 +.113764 .283764 0 0 0 1 -1 0 0 .018736 16 494 189 0 ?5
9 496 492 493 0 0 1 30 495 277 0 496 493 497 0 +-.113764 .3025 0 -1 0 0 16 496 1
85 0 ?56 498 494 495 0 0 1 31 497 276 0 498 495 499 0 +-.113764 .283764 0 0 0 1
 -1 0 0 .018736 16 498 181 0 ?53 500 496 497 0 0 1 30 499 275 0 500 497 501 0 +-
.1325 .1325 0 0 -1 0 16 500 177 0 ?50 425 498 499 0 0 1 30 501 274 0 425 499 502
 0 +-.283764 .1325 0 -1 -183490953667951e-30 0 16 425 173 0 ?46 421 500 501 0 0
 1 30 502 394 0 463 501 503 0 +-.283764 .1325 .006 0 0 -1 16 463 314 0 ?504 505
 461 502 0 0 1 30 503 395 0 505 502 506 0 +-.1325 .1325 .006 0 0 -1 16 505 315 0
 ?507 508 463 503 0 0 1 30 506 396 0 508 503 509 0 +-.1325 .283764 .006 0 0 -1 1
6 508 316 0 ?510 511 505 506 0 0 1 30 509 397 0 511 506 512 0 +-.113764 .3025 .0
06 0 0 -1 16 511 317 0 ?513 514 508 509 0 0 1 30 512 398 0 514 509 515 0 +.11376
4 .3025 .006 0 0 -1 16 514 318 0 ?516 517 511 512 0 0 1 30 515 399 0 517 512 518
 0 +.1325 .283764 .006 0 0 -1 16 517 319 0 ?519 520 514 515 0 0 1 30 518 400 0 5
20 515 521 0 +.1325 .1325 .006 0 0 -1 16 520 320 0 ?522 523 517 518 0 0 1 30 521
 401 0 523 518 524 0 +.283764 .1325 .006 0 0 -1 16 523 321 0 ?525 526 520 521 0
 0 1 30 524 402 0 526 521 527 0 +.3025 .113764 .006 0 0 -1 16 526 322 0 ?528 529
 523 524 0 0 1 30 527 403 0 529 524 530 0 +.3025 -.113764 .006 0 0 -1 16 529 323
 0 ?531 532 526 527 0 0 1 30 530 404 0 532 527 533 0 +.283764 -.1325 .006 0 0 -1
 16 532 324 0 ?534 535 529 530 0 0 1 30 533 405 0 535 530 536 0 +.1325 -.1325 .0
06 0 0 -1 16 535 325 0 ?537 538 532 533 0 0 1 30 536 406 0 538 533 539 0 +.1325
 -.283764 .006 0 0 -1 16 538 326 0 ?540 541 535 536 0 0 1 30 539 407 0 541 536 5
42 0 +.113764 -.3025 .006 0 0 -1 16 541 327 0 ?543 544 538 539 0 0 1 30 542 408
 0 544 539 545 0 +-.113764 -.3025 .006 0 0 -1 16 544 328 0 ?546 547 541 542 0 0
 1 30 545 409 0 547 542 548 0 +-.1325 -.283764 .006 0 0 -1 16 547 329 0 ?549 550
 544 545 0 0 1 30 548 410 0 550 545 551 0 +-.1325 -.1325 .006 0 0 -1 16 550 330
 0 ?552 553 547 548 0 0 1 30 551 411 0 553 548 19 0 +-.283764 -.1325 .006 0 0 -1
 16 553 331 0 ?554 23 550 551 0 0 1 30 19 412 0 23 551 7 0 +-.3025 -.113764 .006
 0 0 -1 16 23 332 0 ?555 10 553 19 0 0 1 17 555 0 556 98 557 99 558 23 0 559 +15
 556 368 0 98 560 0 17 98 0 556 561 555 96 559 468 0 554 +17 557 0 556 555 561 1
56 155 427 0 0 -17 558 0 562 160 101 156 555 23 0 557 -17 559 0 563 103 564 99 9
8 468 0 0 -15 563 172 0 565 566 567 17 103 0 563 565 559 102 101 466 0 22 -17 56
4 0 563 559 568 96 95 470 0 0 -17 568 0 563 564 569 93 92 472 0 0 -17 95 0 570 5
71 554 93 564 470 0 552 +15 570 366 0 95 572 0 17 571 0 570 573 95 150 552 550 0
 574 -17 554 0 570 95 573 96 561 553 0 564 +17 552 0 575 92 574 93 571 550 0 568
 +15 575 364 0 92 576 0 17 92 0 575 577 552 90 568 472 0 549 +17 574 0 575 552 5
77 150 149 431 0 0 -17 577 0 575 574 92 147 549 547 0 578 -17 149 0 579 146 152
 147 574 431 0 577 +15 579 3 0 423 15 277 17 146 0 579 143 149 144 578 433 0 580
 +17 152 0 579 149 155 150 573 429 0 571 +17 155 0 579 152 158 153 557 427 0 561
 +17 573 0 570 554 571 153 152 429 0 0 -17 158 0 579 155 423 156 160 424 0 558 +
17 561 0 556 557 98 153 554 553 0 573 -17 423 0 579 158 40 47 581 421 0 582 +17
 160 0 562 22 558 47 158 424 0 423 -15 562 370 0 101 583 0 17 22 0 562 101 160 1
02 582 10 0 465 +17 101 0 562 558 22 99 103 466 0 555 +17 582 0 584 581 465 47 2
2 10 0 0 -17 465 0 584 582 504 102 565 288 0 0 +15 584 372 0 465 17 0 17 504 0 5
84 465 581 44 585 463 0 565 +17 565 0 563 586 103 44 465 288 0 0 -17 586 0 563 5
87 565 48 46 425 0 0 -17 587 0 563 588 586 51 50 500 0 0 -17 46 0 589 585 507 44
 586 425 0 504 +15 589 334 0 46 590 0 17 585 0 589 591 46 33 504 463 0 581 -17 5
07 0 589 46 591 48 592 505 0 586 +17 591 0 589 507 585 41 40 461 0 0 -17 592 0 5
93 594 50 41 507 505 0 591 -15 593 336 0 50 595 0 17 594 0 593 510 592 108 107 4
59 0 0 -17 50 0 593 592 510 48 587 500 0 507 +17 510 0 593 50 594 51 596 508 0 5
87 +17 596 0 597 598 53 108 510 508 0 594 -15 597 338 0 53 599 0 17 598 0 597 51
3 596 111 110 457 0 0 -17 53 0 597 596 513 51 588 498 0 510 +17 513 0 597 53 598
 54 600 511 0 588 +17 588 0 563 601 587 54 53 498 0 0 -17 601 0 563 602 588 57 5
6 496 0 0 -17 602 0 563 603 601 60 59 494 0 0 -17 56 0 604 600 516 54 601 496 0
 513 +15 604 340 0 56 605 0 17 600 0 604 606 56 111 513 511 0 598 -17 516 0 604
 56 606 57 607 514 0 601 +17 606 0 604 516 600 114 113 455 0 0 -17 607 0 608 609
 59 114 516 514 0 606 -15 608 342 0 59 610 0 17 609 0 608 519 607 117 116 453 0
 0 -17 59 0 608 607 519 57 602 494 0 516 +17 519 0 608 59 609 60 611 517 0 602 +
17 611 0 612 613 62 117 519 517 0 609 -15 612 344 0 62 614 0 17 613 0 612 522 61
1 120 119 451 0 0 -17 62 0 612 611 522 60 603 492 0 519 +17 522 0 612 62 613 63
 615 520 0 603 +17 603 0 563 616 602 63 62 492 0 0 -17 616 0 563 617 603 66 65 4
90 0 0 -17 617 0 563 618 616 69 68 488 0 0 -17 65 0 619 615 525 63 616 490 0 522
 +15 619 346 0 65 620 0 17 615 0 619 621 65 120 522 520 0 613 -17 525 0 619 65 6
21 66 622 523 0 616 +17 621 0 619 525 615 123 122 449 0 0 -17 622 0 623 624 68 1
23 525 523 0 621 -15 623 348 0 68 625 0 17 624 0 623 528 622 126 125 447 0 0 -17
 68 0 623 622 528 66 617 488 0 525 +17 528 0 623 68 624 69 626 526 0 617 +17 626
 0 627 628 71 126 528 526 0 624 -15 627 350 0 71 629 0 17 628 0 627 531 626 129
 128 445 0 0 -17 71 0 627 626 531 69 618 486 0 528 +17 531 0 627 71 628 72 630 5
29 0 618 +17 618 0 563 631 617 72 71 486 0 0 -17 631 0 563 632 618 75 74 484 0 0
 -17 632 0 563 633 631 78 77 482 0 0 -17 74 0 634 630 534 72 631 484 0 531 +15 6
34 352 0 74 635 0 17 630 0 634 636 74 129 531 529 0 628 -17 534 0 634 74 636 75
 637 532 0 631 +17 636 0 634 534 630 132 131 443 0 0 -17 637 0 638 639 77 132 53
4 532 0 636 -15 638 354 0 77 640 0 17 639 0 638 537 637 135 134 441 0 0 -17 77 0
 638 637 537 75 632 482 0 534 +17 537 0 638 77 639 78 641 535 0 632 +17 641 0 64
2 643 80 135 537 535 0 639 -15 642 356 0 80 644 0 17 643 0 642 540 641 138 137 4
39 0 0 -17 80 0 642 641 540 78 633 480 0 537 +17 540 0 642 80 643 81 645 538 0 6
33 +17 633 0 563 646 632 81 80 480 0 0 -17 646 0 563 647 633 84 83 478 0 0 -17 6
47 0 563 569 646 87 86 476 0 0 -17 83 0 648 645 543 81 646 478 0 540 +15 648 358
 0 83 649 0 17 645 0 648 650 83 138 540 538 0 643 -17 543 0 648 83 650 84 651 54
1 0 646 +17 650 0 648 543 645 141 140 437 0 0 -17 651 0 652 653 86 141 543 541 0
 650 -15 652 360 0 86 654 0 17 653 0 652 546 651 144 143 435 0 0 -17 86 0 652 65
1 546 84 647 476 0 543 +17 546 0 652 86 653 87 580 544 0 647 +17 580 0 655 578 8
9 144 546 544 0 653 -15 655 362 0 89 656 0 17 578 0 655 549 580 147 146 433 0 0
 -17 89 0 655 580 549 87 569 474 0 546 +17 549 0 655 89 578 90 577 547 0 569 +17
 569 0 563 568 647 90 89 474 0 0 -14 255 656 363 657 ?654 576 655 5 658 -0 0 654
 576 21 81 1 657 1459 659 656 660 0 0 661 662 14 654 361 661 ?649 656 652 5 663
 -0 0 649 656 21 14 576 365 664 ?656 572 575 5 665 -0 0 656 572 21 51 658 388 0
 656 663 665 0 --.113764 -.283764 .006 0 0 -1 .018736 -1 0 0 13 21 125 0 0 0 0 0
 0 9 15 14 15 625 666 ?566 0 579 5 667 -0 0 566 0 21 81 1 666 1462 659 15 668 0
 664 669 670 14 566 541 669 ?17 15 563 5 671 +0 0 17 15 21 50 255 667 2 0 15 672
 671 0 +-.283764 .113764 .006 0 0 -1 -1 0 0 51 672 896 0 274 673 667 0 --.283764
 .113764 .006 0 0 -1 .008736 -1 0 0 50 671 273 0 566 667 674 0 +-.283764 .113764
 0 0 0 -1 -1 0 0 50 674 374 0 590 671 675 0 +-.283764 .1325 .006 183490953667951
e-30 -1 0 1 183490953667951e-30 0 14 590 335 676 ?274 595 589 5 674 -0 0 274 595
 21 50 675 375 0 595 674 677 0 +-.1325 .1325 .006 1 0 0 0 0 -1 14 595 337 678 ?5
90 599 593 5 675 -0 0 590 599 21 51 677 376 0 599 675 679 0 --.113764 .283764 .0
06 0 0 -1 .018736 -1 0 0 14 599 339 680 ?595 605 597 5 677 -0 0 595 605 21 50 67
9 377 0 605 677 681 0 +-.113764 .3025 .006 0 -1 0 0 0 -1 14 605 341 682 ?599 610
 604 5 679 -0 0 599 610 21 51 681 378 0 610 679 683 0 -.113764 .283764 .006 0 0
 -1 .018736 -1 0 0 14 610 343 684 ?605 614 608 5 681 -0 0 605 614 21 50 683 379
 0 614 681 685 0 +.1325 .283764 .006 -1 0 0 0 0 1 14 614 345 686 ?610 620 612 5
 683 -0 0 610 620 21 50 685 380 0 620 683 687 0 +.1325 .1325 .006 36698190733590
15e-31 -1 0 1 3669819073359015e-31 0 14 620 347 688 ?614 625 619 5 685 -0 0 614
 625 21 51 687 381 0 625 685 689 0 -.283764 .113764 .006 0 0 -1 .018736 -1 0 0 1
4 625 349 690 ?620 629 623 5 687 -0 0 620 629 21 50 689 382 0 629 687 691 0 +.30
25 .113764 .006 -1 0 0 0 0 1 14 629 351 692 ?625 635 627 5 689 -0 0 625 635 21 5
1 691 383 0 635 689 693 0 -.283764 -.113764 .006 0 0 -1 .018736 -1 0 0 14 635 35
3 694 ?629 640 634 5 691 -0 0 629 640 21 50 693 384 0 640 691 695 0 +.283764 -.1
325 .006 0 1 0 0 0 1 14 640 355 696 ?635 644 638 5 693 -0 0 635 644 21 50 695 38
5 0 644 693 697 0 +.1325 -.1325 .006 -1 -3669819073359015e-31 0 3669819073359015
e-31 -1 0 14 644 357 698 ?640 649 642 5 695 -0 0 640 649 21 51 697 386 0 649 695
 663 0 -.113764 -.283764 .006 0 0 -1 .018736 -1 0 0 14 649 359 699 ?644 654 648
 5 697 -0 0 644 654 21 50 663 387 0 654 697 658 0 +-.113764 -.3025 .006 0 1 0 0
 0 1 81 1 699 1476 659 649 700 0 698 701 702 80 255 1 659 703 704 9000 1 1 1 1 1
 1 1 1 0 FFFFTFTFFFFFFF1 81 1 700 1340 705 649 0 699 706 707 708 81 1 698 1475 6
59 644 707 0 696 699 709 81 1 701 1477 659 274 710 0 699 711 712 82 255 1 702 16
87814256 14 274 808 701 ?284 590 34 5 672 +0 0 284 590 21 81 1 710 1353 705 274
 0 701 713 714 715 81 1 711 1478 659 284 714 0 701 716 717 82 1 712 1739128944 1
4 284 812 711 ?718 274 283 5 673 +0 0 718 274 21 81 1 714 1354 705 284 0 711 710
 719 720 81 1 716 1479 659 718 719 0 711 721 722 82 1 717 1738866800 14 718 816
 716 ?723 284 724 5 725 +0 0 723 284 21 81 1 719 1355 705 718 0 716 714 726 727
 81 1 721 1480 659 723 726 0 716 728 729 82 1 722 1738604656 14 723 820 721 ?730
 718 731 5 732 +0 0 730 718 21 81 1 726 1356 705 723 0 721 719 733 734 81 1 728
 1481 659 730 733 0 721 735 736 82 1 729 1738342512 14 730 824 728 ?737 723 738
 5 739 +0 0 737 723 21 81 1 733 1357 705 730 0 728 726 740 741 81 1 735 1482 659
 737 740 0 728 742 743 82 1 736 1738080368 14 737 828 735 ?744 730 745 5 746 +0
 0 744 730 21 81 1 740 1358 705 737 0 735 733 747 748 81 1 742 1483 659 744 747
 0 735 749 750 82 1 743 1737818224 14 744 832 742 ?751 737 752 5 753 +0 0 751 73
7 21 81 1 747 1359 705 744 0 742 740 754 755 81 1 749 1484 659 751 754 0 742 756
 757 82 1 750 1737556080 14 751 836 749 ?758 744 759 5 760 +0 0 758 744 21 81 1
 754 1360 705 751 0 749 747 761 762 81 1 756 1485 659 758 761 0 749 763 764 82 1
 757 1737293936 14 758 840 756 ?765 751 766 5 767 +0 0 765 751 21 81 1 761 1361
 705 758 0 756 754 768 769 81 1 763 1486 659 765 768 0 756 770 771 82 1 764 1737
031792 14 765 844 763 ?772 758 773 5 774 +0 0 772 758 21 81 1 768 1362 705 765 0
 763 761 775 776 81 1 770 1487 659 772 775 0 763 777 778 82 1 771 1736769648 14
 772 848 770 ?779 765 780 5 781 +0 0 779 765 21 81 1 775 1363 705 772 0 770 768
 782 783 81 1 777 1488 659 779 782 0 770 784 785 82 1 778 1736507504 14 779 852
 777 ?786 772 787 5 788 +0 0 786 772 21 81 1 782 1364 705 779 0 777 775 789 790
 81 1 784 1489 659 786 789 0 777 791 792 82 1 785 1736245360 14 786 856 784 ?793
 779 794 5 795 +0 0 793 779 21 81 1 789 1365 705 786 0 784 782 796 797 81 1 791
 1490 659 793 796 0 784 798 799 82 1 792 1735983216 14 793 860 791 ?800 786 801
 5 802 +0 0 800 786 21 81 1 796 1366 705 793 0 791 789 803 804 81 1 798 1491 659
 800 803 0 791 805 806 82 1 799 1735721072 14 800 864 798 ?807 793 808 5 809 +0
 0 807 793 21 81 1 803 1367 705 800 0 798 796 810 811 81 1 805 1492 659 807 810
 0 798 812 813 82 1 806 1735458928 14 807 868 805 ?814 800 815 5 816 +0 0 814 80
0 21 81 1 810 1368 705 807 0 805 803 817 818 81 1 812 1493 659 814 817 0 805 819
 820 82 1 813 1735196784 14 814 872 812 ?821 807 822 5 823 +0 0 821 807 21 81 1
 817 1369 705 814 0 812 810 824 825 81 1 819 1494 659 821 824 0 812 826 827 82 1
 820 1734934640 14 821 876 819 ?828 814 829 5 830 +0 0 828 814 21 81 1 824 1370
 705 821 0 819 817 831 832 81 1 826 1495 659 828 831 0 819 833 834 82 1 827 1734
672496 14 828 880 826 ?835 821 836 5 837 +0 0 835 821 21 81 1 831 1371 705 828 0
 826 824 838 839 81 1 833 1496 659 835 838 0 826 840 841 82 1 834 1734410352 14
 835 884 833 ?0 828 26 5 842 +0 0 0 828 21 81 1 838 1372 705 835 0 833 831 0 843
 81 1 840 1497 659 572 844 0 833 845 846 82 1 841 1734148208 14 572 367 840 ?576
 560 570 5 847 -0 0 576 560 21 81 1 844 1336 705 572 0 840 848 849 850 81 1 845
 1498 659 560 848 0 840 851 852 82 1 846 1688862832 14 560 369 845 ?572 583 556
 5 853 -0 0 572 583 21 81 1 848 1335 705 560 0 845 854 844 855 81 1 851 1499 659
 583 854 0 845 856 857 82 1 852 1689124976 14 583 371 851 ?560 17 562 5 18 -0 0
 560 17 21 81 1 854 1334 705 583 0 851 858 848 859 81 1 856 1500 659 17 858 0 85
1 0 860 82 1 857 1689387120 14 17 373 856 ?583 566 584 5 6 -0 0 583 566 21 81 1
 858 1333 705 17 0 856 861 854 862 82 1 860 1689649264 80 1 705 0 863 8001 0 0 0
 0 3 5 0 0 0 FFFFTFTFFFFFFF2 81 1 861 1332 705 566 0 669 668 858 864 83 255 3 86
2 .792156862745098 .819607843137255 .933333333333333 81 1 669 1463 659 566 861 0
 666 676 865 81 1 668 1331 705 15 0 666 0 861 866 83 3 864 .792156862745098 .819
607843137255 .933333333333333 83 3 866 .792156862745098 .819607843137255 .933333
333333333 81 1 676 1464 659 590 713 0 669 678 867 82 1 865 1753350256 81 1 713 1
352 705 590 0 676 868 710 869 81 1 678 1465 659 595 868 0 676 680 870 82 1 867 1
684668528 81 1 868 1351 705 595 0 678 871 713 872 81 1 680 1466 659 599 871 0 67
8 682 873 82 1 870 1684930672 81 1 871 1350 705 599 0 680 874 868 875 81 1 682 1
467 659 605 874 0 680 684 876 82 1 873 1685192816 81 1 874 1349 705 605 0 682 87
7 871 878 81 1 684 1468 659 610 877 0 682 686 879 82 1 876 1685454960 81 1 877 1
348 705 610 0 684 880 874 881 81 1 686 1469 659 614 880 0 684 688 882 82 1 879 1
685717104 81 1 880 1347 705 614 0 686 883 877 884 81 1 688 1470 659 620 883 0 68
6 690 885 82 1 882 1685979248 81 1 883 1346 705 620 0 688 886 880 887 81 1 690 1
471 659 625 886 0 688 692 888 82 1 885 1686241392 81 1 886 1345 705 625 0 690 88
9 883 890 81 1 692 1472 659 629 889 0 690 694 891 82 1 888 1686503536 81 1 889 1
344 705 629 0 692 892 886 893 81 1 694 1473 659 635 892 0 692 696 894 82 1 891 1
686765680 81 1 892 1343 705 635 0 694 895 889 896 81 1 696 1474 659 640 895 0 69
4 698 897 82 1 894 1687027824 81 1 895 1342 705 640 0 696 707 892 898 82 1 897 1
687289968 81 1 707 1341 705 644 0 698 700 895 899 83 3 898 .792156862745098 .819
607843137255 .933333333333333 83 3 899 .792156862745098 .819607843137255 .933333
333333333 83 3 896 .792156862745098 .819607843137255 .933333333333333 83 3 893 .
792156862745098 .819607843137255 .933333333333333 83 3 890 .792156862745098 .819
607843137255 .933333333333333 83 3 887 .792156862745098 .819607843137255 .933333
333333333 83 3 884 .792156862745098 .819607843137255 .933333333333333 83 3 881 .
792156862745098 .819607843137255 .933333333333333 83 3 878 .792156862745098 .819
607843137255 .933333333333333 83 3 875 .792156862745098 .819607843137255 .933333
333333333 83 3 872 .792156862745098 .819607843137255 .933333333333333 83 3 869 .
792156862745098 .819607843137255 .933333333333333 79 255 15 863 SDL/TYSA_COLOUR8
3 3 859 .792156862745098 .819607843137255 .933333333333333 50 18 392 0 583 853 6
 0 +-.3025 .113764 .006 1 0 0 0 0 -1 51 853 391 0 560 847 18 0 --.283764 -.11376
4 .006 0 0 -1 .018736 -1 0 0 50 847 390 0 572 665 853 0 +-.283764 -.1325 .006 18
3490953667951e-30 1 0 -1 183490953667951e-30 0 50 665 389 0 576 658 847 0 +-.132
5 -.283764 .006 1 0 0 0 0 -1 83 3 855 .792156862745098 .819607843137255 .9333333
33333333 81 1 849 1337 705 576 0 664 844 660 900 83 3 850 .792156862745098 .8196
07843137255 .933333333333333 81 1 664 1461 659 576 849 0 661 666 901 81 1 660 13
38 705 656 0 657 849 706 902 83 3 900 .792156862745098 .819607843137255 .9333333
33333333 81 1 706 1339 705 654 0 661 660 700 903 83 3 902 .792156862745098 .8196
07843137255 .933333333333333 81 1 661 1460 659 654 706 0 657 664 904 83 3 903 .7
92156862745098 .819607843137255 .933333333333333 82 1 904 1688076400 82 1 901 16
88600688 83 3 843 .792156862745098 .819607843137255 .933333333333333 15 26 887 0
 28 835 0 50 842 915 0 835 0 837 0 +-.283764 .1225 .006 0 -1 0 0 0 -1 50 837 914
 0 828 842 830 0 +-.1225 .1225 .006 1 0 0 0 0 -1 51 830 913 0 821 837 823 0 --.1
13764 .283764 .006 0 0 -1 .008736 -1 0 0 50 823 912 0 814 830 816 0 +-.113764 .2
925 .006 0 -1 0 0 0 -1 51 816 911 0 807 823 809 0 -.113764 .283764 .006 0 0 -1 .
008736 -1 0 0 50 809 910 0 800 816 802 0 +.1225 .283764 .006 -1 -17211265760262e
-29 0 17211265760262e-29 -1 0 50 802 909 0 793 809 795 0 +.1225 .1225 .006 0 -1
 0 0 0 -1 51 795 908 0 786 802 788 0 -.283764 .113764 .006 0 0 -1 .008736 -1 0 0
 50 788 907 0 779 795 781 0 +.2925 .113764 .006 -1 -24397503266085e-29 0 2439750
3266085e-29 -1 0 51 781 906 0 772 788 774 0 -.283764 -.113764 .006 0 0 -1 .00873
6 -1 0 0 50 774 905 0 765 781 767 0 +.283764 -.1225 .006 -17211265760262e-29 1 0
 -1 -17211265760262e-29 0 50 767 904 0 758 774 760 0 +.1225 -.1225 .006 -1 -1721
1265760262e-29 0 17211265760262e-29 -1 0 51 760 903 0 751 767 753 0 -.113764 -.2
83764 .006 0 0 -1 .008736 -1 0 0 50 753 902 0 744 760 746 0 +-.113764 -.2925 .00
6 0 1 0 0 0 1 51 746 901 0 737 753 739 0 --.113764 -.283764 .006 0 0 -1 .008736
 -1 0 0 50 739 900 0 730 746 732 0 +-.1225 -.283764 .006 1 17211265760262e-29 0
 -17211265760262e-29 1 0 50 732 899 0 723 739 725 0 +-.283764 -.1225 .006 344225
31520524e-29 1 0 -1 34422531520524e-29 0 51 725 898 0 718 732 673 0 --.283764 -.
113764 .006 0 0 -1 .008736 -1 0 0 50 673 897 0 284 725 672 0 +-.2925 .113764 .00
6 1 0 0 0 0 -1 17 28 0 26 24 39 161 385 281 0 383 -17 39 0 26 28 27 25 35 276 0
 385 +17 385 0 567 37 383 25 28 281 0 0 +17 383 0 567 385 380 161 905 381 0 0 +1
5 567 460 0 385 566 0 17 380 0 567 383 377 164 906 378 0 0 +17 905 0 836 907 29
 164 383 381 0 380 -15 836 883 0 905 828 0 17 907 0 836 31 905 219 166 388 0 908
 -17 29 0 836 905 31 161 24 30 0 28 +17 31 0 836 29 907 11 908 327 0 278 +17 908
 0 277 909 278 219 31 327 0 0 -17 278 0 277 908 271 11 27 329 0 0 -17 27 0 26 39
 24 104 278 329 0 35 +17 909 0 277 910 908 222 221 325 0 0 -17 910 0 277 911 909
 225 224 323 0 0 -17 221 0 829 166 912 219 909 325 0 907 +15 829 879 0 906 821 0
 17 166 0 829 906 221 164 907 388 0 905 +17 912 0 829 221 906 222 169 390 0 909
 -17 906 0 829 912 166 167 380 378 0 377 -17 169 0 822 913 224 167 912 390 0 906
 +15 822 875 0 913 814 0 17 913 0 822 914 169 170 377 375 0 374 -17 224 0 822 16
9 914 222 910 323 0 912 +17 914 0 822 224 913 225 172 392 0 910 -17 172 0 815 91
5 227 170 914 392 0 913 +15 815 871 0 915 807 0 17 915 0 815 916 172 173 374 372
 0 371 -17 227 0 815 172 916 225 911 321 0 914 +17 916 0 815 227 915 228 175 394
 0 911 -17 911 0 277 917 910 228 227 321 0 0 -17 917 0 277 918 911 231 230 319 0
 0 -17 918 0 277 919 917 234 233 317 0 0 -17 230 0 808 175 920 228 917 319 0 916
 +15 808 867 0 921 800 0 17 175 0 808 921 230 173 916 394 0 915 +17 920 0 808 23
0 921 231 178 396 0 917 -17 921 0 808 920 175 176 371 369 0 368 -17 178 0 801 92
2 233 176 920 396 0 921 +15 801 863 0 922 793 0 17 922 0 801 923 178 179 368 366
 0 365 -17 233 0 801 178 923 231 918 317 0 920 +17 923 0 801 233 922 234 181 398
 0 918 -17 181 0 794 924 236 179 923 398 0 922 +15 794 859 0 924 786 0 17 924 0
 794 925 181 182 365 363 0 362 -17 236 0 794 181 925 234 919 315 0 923 +17 925 0
 794 236 924 237 184 400 0 919 -17 919 0 277 926 918 237 236 315 0 0 -17 926 0 2
77 927 919 240 239 313 0 0 -17 927 0 277 928 926 243 242 311 0 0 -17 239 0 787 1
84 929 237 926 313 0 925 +15 787 855 0 930 779 0 17 184 0 787 930 239 182 925 40
0 0 924 +17 929 0 787 239 930 240 187 402 0 926 -17 930 0 787 929 184 185 362 36
0 0 359 -17 187 0 780 931 242 185 929 402 0 930 +15 780 851 0 931 772 0 17 931 0
 780 932 187 188 359 357 0 356 -17 242 0 780 187 932 240 927 311 0 929 +17 932 0
 780 242 931 243 190 404 0 927 -17 190 0 773 933 245 188 932 404 0 931 +15 773 8
47 0 933 765 0 17 933 0 773 934 190 191 356 354 0 353 -17 245 0 773 190 934 243
 928 309 0 932 +17 934 0 773 245 933 246 193 406 0 928 -17 928 0 277 935 927 246
 245 309 0 0 -17 935 0 277 936 928 249 248 307 0 0 -17 936 0 277 937 935 252 251
 305 0 0 -17 248 0 766 193 938 246 935 307 0 934 +15 766 843 0 939 758 0 17 193
 0 766 939 248 191 934 406 0 933 +17 938 0 766 248 939 249 196 408 0 935 -17 939
 0 766 938 193 194 353 351 0 350 -17 196 0 759 940 251 194 938 408 0 939 +15 759
 839 0 940 751 0 17 940 0 759 941 196 197 350 348 0 347 -17 251 0 759 196 941 24
9 936 305 0 938 +17 941 0 759 251 940 252 199 410 0 936 -17 199 0 752 942 254 19
7 941 410 0 940 +15 752 835 0 942 744 0 17 942 0 752 943 199 200 347 345 0 344 -
17 254 0 752 199 943 252 937 303 0 941 +17 943 0 752 254 942 255 202 412 0 937 -
17 937 0 277 944 936 255 254 303 0 0 -17 944 0 277 945 937 258 257 301 0 0 -17 9
45 0 277 292 944 261 260 299 0 0 -17 257 0 745 202 946 255 944 301 0 943 +15 745
 831 0 947 737 0 17 202 0 745 947 257 200 943 412 0 942 +17 946 0 745 257 947 25
8 205 414 0 944 -17 947 0 745 946 202 203 344 342 0 341 -17 205 0 738 948 260 20
3 946 414 0 947 +15 738 827 0 948 730 0 17 948 0 738 949 205 206 341 339 0 338 -
17 260 0 738 205 949 258 945 299 0 946 +17 949 0 738 260 948 261 208 416 0 945 -
17 208 0 731 950 263 206 949 416 0 948 +15 731 823 0 950 723 0 17 950 0 731 951
 208 209 338 336 0 335 -17 263 0 731 208 951 261 292 295 0 949 +17 951 0 731 263
 950 264 211 418 0 292 -17 292 0 277 291 945 264 263 295 0 0 -17 211 0 724 952 2
66 209 951 418 0 950 +15 724 819 0 952 718 0 17 952 0 724 285 211 212 335 333 0
 286 -17 266 0 724 211 285 264 291 293 0 951 +17 285 0 724 266 952 267 214 289 0
 291 -17 214 0 283 217 269 212 285 289 0 952 +17 335 0 567 338 286 209 952 333 0
 0 +17 286 0 567 335 37 212 217 287 0 0 +17 37 0 567 286 385 215 32 38 0 0 +17 3
38 0 567 341 335 206 950 336 0 0 +17 341 0 567 344 338 203 948 339 0 0 +17 344 0
 567 347 341 200 947 342 0 0 +17 347 0 567 350 344 197 942 345 0 0 +17 350 0 567
 353 347 194 940 348 0 0 +17 353 0 567 356 350 191 939 351 0 0 +17 356 0 567 359
 353 188 933 354 0 0 +17 359 0 567 362 356 185 931 357 0 0 +17 362 0 567 365 359
 182 930 360 0 0 +17 365 0 567 368 362 179 924 363 0 0 +17 368 0 567 371 365 176
 922 366 0 0 +17 371 0 567 374 368 173 921 369 0 0 +17 374 0 567 377 371 170 915
 372 0 0 +17 377 0 567 380 374 167 913 375 0 0 +83 3 839 .792156862745098 .81960
7843137255 .933333333333333 83 3 832 .792156862745098 .819607843137255 .93333333
3333333 83 3 825 .792156862745098 .819607843137255 .933333333333333 83 3 818 .79
2156862745098 .819607843137255 .933333333333333 83 3 811 .792156862745098 .81960
7843137255 .933333333333333 83 3 804 .792156862745098 .819607843137255 .93333333
3333333 83 3 797 .792156862745098 .819607843137255 .933333333333333 83 3 790 .79
2156862745098 .819607843137255 .933333333333333 83 3 783 .792156862745098 .81960
7843137255 .933333333333333 83 3 776 .792156862745098 .819607843137255 .93333333
3333333 83 3 769 .792156862745098 .819607843137255 .933333333333333 83 3 762 .79
2156862745098 .819607843137255 .933333333333333 83 3 755 .792156862745098 .81960
7843137255 .933333333333333 83 3 748 .792156862745098 .819607843137255 .93333333
3333333 83 3 741 .792156862745098 .819607843137255 .933333333333333 83 3 734 .79
2156862745098 .819607843137255 .933333333333333 83 3 727 .792156862745098 .81960
7843137255 .933333333333333 83 3 720 .792156862745098 .819607843137255 .93333333
3333333 83 3 715 .792156862745098 .819607843137255 .933333333333333 82 1 709 168
7552112 83 3 708 .792156862745098 .819607843137255 .933333333333333 79 14 704 SW
EntUnchanged82 1 670 1761476720 82 1 662 1688338544 17 143 0 579 140 146 141 653
 435 0 651 +17 140 0 579 137 143 138 650 437 0 645 +17 137 0 579 134 140 135 643
 439 0 641 +17 134 0 579 131 137 132 639 441 0 637 +17 131 0 579 128 134 129 636
 443 0 630 +17 128 0 579 125 131 126 628 445 0 626 +17 125 0 579 122 128 123 624
 447 0 622 +17 122 0 579 119 125 120 621 449 0 615 +17 119 0 579 116 122 117 613
 451 0 611 +17 116 0 579 113 119 114 609 453 0 607 +17 113 0 579 110 116 111 606
 455 0 600 +17 110 0 579 107 113 108 598 457 0 596 +17 107 0 579 40 110 41 594 4
59 0 592 +17 40 0 579 423 107 33 591 461 0 585 +17 581 0 584 504 582 33 423 421
 0 0 -19 16 415 0 1 0 9 5 S0 74 4 CI16 index_map_offset0 0 1 dCCZ20 14 3 0 0 856
 2 838 0 0 0 0 0 0 0 0 0 0 0 0 0 0 0 0 0 80 2 12 953 954 8004 0 0 0 0 3 5 0 0 0
 FFTFFFFFFFFFFF2 3 83 1 13 1 79 16 954 SDL/TYSA_DENSITY1 0 
