**ABCDEFGHIJKLMNOPQRSTUVWXYZabcdefghijklmnopqrstuvwxyz**************************
**PARASOLID !"#$%&'()*+,-./:;<=>?@[\]^_`{|}~0123456789**************************
**PART1;
MC=AMD64;
MC_MODEL=Intel64 Family 6 Model 158 Stepping 10, GenuineIntel;
MC_ID=unknown;
OS=Windows_NT;
OS_RELEASE=unknown;
FRU=Parasolid Version 30.0, build 226,  7-26-2017;
APPL=SOLIDWORKS 2018-2017278;
SITE=;
USER=unknown;
FORMAT=text;
GUISE=transmit;
KEY=Cruz capa 3;
FILE=Cruz capa 3.x_t;
DATE=Tue May 28 18:11:35 2019;
**PART2;
SCH=SCH_3000226_30000;
USFLD_SIZE=0;
**PART3;
**END_OF_HEADER*****************************************************************
T51 : TRANSMIT FILE created by modeller version 300022623 SCH_3000226_30000_1300
6205 0 12 33 CCCCCCI4 mesh1006 0 I8 polyline1008 0 CCCCCCCDI5 owner1040 0 CCCCCC
I13 boundary_mesh1006 0 I17 boundary_polyline1008 0 CCCA16 index_map_offset0 0 1
 dA9 index_map82 0 A17 node_id_index_map82 0 A20 schema_embedding_map82 0 A5 chi
ld12 0 A14 lowest_node_id0 0 1 dZ1 76173 2 3 0 0 0 0 0 0 1e3 1e-8 0 4 0 1 0 1 1
 5 6 7 8 0 0 9 10 11 0 0 0 0 0 0 81 255 2 2 75385 12 1 0 0 0 0 13 0 70 11 CI9 li
st_type0 0 1 uI10 notransmit0 0 1 lCCCDCCDI12 finger_index0 0 1 dI12 finger_bloc
k1012 0 CZ3 0 4 T1 0 0 3 20 1 14 14 13 255 5 4 0 1 0 15 0 0 16 0 51 255 6 12447
 0 17 18 0 0 +2.40325682820413 1.94080411884329 0 0 0 1 .0213259363126579 .99817
7157632626 .0603519840639206 0 30 255 7 75653 0 10 19 0 0 +2.19078390168769 1.71
87678000714 0 0 1 0 29 255 8 75686 0 11 20 0 2.19078390168769 1.91014118156564 .
003 19 8 CCCCCCCA5 owner12 0 Z9 2 0 1 16 0 21 V0 16 255 10 75651 0 ?22 0 23 7 0
 0 1 18 255 11 75684 0 24 0 25 8 ?1 17 255 24 0 26 27 28 11 29 30 0 31 +18 25 75
660 0 32 11 33 20 ?1 17 32 0 34 35 36 25 37 38 0 39 +18 33 75639 0 40 25 41 42 ?
1 29 20 75662 0 25 42 8 2.24654390168769 1.41414118131947 .003 29 42 75641 0 33
 43 20 2.18808390168769 1.91014118156564 0 29 43 75617 0 41 44 42 2.243843901687
69 1.41414118131947 0 18 41 75615 0 45 33 46 43 ?1 29 44 15436 0 46 47 43 2.4245
4389069656 1.52709118141179 0 18 46 10362 0 48 41 49 44 ?1 29 47 15421 0 50 51 4
4 2.42454389069655 1.79209118141178 .003 18 50 10464 0 52 53 54 47 ?1 29 51 1541
5 0 55 56 47 2.40454388696981 1.96209118156564 0 18 55 10448 0 57 58 59 51 ?1 29
 56 15395 0 60 61 51 2.59454389069655 1.77209118141178 0 18 60 10476 0 62 63 64
 56 ?1 29 61 15371 0 65 66 56 2.59454389069655 1.54709118141178 0 18 65 10483 0
 67 64 68 61 ?1 29 66 15271 0 54 69 61 2.42454389069655 1.79209118141178 0 18 54
 10462 0 70 50 71 66 ?1 29 69 15246 0 72 73 66 2.15954390168769 1.37709118141178
 .003 18 72 10387 0 74 75 76 69 ?1 29 73 15126 0 75 77 69 2.17954389982432 1.357
09118131947 0 18 75 10378 0 78 79 72 73 ?1 29 77 15056 0 49 80 73 2.424543890696
56 1.52709118141179 .003 18 49 10364 0 81 46 82 77 ?1 29 80 15021 0 83 84 77 2.1
5954390168769 1.94209118141178 0 18 83 10434 0 85 86 87 80 ?1 29 84 15016 0 88 8
9 80 2.00954390168769 1.52709118141178 0 18 88 10399 0 90 91 92 84 ?1 29 89 1488
0 0 93 94 84 2.40454388883317 1.35709118150409 0 18 93 10371 0 95 96 79 89 ?1 29
 94 14805 0 87 97 89 2.17954390168769 1.96209118138101 .003 18 87 10443 0 98 83
 99 94 ?1 29 97 14635 0 59 100 94 2.42454389069655 1.94209118141178 .003 18 59 1
0457 0 101 55 53 97 ?1 29 100 14509 0 91 102 97 2.00954390168769 1.5270911814117
8 .003 18 91 10401 0 103 104 88 100 ?1 29 102 14463 0 105 106 100 2.159543901687
69 1.79209118141177 .003 18 105 10429 0 107 108 109 102 ?1 29 106 14368 0 71 110
 102 2.57454389069655 1.79209118141178 .003 18 71 10471 0 111 54 112 106 ?1 29 1
10 14322 0 64 113 106 2.59454389069655 1.54709118141178 .003 18 64 10485 0 114 6
0 65 110 ?1 29 113 14273 0 115 116 110 1.98954390168769 1.77209118141178 .003 18
 115 10415 0 117 118 119 113 ?1 29 116 14164 0 96 120 113 2.40454388883317 1.357
09118150409 .003 18 96 10373 0 121 122 93 116 ?1 29 120 14132 0 82 123 116 2.424
54389069655 1.37709118141178 .003 18 82 10366 0 124 49 122 120 ?1 29 123 14047 0
 76 125 120 2.15954390168769 1.37709118141178 0 18 76 10385 0 126 72 127 123 ?1
 29 125 14031 0 128 129 123 2.00954390168769 1.79209118141178 .003 18 128 10422
 0 130 119 108 125 ?1 29 129 13997 0 109 131 125 2.15954390168769 1.792091181411
77 0 18 109 10427 0 132 105 86 129 ?1 29 131 13845 0 119 133 129 1.9895439016876
9 1.77209118141178 0 18 119 10413 0 134 115 128 131 ?1 29 133 13754 0 58 135 131
 2.40454388696981 1.96209118156564 .003 18 58 10450 0 136 99 55 133 ?1 29 135 13
677 0 53 137 133 2.42454389069655 1.94209118141178 0 18 53 10455 0 138 59 50 135
 ?1 29 137 13673 0 63 139 135 2.59454389069655 1.77209118141178 .003 18 63 10478
 0 140 112 60 137 ?1 29 139 13599 0 108 141 137 2.00954390168769 1.7920911814117
8 0 18 108 10420 0 142 128 105 139 ?1 29 141 13551 0 99 143 139 2.17954390168769
 1.96209118138101 0 18 99 10441 0 144 87 58 141 ?1 29 143 13168 0 68 145 141 2.5
7454389069656 1.52709118141178 .003 18 68 10492 0 146 65 147 143 ?1 29 145 13107
 0 112 148 143 2.57454389069655 1.79209118141178 0 18 112 10469 0 149 71 63 145
 ?1 29 148 13085 0 122 150 145 2.42454389069655 1.37709118141178 0 18 122 10361
 0 151 82 96 148 ?1 29 150 12999 0 79 152 148 2.17954389982432 1.35709118131947
 .003 18 79 10380 0 153 93 75 150 ?1 29 152 12872 0 118 154 150 1.98954390168769
 1.54709118141178 0 18 118 10406 0 155 92 115 152 ?1 29 154 12861 0 104 156 152
 2.15954390168769 1.52709118141178 0 18 104 10392 0 157 127 91 154 ?1 29 156 128
20 0 86 158 154 2.15954390168769 1.94209118141178 .003 18 86 10436 0 159 109 83
 156 ?1 29 158 12686 0 147 160 156 2.57454389069656 1.52709118141178 0 18 147 10
490 0 161 68 162 158 ?1 29 160 12575 0 127 163 158 2.15954390168769 1.5270911814
1178 .003 18 127 10394 0 164 76 104 160 ?1 29 163 12466 0 92 165 160 1.989543901
68769 1.54709118141178 .003 18 92 10408 0 166 88 118 163 ?1 29 165 75922 0 162 1
67 163 2.19078390168769 1.90249118156564 0 18 162 75750 0 168 147 169 165 ?1 29
 167 75923 0 169 170 165 2.18808390168769 1.90249118156564 0 18 169 75752 0 171
 162 172 167 ?1 29 170 75925 0 172 173 167 2.19078390168769 1.91014118156564 0 1
8 172 75745 0 174 169 175 170 ?1 29 173 75926 0 175 176 170 2.24654390168769 1.4
0649118131947 0 18 175 75837 0 177 172 178 173 ?1 29 176 75927 0 178 179 173 2.2
4384390168769 1.40649118131947 0 18 178 75839 0 180 175 181 176 ?1 29 179 75929
 0 181 182 176 2.24654390168769 1.41414118131947 0 18 181 75832 0 183 178 184 17
9 ?1 29 182 75930 0 185 186 179 2.24654390168769 1.40649118131947 .003 18 185 75
834 0 36 187 188 182 ?1 29 186 75931 0 188 189 182 2.24384390168769 1.4064911813
1947 .003 18 188 75835 0 190 185 191 186 ?1 29 189 75932 0 191 192 186 2.2438439
0168769 1.41414118131947 .003 18 191 75836 0 193 188 0 189 ?1 29 192 75938 0 184
 194 189 2.19078390168769 1.90249118156564 .003 18 184 75747 0 28 181 195 192 ?1
 29 194 75939 0 195 196 192 2.18808390168769 1.90249118156564 .003 18 195 75748
 0 197 184 187 194 ?1 29 196 75940 0 187 0 194 2.18808390168769 1.91014118156564
 .003 18 187 75749 0 198 195 185 196 ?1 17 198 0 199 200 201 187 40 202 0 203 +1
5 255 199 75768 0 198 204 0 17 200 0 199 205 198 195 206 207 0 208 +17 201 0 199
 198 205 33 209 210 0 211 -17 40 0 212 174 203 33 198 202 0 201 -16 202 75716 0
 ?198 213 214 215 0 0 1 17 203 0 212 40 31 187 216 217 0 206 +15 212 75772 0 31
 218 0 17 31 0 212 203 174 11 27 214 0 216 +17 216 0 219 29 206 11 203 217 0 0 -
16 217 75736 0 ?203 207 30 220 0 0 1 17 206 0 219 216 208 187 200 207 0 0 -15 21
9 75700 0 29 221 222 17 208 0 219 206 29 195 223 224 0 0 -16 207 75739 0 ?200 22
4 217 225 0 0 1 16 224 75742 0 ?223 214 207 226 0 0 1 30 225 75915 0 207 220 226
 0 +2.18808390168769 1.90249118156564 .003 0 -1 0 30 220 75916 0 217 227 225 0 +
2.19078390168769 1.91014118156564 .003 -1 0 0 30 226 75914 0 224 225 228 0 +2.19
078390168769 1.90249118156564 .003 1 0 0 30 228 75913 0 229 226 230 0 +2.1907839
0168769 1.90249118156564 -.007 0 0 1 16 229 75712 0 ?28 231 213 228 0 0 1 30 230
 75912 0 213 228 215 0 +2.18808390168769 1.90249118156564 -.007 0 0 1 16 213 757
14 0 ?197 229 202 230 0 0 1 30 215 75911 0 202 230 232 0 +2.18808390168769 1.910
14118156564 -.007 0 0 1 30 232 75910 0 214 215 233 0 +2.19078390168769 1.9101411
8156564 -.007 0 0 1 16 214 75710 0 ?31 202 224 232 0 0 1 30 233 75905 0 38 232 2
34 0 +2.24654390168769 1.40649118131947 .003 0 1 0 16 38 75820 0 ?32 235 0 233 0
 0 1 30 234 75904 0 235 233 236 0 +2.24654390168769 1.41414118131947 .003 -1 0 0
 16 235 75823 0 ?237 238 38 234 0 0 1 30 236 75903 0 238 234 239 0 +2.2438439016
8769 1.40649118131947 .003 0 -1 0 16 238 75826 0 ?240 241 235 236 0 0 1 30 239 7
5902 0 241 236 242 0 +2.24654390168769 1.40649118131947 .003 1 0 0 16 241 75829
 0 ?243 244 238 239 0 0 1 30 242 75901 0 245 239 246 0 +2.24654390168769 1.40649
118131947 -.007 0 0 1 16 245 75799 0 ?36 30 247 242 0 0 1 30 246 75900 0 247 242
 248 0 +2.24384390168769 1.40649118131947 -.007 0 0 1 16 247 75801 0 ?190 245 24
9 246 0 0 1 30 248 75899 0 249 246 250 0 +2.24384390168769 1.41414118131947 -.00
7 0 0 1 16 249 75803 0 ?193 247 244 248 0 0 1 30 250 75898 0 244 248 251 0 +2.24
654390168769 1.41414118131947 -.007 0 0 1 16 244 75797 0 ?39 249 241 250 0 0 1 3
1 255 251 44533 0 231 250 252 0 +2.40564389069655 1.54599118141177 .003 0 0 1 1
 0 0 .0013 16 231 44360 0 ?253 254 229 251 0 0 1 31 252 44531 0 255 251 256 0 +2
.40564389069655 1.77319118141177 .003 0 0 1 1 0 0 .0013 16 255 44408 0 ?257 258
 254 252 0 0 1 31 256 44529 0 254 252 259 0 +2.17844390168769 1.54599118141177 .
003 0 0 1 1 0 0 .0013 16 254 44384 0 ?260 255 231 256 0 0 1 31 259 44527 0 261 2
56 262 0 +2.18184390168769 1.37889118131947 .003 0 0 1 1 0 0 .0013 16 261 44216
 0 ?263 264 258 259 0 0 1 31 262 44525 0 258 259 265 0 +2.17844390168769 1.77319
118141177 .003 0 0 1 1 0 0 .0013 16 258 44240 0 ?266 261 255 262 0 0 1 31 265 44
523 0 267 262 268 0 +2.01244390168769 1.54969118141178 .003 0 0 1 1 0 0 .0013 16
 267 44168 0 ?269 270 264 265 0 0 1 31 268 44521 0 264 265 271 0 +2.404943890696
55 1.37689118131947 .003 0 0 1 1 0 0 .0013 16 264 44192 0 ?272 267 261 268 0 0 1
 31 271 44519 0 273 268 274 0 +2.18084390168769 1.94149118156564 .003 0 0 1 1 0
 0 .0013 16 273 44336 0 ?275 276 277 271 0 0 1 31 274 44517 0 277 271 278 0 +2.0
1594390168769 1.76569118141177 .003 0 0 1 1 0 0 .0013 16 277 44312 0 ?279 273 28
0 274 0 0 1 31 278 44515 0 280 274 281 0 +2.57334389069655 1.54864118141179 .003
 0 0 1 1 0 0 .0013 16 280 44288 0 ?282 277 270 278 0 0 1 31 281 44513 0 270 278
 283 0 +2.57398389069655 1.77119118141178 .003 0 0 1 1 0 0 .0013 16 270 44264 0
 ?284 280 267 281 0 0 1 31 283 44511 0 276 281 285 0 +2.40346389069655 1.9413911
8156564 .003 0 0 1 1 0 0 .0013 16 276 44432 0 ?286 287 273 283 0 0 1 31 285 1554
5 0 288 283 289 0 +2.57329757688503 1.77084486760025 0 0 0 1 .99828391582219 .05
85595714697004 0 .0212828369512764 16 288 10475 0 ?290 291 292 285 0 0 1 31 289
 15636 0 293 285 294 0 +2.01690116228898 1.76473392081048 .003 0 0 1 -.259705031
009043 .965687991469601 0 .0283292956347742 16 293 10421 0 ?295 296 297 289 0 0
 1 30 294 15660 0 298 289 299 0 +2.17954389982432 1.35709118131947 0 0 0 1 16 29
8 10381 0 ?300 301 302 294 0 0 1 30 299 15710 0 296 294 303 0 +2.15954390168769
 1.79209118141177 .003 -1 454747350886467e-28 0 16 296 10428 0 ?304 305 293 299
 0 0 1 31 303 15731 0 306 299 307 0 +2.01331213867516 1.55085941839926 .003 0 0
 1 -.987664457417871 -.156585183058494 0 .0240650929665048 16 306 10407 0 ?308 2
97 309 303 0 0 1 31 307 15757 0 310 303 311 0 +2.57282080707044 1.5488142650379
 .003 0 0 1 .0790720376710763 -.996868904549913 0 .0217913143112033 16 310 10491
 0 ?312 313 314 307 0 0 1 30 311 15895 0 315 307 316 0 +2.40454388883317 1.35709
118150409 0 0 0 1 16 315 10374 0 ?317 318 301 311 0 0 1 30 316 15908 0 319 311 3
20 0 +2.17954389982432 1.35709118131947 .003 1 820553739145721e-24 0 16 319 1037
9 0 ?321 322 323 316 0 0 1 30 320 16054 0 324 316 325 0 +2.57454389069655 1.7920
9118141178 .003 -1 -189478062869355e-29 0 16 324 10470 0 ?326 327 328 320 0 0 1
 30 325 16167 0 329 320 330 0 +2.59454389069655 1.54709118141178 0 0 1 0 16 329
 10482 0 ?331 292 332 325 0 0 1 30 330 16229 0 313 325 333 0 +2.42454389069656 1
.52709118141179 .003 1 -132634644008552e-28 0 16 313 10497 0 ?334 335 310 330 0
 0 1 30 333 16268 0 336 330 337 0 +2.15954390168769 1.52709118141178 0 0 0 1 16
 336 10395 0 ?338 339 340 333 0 0 1 30 337 16284 0 339 333 341 0 +2.009543901687
69 1.52709118141178 0 1 -151582450295494e-28 0 16 339 10398 0 ?342 343 336 337 0
 0 1 30 341 16301 0 344 337 345 0 +2.15954390168769 1.94209118141178 0 0 0 1 16
 344 10437 0 ?346 347 348 341 0 0 1 30 345 16305 0 348 341 349 0 +2.404543886969
81 1.96209118156564 0 -1 -820582806041639e-24 0 16 348 10447 0 ?350 344 351 345
 0 0 1 30 349 16456 0 352 345 353 0 +2.42454389069655 1.37709118141178 .003 3789
56125738709e-28 1 0 16 352 10365 0 ?81 323 354 349 0 0 1 30 353 16485 0 343 349
 355 0 +2.15954390168769 1.37709118141178 0 0 0 1 16 343 10388 0 ?356 302 339 35
3 0 0 1 30 355 16530 0 314 353 357 0 +2.59454389069655 1.54709118141178 .003 0 1
 0 16 314 10484 0 ?358 310 327 355 0 0 1 30 357 16535 0 351 355 359 0 +2.1795439
0168769 1.96209118138101 0 0 0 1 16 351 10444 0 ?360 348 361 357 0 0 1 30 359 16
556 0 362 357 363 0 +2.59454389069655 1.54709118141178 0 0 0 1 16 362 10486 0 ?3
64 365 366 359 0 0 1 31 363 16800 0 367 359 368 0 +2.40325682820413 1.9408041188
4329 .003 0 0 1 .998177157632626 .0603519840639206 0 .0213259363126579 16 367 10
456 0 ?369 328 370 363 0 0 1 31 368 16831 0 365 363 371 0 +2.57282080707044 1.54
88142650379 0 0 0 1 .0790720376710763 -.996868904549913 0 .0217913143112033 16 3
65 10489 0 ?372 332 362 368 0 0 1 31 371 16936 0 373 368 374 0 +2.01690116228898
 1.76473392081048 0 0 0 1 -.259705031009043 .965687991469601 0 .0283292956347742
 16 373 10419 0 ?375 376 377 371 0 0 1 30 374 16976 0 378 371 379 0 +2.404543886
96981 1.96209118156564 0 0 0 1 16 378 10451 0 ?380 361 381 374 0 0 1 30 379 1707
9 0 381 374 382 0 +2.42454389069655 1.79209118141178 0 246321481730168e-28 1 0 1
6 381 10461 0 ?383 378 384 379 0 0 1 30 382 17090 0 318 379 385 0 +2.17954389982
432 1.35709118131947 0 1 820553739145721e-24 0 16 318 10377 0 ?386 387 315 382 0
 0 1 31 385 17201 0 388 382 389 0 +2.18073549996098 1.94089958310588 .003 0 0 1
 -.0561410670664505 .998422846587878 0 .0212250734721722 16 388 10442 0 ?390 370
 305 385 0 0 1 30 389 17290 0 391 385 392 0 +2.15954390168769 1.79209118141177 0
 0 0 1 16 391 10430 0 ?393 394 347 389 0 0 1 30 392 17505 0 395 389 396 0 +2.424
54389069655 1.37709118141178 0 378956125738709e-28 1 0 16 395 10360 0 ?397 398 3
99 392 0 0 1 30 396 17563 0 328 392 400 0 +2.42454389069655 1.79209118141178 .00
3 246321481730168e-28 1 0 16 328 10463 0 ?401 324 367 396 0 0 1 30 400 17608 0 3
70 396 402 0 +2.40454388696981 1.96209118156564 .003 -1 -820582806041639e-24 0 1
6 370 10449 0 ?403 367 388 400 0 0 1 30 402 17706 0 387 400 404 0 +2.42454389069
655 1.37709118141178 0 0 0 1 16 387 10367 0 ?405 406 318 402 0 0 1 30 404 17739
 0 407 402 408 0 +2.00954390168769 1.52709118141178 0 0 0 1 16 407 10402 0 ?409
 340 410 404 0 0 1 30 408 17961 0 411 404 412 0 +2.00954390168769 1.792091181411
78 0 0 0 1 16 411 10423 0 ?413 414 394 408 0 0 1 30 412 18103 0 384 408 415 0 +2
.42454389069655 1.94209118141178 0 0 0 1 16 384 10458 0 ?416 381 417 412 0 0 1 3
0 415 18125 0 399 412 418 0 +2.42454389069656 1.52709118141179 0 0 0 1 16 399 10
363 0 ?419 395 406 415 0 0 1 30 418 18182 0 297 415 420 0 +1.98954390168769 1.77
209118141178 .003 -757912251477437e-29 -1 0 16 297 10414 0 ?421 293 306 418 0 0
 1 31 420 18210 0 322 418 422 0 +2.18190972280375 1.37945700220419 .003 0 0 1 -.
994451979672615 -.105191540178937 0 .0224905994188172 16 322 10386 0 ?423 424 31
9 420 0 0 1 30 422 18227 0 377 420 425 0 +1.98954390168769 1.77209118141178 0 0
 0 1 16 377 10416 0 ?426 373 414 422 0 0 1 30 425 18255 0 424 422 427 0 +2.15954
390168769 1.52709118141178 .003 0 -1 0 16 424 10393 0 ?428 309 322 425 0 0 1 30
 427 18268 0 410 425 429 0 +1.98954390168769 1.77209118141178 0 -757912251477437
e-29 -1 0 16 410 10412 0 ?430 407 376 427 0 0 1 30 429 18290 0 417 427 431 0 +2.
57454389069655 1.79209118141178 0 -1 -189478062869355e-29 0 16 417 10468 0 ?432
 384 291 429 0 0 1 30 431 18317 0 376 429 433 0 +1.98954390168769 1.547091181411
78 0 0 0 1 16 376 10409 0 ?434 410 373 431 0 0 1 30 433 18347 0 366 431 435 0 +2
.42454389069656 1.52709118141179 0 1 -132634644008552e-28 0 16 366 10496 0 ?436
 362 335 433 0 0 1 30 435 18371 0 291 433 437 0 +2.42454389069655 1.792091181411
78 0 0 0 1 16 291 10465 0 ?438 417 288 435 0 0 1 31 437 18387 0 327 435 439 0 +2
.57329757688503 1.77084486760025 .003 0 0 1 .99828391582219 .0585595714697004 0
 .0212828369512764 16 327 10477 0 ?440 314 324 437 0 0 1 30 439 18564 0 302 437
 441 0 +2.15954390168769 1.52709118141178 0 0 -1 0 16 302 10391 0 ?442 298 343 4
39 0 0 1 30 441 18638 0 332 439 443 0 +2.59454389069655 1.77209118141178 0 0 0 1
 16 332 10479 0 ?444 329 365 441 0 0 1 30 443 18712 0 305 441 445 0 +2.159543901
68769 1.94209118141178 .003 -170530256582416e-28 -1 0 16 305 10435 0 ?446 388 29
6 443 0 0 1 30 445 18951 0 309 443 447 0 +2.00954390168769 1.52709118141178 .003
 1 -151582450295494e-28 0 16 309 10400 0 ?448 306 424 445 0 0 1 31 447 18986 0 3
01 445 449 0 +2.18190972280375 1.37945700220419 0 0 0 1 -.994451979672615 -.1051
91540178937 0 .0224905994188172 16 301 10384 0 ?450 315 298 447 0 0 1 31 449 189
92 0 347 447 451 0 +2.18073549996098 1.94089958310588 0 0 0 1 -.0561410670664505
 .998422846587878 0 .0212250734721722 16 347 10440 0 ?452 391 344 449 0 0 1 31 4
51 19068 0 406 449 453 0 +2.40434941717428 1.37728565504538 0 0 0 1 .00962949798
501803 -.999953635309436 0 .0201954098952175 16 406 10370 0 ?454 399 387 451 0 0
 1 30 453 19179 0 335 451 455 0 +2.57454389069656 1.52709118141178 0 0 0 1 16 33
5 10493 0 ?456 366 313 453 0 0 1 31 455 19249 0 361 453 457 0 +2.40325682820413
 1.94080411884329 0 0 0 1 .998177157632626 .0603519840639206 0 .0213259363126579
 16 361 10454 0 ?458 351 378 455 0 0 1 30 457 19250 0 292 455 459 0 +2.574543890
69655 1.79209118141178 0 0 0 1 16 292 10472 0 ?460 288 329 457 0 0 1 30 459 1953
9 0 394 457 461 0 +2.15954390168769 1.94209118141178 0 -170530256582416e-28 -1 0
 16 394 10433 0 ?462 411 391 459 0 0 1 30 461 19540 0 414 459 463 0 +2.159543901
68769 1.79209118141177 0 -1 454747350886467e-28 0 16 414 10426 0 ?464 377 411 46
1 0 0 1 31 463 19590 0 340 461 465 0 +2.01331213867516 1.55085941839926 0 0 0 1
 -.987664457417871 -.156585183058494 0 .0240650929665048 16 340 10405 0 ?466 336
 407 463 0 0 1 31 465 19669 0 323 463 467 0 +2.40434941717428 1.37728565504538 .
003 0 0 1 .00962949798501803 -.999953635309436 0 .0201954098952175 16 323 10372
 0 ?468 319 352 465 0 0 1 31 467 43974 0 287 465 469 0 +2.40346389069655 1.94139
118156564 0 0 0 1 1 0 0 .0013 16 287 44428 0 ?470 471 276 467 0 0 1 31 469 43982
 0 471 467 472 0 +2.40564389069655 1.77319118141177 0 0 0 1 1 0 0 .0013 16 471 4
4404 0 ?473 474 287 469 0 0 1 31 472 43990 0 474 469 475 0 +2.17844390168769 1.5
4599118141177 0 0 0 1 1 0 0 .0013 16 474 44380 0 ?476 477 471 472 0 0 1 31 475 4
3998 0 477 472 478 0 +2.40564389069655 1.54599118141177 0 0 0 1 1 0 0 .0013 16 4
77 44356 0 ?479 480 474 475 0 0 1 31 478 44006 0 480 475 481 0 +2.18084390168769
 1.94149118156564 0 0 0 1 1 0 0 .0013 16 480 44332 0 ?482 483 477 478 0 0 1 31 4
81 44014 0 483 478 484 0 +2.01594390168769 1.76569118141177 0 0 0 1 1 0 0 .0013
 16 483 44308 0 ?485 486 480 481 0 0 1 31 484 44022 0 486 481 487 0 +2.573343890
69655 1.54864118141179 0 0 0 1 1 0 0 .0013 16 486 44284 0 ?488 489 483 484 0 0 1
 31 487 44030 0 489 484 490 0 +2.57398389069655 1.77119118141178 0 0 0 1 1 0 0 .
0013 16 489 44260 0 ?491 492 486 487 0 0 1 31 490 44038 0 492 487 493 0 +2.17844
390168769 1.77319118141177 0 0 0 1 1 0 0 .0013 16 492 44236 0 ?494 495 489 490 0
 0 1 31 493 44046 0 495 490 496 0 +2.18184390168769 1.37889118131947 0 0 0 1 1 0
 0 .0013 16 495 44212 0 ?497 498 492 493 0 0 1 31 496 44054 0 498 493 499 0 +2.4
0494389069655 1.37689118131947 0 0 0 1 1 0 0 .0013 16 498 44188 0 ?500 354 495 4
96 0 0 1 31 499 44062 0 354 496 501 0 +2.01244390168769 1.54969118141178 0 0 0 1
 1 0 0 .0013 16 354 44164 0 ?502 352 498 499 0 0 1 30 501 75618 0 398 499 503 0
 +2.48454389920678 1.41414118131947 0 -1 0 0 16 398 75616 0 ?504 505 395 501 0 0
 1 30 503 75622 0 505 501 506 0 +2.24384390168769 1.7187678000714 0 0 -1 0 16 50
5 75620 0 ?507 508 398 503 0 0 1 30 506 75626 0 508 503 509 0 +2.48454389920678
 1.40649118131947 0 1 0 0 16 508 75624 0 ?510 511 505 506 0 0 1 30 509 75629 0 5
11 506 512 0 +2.24654390168769 1.7187678000714 0 0 1 0 16 511 75627 0 ?513 514 5
08 509 0 0 1 30 512 75642 0 514 509 515 0 +2.48454389920678 1.91014118156564 0 -
1 0 0 16 514 75640 0 ?211 210 511 512 0 0 1 30 515 75646 0 210 512 19 0 +2.18808
390168769 1.7187678000714 0 0 -1 0 16 210 75644 0 ?209 23 514 515 0 0 1 30 19 75
650 0 23 515 7 0 +2.48454389920678 1.90249118156564 0 1 0 0 16 23 75648 0 ?516 1
0 210 19 0 0 1 17 516 0 517 22 209 162 171 23 0 0 +15 517 75637 0 516 518 519 17
 22 0 517 211 516 172 168 10 0 0 +17 209 0 517 516 211 169 201 210 0 0 +17 171 0
 520 197 521 169 516 23 0 205 -15 520 75764 0 197 522 0 17 197 0 520 223 171 195
 205 213 0 200 +17 521 0 520 171 223 162 28 229 0 516 -17 205 0 199 201 200 169
 197 213 0 209 -17 223 0 520 521 197 184 208 224 0 29 +17 28 0 26 24 168 184 521
 229 0 223 +15 26 75760 0 28 523 0 17 168 0 26 28 27 162 22 10 0 521 -17 27 0 26
 168 24 172 31 214 0 22 -14 255 523 75757 524 ?522 525 26 5 526 -0 0 522 525 21
 81 1 524 76132 527 523 528 0 0 529 530 14 522 75761 529 ?204 523 520 5 531 -0 0
 204 523 21 14 525 75856 532 ?523 533 534 5 535 -0 0 523 533 21 50 255 526 75892
 0 523 536 537 0 +2.19078390168769 1.90249118156564 -.007 1 0 0 0 0 -1 13 21 3 0
 0 0 0 0 0 9 15 14 15 10358 538 ?539 0 540 5 541 +0 0 539 0 21 81 1 538 76135 52
7 15 542 0 532 543 544 14 539 10368 543 ?545 15 546 5 547 +0 0 545 15 21 15 540
 10359 0 397 15 0 50 541 11888 0 15 548 549 0 +2.42454389069655 1.37709118141178
 0 1 -378956125738709e-28 0 0 0 1 51 548 11842 0 550 551 541 0 +2.18190972280375
 1.37945700220419 0 0 0 1 .0224905994188172 -.994451979672615 -.105191540178937
 0 50 549 11936 0 552 541 553 0 +2.40454388696981 1.96209118156564 0 -8205828060
41639e-24 1 0 0 0 1 14 552 10445 554 ?17 555 556 5 549 +0 0 17 555 21 51 553 119
40 0 557 549 558 0 +2.57329757688503 1.77084486760025 0 0 0 1 .0212828369512764
 .99828391582219 .0585595714697004 0 14 557 10473 559 ?560 561 562 5 553 +0 0 56
0 561 21 51 558 11968 0 563 553 547 0 +2.01331213867516 1.55085941839926 0 0 0 1
 .0240650929665048 -.987664457417871 -.156585183058494 0 14 563 10403 564 ?565 5
66 567 5 558 +0 0 565 566 21 51 547 12074 0 539 558 568 0 +2.40434941717428 1.37
728565504538 0 0 0 1 .0201954098952175 .00962949798501803 -.999953635309436 0 50
 568 12184 0 561 547 569 0 +2.57454389069655 1.79209118141178 0 -680262934503584
e-59 1 3590193630872325e-45 1 0 189478062869355e-29 14 561 10466 570 ?557 571 57
2 5 568 +0 0 557 571 21 50 569 12332 0 573 568 18 0 +2.42454389069656 1.52709118
141179 0 -132634644008552e-28 -1 0 -1 132634644008552e-28 0 14 573 10494 574 ?22
1 575 576 5 569 +0 0 221 575 21 50 18 12376 0 545 569 6 0 +2.17954389982432 1.35
709118131947 0 820553739145721e-24 -1 0 0 0 -1 14 545 10375 577 ?550 539 578 5 1
8 +0 0 550 539 21 81 1 577 76142 527 545 579 0 574 580 581 14 550 10382 580 ?582
 545 583 5 548 +0 0 582 545 21 15 578 10376 0 386 545 0 17 386 0 578 317 78 93 5
84 318 0 0 +17 317 0 578 153 386 96 95 315 0 321 +17 78 0 578 386 153 75 300 298
 0 584 -17 584 0 585 586 587 75 386 318 0 450 -15 585 10730 0 588 518 0 17 586 0
 585 589 584 76 450 301 0 442 -17 587 0 585 584 590 93 454 406 0 386 -17 450 0 5
83 300 126 75 586 301 0 0 +15 583 10383 0 450 550 0 17 300 0 583 74 450 79 78 29
8 0 423 +17 126 0 583 450 74 76 356 343 0 586 -17 74 0 583 126 300 72 423 322 0
 356 -17 356 0 591 164 442 72 126 343 0 428 +15 591 10390 0 442 582 0 17 164 0 5
91 157 356 127 428 424 0 338 -17 442 0 591 356 157 76 589 302 0 0 +17 428 0 592
 423 448 72 164 424 0 0 +15 592 10499 0 334 221 0 17 423 0 592 321 428 79 74 322
 0 0 +17 448 0 592 428 308 127 103 309 0 0 +17 308 0 592 448 421 91 166 306 0 0
 +17 103 0 593 90 338 91 448 309 0 409 -15 593 10397 0 342 566 0 17 90 0 593 342
 103 88 409 407 0 594 -17 338 0 593 103 342 127 157 336 0 448 +17 409 0 567 166
 466 91 90 407 0 308 +15 567 10404 0 466 563 0 17 166 0 567 155 409 92 308 306 0
 434 -17 466 0 567 409 155 88 595 340 0 0 +17 155 0 567 466 166 118 434 376 0 59
5 -17 595 0 585 596 594 118 466 340 0 430 -17 596 0 585 597 595 119 430 410 0 37
5 -17 594 0 585 595 589 88 342 339 0 466 -17 430 0 598 434 134 118 596 410 0 0 +
15 598 10411 0 430 565 0 17 434 0 598 117 430 92 155 376 0 421 +17 134 0 598 430
 117 119 426 377 0 596 -17 117 0 598 134 434 115 421 297 0 426 -17 426 0 599 130
 375 115 134 377 0 295 +15 599 10418 0 375 600 0 17 130 0 599 142 426 128 295 29
3 0 413 -17 375 0 599 426 142 119 597 373 0 0 +17 295 0 592 421 304 115 130 293
 0 0 +17 421 0 592 308 295 92 117 297 0 0 +17 304 0 592 295 446 128 107 296 0 0
 +17 446 0 592 304 390 105 159 305 0 0 +17 107 0 601 132 413 105 304 296 0 393 -
15 601 10425 0 464 602 0 17 132 0 601 464 107 109 393 391 0 603 -17 413 0 601 10
7 464 128 142 411 0 304 +17 393 0 604 159 462 105 132 391 0 446 +15 604 10432 0
 462 605 0 17 159 0 604 85 393 86 446 305 0 346 -17 462 0 604 393 85 109 606 394
 0 0 +17 85 0 604 462 159 83 346 344 0 606 -17 606 0 585 607 603 83 462 394 0 45
2 -17 607 0 585 608 606 99 452 347 0 350 -17 603 0 585 606 597 109 464 414 0 462
 -17 452 0 609 346 144 83 607 347 0 0 +15 609 10439 0 452 555 0 17 346 0 609 98
 452 86 85 344 0 390 +17 144 0 609 452 98 99 360 351 0 607 -17 98 0 609 144 346
 87 390 388 0 360 -17 360 0 556 136 350 87 144 351 0 403 +15 556 10446 0 350 552
 0 17 136 0 556 57 360 58 403 370 0 380 -17 350 0 556 360 57 99 608 348 0 0 +17
 403 0 592 390 369 87 136 370 0 0 +17 390 0 592 446 403 86 98 388 0 0 +17 369 0
 592 403 401 58 101 367 0 0 +17 401 0 592 369 326 59 52 328 0 0 +17 101 0 610 13
8 380 59 369 367 0 416 -15 610 10453 0 458 17 0 17 138 0 610 458 101 53 416 384
 0 611 -17 380 0 610 101 458 58 57 378 0 369 +17 416 0 612 52 383 59 138 384 0 4
01 +15 612 10460 0 383 571 0 17 52 0 612 70 416 50 401 328 0 438 -17 383 0 612 4
16 70 53 613 381 0 0 +17 70 0 612 383 52 54 438 291 0 613 -17 613 0 585 614 611
 54 383 381 0 432 -17 614 0 585 615 613 112 432 417 0 290 -17 611 0 585 613 608
 53 458 361 0 383 -17 432 0 572 438 149 54 614 417 0 0 +15 572 10467 0 432 561 0
 17 438 0 572 111 432 50 70 291 0 326 +17 149 0 572 432 111 112 460 292 0 614 -1
7 111 0 572 149 438 71 326 324 0 460 -17 460 0 562 140 290 71 149 292 0 440 +15
 562 10474 0 290 557 0 17 140 0 562 62 460 63 440 327 0 444 -17 290 0 562 460 62
 112 615 288 0 0 +17 440 0 592 326 358 71 140 327 0 0 +17 326 0 592 401 440 50 1
11 324 0 0 +17 358 0 592 440 312 63 114 314 0 0 +17 312 0 592 358 334 64 146 310
 0 0 +17 114 0 616 67 444 64 358 314 0 364 -15 616 10481 0 331 560 0 17 67 0 616
 331 114 65 364 362 0 617 -17 444 0 616 114 331 63 62 332 0 358 +17 364 0 618 14
6 372 64 67 362 0 312 +15 618 10488 0 372 575 0 17 146 0 618 161 364 68 312 310
 0 456 -17 372 0 618 364 161 65 619 365 0 0 +17 161 0 618 372 146 147 456 335 0
 619 -17 619 0 585 588 617 147 372 365 0 436 -17 588 0 585 590 619 46 436 366 0
 0 -17 617 0 585 619 615 65 331 329 0 372 -17 436 0 576 456 48 147 588 366 0 0 +
15 576 10495 0 436 573 0 17 456 0 576 620 436 68 161 335 0 334 +17 48 0 576 436
 620 46 419 399 0 397 -17 620 0 576 48 456 49 334 313 0 0 -17 419 0 540 124 397
 49 48 399 0 620 +17 397 0 540 419 151 46 590 395 0 588 +17 151 0 540 397 124 12
2 405 387 0 590 -17 590 0 585 587 588 122 397 395 0 454 -17 454 0 546 405 95 122
 587 406 0 0 +15 546 10369 0 454 539 0 17 405 0 546 121 454 82 151 387 0 468 +17
 95 0 546 454 121 93 317 315 0 587 -17 121 0 546 95 405 96 468 323 0 317 -17 468
 0 592 81 321 82 121 323 0 0 +17 81 0 592 334 468 49 124 352 0 419 +17 321 0 592
 468 423 96 153 319 0 0 +17 153 0 578 78 317 79 321 319 0 300 -17 334 0 592 312
 81 68 620 313 0 0 +17 124 0 540 151 419 82 81 352 0 405 -17 615 0 585 617 614 6
0 290 288 0 331 -17 331 0 616 444 67 60 617 329 0 0 +14 575 10487 621 ?573 560 6
18 5 622 +0 0 573 560 21 81 1 621 76144 527 575 623 0 580 624 625 14 560 10480 6
24 ?575 557 616 5 626 +0 0 575 557 21 51 622 11572 0 575 627 628 0 +2.5728208070
7044 1.5488142650379 0 0 0 1 .0217913143112033 .0790720376710763 -.9968689045499
13 0 50 627 11493 0 602 629 622 0 +2.15954390168769 1.79209118141177 0 940395480
657848e-55 1 2067951531382595e-42 1 0 -454747350886467e-28 50 628 11657 0 582 62
2 630 0 +2.15954390168769 1.52709118141178 0 -1 0 0 0 0 1 14 582 10389 631 ?566
 550 591 5 628 +0 0 566 550 21 51 630 11688 0 600 628 551 0 +2.01690116228898 1.
76473392081048 0 0 0 1 .0283292956347742 -.259705031009043 .965687991469601 0 14
 600 10417 632 ?602 565 599 5 630 +0 0 602 565 21 51 551 11826 0 555 630 548 0 +
2.18073549996098 1.94089958310588 0 0 0 1 .0212250734721722 -.0561410670664505 .
998422846587877 0 14 555 10438 633 ?552 605 609 5 551 +0 0 552 605 21 81 1 633 7
6148 527 555 634 0 632 635 636 14 605 10431 635 ?555 602 604 5 629 +0 0 555 602
 21 81 1 635 76149 527 605 637 0 633 638 639 14 602 10424 638 ?605 600 601 5 627
 +0 0 605 600 21 50 629 11475 0 605 626 627 0 +2.15954390168769 1.94209118141178
 0 -1 170530256582416e-28 0 0 0 1 50 626 11415 0 560 640 629 0 +2.59454389069655
 1.54709118141178 0 1 0 0 0 1 0 50 640 11286 0 566 641 626 0 +2.00954390168769 1
.52709118141178 0 -151582450295494e-28 -1 0 -1 151582450295494e-28 0 14 566 1039
6 642 ?563 582 593 5 640 +0 0 563 582 21 50 641 11225 0 221 643 640 0 +2.4845438
9920678 1.7187678000714 .003 0 0 1 1 0 0 14 221 10498 644 ?518 573 219 5 641 +0
 0 518 573 21 50 643 11082 0 565 645 641 0 +1.98954390168769 1.77209118141178 0
 -1 757912251477437e-29 0 0 0 1 14 565 10410 646 ?600 563 598 5 643 +0 0 600 563
 21 50 645 10983 0 518 647 643 0 +2.48454389920678 1.7187678000714 0 0 0 1 1 0 0
 14 518 10729 648 ?649 221 517 5 645 -0 0 649 221 21 50 647 10969 0 571 650 645
 0 +2.42454389069655 1.79209118141178 0 1 -246321481730168e-28 0 0 0 1 14 571 10
459 651 ?561 17 612 5 647 +0 0 561 17 21 51 650 44475 0 649 652 647 0 +2.4034638
9069655 1.94139118156564 -.007 0 0 1 .0013 1 0 0 14 649 44435 653 ?654 518 655 5
 650 -0 0 654 518 21 51 652 44478 0 656 657 650 0 +2.57398389069655 1.7711911814
1178 -.007 0 0 1 .0013 1 0 0 14 656 44267 658 ?659 660 661 5 652 -0 0 659 660 21
 51 657 44481 0 660 662 652 0 +2.57334389069655 1.54864118141179 -.007 0 0 1 .00
13 1 0 0 14 660 44291 663 ?656 664 665 5 657 -0 0 656 664 21 51 662 44484 0 664
 666 657 0 +2.01594390168769 1.76569118141177 -.007 0 0 1 .0013 1 0 0 14 664 443
15 667 ?660 668 669 5 662 -0 0 660 668 21 51 666 44487 0 668 670 662 0 +2.180843
90168769 1.94149118156564 -.007 0 0 1 .0013 1 0 0 14 668 44339 671 ?664 672 673
 5 666 -0 0 664 672 21 51 670 44490 0 674 675 666 0 +2.40494389069655 1.37689118
131947 -.007 0 0 1 .0013 1 0 0 14 674 44195 676 ?677 678 679 5 670 -0 0 677 678
 21 51 675 44493 0 677 680 670 0 +2.01244390168769 1.54969118141178 -.007 0 0 1
 .0013 1 0 0 14 677 44171 681 ?682 674 683 5 675 -0 0 682 674 21 51 680 44496 0
 659 684 675 0 +2.17844390168769 1.77319118141177 -.007 0 0 1 .0013 1 0 0 14 659
 44243 685 ?678 656 686 5 680 -0 0 678 656 21 51 684 44499 0 678 687 680 0 +2.18
184390168769 1.37889118131947 -.007 0 0 1 .0013 1 0 0 14 678 44219 688 ?674 659
 689 5 684 -0 0 674 659 21 51 687 44502 0 690 691 684 0 +2.17844390168769 1.5459
9118141177 -.007 0 0 1 .0013 1 0 0 14 690 44387 692 ?672 654 693 5 687 -0 0 672
 654 21 51 691 44505 0 654 694 687 0 +2.40564389069655 1.77319118141177 -.007 0
 0 1 .0013 1 0 0 14 654 44411 695 ?690 649 696 5 691 -0 0 690 649 21 51 694 4450
8 0 672 697 691 0 +2.40564389069655 1.54599118141177 -.007 0 0 1 .0013 1 0 0 14
 672 44363 698 ?668 690 699 5 694 -0 0 668 690 21 50 697 75886 0 682 535 694 0 +
2.24654390168769 1.40649118131947 -.007 1 0 0 0 0 -1 14 682 75844 700 ?701 677 3
4 5 697 -0 0 701 677 21 50 535 75887 0 525 702 697 0 +2.24654390168769 1.4141411
8131947 -.007 0 1 0 0 0 1 50 702 75888 0 533 537 535 0 +2.24384390168769 1.40649
118131947 -.007 -1 0 0 0 0 1 14 533 75852 703 ?525 701 704 5 702 -0 0 525 701 21
 50 537 75889 0 701 526 702 0 +2.24654390168769 1.40649118131947 -.007 0 -1 0 0
 0 -1 14 701 75848 705 ?533 682 706 5 537 -0 0 533 682 21 81 1 705 76170 527 701
 707 0 703 708 709 15 706 75851 0 190 701 0 17 190 0 706 243 180 188 710 247 0 2
40 +17 243 0 706 711 190 185 712 241 0 37 +17 180 0 706 190 711 178 510 508 0 71
0 -17 710 0 704 713 240 178 190 247 0 507 -17 240 0 704 710 193 188 714 238 0 71
2 +15 704 75855 0 193 533 0 17 193 0 704 240 713 191 45 249 0 237 +17 714 0 222
 715 712 191 240 238 0 0 -17 712 0 222 714 37 188 243 241 0 0 -15 222 75676 0 37
 221 716 17 37 0 222 712 715 185 32 38 0 0 -17 715 0 222 37 714 25 237 235 0 0 -
17 237 0 534 45 39 191 715 235 0 714 +15 534 75859 0 39 525 0 17 45 0 534 183 23
7 41 193 249 0 713 -17 39 0 534 237 183 25 35 244 0 715 +17 183 0 534 39 45 181
 504 398 0 35 -17 35 0 34 177 32 181 39 244 0 513 -15 34 75847 0 36 682 0 17 177
 0 34 36 35 175 513 511 0 711 -17 513 0 519 504 510 181 177 511 0 0 +15 519 7561
3 0 510 518 717 17 504 0 519 507 513 41 183 398 0 0 +17 510 0 519 513 507 175 18
0 508 0 0 +17 507 0 519 510 504 178 713 505 0 0 +17 713 0 704 193 710 41 507 505
 0 504 -15 717 44060 0 502 518 718 17 502 0 717 502 502 0 719 354 0 0 +15 718 44
052 0 500 518 720 17 500 0 718 500 500 0 721 498 0 0 +15 720 44044 0 497 518 722
 17 497 0 720 497 497 0 723 495 0 0 +15 722 44036 0 494 518 724 17 494 0 722 494
 494 0 725 492 0 0 +15 724 44028 0 491 518 726 17 491 0 724 491 491 0 727 489 0
 0 +15 726 44020 0 488 518 728 17 488 0 726 488 488 0 729 486 0 0 +15 728 44012
 0 485 518 730 17 485 0 728 485 485 0 731 483 0 0 +15 730 44004 0 482 518 732 17
 482 0 730 482 482 0 733 480 0 0 +15 732 43996 0 479 518 734 17 479 0 732 479 47
9 0 735 477 0 0 +15 734 43988 0 476 518 736 17 476 0 734 476 476 0 737 474 0 0 +
15 736 43980 0 473 518 738 17 473 0 736 473 473 0 739 471 0 0 +15 738 43972 0 47
0 518 585 17 470 0 738 470 470 0 740 287 0 0 +17 740 0 741 740 740 0 470 287 0 0
 -15 741 44439 0 740 649 0 17 739 0 742 739 739 0 473 471 0 0 -15 742 44415 0 73
9 654 0 17 737 0 743 737 737 0 476 474 0 0 -15 743 44391 0 737 690 0 17 735 0 74
4 735 735 0 479 477 0 0 -15 744 44367 0 735 672 0 17 733 0 745 733 733 0 482 480
 0 0 -15 745 44343 0 733 668 0 17 731 0 746 731 731 0 485 483 0 0 -15 746 44319
 0 731 664 0 17 729 0 747 729 729 0 488 486 0 0 -15 747 44295 0 729 660 0 17 727
 0 748 727 727 0 491 489 0 0 -15 748 44271 0 727 656 0 17 725 0 749 725 725 0 49
4 492 0 0 -15 749 44247 0 725 659 0 17 723 0 750 723 723 0 497 495 0 0 -15 750 4
4223 0 723 678 0 17 721 0 751 721 721 0 500 498 0 0 -15 751 44199 0 721 674 0 17
 719 0 752 719 719 0 502 354 0 0 -15 752 44175 0 719 677 0 17 36 0 34 32 177 185
 711 245 0 243 +17 711 0 706 180 243 175 36 245 0 510 -15 716 44157 0 753 221 75
4 17 753 0 716 753 753 0 269 267 0 0 -15 754 44149 0 755 221 756 17 755 0 754 75
5 755 0 272 264 0 0 -15 756 44141 0 757 221 758 17 757 0 756 757 757 0 263 261 0
 0 -15 758 44133 0 759 221 760 17 759 0 758 759 759 0 266 258 0 0 -15 760 44125
 0 761 221 762 17 761 0 760 761 761 0 284 270 0 0 -15 762 44117 0 763 221 764 17
 763 0 762 763 763 0 282 280 0 0 -15 764 44109 0 765 221 766 17 765 0 764 765 76
5 0 279 277 0 0 -15 766 44101 0 767 221 768 17 767 0 766 767 767 0 275 273 0 0 -
15 768 44093 0 769 221 770 17 769 0 768 769 769 0 253 231 0 0 -15 770 44085 0 77
1 221 772 17 771 0 770 771 771 0 260 254 0 0 -15 772 44077 0 773 221 774 17 773
 0 772 773 773 0 257 255 0 0 -15 774 44069 0 775 221 592 17 775 0 774 775 775 0
 286 276 0 0 -17 286 0 655 286 286 0 775 276 0 0 +15 655 44438 0 286 649 741 17
 257 0 696 257 257 0 773 255 0 0 +15 696 44414 0 257 654 742 17 260 0 693 260 26
0 0 771 254 0 0 +15 693 44390 0 260 690 743 17 253 0 699 253 253 0 769 231 0 0 +
15 699 44366 0 253 672 744 17 275 0 673 275 275 0 767 273 0 0 +15 673 44342 0 27
5 668 745 17 279 0 669 279 279 0 765 277 0 0 +15 669 44318 0 279 664 746 17 282
 0 665 282 282 0 763 280 0 0 +15 665 44294 0 282 660 747 17 284 0 661 284 284 0
 761 270 0 0 +15 661 44270 0 284 656 748 17 266 0 686 266 266 0 759 258 0 0 +15
 686 44246 0 266 659 749 17 263 0 689 263 263 0 757 261 0 0 +15 689 44222 0 263
 678 750 17 272 0 679 272 272 0 755 264 0 0 +15 679 44198 0 272 674 751 17 269 0
 683 269 269 0 753 267 0 0 +15 683 44174 0 269 677 752 80 255 1 527 776 777 9000
 1 1 1 1 1 1 1 1 0 FFFFTFTFFFFFFF1 81 1 707 76033 778 701 0 705 779 780 781 81 1
 703 76169 527 533 780 0 700 705 782 81 1 708 76171 527 204 783 0 705 784 785 82
 255 1 709 273875071 14 204 75765 708 ?218 522 199 5 786 -0 0 218 522 21 81 1 78
3 76038 778 204 0 708 787 788 789 81 1 784 76172 527 218 788 0 708 790 791 82 1
 785 276234367 14 218 75769 784 ?0 204 212 5 536 -0 0 0 204 21 81 1 788 76039 77
8 218 0 784 783 0 792 81 1 790 76173 527 17 793 0 784 0 794 82 1 791 275447935 1
4 17 10452 790 ?571 552 610 5 6 +0 0 571 552 21 81 1 793 76011 778 17 0 790 795
 796 797 82 1 794 1456603252 80 1 778 0 798 8001 0 0 0 0 3 5 0 0 0 FFFFTFTFFFFFF
F2 81 1 795 76010 778 552 0 554 634 793 799 81 1 796 76012 778 571 0 651 793 800
 801 83 255 3 797 .627450980392157 .627450980392157 .627450980392157 81 1 651 76
155 527 571 796 0 648 653 802 81 1 800 76013 778 561 0 570 796 803 804 83 3 801
 .627450980392157 .627450980392157 .627450980392157 81 1 570 76140 527 561 800 0
 564 574 805 81 1 803 76014 778 557 0 559 800 806 807 83 3 804 .627450980392157
 .627450980392157 .627450980392157 81 1 559 76138 527 557 803 0 554 564 808 81 1
 806 76015 778 560 0 624 803 623 809 83 3 807 .627450980392157 .627450980392157
 .627450980392157 81 1 624 76145 527 560 806 0 621 631 810 81 1 623 76016 778 57
5 0 621 806 811 812 83 3 809 .627450980392157 .627450980392157 .627450980392157
 81 1 811 76017 778 573 0 574 623 813 814 83 3 812 .627450980392157 .62745098039
2157 .627450980392157 81 1 574 76141 527 573 811 0 570 577 815 81 1 813 76018 77
8 221 0 644 811 816 817 83 3 814 .627450980392157 .627450980392157 .627450980392
157 81 1 644 76152 527 221 813 0 642 646 818 81 1 816 76019 778 518 0 648 813 81
9 820 83 3 817 .627450980392157 .627450980392157 .627450980392157 81 1 648 76154
 527 518 816 0 646 651 821 81 1 819 76020 778 649 0 653 816 822 823 83 3 820 .62
7450980392157 .627450980392157 .627450980392157 81 1 653 76156 527 649 819 0 651
 658 824 81 1 822 76021 778 654 0 695 819 825 826 83 3 823 .627450980392157 .627
450980392157 .627450980392157 81 1 695 76166 527 654 822 0 692 698 827 81 1 825
 76022 778 690 0 692 822 828 829 83 3 826 .627450980392157 .627450980392157 .627
450980392157 81 1 692 76165 527 690 825 0 688 695 830 81 1 828 76023 778 672 0 6
98 825 831 832 83 3 829 .627450980392157 .627450980392157 .627450980392157 81 1
 698 76167 527 672 828 0 695 700 833 81 1 831 76024 778 668 0 671 828 834 835 83
 3 832 .627450980392157 .627450980392157 .627450980392157 81 1 671 76160 527 668
 831 0 667 676 836 81 1 834 76025 778 664 0 667 831 837 838 83 3 835 .6274509803
92157 .627450980392157 .627450980392157 81 1 667 76159 527 664 834 0 663 671 839
 81 1 837 76026 778 660 0 663 834 840 841 83 3 838 .627450980392157 .62745098039
2157 .627450980392157 81 1 663 76158 527 660 837 0 658 667 842 81 1 840 76027 77
8 656 0 658 837 843 844 83 3 841 .627450980392157 .627450980392157 .627450980392
157 81 1 658 76157 527 656 840 0 653 663 845 81 1 843 76028 778 659 0 685 840 84
6 847 83 3 844 .627450980392157 .627450980392157 .627450980392157 81 1 685 76163
 527 659 843 0 681 688 848 81 1 846 76029 778 678 0 688 843 849 850 83 3 847 .62
7450980392157 .627450980392157 .627450980392157 81 1 688 76164 527 678 846 0 685
 692 851 81 1 849 76030 778 674 0 676 846 852 853 83 3 850 .627450980392157 .627
450980392157 .627450980392157 81 1 676 76161 527 674 849 0 671 681 854 81 1 852
 76031 778 677 0 681 849 779 855 83 3 853 .627450980392157 .627450980392157 .627
450980392157 81 1 681 76162 527 677 852 0 676 685 856 81 1 779 76032 778 682 0 7
00 852 707 857 83 3 855 .627450980392157 .627450980392157 .627450980392157 81 1
 700 76168 527 682 779 0 698 703 858 83 3 857 .627450980392157 .627450980392157
 .627450980392157 82 1 858 274333823 82 1 856 925040759 82 1 854 924516471 82 1
 851 923992183 82 1 848 923467895 82 1 845 922943607 82 1 842 922419319 82 1 839
 921895031 82 1 836 921370743 82 1 833 920846455 82 1 830 920322167 82 1 827 919
797879 82 1 824 919273591 81 1 646 76153 527 565 859 0 644 648 860 82 1 821 -158
8002689 81 1 859 76005 778 565 0 646 861 862 863 82 1 860 1621426292 81 1 861 76
004 778 563 0 564 864 859 865 81 1 862 76006 778 600 0 632 859 866 867 83 3 863
 .627450980392157 .627450980392157 .627450980392157 81 1 632 76147 527 600 862 0
 631 633 868 81 1 866 76007 778 602 0 638 862 637 869 83 3 867 .627450980392157
 .627450980392157 .627450980392157 81 1 638 76150 527 602 866 0 635 642 870 81 1
 637 76008 778 605 0 635 866 634 871 83 3 869 .627450980392157 .627450980392157
 .627450980392157 81 1 634 76009 778 555 0 633 637 795 872 83 3 871 .62745098039
2157 .627450980392157 .627450980392157 83 3 872 .627450980392157 .62745098039215
7 .627450980392157 81 1 642 76151 527 566 864 0 638 644 873 82 1 870 1526136948
 81 1 864 76003 778 566 0 642 874 861 875 82 1 873 1499005044 81 1 874 76002 778
 582 0 631 876 864 877 83 3 875 .627450980392157 .627450980392157 .6274509803921
57 81 1 631 76146 527 582 874 0 624 632 878 81 1 876 76001 778 550 0 580 579 874
 879 83 3 877 .627450980392157 .627450980392157 .627450980392157 81 1 580 76143
 527 550 876 0 577 621 880 81 1 579 76000 778 545 0 577 881 876 882 83 3 879 .62
7450980392157 .627450980392157 .627450980392157 81 1 881 75999 778 539 0 543 542
 579 883 83 3 882 .627450980392157 .627450980392157 .627450980392157 81 1 543 76
136 527 539 881 0 538 554 884 81 1 542 75998 778 15 0 538 0 881 885 83 3 883 .62
7450980392157 .627450980392157 .627450980392157 83 3 885 .627450980392157 .62745
0980392157 .627450980392157 81 1 554 76137 527 552 795 0 543 559 886 82 1 884 15
97767796 82 1 886 1579679860 82 1 880 1567359092 82 1 878 1547501684 82 1 868 15
51564916 81 1 564 76139 527 563 861 0 559 570 887 83 3 865 .627450980392157 .627
450980392157 .627450980392157 82 1 887 1583874164 82 1 818 -1588264833 82 1 815
 1441529972 82 1 810 1515913332 82 1 808 1580204148 82 1 805 1422131316 82 1 802
 1606680692 83 3 799 .627450980392157 .627450980392157 .627450980392157 79 255 1
5 798 SDL/TYSA_COLOUR83 3 792 .627450980392157 .627450980392157 .627450980392157
 50 536 75893 0 218 786 526 0 +2.19078390168769 1.91014118156564 -.007 0 1 0 0 0
 1 50 786 75894 0 204 531 536 0 +2.18808390168769 1.90249118156564 -.007 -1 0 0
 0 0 1 50 531 75895 0 522 0 786 0 +2.19078390168769 1.90249118156564 -.007 0 -1
 0 0 0 -1 81 1 787 76037 778 522 0 529 528 783 888 83 3 789 .627450980392157 .62
7450980392157 .627450980392157 81 1 529 76133 527 522 787 0 524 532 889 81 1 528
 76036 778 523 0 524 890 787 891 83 3 888 .627450980392157 .627450980392157 .627
450980392157 81 1 890 76035 778 525 0 532 780 528 892 83 3 891 .627450980392157
 .627450980392157 .627450980392157 81 1 532 76134 527 525 890 0 529 538 893 81 1
 780 76034 778 533 0 703 707 890 894 83 3 892 .627450980392157 .627450980392157
 .627450980392157 83 3 894 .627450980392157 .627450980392157 .627450980392157 82
 1 893 272302207 82 1 889 277020799 82 1 782 273088639 83 3 781 .627450980392157
 .627450980392157 .627450980392157 79 14 777 SWEntUnchanged82 1 639 1523777652 8
2 1 636 1565261940 82 1 625 1536491636 17 62 0 562 290 140 60 444 332 0 615 -17
 608 0 585 611 607 55 350 348 0 458 -17 458 0 610 380 138 55 611 361 0 0 +17 57
 0 556 350 136 55 380 378 0 608 -17 597 0 585 603 596 108 375 373 0 464 -17 464
 0 601 413 132 108 603 414 0 0 +17 142 0 599 375 130 108 413 411 0 597 -17 589 0
 585 594 586 104 442 302 0 342 -17 342 0 593 338 90 104 594 339 0 0 +17 157 0 59
1 442 164 104 338 336 0 589 -82 1 581 1447297140 82 1 544 1573388404 82 1 530 27
7479551 17 29 0 219 208 216 184 24 30 0 0 -16 30 75733 0 ?24 217 245 227 0 0 1 3
0 227 75917 0 30 0 220 0 +2.19078390168769 1.90249118156564 .003 0 1 0 17 211 0
 517 209 22 33 174 514 0 0 +17 174 0 212 31 40 172 211 514 0 27 -19 16 1 0 1 0 9
 5 S0 74 4 CI16 index_map_offset0 0 1 dCCZ20 14 3 0 0 790 2 788 0 0 0 0 0 0 0 0
 0 0 0 0 0 0 0 0 0 80 2 12 895 896 8004 0 0 0 0 3 5 0 0 0 FFTFFFFFFFFFFF2 3 83 1
 13 1 79 16 896 SDL/TYSA_DENSITY1 0 
