**ABCDEFGHIJKLMNOPQRSTUVWXYZabcdefghijklmnopqrstuvwxyz**************************
**PARASOLID !"#$%&'()*+,-./:;<=>?@[\]^_`{|}~0123456789**************************
**PART1;
MC=AMD64;
MC_MODEL=Intel64 Family 6 Model 158 Stepping 10, GenuineIntel;
MC_ID=unknown;
OS=Windows_NT;
OS_RELEASE=unknown;
FRU=Parasolid Version 30.0, build 226,  7-26-2017;
APPL=SOLIDWORKS 2018-2017278;
SITE=;
USER=unknown;
FORMAT=text;
GUISE=transmit;
KEY=Capa 3;
FILE=Capa 3.x_t;
DATE=Tue May 28 18:14:35 2019;
**PART2;
SCH=SCH_3000226_30000;
USFLD_SIZE=0;
**PART3;
**END_OF_HEADER*****************************************************************
T51 : TRANSMIT FILE created by modeller version 300022623 SCH_3000226_30000_1300
6205 0 12 33 CCCCCCI4 mesh1006 0 I8 polyline1008 0 CCCCCCCDI5 owner1040 0 CCCCCC
I13 boundary_mesh1006 0 I17 boundary_polyline1008 0 CCCA16 index_map_offset0 0 1
 dA9 index_map82 0 A17 node_id_index_map82 0 A20 schema_embedding_map82 0 A5 chi
ld12 0 A14 lowest_node_id0 0 1 dZ1 635 2 3 0 0 0 0 0 0 1e3 1e-8 0 4 0 1 0 1 1 5
 6 7 8 0 0 9 10 11 0 0 0 0 0 0 81 255 2 2 495 12 1 0 0 0 0 13 0 70 11 CI9 list_t
ype0 0 1 uI10 notransmit0 0 1 lCCCDCCDI12 finger_index0 0 1 dI12 finger_block101
2 0 CZ3 0 4 T1 0 0 3 20 1 14 14 13 255 5 174 0 1 0 15 0 0 16 0 51 255 6 165 0 17
 18 0 0 -.1671448818174325 .053762164788374 .003 0 0 -1 .01400000000000014 -1 0
 0 30 255 7 173 0 10 19 0 0 +.1698254826870995 .0675031392435407 .003 0 0 -1 29
 255 8 126 0 20 21 0 .1808858562725995 .0564427656580404 0 19 8 CCCCCCCA5 owner1
2 0 Z9 52 0 1 16 0 22 V0 16 255 10 141 0 ?23 0 24 7 0 0 1 18 255 11 49 0 25 0 26
 27 ?1 17 255 25 0 28 29 30 11 31 32 0 33 +18 26 46 0 30 11 34 35 ?1 29 27 51 0
 11 35 36 .1808858562725995 .0564427656580404 .003 29 35 48 0 26 37 27 .18088585
62725995 -.0514364871710588 .003 29 36 133 0 38 27 39 .1698254826870995 .0675031
392435407 0 18 38 116 0 40 41 0 36 ?1 29 39 132 0 41 36 42 -.1601745173129005 .0
675031392435407 0 18 41 115 0 43 44 38 39 ?1 29 42 131 0 44 39 45 -.171234890898
3005 .0564427656581409 0 18 44 114 0 46 47 41 42 ?1 29 45 130 0 47 42 48 -.17123
48908983005 -.0514364871710593 0 18 47 113 0 49 50 44 45 ?1 29 48 129 0 50 45 51
 -.1601745173129005 -.0624968607564593 0 18 50 112 0 52 53 47 48 ?1 29 51 128 0
 53 48 21 .1698254826870995 -.0624968607564592 0 18 53 111 0 54 55 50 51 ?1 29 2
1 127 0 55 51 8 .1808858562725995 -.0514364871710588 0 18 55 110 0 56 20 53 21 ?
1 17 56 0 57 58 59 55 60 61 0 62 +18 20 109 0 63 64 55 8 ?1 17 63 0 65 33 62 20
 66 67 0 68 +18 64 28 0 69 70 20 71 ?1 17 69 0 72 23 73 64 74 75 0 29 -18 70 31
 0 74 76 64 77 ?1 29 71 30 0 64 0 77 .1698254826870995 .0675031392435407 .003 29
 77 33 0 70 71 78 -.1601745173129005 .0675031392435407 .003 29 78 36 0 76 77 79
 -.1712348908983005 .0564427656581409 .003 18 76 34 0 80 81 70 78 ?1 29 79 39 0
 81 78 82 -.1712348908983005 -.0514364871710593 .003 18 81 37 0 83 84 76 79 ?1 2
9 82 42 0 84 79 37 -.1601745173129005 -.0624968607564593 .003 18 84 40 0 85 34 8
1 82 ?1 29 37 45 0 34 82 35 .1698254826870995 -.0624968607564592 .003 18 34 43 0
 86 26 84 37 ?1 17 86 0 28 30 85 34 87 88 0 89 +15 255 28 3 0 29 15 90 17 30 0 2
8 25 86 26 91 92 0 58 +17 85 0 28 86 83 84 93 94 0 95 +17 87 0 96 97 89 84 86 88
 0 0 -16 88 19 0 ?86 92 94 98 0 0 1 17 89 0 96 87 54 34 59 99 0 91 -15 96 146 0
 54 100 0 17 54 0 96 89 97 53 101 102 0 59 +17 59 0 57 56 91 53 89 99 0 60 +16 9
9 136 0 ?59 103 104 105 0 0 1 17 91 0 57 59 58 34 30 92 0 0 -15 57 144 0 56 106
 0 17 58 0 57 91 56 26 62 104 0 31 -16 92 22 0 ?30 32 88 107 0 0 1 16 32 25 0 ?2
5 108 92 109 0 0 1 31 255 107 23 0 92 98 109 0 +.167144881817453 -.0487558863012
886 .003 0 0 1 1 0 0 .014 30 98 20 0 88 110 107 0 +-.1601745173129005 -.06249686
07564593 .003 1 1682156097916905e-31 0 30 109 26 0 32 107 111 0 +.18088585627259
95 -.0514364871710588 .003 0 1 0 31 111 125 0 112 109 113 0 +.1671448818174325 .
053762164788374 0 0 0 1 1 0 0 .01400000000000014 16 112 105 0 ?114 115 116 111 0
 0 1 30 113 124 0 115 111 117 0 +.1698254826870995 .0675031392435407 0 -1 0 0 16
 115 101 0 ?43 118 112 113 0 0 1 31 117 123 0 118 113 119 0 +-.15749391644315 .0
537621647883903 0 0 0 1 1 0 0 .014 16 118 97 0 ?46 120 115 117 0 0 1 30 119 122
 0 120 117 121 0 +-.1712348908983005 .0564427656581409 0 0 -1 0 16 120 93 0 ?49
 122 118 119 0 0 1 31 121 121 0 122 119 123 0 +-.15749391644315 -.04875588630130
9 0 0 0 1 1 0 0 .014 16 122 89 0 ?52 102 120 121 0 0 1 30 123 120 0 102 121 124
 0 +-.1601745173129005 -.0624968607564593 0 1 1682156097916905e-31 0 16 102 85 0
 ?54 61 122 123 0 0 1 31 124 119 0 61 123 125 0 +.167144881817453 -.048755886301
2886 0 0 0 1 1 0 0 .014 16 61 81 0 ?56 67 102 124 0 0 1 30 125 118 0 67 124 126
 0 +.1808858562725995 -.0514364871710588 0 0 1 0 16 67 77 0 ?63 127 61 125 0 0 1
 30 126 166 0 108 125 128 0 +.1808858562725995 .0564427656580404 .003 0 0 -1 16
 108 134 0 ?68 104 32 126 0 0 1 30 128 167 0 104 126 105 0 +.1808858562725995 -.
0514364871710588 .003 0 0 -1 16 104 135 0 ?62 99 108 128 0 0 1 30 105 168 0 99 1
28 129 0 +.1698254826870995 -.0624968607564592 .003 0 0 -1 30 129 169 0 103 105
 130 0 +-.1601745173129005 -.0624968607564593 .003 0 0 -1 16 103 137 0 ?97 131 9
9 129 0 0 1 30 130 170 0 131 129 132 0 +-.1712348908983005 -.0514364871710593 .0
03 0 0 -1 16 131 138 0 ?133 134 103 130 0 0 1 30 132 171 0 134 130 19 0 +-.17123
48908983005 .0564427656581409 .003 0 0 -1 16 134 139 0 ?135 24 131 132 0 0 1 30
 19 172 0 24 132 7 0 +-.1601745173129005 .0675031392435407 .003 0 0 -1 16 24 140
 0 ?136 10 134 19 0 0 1 17 136 0 137 46 138 41 73 24 0 139 +15 137 152 0 46 140
 0 17 46 0 137 141 136 44 139 118 0 135 +17 138 0 137 136 141 70 80 142 0 0 -17
 73 0 72 69 43 70 136 24 0 138 -17 139 0 143 40 144 41 46 118 0 0 -15 143 76 0 1
45 146 147 17 40 0 143 145 139 38 43 115 0 23 -17 144 0 143 139 148 44 49 120 0
 0 -17 148 0 143 144 101 47 52 122 0 0 -17 49 0 149 150 135 47 144 120 0 133 +15
 149 150 0 49 151 0 17 150 0 149 152 49 81 133 131 0 93 -17 135 0 149 49 152 44
 141 134 0 144 +17 133 0 153 52 93 47 150 131 0 148 +15 153 148 0 52 154 0 17 52
 0 153 95 133 50 148 122 0 97 +17 93 0 153 133 95 81 85 94 0 0 -17 95 0 153 93 5
2 84 97 103 0 87 -16 94 16 0 ?85 88 155 110 0 0 1 16 155 13 0 ?83 94 142 156 0 0
 1 31 110 17 0 94 156 98 0 +-.15749391644315 -.048755886301309 .003 0 0 1 1 0 0
 .014 30 156 14 0 155 157 110 0 +-.1712348908983005 .0564427656581409 .003 0 -1
 0 31 157 11 0 142 158 156 0 +-.15749391644315 .0537621647883903 .003 0 0 1 1 0
 0 .014 16 142 10 0 ?80 155 75 157 0 0 1 30 158 8 0 75 159 157 0 +.1698254826870
995 .0675031392435407 .003 -1 0 0 16 75 7 0 ?74 142 127 158 0 0 1 31 159 5 0 127
 160 158 0 +.1671448818174325 .053762164788374 .003 0 0 1 1 0 0 .014000000000000
14 16 127 4 0 ?29 75 67 159 0 0 1 31 160 230 0 161 162 159 0 +.00482548268709949
 -.0514502504843593 0 0 0 1 1 0 0 .001499999999999956 16 161 208 0 ?163 116 164
 160 0 0 1 31 162 231 0 116 165 160 0 +.00482548268709949 -.0514502504843593 .00
3 0 0 1 1 0 0 .001499999999999956 16 116 211 0 ?166 112 161 162 0 0 1 31 165 268
 0 167 168 162 0 +.1698254826870995 .0564427656580407 0 0 0 1 1 0 0 .00149999999
999997 16 167 246 0 ?169 164 170 165 0 0 1 31 168 269 0 164 171 165 0 +.16982548
26870995 .0564427656580407 .003 0 0 1 1 0 0 .00149999999999997 16 164 249 0 ?172
 161 167 168 0 0 1 31 171 306 0 173 174 168 0 +-.1601745173129005 -.051464013797
5593 0 0 0 1 1 0 0 .001500000000000055 16 173 284 0 ?175 170 176 171 0 0 1 31 17
4 307 0 170 177 171 0 +-.1601745173129005 -.0514640137975593 .003 0 0 1 1 0 0 .0
01500000000000055 16 170 287 0 ?178 167 173 174 0 0 1 31 177 344 0 179 180 174 0
 +-.1601745173129005 .0564427656581407 0 0 0 1 1 0 0 .00149999999999997 16 179 3
22 0 ?181 176 182 177 0 0 1 31 180 345 0 176 183 177 0 +-.1601745173129005 .0564
427656581407 .003 0 0 1 1 0 0 .00149999999999997 16 176 325 0 ?184 173 179 180 0
 0 1 31 183 382 0 185 186 180 0 +.1698254826870995 -.0514364871710593 0 0 0 1 1
 0 0 .001500000000000055 16 185 360 0 ?187 182 188 183 0 0 1 31 186 383 0 182 18
9 183 0 +.1698254826870995 -.0514364871710593 .003 0 0 1 1 0 0 .0015000000000000
55 16 182 363 0 ?190 179 185 186 0 0 1 31 189 420 0 191 192 186 0 +.004825482687
09949 .0564427656581407 0 0 0 1 1 0 0 .001499999999999976 16 191 398 0 ?193 188
 0 189 0 0 1 31 192 421 0 188 0 189 0 +.00482548268709949 .0564427656581407 .003
 0 0 1 1 0 0 .001499999999999976 16 188 401 0 ?194 185 191 192 0 0 1 17 194 0 19
5 194 194 0 196 188 0 0 +15 195 407 0 194 197 198 17 196 0 199 196 196 0 194 188
 0 0 -15 199 392 0 196 15 0 14 255 15 395 200 ?146 0 201 5 202 +0 0 146 0 22 81
 1 200 620 203 15 204 0 0 205 206 14 146 389 205 ?17 15 143 5 207 -0 0 17 15 22
 15 201 354 0 208 15 209 50 255 202 2 0 15 210 207 0 +.1671448818174325 .0537621
64788374 .003 0 0 1 1 0 0 13 22 53 0 0 0 0 0 0 9 15 51 210 227 0 211 212 202 0 -
.00482548268709949 -.0514502504843593 .003 0 0 -1 .001499999999999956 -1 0 0 50
 207 117 0 146 202 213 0 +.1671448818174325 .053762164788374 0 0 0 1 1 0 0 50 21
3 158 0 214 207 215 0 +.1808858562725995 -.0514364871710588 .003 -1 0 0 0 0 1 14
 214 143 216 ?211 106 65 5 213 -0 0 211 106 22 51 215 159 0 106 213 217 0 -.1671
44881817453 -.0487558863012886 .003 0 0 -1 .014 -1 0 0 14 106 145 218 ?214 100 5
7 5 215 -0 0 214 100 22 50 217 160 0 100 215 219 0 +-.1601745173129005 -.0624968
607564593 .003 -1682156097916905e-31 1 0 -1 -1682156097916905e-31 0 14 100 147 2
20 ?106 154 96 5 217 -0 0 106 154 22 51 219 161 0 154 217 221 0 --.1574939164431
5 -.048755886301309 .003 0 0 -1 .014 -1 0 0 14 154 149 222 ?100 151 153 5 219 -0
 0 100 151 22 50 221 162 0 151 219 223 0 +-.1712348908983005 .0564427656581409 .
003 1 0 0 0 0 -1 14 151 151 224 ?154 140 149 5 221 -0 0 154 140 22 51 223 163 0
 140 221 18 0 --.15749391644315 .0537621647883903 .003 0 0 -1 .014 -1 0 0 14 140
 153 225 ?151 226 137 5 223 -0 0 151 226 22 50 18 164 0 226 223 6 0 +.1698254826
870995 .0675031392435407 .003 0 -1 0 0 0 -1 14 226 155 227 ?140 17 72 5 18 -0 0
 140 17 22 81 1 227 628 203 226 228 0 225 229 230 14 17 157 229 ?226 146 231 5 6
 -0 0 226 146 22 15 72 154 0 43 226 0 17 43 0 72 73 23 41 40 115 0 136 +17 23 0
 72 43 69 38 232 10 0 114 +17 232 0 231 233 114 64 23 10 0 0 -17 114 0 231 232 6
8 38 145 112 0 0 +15 231 156 0 114 17 0 17 68 0 231 114 233 20 33 108 0 145 +17
 145 0 143 66 40 20 114 112 0 0 -17 66 0 143 60 145 55 63 67 0 0 -17 60 0 143 10
1 66 53 56 61 0 0 -17 101 0 143 148 60 50 54 102 0 0 -17 233 0 231 68 232 11 29
 127 0 0 -17 33 0 65 31 63 11 68 108 0 233 -15 65 142 0 63 214 0 17 31 0 65 62 3
3 26 25 32 0 0 -17 62 0 65 63 31 55 58 104 0 66 +17 29 0 28 74 25 64 233 127 0 2
32 +17 74 0 28 80 29 70 69 75 0 73 +17 80 0 28 83 74 76 138 142 0 141 +17 83 0 2
8 85 80 81 152 155 0 150 +17 141 0 137 138 46 76 135 134 0 152 -17 152 0 149 135
 150 76 83 155 0 0 -81 1 229 629 203 17 234 0 227 235 236 80 255 1 203 237 238 9
000 1 1 1 1 1 1 1 1 0 FFFFTFTFFFFFFF1 81 1 234 572 239 17 0 229 240 228 241 81 1
 235 630 203 211 242 0 229 243 244 82 255 1 236 -1224474516 14 211 214 235 ?245
 214 246 5 210 +0 0 245 214 22 81 1 242 580 239 211 0 235 247 248 249 81 1 243 6
31 203 245 248 0 235 250 251 82 1 244 -1264189332 14 245 252 243 ?252 211 253 5
 212 +0 0 252 211 22 81 1 248 581 239 245 0 243 242 254 255 81 1 250 632 203 252
 254 0 243 256 257 82 1 251 -1260060564 14 252 290 250 ?258 245 259 5 260 +0 0 2
58 245 22 81 1 254 582 239 252 0 250 248 261 262 81 1 256 633 203 258 261 0 250
 263 264 82 1 257 -1255997332 14 258 328 256 ?265 252 266 5 267 +0 0 265 252 22
 81 1 261 583 239 258 0 256 254 268 269 81 1 263 634 203 265 268 0 256 270 271 8
2 1 264 -1251934100 14 265 366 263 ?197 258 272 5 273 +0 0 197 258 22 81 1 268 5
84 239 265 0 263 261 274 275 81 1 270 635 203 197 274 0 263 0 276 82 1 271 -1247
870868 14 197 404 270 ?0 265 195 5 277 +0 0 0 265 22 81 1 274 585 239 197 0 270
 268 0 278 82 1 276 -1243807636 80 1 239 0 279 8001 0 0 0 0 3 5 0 0 0 FFFFTFTFFF
FFFF2 83 255 3 278 .792156862745098 .819607843137255 .933333333333333 79 255 15
 279 SDL/TYSA_COLOUR51 277 417 0 197 0 273 0 -.00482548268709949 .05644276565814
07 .003 0 0 -1 .001499999999999976 -1 0 0 51 273 379 0 265 277 267 0 -.169825482
6870995 -.0514364871710593 .003 0 0 -1 .001500000000000055 -1 0 0 51 267 341 0 2
58 273 260 0 --.1601745173129005 .0564427656581407 .003 0 0 -1 .0014999999999999
7 -1 0 0 51 260 303 0 252 267 212 0 --.1601745173129005 -.0514640137975593 .003
 0 0 -1 .001500000000000055 -1 0 0 51 212 265 0 245 260 210 0 -.1698254826870995
 .0564427656580407 .003 0 0 -1 .00149999999999997 -1 0 0 83 3 275 .7921568627450
98 .819607843137255 .933333333333333 15 272 369 0 190 265 280 17 190 0 272 190 1
90 0 208 182 0 0 +15 280 370 0 281 265 0 17 281 0 280 281 281 0 187 185 0 0 -17
 187 0 282 187 187 0 281 185 0 0 +15 282 349 0 187 146 283 15 283 387 0 193 146
 0 17 193 0 283 193 193 0 284 191 0 0 +17 284 0 198 284 284 0 193 191 0 0 -15 19
8 408 0 284 197 0 17 208 0 201 208 208 0 190 182 0 0 -83 3 269 .792156862745098
 .819607843137255 .933333333333333 15 266 331 0 184 258 285 17 184 0 266 184 184
 0 286 176 0 0 +15 285 332 0 287 258 0 17 287 0 285 287 287 0 181 179 0 0 -17 18
1 0 288 181 181 0 287 179 0 0 +15 288 311 0 181 146 282 17 286 0 289 286 286 0 1
84 176 0 0 -15 289 316 0 286 15 199 83 3 262 .792156862745098 .819607843137255 .
933333333333333 15 259 293 0 178 252 290 17 178 0 259 178 178 0 291 170 0 0 +15
 290 294 0 292 252 0 17 292 0 290 292 292 0 175 173 0 0 -17 175 0 293 175 175 0
 292 173 0 0 +15 293 273 0 175 146 288 17 291 0 209 291 291 0 178 170 0 0 -15 20
9 278 0 291 15 294 15 294 202 0 295 15 28 17 295 0 294 295 295 0 166 116 0 0 -17
 166 0 246 166 166 0 295 116 0 0 +15 246 217 0 166 211 296 15 296 218 0 297 211
 0 17 297 0 296 297 297 0 163 161 0 0 -17 163 0 147 163 163 0 297 161 0 0 +15 14
7 197 0 163 146 298 15 298 235 0 169 146 293 17 169 0 298 169 169 0 299 167 0 0
 +17 299 0 300 299 299 0 169 167 0 0 -15 300 256 0 299 245 0 83 3 255 .792156862
745098 .819607843137255 .933333333333333 15 253 255 0 172 245 300 17 172 0 253 1
72 172 0 301 164 0 0 +17 301 0 90 301 301 0 172 164 0 0 -15 90 240 0 301 15 289
 81 1 247 579 239 214 0 216 302 242 303 83 3 249 .792156862745098 .8196078431372
55 .933333333333333 81 1 216 622 203 214 247 0 205 218 304 81 1 302 578 239 106
 0 218 305 247 306 83 3 303 .792156862745098 .819607843137255 .933333333333333 8
1 1 218 623 203 106 302 0 216 220 307 81 1 305 577 239 100 0 220 308 302 309 83
 3 306 .792156862745098 .819607843137255 .933333333333333 81 1 220 624 203 100 3
05 0 218 222 310 81 1 308 576 239 154 0 222 311 305 312 83 3 309 .79215686274509
8 .819607843137255 .933333333333333 81 1 222 625 203 154 308 0 220 224 313 81 1
 311 575 239 151 0 224 314 308 315 83 3 312 .792156862745098 .819607843137255 .9
33333333333333 81 1 224 626 203 151 311 0 222 225 316 81 1 314 574 239 140 0 225
 228 311 317 83 3 315 .792156862745098 .819607843137255 .933333333333333 81 1 22
5 627 203 140 314 0 224 227 318 81 1 228 573 239 226 0 227 234 314 319 83 3 317
 .792156862745098 .819607843137255 .933333333333333 83 3 319 .792156862745098 .8
19607843137255 .933333333333333 82 1 318 -1224998804 82 1 316 -1225260948 82 1 3
13 -1225523092 82 1 310 -1225785236 82 1 307 -1226047380 81 1 205 621 203 146 24
0 0 200 216 320 82 1 304 -1226309524 81 1 240 571 239 146 0 205 204 234 321 82 1
 320 -1214447508 81 1 204 570 239 15 0 200 0 240 322 83 3 321 .792156862745098 .
819607843137255 .933333333333333 83 3 322 .792156862745098 .819607843137255 .933
333333333333 83 3 241 .792156862745098 .819607843137255 .933333333333333 79 14 2
38 SWEntUnchanged82 1 230 -1224736660 82 1 206 -1213923220 17 97 0 96 54 87 50 9
5 103 0 101 +19 16 175 0 1 0 9 5 S0 74 4 CI16 index_map_offset0 0 1 dCCZ20 14 3
 0 0 270 2 274 0 0 0 0 0 0 0 0 0 0 0 0 0 0 0 0 0 80 2 12 323 324 8004 0 0 0 0 3
 5 0 0 0 FFTFFFFFFFFFFF2 3 83 1 13 1 79 16 324 SDL/TYSA_DENSITY1 0 
