**ABCDEFGHIJKLMNOPQRSTUVWXYZabcdefghijklmnopqrstuvwxyz**************************
**PARASOLID !"#$%&'()*+,-./:;<=>?@[\]^_`{|}~0123456789**************************
**PART1;
MC=AMD64;
MC_MODEL=Intel64 Family 6 Model 158 Stepping 10, GenuineIntel;
MC_ID=unknown;
OS=Windows_NT;
OS_RELEASE=unknown;
FRU=Parasolid Version 30.0, build 226,  7-26-2017;
APPL=SOLIDWORKS 2018-2017278;
SITE=;
USER=unknown;
FORMAT=text;
GUISE=transmit;
KEY=Capa 2;
FILE=Capa 2.x_t;
DATE=Tue May 28 18:13:50 2019;
**PART2;
SCH=SCH_3000226_30000;
USFLD_SIZE=0;
**PART3;
**END_OF_HEADER*****************************************************************
T51 : TRANSMIT FILE created by modeller version 300022623 SCH_3000226_30000_1300
6205 0 10 19 CCCCCCCI4 mesh1006 0 I8 polyline1008 0 CCCCCCCCCCZ1 5 2 3 0 0 0 0 0
 0 0 1e3 1e-8 0 0 0 1 0 1 4 81 255 2 2 5 5 1 0 0 0 0 0 0 70 11 CI9 list_type0 0
 1 uI10 notransmit0 0 1 lCCCDCCDI12 finger_index0 0 1 dI12 finger_block1012 0 CZ
3 0 4 T1 0 0 1 20 1 6 6 11 255 4 3 0 1 7 8 1 9 0 0 0 12 33 CCCCCCI4 mesh1006 0 I
8 polyline1008 0 CCCCCCCDI5 owner1040 0 CCCCCCI13 boundary_mesh1006 0 I17 bounda
ry_polyline1008 0 CCCA16 index_map_offset0 0 1 dA9 index_map82 0 A17 node_id_ind
ex_map82 0 A20 schema_embedding_map82 0 A5 child12 0 A14 lowest_node_id0 0 1 dZ7
 660 10 11 0 0 0 0 0 0 1e3 1e-8 4 12 0 1 0 1 1 13 14 15 16 0 0 17 18 19 0 0 0 0
 0 0 100 255 8 4 4 0 0 1 0 0 0 1 0 0 0 1 0 0 0 1 0 ?11 9 1 0 1 12 20 1 0 4 0 0 1
2 12 680 21 22 0 0 0 0 0 0 1e3 1e-8 9 23 7 1 0 1 1 24 25 26 27 0 0 28 29 30 0 0
 0 0 0 0 100 20 2 9 0 0 1 0 0 0 1 0 0 0 1 0 0 0 1 0 ?81 1 21 680 31 12 32 0 0 0
 0 70 22 0 4 T12 0 0 4 20 1 33 33 13 255 24 374 0 12 0 34 0 0 35 0 51 255 25 355
 0 34 36 0 0 -.1620605 .051 .006 0 0 -1 .014 -1 0 0 30 255 26 373 0 29 37 0 0 +.
1620605 .065 .006 0 0 -1 29 255 27 266 0 38 39 0 .1760605 .051 0 19 8 CCCCCCCA5
 owner12 0 Z28 112 0 12 35 0 40 V0 16 255 29 301 0 ?41 0 42 26 0 0 12 18 255 30
 109 0 43 0 44 45 ?12 17 255 43 0 46 47 48 30 49 50 0 51 +18 44 106 0 48 30 52 5
3 ?12 29 45 111 0 30 53 54 .1760605 .051 .006 29 53 108 0 44 55 45 .1760605 -.02
852 .006 29 54 283 0 56 45 57 .1620605 .065 0 18 56 246 0 58 59 0 54 ?12 29 57 2
82 0 59 54 60 -.1620605 .065 0 18 59 245 0 61 62 56 57 ?12 29 60 281 0 62 57 63
 -.1760605 .051 0 18 62 244 0 64 65 59 60 ?12 29 63 280 0 65 60 66 -.1760605 -.0
2852 0 18 65 243 0 67 68 62 63 ?12 29 66 279 0 68 63 69 -.1690605 -.02852 0 18 6
8 242 0 70 71 65 66 ?12 29 69 278 0 71 66 72 -.1690605 .051 0 18 71 241 0 73 74
 68 69 ?12 29 72 277 0 74 69 75 -.1620605 .058 0 18 74 240 0 76 77 71 72 ?12 29
 75 276 0 77 72 78 -.001129054790478912 .058 0 18 77 239 0 79 80 74 75 ?12 29 78
 275 0 80 75 81 .00379161387839312 .0521128586069957 0 18 80 238 0 82 83 77 78 ?
12 29 81 274 0 83 78 84 .00250924521724552 .045 0 18 83 237 0 85 86 80 81 ?12 29
 84 273 0 86 81 87 .0067167457492797 .045 0 18 86 236 0 88 89 83 84 ?12 29 87 27
2 0 89 84 90 .00831899770440323 .0538871413930042 0 18 89 235 0 91 92 86 87 ?12
 29 90 271 0 92 87 93 .01323966637327526 .058 0 18 92 234 0 94 95 89 90 ?12 29 9
3 270 0 95 90 96 .1620605 .058 0 18 95 233 0 97 98 92 93 ?12 29 96 269 0 98 93 9
9 .1690605 .051 0 18 98 232 0 100 101 95 96 ?12 29 99 268 0 101 96 39 .1690605 -
.02852 0 18 101 231 0 102 103 98 99 ?12 29 39 267 0 103 99 27 .1760605 -.02852 0
 18 103 230 0 104 38 101 39 ?12 17 104 0 105 106 107 103 108 109 0 110 +18 38 22
9 0 111 112 103 27 ?12 17 111 0 113 51 110 38 114 115 0 116 +18 112 58 0 117 118
 38 119 ?12 17 117 0 120 41 121 112 122 123 0 47 -18 118 61 0 122 124 112 125 ?1
2 29 119 60 0 112 0 125 .1620605 .065 .006 29 125 63 0 118 119 126 -.1620605 .06
5 .006 29 126 66 0 124 125 127 -.1760605 .051 .006 18 124 64 0 128 129 118 126 ?
12 29 127 69 0 129 126 130 -.1760605 -.02852 .006 18 129 67 0 131 132 124 127 ?1
2 29 130 72 0 132 127 133 -.1690605 -.02852 .006 18 132 70 0 134 135 129 130 ?12
 29 133 75 0 135 130 136 -.1690605 .051 .006 18 135 73 0 137 138 132 133 ?12 29
 136 78 0 138 133 139 -.1620605 .058 .006 18 138 76 0 140 141 135 136 ?12 29 139
 81 0 141 136 142 -.001129054790478912 .058 .006 18 141 79 0 143 144 138 139 ?12
 29 142 84 0 144 139 145 .00379161387839312 .0521128586069957 .006 18 144 82 0 1
46 147 141 142 ?12 29 145 87 0 147 142 148 .00250924521724552 .045 .006 18 147 8
5 0 149 150 144 145 ?12 29 148 90 0 150 145 151 .0067167457492797 .045 .006 18 1
50 88 0 152 153 147 148 ?12 29 151 93 0 153 148 154 .00831899770440323 .05388714
13930042 .006 18 153 91 0 155 156 150 151 ?12 29 154 96 0 156 151 157 .013239666
37327526 .058 .006 18 156 94 0 158 159 153 154 ?12 29 157 99 0 159 154 160 .1620
605 .058 .006 18 159 97 0 161 162 156 157 ?12 29 160 102 0 162 157 55 .1690605 .
051 .006 18 162 100 0 163 52 159 160 ?12 29 55 105 0 52 160 53 .1690605 -.02852
 .006 18 52 103 0 164 44 162 55 ?12 17 164 0 46 48 163 52 165 166 0 167 +15 255
 46 3 0 47 168 0 17 48 0 46 43 164 44 169 170 0 106 +17 163 0 46 164 161 162 171
 172 0 173 +17 165 0 174 175 167 162 164 166 0 0 -16 166 49 0 ?164 170 172 176 0
 0 12 17 167 0 174 165 102 52 107 177 0 169 -15 174 306 0 102 178 0 17 102 0 174
 167 175 101 179 180 0 107 +17 107 0 105 104 169 101 167 177 0 108 +16 177 286 0
 ?107 181 182 183 0 0 12 17 169 0 105 107 106 52 48 170 0 0 -15 105 304 0 104 18
4 0 17 106 0 105 169 104 44 110 182 0 49 -16 170 52 0 ?48 50 166 185 0 0 12 16 5
0 55 0 ?43 186 170 187 0 0 12 30 185 53 0 170 176 187 0 +.1690605 -.02852 .006 1
 495635278850512e-30 0 30 176 50 0 166 188 185 0 +.1690605 .051 .006 0 -1 0 30 1
87 56 0 50 185 189 0 +.1760605 .051 .006 -698077857535939e-30 1 0 31 255 189 265
 0 190 187 191 0 +.1620605 .051 0 0 0 1 -1 0 0 .014 16 190 225 0 ?192 193 0 189
 0 0 12 30 191 264 0 193 189 194 0 +-.1620605 .065 0 -1 0 0 16 193 221 0 ?61 195
 190 191 0 0 12 31 194 263 0 195 191 196 0 +-.1620605 .051 0 0 0 1 1 0 0 .014 16
 195 217 0 ?64 197 193 194 0 0 12 30 196 262 0 197 194 198 0 +-.1760605 .051 0 0
 -1 0 16 197 213 0 ?67 199 195 196 0 0 12 30 198 261 0 199 196 200 0 +-.1760605
 -.02852 0 1 0 0 16 199 209 0 ?70 201 197 198 0 0 12 30 200 260 0 201 198 202 0
 +-.1690605 .051 0 0 1 0 16 201 205 0 ?73 203 199 200 0 0 12 31 202 259 0 203 20
0 204 0 +-.1620605 .051 0 0 0 -1 1 0 0 .007 16 203 201 0 ?76 205 201 202 0 0 12
 30 204 258 0 205 202 206 0 +-.1620605 .058 0 1 0 0 16 205 197 0 ?79 207 203 204
 0 0 12 31 206 257 0 207 204 208 0 +-.001129054790478872 .053 0 0 0 -1 1 0 0 .00
5 16 207 193 0 ?82 209 205 206 0 0 12 30 208 256 0 209 206 210 0 +.0037916138783
9312 .0521128586069957 0 -.177428278600846 -.984133733774399 0 16 209 189 0 ?85
 211 207 208 0 0 12 30 210 255 0 211 208 212 0 +.0067167457492797 .045 0 1 0 0 1
6 211 185 0 ?88 213 209 210 0 0 12 30 212 254 0 213 210 214 0 +.0083189977044032
3 .0538871413930042 0 .1774282786008455 .984133733774399 0 16 213 181 0 ?91 215
 211 212 0 0 12 31 214 253 0 215 212 216 0 +.01323966637327522 .053 0 0 0 -1 -1
 0 0 .005 16 215 177 0 ?94 217 213 214 0 0 12 30 216 252 0 217 214 218 0 +.01323
966637327526 .058 0 1 0 0 16 217 173 0 ?97 219 215 216 0 0 12 31 218 251 0 219 2
16 220 0 +.1620605 .051 0 0 0 -1 -1 0 0 .007 16 219 169 0 ?100 180 217 218 0 0 1
2 30 220 250 0 180 218 221 0 +.1690605 .051 0 0 -1 0 16 180 165 0 ?102 109 219 2
20 0 0 12 30 221 249 0 109 220 222 0 +.1690605 -.02852 0 1 495635278850512e-30 0
 16 109 161 0 ?104 115 180 221 0 0 12 30 222 248 0 115 221 223 0 +.1760605 .051
 0 -698077857535939e-30 1 0 16 115 157 0 ?111 224 109 222 0 0 12 30 223 356 0 18
6 222 225 0 +.1760605 .051 .006 0 0 -1 16 186 284 0 ?116 182 50 223 0 0 12 30 22
5 357 0 182 223 183 0 +.1760605 -.02852 .006 0 0 -1 16 182 285 0 ?110 177 186 22
5 0 0 12 30 183 358 0 177 225 226 0 +.1690605 -.02852 .006 0 0 -1 30 226 359 0 1
81 183 227 0 +.1690605 .051 .006 0 0 -1 16 181 287 0 ?175 228 177 226 0 0 12 30
 227 360 0 228 226 229 0 +.1620605 .058 .006 0 0 -1 16 228 288 0 ?230 231 181 22
7 0 0 12 30 229 361 0 231 227 232 0 +.01323966637327526 .058 .006 0 0 -1 16 231
 289 0 ?233 234 228 229 0 0 12 30 232 362 0 234 229 235 0 +.00831899770440323 .0
538871413930042 .006 0 0 -1 16 234 290 0 ?236 237 231 232 0 0 12 30 235 363 0 23
7 232 238 0 +.0067167457492797 .045 .006 0 0 -1 16 237 291 0 ?239 240 234 235 0
 0 12 30 238 364 0 240 235 241 0 +.00250924521724552 .045 .006 0 0 -1 16 240 292
 0 ?242 243 237 238 0 0 12 30 241 365 0 243 238 244 0 +.00379161387839312 .05211
28586069957 .006 0 0 -1 16 243 293 0 ?245 246 240 241 0 0 12 30 244 366 0 246 24
1 247 0 +-.001129054790478912 .058 .006 0 0 -1 16 246 294 0 ?248 249 243 244 0 0
 12 30 247 367 0 249 244 250 0 +-.1620605 .058 .006 0 0 -1 16 249 295 0 ?251 252
 246 247 0 0 12 30 250 368 0 252 247 253 0 +-.1690605 .051 .006 0 0 -1 16 252 29
6 0 ?254 255 249 250 0 0 12 30 253 369 0 255 250 256 0 +-.1690605 -.02852 .006 0
 0 -1 16 255 297 0 ?257 258 252 253 0 0 12 30 256 370 0 258 253 259 0 +-.1760605
 -.02852 .006 0 0 -1 16 258 298 0 ?260 261 255 256 0 0 12 30 259 371 0 261 256 3
7 0 +-.1760605 .051 .006 0 0 -1 16 261 299 0 ?262 42 258 259 0 0 12 30 37 372 0
 42 259 26 0 +-.1620605 .065 .006 0 0 -1 16 42 300 0 ?263 29 261 37 0 0 12 17 26
3 0 264 64 265 59 121 42 0 266 +15 264 332 0 64 267 0 17 64 0 264 268 263 62 266
 195 0 262 +17 265 0 264 263 268 118 128 269 0 0 -17 121 0 120 117 61 118 263 42
 0 265 -17 266 0 270 58 271 59 64 195 0 0 -15 270 156 0 272 273 0 17 58 0 270 27
2 266 56 61 193 0 41 -17 271 0 270 266 274 62 67 197 0 0 -17 274 0 270 271 275 6
5 70 199 0 0 -17 67 0 276 277 262 65 271 197 0 260 +15 276 330 0 67 278 0 17 277
 0 276 279 67 129 260 258 0 280 -17 262 0 276 67 279 62 268 261 0 271 +17 260 0
 281 70 280 65 277 258 0 274 +15 281 328 0 70 282 0 17 70 0 281 283 260 68 274 1
99 0 257 +17 280 0 281 260 283 129 134 284 0 0 -17 283 0 281 280 70 132 257 255
 0 285 -17 134 0 46 137 131 132 280 284 0 283 +16 284 16 0 ?134 286 287 288 0 0
 12 16 286 19 0 ?137 289 284 290 0 0 12 16 287 13 0 ?131 284 269 291 0 0 12 30 2
88 17 0 284 291 290 0 +-.1760605 -.02852 .006 1 0 0 30 291 14 0 287 292 288 0 +-
.1760605 .051 .006 0 -1 0 30 290 20 0 286 288 293 0 +-.1690605 .051 .006 0 1 0 3
1 293 23 0 289 290 294 0 +-.1620605 .051 .006 0 0 -1 1 0 0 .007 16 289 22 0 ?140
 295 286 293 0 0 12 30 294 26 0 295 293 296 0 +-.1620605 .058 .006 1 0 0 16 295
 25 0 ?143 297 289 294 0 0 12 31 296 29 0 297 294 298 0 +-.001129054790478872 .0
53 .006 0 0 -1 1 0 0 .005 16 297 28 0 ?146 299 295 296 0 0 12 30 298 32 0 299 29
6 300 0 +.00379161387839312 .0521128586069957 .006 -.177428278600846 -.984133733
774399 0 16 299 31 0 ?149 301 297 298 0 0 12 30 300 35 0 301 298 302 0 +.0067167
457492797 .045 .006 1 0 0 16 301 34 0 ?152 303 299 300 0 0 12 30 302 38 0 303 30
0 304 0 +.00831899770440323 .0538871413930042 .006 .1774282786008455 .9841337337
74399 0 16 303 37 0 ?155 305 301 302 0 0 12 31 304 41 0 305 302 306 0 +.01323966
637327522 .053 .006 0 0 -1 -1 0 0 .005 16 305 40 0 ?158 307 303 304 0 0 12 30 30
6 44 0 307 304 188 0 +.01323966637327526 .058 .006 1 0 0 16 307 43 0 ?161 172 30
5 306 0 0 12 31 188 47 0 172 306 176 0 +.1620605 .051 .006 0 0 -1 -1 0 0 .007 16
 172 46 0 ?163 166 307 188 0 0 12 17 161 0 46 163 158 159 308 307 0 309 +17 158
 0 46 161 155 156 310 305 0 311 +17 308 0 312 233 309 156 161 307 0 0 -17 309 0
 312 308 97 159 230 228 0 171 -15 312 310 0 97 313 0 17 97 0 312 309 233 95 314
 217 0 230 +17 230 0 315 100 171 95 309 228 0 316 +17 171 0 315 230 173 159 163
 172 0 0 -15 315 308 0 100 317 0 17 173 0 315 171 100 162 175 181 0 165 -17 100
 0 315 173 230 98 316 219 0 175 +17 175 0 174 102 165 98 173 181 0 179 +17 179 0
 270 316 108 98 102 180 0 0 -17 316 0 270 314 179 95 100 219 0 0 -17 108 0 270 1
79 114 101 104 109 0 0 -17 114 0 270 108 272 103 111 115 0 0 -17 272 0 270 114 5
8 38 192 190 0 0 -17 192 0 318 319 116 56 272 190 0 0 +15 318 336 0 192 34 0 17
 319 0 318 320 192 112 41 29 0 0 -17 116 0 318 192 320 38 51 186 0 272 +17 320 0
 318 116 319 30 47 224 0 0 -17 51 0 113 49 111 30 116 186 0 320 -15 113 302 0 11
1 321 0 17 49 0 113 110 51 44 43 50 0 0 -17 110 0 113 111 49 103 106 182 0 114 +
14 255 321 303 322 ?168 184 113 24 323 -0 0 168 184 40 81 1 322 660 324 321 325
 0 0 326 327 14 168 1 326 ?273 321 46 24 328 -0 0 273 321 40 14 184 305 329 ?321
 178 105 24 330 -0 0 321 178 40 50 255 323 338 0 321 331 330 0 +.1760605 .051 .0
06 -1 -698077857535939e-30 0 698077857535939e-30 -1 0 13 40 113 0 0 0 0 0 0 28 3
4 14 34 337 332 ?333 0 318 24 25 -0 0 333 0 40 81 1 332 663 324 34 334 0 329 335
 336 14 333 335 335 ?267 34 120 24 36 -0 0 267 34 40 81 1 335 664 324 333 337 0
 332 338 339 14 267 333 338 ?278 333 264 24 340 -0 0 278 333 40 15 120 334 0 61
 333 0 50 36 354 0 333 340 25 0 +-.1620605 .065 .006 0 -1 0 0 0 -1 51 340 353 0
 267 341 36 0 --.1620605 .051 .006 0 0 -1 .014 -1 0 0 50 341 352 0 278 342 340 0
 +-.1760605 .051 .006 1 0 0 0 0 -1 14 278 331 343 ?282 267 276 24 341 -0 0 282 2
67 40 50 342 351 0 282 344 341 0 +-.1760605 -.02852 .006 0 1 0 0 0 1 14 282 329
 345 ?346 278 281 24 342 -0 0 346 278 40 50 344 350 0 346 347 342 0 +-.1690605 .
051 .006 -1 0 0 0 0 1 14 346 327 348 ?349 282 350 24 344 -0 0 349 282 40 51 347
 349 0 349 351 344 0 +-.1620605 .051 .006 0 0 -1 .007 -1 0 0 14 349 325 352 ?353
 346 354 24 347 -0 0 353 346 40 50 351 348 0 353 355 347 0 +-.1620605 .058 .006
 0 1 0 0 0 1 14 353 323 356 ?357 349 358 24 351 -0 0 357 349 40 51 355 347 0 357
 359 351 0 +-.001129054790478872 .053 .006 0 0 -1 .005 -1 0 0 14 357 321 360 ?36
1 353 362 24 355 -0 0 361 353 40 50 359 346 0 361 363 355 0 +.00379161387839312
 .0521128586069957 .006 .9841337337744 -.177428278600846 0 .177428278600846 .984
1337337744 0 14 361 319 364 ?365 357 366 24 359 -0 0 365 357 40 50 363 345 0 365
 367 359 0 +.0067167457492797 .045 .006 0 1 0 0 0 1 14 365 317 368 ?369 361 370
 24 363 -0 0 369 361 40 50 367 344 0 369 371 363 0 +.00831899770440323 .05388714
13930042 .006 -.9841337337744 .1774282786008455 0 -.1774282786008455 -.984133733
7744 0 14 369 315 372 ?373 365 374 24 367 -0 0 373 365 40 51 371 343 0 373 375 3
67 0 +.01323966637327522 .053 .006 0 0 -1 .005 -1 0 0 14 373 313 376 ?313 369 37
7 24 371 -0 0 313 369 40 50 375 342 0 313 378 371 0 +.01323966637327526 .058 .00
6 0 1 0 0 0 1 14 313 311 379 ?317 373 312 24 375 -0 0 317 373 40 51 378 341 0 31
7 380 375 0 +.1620605 .051 .006 0 0 -1 .007 -1 0 0 14 317 309 381 ?178 313 315 2
4 378 -0 0 178 313 40 50 380 340 0 178 330 378 0 +.1690605 .051 .006 1 0 0 0 0 -
1 14 178 307 382 ?184 317 174 24 380 -0 0 184 317 40 50 330 339 0 184 323 380 0
 +.1690605 -.02852 .006 -495635278850512e-30 1 0 -1 -495635278850512e-30 0 81 1
 382 678 324 178 383 0 381 384 385 80 255 1 324 386 387 9000 1 1 1 1 1 1 1 1 0 F
FFFTFTFFFFFFF1 81 1 383 613 388 178 0 382 389 390 391 81 1 381 677 324 317 389 0
 379 382 392 81 1 384 679 324 273 393 0 382 0 394 82 255 1 385 1627521143 14 273
 155 384 ?0 168 270 24 331 +0 0 0 168 40 81 1 393 617 388 273 0 384 395 0 396 82
 1 394 1623326839 80 1 388 0 397 8001 0 0 0 0 3 5 0 0 0 FFFFTFTFFFFFFF2 81 1 395
 616 388 168 0 326 325 393 398 83 255 3 396 .792156862745098 .819607843137255 .9
33333333333333 81 1 326 661 324 168 395 0 322 329 399 81 1 325 615 388 321 0 322
 390 395 400 83 3 398 .792156862745098 .819607843137255 .933333333333333 81 1 39
0 614 388 184 0 329 383 325 401 83 3 400 .792156862745098 .819607843137255 .9333
33333333333 81 1 329 662 324 184 390 0 326 332 402 83 3 401 .792156862745098 .81
9607843137255 .933333333333333 82 1 402 1627258999 82 1 399 1601175671 79 255 15
 397 SDL/TYSA_COLOUR50 331 247 0 273 328 323 0 +.1620605 .051 0 0 0 -1 -1 0 0 50
 328 2 0 168 0 331 0 +.1620605 .051 .006 0 0 -1 -1 0 0 81 1 389 612 388 317 0 38
1 403 383 404 81 1 379 676 324 313 403 0 376 381 405 82 1 392 1627783287 81 1 40
3 611 388 313 0 379 406 389 407 81 1 376 675 324 373 406 0 372 379 408 82 1 405
 1628045431 81 1 406 610 388 373 0 376 409 403 410 81 1 372 674 324 369 409 0 36
8 376 411 82 1 408 1628307575 81 1 409 609 388 369 0 372 412 406 413 81 1 368 67
3 324 365 412 0 364 372 414 82 1 411 1628569719 81 1 412 608 388 365 0 368 415 4
09 416 81 1 364 672 324 361 415 0 360 368 417 82 1 414 1628831863 81 1 415 607 3
88 361 0 364 418 412 419 81 1 360 671 324 357 418 0 356 364 420 82 1 417 1629094
007 81 1 418 606 388 357 0 360 421 415 422 81 1 356 670 324 353 421 0 352 360 42
3 82 1 420 1629356151 81 1 421 605 388 353 0 356 424 418 425 81 1 352 669 324 34
9 424 0 348 356 426 82 1 423 1629618295 81 1 424 604 388 349 0 352 427 421 428 8
1 1 348 668 324 346 427 0 345 352 429 82 1 426 1629880439 81 1 427 603 388 346 0
 348 430 424 431 81 1 345 667 324 282 430 0 343 348 432 82 1 429 1630142583 81 1
 430 602 388 282 0 345 433 427 434 81 1 343 666 324 278 433 0 338 345 435 82 1 4
32 1630404727 81 1 433 601 388 278 0 343 436 430 437 81 1 338 665 324 267 436 0
 335 343 438 82 1 435 1630666871 81 1 436 600 388 267 0 338 337 433 439 82 1 438
 1630929015 81 1 337 599 388 333 0 335 334 436 440 83 3 439 .792156862745098 .81
9607843137255 .933333333333333 81 1 334 598 388 34 0 332 0 337 441 83 3 440 .792
156862745098 .819607843137255 .933333333333333 83 3 441 .792156862745098 .819607
843137255 .933333333333333 83 3 437 .792156862745098 .819607843137255 .933333333
333333 83 3 434 .792156862745098 .819607843137255 .933333333333333 83 3 431 .792
156862745098 .819607843137255 .933333333333333 83 3 428 .792156862745098 .819607
843137255 .933333333333333 83 3 425 .792156862745098 .819607843137255 .933333333
333333 83 3 422 .792156862745098 .819607843137255 .933333333333333 83 3 419 .792
156862745098 .819607843137255 .933333333333333 83 3 416 .792156862745098 .819607
843137255 .933333333333333 83 3 413 .792156862745098 .819607843137255 .933333333
333333 83 3 410 .792156862745098 .819607843137255 .933333333333333 83 3 407 .792
156862745098 .819607843137255 .933333333333333 83 3 404 .792156862745098 .819607
843137255 .933333333333333 83 3 391 .792156862745098 .819607843137255 .933333333
333333 79 14 387 SWEntUnchanged15 377 312 0 94 373 0 17 94 0 377 311 236 92 442
 215 0 233 +17 311 0 377 310 94 156 233 231 0 308 -17 236 0 377 94 310 89 443 23
4 0 442 +17 442 0 270 444 314 89 94 215 0 0 -17 233 0 312 97 308 92 311 231 0 31
4 +17 314 0 270 442 316 92 97 217 0 0 -17 444 0 270 445 442 86 91 213 0 0 -17 44
5 0 270 446 444 83 88 211 0 0 -17 91 0 374 443 239 89 444 213 0 236 +15 374 314
 0 91 369 0 17 443 0 374 447 91 153 236 234 0 310 -17 239 0 374 91 447 86 448 23
7 0 444 +17 447 0 374 239 443 150 155 303 0 0 -17 448 0 370 449 88 150 239 237 0
 447 -15 370 316 0 88 365 0 17 449 0 370 242 448 147 152 301 0 0 -17 88 0 370 44
8 242 86 445 211 0 239 +17 242 0 370 88 449 83 450 240 0 445 +17 450 0 366 451 8
5 147 242 240 0 449 -15 366 318 0 85 361 0 17 451 0 366 245 450 144 149 299 0 0
 -17 85 0 366 450 245 83 446 209 0 242 +17 245 0 366 85 451 80 452 243 0 446 +17
 446 0 270 453 445 80 85 209 0 0 -17 453 0 270 454 446 77 82 207 0 0 -17 454 0 2
70 455 453 74 79 205 0 0 -17 82 0 362 452 248 80 453 207 0 245 +15 362 320 0 82
 357 0 17 452 0 362 456 82 144 245 243 0 451 -17 248 0 362 82 456 77 457 246 0 4
53 +17 456 0 362 248 452 141 146 297 0 0 -17 457 0 358 458 79 141 248 246 0 456
 -15 358 322 0 79 353 0 17 458 0 358 251 457 138 143 295 0 0 -17 79 0 358 457 25
1 77 454 205 0 248 +17 251 0 358 79 458 74 459 249 0 454 +17 459 0 354 460 76 13
8 251 249 0 458 -15 354 324 0 76 349 0 17 460 0 354 254 459 135 140 289 0 0 -17
 76 0 354 459 254 74 455 203 0 251 +17 254 0 354 76 460 71 461 252 0 455 +17 455
 0 270 275 454 71 76 203 0 0 -17 275 0 270 274 455 68 73 201 0 0 -17 73 0 350 46
1 257 71 275 201 0 254 +15 350 326 0 73 346 0 17 461 0 350 285 73 135 254 252 0
 460 -17 257 0 350 73 285 68 283 255 0 275 +17 285 0 350 257 461 132 137 286 0 0
 -17 137 0 46 140 134 135 285 286 0 461 +17 140 0 46 143 137 138 460 289 0 459 +
17 143 0 46 146 140 141 458 295 0 457 +17 146 0 46 149 143 144 456 297 0 452 +17
 149 0 46 152 146 147 451 299 0 450 +17 152 0 46 155 149 150 449 301 0 448 +17 1
55 0 46 158 152 153 447 303 0 443 +17 310 0 377 236 311 153 158 305 0 0 -17 61 0
 120 121 41 59 58 193 0 263 +17 41 0 120 61 117 56 319 29 0 192 +82 1 339 163119
1159 82 1 336 1631453303 82 1 327 1626996855 17 47 0 46 122 43 112 320 224 0 319
 +16 224 4 0 ?47 123 115 462 0 0 12 16 123 7 0 ?122 269 224 463 0 0 12 31 462 5
 0 224 0 463 0 +.1620605 .051 .006 0 0 1 -1 0 0 .014 30 463 8 0 123 462 292 0 +-
.1620605 .065 .006 -1 0 0 31 292 11 0 269 463 291 0 +-.1620605 .051 .006 0 0 1 1
 0 0 .014 16 269 10 0 ?128 287 123 292 0 0 12 17 128 0 46 131 122 124 265 269 0
 268 +17 131 0 46 134 128 129 279 287 0 277 +17 122 0 46 128 47 118 117 123 0 12
1 +17 268 0 264 265 64 124 262 261 0 279 -17 279 0 276 262 277 124 131 287 0 0 -
19 35 375 0 12 0 28 24 S0 74 4 CI16 index_map_offset0 0 1 dCCZ20 33 4 0 0 384 32
 393 21 0 0 0 0 0 0 0 0 0 0 0 0 0 0 0 0 81 2 32 528 464 12 0 21 0 0 465 0 80 2 4
64 466 467 8004 0 0 0 0 3 5 0 0 0 FFTFFFFFFFFFFF2 3 83 1 465 1 79 16 467 SDL/TYS
A_DENSITY80 1 31 468 469 8017 0 0 0 0 0 0 0 0 0 TTTTTTTTTTTTTF3 79 13 469 SDL/TY
SA_NAME81 1 10 660 31 7 470 0 0 0 0 70 11 0 4 T7 0 0 4 20 1 471 471 13 13 374 0
 7 0 472 0 0 473 0 51 14 355 0 472 474 0 0 -.1620605 -.051 .006 0 0 -1 .014 -1 0
 0 30 15 373 0 18 475 0 0 +.1760605 -.051 .006 0 0 -1 29 16 266 0 476 477 0 .162
0605 -.065 0 19 17 112 0 7 473 0 478 V0 16 18 301 0 ?479 0 480 15 0 0 7 18 19 10
9 0 481 0 482 483 ?7 17 481 0 484 485 486 19 487 488 0 489 +18 482 106 0 486 19
 490 491 ?7 29 483 111 0 19 491 492 .1620605 -.065 .006 29 491 108 0 482 493 483
 -.1620605 -.065 .006 29 492 283 0 494 483 495 .1760605 -.051 0 18 494 246 0 496
 497 0 492 ?7 29 495 282 0 497 492 498 .1760605 -.03702 0 18 497 245 0 499 500 4
94 495 ?7 29 498 281 0 500 495 501 .1690605 -.03702 0 18 500 244 0 502 503 497 4
98 ?7 29 501 280 0 503 498 504 .1690605 -.051 0 18 503 243 0 505 506 500 501 ?7
 29 504 279 0 506 501 507 .1620605 -.058 0 18 506 242 0 508 509 503 504 ?7 29 50
7 278 0 509 504 510 -.00587094520952105 -.058 0 18 509 241 0 511 512 506 507 ?7
 29 510 277 0 512 507 513 -.0107916138783931 -.0521128586069957 0 18 512 240 0 5
14 515 509 510 ?7 29 513 276 0 515 510 516 -.00950924521724549 -.045 0 18 515 23
9 0 517 518 512 513 ?7 29 516 275 0 518 513 519 -.01371674574927966 -.045 0 18 5
18 238 0 520 521 515 516 ?7 29 519 274 0 521 516 522 -.0153189977044032 -.053887
1413930042 0 18 521 237 0 523 524 518 519 ?7 29 522 273 0 524 519 525 -.02023966
637327525 -.058 0 18 524 236 0 526 527 521 522 ?7 29 525 272 0 527 522 528 -.162
0605 -.058 0 18 527 235 0 529 530 524 525 ?7 29 528 271 0 530 525 531 -.1690605
 -.051 0 18 530 234 0 532 533 527 528 ?7 29 531 270 0 533 528 534 -.1690605 -.03
702 0 18 533 233 0 535 536 530 531 ?7 29 534 269 0 536 531 537 -.1760605 -.03702
 0 18 536 232 0 538 539 533 534 ?7 29 537 268 0 539 534 477 -.1760605 -.051 0 18
 539 231 0 540 541 536 537 ?7 29 477 267 0 541 537 16 -.1620605 -.065 0 18 541 2
30 0 542 476 539 477 ?7 17 542 0 543 544 545 541 546 547 0 548 +18 476 229 0 549
 550 541 16 ?7 17 549 0 551 489 548 476 552 553 0 554 +18 550 58 0 555 556 476 5
57 ?7 17 555 0 558 479 559 550 560 561 0 485 -18 556 61 0 560 562 550 563 ?7 29
 557 60 0 550 0 563 .1760605 -.051 .006 29 563 63 0 556 557 564 .1760605 -.03702
 .006 29 564 66 0 562 563 565 .1690605 -.03702 .006 18 562 64 0 566 567 556 564
 ?7 29 565 69 0 567 564 568 .1690605 -.051 .006 18 567 67 0 569 570 562 565 ?7 2
9 568 72 0 570 565 571 .1620605 -.058 .006 18 570 70 0 572 573 567 568 ?7 29 571
 75 0 573 568 574 -.00587094520952105 -.058 .006 18 573 73 0 575 576 570 571 ?7
 29 574 78 0 576 571 577 -.0107916138783931 -.0521128586069957 .006 18 576 76 0
 578 579 573 574 ?7 29 577 81 0 579 574 580 -.00950924521724549 -.045 .006 18 57
9 79 0 581 582 576 577 ?7 29 580 84 0 582 577 583 -.01371674574927966 -.045 .006
 18 582 82 0 584 585 579 580 ?7 29 583 87 0 585 580 586 -.0153189977044032 -.053
8871413930042 .006 18 585 85 0 587 588 582 583 ?7 29 586 90 0 588 583 589 -.0202
3966637327525 -.058 .006 18 588 88 0 590 591 585 586 ?7 29 589 93 0 591 586 592
 -.1620605 -.058 .006 18 591 91 0 593 594 588 589 ?7 29 592 96 0 594 589 595 -.1
690605 -.051 .006 18 594 94 0 596 597 591 592 ?7 29 595 99 0 597 592 598 -.16906
05 -.03702 .006 18 597 97 0 599 600 594 595 ?7 29 598 102 0 600 595 493 -.176060
5 -.03702 .006 18 600 100 0 601 490 597 598 ?7 29 493 105 0 490 598 491 -.176060
5 -.051 .006 18 490 103 0 602 482 600 493 ?7 17 602 0 484 486 601 490 603 604 0
 605 +15 484 3 0 485 606 0 17 486 0 484 481 602 482 607 608 0 544 +17 601 0 484
 602 599 600 609 610 0 611 +17 603 0 612 613 605 600 602 604 0 0 -16 604 49 0 ?6
02 608 610 614 0 0 7 17 605 0 612 603 540 490 545 615 0 607 -15 612 306 0 540 61
6 0 17 540 0 612 605 613 539 617 618 0 545 +17 545 0 543 542 607 539 605 615 0 5
46 +16 615 286 0 ?545 619 620 621 0 0 7 17 607 0 543 545 544 490 486 608 0 0 -15
 543 304 0 542 622 0 17 544 0 543 607 542 482 548 620 0 487 -16 608 52 0 ?486 48
8 604 623 0 0 7 16 488 55 0 ?481 624 608 625 0 0 7 31 623 53 0 608 614 625 0 +-.
1620605 -.051 .006 0 0 1 1 0 0 .014 30 614 50 0 604 626 623 0 +-.1760605 -.03702
 .006 3970754737572115e-30 -1 0 30 625 56 0 488 623 627 0 +-.1620605 -.065 .006
 1 0 0 31 627 265 0 628 625 629 0 +.1620605 -.051 0 0 0 1 1 0 0 .014 16 628 225
 0 ?630 631 0 627 0 0 7 30 629 264 0 631 627 632 0 +.1760605 -.03702 0 0 1 0 16
 631 221 0 ?499 633 628 629 0 0 7 30 632 263 0 633 629 634 0 +.1690605 -.03702 0
 -1 0 0 16 633 217 0 ?502 635 631 632 0 0 7 30 634 262 0 635 632 636 0 +.1690605
 -.03702 0 0 -1 0 16 635 213 0 ?505 637 633 634 0 0 7 31 636 261 0 637 634 638 0
 +.1620605 -.051 0 0 0 -1 1 0 0 .007 16 637 209 0 ?508 639 635 636 0 0 7 30 638
 260 0 639 636 640 0 +-.00587094520952105 -.058 0 -1 0 0 16 639 205 0 ?511 641 6
37 638 0 0 7 31 640 259 0 641 638 642 0 +-.00587094520952109 -.053 0 0 0 -1 1 0
 0 .005 16 641 201 0 ?514 643 639 640 0 0 7 30 642 258 0 643 640 644 0 +-.009509
24521724549 -.045 0 .177428278600846 .984133733774399 0 16 643 197 0 ?517 645 64
1 642 0 0 7 30 644 257 0 645 642 646 0 +-.01371674574927966 -.045 0 -1 0 0 16 64
5 193 0 ?520 647 643 644 0 0 7 30 646 256 0 647 644 648 0 +-.01371674574927966 -
.045 0 -.1774282786008455 -.9841337337744 0 16 647 189 0 ?523 649 645 646 0 0 7
 31 648 255 0 649 646 650 0 +-.0202396663732752 -.053 0 0 0 -1 -1 0 0 .005 16 64
9 185 0 ?526 651 647 648 0 0 7 30 650 254 0 651 648 652 0 +-.1620605 -.058 0 -1
 0 0 16 651 181 0 ?529 653 649 650 0 0 7 31 652 253 0 653 650 654 0 +-.1620605 -
.051 0 0 0 -1 1 0 0 .007 16 653 177 0 ?532 655 651 652 0 0 7 30 654 252 0 655 65
2 656 0 +-.1690605 -.03702 0 -198537736878605e-29 1 0 16 655 173 0 ?535 657 653
 654 0 0 7 30 656 251 0 657 654 658 0 +-.1760605 -.03702 0 -1 0 0 16 657 169 0 ?
538 618 655 656 0 0 7 30 658 250 0 618 656 659 0 +-.1760605 -.03702 0 3970754737
572115e-30 -1 0 16 618 165 0 ?540 547 657 658 0 0 7 31 659 249 0 547 658 660 0 +
-.1620605 -.051 0 0 0 1 1 0 0 .014 16 547 161 0 ?542 553 618 659 0 0 7 30 660 24
8 0 553 659 661 0 +-.1620605 -.065 0 1 0 0 16 553 157 0 ?549 662 547 660 0 0 7 3
0 661 356 0 624 660 663 0 +.1620605 -.065 .006 0 0 -1 16 624 284 0 ?554 620 488
 661 0 0 7 30 663 357 0 620 661 621 0 +-.1620605 -.065 .006 0 0 -1 16 620 285 0
 ?548 615 624 663 0 0 7 30 621 358 0 615 663 664 0 +-.1760605 -.051 .006 0 0 -1
 30 664 359 0 619 621 665 0 +-.1760605 -.03702 .006 0 0 -1 16 619 287 0 ?613 666
 615 664 0 0 7 30 665 360 0 666 664 667 0 +-.1690605 -.03702 .006 0 0 -1 16 666
 288 0 ?668 669 619 665 0 0 7 30 667 361 0 669 665 670 0 +-.1690605 -.051 .006 0
 0 -1 16 669 289 0 ?671 672 666 667 0 0 7 30 670 362 0 672 667 673 0 +-.1620605
 -.058 .006 0 0 -1 16 672 290 0 ?674 675 669 670 0 0 7 30 673 363 0 675 670 676
 0 +-.02023966637327525 -.058 .006 0 0 -1 16 675 291 0 ?677 678 672 673 0 0 7 30
 676 364 0 678 673 679 0 +-.0153189977044032 -.0538871413930042 .006 0 0 -1 16 6
78 292 0 ?680 681 675 676 0 0 7 30 679 365 0 681 676 682 0 +-.01371674574927966
 -.045 .006 0 0 -1 16 681 293 0 ?683 684 678 679 0 0 7 30 682 366 0 684 679 685
 0 +-.00950924521724549 -.045 .006 0 0 -1 16 684 294 0 ?686 687 681 682 0 0 7 30
 685 367 0 687 682 688 0 +-.0107916138783931 -.0521128586069957 .006 0 0 -1 16 6
87 295 0 ?689 690 684 685 0 0 7 30 688 368 0 690 685 691 0 +-.00587094520952105
 -.058 .006 0 0 -1 16 690 296 0 ?692 693 687 688 0 0 7 30 691 369 0 693 688 694
 0 +.1620605 -.058 .006 0 0 -1 16 693 297 0 ?695 696 690 691 0 0 7 30 694 370 0
 696 691 697 0 +.1690605 -.051 .006 0 0 -1 16 696 298 0 ?698 699 693 694 0 0 7 3
0 697 371 0 699 694 475 0 +.1690605 -.03702 .006 0 0 -1 16 699 299 0 ?700 480 69
6 697 0 0 7 30 475 372 0 480 697 15 0 +.1760605 -.03702 .006 0 0 -1 16 480 300 0
 ?701 18 699 475 0 0 7 17 701 0 702 502 703 497 559 480 0 704 +15 702 332 0 502
 705 0 17 502 0 702 706 701 500 704 633 0 700 +17 703 0 702 701 706 556 566 707
 0 0 -17 559 0 558 555 499 556 701 480 0 703 -17 704 0 708 496 709 497 502 633 0
 0 -15 708 156 0 710 711 0 17 496 0 708 710 704 494 499 631 0 479 -17 709 0 708
 704 712 500 505 635 0 0 -17 712 0 708 709 713 503 508 637 0 0 -17 505 0 714 715
 700 503 709 635 0 698 +15 714 330 0 505 716 0 17 715 0 714 717 505 567 698 696
 0 718 -17 700 0 714 505 717 500 706 699 0 709 +17 698 0 719 508 718 503 715 696
 0 712 +15 719 328 0 508 720 0 17 508 0 719 721 698 506 712 637 0 695 +17 718 0
 719 698 721 567 572 722 0 0 -17 721 0 719 718 508 570 695 693 0 723 -17 572 0 4
84 575 569 570 718 722 0 721 +16 722 16 0 ?572 724 725 726 0 0 7 16 724 19 0 ?57
5 727 722 728 0 0 7 16 725 13 0 ?569 722 707 729 0 0 7 31 726 17 0 722 729 728 0
 +.1620605 -.051 .006 0 0 -1 1 0 0 .007 30 729 14 0 725 730 726 0 +.1690605 -.03
702 .006 0 -1 0 30 728 20 0 724 726 731 0 +-.00587094520952105 -.058 .006 -1 0 0
 31 731 23 0 727 728 732 0 +-.00587094520952109 -.053 .006 0 0 -1 1 0 0 .005 16
 727 22 0 ?578 733 724 731 0 0 7 30 732 26 0 733 731 734 0 +-.00950924521724549
 -.045 .006 .177428278600846 .984133733774399 0 16 733 25 0 ?581 735 727 732 0 0
 7 30 734 29 0 735 732 736 0 +-.01371674574927966 -.045 .006 -1 0 0 16 735 28 0
 ?584 737 733 734 0 0 7 30 736 32 0 737 734 738 0 +-.01371674574927966 -.045 .00
6 -.1774282786008455 -.9841337337744 0 16 737 31 0 ?587 739 735 736 0 0 7 31 738
 35 0 739 736 740 0 +-.0202396663732752 -.053 .006 0 0 -1 -1 0 0 .005 16 739 34
 0 ?590 741 737 738 0 0 7 30 740 38 0 741 738 742 0 +-.1620605 -.058 .006 -1 0 0
 16 741 37 0 ?593 743 739 740 0 0 7 31 742 41 0 743 740 744 0 +-.1620605 -.051 .
006 0 0 -1 1 0 0 .007 16 743 40 0 ?596 745 741 742 0 0 7 30 744 44 0 745 742 626
 0 +-.1690605 -.03702 .006 -198537736878605e-29 1 0 16 745 43 0 ?599 610 743 744
 0 0 7 30 626 47 0 610 744 614 0 +-.1760605 -.03702 .006 -1 0 0 16 610 46 0 ?601
 604 745 626 0 0 7 17 599 0 484 601 596 597 746 745 0 747 +17 596 0 484 599 593
 594 748 743 0 749 +17 746 0 750 671 747 594 599 745 0 0 -17 747 0 750 746 535 5
97 668 666 0 609 -15 750 310 0 535 751 0 17 535 0 750 747 671 533 752 655 0 668
 +17 668 0 753 538 609 533 747 666 0 754 +17 609 0 753 668 611 597 601 610 0 0 -
15 753 308 0 538 755 0 17 611 0 753 609 538 600 613 619 0 603 -17 538 0 753 611
 668 536 754 657 0 613 +17 613 0 612 540 603 536 611 619 0 617 +17 617 0 708 754
 546 536 540 618 0 0 -17 754 0 708 752 617 533 538 657 0 0 -17 546 0 708 617 552
 539 542 547 0 0 -17 552 0 708 546 710 541 549 553 0 0 -17 710 0 708 552 496 476
 630 628 0 0 -17 630 0 756 757 554 494 710 628 0 0 +15 756 336 0 630 472 0 17 75
7 0 756 758 630 550 479 18 0 0 -17 554 0 756 630 758 476 489 624 0 710 +17 758 0
 756 554 757 19 485 662 0 0 -17 489 0 551 487 549 19 554 624 0 758 -15 551 302 0
 549 759 0 17 487 0 551 548 489 482 481 488 0 0 -17 548 0 551 549 487 541 544 62
0 0 552 +14 759 303 760 ?606 622 551 13 761 -0 0 606 622 478 81 1 760 640 324 75
9 762 0 0 763 764 14 606 1 763 ?711 759 484 13 765 +0 0 711 759 478 14 622 305 7
66 ?759 616 543 13 767 -0 0 759 616 478 50 761 338 0 759 768 767 0 +-.1620605 -.
065 .006 0 1 0 0 0 1 13 478 113 0 0 0 0 0 0 17 472 14 472 337 769 ?770 0 756 13
 14 -0 0 770 0 478 81 1 769 643 324 472 771 0 766 772 773 14 770 335 772 ?705 47
2 558 13 474 -0 0 705 472 478 81 1 772 644 324 770 774 0 769 775 776 14 705 333
 775 ?716 770 702 13 777 -0 0 716 770 478 15 558 334 0 499 770 0 50 474 354 0 77
0 777 14 0 +.1760605 -.03702 .006 -1 0 0 0 0 1 50 777 353 0 705 778 474 0 +.1690
605 -.03702 .006 0 -1 0 0 0 -1 50 778 352 0 716 779 777 0 +.1690605 -.03702 .006
 1 0 0 0 0 -1 14 716 331 780 ?720 705 714 13 778 -0 0 720 705 478 51 779 351 0 7
20 781 778 0 +.1620605 -.051 .006 0 0 -1 .007 -1 0 0 14 720 329 782 ?783 716 719
 13 779 -0 0 783 716 478 50 781 350 0 783 784 779 0 +-.00587094520952105 -.058 .
006 0 -1 0 0 0 -1 14 783 327 785 ?786 720 787 13 781 -0 0 786 720 478 51 784 349
 0 786 788 781 0 +-.00587094520952109 -.053 .006 0 0 -1 .005 -1 0 0 14 786 325 7
89 ?790 783 791 13 784 -0 0 790 783 478 50 788 348 0 790 792 784 0 +-.0095092452
1724549 -.045 .006 -.9841337337744 .177428278600846 0 -.177428278600846 -.984133
7337744 0 14 790 323 793 ?794 786 795 13 788 -0 0 794 786 478 50 792 347 0 794 7
96 788 0 +-.01371674574927966 -.045 .006 0 -1 0 0 0 -1 14 794 321 797 ?798 790 7
99 13 792 -0 0 798 790 478 50 796 346 0 798 800 792 0 +-.01371674574927966 -.045
 .006 .984133733774399 -.1774282786008455 0 .1774282786008455 .9841337337744 0 1
4 798 319 801 ?802 794 803 13 796 -0 0 802 794 478 51 800 345 0 802 804 796 0 +-
.0202396663732752 -.053 .006 0 0 -1 .005 -1 0 0 14 802 317 805 ?806 798 807 13 8
00 -0 0 806 798 478 50 804 344 0 806 808 800 0 +-.1620605 -.058 .006 0 -1 0 0 0
 -1 14 806 315 809 ?810 802 811 13 804 -0 0 810 802 478 51 808 343 0 810 812 804
 0 +-.1620605 -.051 .006 0 0 -1 .007 -1 0 0 14 810 313 813 ?751 806 814 13 808 -
0 0 751 806 478 50 812 342 0 751 815 808 0 +-.1690605 -.03702 .006 -1 -198537736
878605e-29 0 198537736878605e-29 -1 0 14 751 311 816 ?755 810 750 13 812 -0 0 75
5 810 478 50 815 341 0 755 817 812 0 +-.1760605 -.03702 .006 0 -1 0 0 0 -1 14 75
5 309 818 ?616 751 753 13 815 -0 0 616 751 478 50 817 340 0 616 767 815 0 +-.176
0605 -.03702 .006 1 3970754737572115e-30 0 -3970754737572115e-30 1 0 14 616 307
 819 ?622 755 612 13 817 -0 0 622 755 478 51 767 339 0 622 761 817 0 --.1620605
 -.051 .006 0 0 -1 .014 -1 0 0 81 1 819 658 324 616 820 0 818 821 822 81 1 820 5
93 388 616 0 819 823 824 825 81 1 818 657 324 755 823 0 816 819 826 81 1 821 659
 324 711 827 0 819 0 828 82 1 822 1672282231 14 711 155 821 ?0 606 708 13 768 -0
 0 0 606 478 81 1 827 597 388 711 0 821 829 0 830 82 1 828 1668087927 81 1 829 5
96 388 606 0 763 762 827 831 83 3 830 .792156862745098 .819607843137255 .9333333
33333333 81 1 763 641 324 606 829 0 760 766 832 81 1 762 595 388 759 0 760 824 8
29 833 83 3 831 .792156862745098 .819607843137255 .933333333333333 81 1 824 594
 388 622 0 766 820 762 834 83 3 833 .792156862745098 .819607843137255 .933333333
333333 81 1 766 642 324 622 824 0 763 769 835 83 3 834 .792156862745098 .8196078
43137255 .933333333333333 82 1 835 1672020087 82 1 832 1645936759 50 768 247 0 7
11 765 761 0 +.1620605 -.051 0 0 0 1 1 0 0 50 765 2 0 606 0 768 0 +.1620605 -.05
1 .006 0 0 1 1 0 0 81 1 823 592 388 755 0 818 836 820 837 81 1 816 656 324 751 8
36 0 813 818 838 82 1 826 1672544375 81 1 836 591 388 751 0 816 839 823 840 81 1
 813 655 324 810 839 0 809 816 841 82 1 838 1672806519 81 1 839 590 388 810 0 81
3 842 836 843 81 1 809 654 324 806 842 0 805 813 844 82 1 841 1673068663 81 1 84
2 589 388 806 0 809 845 839 846 81 1 805 653 324 802 845 0 801 809 847 82 1 844
 1673330807 81 1 845 588 388 802 0 805 848 842 849 81 1 801 652 324 798 848 0 79
7 805 850 82 1 847 1673592951 81 1 848 587 388 798 0 801 851 845 852 81 1 797 65
1 324 794 851 0 793 801 853 82 1 850 1673855095 81 1 851 586 388 794 0 797 854 8
48 855 81 1 793 650 324 790 854 0 789 797 856 82 1 853 1674117239 81 1 854 585 3
88 790 0 793 857 851 858 81 1 789 649 324 786 857 0 785 793 859 82 1 856 1674379
383 81 1 857 584 388 786 0 789 860 854 861 81 1 785 648 324 783 860 0 782 789 86
2 82 1 859 1674641527 81 1 860 583 388 783 0 785 863 857 864 81 1 782 647 324 72
0 863 0 780 785 865 82 1 862 1674903671 81 1 863 582 388 720 0 782 866 860 867 8
1 1 780 646 324 716 866 0 775 782 868 82 1 865 1675165815 81 1 866 581 388 716 0
 780 869 863 870 81 1 775 645 324 705 869 0 772 780 871 82 1 868 1675427959 81 1
 869 580 388 705 0 775 774 866 872 82 1 871 1675690103 81 1 774 579 388 770 0 77
2 771 869 873 83 3 872 .792156862745098 .819607843137255 .933333333333333 81 1 7
71 578 388 472 0 769 0 774 874 83 3 873 .792156862745098 .819607843137255 .93333
3333333333 83 3 874 .792156862745098 .819607843137255 .933333333333333 83 3 870
 .792156862745098 .819607843137255 .933333333333333 83 3 867 .792156862745098 .8
19607843137255 .933333333333333 83 3 864 .792156862745098 .819607843137255 .9333
33333333333 83 3 861 .792156862745098 .819607843137255 .933333333333333 83 3 858
 .792156862745098 .819607843137255 .933333333333333 83 3 855 .792156862745098 .8
19607843137255 .933333333333333 83 3 852 .792156862745098 .819607843137255 .9333
33333333333 83 3 849 .792156862745098 .819607843137255 .933333333333333 83 3 846
 .792156862745098 .819607843137255 .933333333333333 83 3 843 .792156862745098 .8
19607843137255 .933333333333333 83 3 840 .792156862745098 .819607843137255 .9333
33333333333 83 3 837 .792156862745098 .819607843137255 .933333333333333 83 3 825
 .792156862745098 .819607843137255 .933333333333333 15 814 312 0 532 810 0 17 53
2 0 814 749 674 530 875 653 0 671 +17 749 0 814 748 532 594 671 669 0 746 -17 67
4 0 814 532 748 527 876 672 0 875 +17 875 0 708 877 752 527 532 653 0 0 -17 671
 0 750 535 746 530 749 669 0 752 +17 752 0 708 875 754 530 535 655 0 0 -17 877 0
 708 878 875 524 529 651 0 0 -17 878 0 708 879 877 521 526 649 0 0 -17 529 0 811
 876 677 527 877 651 0 674 +15 811 314 0 529 806 0 17 876 0 811 880 529 591 674
 672 0 748 -17 677 0 811 529 880 524 881 675 0 877 +17 880 0 811 677 876 588 593
 741 0 0 -17 881 0 807 882 526 588 677 675 0 880 -15 807 316 0 526 802 0 17 882
 0 807 680 881 585 590 739 0 0 -17 526 0 807 881 680 524 878 649 0 677 +17 680 0
 807 526 882 521 883 678 0 878 +17 883 0 803 884 523 585 680 678 0 882 -15 803 3
18 0 523 798 0 17 884 0 803 683 883 582 587 737 0 0 -17 523 0 803 883 683 521 87
9 647 0 680 +17 683 0 803 523 884 518 885 681 0 879 +17 879 0 708 886 878 518 52
3 647 0 0 -17 886 0 708 887 879 515 520 645 0 0 -17 887 0 708 888 886 512 517 64
3 0 0 -17 520 0 799 885 686 518 886 645 0 683 +15 799 320 0 520 794 0 17 885 0 7
99 889 520 582 683 681 0 884 -17 686 0 799 520 889 515 890 684 0 886 +17 889 0 7
99 686 885 579 584 735 0 0 -17 890 0 795 891 517 579 686 684 0 889 -15 795 322 0
 517 790 0 17 891 0 795 689 890 576 581 733 0 0 -17 517 0 795 890 689 515 887 64
3 0 686 +17 689 0 795 517 891 512 892 687 0 887 +17 892 0 791 893 514 576 689 68
7 0 891 -15 791 324 0 514 786 0 17 893 0 791 692 892 573 578 727 0 0 -17 514 0 7
91 892 692 512 888 641 0 689 +17 692 0 791 514 893 509 894 690 0 888 +17 888 0 7
08 713 887 509 514 641 0 0 -17 713 0 708 712 888 506 511 639 0 0 -17 511 0 787 8
94 695 509 713 639 0 692 +15 787 326 0 511 783 0 17 894 0 787 723 511 573 692 69
0 0 893 -17 695 0 787 511 723 506 721 693 0 713 +17 723 0 787 695 894 570 575 72
4 0 0 -17 575 0 484 578 572 573 723 724 0 894 +17 578 0 484 581 575 576 893 727
 0 892 +17 581 0 484 584 578 579 891 733 0 890 +17 584 0 484 587 581 582 889 735
 0 885 +17 587 0 484 590 584 585 884 737 0 883 +17 590 0 484 593 587 588 882 739
 0 881 +17 593 0 484 596 590 591 880 741 0 876 +17 748 0 814 674 749 591 596 743
 0 0 -17 499 0 558 559 479 497 496 631 0 701 +17 479 0 558 499 555 494 757 18 0
 630 +82 1 776 1675952247 82 1 773 1676214391 82 1 764 1671757943 17 485 0 484 5
60 481 550 758 662 0 757 +16 662 4 0 ?485 561 553 895 0 0 7 16 561 7 0 ?560 707
 662 896 0 0 7 31 895 5 0 662 0 896 0 +.1620605 -.051 .006 0 0 1 1 0 0 .014 30 8
96 8 0 561 895 730 0 +.1760605 -.03702 .006 0 1 0 30 730 11 0 707 896 729 0 +.16
90605 -.03702 .006 -1 0 0 16 707 10 0 ?566 725 561 730 0 0 7 17 566 0 484 569 56
0 562 703 707 0 706 +17 569 0 484 572 566 567 717 725 0 715 +17 560 0 484 566 48
5 556 555 561 0 559 +17 706 0 702 703 502 562 700 699 0 717 -17 717 0 714 700 71
5 562 569 725 0 0 -19 473 375 0 7 0 17 13 S0 74 20 471 4 0 0 821 470 827 10 0 0
 0 0 0 0 0 0 0 0 0 0 0 0 0 0 81 2 470 510 464 7 0 10 0 0 897 0 83 1 897 1 74 20
 6 1 0 0 2 0 0 0 0 0 0 0 0 0 0 0 0 0 0 0 0 0 0 0 80 2 5 898 899 9000 0 0 0 0 3 5
 0 0 0 TFFFFFFFFFFFFF9 1 79 18 899 MULTI_BODY_ID_20011 0 
