**ABCDEFGHIJKLMNOPQRSTUVWXYZabcdefghijklmnopqrstuvwxyz**************************
**PARASOLID !"#$%&'()*+,-./:;<=>?@[\]^_`{|}~0123456789**************************
**PART1;
MC=AMD64;
MC_MODEL=Intel64 Family 6 Model 158 Stepping 10, GenuineIntel;
MC_ID=unknown;
OS=Windows_NT;
OS_RELEASE=unknown;
FRU=Parasolid Version 30.0, build 226,  7-26-2017;
APPL=SOLIDWORKS 2018-2017278;
SITE=;
USER=unknown;
FORMAT=text;
GUISE=transmit;
KEY=Cruz capa 2;
FILE=Cruz capa 2.x_t;
DATE=Thu Jun  6 12:28:21 2019;
**PART2;
SCH=SCH_3000226_30000;
USFLD_SIZE=0;
**PART3;
**END_OF_HEADER*****************************************************************
T51 : TRANSMIT FILE created by modeller version 300022623 SCH_3000226_30000_1300
6205 0 12 33 CCCCCCI4 mesh1006 0 I8 polyline1008 0 CCCCCCCDI5 owner1040 0 CCCCCC
I13 boundary_mesh1006 0 I17 boundary_polyline1008 0 CCCA16 index_map_offset0 0 1
 dA9 index_map82 0 A17 node_id_index_map82 0 A20 schema_embedding_map82 0 A5 chi
ld12 0 A14 lowest_node_id0 0 1 dZ1 2541 2 3 0 0 0 0 0 0 1e3 1e-8 0 4 0 1 0 1 1 5
 6 7 8 0 0 9 10 11 0 0 0 0 0 0 81 255 2 2 1781 12 1 0 0 0 0 13 0 70 11 CI9 list_
type0 0 1 uI10 notransmit0 0 1 lCCCDCCDI12 finger_index0 0 1 dI12 finger_block10
12 0 CZ3 0 4 T1 0 0 3 20 1 14 14 13 255 5 414 0 1 0 15 0 0 16 0 51 255 6 393 0 1
7 18 0 0 --.283764 .113764 .006 0 0 -1 .018736 -1 0 0 30 255 7 413 0 10 19 0 0 +
-.3025 .113764 .006 0 0 -1 29 255 8 577 0 11 20 0 -.1085 .2785 .006 19 8 CCCCCCC
A5 owner12 0 Z9 124 0 1 16 0 21 V0 16 255 10 333 0 ?22 0 23 7 0 0 1 18 255 11 57
5 0 24 0 25 8 ?1 17 255 24 0 26 27 28 11 29 30 0 31 -18 25 462 0 32 11 33 20 ?1
 17 32 0 34 35 36 25 37 38 0 39 -18 33 121 0 40 25 41 42 ?1 29 20 464 0 25 43 8
 -.1225 .2785 0 29 43 294 0 44 45 20 -.283764 .1325 0 18 44 253 0 46 47 48 43 ?1
 29 45 295 0 48 49 43 -.1325 .1325 0 18 48 254 0 50 44 51 45 ?1 29 49 296 0 51 5
2 45 -.1325 .283764 0 18 51 255 0 53 48 54 49 ?1 29 52 297 0 54 55 49 -.113764 .
3025 0 18 54 256 0 56 51 57 52 ?1 29 55 298 0 57 58 52 .113764 .3025 0 18 57 257
 0 59 54 60 55 ?1 29 58 299 0 60 61 55 .1325 .283764 0 18 60 258 0 62 57 63 58 ?
1 29 61 300 0 63 64 58 .1325 .1325 0 18 63 259 0 65 60 66 61 ?1 29 64 301 0 66 6
7 61 .283764 .1325 0 18 66 260 0 68 63 69 64 ?1 29 67 302 0 69 70 64 .3025 .1137
64 0 18 69 261 0 71 66 72 67 ?1 29 70 303 0 72 73 67 .3025 -.113764 0 18 72 262
 0 74 69 75 70 ?1 29 73 304 0 75 76 70 .283764 -.1325 0 18 75 263 0 77 72 78 73
 ?1 29 76 305 0 78 79 73 .1325 -.1325 0 18 78 264 0 80 75 81 76 ?1 29 79 306 0 8
1 82 76 .1325 -.283764 0 18 81 265 0 83 78 84 79 ?1 29 82 307 0 84 85 79 .113764
 -.3025 0 18 84 266 0 86 81 87 82 ?1 29 85 308 0 87 88 82 -.113764 -.3025 0 18 8
7 267 0 89 84 90 85 ?1 29 88 309 0 90 91 85 -.1325 -.283764 0 18 90 268 0 92 87
 93 88 ?1 29 91 310 0 93 94 88 -.1325 -.1325 0 18 93 269 0 95 90 96 91 ?1 29 94
 311 0 96 97 91 -.283764 -.1325 0 18 96 270 0 98 93 99 94 ?1 29 97 312 0 99 100
 94 -.3025 -.113764 0 18 99 271 0 101 96 102 97 ?1 29 100 313 0 102 42 97 -.3025
 .113764 0 18 102 272 0 103 99 104 100 ?1 29 42 123 0 33 105 100 -.283764 .1325
 .006 29 105 120 0 41 106 42 -.1325 .1325 .006 18 41 118 0 107 33 108 105 ?1 29
 106 117 0 108 109 105 -.1325 .283764 .006 18 108 115 0 110 41 111 106 ?1 29 109
 114 0 111 112 106 -.113764 .3025 .006 18 111 112 0 113 108 114 109 ?1 29 112 11
1 0 114 115 109 .113764 .3025 .006 18 114 109 0 116 111 117 112 ?1 29 115 108 0
 117 118 112 .1325 .283764 .006 18 117 106 0 119 114 120 115 ?1 29 118 105 0 120
 121 115 .1325 .1325 .006 18 120 103 0 122 117 123 118 ?1 29 121 102 0 123 124 1
18 .283764 .1325 .006 18 123 100 0 125 120 126 121 ?1 29 124 99 0 126 127 121 .3
025 .113764 .006 18 126 97 0 128 123 129 124 ?1 29 127 96 0 129 130 124 .3025 -.
113764 .006 18 129 94 0 131 126 132 127 ?1 29 130 93 0 132 133 127 .283764 -.132
5 .006 18 132 91 0 134 129 135 130 ?1 29 133 90 0 135 136 130 .1325 -.1325 .006
 18 135 88 0 137 132 138 133 ?1 29 136 87 0 138 139 133 .1325 -.283764 .006 18 1
38 85 0 140 135 141 136 ?1 29 139 84 0 141 142 136 .113764 -.3025 .006 18 141 82
 0 143 138 144 139 ?1 29 142 81 0 144 145 139 -.113764 -.3025 .006 18 144 79 0 1
46 141 147 142 ?1 29 145 78 0 147 148 142 -.1325 -.283764 .006 18 147 76 0 149 1
44 150 145 ?1 29 148 75 0 150 151 145 -.1325 -.1325 .006 18 150 73 0 152 147 153
 148 ?1 29 151 72 0 153 154 148 -.283764 -.1325 .006 18 153 70 0 155 150 156 151
 ?1 29 154 69 0 156 157 151 -.3025 -.113764 .006 18 156 67 0 158 153 47 154 ?1 2
9 157 66 0 47 159 154 -.3025 .113764 .006 18 47 64 0 160 156 44 157 ?1 29 159 11
79 0 161 162 157 -.1085 .2785 0 18 161 914 0 29 163 164 159 ?1 29 162 1180 0 164
 165 159 -.1085 .2925 0 18 164 913 0 166 161 167 162 ?1 29 165 1181 0 167 168 16
2 .1085 .2925 0 18 167 912 0 169 164 170 165 ?1 29 168 1182 0 170 171 165 .1085
 .2785 0 18 170 911 0 172 167 173 168 ?1 29 171 1183 0 173 174 168 .1225 .2785 0
 18 173 910 0 175 170 176 171 ?1 29 174 1184 0 176 177 171 .1225 .1225 0 18 176
 909 0 178 173 179 174 ?1 29 177 1185 0 179 180 174 .2785 .1225 0 18 179 908 0 1
81 176 182 177 ?1 29 180 1186 0 182 183 177 .2785 .1085 0 18 182 907 0 184 179 1
85 180 ?1 29 183 1187 0 185 186 180 .2925 .1085 0 18 185 906 0 187 182 188 183 ?
1 29 186 1188 0 188 189 183 .2925 -.1085 0 18 188 905 0 190 185 191 186 ?1 29 18
9 1189 0 191 192 186 .2785 -.1085 0 18 191 904 0 193 188 194 189 ?1 29 192 1190
 0 194 195 189 .2785 -.1225 0 18 194 903 0 196 191 197 192 ?1 29 195 1191 0 197
 198 192 .1225 -.1225 0 18 197 902 0 199 194 200 195 ?1 29 198 1192 0 200 201 19
5 .1225 -.2785 0 18 200 901 0 202 197 203 198 ?1 29 201 1193 0 203 204 198 .1085
 -.2785 0 18 203 900 0 205 200 206 201 ?1 29 204 1194 0 206 207 201 .1085 -.2925
 0 18 206 899 0 208 203 209 204 ?1 29 207 1195 0 209 210 204 -.1085 -.2925 0 18
 209 898 0 211 206 212 207 ?1 29 210 1196 0 212 213 207 -.1085 -.2785 0 18 212 8
97 0 214 209 215 210 ?1 29 213 1197 0 215 216 210 -.1225 -.2785 0 18 215 896 0 2
17 212 218 213 ?1 29 216 1198 0 218 219 213 -.1225 -.1225 0 18 218 895 0 220 215
 221 216 ?1 29 219 1199 0 221 222 216 -.2785 -.1225 0 18 221 894 0 223 218 224 2
19 ?1 29 222 1200 0 224 225 219 -.2785 -.1085 0 18 224 893 0 226 221 227 222 ?1
 29 225 1201 0 227 228 222 -.2925 -.1085 0 18 227 892 0 229 224 230 225 ?1 29 22
8 1202 0 230 231 225 -.2925 .1085 0 18 230 891 0 232 227 233 228 ?1 29 231 1203
 0 233 234 228 -.2785 .1085 0 18 233 890 0 235 230 236 231 ?1 29 234 1204 0 236
 237 231 -.2785 .1225 0 18 236 888 0 238 233 239 234 ?1 29 237 1205 0 239 240 23
4 -.1225 .1225 0 18 239 943 0 241 236 0 237 ?1 29 240 1206 0 104 242 237 -.1225
 .2785 .006 18 104 942 0 27 102 243 240 ?1 29 242 1208 0 243 244 240 -.1085 .292
5 .006 18 243 940 0 245 104 246 242 ?1 29 244 1209 0 246 247 242 .1085 .2925 .00
6 18 246 939 0 248 243 249 244 ?1 29 247 1210 0 249 250 244 .1085 .2785 .006 18
 249 938 0 251 246 252 247 ?1 29 250 1211 0 252 253 247 .1225 .2785 .006 18 252
 937 0 254 249 255 250 ?1 29 253 1212 0 255 256 250 .1225 .1225 .006 18 255 936
 0 257 252 258 253 ?1 29 256 1213 0 258 259 253 .2785 .1225 .006 18 258 935 0 26
0 255 261 256 ?1 29 259 1214 0 261 262 256 .2785 .1085 .006 18 261 934 0 263 258
 264 259 ?1 29 262 1215 0 264 265 259 .2925 .1085 .006 18 264 933 0 266 261 267
 262 ?1 29 265 1216 0 267 268 262 .2925 -.1085 .006 18 267 932 0 269 264 270 265
 ?1 29 268 1217 0 270 271 265 .2785 -.1085 .006 18 270 931 0 272 267 273 268 ?1
 29 271 1218 0 273 274 268 .2785 -.1225 .006 18 273 930 0 275 270 276 271 ?1 29
 274 1219 0 276 277 271 .1225 -.1225 .006 18 276 929 0 278 273 279 274 ?1 29 277
 1220 0 279 280 274 .1225 -.2785 .006 18 279 928 0 281 276 282 277 ?1 29 280 122
1 0 282 283 277 .1085 -.2785 .006 18 282 927 0 284 279 285 280 ?1 29 283 1222 0
 285 286 280 .1085 -.2925 .006 18 285 926 0 287 282 288 283 ?1 29 286 1223 0 288
 289 283 -.1085 -.2925 .006 18 288 925 0 290 285 291 286 ?1 29 289 1224 0 291 29
2 286 -.1085 -.2785 .006 18 291 924 0 293 288 294 289 ?1 29 292 1225 0 294 295 2
89 -.1225 -.2785 .006 18 294 923 0 296 291 297 292 ?1 29 295 1226 0 297 298 292
 -.1225 -.1225 .006 18 297 922 0 299 294 300 295 ?1 29 298 1227 0 300 301 295 -.
2785 -.1225 .006 18 300 921 0 302 297 303 298 ?1 29 301 1228 0 303 304 298 -.278
5 -.1085 .006 18 303 920 0 305 300 306 301 ?1 29 304 1229 0 306 307 301 -.2925 -
.1085 .006 18 306 919 0 308 303 309 304 ?1 29 307 1230 0 309 310 304 -.2925 .108
5 .006 18 309 918 0 311 306 312 307 ?1 29 310 1231 0 312 313 307 -.2785 .1085 .0
06 18 312 917 0 314 309 315 310 ?1 29 313 1232 0 315 316 310 -.2785 .1225 .006 1
8 315 916 0 317 312 163 313 ?1 29 316 1233 0 163 0 313 -.1225 .1225 .006 18 163
 889 0 318 315 161 316 ?1 17 318 0 34 36 35 163 319 320 0 321 +15 255 34 947 0 3
2 322 0 17 36 0 34 32 318 239 321 323 0 37 +17 35 0 34 318 32 104 39 324 0 319 -
17 319 0 325 326 327 104 318 320 0 0 -16 320 804 0 ?318 328 329 330 0 0 1 17 321
 0 331 317 241 163 36 323 0 327 -15 331 951 0 241 332 0 17 317 0 331 238 321 315
 327 328 0 333 +17 241 0 331 321 238 239 334 335 0 36 -16 323 699 0 ?36 336 337
 338 0 0 1 17 327 0 325 319 339 163 317 328 0 0 -15 325 687 0 319 15 340 17 339
 0 325 327 341 315 314 342 0 0 -16 328 807 0 ?317 342 320 343 0 0 1 16 342 810 0
 ?314 344 328 345 0 0 1 30 343 1176 0 328 330 345 0 +-.2785 .1225 .006 -1 0 0 30
 330 1177 0 320 346 343 0 +-.1225 .1225 .006 0 -1 0 30 345 1175 0 342 343 347 0
 +-.2785 .1225 .006 0 -1 0 30 347 1174 0 344 345 348 0 +-.2785 .1085 .006 -1 0 0
 16 344 813 0 ?311 349 342 347 0 0 1 30 348 1173 0 349 347 350 0 +-.2925 .1085 .
006 0 -1 0 16 349 816 0 ?308 351 344 348 0 0 1 30 350 1172 0 351 348 352 0 +-.29
25 -.1085 .006 1 0 0 16 351 819 0 ?305 353 349 350 0 0 1 30 352 1171 0 353 350 3
54 0 +-.2785 -.1085 .006 0 -1 0 16 353 822 0 ?302 355 351 352 0 0 1 30 354 1170
 0 355 352 356 0 +-.2785 -.1225 .006 1 0 0 16 355 825 0 ?299 357 353 354 0 0 1 3
0 356 1169 0 357 354 358 0 +-.1225 -.2785 .006 889601782552209e-31 -1 0 16 357 8
28 0 ?296 359 355 356 0 0 1 30 358 1168 0 359 356 360 0 +-.1225 -.2785 .006 1 0
 0 16 359 831 0 ?293 361 357 358 0 0 1 30 360 1167 0 361 358 362 0 +-.1085 -.278
5 .006 0 -1 0 16 361 834 0 ?290 363 359 360 0 0 1 30 362 1166 0 363 360 364 0 +-
.1085 -.2925 .006 1 0 0 16 363 837 0 ?287 365 361 362 0 0 1 30 364 1165 0 365 36
2 366 0 +.1085 -.2785 .006 0 1 0 16 365 840 0 ?284 367 363 364 0 0 1 30 366 1164
 0 367 364 368 0 +.1225 -.2785 .006 1 0 0 16 367 843 0 ?281 369 365 366 0 0 1 30
 368 1163 0 369 366 370 0 +.1225 -.1225 .006 -889601782552209e-31 1 0 16 369 846
 0 ?278 371 367 368 0 0 1 30 370 1162 0 371 368 372 0 +.2785 -.1225 .006 1 88960
1782552209e-31 0 16 371 849 0 ?275 373 369 370 0 0 1 30 372 1161 0 373 370 374 0
 +.2785 -.1085 .006 0 1 0 16 373 852 0 ?272 375 371 372 0 0 1 30 374 1160 0 375
 372 376 0 +.2925 -.1085 .006 1 0 0 16 375 855 0 ?269 377 373 374 0 0 1 30 376 1
159 0 377 374 378 0 +.2925 .1085 .006 0 1 0 16 377 858 0 ?266 379 375 376 0 0 1
 30 378 1158 0 379 376 380 0 +.2785 .1085 .006 -1 0 0 16 379 861 0 ?263 381 377
 378 0 0 1 30 380 1157 0 381 378 382 0 +.2785 .1225 .006 0 1 0 16 381 864 0 ?260
 383 379 380 0 0 1 30 382 1156 0 383 380 384 0 +.1225 .1225 .006 -1 0 0 16 383 8
67 0 ?257 385 381 382 0 0 1 30 384 1155 0 385 382 386 0 +.1225 .2785 .006 -88960
1782552209e-31 1 0 16 385 870 0 ?254 387 383 384 0 0 1 30 386 1154 0 387 384 388
 0 +.1085 .2785 .006 -1 0 0 16 387 873 0 ?251 389 385 386 0 0 1 30 388 1153 0 38
9 386 390 0 +.1085 .2925 .006 0 1 0 16 389 876 0 ?248 391 387 388 0 0 1 30 390 1
152 0 391 388 392 0 +-.1085 .2925 .006 -1 0 0 16 391 879 0 ?245 393 389 390 0 0
 1 30 392 1151 0 393 390 394 0 +-.1085 .2925 .006 0 -1 0 16 393 882 0 ?31 395 39
1 392 0 0 1 30 394 1150 0 395 392 396 0 +-.1085 .2785 .006 -1 0 0 16 395 885 0 ?
27 324 393 394 0 0 1 30 396 1149 0 38 394 397 0 +-.1225 .1225 0 0 -1 0 16 38 692
 0 ?37 335 398 396 0 0 1 30 397 1148 0 335 396 399 0 +-.2785 .1225 0 -1 0 0 16 3
35 696 0 ?334 400 38 397 0 0 1 30 399 1147 0 400 397 401 0 +-.2785 .1225 0 0 -1
 0 16 400 700 0 ?402 403 335 399 0 0 1 30 401 1146 0 403 399 404 0 +-.2785 .1085
 0 -1 0 0 16 403 704 0 ?405 406 400 401 0 0 1 30 404 1145 0 406 401 407 0 +-.292
5 .1085 0 0 -1 0 16 406 708 0 ?408 409 403 404 0 0 1 30 407 1144 0 409 404 410 0
 +-.2925 -.1085 0 1 0 0 16 409 712 0 ?411 412 406 407 0 0 1 30 410 1143 0 412 40
7 413 0 +-.2785 -.1085 0 0 -1 0 16 412 716 0 ?414 415 409 410 0 0 1 30 413 1142
 0 415 410 416 0 +-.2785 -.1225 0 1 0 0 16 415 720 0 ?417 418 412 413 0 0 1 30 4
16 1141 0 418 413 419 0 +-.1225 -.2785 0 889601782552209e-31 -1 0 16 418 724 0 ?
420 421 415 416 0 0 1 30 419 1140 0 421 416 422 0 +-.1225 -.2785 0 1 0 0 16 421
 728 0 ?423 424 418 419 0 0 1 30 422 1139 0 424 419 425 0 +-.1085 -.2785 0 0 -1
 0 16 424 732 0 ?426 427 421 422 0 0 1 30 425 1138 0 427 422 428 0 +-.1085 -.292
5 0 1 0 0 16 427 736 0 ?429 430 424 425 0 0 1 30 428 1137 0 430 425 431 0 +.1085
 -.2785 0 0 1 0 16 430 740 0 ?432 433 427 428 0 0 1 30 431 1136 0 433 428 434 0
 +.1225 -.2785 0 1 0 0 16 433 744 0 ?435 436 430 431 0 0 1 30 434 1135 0 436 431
 437 0 +.1225 -.1225 0 -889601782552209e-31 1 0 16 436 748 0 ?438 439 433 434 0
 0 1 30 437 1134 0 439 434 440 0 +.2785 -.1225 0 1 889601782552209e-31 0 16 439
 752 0 ?441 442 436 437 0 0 1 30 440 1133 0 442 437 443 0 +.2785 -.1085 0 0 1 0
 16 442 756 0 ?444 445 439 440 0 0 1 30 443 1132 0 445 440 446 0 +.2925 -.1085 0
 1 0 0 16 445 760 0 ?447 448 442 443 0 0 1 30 446 1131 0 448 443 449 0 +.2925 .1
085 0 0 1 0 16 448 764 0 ?450 451 445 446 0 0 1 30 449 1130 0 451 446 452 0 +.27
85 .1085 0 -1 0 0 16 451 768 0 ?453 454 448 449 0 0 1 30 452 1129 0 454 449 455
 0 +.2785 .1225 0 0 1 0 16 454 772 0 ?456 457 451 452 0 0 1 30 455 1128 0 457 45
2 458 0 +.1225 .1225 0 -1 0 0 16 457 776 0 ?459 460 454 455 0 0 1 30 458 1127 0
 460 455 461 0 +.1225 .2785 0 -889601782552209e-31 1 0 16 460 780 0 ?462 463 457
 458 0 0 1 30 461 1126 0 463 458 464 0 +.1085 .2785 0 -1 0 0 16 463 784 0 ?465 4
66 460 461 0 0 1 30 464 1125 0 466 461 467 0 +.1085 .2925 0 0 1 0 16 466 788 0 ?
468 469 463 464 0 0 1 30 467 1124 0 469 464 470 0 +-.1085 .2925 0 -1 0 0 16 469
 792 0 ?471 472 466 467 0 0 1 30 470 1123 0 472 467 473 0 +-.1085 .2925 0 0 -1 0
 16 472 796 0 ?474 329 469 470 0 0 1 30 473 1122 0 329 470 475 0 +-.1085 .2785 0
 -1 0 0 16 329 800 0 ?476 320 472 473 0 0 1 30 475 1121 0 324 473 477 0 +-.1225
 .2785 .006 0 0 -1 16 324 695 0 ?39 30 395 475 0 0 1 30 477 1120 0 30 475 478 0
 +-.1085 .2785 .006 0 0 -1 16 30 803 0 ?29 479 324 477 0 0 1 30 478 1119 0 479 4
77 480 0 +-.1085 .2925 .006 0 0 -1 16 479 799 0 ?166 481 30 478 0 0 1 30 480 111
8 0 481 478 482 0 +.1085 .2925 .006 0 0 -1 16 481 795 0 ?169 483 479 480 0 0 1 3
0 482 1117 0 483 480 484 0 +.1085 .2785 .006 0 0 -1 16 483 791 0 ?172 485 481 48
2 0 0 1 30 484 1116 0 485 482 486 0 +.1225 .2785 .006 0 0 -1 16 485 787 0 ?175 4
87 483 484 0 0 1 30 486 1115 0 487 484 488 0 +.1225 .1225 .006 0 0 -1 16 487 783
 0 ?178 489 485 486 0 0 1 30 488 1114 0 489 486 490 0 +.2785 .1225 .006 0 0 -1 1
6 489 779 0 ?181 491 487 488 0 0 1 30 490 1113 0 491 488 492 0 +.2785 .1085 .006
 0 0 -1 16 491 775 0 ?184 493 489 490 0 0 1 30 492 1112 0 493 490 494 0 +.2925 .
1085 .006 0 0 -1 16 493 771 0 ?187 495 491 492 0 0 1 30 494 1111 0 495 492 496 0
 +.2925 -.1085 .006 0 0 -1 16 495 767 0 ?190 497 493 494 0 0 1 30 496 1110 0 497
 494 498 0 +.2785 -.1085 .006 0 0 -1 16 497 763 0 ?193 499 495 496 0 0 1 30 498
 1109 0 499 496 500 0 +.2785 -.1225 .006 0 0 -1 16 499 759 0 ?196 501 497 498 0
 0 1 30 500 1108 0 501 498 502 0 +.1225 -.1225 .006 0 0 -1 16 501 755 0 ?199 503
 499 500 0 0 1 30 502 1107 0 503 500 504 0 +.1225 -.2785 .006 0 0 -1 16 503 751
 0 ?202 505 501 502 0 0 1 30 504 1106 0 505 502 506 0 +.1085 -.2785 .006 0 0 -1
 16 505 747 0 ?205 507 503 504 0 0 1 30 506 1105 0 507 504 508 0 +.1085 -.2925 .
006 0 0 -1 16 507 743 0 ?208 509 505 506 0 0 1 30 508 1104 0 509 506 510 0 +-.10
85 -.2925 .006 0 0 -1 16 509 739 0 ?211 511 507 508 0 0 1 30 510 1103 0 511 508
 512 0 +-.1085 -.2785 .006 0 0 -1 16 511 735 0 ?214 513 509 510 0 0 1 30 512 110
2 0 513 510 514 0 +-.1225 -.2785 .006 0 0 -1 16 513 731 0 ?217 515 511 512 0 0 1
 30 514 1101 0 515 512 516 0 +-.1225 -.1225 .006 0 0 -1 16 515 727 0 ?220 517 51
3 514 0 0 1 30 516 1100 0 517 514 518 0 +-.2785 -.1225 .006 0 0 -1 16 517 723 0
 ?223 519 515 516 0 0 1 30 518 1099 0 519 516 520 0 +-.2785 -.1085 .006 0 0 -1 1
6 519 719 0 ?226 521 517 518 0 0 1 30 520 1098 0 521 518 522 0 +-.2925 -.1085 .0
06 0 0 -1 16 521 715 0 ?229 523 519 520 0 0 1 30 522 1097 0 523 520 524 0 +-.292
5 .1085 .006 0 0 -1 16 523 711 0 ?232 525 521 522 0 0 1 30 524 1096 0 525 522 52
6 0 +-.2785 .1085 .006 0 0 -1 16 525 707 0 ?235 337 523 524 0 0 1 30 526 1095 0
 337 524 338 0 +-.2785 .1225 .006 0 0 -1 16 337 703 0 ?238 323 525 526 0 0 1 30
 338 1094 0 323 526 527 0 +-.1225 .1225 .006 0 0 -1 31 255 527 5 0 528 338 529 0
 +-.283764 .113764 .006 0 0 1 -1 0 0 .018736 16 528 4 0 ?530 531 532 527 0 0 1 3
0 529 8 0 531 527 533 0 +-.3025 .113764 .006 0 -1 0 16 531 7 0 ?158 534 528 529
 0 0 1 31 533 11 0 534 529 535 0 +-.283764 -.113764 .006 0 0 1 -1 0 0 .018736 16
 534 10 0 ?155 536 531 533 0 0 1 30 535 14 0 536 533 537 0 +-.283764 -.1325 .006
 1 -183490953667951e-30 0 16 536 13 0 ?152 538 534 535 0 0 1 30 537 17 0 538 535
 539 0 +-.1325 -.283764 .006 0 -1 0 16 538 16 0 ?149 540 536 537 0 0 1 31 539 20
 0 540 537 541 0 +-.113764 -.283764 .006 0 0 1 -1 0 0 .018736 16 540 19 0 ?146 5
42 538 539 0 0 1 30 541 23 0 542 539 543 0 +-.113764 -.3025 .006 1 0 0 16 542 22
 0 ?143 544 540 541 0 0 1 31 543 26 0 544 541 545 0 +.113764 -.283764 .006 0 0 1
 -1 0 0 .018736 16 544 25 0 ?140 546 542 543 0 0 1 30 545 29 0 546 543 547 0 +.1
325 -.1325 .006 -3669819073359015e-31 1 0 16 546 28 0 ?137 548 544 545 0 0 1 30
 547 32 0 548 545 549 0 +.283764 -.1325 .006 1 0 0 16 548 31 0 ?134 550 546 547
 0 0 1 31 549 35 0 550 547 551 0 +.283764 -.113764 .006 0 0 1 -1 0 0 .018736 16
 550 34 0 ?131 552 548 549 0 0 1 30 551 38 0 552 549 553 0 +.3025 .113764 .006 0
 1 0 16 552 37 0 ?128 554 550 551 0 0 1 31 553 41 0 554 551 555 0 +.283764 .1137
64 .006 0 0 1 -1 0 0 .018736 16 554 40 0 ?125 556 552 553 0 0 1 30 555 44 0 556
 553 557 0 +.1325 .1325 .006 -1 -3669819073359015e-31 0 16 556 43 0 ?122 558 554
 555 0 0 1 30 557 47 0 558 555 559 0 +.1325 .283764 .006 0 1 0 16 558 46 0 ?119
 560 556 557 0 0 1 31 559 50 0 560 557 561 0 +.113764 .283764 .006 0 0 1 -1 0 0
 .018736 16 560 49 0 ?116 562 558 559 0 0 1 30 561 53 0 562 559 563 0 +-.113764
 .3025 .006 -1 0 0 16 562 52 0 ?113 564 560 561 0 0 1 31 563 56 0 564 561 565 0
 +-.113764 .283764 .006 0 0 1 -1 0 0 .018736 16 564 55 0 ?110 566 562 563 0 0 1
 30 565 59 0 566 563 567 0 +-.1325 .1325 .006 0 -1 0 16 566 58 0 ?107 568 564 56
5 0 0 1 30 567 62 0 568 565 569 0 +-.283764 .1325 .006 -1 -183490953667951e-30 0
 16 568 61 0 ?40 570 566 567 0 0 1 31 569 293 0 336 567 571 0 +-.283764 .113764
 0 0 0 1 -1 0 0 .018736 16 336 249 0 ?572 573 323 569 0 0 1 30 571 292 0 573 569
 574 0 +-.3025 .113764 0 0 -1 0 16 573 245 0 ?101 575 336 571 0 0 1 31 574 291 0
 575 571 576 0 +-.283764 -.113764 0 0 0 1 -1 0 0 .018736 16 575 241 0 ?98 577 57
3 574 0 0 1 30 576 290 0 577 574 578 0 +-.283764 -.1325 0 1 -183490953667951e-30
 0 16 577 237 0 ?95 579 575 576 0 0 1 30 578 289 0 579 576 580 0 +-.1325 -.28376
4 0 0 -1 0 16 579 233 0 ?92 581 577 578 0 0 1 31 580 288 0 581 578 582 0 +-.1137
64 -.283764 0 0 0 1 -1 0 0 .018736 16 581 229 0 ?89 583 579 580 0 0 1 30 582 287
 0 583 580 584 0 +-.113764 -.3025 0 1 0 0 16 583 225 0 ?86 585 581 582 0 0 1 31
 584 286 0 585 582 586 0 +.113764 -.283764 0 0 0 1 -1 0 0 .018736 16 585 221 0 ?
83 587 583 584 0 0 1 30 586 285 0 587 584 588 0 +.1325 -.1325 0 -366981907335901
5e-31 1 0 16 587 217 0 ?80 589 585 586 0 0 1 30 588 284 0 589 586 590 0 +.283764
 -.1325 0 1 0 0 16 589 213 0 ?77 591 587 588 0 0 1 31 590 283 0 591 588 592 0 +.
283764 -.113764 0 0 0 1 -1 0 0 .018736 16 591 209 0 ?74 593 589 590 0 0 1 30 592
 282 0 593 590 594 0 +.3025 .113764 0 0 1 0 16 593 205 0 ?71 595 591 592 0 0 1 3
1 594 281 0 595 592 596 0 +.283764 .113764 0 0 0 1 -1 0 0 .018736 16 595 201 0 ?
68 597 593 594 0 0 1 30 596 280 0 597 594 598 0 +.1325 .1325 0 -1 -3669819073359
015e-31 0 16 597 197 0 ?65 599 595 596 0 0 1 30 598 279 0 599 596 600 0 +.1325 .
283764 0 0 1 0 16 599 193 0 ?62 601 597 598 0 0 1 31 600 278 0 601 598 602 0 +.1
13764 .283764 0 0 0 1 -1 0 0 .018736 16 601 189 0 ?59 603 599 600 0 0 1 30 602 2
77 0 603 600 604 0 +-.113764 .3025 0 -1 0 0 16 603 185 0 ?56 605 601 602 0 0 1 3
1 604 276 0 605 602 606 0 +-.113764 .283764 0 0 0 1 -1 0 0 .018736 16 605 181 0
 ?53 607 603 604 0 0 1 30 606 275 0 607 604 608 0 +-.1325 .1325 0 0 -1 0 16 607
 177 0 ?50 532 605 606 0 0 1 30 608 274 0 532 606 609 0 +-.283764 .1325 0 -1 -18
3490953667951e-30 0 16 532 173 0 ?46 528 607 608 0 0 1 30 609 394 0 570 608 610
 0 +-.283764 .1325 .006 0 0 -1 16 570 314 0 ?611 612 568 609 0 0 1 30 610 395 0
 612 609 613 0 +-.1325 .1325 .006 0 0 -1 16 612 315 0 ?614 615 570 610 0 0 1 30
 613 396 0 615 610 616 0 +-.1325 .283764 .006 0 0 -1 16 615 316 0 ?617 618 612 6
13 0 0 1 30 616 397 0 618 613 619 0 +-.113764 .3025 .006 0 0 -1 16 618 317 0 ?62
0 621 615 616 0 0 1 30 619 398 0 621 616 622 0 +.113764 .3025 .006 0 0 -1 16 621
 318 0 ?623 624 618 619 0 0 1 30 622 399 0 624 619 625 0 +.1325 .283764 .006 0 0
 -1 16 624 319 0 ?626 627 621 622 0 0 1 30 625 400 0 627 622 628 0 +.1325 .1325
 .006 0 0 -1 16 627 320 0 ?629 630 624 625 0 0 1 30 628 401 0 630 625 631 0 +.28
3764 .1325 .006 0 0 -1 16 630 321 0 ?632 633 627 628 0 0 1 30 631 402 0 633 628
 634 0 +.3025 .113764 .006 0 0 -1 16 633 322 0 ?635 636 630 631 0 0 1 30 634 403
 0 636 631 637 0 +.3025 -.113764 .006 0 0 -1 16 636 323 0 ?638 639 633 634 0 0 1
 30 637 404 0 639 634 640 0 +.283764 -.1325 .006 0 0 -1 16 639 324 0 ?641 642 63
6 637 0 0 1 30 640 405 0 642 637 643 0 +.1325 -.1325 .006 0 0 -1 16 642 325 0 ?6
44 645 639 640 0 0 1 30 643 406 0 645 640 646 0 +.1325 -.283764 .006 0 0 -1 16 6
45 326 0 ?647 648 642 643 0 0 1 30 646 407 0 648 643 649 0 +.113764 -.3025 .006
 0 0 -1 16 648 327 0 ?650 651 645 646 0 0 1 30 649 408 0 651 646 652 0 +-.113764
 -.3025 .006 0 0 -1 16 651 328 0 ?653 654 648 649 0 0 1 30 652 409 0 654 649 655
 0 +-.1325 -.283764 .006 0 0 -1 16 654 329 0 ?656 657 651 652 0 0 1 30 655 410 0
 657 652 658 0 +-.1325 -.1325 .006 0 0 -1 16 657 330 0 ?659 660 654 655 0 0 1 30
 658 411 0 660 655 19 0 +-.283764 -.1325 .006 0 0 -1 16 660 331 0 ?661 23 657 65
8 0 0 1 30 19 412 0 23 658 7 0 +-.3025 -.113764 .006 0 0 -1 16 23 332 0 ?662 10
 660 19 0 0 1 17 662 0 663 98 664 99 665 23 0 666 +15 663 368 0 98 667 0 17 98 0
 663 668 662 96 666 575 0 661 +17 664 0 663 662 668 156 155 534 0 0 -17 665 0 66
9 160 101 156 662 23 0 664 -17 666 0 670 103 671 99 98 575 0 0 -15 670 172 0 672
 673 674 17 103 0 670 672 666 102 101 573 0 22 -17 671 0 670 666 675 96 95 577 0
 0 -17 675 0 670 671 676 93 92 579 0 0 -17 95 0 677 678 661 93 671 577 0 659 +15
 677 366 0 95 679 0 17 678 0 677 680 95 150 659 657 0 681 -17 661 0 677 95 680 9
6 668 660 0 671 +17 659 0 682 92 681 93 678 657 0 675 +15 682 364 0 92 683 0 17
 92 0 682 684 659 90 675 579 0 656 +17 681 0 682 659 684 150 149 538 0 0 -17 684
 0 682 681 92 147 656 654 0 685 -17 149 0 686 146 152 147 681 538 0 684 +15 686
 3 0 530 15 325 17 146 0 686 143 149 144 685 540 0 687 +17 152 0 686 149 155 150
 680 536 0 678 +17 155 0 686 152 158 153 664 534 0 668 +17 680 0 677 661 678 153
 152 536 0 0 -17 158 0 686 155 530 156 160 531 0 665 +17 668 0 663 664 98 153 66
1 660 0 680 -17 530 0 686 158 40 47 688 528 0 689 +17 160 0 669 22 665 47 158 53
1 0 530 -15 669 370 0 101 690 0 17 22 0 669 101 160 102 689 10 0 572 +17 101 0 6
69 665 22 99 103 573 0 662 +17 689 0 691 688 572 47 22 10 0 0 -17 572 0 691 689
 611 102 672 336 0 0 +15 691 372 0 572 17 0 17 611 0 691 572 688 44 692 570 0 67
2 +17 672 0 670 693 103 44 572 336 0 0 -17 693 0 670 694 672 48 46 532 0 0 -17 6
94 0 670 695 693 51 50 607 0 0 -17 46 0 696 692 614 44 693 532 0 611 +15 696 334
 0 46 697 0 17 692 0 696 698 46 33 611 570 0 688 -17 614 0 696 46 698 48 699 612
 0 693 +17 698 0 696 614 692 41 40 568 0 0 -17 699 0 700 701 50 41 614 612 0 698
 -15 700 336 0 50 702 0 17 701 0 700 617 699 108 107 566 0 0 -17 50 0 700 699 61
7 48 694 607 0 614 +17 617 0 700 50 701 51 703 615 0 694 +17 703 0 704 705 53 10
8 617 615 0 701 -15 704 338 0 53 706 0 17 705 0 704 620 703 111 110 564 0 0 -17
 53 0 704 703 620 51 695 605 0 617 +17 620 0 704 53 705 54 707 618 0 695 +17 695
 0 670 708 694 54 53 605 0 0 -17 708 0 670 709 695 57 56 603 0 0 -17 709 0 670 7
10 708 60 59 601 0 0 -17 56 0 711 707 623 54 708 603 0 620 +15 711 340 0 56 712
 0 17 707 0 711 713 56 111 620 618 0 705 -17 623 0 711 56 713 57 714 621 0 708 +
17 713 0 711 623 707 114 113 562 0 0 -17 714 0 715 716 59 114 623 621 0 713 -15
 715 342 0 59 717 0 17 716 0 715 626 714 117 116 560 0 0 -17 59 0 715 714 626 57
 709 601 0 623 +17 626 0 715 59 716 60 718 624 0 709 +17 718 0 719 720 62 117 62
6 624 0 716 -15 719 344 0 62 721 0 17 720 0 719 629 718 120 119 558 0 0 -17 62 0
 719 718 629 60 710 599 0 626 +17 629 0 719 62 720 63 722 627 0 710 +17 710 0 67
0 723 709 63 62 599 0 0 -17 723 0 670 724 710 66 65 597 0 0 -17 724 0 670 725 72
3 69 68 595 0 0 -17 65 0 726 722 632 63 723 597 0 629 +15 726 346 0 65 727 0 17
 722 0 726 728 65 120 629 627 0 720 -17 632 0 726 65 728 66 729 630 0 723 +17 72
8 0 726 632 722 123 122 556 0 0 -17 729 0 730 731 68 123 632 630 0 728 -15 730 3
48 0 68 732 0 17 731 0 730 635 729 126 125 554 0 0 -17 68 0 730 729 635 66 724 5
95 0 632 +17 635 0 730 68 731 69 733 633 0 724 +17 733 0 734 735 71 126 635 633
 0 731 -15 734 350 0 71 736 0 17 735 0 734 638 733 129 128 552 0 0 -17 71 0 734
 733 638 69 725 593 0 635 +17 638 0 734 71 735 72 737 636 0 725 +17 725 0 670 73
8 724 72 71 593 0 0 -17 738 0 670 739 725 75 74 591 0 0 -17 739 0 670 740 738 78
 77 589 0 0 -17 74 0 741 737 641 72 738 591 0 638 +15 741 352 0 74 742 0 17 737
 0 741 743 74 129 638 636 0 735 -17 641 0 741 74 743 75 744 639 0 738 +17 743 0
 741 641 737 132 131 550 0 0 -17 744 0 745 746 77 132 641 639 0 743 -15 745 354
 0 77 747 0 17 746 0 745 644 744 135 134 548 0 0 -17 77 0 745 744 644 75 739 589
 0 641 +17 644 0 745 77 746 78 748 642 0 739 +17 748 0 749 750 80 135 644 642 0
 746 -15 749 356 0 80 751 0 17 750 0 749 647 748 138 137 546 0 0 -17 80 0 749 74
8 647 78 740 587 0 644 +17 647 0 749 80 750 81 752 645 0 740 +17 740 0 670 753 7
39 81 80 587 0 0 -17 753 0 670 754 740 84 83 585 0 0 -17 754 0 670 676 753 87 86
 583 0 0 -17 83 0 755 752 650 81 753 585 0 647 +15 755 358 0 83 756 0 17 752 0 7
55 757 83 138 647 645 0 750 -17 650 0 755 83 757 84 758 648 0 753 +17 757 0 755
 650 752 141 140 544 0 0 -17 758 0 759 760 86 141 650 648 0 757 -15 759 360 0 86
 761 0 17 760 0 759 653 758 144 143 542 0 0 -17 86 0 759 758 653 84 754 583 0 65
0 +17 653 0 759 86 760 87 687 651 0 754 +17 687 0 762 685 89 144 653 651 0 760 -
15 762 362 0 89 763 0 17 685 0 762 656 687 147 146 540 0 0 -17 89 0 762 687 656
 87 676 581 0 653 +17 656 0 762 89 685 90 684 654 0 676 +17 676 0 670 675 754 90
 89 581 0 0 -14 255 763 363 764 ?761 683 762 5 765 -0 0 761 683 21 81 1 764 2484
 766 763 767 0 0 768 769 14 761 361 768 ?756 763 759 5 770 -0 0 756 763 21 14 68
3 365 771 ?763 679 682 5 772 -0 0 763 679 21 51 765 388 0 763 770 772 0 --.11376
4 -.283764 .006 0 0 -1 .018736 -1 0 0 13 21 125 0 0 0 0 0 0 9 15 14 15 1513 773
 ?673 0 686 5 774 -0 0 673 0 21 81 1 773 2487 766 15 775 0 771 776 777 14 673 15
07 776 ?17 15 778 5 779 +0 0 17 15 21 50 255 774 2 0 15 780 779 0 +-.283764 .113
764 .006 0 0 -1 -1 0 0 50 780 1064 0 322 781 774 0 +-.1225 .1225 .006 1 0 0 0 0
 -1 50 779 273 0 673 774 782 0 +-.283764 .113764 0 0 0 -1 -1 0 0 50 782 374 0 69
7 779 783 0 +-.283764 .1325 .006 183490953667951e-30 -1 0 1 183490953667951e-30
 0 14 697 335 784 ?322 702 696 5 782 -0 0 322 702 21 50 783 375 0 702 782 785 0
 +-.1325 .1325 .006 1 0 0 0 0 -1 14 702 337 786 ?697 706 700 5 783 -0 0 697 706
 21 51 785 376 0 706 783 787 0 --.113764 .283764 .006 0 0 -1 .018736 -1 0 0 14 7
06 339 788 ?702 712 704 5 785 -0 0 702 712 21 50 787 377 0 712 785 789 0 +-.1137
64 .3025 .006 0 -1 0 0 0 -1 14 712 341 790 ?706 717 711 5 787 -0 0 706 717 21 51
 789 378 0 717 787 791 0 -.113764 .283764 .006 0 0 -1 .018736 -1 0 0 14 717 343
 792 ?712 721 715 5 789 -0 0 712 721 21 50 791 379 0 721 789 793 0 +.1325 .28376
4 .006 -1 0 0 0 0 1 14 721 345 794 ?717 727 719 5 791 -0 0 717 727 21 50 793 380
 0 727 791 795 0 +.1325 .1325 .006 3669819073359015e-31 -1 0 1 3669819073359015e
-31 0 14 727 347 796 ?721 732 726 5 793 -0 0 721 732 21 51 795 381 0 732 793 797
 0 -.283764 .113764 .006 0 0 -1 .018736 -1 0 0 14 732 349 798 ?727 736 730 5 795
 -0 0 727 736 21 50 797 382 0 736 795 799 0 +.3025 .113764 .006 -1 0 0 0 0 1 14
 736 351 800 ?732 742 734 5 797 -0 0 732 742 21 51 799 383 0 742 797 801 0 -.283
764 -.113764 .006 0 0 -1 .018736 -1 0 0 14 742 353 802 ?736 747 741 5 799 -0 0 7
36 747 21 50 801 384 0 747 799 803 0 +.283764 -.1325 .006 0 1 0 0 0 1 14 747 355
 804 ?742 751 745 5 801 -0 0 742 751 21 50 803 385 0 751 801 805 0 +.1325 -.1325
 .006 -1 -3669819073359015e-31 0 3669819073359015e-31 -1 0 14 751 357 806 ?747 7
56 749 5 803 -0 0 747 756 21 51 805 386 0 756 803 770 0 -.113764 -.283764 .006 0
 0 -1 .018736 -1 0 0 14 756 359 807 ?751 761 755 5 805 -0 0 751 761 21 50 770 38
7 0 761 805 765 0 +-.113764 -.3025 .006 0 1 0 0 0 1 81 1 807 2501 766 756 808 0
 806 809 810 80 255 1 766 811 812 9000 1 1 1 1 1 1 1 1 0 FFFFTFTFFFFFFF1 81 1 80
8 2317 813 756 0 807 814 815 816 81 1 806 2500 766 751 815 0 804 807 817 81 1 80
9 2502 766 322 818 0 807 819 820 82 255 1 810 629014671 14 322 944 809 ?332 697
 34 5 780 +0 0 332 697 21 81 1 818 2330 813 322 0 809 821 822 823 81 1 819 2503
 766 332 822 0 809 824 825 82 1 820 697106575 14 332 948 819 ?826 322 331 5 781
 +0 0 826 322 21 81 1 822 2331 813 332 0 819 818 827 828 81 1 824 2504 766 826 8
27 0 819 829 830 82 1 825 696844431 14 826 952 824 ?831 332 832 5 833 +0 0 831 3
32 21 81 1 827 2332 813 826 0 824 822 834 835 81 1 829 2505 766 831 834 0 824 83
6 837 82 1 830 696582287 14 831 956 829 ?838 826 839 5 840 +0 0 838 826 21 81 1
 834 2333 813 831 0 829 827 841 842 81 1 836 2506 766 838 841 0 829 843 844 82 1
 837 696320143 14 838 960 836 ?845 831 846 5 847 +0 0 845 831 21 81 1 841 2334 8
13 838 0 836 834 848 849 81 1 843 2507 766 845 848 0 836 850 851 82 1 844 696057
999 14 845 964 843 ?852 838 853 5 854 +0 0 852 838 21 81 1 848 2335 813 845 0 84
3 841 855 856 81 1 850 2508 766 852 855 0 843 857 858 82 1 851 695795855 14 852
 968 850 ?859 845 860 5 861 +0 0 859 845 21 81 1 855 2336 813 852 0 850 848 862
 863 81 1 857 2509 766 859 862 0 850 864 865 82 1 858 695533711 14 859 972 857 ?
866 852 867 5 868 +0 0 866 852 21 81 1 862 2337 813 859 0 857 855 869 870 81 1 8
64 2510 766 866 869 0 857 871 872 82 1 865 695271567 14 866 976 864 ?873 859 874
 5 875 +0 0 873 859 21 81 1 869 2338 813 866 0 864 862 876 877 81 1 871 2511 766
 873 876 0 864 878 879 82 1 872 695009423 14 873 980 871 ?880 866 881 5 882 +0 0
 880 866 21 81 1 876 2339 813 873 0 871 869 883 884 81 1 878 2512 766 880 883 0
 871 885 886 82 1 879 694747279 14 880 984 878 ?887 873 888 5 889 +0 0 887 873 2
1 81 1 883 2340 813 880 0 878 876 890 891 81 1 885 2513 766 887 890 0 878 892 89
3 82 1 886 694485135 14 887 988 885 ?894 880 895 5 896 +0 0 894 880 21 81 1 890
 2341 813 887 0 885 883 897 898 81 1 892 2514 766 894 897 0 885 899 900 82 1 893
 694222991 14 894 992 892 ?901 887 902 5 903 +0 0 901 887 21 81 1 897 2342 813 8
94 0 892 890 904 905 81 1 899 2515 766 901 904 0 892 906 907 82 1 900 693960847
 14 901 996 899 ?908 894 909 5 910 +0 0 908 894 21 81 1 904 2343 813 901 0 899 8
97 911 912 81 1 906 2516 766 908 911 0 899 913 914 82 1 907 693698703 14 908 100
0 906 ?915 901 916 5 917 +0 0 915 901 21 81 1 911 2344 813 908 0 906 904 918 919
 81 1 913 2517 766 915 918 0 906 920 921 82 1 914 693436559 14 915 1004 913 ?922
 908 923 5 924 +0 0 922 908 21 81 1 918 2345 813 915 0 913 911 925 926 81 1 920
 2518 766 922 925 0 913 927 928 82 1 921 693174415 14 922 1008 920 ?929 915 930
 5 931 +0 0 929 915 21 81 1 925 2346 813 922 0 920 918 932 933 81 1 927 2519 766
 929 932 0 920 934 935 82 1 928 692912271 14 929 1012 927 ?936 922 937 5 938 +0
 0 936 922 21 81 1 932 2347 813 929 0 927 925 939 940 81 1 934 2520 766 936 939
 0 927 941 942 82 1 935 692650127 14 936 1016 934 ?943 929 944 5 945 +0 0 943 92
9 21 81 1 939 2348 813 936 0 934 932 946 947 81 1 941 2521 766 943 946 0 934 948
 949 82 1 942 692387983 14 943 1020 941 ?950 936 951 5 952 +0 0 950 936 21 81 1
 946 2349 813 943 0 941 939 953 954 81 1 948 2522 766 950 953 0 941 955 956 82 1
 949 692125839 14 950 1024 948 ?957 943 958 5 959 +0 0 957 943 21 81 1 953 2350
 813 950 0 948 946 960 961 81 1 955 2523 766 957 960 0 948 962 963 82 1 956 6918
63695 14 957 1028 955 ?964 950 965 5 966 +0 0 964 950 21 81 1 960 2351 813 957 0
 955 953 967 968 81 1 962 2524 766 964 967 0 955 969 970 82 1 963 691601551 14 9
64 1032 962 ?971 957 972 5 973 +0 0 971 957 21 81 1 967 2352 813 964 0 962 960 9
74 975 81 1 969 2525 766 971 974 0 962 976 977 82 1 970 691339407 14 971 1036 96
9 ?978 964 979 5 980 +0 0 978 964 21 81 1 974 2353 813 971 0 969 967 981 982 81
 1 976 2526 766 978 981 0 969 983 984 82 1 977 691077263 14 978 1040 976 ?985 97
1 986 5 987 +0 0 985 971 21 81 1 981 2354 813 978 0 976 974 988 989 81 1 983 252
7 766 985 988 0 976 990 991 82 1 984 690815119 14 985 1044 983 ?992 978 993 5 99
4 +0 0 992 978 21 81 1 988 2355 813 985 0 983 981 995 996 81 1 990 2528 766 992
 995 0 983 997 998 82 1 991 690552975 14 992 1048 990 ?999 985 1000 5 1001 +0 0
 999 985 21 81 1 995 2356 813 992 0 990 988 1002 1003 81 1 997 2529 766 999 1002
 0 990 1004 1005 82 1 998 690290831 14 999 1052 997 ?1006 992 26 5 1007 +0 0 100
6 992 21 81 1 1002 2357 813 999 0 997 995 1008 1009 81 1 1004 2530 766 1006 1008
 0 997 1010 1011 82 1 1005 690028687 14 1006 1256 1004 ?1012 999 1013 5 1014 +0
 0 1012 999 21 81 1 1008 2358 813 1006 0 1004 1002 1015 1016 81 1 1010 2531 766
 1012 1015 0 1004 1017 1018 82 1 1011 708182159 14 1012 1294 1010 ?1019 1006 102
0 5 1021 +0 0 1019 1006 21 81 1 1015 2359 813 1012 0 1010 1008 1022 1023 81 1 10
17 2532 766 1019 1022 0 1010 1024 1025 82 1 1018 712245391 14 1019 1332 1017 ?10
26 1012 1027 5 1028 +0 0 1026 1012 21 81 1 1022 2360 813 1019 0 1017 1015 1029 1
030 81 1 1024 2533 766 1026 1029 0 1017 1031 1032 82 1 1025 716308623 14 1026 13
70 1024 ?1033 1019 1034 5 1035 +0 0 1033 1019 21 81 1 1029 2361 813 1026 0 1024
 1022 1036 1037 81 1 1031 2534 766 1033 1036 0 1024 1038 1039 82 1 1032 72037185
5 14 1033 1408 1031 ?1040 1026 1041 5 1042 +0 0 1040 1026 21 81 1 1036 2362 813
 1033 0 1031 1029 1043 1044 81 1 1038 2535 766 1040 1043 0 1031 1045 1046 82 1 1
039 724435087 14 1040 1446 1038 ?1047 1033 1048 5 1049 +0 0 1047 1033 21 81 1 10
43 2363 813 1040 0 1038 1036 1050 1051 81 1 1045 2536 766 1047 1050 0 1038 1052
 1053 82 1 1046 728498319 14 1047 1484 1045 ?1054 1040 1055 5 1056 +0 0 1054 104
0 21 81 1 1050 2364 813 1047 0 1045 1043 1057 1058 81 1 1052 2537 766 1054 1057
 0 1045 1059 1060 82 1 1053 732561551 14 1054 1522 1052 ?0 1047 1061 5 1062 +0 0
 0 1047 21 81 1 1057 2365 813 1054 0 1052 1050 0 1063 81 1 1059 2538 766 679 106
4 0 1052 1065 1066 82 1 1060 736624783 14 679 367 1059 ?683 667 677 5 1067 -0 0
 683 667 21 81 1 1064 2313 813 679 0 1059 1068 1069 1070 81 1 1065 2539 766 667
 1068 0 1059 1071 1072 82 1 1066 630063247 14 667 369 1065 ?679 690 663 5 1073 -
0 0 679 690 21 81 1 1068 2312 813 667 0 1065 1074 1064 1075 81 1 1071 2540 766 6
90 1074 0 1065 1076 1077 82 1 1072 630325391 14 690 371 1071 ?667 17 669 5 18 -0
 0 667 17 21 81 1 1074 2311 813 690 0 1071 1078 1068 1079 81 1 1076 2541 766 17
 1078 0 1071 0 1080 82 1 1077 630587535 14 17 373 1076 ?690 673 691 5 6 -0 0 690
 673 21 81 1 1078 2310 813 17 0 1076 1081 1074 1082 82 1 1080 630849679 80 1 813
 0 1083 8001 0 0 0 0 3 5 0 0 0 FFFFTFTFFFFFFF2 81 1 1081 2309 813 673 0 776 775
 1078 1084 83 255 3 1082 1 1 1 81 1 776 2488 766 673 1081 0 773 784 1085 81 1 77
5 2308 813 15 0 773 0 1081 1086 83 3 1084 1 1 1 83 3 1086 1 1 1 81 1 784 2489 76
6 697 821 0 776 786 1087 82 1 1085 770703503 81 1 821 2329 813 697 0 784 1088 81
8 1089 81 1 786 2490 766 702 1088 0 784 788 1090 82 1 1087 625868943 81 1 1088 2
328 813 702 0 786 1091 821 1092 81 1 788 2491 766 706 1091 0 786 790 1093 82 1 1
090 626131087 81 1 1091 2327 813 706 0 788 1094 1088 1095 81 1 790 2492 766 712
 1094 0 788 792 1096 82 1 1093 626393231 81 1 1094 2326 813 712 0 790 1097 1091
 1098 81 1 792 2493 766 717 1097 0 790 794 1099 82 1 1096 626655375 81 1 1097 23
25 813 717 0 792 1100 1094 1101 81 1 794 2494 766 721 1100 0 792 796 1102 82 1 1
099 626917519 81 1 1100 2324 813 721 0 794 1103 1097 1104 81 1 796 2495 766 727
 1103 0 794 798 1105 82 1 1102 627179663 81 1 1103 2323 813 727 0 796 1106 1100
 1107 81 1 798 2496 766 732 1106 0 796 800 1108 82 1 1105 627441807 81 1 1106 23
22 813 732 0 798 1109 1103 1110 81 1 800 2497 766 736 1109 0 798 802 1111 82 1 1
108 627703951 81 1 1109 2321 813 736 0 800 1112 1106 1113 81 1 802 2498 766 742
 1112 0 800 804 1114 82 1 1111 627966095 81 1 1112 2320 813 742 0 802 1115 1109
 1116 81 1 804 2499 766 747 1115 0 802 806 1117 82 1 1114 628228239 81 1 1115 23
19 813 747 0 804 815 1112 1118 82 1 1117 628490383 81 1 815 2318 813 751 0 806 8
08 1115 1119 83 3 1118 1 1 1 83 3 1119 1 1 1 83 3 1116 1 1 1 83 3 1113 1 1 1 83
 3 1110 1 1 1 83 3 1107 1 1 1 83 3 1104 1 1 1 83 3 1101 1 1 1 83 3 1098 1 1 1 83
 3 1095 1 1 1 83 3 1092 1 1 1 83 3 1089 1 1 1 79 255 15 1083 SDL/TYSA_COLOUR83 3
 1079 1 1 1 50 18 392 0 690 1073 6 0 +-.3025 .113764 .006 1 0 0 0 0 -1 51 1073 3
91 0 667 1067 18 0 --.283764 -.113764 .006 0 0 -1 .018736 -1 0 0 50 1067 390 0 6
79 772 1073 0 +-.283764 -.1325 .006 183490953667951e-30 1 0 -1 183490953667951e-
30 0 50 772 389 0 683 765 1067 0 +-.1325 -.283764 .006 1 0 0 0 0 -1 83 3 1075 1
 1 1 81 1 1069 2314 813 683 0 771 1064 767 1120 83 3 1070 1 1 1 81 1 771 2486 76
6 683 1069 0 768 773 1121 81 1 767 2315 813 763 0 764 1069 814 1122 83 3 1120 1
 1 1 81 1 814 2316 813 761 0 768 767 808 1123 83 3 1122 1 1 1 81 1 768 2485 766
 761 814 0 764 771 1124 83 3 1123 1 1 1 82 1 1124 629276815 82 1 1121 629801103
 83 3 1063 1 1 1 15 1061 1525 0 1125 1054 1126 51 1062 1535 0 1054 0 1056 0 -.11
25 .2825 .006 0 0 -1 .0015 -1 0 0 51 1056 1497 0 1047 1062 1049 0 --.1125 .2825
 .006 0 0 -1 .0015 -1 0 0 51 1049 1459 0 1040 1056 1042 0 -.2825 .1125 .006 0 0
 -1 .001500000000000025 -1 0 0 51 1042 1421 0 1033 1049 1035 0 -.2825 -.1125 .00
6 0 0 -1 .001500000000000025 -1 0 0 51 1035 1383 0 1026 1042 1028 0 -.1125 -.282
5 .006 0 0 -1 .0015 -1 0 0 51 1028 1345 0 1019 1035 1021 0 --.1125 -.2825 .006 0
 0 -1 .0015 -1 0 0 51 1021 1307 0 1012 1028 1014 0 --.2825 -.1125 .006 0 0 -1 .0
01500000000000025 -1 0 0 51 1014 1269 0 1006 1021 1007 0 --.2825 .1125 .006 0 0
 -1 .001500000000000025 -1 0 0 50 1007 1091 0 999 1014 1001 0 +-.1085 .2785 .006
 0 -1 0 0 0 -1 50 1001 1090 0 992 1007 994 0 +-.1085 .2925 .006 1 0 0 0 0 -1 50
 994 1089 0 985 1001 987 0 +-.1085 .2925 .006 0 -1 0 0 0 -1 50 987 1088 0 978 99
4 980 0 +.1085 .2925 .006 -1 0 0 0 0 1 50 980 1087 0 971 987 973 0 +.1085 .2785
 .006 0 -1 0 0 0 -1 50 973 1086 0 964 980 966 0 +.1225 .2785 .006 -1 -8896017825
52209e-31 0 889601782552209e-31 -1 0 50 966 1085 0 957 973 959 0 +.1225 .1225 .0
06 0 -1 0 0 0 -1 50 959 1084 0 950 966 952 0 +.2785 .1225 .006 -1 0 0 0 0 1 50 9
52 1083 0 943 959 945 0 +.2785 .1085 .006 0 -1 0 0 0 -1 50 945 1082 0 936 952 93
8 0 +.2925 .1085 .006 -1 0 0 0 0 1 50 938 1081 0 929 945 931 0 +.2925 -.1085 .00
6 0 1 0 0 0 1 50 931 1080 0 922 938 924 0 +.2785 -.1085 .006 -1 0 0 0 0 1 50 924
 1079 0 915 931 917 0 +.2785 -.1225 .006 -889601782552209e-31 1 0 -1 -8896017825
52209e-31 0 50 917 1078 0 908 924 910 0 +.1225 -.1225 .006 -1 -889601782552209e-
31 0 889601782552209e-31 -1 0 50 910 1077 0 901 917 903 0 +.1225 -.2785 .006 0 1
 0 0 0 1 50 903 1076 0 894 910 896 0 +.1085 -.2785 .006 -1 0 0 0 0 1 50 896 1075
 0 887 903 889 0 +-.1085 -.2925 .006 0 1 0 0 0 1 50 889 1074 0 880 896 882 0 +-.
1085 -.2785 .006 1 0 0 0 0 -1 50 882 1073 0 873 889 875 0 +-.1225 -.2785 .006 0
 1 0 0 0 1 50 875 1072 0 866 882 868 0 +-.1225 -.2785 .006 1 889601782552209e-31
 0 -889601782552209e-31 1 0 50 868 1071 0 859 875 861 0 +-.2785 -.1225 .006 0 1
 0 0 0 1 50 861 1070 0 852 868 854 0 +-.2785 -.1085 .006 1 0 0 0 0 -1 50 854 106
9 0 845 861 847 0 +-.2925 -.1085 .006 0 1 0 0 0 1 50 847 1068 0 838 854 840 0 +-
.2925 .1085 .006 1 0 0 0 0 -1 50 840 1067 0 831 847 833 0 +-.2785 .1085 .006 0 -
1 0 0 0 -1 50 833 1066 0 826 840 781 0 +-.2785 .1225 .006 1 0 0 0 0 -1 50 781 10
65 0 332 833 780 0 +-.2785 .1225 .006 0 -1 0 0 0 -1 17 1125 0 1061 1125 1125 0 1
127 1128 0 0 +15 1126 1526 0 1129 1054 0 17 1129 0 1126 1129 1129 0 1130 1131 0
 0 -17 1130 0 1132 1130 1130 0 1129 1131 0 0 +16 1131 1516 0 ?1130 1128 0 1133 0
 0 1 16 1128 1519 0 ?1125 1134 1131 1135 0 0 1 31 1133 1538 0 1131 1135 1136 0 +
.1125 .2825 0 0 0 1 1 0 0 .0015 31 1135 1539 0 1128 0 1133 0 +.1125 .2825 .006 0
 0 1 1 0 0 .0015 31 1136 1501 0 1137 1133 1138 0 +-.1125 .2825 .006 0 0 1 1 0 0
 .0015 16 1137 1481 0 ?1139 1140 1134 1136 0 0 1 31 1138 1500 0 1134 1136 1141 0
 +-.1125 .2825 0 0 0 1 1 0 0 .0015 16 1134 1478 0 ?1142 1137 1128 1138 0 0 1 31
 1141 1463 0 1143 1138 1144 0 +.2825 .1125 .006 0 0 1 1 0 0 .001500000000000025
 16 1143 1443 0 ?1145 1146 1140 1141 0 0 1 31 1144 1462 0 1140 1141 1147 0 +.282
5 .1125 0 0 0 1 1 0 0 .001500000000000025 16 1140 1440 0 ?1148 1143 1137 1144 0
 0 1 31 1147 1425 0 1149 1144 1150 0 +.2825 -.1125 .006 0 0 1 1 0 0 .00150000000
0000025 16 1149 1405 0 ?1151 1152 1146 1147 0 0 1 31 1150 1424 0 1146 1147 1153
 0 +.2825 -.1125 0 0 0 1 1 0 0 .001500000000000025 16 1146 1402 0 ?1154 1149 114
3 1150 0 0 1 31 1153 1387 0 1155 1150 1156 0 +.1125 -.2825 .006 0 0 1 1 0 0 .001
5 16 1155 1367 0 ?1157 1158 1152 1153 0 0 1 31 1156 1386 0 1152 1153 1159 0 +.11
25 -.2825 0 0 0 1 1 0 0 .0015 16 1152 1364 0 ?1160 1155 1149 1156 0 0 1 31 1159
 1349 0 1161 1156 1162 0 +-.1125 -.2825 .006 0 0 1 1 0 0 .0015 16 1161 1329 0 ?1
163 1164 1158 1159 0 0 1 31 1162 1348 0 1158 1159 1165 0 +-.1125 -.2825 0 0 0 1
 1 0 0 .0015 16 1158 1326 0 ?1166 1161 1155 1162 0 0 1 31 1165 1311 0 1167 1162
 1168 0 +-.2825 -.1125 .006 0 0 1 1 0 0 .001500000000000025 16 1167 1291 0 ?1169
 1170 1164 1165 0 0 1 31 1168 1310 0 1164 1165 1171 0 +-.2825 -.1125 0 0 0 1 1 0
 0 .001500000000000025 16 1164 1288 0 ?1172 1167 1161 1168 0 0 1 31 1171 1273 0
 398 1168 346 0 +-.2825 .1125 .006 0 0 1 1 0 0 .001500000000000025 16 398 1253 0
 ?1173 38 1170 1171 0 0 1 31 346 1272 0 1170 1171 330 0 +-.2825 .1125 0 0 0 1 1
 0 0 .001500000000000025 16 1170 1250 0 ?1174 398 1167 346 0 0 1 17 1174 0 1175
 1174 1174 0 1176 1170 0 0 +15 1175 1238 0 1174 673 670 17 1176 0 1177 1176 1176
 0 1174 1170 0 0 -15 1177 1260 0 1176 1006 0 17 1173 0 1013 1173 1173 0 1178 398
 0 0 +15 1013 1259 0 1173 1006 1177 17 1178 0 340 1178 1178 0 1173 398 0 0 -15 3
40 1245 0 1178 15 1179 15 1179 1283 0 1180 15 1181 17 1180 0 1179 1180 1180 0 11
69 1167 0 0 -15 1181 1321 0 1182 15 1183 17 1182 0 1181 1182 1182 0 1163 1161 0
 0 -15 1183 1359 0 1184 15 1185 17 1184 0 1183 1184 1184 0 1157 1155 0 0 -15 118
5 1397 0 1186 15 1187 17 1186 0 1185 1186 1186 0 1151 1149 0 0 -15 1187 1435 0 1
188 15 1189 17 1188 0 1187 1188 1188 0 1145 1143 0 0 -15 1189 1473 0 1190 15 119
1 17 1190 0 1189 1190 1190 0 1139 1137 0 0 -15 1191 1511 0 1127 15 0 17 1127 0 1
191 1127 1127 0 1125 1128 0 0 -17 1139 0 1055 1139 1139 0 1190 1137 0 0 +15 1055
 1487 0 1139 1047 1192 15 1192 1488 0 1193 1047 0 17 1193 0 1192 1193 1193 0 114
2 1134 0 0 -17 1142 0 778 1142 1142 0 1193 1134 0 0 +15 778 1466 0 1142 673 1194
 15 1194 1390 0 1154 673 1195 17 1154 0 1194 1154 1154 0 1196 1146 0 0 +15 1195
 1314 0 1166 673 1175 17 1166 0 1195 1166 1166 0 1197 1158 0 0 +17 1197 0 1198 1
197 1197 0 1166 1158 0 0 -15 1198 1336 0 1197 1019 0 17 1196 0 1199 1196 1196 0
 1154 1146 0 0 -15 1199 1412 0 1196 1033 0 17 1145 0 1048 1145 1145 0 1188 1143
 0 0 +15 1048 1449 0 1145 1040 1200 15 1200 1450 0 1201 1040 0 17 1201 0 1200 12
01 1201 0 1148 1140 0 0 -17 1148 0 1202 1148 1148 0 1201 1140 0 0 +15 1202 1428
 0 1148 673 1132 15 1132 1504 0 1130 673 0 17 1151 0 1041 1151 1151 0 1186 1149
 0 0 +15 1041 1411 0 1151 1033 1199 17 1157 0 1034 1157 1157 0 1184 1155 0 0 +15
 1034 1373 0 1157 1026 1203 15 1203 1374 0 1204 1026 0 17 1204 0 1203 1204 1204
 0 1160 1152 0 0 -17 1160 0 1205 1160 1160 0 1204 1152 0 0 +15 1205 1352 0 1160
 673 1202 17 1163 0 1027 1163 1163 0 1182 1161 0 0 +15 1027 1335 0 1163 1019 119
8 17 1169 0 1020 1169 1169 0 1180 1167 0 0 +15 1020 1297 0 1169 1012 1206 15 120
6 1298 0 1207 1012 0 17 1207 0 1206 1207 1207 0 1172 1164 0 0 -17 1172 0 1208 11
72 1172 0 1207 1164 0 0 +15 1208 1276 0 1172 673 1205 83 3 1058 1 1 1 83 3 1051
 1 1 1 83 3 1044 1 1 1 83 3 1037 1 1 1 83 3 1030 1 1 1 83 3 1023 1 1 1 83 3 1016
 1 1 1 83 3 1009 1 1 1 15 26 1055 0 28 999 0 17 28 0 26 24 39 161 476 329 0 474
 -17 39 0 26 28 27 25 35 324 0 476 +17 476 0 674 37 474 25 28 329 0 0 +17 474 0
 674 476 471 161 1209 472 0 0 +15 674 460 0 476 673 1208 17 471 0 674 474 468 16
4 1210 469 0 0 +17 1209 0 1000 1211 29 164 474 472 0 471 -15 1000 1051 0 1209 99
2 0 17 1211 0 1000 31 1209 243 166 479 0 1212 -17 29 0 1000 1209 31 161 24 30 0
 28 +17 31 0 1000 29 1211 11 1212 393 0 326 +17 1212 0 325 1213 326 243 31 393 0
 0 -17 326 0 325 1212 319 11 27 395 0 0 -17 27 0 26 39 24 104 326 395 0 35 +17 1
213 0 325 1214 1212 246 245 391 0 0 -17 1214 0 325 1215 1213 249 248 389 0 0 -17
 245 0 993 166 1216 243 1213 391 0 1211 +15 993 1047 0 1210 985 0 17 166 0 993 1
210 245 164 1211 479 0 1209 +17 1216 0 993 245 1210 246 169 481 0 1213 -17 1210
 0 993 1216 166 167 471 469 0 468 -17 169 0 986 1217 248 167 1216 481 0 1210 +15
 986 1043 0 1217 978 0 17 1217 0 986 1218 169 170 468 466 0 465 -17 248 0 986 16
9 1218 246 1214 389 0 1216 +17 1218 0 986 248 1217 249 172 483 0 1214 -17 172 0
 979 1219 251 170 1218 483 0 1217 +15 979 1039 0 1219 971 0 17 1219 0 979 1220 1
72 173 465 463 0 462 -17 251 0 979 172 1220 249 1215 387 0 1218 +17 1220 0 979 2
51 1219 252 175 485 0 1215 -17 1215 0 325 1221 1214 252 251 387 0 0 -17 1221 0 3
25 1222 1215 255 254 385 0 0 -17 1222 0 325 1223 1221 258 257 383 0 0 -17 254 0
 972 175 1224 252 1221 385 0 1220 +15 972 1035 0 1225 964 0 17 175 0 972 1225 25
4 173 1220 485 0 1219 +17 1224 0 972 254 1225 255 178 487 0 1221 -17 1225 0 972
 1224 175 176 462 460 0 459 -17 178 0 965 1226 257 176 1224 487 0 1225 +15 965 1
031 0 1226 957 0 17 1226 0 965 1227 178 179 459 457 0 456 -17 257 0 965 178 1227
 255 1222 383 0 1224 +17 1227 0 965 257 1226 258 181 489 0 1222 -17 181 0 958 12
28 260 179 1227 489 0 1226 +15 958 1027 0 1228 950 0 17 1228 0 958 1229 181 182
 456 454 0 453 -17 260 0 958 181 1229 258 1223 381 0 1227 +17 1229 0 958 260 122
8 261 184 491 0 1223 -17 1223 0 325 1230 1222 261 260 381 0 0 -17 1230 0 325 123
1 1223 264 263 379 0 0 -17 1231 0 325 1232 1230 267 266 377 0 0 -17 263 0 951 18
4 1233 261 1230 379 0 1229 +15 951 1023 0 1234 943 0 17 184 0 951 1234 263 182 1
229 491 0 1228 +17 1233 0 951 263 1234 264 187 493 0 1230 -17 1234 0 951 1233 18
4 185 453 451 0 450 -17 187 0 944 1235 266 185 1233 493 0 1234 +15 944 1019 0 12
35 936 0 17 1235 0 944 1236 187 188 450 448 0 447 -17 266 0 944 187 1236 264 123
1 377 0 1233 +17 1236 0 944 266 1235 267 190 495 0 1231 -17 190 0 937 1237 269 1
88 1236 495 0 1235 +15 937 1015 0 1237 929 0 17 1237 0 937 1238 190 191 447 445
 0 444 -17 269 0 937 190 1238 267 1232 375 0 1236 +17 1238 0 937 269 1237 270 19
3 497 0 1232 -17 1232 0 325 1239 1231 270 269 375 0 0 -17 1239 0 325 1240 1232 2
73 272 373 0 0 -17 1240 0 325 1241 1239 276 275 371 0 0 -17 272 0 930 193 1242 2
70 1239 373 0 1238 +15 930 1011 0 1243 922 0 17 193 0 930 1243 272 191 1238 497
 0 1237 +17 1242 0 930 272 1243 273 196 499 0 1239 -17 1243 0 930 1242 193 194 4
44 442 0 441 -17 196 0 923 1244 275 194 1242 499 0 1243 +15 923 1007 0 1244 915
 0 17 1244 0 923 1245 196 197 441 439 0 438 -17 275 0 923 196 1245 273 1240 371
 0 1242 +17 1245 0 923 275 1244 276 199 501 0 1240 -17 199 0 916 1246 278 197 12
45 501 0 1244 +15 916 1003 0 1246 908 0 17 1246 0 916 1247 199 200 438 436 0 435
 -17 278 0 916 199 1247 276 1241 369 0 1245 +17 1247 0 916 278 1246 279 202 503
 0 1241 -17 1241 0 325 1248 1240 279 278 369 0 0 -17 1248 0 325 1249 1241 282 28
1 367 0 0 -17 1249 0 325 1250 1248 285 284 365 0 0 -17 281 0 909 202 1251 279 12
48 367 0 1247 +15 909 999 0 1252 901 0 17 202 0 909 1252 281 200 1247 503 0 1246
 +17 1251 0 909 281 1252 282 205 505 0 1248 -17 1252 0 909 1251 202 203 435 433
 0 432 -17 205 0 902 1253 284 203 1251 505 0 1252 +15 902 995 0 1253 894 0 17 12
53 0 902 1254 205 206 432 430 0 429 -17 284 0 902 205 1254 282 1249 365 0 1251 +
17 1254 0 902 284 1253 285 208 507 0 1249 -17 208 0 895 1255 287 206 1254 507 0
 1253 +15 895 991 0 1255 887 0 17 1255 0 895 1256 208 209 429 427 0 426 -17 287
 0 895 208 1256 285 1250 363 0 1254 +17 1256 0 895 287 1255 288 211 509 0 1250 -
17 1250 0 325 1257 1249 288 287 363 0 0 -17 1257 0 325 1258 1250 291 290 361 0 0
 -17 1258 0 325 1259 1257 294 293 359 0 0 -17 290 0 888 211 1260 288 1257 361 0
 1256 +15 888 987 0 1261 880 0 17 211 0 888 1261 290 209 1256 509 0 1255 +17 126
0 0 888 290 1261 291 214 511 0 1257 -17 1261 0 888 1260 211 212 426 424 0 423 -1
7 214 0 881 1262 293 212 1260 511 0 1261 +15 881 983 0 1262 873 0 17 1262 0 881
 1263 214 215 423 421 0 420 -17 293 0 881 214 1263 291 1258 359 0 1260 +17 1263
 0 881 293 1262 294 217 513 0 1258 -17 217 0 874 1264 296 215 1263 513 0 1262 +1
5 874 979 0 1264 866 0 17 1264 0 874 1265 217 218 420 418 0 417 -17 296 0 874 21
7 1265 294 1259 357 0 1263 +17 1265 0 874 296 1264 297 220 515 0 1259 -17 1259 0
 325 1266 1258 297 296 357 0 0 -17 1266 0 325 1267 1259 300 299 355 0 0 -17 1267
 0 325 1268 1266 303 302 353 0 0 -17 299 0 867 220 1269 297 1266 355 0 1265 +15
 867 975 0 1270 859 0 17 220 0 867 1270 299 218 1265 515 0 1264 +17 1269 0 867 2
99 1270 300 223 517 0 1266 -17 1270 0 867 1269 220 221 417 415 0 414 -17 223 0 8
60 1271 302 221 1269 517 0 1270 +15 860 971 0 1271 852 0 17 1271 0 860 1272 223
 224 414 412 0 411 -17 302 0 860 223 1272 300 1267 353 0 1269 +17 1272 0 860 302
 1271 303 226 519 0 1267 -17 226 0 853 1273 305 224 1272 519 0 1271 +15 853 967
 0 1273 845 0 17 1273 0 853 1274 226 227 411 409 0 408 -17 305 0 853 226 1274 30
3 1268 351 0 1272 +17 1274 0 853 305 1273 306 229 521 0 1268 -17 1268 0 325 1275
 1267 306 305 351 0 0 -17 1275 0 325 341 1268 309 308 349 0 0 -17 341 0 325 339
 1275 312 311 344 0 0 -17 308 0 846 229 1276 306 1275 349 0 1274 +15 846 963 0 1
277 838 0 17 229 0 846 1277 308 227 1274 521 0 1273 +17 1276 0 846 308 1277 309
 232 523 0 1275 -17 1277 0 846 1276 229 230 408 406 0 405 -17 232 0 839 1278 311
 230 1276 523 0 1277 +15 839 959 0 1278 831 0 17 1278 0 839 1279 232 233 405 403
 0 402 -17 311 0 839 232 1279 309 341 344 0 1276 +17 1279 0 839 311 1278 312 235
 525 0 341 -17 235 0 832 1280 314 233 1279 525 0 1278 +15 832 955 0 1280 826 0 1
7 1280 0 832 333 235 236 402 400 0 334 -17 314 0 832 235 333 312 339 342 0 1279
 +17 333 0 832 314 1280 315 238 337 0 339 -17 238 0 331 241 317 236 333 337 0 12
80 +17 402 0 674 405 334 233 1280 400 0 0 +17 334 0 674 402 37 236 241 335 0 0 +
17 37 0 674 334 476 239 32 38 0 0 +17 405 0 674 408 402 230 1278 403 0 0 +17 408
 0 674 411 405 227 1277 406 0 0 +17 411 0 674 414 408 224 1273 409 0 0 +17 414 0
 674 417 411 221 1271 412 0 0 +17 417 0 674 420 414 218 1270 415 0 0 +17 420 0 6
74 423 417 215 1264 418 0 0 +17 423 0 674 426 420 212 1262 421 0 0 +17 426 0 674
 429 423 209 1261 424 0 0 +17 429 0 674 432 426 206 1255 427 0 0 +17 432 0 674 4
35 429 203 1253 430 0 0 +17 435 0 674 438 432 200 1252 433 0 0 +17 438 0 674 441
 435 197 1246 436 0 0 +17 441 0 674 444 438 194 1244 439 0 0 +17 444 0 674 447 4
41 191 1243 442 0 0 +17 447 0 674 450 444 188 1237 445 0 0 +17 450 0 674 453 447
 185 1235 448 0 0 +17 453 0 674 456 450 182 1234 451 0 0 +17 456 0 674 459 453 1
79 1228 454 0 0 +17 459 0 674 462 456 176 1226 457 0 0 +17 462 0 674 465 459 173
 1225 460 0 0 +17 465 0 674 468 462 170 1219 463 0 0 +17 468 0 674 471 465 167 1
217 466 0 0 +83 3 1003 1 1 1 83 3 996 1 1 1 83 3 989 1 1 1 83 3 982 1 1 1 83 3 9
75 1 1 1 83 3 968 1 1 1 83 3 961 1 1 1 83 3 954 1 1 1 83 3 947 1 1 1 83 3 940 1
 1 1 83 3 933 1 1 1 83 3 926 1 1 1 83 3 919 1 1 1 83 3 912 1 1 1 83 3 905 1 1 1
 83 3 898 1 1 1 83 3 891 1 1 1 83 3 884 1 1 1 83 3 877 1 1 1 83 3 870 1 1 1 83 3
 863 1 1 1 83 3 856 1 1 1 83 3 849 1 1 1 83 3 842 1 1 1 83 3 835 1 1 1 83 3 828
 1 1 1 83 3 823 1 1 1 82 1 817 628752527 83 3 816 1 1 1 79 14 812 SWEntUnchanged
82 1 777 771227791 82 1 769 629538959 17 143 0 686 140 146 141 760 542 0 758 +17
 140 0 686 137 143 138 757 544 0 752 +17 137 0 686 134 140 135 750 546 0 748 +17
 134 0 686 131 137 132 746 548 0 744 +17 131 0 686 128 134 129 743 550 0 737 +17
 128 0 686 125 131 126 735 552 0 733 +17 125 0 686 122 128 123 731 554 0 729 +17
 122 0 686 119 125 120 728 556 0 722 +17 119 0 686 116 122 117 720 558 0 718 +17
 116 0 686 113 119 114 716 560 0 714 +17 113 0 686 110 116 111 713 562 0 707 +17
 110 0 686 107 113 108 705 564 0 703 +17 107 0 686 40 110 41 701 566 0 699 +17 4
0 0 686 530 107 33 698 568 0 692 +17 688 0 691 611 689 33 530 528 0 0 -19 16 415
 0 1 0 9 5 S0 74 4 CI16 index_map_offset0 0 1 dCCZ20 14 3 0 0 1076 2 1057 0 0 0
 0 0 0 0 0 0 0 0 0 0 0 0 0 0 80 2 12 1281 1282 8004 0 0 0 0 3 5 0 0 0 FFTFFFFFFF
FFFF2 3 83 1 13 1 79 16 1282 SDL/TYSA_DENSITY1 0 
