**ABCDEFGHIJKLMNOPQRSTUVWXYZabcdefghijklmnopqrstuvwxyz**************************
**PARASOLID !"#$%&'()*+,-./:;<=>?@[\]^_`{|}~0123456789**************************
**PART1;
MC=AMD64;
MC_MODEL=Intel64 Family 6 Model 158 Stepping 10, GenuineIntel;
MC_ID=unknown;
OS=Windows_NT;
OS_RELEASE=unknown;
FRU=Parasolid Version 30.0, build 226,  7-26-2017;
APPL=SOLIDWORKS 2018-2017278;
SITE=;
USER=unknown;
FORMAT=text;
GUISE=transmit;
KEY=Grupo 2 capa 3;
FILE=Grupo 2 capa 3.x_t;
DATE=Thu Jun  6 12:30:21 2019;
**PART2;
SCH=SCH_3000226_30000;
USFLD_SIZE=0;
**PART3;
**END_OF_HEADER*****************************************************************
T51 : TRANSMIT FILE created by modeller version 300022623 SCH_3000226_30000_1300
6205 0 12 33 CCCCCCI4 mesh1006 0 I8 polyline1008 0 CCCCCCCDI5 owner1040 0 CCCCCC
I13 boundary_mesh1006 0 I17 boundary_polyline1008 0 CCCA16 index_map_offset0 0 1
 dA9 index_map82 0 A17 node_id_index_map82 0 A20 schema_embedding_map82 0 A5 chi
ld12 0 A14 lowest_node_id0 0 1 dZ1 760 2 3 0 0 0 0 0 0 1e3 1e-8 0 4 0 1 0 1 1 5
 6 7 8 0 0 9 10 11 0 0 0 0 0 0 81 255 2 2 579 12 1 0 0 0 0 13 0 70 11 CI9 list_t
ype0 0 1 uI10 notransmit0 0 1 lCCCDCCDI12 finger_index0 0 1 dI12 finger_block101
2 0 CZ3 0 4 T1 0 0 3 20 1 14 14 13 255 5 174 0 1 0 15 0 0 16 0 51 255 6 165 0 17
 18 0 0 -.1671448818174325 .053762164788374 .003 0 0 -1 .01400000000000014 -1 0
 0 30 255 7 173 0 10 19 0 0 +.1698254826870995 .0675031392435407 .003 0 0 -1 29
 255 8 126 0 20 21 0 .1808858562725995 .0564427656580404 0 19 8 CCCCCCCA5 owner1
2 0 Z9 52 0 1 16 0 22 V0 16 255 10 141 0 ?23 0 24 7 0 0 1 18 255 11 49 0 25 0 26
 27 ?1 17 255 25 0 28 29 30 11 31 32 0 33 +18 26 46 0 30 11 34 35 ?1 29 27 51 0
 11 35 36 .1808858562725995 .0564427656580404 .003 29 35 48 0 26 37 27 .18088585
62725995 -.0514364871710588 .003 29 36 133 0 38 27 39 .1698254826870995 .0675031
392435407 0 18 38 116 0 40 41 0 36 ?1 29 39 132 0 41 36 42 -.1601745173129005 .0
675031392435407 0 18 41 115 0 43 44 38 39 ?1 29 42 131 0 44 39 45 -.171234890898
3005 .0564427656581409 0 18 44 114 0 46 47 41 42 ?1 29 45 130 0 47 42 48 -.17123
48908983005 -.0514364871710593 0 18 47 113 0 49 50 44 45 ?1 29 48 129 0 50 45 51
 -.1601745173129005 -.0624968607564593 0 18 50 112 0 52 53 47 48 ?1 29 51 128 0
 53 48 21 .1698254826870995 -.0624968607564592 0 18 53 111 0 54 55 50 51 ?1 29 2
1 127 0 55 51 8 .1808858562725995 -.0514364871710588 0 18 55 110 0 56 20 53 21 ?
1 17 56 0 57 58 59 55 60 61 0 62 +18 20 109 0 63 64 55 8 ?1 17 63 0 65 33 62 20
 66 67 0 68 +18 64 28 0 69 70 20 71 ?1 17 69 0 72 23 73 64 74 75 0 29 -18 70 31
 0 74 76 64 77 ?1 29 71 30 0 64 0 77 .1698254826870995 .0675031392435407 .003 29
 77 33 0 70 71 78 -.1601745173129005 .0675031392435407 .003 29 78 36 0 76 77 79
 -.1712348908983005 .0564427656581409 .003 18 76 34 0 80 81 70 78 ?1 29 79 39 0
 81 78 82 -.1712348908983005 -.0514364871710593 .003 18 81 37 0 83 84 76 79 ?1 2
9 82 42 0 84 79 37 -.1601745173129005 -.0624968607564593 .003 18 84 40 0 85 34 8
1 82 ?1 29 37 45 0 34 82 35 .1698254826870995 -.0624968607564592 .003 18 34 43 0
 86 26 84 37 ?1 17 86 0 28 30 85 34 87 88 0 89 +15 255 28 3 0 29 15 90 17 30 0 2
8 25 86 26 91 92 0 58 +17 85 0 28 86 83 84 93 94 0 95 +17 87 0 96 97 89 84 86 88
 0 0 -16 88 19 0 ?86 92 94 98 0 0 1 17 89 0 96 87 54 34 59 99 0 91 -15 96 146 0
 54 100 0 17 54 0 96 89 97 53 101 102 0 59 +17 59 0 57 56 91 53 89 99 0 60 +16 9
9 136 0 ?59 103 104 105 0 0 1 17 91 0 57 59 58 34 30 92 0 0 -15 57 144 0 56 106
 0 17 58 0 57 91 56 26 62 104 0 31 -16 92 22 0 ?30 32 88 107 0 0 1 16 32 25 0 ?2
5 108 92 109 0 0 1 31 255 107 23 0 92 98 109 0 +.167144881817453 -.0487558863012
886 .003 0 0 1 1 0 0 .014 30 98 20 0 88 110 107 0 +-.1601745173129005 -.06249686
07564593 .003 1 1682156097916905e-31 0 30 109 26 0 32 107 111 0 +.18088585627259
95 -.0514364871710588 .003 0 1 0 31 111 125 0 112 109 113 0 +.1671448818174325 .
053762164788374 0 0 0 1 1 0 0 .01400000000000014 16 112 105 0 ?114 115 116 111 0
 0 1 30 113 124 0 115 111 117 0 +.1698254826870995 .0675031392435407 0 -1 0 0 16
 115 101 0 ?43 118 112 113 0 0 1 31 117 123 0 118 113 119 0 +-.15749391644315 .0
537621647883903 0 0 0 1 1 0 0 .014 16 118 97 0 ?46 120 115 117 0 0 1 30 119 122
 0 120 117 121 0 +-.1712348908983005 .0564427656581409 0 0 -1 0 16 120 93 0 ?49
 122 118 119 0 0 1 31 121 121 0 122 119 123 0 +-.15749391644315 -.04875588630130
9 0 0 0 1 1 0 0 .014 16 122 89 0 ?52 102 120 121 0 0 1 30 123 120 0 102 121 124
 0 +-.1601745173129005 -.0624968607564593 0 1 1682156097916905e-31 0 16 102 85 0
 ?54 61 122 123 0 0 1 31 124 119 0 61 123 125 0 +.167144881817453 -.048755886301
2886 0 0 0 1 1 0 0 .014 16 61 81 0 ?56 67 102 124 0 0 1 30 125 118 0 67 124 126
 0 +.1808858562725995 -.0514364871710588 0 0 1 0 16 67 77 0 ?63 127 61 125 0 0 1
 30 126 166 0 108 125 128 0 +.1808858562725995 .0564427656580404 .003 0 0 -1 16
 108 134 0 ?68 104 32 126 0 0 1 30 128 167 0 104 126 105 0 +.1808858562725995 -.
0514364871710588 .003 0 0 -1 16 104 135 0 ?62 99 108 128 0 0 1 30 105 168 0 99 1
28 129 0 +.1698254826870995 -.0624968607564592 .003 0 0 -1 30 129 169 0 103 105
 130 0 +-.1601745173129005 -.0624968607564593 .003 0 0 -1 16 103 137 0 ?97 131 9
9 129 0 0 1 30 130 170 0 131 129 132 0 +-.1712348908983005 -.0514364871710593 .0
03 0 0 -1 16 131 138 0 ?133 134 103 130 0 0 1 30 132 171 0 134 130 19 0 +-.17123
48908983005 .0564427656581409 .003 0 0 -1 16 134 139 0 ?135 24 131 132 0 0 1 30
 19 172 0 24 132 7 0 +-.1601745173129005 .0675031392435407 .003 0 0 -1 16 24 140
 0 ?136 10 134 19 0 0 1 17 136 0 137 46 138 41 73 24 0 139 +15 137 152 0 46 140
 0 17 46 0 137 141 136 44 139 118 0 135 +17 138 0 137 136 141 70 80 142 0 0 -17
 73 0 72 69 43 70 136 24 0 138 -17 139 0 143 40 144 41 46 118 0 0 -15 143 76 0 1
45 146 147 17 40 0 143 145 139 38 43 115 0 23 -17 144 0 143 139 148 44 49 120 0
 0 -17 148 0 143 144 101 47 52 122 0 0 -17 49 0 149 150 135 47 144 120 0 133 +15
 149 150 0 49 151 0 17 150 0 149 152 49 81 133 131 0 93 -17 135 0 149 49 152 44
 141 134 0 144 +17 133 0 153 52 93 47 150 131 0 148 +15 153 148 0 52 154 0 17 52
 0 153 95 133 50 148 122 0 97 +17 93 0 153 133 95 81 85 94 0 0 -17 95 0 153 93 5
2 84 97 103 0 87 -16 94 16 0 ?85 88 155 110 0 0 1 16 155 13 0 ?83 94 142 156 0 0
 1 31 110 17 0 94 156 98 0 +-.15749391644315 -.048755886301309 .003 0 0 1 1 0 0
 .014 30 156 14 0 155 157 110 0 +-.1712348908983005 .0564427656581409 .003 0 -1
 0 31 157 11 0 142 158 156 0 +-.15749391644315 .0537621647883903 .003 0 0 1 1 0
 0 .014 16 142 10 0 ?80 155 75 157 0 0 1 30 158 8 0 75 159 157 0 +.1698254826870
995 .0675031392435407 .003 -1 0 0 16 75 7 0 ?74 142 127 158 0 0 1 31 159 5 0 127
 160 158 0 +.1671448818174325 .053762164788374 .003 0 0 1 1 0 0 .014000000000000
14 16 127 4 0 ?29 75 67 159 0 0 1 31 160 230 0 161 162 159 0 +-.1149448908983006
 .02345313924354065 0 0 0 1 1 0 0 .0015 16 161 208 0 ?163 116 164 160 0 0 1 31 1
62 231 0 116 165 160 0 +-.1149448908983006 .02345313924354065 .003 0 0 1 1 0 0 .
0015 16 116 211 0 ?166 112 161 162 0 0 1 31 165 268 0 167 168 162 0 +-.121804890
8983004 -.0184568607564593 0 0 0 1 1 0 0 .0015 16 167 246 0 ?169 164 170 165 0 0
 1 31 168 269 0 164 171 165 0 +-.1218048908983004 -.0184568607564593 .003 0 0 1
 1 0 0 .0015 16 164 249 0 ?172 161 167 168 0 0 1 31 171 306 0 173 174 168 0 +-.0
3335489089830055 .02345313924354065 0 0 0 1 1 0 0 .0015 16 173 284 0 ?175 170 17
6 171 0 0 1 31 174 307 0 170 177 171 0 +-.03335489089830055 .02345313924354065 .
003 0 0 1 1 0 0 .0015 16 170 287 0 ?178 167 173 174 0 0 1 31 177 344 0 179 180 1
74 0 +-.0402148908983005 -.0184568607564593 0 0 0 1 1 0 0 .0015 16 179 322 0 ?18
1 176 182 177 0 0 1 31 180 345 0 176 183 177 0 +-.0402148908983005 -.01845686075
64593 .003 0 0 1 1 0 0 .0015 16 176 325 0 ?184 173 179 180 0 0 1 31 183 382 0 18
5 186 180 0 +.0482351091016995 .02345313924354065 0 0 0 1 1 0 0 .0015 16 185 360
 0 ?187 182 188 183 0 0 1 31 186 383 0 182 189 183 0 +.0482351091016995 .0234531
3924354065 .003 0 0 1 1 0 0 .0015 16 182 363 0 ?190 179 185 186 0 0 1 31 189 420
 0 191 192 186 0 +.0413751091016995 -.0184568607564593 0 0 0 1 1 0 0 .0015 16 19
1 398 0 ?193 188 194 189 0 0 1 31 192 421 0 188 195 189 0 +.0413751091016995 -.0
184568607564593 .003 0 0 1 1 0 0 .0015 16 188 401 0 ?196 185 191 192 0 0 1 31 19
5 458 0 197 198 192 0 +.1298251091016994 .02345313924354065 0 0 0 1 1 0 0 .0015
 16 197 436 0 ?199 194 200 195 0 0 1 31 198 459 0 194 201 195 0 +.12982510910169
94 .02345313924354065 .003 0 0 1 1 0 0 .0015 16 194 439 0 ?202 191 197 198 0 0 1
 31 201 496 0 203 204 198 0 +.1229651091016994 -.0184568607564593 0 0 0 1 1 0 0
 .0015 16 203 474 0 ?205 200 0 201 0 0 1 31 204 497 0 200 0 201 0 +.122965109101
6994 -.0184568607564593 .003 0 0 1 1 0 0 .0015 16 200 477 0 ?206 197 203 204 0 0
 1 17 206 0 207 206 206 0 208 200 0 0 +15 207 483 0 206 209 210 17 208 0 211 208
 208 0 206 200 0 0 -15 211 468 0 208 15 0 14 255 15 471 212 ?146 0 213 5 214 +0
 0 146 0 22 81 1 212 743 215 15 216 0 0 217 218 14 146 465 217 ?17 15 143 5 219
 -0 0 17 15 22 15 213 430 0 220 15 221 50 255 214 2 0 15 222 219 0 +.16714488181
74325 .053762164788374 .003 0 0 1 1 0 0 13 22 53 0 0 0 0 0 0 9 15 51 222 227 0 2
23 224 214 0 --.1149448908983006 .02345313924354065 .003 0 0 -1 .0015 -1 0 0 50
 219 117 0 146 214 225 0 +.1671448818174325 .053762164788374 0 0 0 1 1 0 0 50 22
5 158 0 226 219 227 0 +.1808858562725995 -.0514364871710588 .003 -1 0 0 0 0 1 14
 226 143 228 ?223 106 65 5 225 -0 0 223 106 22 51 227 159 0 106 225 229 0 -.1671
44881817453 -.0487558863012886 .003 0 0 -1 .014 -1 0 0 14 106 145 230 ?226 100 5
7 5 227 -0 0 226 100 22 50 229 160 0 100 227 231 0 +-.1601745173129005 -.0624968
607564593 .003 -1682156097916905e-31 1 0 -1 -1682156097916905e-31 0 14 100 147 2
32 ?106 154 96 5 229 -0 0 106 154 22 51 231 161 0 154 229 233 0 --.1574939164431
5 -.048755886301309 .003 0 0 -1 .014 -1 0 0 14 154 149 234 ?100 151 153 5 231 -0
 0 100 151 22 50 233 162 0 151 231 235 0 +-.1712348908983005 .0564427656581409 .
003 1 0 0 0 0 -1 14 151 151 236 ?154 140 149 5 233 -0 0 154 140 22 51 235 163 0
 140 233 18 0 --.15749391644315 .0537621647883903 .003 0 0 -1 .014 -1 0 0 14 140
 153 237 ?151 238 137 5 235 -0 0 151 238 22 50 18 164 0 238 235 6 0 +.1698254826
870995 .0675031392435407 .003 0 -1 0 0 0 -1 14 238 155 239 ?140 17 72 5 18 -0 0
 140 17 22 81 1 239 751 215 238 240 0 237 241 242 14 17 157 241 ?238 146 243 5 6
 -0 0 238 146 22 15 72 154 0 43 238 0 17 43 0 72 73 23 41 40 115 0 136 +17 23 0
 72 43 69 38 244 10 0 114 +17 244 0 243 245 114 64 23 10 0 0 -17 114 0 243 244 6
8 38 145 112 0 0 +15 243 156 0 114 17 0 17 68 0 243 114 245 20 33 108 0 145 +17
 145 0 143 66 40 20 114 112 0 0 -17 66 0 143 60 145 55 63 67 0 0 -17 60 0 143 10
1 66 53 56 61 0 0 -17 101 0 143 148 60 50 54 102 0 0 -17 245 0 243 68 244 11 29
 127 0 0 -17 33 0 65 31 63 11 68 108 0 245 -15 65 142 0 63 226 0 17 31 0 65 62 3
3 26 25 32 0 0 -17 62 0 65 63 31 55 58 104 0 66 +17 29 0 28 74 25 64 245 127 0 2
44 +17 74 0 28 80 29 70 69 75 0 73 +17 80 0 28 83 74 76 138 142 0 141 +17 83 0 2
8 85 80 81 152 155 0 150 +17 141 0 137 138 46 76 135 134 0 152 -17 152 0 149 135
 150 76 83 155 0 0 -81 1 241 752 215 17 246 0 239 247 248 80 255 1 215 249 250 9
000 1 1 1 1 1 1 1 1 0 FFFFTFTFFFFFFF1 81 1 246 689 251 17 0 241 252 240 253 81 1
 247 753 215 223 254 0 241 255 256 82 255 1 248 662110320 14 223 214 247 ?257 22
6 258 5 222 +0 0 257 226 22 81 1 254 697 251 223 0 247 259 260 261 81 1 255 754
 215 257 260 0 247 262 263 82 1 256 614269040 14 257 252 255 ?264 223 265 5 224
 +0 0 264 223 22 81 1 260 698 251 257 0 255 254 266 267 81 1 262 755 215 264 266
 0 255 268 269 82 1 263 618397808 14 264 290 262 ?270 257 271 5 272 +0 0 270 257
 22 81 1 266 699 251 264 0 262 260 273 274 81 1 268 756 215 270 273 0 262 275 27
6 82 1 269 622461040 14 270 328 268 ?277 264 278 5 279 +0 0 277 264 22 81 1 273
 700 251 270 0 268 266 280 281 81 1 275 757 215 277 280 0 268 282 283 82 1 276 6
26524272 14 277 366 275 ?284 270 285 5 286 +0 0 284 270 22 81 1 280 701 251 277
 0 275 273 287 288 81 1 282 758 215 284 287 0 275 289 290 82 1 283 630587504 14
 284 404 282 ?291 277 292 5 293 +0 0 291 277 22 81 1 287 702 251 284 0 282 280 2
94 295 81 1 289 759 215 291 294 0 282 296 297 82 1 290 634650736 14 291 442 289
 ?209 284 298 5 299 +0 0 209 284 22 81 1 294 703 251 291 0 289 287 300 301 81 1
 296 760 215 209 300 0 289 0 302 82 1 297 638713968 14 209 480 296 ?0 291 207 5
 303 +0 0 0 291 22 81 1 300 704 251 209 0 296 294 0 304 82 1 302 642777200 80 1
 251 0 305 8001 0 0 0 0 3 5 0 0 0 FFFFTFTFFFFFFF2 83 255 3 304 1 1 1 79 255 15 3
05 SDL/TYSA_COLOUR51 303 493 0 209 0 299 0 -.1229651091016994 -.0184568607564593
 .003 0 0 -1 .0015 -1 0 0 51 299 455 0 291 303 293 0 -.1298251091016994 .0234531
3924354065 .003 0 0 -1 .0015 -1 0 0 51 293 417 0 284 299 286 0 -.041375109101699
5 -.0184568607564593 .003 0 0 -1 .0015 -1 0 0 51 286 379 0 277 293 279 0 -.04823
51091016995 .02345313924354065 .003 0 0 -1 .0015 -1 0 0 51 279 341 0 270 286 272
 0 --.0402148908983005 -.0184568607564593 .003 0 0 -1 .0015 -1 0 0 51 272 303 0
 264 279 224 0 --.03335489089830055 .02345313924354065 .003 0 0 -1 .0015 -1 0 0
 51 224 265 0 257 272 222 0 --.1218048908983004 -.0184568607564593 .003 0 0 -1 .
0015 -1 0 0 83 3 301 1 1 1 15 298 445 0 202 291 306 17 202 0 298 202 202 0 220 1
94 0 0 +15 306 446 0 307 291 0 17 307 0 306 307 307 0 199 197 0 0 -17 199 0 308
 199 199 0 307 197 0 0 +15 308 425 0 199 146 309 15 309 463 0 205 146 0 17 205 0
 309 205 205 0 310 203 0 0 +17 310 0 210 310 310 0 205 203 0 0 -15 210 484 0 310
 209 0 17 220 0 213 220 220 0 202 194 0 0 -83 3 295 1 1 1 15 292 407 0 196 284 3
11 17 196 0 292 196 196 0 312 188 0 0 +15 311 408 0 313 284 0 17 313 0 311 313 3
13 0 193 191 0 0 -17 193 0 314 193 193 0 313 191 0 0 +15 314 387 0 193 146 308 1
7 312 0 315 312 312 0 196 188 0 0 -15 315 392 0 312 15 211 83 3 288 1 1 1 15 285
 369 0 190 277 316 17 190 0 285 190 190 0 317 182 0 0 +15 316 370 0 318 277 0 17
 318 0 316 318 318 0 187 185 0 0 -17 187 0 319 187 187 0 318 185 0 0 +15 319 349
 0 187 146 314 17 317 0 221 317 317 0 190 182 0 0 -15 221 354 0 317 15 320 15 32
0 278 0 321 15 322 17 321 0 320 321 321 0 178 170 0 0 -15 322 202 0 323 15 28 17
 323 0 322 323 323 0 166 116 0 0 -17 166 0 258 166 166 0 323 116 0 0 +15 258 217
 0 166 223 324 15 324 218 0 325 223 0 17 325 0 324 325 325 0 163 161 0 0 -17 163
 0 147 163 163 0 325 161 0 0 +15 147 197 0 163 146 326 15 326 235 0 169 146 327
 17 169 0 326 169 169 0 328 167 0 0 +15 327 273 0 175 146 329 17 175 0 327 175 1
75 0 330 173 0 0 +15 329 311 0 181 146 319 17 181 0 329 181 181 0 331 179 0 0 +1
7 331 0 332 331 331 0 181 179 0 0 -15 332 332 0 331 270 0 17 330 0 333 330 330 0
 175 173 0 0 -15 333 294 0 330 264 0 17 328 0 334 328 328 0 169 167 0 0 -15 334
 256 0 328 257 0 17 178 0 271 178 178 0 321 170 0 0 +15 271 293 0 178 264 333 83
 3 281 1 1 1 15 278 331 0 184 270 332 17 184 0 278 184 184 0 335 176 0 0 +17 335
 0 336 335 335 0 184 176 0 0 -15 336 316 0 335 15 315 83 3 274 1 1 1 83 3 267 1
 1 1 15 265 255 0 172 257 334 17 172 0 265 172 172 0 337 164 0 0 +17 337 0 90 33
7 337 0 172 164 0 0 -15 90 240 0 337 15 336 81 1 259 696 251 226 0 228 338 254 3
39 83 3 261 1 1 1 81 1 228 745 215 226 259 0 217 230 340 81 1 338 695 251 106 0
 230 341 259 342 83 3 339 1 1 1 81 1 230 746 215 106 338 0 228 232 343 81 1 341
 694 251 100 0 232 344 338 345 83 3 342 1 1 1 81 1 232 747 215 100 341 0 230 234
 346 81 1 344 693 251 154 0 234 347 341 348 83 3 345 1 1 1 81 1 234 748 215 154
 344 0 232 236 349 81 1 347 692 251 151 0 236 350 344 351 83 3 348 1 1 1 81 1 23
6 749 215 151 347 0 234 237 352 81 1 350 691 251 140 0 237 240 347 353 83 3 351
 1 1 1 81 1 237 750 215 140 350 0 236 239 354 81 1 240 690 251 238 0 239 246 350
 355 83 3 353 1 1 1 83 3 355 1 1 1 82 1 354 661586032 82 1 352 661323888 82 1 34
9 661061744 82 1 346 660799600 82 1 343 660537456 81 1 217 744 215 146 252 0 212
 228 356 82 1 340 660275312 81 1 252 688 251 146 0 217 216 246 357 82 1 356 6747
58768 81 1 216 687 251 15 0 212 0 252 358 83 3 357 1 1 1 83 3 358 1 1 1 83 3 253
 1 1 1 79 14 250 SWEntUnchanged82 1 242 661848176 82 1 218 675283056 17 97 0 96
 54 87 50 95 103 0 101 +19 16 175 0 1 0 9 5 S0 74 4 CI16 index_map_offset0 0 1 d
CCZ20 14 3 0 0 296 2 300 0 0 0 0 0 0 0 0 0 0 0 0 0 0 0 0 0 80 2 12 359 360 8004
 0 0 0 0 3 5 0 0 0 FFTFFFFFFFFFFF2 3 83 1 13 1 79 16 360 SDL/TYSA_DENSITY1 0 
