**ABCDEFGHIJKLMNOPQRSTUVWXYZabcdefghijklmnopqrstuvwxyz**************************
**PARASOLID !"#$%&'()*+,-./:;<=>?@[\]^_`{|}~0123456789**************************
**PART1;
MC=AMD64;
MC_MODEL=Intel64 Family 6 Model 158 Stepping 10, GenuineIntel;
MC_ID=unknown;
OS=Windows_NT;
OS_RELEASE=unknown;
FRU=Parasolid Version 30.0, build 226,  7-26-2017;
APPL=SOLIDWORKS 2018-2017278;
SITE=;
USER=unknown;
FORMAT=text;
GUISE=transmit;
KEY=Grupo 3 capa 2;
FILE=Grupo 3 capa 2.x_t;
DATE=Thu Jun  6 12:31:25 2019;
**PART2;
SCH=SCH_3000226_30000;
USFLD_SIZE=0;
**PART3;
**END_OF_HEADER*****************************************************************
T51 : TRANSMIT FILE created by modeller version 300022623 SCH_3000226_30000_1300
6205 0 10 19 CCCCCCCI4 mesh1006 0 I8 polyline1008 0 CCCCCCCCCCZ1 5 2 3 0 0 0 0 0
 0 0 1e3 1e-8 0 0 0 1 0 1 4 81 255 2 2 5 5 1 0 0 0 0 0 0 70 11 CI9 list_type0 0
 1 uI10 notransmit0 0 1 lCCCDCCDI12 finger_index0 0 1 dI12 finger_block1012 0 CZ
3 0 4 T1 0 0 1 20 1 6 6 11 255 4 3 0 1 7 8 1 9 0 0 0 12 33 CCCCCCI4 mesh1006 0 I
8 polyline1008 0 CCCCCCCDI5 owner1040 0 CCCCCCI13 boundary_mesh1006 0 I17 bounda
ry_polyline1008 0 CCCA16 index_map_offset0 0 1 dA9 index_map82 0 A17 node_id_ind
ex_map82 0 A20 schema_embedding_map82 0 A5 child12 0 A14 lowest_node_id0 0 1 dZ7
 499 10 11 0 0 0 0 0 0 1e3 1e-8 4 12 0 1 0 1 1 13 14 15 16 0 0 17 18 19 0 0 0 0
 0 0 100 255 8 4 4 0 0 1 0 0 0 1 0 0 0 1 0 0 0 1 0 ?11 9 1 0 1 12 20 1 0 4 0 0 1
2 12 450 21 22 0 0 0 0 0 0 1e3 1e-8 9 23 7 1 0 1 1 24 25 26 27 0 0 28 29 30 0 0
 0 0 0 0 100 20 2 9 0 0 1 0 0 0 1 0 0 0 1 0 0 0 1 0 ?81 1 21 450 31 12 32 0 0 0
 0 70 22 0 4 T12 0 0 4 20 1 33 33 13 255 24 280 0 12 0 34 0 0 35 0 51 255 25 269
 0 36 37 0 0 --.02814287448708425 .08431 .006 0 0 -1 .0015 -1 0 0 30 255 26 279
 0 29 38 0 0 +.04079712551291575 .0813610739736891 .006 0 0 -1 29 255 27 210 0 3
9 40 0 -.0472228744870842 .0813610739736892 0 19 8 CCCCCCCA5 owner12 0 Z28 86 0
 12 35 0 41 V0 16 255 29 229 0 ?42 0 43 26 0 0 12 18 255 30 81 0 44 0 45 46 ?12
 17 255 44 0 47 48 49 30 50 51 0 52 +18 45 78 0 49 30 53 54 ?12 29 46 83 0 30 54
 55 -.0472228744870842 .0813610739736892 .006 29 54 80 0 45 56 46 -.051923948460
7734 .07666 .006 29 55 219 0 57 46 58 .04079712551291575 .0813610739736891 0 18
 57 196 0 59 60 0 55 ?12 29 58 218 0 60 55 61 .04326696285697255 .08066 0 18 60
 195 0 62 63 57 58 ?12 29 61 217 0 63 58 64 .0542135333779145 .08066 0 18 63 194
 0 65 66 60 61 ?12 29 64 216 0 66 61 67 .0407971255129158 .09066 0 18 66 193 0 6
8 69 63 64 ?12 29 67 215 0 69 64 70 -.0472228744870842 .09066 0 18 69 192 0 71 7
2 66 67 ?12 29 70 214 0 72 67 73 -.0612228744870842 .07666 0 18 72 191 0 74 75 6
9 70 ?12 29 73 213 0 75 70 76 -.0612228744870842 -.06565 0 18 75 190 0 77 78 72
 73 ?12 29 76 212 0 78 73 40 -.0519239484607734 -.06565 0 18 78 189 0 79 80 75 7
6 ?12 29 40 211 0 80 76 27 -.0519239484607734 .07666 0 18 80 188 0 81 39 78 40 ?
12 17 81 0 82 83 84 80 85 86 0 87 +18 39 187 0 88 89 80 27 ?12 17 88 0 90 52 87
 39 91 92 0 93 +18 89 54 0 94 95 39 96 ?12 17 94 0 97 42 98 89 99 100 0 48 -18 9
5 57 0 99 101 89 102 ?12 29 96 56 0 89 0 102 .04079712551291575 .081361073973689
1 .006 29 102 59 0 95 96 103 .04326696285697255 .08066 .006 29 103 62 0 101 102
 104 .0542135333779145 .08066 .006 18 101 60 0 105 106 95 103 ?12 29 104 65 0 10
6 103 107 .0407971255129158 .09066 .006 18 106 63 0 108 109 101 104 ?12 29 107 6
8 0 109 104 110 -.0472228744870842 .09066 .006 18 109 66 0 111 112 106 107 ?12 2
9 110 71 0 112 107 113 -.0612228744870842 .07666 .006 18 112 69 0 114 115 109 11
0 ?12 29 113 74 0 115 110 56 -.0612228744870842 -.06565 .006 18 115 72 0 116 53
 112 113 ?12 29 56 77 0 53 113 54 -.0519239484607734 -.06565 .006 18 53 75 0 117
 45 115 56 ?12 17 117 0 47 49 118 53 119 120 0 121 +15 255 47 5 0 48 122 0 17 49
 0 47 44 117 45 123 124 0 83 +17 118 0 47 117 125 115 126 127 0 0 -17 119 0 128
 77 121 115 117 120 0 118 -16 120 42 0 ?117 124 127 129 0 0 12 17 121 0 128 119
 79 53 84 130 0 123 -15 128 234 0 79 131 0 17 79 0 128 121 77 78 132 133 0 84 +1
7 84 0 82 81 123 78 121 130 0 85 +16 130 222 0 ?84 134 135 136 0 0 12 17 123 0 8
2 84 83 53 49 124 0 0 -15 82 232 0 81 137 0 17 83 0 82 123 81 45 87 135 0 50 -16
 124 46 0 ?49 51 120 138 0 0 12 16 51 50 0 ?44 139 124 140 0 0 12 30 138 47 0 12
4 129 140 0 +-.0519239484607734 0 .006 0 1 0 30 129 43 0 120 141 138 0 +0 -.0656
5 .006 1 0 0 31 255 140 51 0 51 138 142 0 --.0472228744870842 .07666 .006 0 0 1
 1 0 0 .00470107397368915 31 142 209 0 143 140 144 0 +-.02814287448708425 .08431
 0 0 0 1 1 0 0 .0015 16 143 182 0 ?145 146 0 142 0 0 12 31 144 208 0 146 142 147
 0 +.0217171255129158 .08431 0 0 0 1 1 0 0 .0015 16 146 177 0 ?148 149 143 144 0
 0 12 30 147 207 0 149 144 150 0 +1282789957308286e-32 .0813610739736891 0 1 -15
76663009294985e-31 0 16 149 172 0 ?151 152 146 147 0 0 12 31 150 206 0 152 147 1
53 0 -.0407971255129158 .07666 0 0 0 1 1 0 0 .00470107397368915 16 152 167 0 ?62
 154 149 150 0 0 12 30 153 205 0 154 150 155 0 +0 .08066 0 1 0 0 16 154 162 0 ?1
56 157 152 153 0 0 12 31 155 204 0 157 153 158 0 -.0407971255129158 .07666 0 0 0
 1 1 0 0 .014 16 157 157 0 ?159 160 154 155 0 0 12 30 158 203 0 160 155 161 0 +-
1429402684226834e-32 .09066 0 1 1576663009294985e-31 0 16 160 152 0 ?162 163 157
 158 0 0 12 31 161 202 0 163 158 164 0 --.0472228744870842 .07666 0 0 0 1 1 0 0
 .014 16 163 147 0 ?165 166 160 161 0 0 12 30 164 201 0 166 161 167 0 +-.0612228
744870842 0 0 0 1 0 16 166 142 0 ?168 133 163 164 0 0 12 30 167 200 0 133 164 16
9 0 +0 -.06565 0 1 0 0 16 133 137 0 ?79 86 166 167 0 0 12 30 169 199 0 86 167 17
0 0 +-.0519239484607734 0 0 0 1 0 16 86 132 0 ?81 92 133 169 0 0 12 31 170 198 0
 92 169 171 0 --.0472228744870842 .07666 0 0 0 1 1 0 0 .00470107397368915 16 92
 127 0 ?88 172 86 170 0 0 12 30 171 270 0 139 170 173 0 +-.0472228744870842 .081
3610739736892 .006 0 0 -1 16 139 220 0 ?93 135 51 171 0 0 12 30 173 271 0 135 17
1 136 0 +-.0519239484607734 .07666 .006 0 0 -1 16 135 221 0 ?87 130 139 173 0 0
 12 30 136 272 0 130 173 174 0 +-.0519239484607734 -.06565 .006 0 0 -1 30 174 27
3 0 134 136 175 0 +-.0612228744870842 -.06565 .006 0 0 -1 16 134 223 0 ?77 176 1
30 174 0 0 12 30 175 274 0 176 174 177 0 +-.0612228744870842 .07666 .006 0 0 -1
 16 176 224 0 ?74 178 134 175 0 0 12 30 177 275 0 178 175 179 0 +-.0472228744870
842 .09066 .006 0 0 -1 16 178 225 0 ?71 180 176 177 0 0 12 30 179 276 0 180 177
 181 0 +.0407971255129158 .09066 .006 0 0 -1 16 180 226 0 ?68 182 178 179 0 0 12
 30 181 277 0 182 179 38 0 +.0542135333779145 .08066 .006 0 0 -1 16 182 227 0 ?6
5 43 180 181 0 0 12 30 38 278 0 43 181 26 0 +.04326696285697255 .08066 .006 0 0
 -1 16 43 228 0 ?183 29 182 38 0 0 12 17 183 0 184 156 185 60 98 43 0 186 +15 18
4 244 0 156 187 0 17 156 0 184 188 183 63 186 154 0 159 +17 185 0 184 183 188 95
 105 189 0 0 -17 98 0 97 94 62 95 183 43 0 185 -17 186 0 190 59 159 60 156 154 0
 0 -15 190 126 0 191 192 0 17 59 0 190 191 186 57 62 152 0 42 -17 159 0 190 186
 162 63 193 157 0 0 +17 162 0 190 159 165 66 194 160 0 0 +17 193 0 195 108 65 66
 159 157 0 162 -15 195 242 0 193 196 0 17 108 0 195 197 193 106 68 180 0 198 -17
 65 0 195 193 197 63 188 182 0 156 +17 197 0 195 65 108 101 198 199 0 0 +17 188
 0 184 185 156 101 65 182 0 197 -17 198 0 47 200 105 106 197 199 0 201 -16 199 2
6 0 ?197 202 189 203 0 0 12 16 202 30 0 ?201 204 199 205 0 0 12 16 189 22 0 ?105
 199 100 206 0 0 12 31 203 27 0 199 206 205 0 -.0407971255129158 .07666 .006 0 0
 1 1 0 0 .014 30 206 23 0 189 207 203 0 +0 .08066 .006 1 0 0 30 205 31 0 202 203
 208 0 +-1429402684226834e-32 .09066 .006 1 1576663009294985e-31 0 31 208 35 0 2
04 205 141 0 --.0472228744870842 .07666 .006 0 0 1 1 0 0 .014 16 204 34 0 ?209 1
27 202 208 0 0 12 30 141 39 0 127 208 129 0 +-.0612228744870842 0 .006 0 1 0 16
 127 38 0 ?126 120 204 141 0 0 12 17 126 0 210 74 116 112 118 127 0 0 +15 210 23
6 0 211 212 0 17 74 0 210 211 126 72 114 176 0 213 +17 116 0 210 126 211 115 77
 134 0 119 -17 211 0 210 116 74 75 168 166 0 0 -17 77 0 128 79 119 75 116 134 0
 132 +17 132 0 190 168 85 75 79 133 0 211 -17 168 0 190 165 132 72 211 166 0 0 +
17 85 0 190 132 91 78 81 86 0 0 -17 91 0 190 85 191 80 88 92 0 0 -17 191 0 190 9
1 59 39 151 149 0 0 -17 151 0 214 215 93 57 191 149 0 0 +15 214 248 0 151 34 0 1
7 215 0 214 216 151 89 42 29 0 0 -17 93 0 214 151 216 39 52 139 0 191 +17 216 0
 214 93 215 30 48 217 0 0 -17 52 0 90 50 88 30 93 139 0 216 -15 90 230 0 88 218
 0 17 50 0 90 87 52 45 44 51 0 0 -17 87 0 90 88 50 80 83 135 0 91 +14 255 218 23
1 219 ?122 36 90 24 220 -0 0 122 36 41 81 1 219 436 221 218 222 0 0 223 224 14 1
22 1 223 ?192 218 225 24 226 +0 0 192 218 41 14 36 255 227 ?218 228 229 24 25 +0
 0 218 228 41 51 220 258 0 218 230 231 0 +-.0472228744870842 .07666 .006 0 0 -1
 .00470107397368915 -1 0 0 13 41 87 0 0 0 0 0 0 28 34 14 34 249 232 ?233 0 214 2
4 234 -0 0 233 0 41 81 1 232 439 221 34 235 0 227 236 237 14 233 247 236 ?187 34
 97 24 238 -0 0 187 34 41 50 255 234 267 0 34 238 37 0 +1282789957308286e-32 .08
13610739736891 .006 1576663009294985e-31 1 0 -1 1576663009294985e-31 0 51 238 26
6 0 233 239 234 0 +.0407971255129158 .07666 .006 0 0 -1 .00470107397368915 -1 0
 0 51 37 268 0 228 234 25 0 -.0217171255129158 .08431 .006 0 0 -1 .0015 -1 0 0 1
4 228 251 240 ?36 137 241 24 37 +0 0 36 137 41 81 1 240 441 221 228 242 0 236 24
3 244 14 137 233 243 ?228 131 82 24 231 -0 0 228 131 41 15 241 250 0 245 228 246
 17 245 0 241 245 245 0 247 248 0 0 +15 246 252 0 249 228 0 17 249 0 246 249 249
 0 148 146 0 0 -17 148 0 250 148 148 0 249 146 0 0 +15 250 125 0 148 192 190 14
 192 123 251 ?0 122 252 24 230 -0 0 0 122 41 81 1 251 443 221 192 253 0 243 254
 255 15 252 124 0 145 192 250 50 230 197 0 192 226 220 0 +0 0 0 0 0 1 1 0 0 50 2
26 2 0 122 0 230 0 +0 0 .006 0 0 1 1 0 0 17 145 0 252 145 145 0 256 143 0 0 +17
 256 0 257 256 256 0 145 143 0 0 -15 257 256 0 256 36 0 80 255 1 221 258 259 900
0 1 1 1 1 1 1 1 1 0 FFFFTFTFFFFFFF1 81 1 253 405 260 192 0 251 261 0 262 81 1 24
3 442 221 137 263 0 240 251 264 81 1 254 444 221 131 265 0 251 266 267 82 255 1
 255 533594275 14 131 235 254 ?137 212 128 24 268 -0 0 137 212 41 81 1 265 399 2
60 131 0 254 269 263 270 81 1 266 445 221 212 269 0 254 271 272 82 1 267 5373953
63 14 212 237 266 ?131 273 210 24 274 +0 0 131 273 41 81 1 269 398 260 212 0 266
 275 265 276 81 1 271 446 221 273 275 0 266 277 278 82 1 272 537657507 14 273 23
9 271 ?212 279 280 24 281 +0 0 212 279 41 81 1 275 397 260 273 0 271 282 269 283
 81 1 277 447 221 279 282 0 271 284 285 82 1 278 537854115 14 279 241 277 ?273 1
96 286 24 287 +0 0 273 196 41 81 1 282 396 260 279 0 277 288 275 289 81 1 284 44
8 221 196 288 0 277 290 291 82 1 285 537985187 14 196 243 284 ?279 187 195 24 29
2 +0 0 279 187 41 81 1 288 395 260 196 0 284 293 282 294 81 1 290 449 221 187 29
3 0 284 0 295 82 1 291 538116259 14 187 245 290 ?196 233 184 24 239 -0 0 196 233
 41 81 1 293 394 260 187 0 290 296 288 297 82 1 295 538247331 80 1 260 0 298 800
1 0 0 0 0 3 5 0 0 0 FFFFTFTFFFFFFF2 81 1 296 393 260 233 0 236 235 293 299 83 25
5 3 297 1 1 1 81 1 236 440 221 233 296 0 232 240 300 81 1 235 392 260 34 0 232 0
 296 301 83 3 299 1 1 1 83 3 301 1 1 1 82 1 300 538575011 79 255 15 298 SDL/TYSA
_COLOUR50 239 265 0 187 292 238 0 +0 .08066 .006 0 1 0 0 0 1 51 292 264 0 196 28
7 239 0 +.0407971255129158 .07666 .006 0 0 -1 .014 -1 0 0 50 287 263 0 279 281 2
92 0 +-1429402684226834e-32 .09066 .006 -1576663009294985e-31 1 0 -1 -1576663009
294985e-31 0 51 281 262 0 273 274 287 0 +-.0472228744870842 .07666 .006 0 0 -1 .
014 -1 0 0 50 274 261 0 212 268 281 0 +-.0612228744870842 0 .006 -1 0 0 0 0 1 50
 268 260 0 131 231 274 0 +0 -.06565 .006 0 1 0 0 0 1 50 231 259 0 137 220 268 0
 +-.0519239484607734 0 .006 -1 0 0 0 0 1 83 3 294 1 1 1 83 3 289 1 1 1 15 286 24
0 0 194 279 0 17 194 0 286 111 68 69 162 160 0 165 -17 111 0 286 201 194 109 71
 178 0 200 -17 68 0 286 194 201 66 108 180 0 193 +17 165 0 190 162 168 69 213 16
3 0 0 +17 213 0 280 114 71 72 165 163 0 168 -15 280 238 0 213 273 0 17 114 0 280
 209 213 112 74 176 0 125 -17 71 0 280 213 209 69 111 178 0 194 +17 209 0 280 71
 114 109 125 204 0 0 +17 125 0 47 118 200 112 209 204 0 126 -17 200 0 47 125 198
 109 201 202 0 209 -17 201 0 286 68 111 106 200 202 0 0 +83 3 283 1 1 1 83 3 276
 1 1 1 81 1 263 400 260 137 0 243 265 242 302 83 3 270 1 1 1 81 1 242 401 260 22
8 0 240 263 303 304 83 3 302 1 1 1 81 1 303 402 260 36 0 227 242 222 305 83 3 30
4 1 1 1 81 1 227 438 221 36 303 0 223 232 306 81 1 222 403 260 218 0 219 303 261
 307 83 3 305 1 1 1 81 1 261 404 260 122 0 223 222 253 308 83 3 307 1 1 1 81 1 2
23 437 221 122 261 0 219 227 309 83 3 308 1 1 1 82 1 309 517734563 82 1 306 5393
61443 82 1 264 537133219 83 3 262 1 1 1 79 14 259 SWEntUnchanged17 247 0 310 247
 247 0 245 248 0 0 -16 248 10 0 ?245 217 172 311 0 0 12 16 217 14 0 ?48 100 248
 312 0 0 12 16 172 6 0 ?313 248 92 314 0 0 12 31 311 11 0 248 314 312 0 +.021717
1255129158 .08431 .006 0 0 1 1 0 0 .0015 31 314 7 0 172 0 311 0 +-.0281428744870
8425 .08431 .006 0 0 1 1 0 0 .0015 30 312 15 0 217 311 207 0 +1282789957308286e-
32 .0813610739736891 .006 1 -1576663009294985e-31 0 31 207 19 0 100 312 206 0 -.
0407971255129158 .07666 .006 0 0 1 1 0 0 .00470107397368915 16 100 18 0 ?99 189
 217 207 0 0 12 17 99 0 47 105 48 95 94 100 0 98 +17 105 0 47 198 99 101 185 189
 0 188 +17 48 0 47 99 44 89 216 217 0 215 +17 313 0 229 313 313 0 315 172 0 0 +1
5 229 254 0 313 36 257 17 315 0 225 315 315 0 313 172 0 0 -15 225 3 0 315 122 31
0 15 310 4 0 247 122 47 82 1 244 539099299 15 97 246 0 62 233 0 17 62 0 97 98 42
 60 59 152 0 183 +17 42 0 97 62 94 57 215 29 0 151 +82 1 237 538837155 82 1 224
 536871075 19 35 281 0 12 0 28 24 S0 74 4 CI16 index_map_offset0 0 1 dCCZ20 33 4
 0 0 290 32 253 21 0 0 0 0 0 0 0 0 0 0 0 0 0 0 0 0 81 2 32 358 316 12 0 21 0 0 3
17 0 80 2 316 318 319 8004 0 0 0 0 3 5 0 0 0 FFTFFFFFFFFFFF2 3 83 1 317 1 79 16
 319 SDL/TYSA_DENSITY80 1 31 320 321 8017 0 0 0 0 0 0 0 0 0 TTTTTTTTTTTTTF3 79 1
3 321 SDL/TYSA_NAME81 1 10 499 31 7 322 0 0 0 0 70 11 0 4 T7 0 0 4 20 1 323 323
 13 13 280 0 7 0 324 0 0 325 0 51 14 269 0 326 327 0 0 +-.0281428744870842 -.084
31 .006 0 0 -1 .0015 -1 0 0 30 15 279 0 18 328 0 0 +-.0472228726483893 -.0813510
841797015 .006 0 0 -1 29 16 210 0 329 330 0 .040461175806316 -.0813510841797015
 0 19 17 86 0 7 325 0 331 V0 16 18 229 0 ?332 0 333 15 0 0 7 18 19 81 0 334 0 33
5 336 ?7 17 334 0 337 338 339 19 340 341 0 342 -18 335 78 0 343 19 344 345 ?7 29
 336 83 0 19 345 346 .040461175806316 -.0813510841797015 .006 29 345 80 0 335 34
7 336 .045498199486605 -.07665 .006 29 346 219 0 348 336 349 -.0472228726483893
 -.0813510841797015 0 18 348 196 0 332 350 0 346 ?7 29 349 218 0 350 346 351 -.0
496927312571502 -.08065 0 18 350 195 0 352 353 348 349 ?7 29 351 217 0 353 349 3
54 -.060639282352083 -.08065 0 18 353 194 0 355 356 350 351 ?7 29 354 216 0 356
 351 357 -.0472228726483893 -.09065 0 18 356 193 0 358 359 353 354 ?7 29 357 215
 0 359 354 360 .0402171273516172 -.09065 0 18 359 192 0 361 362 356 357 ?7 29 36
0 214 0 362 357 363 .0547971255129158 -.07665 0 18 362 191 0 364 365 359 360 ?7
 29 363 213 0 365 360 366 .0547971255129158 .06566 0 18 365 190 0 367 368 362 36
3 ?7 29 366 212 0 368 363 330 .0454981994866049 .06566 0 18 368 189 0 369 370 36
5 366 ?7 29 330 211 0 370 366 16 .045498199486605 -.07665 0 18 370 188 0 371 329
 368 330 ?7 17 371 0 337 339 338 370 372 373 0 374 +18 329 187 0 340 375 370 16
 ?7 17 340 0 376 377 342 329 334 341 0 378 +18 375 54 0 379 380 329 381 ?7 17 37
9 0 376 342 377 375 332 18 0 382 -18 380 57 0 383 384 375 385 ?7 29 381 56 0 375
 0 385 -.0472228726483893 -.0813510841797015 .006 29 385 59 0 380 381 386 -.0496
927312571502 -.08065 .006 29 386 62 0 384 385 387 -.060639282352083 -.08065 .006
 18 384 60 0 388 389 380 386 ?7 29 387 65 0 389 386 390 -.0472228726483893 -.090
65 .006 18 389 63 0 391 392 384 387 ?7 29 390 68 0 392 387 393 .0402171273516172
 -.09065 .006 18 392 66 0 394 395 389 390 ?7 29 393 71 0 395 390 396 .0547971255
129158 -.07665 .006 18 395 69 0 397 398 392 393 ?7 29 396 74 0 398 393 347 .0547
971255129158 .06566 .006 18 398 72 0 399 344 395 396 ?7 29 347 77 0 344 396 345
 .0454981994866049 .06566 .006 18 344 75 0 400 335 398 347 ?7 17 400 0 401 402 4
03 344 369 404 0 405 -15 401 238 0 403 406 0 17 402 0 401 367 400 398 407 408 0
 0 +17 403 0 401 400 367 368 409 410 0 0 -17 369 0 411 374 405 368 400 404 0 412
 +16 404 222 0 ?369 413 373 414 0 0 7 17 405 0 411 369 372 344 343 415 0 407 -15
 411 236 0 374 416 0 17 372 0 411 405 374 335 371 373 0 338 -17 343 0 417 418 40
7 335 405 415 0 372 +16 415 42 0 ?343 419 408 420 0 0 7 17 407 0 417 343 421 344
 402 408 0 0 -15 417 4 0 422 423 424 17 421 0 417 407 397 398 425 426 0 402 -16
 408 38 0 ?402 415 426 427 0 0 7 16 426 34 0 ?425 408 428 429 0 0 7 30 427 39 0
 408 429 420 0 +0 .06566 .006 1 0 0 30 429 35 0 426 430 427 0 +.0547971255129158
 0 .006 0 -1 0 30 420 43 0 415 427 431 0 +.045498199486605 377135973856939e-31 .
006 828903073335838e-30 -1 0 31 431 47 0 419 420 432 0 +.04079713067257325 -.076
6620195829536 .006 0 0 1 1 0 0 .00470108417970116 16 419 46 0 ?338 433 415 431 0
 0 7 31 432 51 0 433 431 434 0 -.0217171255129158 -.08431 .006 0 0 1 1 0 0 .0015
 16 433 50 0 ?435 341 419 432 0 0 7 31 434 209 0 436 432 437 0 --.02814287448708
42 -.08431 0 0 0 1 1 0 0 .0015 16 436 182 0 ?438 439 0 434 0 0 7 30 437 208 0 43
9 434 440 0 +0 -.0813510841797015 0 1 0 0 16 439 177 0 ?378 441 436 437 0 0 7 31
 440 207 0 441 437 442 0 --.0472228744870842 -.07665 0 0 0 1 1 0 0 .004701084179
70165 16 441 172 0 ?443 444 439 440 0 0 7 30 442 206 0 444 440 445 0 +0 -.08065
 0 1 0 0 16 444 167 0 ?446 447 441 442 0 0 7 31 445 205 0 447 442 448 0 --.04722
28744870842 -.07665 0 0 0 1 1 0 0 .014 16 447 162 0 ?449 450 444 445 0 0 7 30 44
8 204 0 450 445 451 0 +0 -.09065 0 -1 0 0 16 450 157 0 ?452 453 447 448 0 0 7 31
 451 203 0 453 448 454 0 +.04079713067257325 -.0766620195829536 0 0 0 1 1 0 0 .0
1399999999999974 16 453 152 0 ?455 456 450 451 0 0 7 30 454 202 0 456 451 457 0
 +.0547971255129158 0 0 0 -1 0 16 456 147 0 ?458 410 453 454 0 0 7 30 457 201 0
 410 454 459 0 +0 .06566 0 1 0 0 16 410 142 0 ?409 460 456 457 0 0 7 30 459 200
 0 460 457 461 0 +.045498199486605 377135973856939e-31 0 828903073335838e-30 -1
 0 16 460 137 0 ?374 462 410 459 0 0 7 31 461 199 0 462 459 463 0 +.040797130672
57325 -.0766620195829536 0 0 0 1 1 0 0 .00470108417970116 16 462 132 0 ?464 465
 460 461 0 0 7 31 463 198 0 465 461 466 0 -.0217171255129158 -.08431 0 0 0 1 1 0
 0 .0015 16 465 127 0 ?467 468 462 463 0 0 7 30 466 270 0 341 463 469 0 +.040461
175806316 -.0813510841797015 .006 0 0 -1 16 341 220 0 ?340 373 433 466 0 0 7 30
 469 271 0 373 466 414 0 +.045498199486605 -.07665 .006 0 0 -1 16 373 221 0 ?371
 404 341 469 0 0 7 30 414 272 0 404 469 470 0 +.0454981994866049 .06566 .006 0 0
 -1 30 470 273 0 413 414 471 0 +.0547971255129158 .06566 .006 0 0 -1 16 413 223
 0 ?367 472 404 470 0 0 7 30 471 274 0 472 470 473 0 +.0547971255129158 -.07665
 .006 0 0 -1 16 472 224 0 ?364 474 413 471 0 0 7 30 473 275 0 474 471 475 0 +.04
02171273516172 -.09065 .006 0 0 -1 16 474 225 0 ?361 476 472 473 0 0 7 30 475 27
6 0 476 473 477 0 +-.0472228726483893 -.09065 .006 0 0 -1 16 476 226 0 ?358 478
 474 475 0 0 7 30 477 277 0 478 475 328 0 +-.060639282352083 -.08065 .006 0 0 -1
 16 478 227 0 ?355 333 476 477 0 0 7 30 328 278 0 333 477 15 0 +-.04969273125715
02 -.08065 .006 0 0 -1 16 333 228 0 ?352 18 478 328 0 0 7 17 352 0 479 480 481 3
50 482 333 0 443 +15 479 248 0 480 483 0 17 480 0 479 388 352 353 446 444 0 449
 -17 481 0 479 352 388 380 484 485 0 0 +17 482 0 486 382 443 380 352 333 0 481 -
17 443 0 486 482 332 350 487 441 0 446 +15 486 250 0 443 488 0 17 332 0 486 443
 382 348 379 18 0 487 +17 487 0 489 378 446 348 443 441 0 377 -17 446 0 489 487
 449 350 480 444 0 0 +15 489 125 0 378 490 491 17 449 0 489 446 452 353 492 447
 0 0 +17 452 0 489 449 493 356 494 450 0 0 +17 492 0 495 391 355 356 449 447 0 4
52 -15 495 246 0 492 496 0 17 391 0 495 497 492 389 358 476 0 498 -17 355 0 495
 492 497 353 388 478 0 480 +17 497 0 495 355 391 384 498 499 0 0 +17 388 0 479 4
81 480 384 355 478 0 484 -17 484 0 417 498 383 384 481 485 0 497 -17 498 0 417 5
00 484 389 497 499 0 501 -17 383 0 417 484 422 380 382 502 0 482 +16 485 18 0 ?4
81 499 502 503 0 0 7 16 499 22 0 ?497 504 485 505 0 0 7 16 502 14 0 ?383 485 506
 507 0 0 7 30 503 19 0 485 507 505 0 +0 -.08065 .006 1 0 0 31 507 15 0 502 508 5
03 0 --.0472228744870842 -.07665 .006 0 0 1 1 0 0 .00470108417970165 31 505 23 0
 499 503 509 0 --.0472228744870842 -.07665 .006 0 0 1 1 0 0 .014 30 509 27 0 504
 505 430 0 +0 -.09065 .006 -1 0 0 16 504 26 0 ?501 428 499 509 0 0 7 31 430 31 0
 428 509 429 0 +.04079713067257325 -.0766620195829536 .006 0 0 1 1 0 0 .01399999
999999974 16 428 30 0 ?397 426 504 430 0 0 7 17 397 0 417 421 500 395 510 428 0
 511 +17 500 0 417 397 498 392 501 504 0 0 -17 510 0 512 361 511 392 397 428 0 5
00 -17 511 0 512 510 455 395 364 472 0 425 -15 512 242 0 455 513 0 17 455 0 512
 511 361 362 493 453 0 458 +17 364 0 514 515 425 362 511 472 0 455 +17 425 0 514
 364 399 395 421 426 0 0 +15 514 240 0 515 516 0 17 399 0 514 425 515 398 367 41
3 0 421 -17 515 0 514 399 364 365 458 456 0 409 -17 367 0 401 403 402 365 399 41
3 0 515 +17 458 0 489 493 409 362 515 456 0 0 +17 409 0 489 458 412 365 403 410
 0 0 +17 412 0 489 409 464 368 374 460 0 403 -17 464 0 489 412 378 370 339 462 0
 0 +17 374 0 411 372 369 370 412 460 0 464 +17 378 0 489 464 487 329 377 439 0 3
39 +17 339 0 337 334 371 329 464 462 0 0 -15 337 234 0 339 517 0 14 517 235 518
 ?326 416 337 13 519 +0 0 326 416 331 81 1 518 485 221 517 520 0 0 521 522 14 32
6 255 521 ?523 517 524 13 14 -0 0 523 517 331 14 416 237 525 ?517 406 411 13 526
 -0 0 517 406 331 51 519 259 0 517 527 526 0 -.04079713067257325 -.0766620195829
536 .006 0 0 -1 .00470108417970116 -1 0 0 13 331 87 0 0 0 0 0 0 17 324 14 324 25
3 528 ?488 0 376 13 327 +0 0 488 0 331 81 1 528 488 221 324 529 0 525 530 531 14
 488 251 530 ?483 324 486 13 532 -0 0 483 324 331 15 376 252 0 377 324 0 50 327
 268 0 324 532 14 0 +0 -.0813510841797015 .006 0 1 0 0 0 1 51 532 267 0 488 533
 327 0 +-.0472228744870842 -.07665 .006 0 0 -1 .00470108417970165 -1 0 0 50 533
 266 0 483 534 532 0 +0 -.08065 .006 0 1 0 0 0 1 14 483 249 535 ?496 488 479 13
 533 +0 0 496 488 331 51 534 265 0 496 536 533 0 +-.0472228744870842 -.07665 .00
6 0 0 -1 .014 -1 0 0 14 496 247 537 ?538 483 495 13 534 +0 0 538 483 331 50 536
 264 0 538 539 534 0 +0 -.09065 .006 0 -1 0 0 0 -1 14 538 245 540 ?513 496 541 1
3 536 +0 0 513 496 331 51 539 263 0 513 542 536 0 -.04079713067257325 -.07666201
95829536 .006 0 0 -1 .01399999999999974 -1 0 0 14 513 243 543 ?516 538 512 13 53
9 -0 0 516 538 331 50 542 262 0 516 544 539 0 +.0547971255129158 0 .006 1 0 0 0
 0 -1 14 516 241 545 ?406 513 514 13 542 +0 0 406 513 331 50 544 261 0 406 526 5
42 0 +0 .06566 .006 0 1 0 0 0 1 14 406 239 546 ?416 516 401 13 544 +0 0 416 516
 331 50 526 260 0 416 519 544 0 +.045498199486605 377135973856939e-31 .006 1 828
903073335838e-30 0 -828903073335838e-30 1 0 81 1 546 495 221 406 547 0 545 548 5
49 81 1 547 448 260 406 0 546 550 551 552 81 1 545 494 221 516 550 0 543 546 553
 81 1 548 496 221 523 554 0 546 555 556 82 1 549 570163363 14 523 231 548 ?423 3
26 557 13 527 -0 0 423 326 331 81 1 554 452 260 523 0 548 558 559 560 81 1 555 4
97 221 423 559 0 548 561 562 82 1 556 569311395 14 423 1 555 ?490 523 563 13 564
 +0 0 490 523 331 81 1 559 453 260 423 0 555 554 565 566 81 1 561 498 221 490 56
5 0 555 0 567 82 1 562 550174883 14 490 123 561 ?0 423 568 13 569 -0 0 0 423 331
 81 1 565 454 260 490 0 561 559 0 570 82 1 567 566100131 83 3 570 1 1 1 15 568 1
24 0 571 490 489 50 569 197 0 490 564 527 0 +0 0 0 0 0 1 1 0 0 50 564 2 0 423 0
 569 0 +0 0 .006 0 0 1 1 0 0 51 527 258 0 523 569 519 0 +.0217171255129158 -.084
31 .006 0 0 -1 .0015 -1 0 0 17 571 0 568 571 571 0 438 436 0 0 -17 438 0 572 438
 438 0 571 436 0 0 +15 572 256 0 438 326 0 83 3 566 1 1 1 15 563 3 0 573 423 417
 17 573 0 563 573 573 0 574 468 0 0 +17 574 0 524 574 574 0 573 468 0 0 -16 468
 6 0 ?573 506 465 575 0 0 7 16 506 10 0 ?342 502 468 508 0 0 7 31 575 7 0 468 0
 508 0 --.0281428744870842 -.08431 .006 0 0 1 1 0 0 .0015 30 508 11 0 506 575 50
7 0 +0 -.0813510841797015 .006 1 0 0 17 342 0 376 340 379 19 422 506 0 418 +17 4
22 0 417 383 418 375 342 506 0 0 -17 418 0 417 422 343 19 338 419 0 0 -17 338 0
 337 371 334 335 418 419 0 0 +15 524 254 0 574 326 572 81 1 558 451 260 326 0 52
1 520 554 576 83 3 560 1 1 1 81 1 521 486 221 326 558 0 518 525 577 81 1 520 450
 260 517 0 518 551 558 578 83 3 576 1 1 1 81 1 551 449 260 416 0 525 547 520 579
 83 3 578 1 1 1 81 1 525 487 221 416 551 0 521 528 580 83 3 579 1 1 1 82 1 580 5
69835683 82 1 577 571801763 15 557 230 0 581 523 582 17 581 0 557 581 581 0 435
 433 0 0 -15 582 232 0 467 523 0 17 467 0 582 467 467 0 583 465 0 0 +17 583 0 49
1 583 583 0 467 465 0 0 -15 491 126 0 583 490 0 17 435 0 424 435 435 0 581 433 0
 0 +15 424 5 0 435 423 0 81 1 550 447 260 516 0 545 584 547 585 81 1 543 493 221
 513 584 0 540 545 586 82 1 553 570359971 81 1 584 446 260 513 0 543 587 550 588
 81 1 540 492 221 538 587 0 537 543 589 82 1 586 570491043 81 1 587 445 260 538
 0 540 590 584 591 81 1 537 491 221 496 590 0 535 540 592 82 1 589 570818723 81
 1 590 444 260 496 0 537 593 587 594 81 1 535 490 221 483 593 0 530 537 595 82 1
 592 571015331 81 1 593 443 260 483 0 535 596 590 597 81 1 530 489 221 488 596 0
 528 535 598 82 1 595 571146403 81 1 596 442 260 488 0 530 529 593 599 82 1 598
 571277475 81 1 529 441 260 324 0 528 0 596 600 83 3 599 1 1 1 83 3 600 1 1 1 83
 3 597 1 1 1 83 3 594 1 1 1 83 3 591 1 1 1 83 3 588 1 1 1 83 3 585 1 1 1 83 3 55
2 1 1 1 15 541 244 0 494 538 0 17 494 0 541 394 358 359 452 450 0 0 -17 394 0 54
1 501 494 392 361 474 0 510 -17 358 0 541 494 501 356 391 476 0 492 +17 501 0 54
1 358 394 389 500 504 0 0 +17 361 0 512 455 510 359 394 474 0 493 +17 493 0 489
 452 458 359 455 453 0 494 -17 377 0 376 379 340 348 378 439 0 0 -82 1 531 57160
5155 82 1 522 569704611 17 382 0 486 332 482 375 383 502 0 422 -19 325 281 0 7 0
 17 13 S0 74 20 323 4 0 0 561 322 565 10 0 0 0 0 0 0 0 0 0 0 0 0 0 0 0 0 81 2 32
2 358 316 7 0 10 0 0 601 0 83 1 601 1 74 20 6 1 0 0 2 0 0 0 0 0 0 0 0 0 0 0 0 0
 0 0 0 0 0 0 80 2 5 602 603 9000 0 0 0 0 3 5 0 0 0 TFFFFFFFFFFFFF9 1 79 18 603 M
ULTI_BODY_ID_20011 0 
