0
SECTION
2
HEADER
9
$INSUNITS
70
4
9
$ACADVER
1
AC1014
9
$HANDSEED
5
FFFF
0
ENDSEC
0
SECTION
2
TABLES
0
TABLE
2
VPORT
5
8
100
AcDbSymbolTable
0
ENDTAB
0
TABLE
2
LTYPE
5
5
100
AcDbSymbolTable
0
LTYPE
5
14
100
AcDbSymbolTableRecord
100
AcDbLinetypeTableRecord
2
BYBLOCK
70
0
0
LTYPE
5
15
100
AcDbSymbolTableRecord
100
AcDbLinetypeTableRecord
2
BYLAYER
70
0
0
ENDTAB
0
TABLE
2
LAYER
5
2
100
AcDbSymbolTable
70
2
0
LAYER
5
50
100
AcDbSymbolTableRecord
100
AcDbLayerTableRecord
2
0
70
0
6
CONTINUOUS
0
ENDTAB
0
TABLE
2
STYLE
5
3
100
AcDbSymbolTable
70
1
0
STYLE
5
11
100
AcDbSymbolTableRecord
100
AcDbTextStyleTableRecord
2
STANDARD
70
0
0
ENDTAB
0
TABLE
2
VIEW
5
6
100
AcDbSymbolTable
70
0
0
ENDTAB
0
TABLE
2
UCS
5
7
100
AcDbSymbolTable
70
0
0
ENDTAB
0
TABLE
2
APPID
5
9
100
AcDbSymbolTable
70
2
0
APPID
5
12
100
AcDbSymbolTableRecord
100
AcDbRegAppTableRecord
2
ACAD
70
0
0
ENDTAB
0
TABLE
2
DIMSTYLE
5
A
100
AcDbSymbolTable
70
1
0
ENDTAB
0
TABLE
2
BLOCK_RECORD
5
1
100
AcDbSymbolTable
70
1
0
BLOCK_RECORD
5
1F
100
AcDbSymbolTableRecord
100
AcDbBlockTableRecord
2
*MODEL_SPACE
0
BLOCK_RECORD
5
1B
100
AcDbSymbolTableRecord
100
AcDbBlockTableRecord
2
*PAPER_SPACE
0
ENDTAB
0
ENDSEC
0
SECTION
2
BLOCKS
0
BLOCK
5
20
100
AcDbEntity
100
AcDbBlockBegin
2
*MODEL_SPACE
0
ENDBLK
5
21
100
AcDbEntity
100
AcDbBlockEnd
0
BLOCK
5
1C
100
AcDbEntity
100
AcDbBlockBegin
2
*PAPER_SPACE
0
ENDBLK
5
1D
100
AcDbEntity
100
AcDbBlockEnd
0
ENDSEC
0
SECTION
2
ENTITIES
0
LWPOLYLINE
5
100
100
AcDbEntity
8
0
100
AcDbPolyline
90
8
70
1
43
0.0
10
-2820.7282748921029
20
-1531.2432868441806
42
-0.41421356237309503
10
-2834.7282748921034
20
-1545.2432868441811
10
-2942.1932737172992
20
-1545.2432868441811
42
-0.41421356237308909
10
-2956.1932737172997
20
-1531.2432868441808
10
-2956.1932737172997
20
-1358.0316527246182
42
-0.41421356237309503
10
-2942.1932737172992
20
-1344.031652724618
10
-2834.7282748921034
20
-1344.031652724618
42
-0.41421356237307722
10
-2820.7282748921029
20
-1358.031652724618
0
LWPOLYLINE
5
101
100
AcDbEntity
8
0
100
AcDbPolyline
90
6
70
1
43
0.0
10
-2906.7157775788683
20
-1396.3429218490492
10
-2902.5890789507084
20
-1392.7201070996894
10
-2905.4449463571682
20
-1389.4475765901291
10
-2925.1347737560682
20
-1389.4475765901291
10
-2929.438365925228
20
-1392.7201070996894
10
-2926.5131422393283
20
-1396.3429218490492
0
LWPOLYLINE
5
102
100
AcDbEntity
8
0
100
AcDbPolyline
90
6
70
1
43
0.0
10
-2856.7157775788683
20
-1396.3429218490492
10
-2852.5890789507084
20
-1392.7201070996894
10
-2855.4449463571682
20
-1389.4475765901291
10
-2875.1347737560682
20
-1389.4475765901291
10
-2879.438365925228
20
-1392.7201070996894
10
-2876.5131422393283
20
-1396.3429218490492
0
LWPOLYLINE
5
103
100
AcDbEntity
8
0
100
AcDbPolyline
90
6
70
1
43
0.0
10
-2897.4892835718583
20
-1496.211877684909
10
-2900.3451509783185
20
-1492.9393471753492
10
-2920.0349783772081
20
-1492.9393471753488
10
-2924.3385705463784
20
-1496.2118776849088
10
-2921.4133468604682
20
-1499.8346924342691
10
-2901.6159822000186
20
-1499.8346924342691
0
LWPOLYLINE
5
104
100
AcDbEntity
8
0
100
AcDbPolyline
90
6
70
1
43
0.0
10
-2871.4133468604682
20
-1499.8346924342691
10
-2851.6159822000186
20
-1499.8346924342691
10
-2847.4892835718583
20
-1496.211877684909
10
-2850.3451509783185
20
-1492.9393471753492
10
-2870.0349783772081
20
-1492.9393471753488
10
-2874.3385705463784
20
-1496.2118776849088
0
SPLINE
5
105
100
AcDbEntity
8
0
100
AcDbSpline
70
0
71
3
72
8
73
4
74
0
42
0.000000001
43
0.0000000001
44
0.0000000001
40
0.29117082447228115
40
0.29117082447228115
40
0.29117082447228115
40
0.29117082447228115
40
0.51259823615306976
40
0.51259823615306976
40
0.51259823615306976
40
0.51259823615306976
10
-2849.4203721364624
20
-1522.120899903839
30
0
10
-2849.2537610287668
20
-1521.8021876217924
30
0
10
-2849.1320886577664
20
-1521.4589845043593
30
0
10
-2849.0362231104705
20
-1521.1035946187744
30
0
0
SPLINE
5
106
100
AcDbEntity
8
0
100
AcDbSpline
70
0
71
3
72
8
73
4
74
0
42
0.000000001
43
0.0000000001
44
0.0000000001
40
-1
40
-1
40
-1
40
-1
40
-0.35957874732783579
40
-0.35957874732783579
40
-0.35957874732783579
40
-0.35957874732783579
10
-2850.3542583684184
20
-1523.223171120289
30
0
10
-2850.3542120040156
20
-1523.2231524028591
30
0
10
-2849.8731017200271
20
-1523.0289269313903
30
0
10
-2849.4203721364643
20
-1522.1208999038388
30
0
0
LINE
5
107
100
AcDbEntity
8
0
100
AcDbLine
10
-2850.3542583684184
20
-1523.223171120289
30
0
11
-2855.2690965359334
21
-1517.678872173974
31
0
0
LINE
5
108
100
AcDbEntity
8
0
100
AcDbLine
10
-2855.2690965359334
20
-1517.678872173974
30
0
11
-2851.9568087651583
21
-1501.0116474796589
31
0
0
LINE
5
109
100
AcDbEntity
8
0
100
AcDbLine
10
-2851.9568087651583
20
-1501.0116474796589
30
0
11
-2847.2388303404837
21
-1497.0546615659227
31
0
0
SPLINE
5
110
100
AcDbEntity
8
0
100
AcDbSpline
70
0
71
3
72
8
73
4
74
0
42
0.000000001
43
0.0000000001
44
0.0000000001
40
-4.3390251015524246
40
-4.3390251015524246
40
-4.3390251015524246
40
-4.3390251015524246
40
-4
40
-4
40
-4
40
-4
10
-2845.2926995871326
20
-1497.81565716003
30
0
10
-2845.5924391858803
20
-1497.3824006825675
30
0
10
-2846.1718153182428
20
-1497.0546615659189
30
0
10
-2847.2388303404882
20
-1497.0546615659189
30
0
0
SPLINE
5
111
100
AcDbEntity
8
0
100
AcDbSpline
70
0
71
3
72
8
73
4
74
0
42
0.000000001
43
0.0000000001
44
0.0000000001
40
0.27092742315070634
40
0.27092742315070634
40
0.27092742315070634
40
0.27092742315070634
40
0.50042363806938917
40
0.50042363806938917
40
0.50042363806938917
40
0.50042363806938917
10
-2845.0150996412508
20
-1498.6093379006134
30
0
10
-2845.0429547472318
20
-1498.2981806752625
30
0
10
-2845.1354880625249
20
-1498.0336204284008
30
0
10
-2845.2926995871321
20
-1497.8156571600293
30
0
0
SPLINE
5
112
100
AcDbEntity
8
0
100
AcDbSpline
70
0
71
3
72
8
73
4
74
0
42
0.000000001
43
0.0000000001
44
0.0000000001
40
-5
40
-5
40
-5
40
-5
40
-4.5301847560220443
40
-4.5301847560220443
40
-4.5301847560220443
40
-4.5301847560220443
10
-2845.1868652641383
20
-1499.9061504191488
30
0
10
-2845.1868473349732
20
-1499.9061037442625
30
0
10
-2844.9450861782548
20
-1499.2767284017013
30
0
10
-2845.0150996412522
20
-1498.6093379006088
30
0
0
LINE
5
113
100
AcDbEntity
8
0
100
AcDbLine
10
-2845.1868652641383
20
-1499.9061504191488
30
0
11
-2848.7748267315683
21
-1519.8243631424089
31
0
0
ELLIPSE
5
114
100
AcDbEntity
8
0
100
AcDbEllipse
10
-2857.8603707478005
20
-1505.0585399291344
30
0
11
-7.0198268736162062
21
18.491241387316247
31
0.0
40
0.32339017041039092
41
3.5525173327007651
42
3.6752030298930203
0
SPLINE
5
115
100
AcDbEntity
8
0
100
AcDbSpline
70
0
71
3
72
31
73
27
74
0
42
0.000000001
43
0.0000000001
44
0.0000000001
40
0
40
0
40
0
40
0
40
0.125
40
0.1875
40
0.25
40
0.3125
40
0.375
40
0.4375
40
0.5
40
0.53125
40
0.5625
40
0.59375
40
0.625
40
0.65625
40
0.671875
40
0.6875
40
0.703125
40
0.71875
40
0.734375
40
0.75
40
0.78125
40
0.8125
40
0.84375
40
0.875
40
0.9375
40
1
40
1
40
1
40
1
10
-2840.6093508194981
20
-1474.0471169900991
30
0
10
-2840.5381853407298
20
-1473.7789280781585
30
0
10
-2840.4438060826515
20
-1473.3563780633085
30
0
10
-2840.3489196635742
20
-1472.7706492719908
30
0
10
-2840.2947596175004
20
-1472.3247483970024
30
0
10
-2840.2592447920283
20
-1471.8767634618025
30
0
10
-2840.2435901156114
20
-1471.431366242957
30
0
10
-2840.2506006323929
20
-1470.9926621789052
30
0
10
-2840.2727221451073
20
-1470.6378357842386
30
0
10
-2840.3108584009965
20
-1470.3591598294545
30
0
10
-2840.363329630447
20
-1470.1478290113246
30
0
10
-2840.4491216748993
20
-1469.9330253765106
30
0
10
-2840.5806441636896
20
-1469.7041262753041
30
0
10
-2840.7228965907952
20
-1469.5628562377035
30
0
10
-2840.8509579100328
20
-1469.522644028086
30
0
10
-2840.9536006429357
20
-1469.5423819830373
30
0
10
-2841.0568295932903
20
-1469.597665762208
30
0
10
-2841.1512969648484
20
-1469.6604378887268
30
0
10
-2841.2384028808083
20
-1469.7267672592991
30
0
10
-2841.3487032041157
20
-1469.8193780315078
30
0
10
-2841.4842491375243
20
-1469.9388479096081
30
0
10
-2841.6469702561353
20
-1470.0859716015614
30
0
10
-2841.8083477152773
20
-1470.2364934791924
30
0
10
-2842.0215805828407
20
-1470.4406399545628
30
0
10
-2842.2833647160173
20
-1470.700561359429
30
0
10
-2842.4857127275081
20
-1470.9097224102829
30
0
10
-2842.5846036473686
20
-1471.013655474319
30
0
0
LINE
5
116
100
AcDbEntity
8
0
100
AcDbLine
10
-2840.6093508194981
20
-1474.0471169900991
30
0
11
-2843.8585874270684
21
-1493.0157091396691
31
0
0
SPLINE
5
117
100
AcDbEntity
8
0
100
AcDbSpline
70
0
71
2
72
6
73
3
74
0
42
0.000000001
43
0.0000000001
44
0.0000000001
40
0
40
0
40
0
40
1
40
1
40
1
10
-2846.8114835678984
20
-1495.802745693019
30
0
10
-2844.2525356619985
20
-1495.5715461512127
30
0
10
-2843.8585874270684
20
-1493.0157091396691
30
0
0
LINE
5
118
100
AcDbEntity
8
0
100
AcDbLine
10
-2846.8114835678984
20
-1495.802745693019
30
0
11
-2850.0701778500384
21
-1492.2471855178092
31
0
0
LINE
5
119
100
AcDbEntity
8
0
100
AcDbLine
10
-2850.0701778500384
20
-1492.2471855178092
30
0
11
-2847.4626619696187
21
-1475.2492925013594
31
0
0
LINE
5
120
100
AcDbEntity
8
0
100
AcDbLine
10
-2847.4626619696187
20
-1475.2492925013594
30
0
11
-2842.5846036473686
21
-1471.013655474319
31
0
0
SPLINE
5
121
100
AcDbEntity
8
0
100
AcDbSpline
70
0
71
2
72
6
73
3
74
0
42
0.000000001
43
0.0000000001
44
0.0000000001
40
0
40
0
40
0
40
1
40
1
40
1
10
-2895.1868652641379
20
-1499.9061504191488
30
0
10
-2894.3708114685483
20
-1497.153323373311
30
0
10
-2897.2388303404882
20
-1497.0546615659189
30
0
0
LINE
5
122
100
AcDbEntity
8
0
100
AcDbLine
10
-2895.1868652641379
20
-1499.9061504191488
30
0
11
-2898.7748267315683
21
-1519.8243631424089
31
0
0
SPLINE
5
123
100
AcDbEntity
8
0
100
AcDbSpline
70
0
71
3
72
8
73
4
74
0
42
0.000000001
43
0.0000000001
44
0.0000000001
40
0
40
0
40
0
40
0
40
0.77196428585873345
40
0.77196428585873345
40
0.77196428585873345
40
0.77196428585873345
10
-2900.3542583684184
20
-1523.223171120289
30
0
10
-2899.2460325897173
20
-1522.4107664977146
30
0
10
-2898.9897860348169
20
-1521.1040404518806
30
0
10
-2898.7748267315696
20
-1519.8243631424184
30
0
0
LINE
5
124
100
AcDbEntity
8
0
100
AcDbLine
10
-2900.3542583684184
20
-1523.223171120289
30
0
11
-2905.2690965359284
21
-1517.678872173969
31
0
0
LINE
5
125
100
AcDbEntity
8
0
100
AcDbLine
10
-2905.2690965359284
20
-1517.678872173969
30
0
11
-2901.9568087651583
21
-1501.0116474796589
31
0
0
LINE
5
126
100
AcDbEntity
8
0
100
AcDbLine
10
-2901.9568087651583
20
-1501.0116474796589
30
0
11
-2897.2388303404878
21
-1497.0546615659187
31
0
0
SPLINE
5
127
100
AcDbEntity
8
0
100
AcDbSpline
70
0
71
3
72
31
73
27
74
0
42
0.000000001
43
0.0000000001
44
0.0000000001
40
0
40
0
40
0
40
0
40
0.125
40
0.1875
40
0.25
40
0.3125
40
0.375
40
0.4375
40
0.5
40
0.53125
40
0.5625
40
0.59375
40
0.625
40
0.65625
40
0.671875
40
0.6875
40
0.703125
40
0.71875
40
0.734375
40
0.75
40
0.78125
40
0.8125
40
0.84375
40
0.875
40
0.9375
40
1
40
1
40
1
40
1
10
-2890.6093508194981
20
-1474.0471169900991
30
0
10
-2890.5381853407307
20
-1473.7789280781578
30
0
10
-2890.4438060826542
20
-1473.3563780633074
30
0
10
-2890.3489196635755
20
-1472.7706492719908
30
0
10
-2890.2947596175018
20
-1472.3247483970008
30
0
10
-2890.2592447920306
20
-1471.8767634618025
30
0
10
-2890.2435901156146
20
-1471.431366242957
30
0
10
-2890.2506006323943
20
-1470.9926621789054
30
0
10
-2890.27272214511
20
-1470.637835784238
30
0
10
-2890.3108584009979
20
-1470.3591598294554
30
0
10
-2890.3633296304456
20
-1470.1478290113237
30
0
10
-2890.4491216748984
20
-1469.9330253765111
30
0
10
-2890.5806441636869
20
-1469.7041262753041
30
0
10
-2890.7228965907912
20
-1469.5628562377035
30
0
10
-2890.8509579100282
20
-1469.5226440280858
30
0
10
-2890.9536006429335
20
-1469.5423819830373
30
0
10
-2891.0568295932876
20
-1469.597665762208
30
0
10
-2891.1512969648484
20
-1469.6604378887275
30
0
10
-2891.2384028808074
20
-1469.7267672592986
30
0
10
-2891.3487032041144
20
-1469.8193780315069
30
0
10
-2891.484249137523
20
-1469.9388479096069
30
0
10
-2891.646970256133
20
-1470.0859716015607
30
0
10
-2891.808347715275
20
-1470.2364934791913
30
0
10
-2892.0215805828384
20
-1470.4406399545612
30
0
10
-2892.2833647160151
20
-1470.7005613594288
30
0
10
-2892.4857127275095
20
-1470.9097224102829
30
0
10
-2892.5846036473686
20
-1471.013655474319
30
0
0
LINE
5
128
100
AcDbEntity
8
0
100
AcDbLine
10
-2890.6093508194981
20
-1474.0471169900991
30
0
11
-2893.8585874270684
21
-1493.0157091396691
31
0
0
SPLINE
5
129
100
AcDbEntity
8
0
100
AcDbSpline
70
0
71
2
72
6
73
3
74
0
42
0.000000001
43
0.0000000001
44
0.0000000001
40
0
40
0
40
0
40
1
40
1
40
1
10
-2896.8114835678989
20
-1495.802745693019
30
0
10
-2894.2525356619985
20
-1495.5715461512127
30
0
10
-2893.8585874270684
20
-1493.0157091396691
30
0
0
LINE
5
130
100
AcDbEntity
8
0
100
AcDbLine
10
-2896.8114835678989
20
-1495.802745693019
30
0
11
-2900.0701778500384
21
-1492.2471855178092
31
0
0
LINE
5
131
100
AcDbEntity
8
0
100
AcDbLine
10
-2900.0701778500384
20
-1492.2471855178092
30
0
11
-2897.4626619696182
21
-1475.2492925013594
31
0
0
LINE
5
132
100
AcDbEntity
8
0
100
AcDbLine
10
-2897.4626619696182
20
-1475.2492925013594
30
0
11
-2892.5846036473686
21
-1471.013655474319
31
0
0
SPLINE
5
133
100
AcDbEntity
8
0
100
AcDbSpline
70
0
71
3
72
25
73
21
74
0
42
0.000000001
43
0.0000000001
44
0.0000000001
40
0
40
0
40
0
40
0
40
0.0625
40
0.125
40
0.1875
40
0.21875
40
0.25
40
0.3125
40
0.34375
40
0.375
40
0.40625
40
0.4375
40
0.46875
40
0.5
40
0.5625
40
0.625
40
0.6875
40
0.75
40
0.875
40
1
40
1
40
1
40
1
10
-2892.9450461299884
20
-1470.0657863218189
30
0
10
-2892.834258101766
20
-1469.9622236916932
30
0
10
-2892.6268609851804
20
-1469.7797829205265
30
0
10
-2892.3516486064918
20
-1469.532542882775
30
0
10
-2892.1480126213646
20
-1469.309757642568
30
0
10
-2891.9951773901907
20
-1469.0962759275831
30
0
10
-2891.8573605775318
20
-1468.8578629569624
30
0
10
-2891.7780967552158
20
-1468.5989885222652
30
0
10
-2891.8302776864211
20
-1468.3456581003165
30
0
10
-2891.9310492519121
20
-1468.1701667687034
30
0
10
-2892.0710350106656
20
-1468.0280625369273
30
0
10
-2892.2355356154253
20
-1467.9239681250522
30
0
10
-2892.4124360278352
20
-1467.8413909046867
30
0
10
-2892.6545177689718
20
-1467.7496576570481
30
0
10
-2892.9686542328582
20
-1467.6664730815241
30
0
10
-2893.353237334768
20
-1467.5984398749165
30
0
10
-2893.7389574712806
20
-1467.549737088636
30
0
10
-2894.2552818298827
20
-1467.508994906369
30
0
10
-2894.9027601487478
20
-1467.4959786933439
30
0
10
-2895.420503238081
20
-1467.5121841587313
30
0
10
-2895.6786643367582
20
-1467.523423309839
30
0
0
LINE
5
134
100
AcDbEntity
8
0
100
AcDbLine
10
-2892.9450461299884
20
-1470.0657863218189
30
0
11
-2898.255004919838
21
-1474.835957098129
31
0
0
LINE
5
135
100
AcDbEntity
8
0
100
AcDbLine
10
-2898.255004919838
20
-1474.835957098129
30
0
11
-2916.1205519982286
21
-1474.835957098129
31
0
0
LINE
5
136
100
AcDbEntity
8
0
100
AcDbLine
10
-2916.1205519982286
20
-1474.835957098129
30
0
11
-2920.6819533679186
21
-1468.8453960305592
31
0
0
SPLINE
5
137
100
AcDbEntity
8
0
100
AcDbSpline
70
0
71
3
72
8
73
4
74
0
42
0.000000001
43
0.0000000001
44
0.0000000001
40
0
40
0
40
0
40
0
40
1
40
1
40
1
40
1
10
-2920.6819533679186
20
-1468.8453960305592
30
0
10
-2919.8104746879335
20
-1467.6580931360352
30
0
10
-2918.0558865800385
20
-1467.4796893079031
30
0
10
-2916.7125323633481
20
-1467.523423309839
30
0
0
LINE
5
138
100
AcDbEntity
8
0
100
AcDbLine
10
-2916.7125323633481
20
-1467.5234233098395
30
0
11
-2895.6786643367582
21
-1467.523423309839
31
0
0
SPLINE
5
139
100
AcDbEntity
8
0
100
AcDbSpline
70
0
71
3
72
19
73
15
74
0
42
0.000000001
43
0.0000000001
44
0.0000000001
40
0
40
0
40
0
40
0
40
0.125
40
0.1875
40
0.25
40
0.3125
40
0.375
40
0.4375
40
0.5
40
0.5625
40
0.625
40
0.75
40
0.875
40
1
40
1
40
1
40
1
10
-2850.2866606429889
20
-1396.4143798339294
30
0
10
-2850.2196494176069
20
-1396.1765677640738
30
0
10
-2850.1430048101342
20
-1395.8258486354339
30
0
10
-2850.1027895534553
20
-1395.3977951480015
30
0
10
-2850.1071625386785
20
-1395.1033312544073
30
0
10
-2850.1496717001937
20
-1394.8426929205712
30
0
10
-2850.2337055258495
20
-1394.6213843688136
30
0
10
-2850.3530897369387
20
-1394.4007180218678
30
0
10
-2850.5042680290835
20
-1394.1938775102531
30
0
10
-2850.6834513050076
20
-1394.0105030517739
30
0
10
-2850.9550116908435
20
-1393.8142960768071
30
0
10
-2851.3441427002872
20
-1393.6628448816145
30
0
10
-2851.847966673472
20
-1393.5826366669996
30
0
10
-2852.1803511867674
20
-1393.5679819303841
30
0
10
-2852.3386257193379
20
-1393.5628909806994
30
0
0
LINE
5
140
100
AcDbEntity
8
0
100
AcDbLine
10
-2850.2866606429889
20
-1396.4143798339294
30
0
11
-2853.8746221104179
21
-1416.3325925571894
31
0
0
SPLINE
5
141
100
AcDbEntity
8
0
100
AcDbSpline
70
0
71
3
72
8
73
4
74
0
42
0.000000001
43
0.0000000001
44
0.0000000001
40
0
40
0
40
0
40
0
40
1
40
1
40
1
40
1
10
-2855.4540537472685
20
-1419.731400535069
30
0
10
-2854.3364590563629
20
-1418.9925835859331
30
0
10
-2854.1018567501692
20
-1417.523809090593
30
0
10
-2853.8746221104179
20
-1416.3325925571894
30
0
0
LINE
5
142
100
AcDbEntity
8
0
100
AcDbLine
10
-2855.4540537472685
20
-1419.731400535069
30
0
11
-2860.368891914778
21
-1414.1871015887491
31
0
0
LINE
5
143
100
AcDbEntity
8
0
100
AcDbLine
10
-2860.368891914778
20
-1414.1871015887491
30
0
11
-2857.0566041440084
21
-1397.5198768944392
31
0
0
LINE
5
144
100
AcDbEntity
8
0
100
AcDbLine
10
-2857.0566041440084
20
-1397.5198768944392
30
0
11
-2852.3386257193374
21
-1393.5628909806994
31
0
0
LINE
5
145
100
AcDbEntity
8
0
100
AcDbLine
10
-2847.6843990262182
20
-1366.2655575171611
30
0
11
-2848.0448415088385
21
-1366.574015736599
31
0
0
LINE
5
146
100
AcDbEntity
8
0
100
AcDbLine
10
-2848.0448415088385
20
-1366.574015736599
30
0
11
-2853.3548002986886
21
-1371.3441865129089
31
0
0
LINE
5
147
100
AcDbEntity
8
0
100
AcDbLine
10
-2853.3548002986886
20
-1371.3441865129089
30
0
11
-2871.2203473770778
21
-1371.3441865129089
31
0
0
LINE
5
148
100
AcDbEntity
8
0
100
AcDbLine
10
-2871.2203473770778
20
-1371.3441865129089
30
0
11
-2875.7817487467678
21
-1365.353625445339
31
0
0
SPLINE
5
149
100
AcDbEntity
8
0
100
AcDbSpline
70
0
71
2
72
6
73
3
74
0
42
0.000000001
43
0.0000000001
44
0.0000000001
40
0
40
0
40
0
40
1
40
1
40
1
10
-2872.3002736881585
20
-1364.0316527246191
30
0
10
-2874.361466698188
20
-1363.8932913573649
30
0
10
-2875.7817487467678
20
-1365.353625445339
30
0
0
LINE
5
150
100
AcDbEntity
8
0
100
AcDbLine
10
-2872.3002736881585
20
-1364.0316527246191
30
0
11
-2850.7784597156087
21
-1364.0316527246191
31
0
0
SPLINE
5
151
100
AcDbEntity
8
0
100
AcDbSpline
70
0
71
3
72
8
73
4
74
0
42
0.000000001
43
0.0000000001
44
0.0000000001
40
0
40
0
40
0
40
0
40
1
40
1
40
1
40
1
10
-2850.7784597156087
20
-1364.0316527246191
30
0
10
-2850.2788432109633
20
-1364.0304746055936
30
0
10
-2844.9608140289679
20
-1363.7128916675033
30
0
10
-2847.6843990262182
20
-1366.2655575171611
30
0
0
SPLINE
5
152
100
AcDbEntity
8
0
100
AcDbSpline
70
0
71
3
72
31
73
27
74
0
42
0.000000001
43
0.0000000001
44
0.0000000001
40
0
40
0
40
0
40
0
40
0.125
40
0.1875
40
0.25
40
0.3125
40
0.375
40
0.4375
40
0.5
40
0.5625
40
0.59375
40
0.625
40
0.640625
40
0.65625
40
0.671875
40
0.6875
40
0.703125
40
0.71875
40
0.734375
40
0.75
40
0.78125
40
0.8125
40
0.84375
40
0.875
40
0.9375
40
1
40
1
40
1
40
1
10
-2845.7091461983482
20
-1370.5553464048692
30
0
10
-2845.654770847802
20
-1370.2783064166424
30
0
10
-2845.5680193295962
20
-1369.8515169982443
30
0
10
-2845.4652934165406
20
-1369.2690816449601
30
0
10
-2845.4005653932536
20
-1368.8278374639483
30
0
10
-2845.3539317733721
20
-1368.384428404165
30
0
10
-2845.3314252653099
20
-1367.9411868415425
30
0
10
-2845.33812674209
20
-1367.5001477417791
30
0
10
-2845.382669701803
20
-1367.0644561228507
30
0
10
-2845.4474690983329
20
-1366.7050045236956
30
0
10
-2845.5497083372484
20
-1366.4307509480252
30
0
10
-2845.6481591305328
20
-1366.2708466942404
30
0
10
-2845.7548444009403
20
-1366.1491875036222
30
0
10
-2845.8475363556199
20
-1366.0727066583363
30
0
10
-2845.9482944684369
20
-1366.0308476397818
30
0
10
-2846.0540165095222
20
-1366.0490787754447
30
0
10
-2846.1569352270176
20
-1366.1049777075937
30
0
10
-2846.250332308241
20
-1366.1650768118377
30
0
10
-2846.3375806506619
20
-1366.2317528543188
30
0
10
-2846.4480945409905
20
-1366.3256929622478
30
0
10
-2846.5827694488803
20
-1366.4474507707755
30
0
10
-2846.7449078458676
20
-1366.5950402814608
30
0
10
-2846.9058355095926
20
-1366.7450812950283
30
0
10
-2847.1188232877334
20
-1366.9477492681958
30
0
10
-2847.3809955297133
20
-1367.205713760063
30
0
10
-2847.5845981686775
20
-1367.4160027670362
30
0
10
-2847.6843990262182
20
-1367.5218848890993
30
0
0
LINE
5
153
100
AcDbEntity
8
0
100
AcDbLine
10
-2845.7091461983482
20
-1370.5553464048692
30
0
11
-2848.9583828059181
21
-1389.5239385544492
31
0
0
SPLINE
5
154
100
AcDbEntity
8
0
100
AcDbSpline
70
0
71
3
72
8
73
4
74
0
42
0.000000001
43
0.0000000001
44
0.0000000001
40
0
40
0
40
0
40
0
40
1
40
1
40
1
40
1
10
-2848.9583828059181
20
-1389.5239385544492
30
0
10
-2849.136276241783
20
-1390.9683114348431
30
0
10
-2850.2848649778334
20
-1392.3899934841033
30
0
10
-2851.9112789467481
20
-1392.3109751077991
30
0
0
LINE
5
155
100
AcDbEntity
8
0
100
AcDbLine
10
-2851.9112789467481
20
-1392.3109751077991
30
0
11
-2855.169973228888
21
-1388.755414932589
31
0
0
LINE
5
156
100
AcDbEntity
8
0
100
AcDbLine
10
-2855.169973228888
20
-1388.755414932589
30
0
11
-2852.5624573484683
21
-1371.7575219161392
31
0
0
LINE
5
157
100
AcDbEntity
8
0
100
AcDbLine
10
-2852.5624573484683
20
-1371.7575219161392
30
0
11
-2847.6843990262182
21
-1367.5218848890993
31
0
0
SPLINE
5
158
100
AcDbEntity
8
0
100
AcDbSpline
70
0
71
3
72
19
73
15
74
0
42
0.000000001
43
0.0000000001
44
0.0000000001
40
0
40
0
40
0
40
0
40
0.125
40
0.1875
40
0.25
40
0.3125
40
0.375
40
0.4375
40
0.5
40
0.5625
40
0.625
40
0.75
40
0.875
40
1
40
1
40
1
40
1
10
-2900.286660642988
20
-1396.4143798339294
30
0
10
-2900.2196494176064
20
-1396.1765677640738
30
0
10
-2900.1430048101338
20
-1395.8258486354339
30
0
10
-2900.1027895534562
20
-1395.3977951480015
30
0
10
-2900.1071625386776
20
-1395.1033312544073
30
0
10
-2900.1496717001946
20
-1394.8426929205712
30
0
10
-2900.2337055258499
20
-1394.6213843688136
30
0
10
-2900.3530897369387
20
-1394.4007180218678
30
0
10
-2900.5042680290826
20
-1394.1938775102531
30
0
10
-2900.6834513050071
20
-1394.0105030517739
30
0
10
-2900.9550116908422
20
-1393.8142960768071
30
0
10
-2901.3441427002858
20
-1393.6628448816145
30
0
10
-2901.8479666734693
20
-1393.5826366669996
30
0
10
-2902.1803511867665
20
-1393.5679819303841
30
0
10
-2902.3386257193388
20
-1393.5628909806994
30
0
0
LINE
5
159
100
AcDbEntity
8
0
100
AcDbLine
10
-2900.286660642988
20
-1396.4143798339294
30
0
11
-2903.8746221104179
21
-1416.3325925571894
31
0
0
SPLINE
5
160
100
AcDbEntity
8
0
100
AcDbSpline
70
0
71
3
72
8
73
4
74
0
42
0.000000001
43
0.0000000001
44
0.0000000001
40
0
40
0
40
0
40
0
40
1
40
1
40
1
40
1
10
-2905.4540537472685
20
-1419.731400535069
30
0
10
-2904.3364590563679
20
-1418.9925835859331
30
0
10
-2904.1018567501687
20
-1417.523809090593
30
0
10
-2903.8746221104179
20
-1416.3325925571894
30
0
0
LINE
5
161
100
AcDbEntity
8
0
100
AcDbLine
10
-2905.4540537472685
20
-1419.731400535069
30
0
11
-2910.368891914778
21
-1414.1871015887491
31
0
0
LINE
5
162
100
AcDbEntity
8
0
100
AcDbLine
10
-2910.368891914778
20
-1414.1871015887491
30
0
11
-2907.0566041440084
21
-1397.5198768944392
31
0
0
LINE
5
163
100
AcDbEntity
8
0
100
AcDbLine
10
-2907.0566041440084
20
-1397.5198768944392
30
0
11
-2902.3386257193379
21
-1393.5628909806994
31
0
0
LINE
5
164
100
AcDbEntity
8
0
100
AcDbLine
10
-2897.6843990262187
20
-1366.2655575171611
30
0
11
-2898.0448415088381
21
-1366.574015736599
31
0
0
LINE
5
165
100
AcDbEntity
8
0
100
AcDbLine
10
-2898.0448415088381
20
-1366.574015736599
30
0
11
-2903.3548002986881
21
-1371.3441865129089
31
0
0
LINE
5
166
100
AcDbEntity
8
0
100
AcDbLine
10
-2903.3548002986881
20
-1371.3441865129089
30
0
11
-2921.2203473770778
21
-1371.3441865129089
31
0
0
LINE
5
167
100
AcDbEntity
8
0
100
AcDbLine
10
-2921.2203473770778
20
-1371.3441865129089
30
0
11
-2925.7817487467682
21
-1365.353625445339
31
0
0
SPLINE
5
168
100
AcDbEntity
8
0
100
AcDbSpline
70
0
71
2
72
6
73
3
74
0
42
0.000000001
43
0.0000000001
44
0.0000000001
40
0
40
0
40
0
40
1
40
1
40
1
10
-2922.3002736881585
20
-1364.0316527246191
30
0
10
-2924.361466698188
20
-1363.8932913573628
30
0
10
-2925.7817487467682
20
-1365.353625445339
30
0
0
LINE
5
169
100
AcDbEntity
8
0
100
AcDbLine
10
-2922.3002736881585
20
-1364.0316527246191
30
0
11
-2900.7784597156078
21
-1364.0316527246191
31
0
0
SPLINE
5
170
100
AcDbEntity
8
0
100
AcDbSpline
70
0
71
3
72
8
73
4
74
0
42
0.000000001
43
0.0000000001
44
0.0000000001
40
0
40
0
40
0
40
0
40
1
40
1
40
1
40
1
10
-2900.7784597156078
20
-1364.0316527246191
30
0
10
-2900.2788432109628
20
-1364.0304746055936
30
0
10
-2894.9608140289638
20
-1363.7128916675033
30
0
10
-2897.6843990262187
20
-1366.2655575171611
30
0
0
SPLINE
5
171
100
AcDbEntity
8
0
100
AcDbSpline
70
0
71
3
72
31
73
27
74
0
42
0.000000001
43
0.0000000001
44
0.0000000001
40
0
40
0
40
0
40
0
40
0.125
40
0.1875
40
0.25
40
0.3125
40
0.375
40
0.4375
40
0.5
40
0.5625
40
0.59375
40
0.625
40
0.640625
40
0.65625
40
0.671875
40
0.6875
40
0.703125
40
0.71875
40
0.734375
40
0.75
40
0.78125
40
0.8125
40
0.84375
40
0.875
40
0.9375
40
1
40
1
40
1
40
1
10
-2895.7091461983482
20
-1370.5553464048692
30
0
10
-2895.654770847802
20
-1370.2783064166424
30
0
10
-2895.5680193295975
20
-1369.8515169982445
30
0
10
-2895.4652934165406
20
-1369.2690816449601
30
0
10
-2895.4005653932527
20
-1368.8278374639483
30
0
10
-2895.3539317733721
20
-1368.3844284041652
30
0
10
-2895.3314252653117
20
-1367.9411868415418
30
0
10
-2895.3381267420905
20
-1367.5001477417795
30
0
10
-2895.3826697018008
20
-1367.0644561228505
30
0
10
-2895.4474690983329
20
-1366.7050045236954
30
0
10
-2895.5497083372479
20
-1366.4307509480252
30
0
10
-2895.6481591305337
20
-1366.2708466942418
30
0
10
-2895.7548444009399
20
-1366.1491875036227
30
0
10
-2895.8475363556222
20
-1366.0727066583377
30
0
10
-2895.9482944684355
20
-1366.0308476397831
30
0
10
-2896.0540165095254
20
-1366.0490787754461
30
0
10
-2896.1569352270208
20
-1366.1049777075941
30
0
10
-2896.2503323082433
20
-1366.1650768118377
30
0
10
-2896.3375806506674
20
-1366.2317528543185
30
0
10
-2896.4480945409923
20
-1366.3256929622476
30
0
10
-2896.5827694488821
20
-1366.4474507707755
30
0
10
-2896.7449078458703
20
-1366.5950402814608
30
0
10
-2896.9058355095922
20
-1366.7450812950283
30
0
10
-2897.1188232877348
20
-1366.9477492681958
30
0
10
-2897.3809955297129
20
-1367.205713760063
30
0
10
-2897.584598168678
20
-1367.4160027670362
30
0
10
-2897.6843990262187
20
-1367.5218848890993
30
0
0
LINE
5
172
100
AcDbEntity
8
0
100
AcDbLine
10
-2895.7091461983482
20
-1370.5553464048692
30
0
11
-2898.9583828059181
21
-1389.5239385544492
31
0
0
SPLINE
5
173
100
AcDbEntity
8
0
100
AcDbSpline
70
0
71
3
72
8
73
4
74
0
42
0.000000001
43
0.0000000001
44
0.0000000001
40
0
40
0
40
0
40
0
40
1
40
1
40
1
40
1
10
-2898.9583828059181
20
-1389.5239385544492
30
0
10
-2899.1362762417839
20
-1390.9683114348413
30
0
10
-2900.2848649778289
20
-1392.3899934841054
30
0
10
-2901.9112789467481
20
-1392.3109751077991
30
0
0
LINE
5
174
100
AcDbEntity
8
0
100
AcDbLine
10
-2901.9112789467481
20
-1392.3109751077991
30
0
11
-2905.1699732288889
21
-1388.755414932589
31
0
0
LINE
5
175
100
AcDbEntity
8
0
100
AcDbLine
10
-2905.1699732288889
20
-1388.755414932589
30
0
11
-2902.5624573484679
21
-1371.7575219161392
31
0
0
LINE
5
176
100
AcDbEntity
8
0
100
AcDbLine
10
-2902.5624573484679
20
-1371.7575219161392
30
0
11
-2897.6843990262187
21
-1367.5218848890993
31
0
0
LINE
5
177
100
AcDbEntity
8
0
100
AcDbLine
10
-2931.714512914828
20
-1389.4517800010692
30
0
11
-2928.126551447368
21
-1369.5339175621893
31
0
0
SPLINE
5
178
100
AcDbEntity
8
0
100
AcDbSpline
70
0
71
2
72
6
73
3
74
0
42
0.000000001
43
0.0000000001
44
0.0000000001
40
0
40
0
40
0
40
1
40
1
40
1
10
-2928.126551447368
20
-1369.5339175621893
30
0
10
-2928.0033096113784
20
-1367.4379563698194
30
0
10
-2926.3744296803279
20
-1366.1179456565289
30
0
0
LINE
5
179
100
AcDbEntity
8
0
100
AcDbLine
10
-2926.3744296803279
20
-1366.1179456565289
30
0
11
-2921.8123277422083
21
-1371.7589230527992
31
0
0
LINE
5
180
100
AcDbEntity
8
0
100
AcDbLine
10
-2921.8123277422083
20
-1371.7589230527992
30
0
11
-2925.3449442998085
21
-1388.6832563790695
31
0
0
LINE
5
181
100
AcDbEntity
8
0
100
AcDbLine
10
-2925.3449442998085
20
-1388.6832563790695
30
0
11
-2930.1697594177381
21
-1392.3039694230692
31
0
0
SPLINE
5
182
100
AcDbEntity
8
0
100
AcDbSpline
70
0
71
3
72
8
73
4
74
0
42
0.000000001
43
0.0000000001
44
0.0000000001
40
0
40
0
40
0
40
0
40
1
40
1
40
1
40
1
10
-2930.1697594177381
20
-1392.3039694230692
30
0
10
-2931.6740530756583
20
-1392.581280874299
30
0
10
-2932.3190710784338
20
-1390.5182553288489
30
0
10
-2931.714512914828
20
-1389.4517800010692
30
0
0
LINE
5
183
100
AcDbEntity
8
0
100
AcDbLine
10
-2936.2937787806877
20
-1415.3108134299894
30
0
11
-2933.0434913203085
21
-1396.3429218489794
31
0
0
SPLINE
5
184
100
AcDbEntity
8
0
100
AcDbSpline
70
0
71
3
72
8
73
4
74
0
42
0.000000001
43
0.0000000001
44
0.0000000001
40
0
40
0
40
0
40
0
40
1
40
1
40
1
40
1
10
-2933.0434913203085
20
-1396.3429218489794
30
0
10
-2932.8503404632734
20
-1394.7553280174691
30
0
10
-2931.312556932508
20
-1393.4018483442492
30
0
10
-2929.6439827738377
20
-1393.5628909806994
30
0
0
LINE
5
185
100
AcDbEntity
8
0
100
AcDbLine
10
-2929.6439827738377
20
-1393.5628909806994
30
0
11
-2926.5131422392878
21
-1397.3415822163493
31
0
0
LINE
5
186
100
AcDbEntity
8
0
100
AcDbLine
10
-2926.5131422392878
20
-1397.3415822163493
30
0
11
-2929.438365925198
21
-1414.4456113577692
31
0
0
LINE
5
187
100
AcDbEntity
8
0
100
AcDbLine
10
-2929.438365925198
20
-1414.4456113577692
30
0
11
-2933.9836542197686
21
-1418.345676082909
31
0
0
SPLINE
5
188
100
AcDbEntity
8
0
100
AcDbSpline
70
0
71
3
72
26
73
22
74
0
42
0.000000001
43
0.0000000001
44
0.0000000001
40
0
40
0
40
0
40
0
40
0.125
40
0.1875
40
0.21875
40
0.25
40
0.28125
40
0.3125
40
0.34375
40
0.359375
40
0.375
40
0.40625
40
0.4375
40
0.46875
40
0.5
40
0.53125
40
0.5625
40
0.625
40
0.6875
40
0.75
40
1
40
1
40
1
40
1
10
-2933.9836542197686
20
-1418.345676082909
30
0
10
-2934.2488634556412
20
-1418.5568160199959
30
0
10
-2934.5959387700641
20
-1418.8497995747844
30
0
10
-2934.9875602846423
20
-1419.1678053152928
30
0
10
-2935.2183224201804
20
-1419.3452192212303
30
0
10
-2935.3975940391883
20
-1419.4768333031309
30
0
10
-2935.5857012657766
20
-1419.6073320554583
30
0
10
-2935.7855668000839
20
-1419.7384757902751
30
0
10
-2935.9634598780085
20
-1419.8452913659867
30
0
10
-2936.108141556002
20
-1419.8126096092064
30
0
10
-2936.2447274484612
20
-1419.7220133658618
30
0
10
-2936.3738323751868
20
-1419.5758794129504
30
0
10
-2936.476579668757
20
-1419.3702877640433
30
0
10
-2936.547251213417
20
-1419.1520613798766
30
0
10
-2936.5957077438525
20
-1418.9290513181757
30
0
10
-2936.6270240317476
20
-1418.7023668432246
30
0
10
-2936.6549028438712
20
-1418.3991565955607
30
0
10
-2936.6670545824013
20
-1418.0192062034905
30
0
10
-2936.6503788583432
20
-1417.5626891178172
30
0
10
-2936.5658348502575
20
-1416.6507479595243
30
0
10
-2936.4116589072892
20
-1415.8975354685938
30
0
10
-2936.2937787806877
20
-1415.3108134299894
30
0
0
SPLINE
5
189
100
AcDbEntity
8
0
100
AcDbSpline
70
0
71
3
72
22
73
18
74
0
42
0.000000001
43
0.0000000001
44
0.0000000001
40
0
40
0
40
0
40
0
40
0.0625
40
0.125
40
0.1875
40
0.25
40
0.28125
40
0.3125
40
0.34375
40
0.375
40
0.4375
40
0.5
40
0.5625
40
0.625
40
0.75
40
0.875
40
1
40
1
40
1
40
1
10
-2934.4011930334982
20
-1419.731400535069
30
0
10
-2934.4603281944628
20
-1419.7999210318719
30
0
10
-2934.6044888159013
20
-1419.9267856092124
30
0
10
-2934.830279819068
20
-1420.1220882322375
30
0
10
-2934.9971042701973
20
-1420.3594902803047
30
0
10
-2935.0310462787056
20
-1420.6187631576356
30
0
10
-2934.9834453171702
20
-1420.8104921155791
30
0
10
-2934.9061896861899
20
-1420.9332103424831
30
0
10
-2934.8017436663667
20
-1421.0374585229115
30
0
10
-2934.6491988826911
20
-1421.157883008864
30
0
10
-2934.439808105798
20
-1421.278534077974
30
0
10
-2934.1720108017894
20
-1421.3919701033885
30
0
10
-2933.899250107218
20
-1421.4877144682191
30
0
10
-2933.5288381362257
20
-1421.5936807774372
30
0
10
-2933.0564761337437
20
-1421.6925997962392
30
0
10
-2932.4827466305323
20
-1421.7779922275822
30
0
10
-2932.1012202990637
20
-1421.8264697041991
30
0
10
-2931.9120732261085
20
-1421.8520213223492
30
0
0
SPLINE
5
190
100
AcDbEntity
8
0
100
AcDbSpline
70
0
71
3
72
9
73
5
74
0
42
0.000000001
43
0.0000000001
44
0.0000000001
40
0
40
0
40
0
40
0
40
0.5
40
1
40
1
40
1
40
1
10
-2934.4011930334982
20
-1419.731400535069
30
0
10
-2933.4017931817739
20
-1418.9684247871025
30
0
10
-2931.4729714254781
20
-1417.3548043608998
30
0
10
-2929.5917847209462
20
-1415.6868212527058
30
0
10
-2928.6621360499284
20
-1414.840731980189
30
0
0
LINE
5
191
100
AcDbEntity
8
0
100
AcDbLine
10
-2928.6621360499284
20
-1414.840731980189
30
0
11
-2910.7377412193482
21
-1414.840731980189
31
0
0
LINE
5
192
100
AcDbEntity
8
0
100
AcDbLine
10
-2910.7377412193482
20
-1414.840731980189
30
0
11
-2906.1409611414283
21
-1420.1685552662293
31
0
0
SPLINE
5
193
100
AcDbEntity
8
0
100
AcDbSpline
70
0
71
3
72
8
73
4
74
0
42
0.000000001
43
0.0000000001
44
0.0000000001
40
0
40
0
40
0
40
0
40
1
40
1
40
1
40
1
10
-2910.5289718123981
20
-1421.8502699010994
30
0
10
-2908.9582281168432
20
-1421.8410265792354
30
0
10
-2907.0766944115385
20
-1421.7136827586316
30
0
10
-2906.1409611414283
20
-1420.1685552662293
30
0
0
LINE
5
194
100
AcDbEntity
8
0
100
AcDbLine
10
-2910.5289718123981
20
-1421.8502699010994
30
0
11
-2931.9120732261085
21
-1421.8520213223492
31
0
0
LINE
5
195
100
AcDbEntity
8
0
100
AcDbLine
10
-2881.7145129148284
20
-1389.4517800010692
30
0
11
-2878.126551447368
21
-1369.5339175621893
31
0
0
SPLINE
5
196
100
AcDbEntity
8
0
100
AcDbSpline
70
0
71
2
72
6
73
3
74
0
42
0.000000001
43
0.0000000001
44
0.0000000001
40
0
40
0
40
0
40
1
40
1
40
1
10
-2878.126551447368
20
-1369.5339175621893
30
0
10
-2878.0033096113834
20
-1367.4379563698194
30
0
10
-2876.3744296803279
20
-1366.1179456565289
30
0
0
LINE
5
197
100
AcDbEntity
8
0
100
AcDbLine
10
-2876.3744296803279
20
-1366.1179456565289
30
0
11
-2871.8123277422087
21
-1371.7589230527992
31
0
0
LINE
5
198
100
AcDbEntity
8
0
100
AcDbLine
10
-2871.8123277422087
20
-1371.7589230527992
30
0
11
-2875.3449442998085
21
-1388.6832563790695
31
0
0
LINE
5
199
100
AcDbEntity
8
0
100
AcDbLine
10
-2875.3449442998085
20
-1388.6832563790695
30
0
11
-2880.1697594177381
21
-1392.3039694230692
31
0
0
SPLINE
5
200
100
AcDbEntity
8
0
100
AcDbSpline
70
0
71
3
72
8
73
4
74
0
42
0.000000001
43
0.0000000001
44
0.0000000001
40
0
40
0
40
0
40
0
40
1
40
1
40
1
40
1
10
-2880.1697594177381
20
-1392.3039694230692
30
0
10
-2881.6740530756633
20
-1392.5812808743012
30
0
10
-2882.3190710784329
20
-1390.5182553288489
30
0
10
-2881.7145129148284
20
-1389.4517800010692
30
0
0
LINE
5
201
100
AcDbEntity
8
0
100
AcDbLine
10
-2886.2937787806886
20
-1415.3108134299894
30
0
11
-2883.0434913203085
21
-1396.3429218489794
31
0
0
SPLINE
5
202
100
AcDbEntity
8
0
100
AcDbSpline
70
0
71
3
72
8
73
4
74
0
42
0.000000001
43
0.0000000001
44
0.0000000001
40
0
40
0
40
0
40
0
40
1
40
1
40
1
40
1
10
-2883.0434913203085
20
-1396.3429218489794
30
0
10
-2882.8503404632738
20
-1394.7553280174711
30
0
10
-2881.3125569325084
20
-1393.4018483442492
30
0
10
-2879.6439827738377
20
-1393.5628909806994
30
0
0
LINE
5
203
100
AcDbEntity
8
0
100
AcDbLine
10
-2879.6439827738377
20
-1393.5628909806994
30
0
11
-2876.5131422392888
21
-1397.3415822163493
31
0
0
LINE
5
204
100
AcDbEntity
8
0
100
AcDbLine
10
-2876.5131422392888
20
-1397.3415822163493
30
0
11
-2879.438365925198
21
-1414.4456113577692
31
0
0
LINE
5
205
100
AcDbEntity
8
0
100
AcDbLine
10
-2879.438365925198
20
-1414.4456113577692
30
0
11
-2883.9836542197681
21
-1418.345676082909
31
0
0
SPLINE
5
206
100
AcDbEntity
8
0
100
AcDbSpline
70
0
71
3
72
26
73
22
74
0
42
0.000000001
43
0.0000000001
44
0.0000000001
40
0
40
0
40
0
40
0
40
0.125
40
0.1875
40
0.21875
40
0.25
40
0.28125
40
0.3125
40
0.34375
40
0.359375
40
0.375
40
0.40625
40
0.4375
40
0.46875
40
0.5
40
0.53125
40
0.5625
40
0.625
40
0.6875
40
0.75
40
1
40
1
40
1
40
1
10
-2883.9836542197681
20
-1418.345676082909
30
0
10
-2884.2488634556407
20
-1418.5568160199973
30
0
10
-2884.5959387700627
20
-1418.8497995747844
30
0
10
-2884.9875602846437
20
-1419.167805315293
30
0
10
-2885.2183224201772
20
-1419.3452192212299
30
0
10
-2885.3975940391874
20
-1419.4768333031298
30
0
10
-2885.5857012657734
20
-1419.6073320554574
30
0
10
-2885.7855668000811
20
-1419.7384757902748
30
0
10
-2885.963459878004
20
-1419.8452913659862
30
0
10
-2886.1081415560002
20
-1419.8126096092069
30
0
10
-2886.2447274484575
20
-1419.7220133658618
30
0
10
-2886.3738323751877
20
-1419.5758794129495
30
0
10
-2886.4765796687561
20
-1419.370287764044
30
0
10
-2886.5472512134188
20
-1419.1520613798773
30
0
10
-2886.595707743852
20
-1418.9290513181759
30
0
10
-2886.6270240317476
20
-1418.7023668432234
30
0
10
-2886.6549028438726
20
-1418.3991565955612
30
0
10
-2886.6670545824027
20
-1418.0192062034907
30
0
10
-2886.6503788583441
20
-1417.5626891178172
30
0
10
-2886.5658348502625
20
-1416.6507479595243
30
0
10
-2886.4116589072933
20
-1415.8975354685938
30
0
10
-2886.2937787806886
20
-1415.3108134299894
30
0
0
SPLINE
5
207
100
AcDbEntity
8
0
100
AcDbSpline
70
0
71
3
72
22
73
18
74
0
42
0.000000001
43
0.0000000001
44
0.0000000001
40
0
40
0
40
0
40
0
40
0.0625
40
0.125
40
0.1875
40
0.25
40
0.28125
40
0.3125
40
0.34375
40
0.375
40
0.4375
40
0.5
40
0.5625
40
0.625
40
0.75
40
0.875
40
1
40
1
40
1
40
1
10
-2884.4011930334982
20
-1419.731400535069
30
0
10
-2884.4603281944628
20
-1419.7999210318724
30
0
10
-2884.6044888159031
20
-1419.9267856092133
30
0
10
-2884.8302798190698
20
-1420.1220882322395
30
0
10
-2884.9971042702009
20
-1420.3594902803043
30
0
10
-2885.0310462787074
20
-1420.6187631576358
30
0
10
-2884.9834453171711
20
-1420.8104921155791
30
0
10
-2884.9061896861922
20
-1420.9332103424836
30
0
10
-2884.8017436663695
20
-1421.037458522911
30
0
10
-2884.6491988826956
20
-1421.1578830088649
30
0
10
-2884.4398081058007
20
-1421.2785340779719
30
0
10
-2884.1720108017926
20
-1421.3919701033885
30
0
10
-2883.8992501072194
20
-1421.4877144682177
30
0
10
-2883.5288381362279
20
-1421.5936807774378
30
0
10
-2883.0564761337428
20
-1421.6925997962394
30
0
10
-2882.4827466305328
20
-1421.7779922275829
30
0
10
-2882.1012202990632
20
-1421.8264697041996
30
0
10
-2881.9120732261081
20
-1421.8520213223492
30
0
0
SPLINE
5
208
100
AcDbEntity
8
0
100
AcDbSpline
70
0
71
3
72
9
73
5
74
0
42
0.000000001
43
0.0000000001
44
0.0000000001
40
0
40
0
40
0
40
0
40
0.5
40
1
40
1
40
1
40
1
10
-2884.4011930334982
20
-1419.731400535069
30
0
10
-2883.4017931817734
20
-1418.9684247871003
30
0
10
-2881.472971425479
20
-1417.3548043609012
30
0
10
-2879.5917847209462
20
-1415.6868212527056
30
0
10
-2878.6621360499284
20
-1414.840731980189
30
0
0
LINE
5
209
100
AcDbEntity
8
0
100
AcDbLine
10
-2878.6621360499284
20
-1414.840731980189
30
0
11
-2860.7377412193482
21
-1414.840731980189
31
0
0
LINE
5
210
100
AcDbEntity
8
0
100
AcDbLine
10
-2860.7377412193482
20
-1414.840731980189
30
0
11
-2856.1409611414279
21
-1420.1685552662293
31
0
0
SPLINE
5
211
100
AcDbEntity
8
0
100
AcDbSpline
70
0
71
3
72
8
73
4
74
0
42
0.000000001
43
0.0000000001
44
0.0000000001
40
0
40
0
40
0
40
0
40
1
40
1
40
1
40
1
10
-2860.5289718123981
20
-1421.8502699010994
30
0
10
-2858.9582281168437
20
-1421.8410265792354
30
0
10
-2857.0766944115389
20
-1421.7136827586316
30
0
10
-2856.1409611414279
20
-1420.1685552662293
30
0
0
LINE
5
212
100
AcDbEntity
8
0
100
AcDbLine
10
-2860.5289718123981
20
-1421.8502699010994
30
0
11
-2881.9120732261081
21
-1421.8520213223492
31
0
0
LINE
5
213
100
AcDbEntity
8
0
100
AcDbLine
10
-2920.2451489209584
20
-1492.1750269642891
30
0
11
-2925.0699640388784
21
-1495.7957400082889
31
0
0
SPLINE
5
214
100
AcDbEntity
8
0
100
AcDbSpline
70
0
71
2
72
6
73
3
74
0
42
0.000000001
43
0.0000000001
44
0.0000000001
40
0
40
0
40
0
40
1
40
1
40
1
10
-2925.0699640388784
20
-1495.7957400082887
30
0
10
-2927.501731963358
20
-1495.6114084523329
30
0
10
-2926.6147175359783
20
-1492.9435505862889
30
0
0
LINE
5
215
100
AcDbEntity
8
0
100
AcDbLine
10
-2926.6147175359783
20
-1492.9435505862889
30
0
11
-2923.0267560685184
21
-1473.0256881474093
31
0
0
SPLINE
5
216
100
AcDbEntity
8
0
100
AcDbSpline
70
0
71
2
72
6
73
3
74
0
42
0.000000001
43
0.0000000001
44
0.0000000001
40
0
40
0
40
0
40
1
40
1
40
1
10
-2923.0267560685184
20
-1473.0256881474093
30
0
10
-2922.9112921646583
20
-1470.9144719439612
30
0
10
-2921.2746343014783
20
-1469.6097162417491
30
0
0
LINE
5
217
100
AcDbEntity
8
0
100
AcDbLine
10
-2921.2746343014783
20
-1469.6097162417491
30
0
11
-2916.7125323633481
21
-1475.2506936380191
31
0
0
LINE
5
218
100
AcDbEntity
8
0
100
AcDbLine
10
-2916.7125323633481
20
-1475.2506936380191
30
0
11
-2920.2451489209584
21
-1492.1750269642891
31
0
0
LINE
5
219
100
AcDbEntity
8
0
100
AcDbLine
10
-2931.1939834018385
20
-1518.8025840152088
30
0
11
-2927.9436959414584
21
-1499.834692434209
31
0
0
SPLINE
5
220
100
AcDbEntity
8
0
100
AcDbSpline
70
0
71
2
72
6
73
3
74
0
42
0.000000001
43
0.0000000001
44
0.0000000001
40
0
40
0
40
0
40
1
40
1
40
1
10
-2927.9436959414584
20
-1499.834692434209
30
0
10
-2927.3555795162788
20
-1497.113460826379
30
0
10
-2924.5441873949881
20
-1497.0546615659189
30
0
0
LINE
5
221
100
AcDbEntity
8
0
100
AcDbLine
10
-2924.5441873949881
20
-1497.0546615659189
30
0
11
-2921.4133468604387
21
-1500.8333528015687
31
0
0
LINE
5
222
100
AcDbEntity
8
0
100
AcDbLine
10
-2921.4133468604387
20
-1500.8333528015687
30
0
11
-2924.3385705463488
21
-1517.9373819429989
31
0
0
LINE
5
223
100
AcDbEntity
8
0
100
AcDbLine
10
-2924.3385705463488
20
-1517.9373819429989
30
0
11
-2928.8838588409085
21
-1521.8374466681289
31
0
0
SPLINE
5
224
100
AcDbEntity
8
0
100
AcDbSpline
70
0
71
3
72
31
73
27
74
0
42
0.000000001
43
0.0000000001
44
0.0000000001
40
0
40
0
40
0
40
0
40
0.1875
40
0.25
40
0.3125
40
0.375
40
0.4375
40
0.46875
40
0.5
40
0.53125
40
0.5625
40
0.59375
40
0.609375
40
0.625
40
0.640625
40
0.65625
40
0.671875
40
0.6875
40
0.703125
40
0.71875
40
0.75
40
0.78125
40
0.8125
40
0.875
40
0.9375
40
1
40
1
40
1
40
1
10
-2931.1939834018385
20
-1518.8025840152088
30
0
10
-2931.3018573133381
20
-1519.2474430799268
30
0
10
-2931.4221999061228
20
-1519.8425719993636
30
0
10
-2931.5127582732339
20
-1520.5931062597037
30
0
10
-2931.5470430919149
20
-1521.0457377357834
30
0
10
-2931.5592686493474
20
-1521.5010403448812
30
0
10
-2931.549146245713
20
-1521.8828708017732
30
0
10
-2931.5282730611584
20
-1522.1901499684818
30
0
10
-2931.504790190736
20
-1522.4210243777538
30
0
10
-2931.4619344044113
20
-1522.6472229280191
30
0
10
-2931.3891758627556
20
-1522.8641614912372
30
0
10
-2931.2946457798835
20
-1523.0331708743811
30
0
10
-2931.1932779122999
20
-1523.1591940650835
30
0
10
-2931.103147512239
20
-1523.2479333023562
30
0
10
-2931.0027934160876
20
-1523.3112595029422
30
0
10
-2930.8958737116955
20
-1523.3269910361626
30
0
10
-2930.7864038382113
20
-1523.2850817095598
30
0
10
-2930.6814104341302
20
-1523.2264794604444
30
0
10
-2930.583102607683
20
-1523.1671120145754
30
0
10
-2930.457673838609
20
-1523.083782696983
30
0
10
-2930.3068657198501
20
-1522.9752030792824
30
0
10
-2930.1250959323256
20
-1522.8408034536562
30
0
10
-2929.8838593403943
20
-1522.6567480413771
30
0
10
-2929.5841694866667
20
-1522.4194145716283
30
0
10
-2929.229729652548
20
-1522.128406844397
30
0
10
-2928.9981450933938
20
-1521.9339094582895
30
0
10
-2928.8838588409085
20
-1521.8374466681289
30
0
0
LINE
5
225
100
AcDbEntity
8
0
100
AcDbLine
10
-2876.6147175359783
20
-1492.9435505862889
30
0
11
-2873.0267560685184
21
-1473.0256881474093
31
0
0
SPLINE
5
226
100
AcDbEntity
8
0
100
AcDbSpline
70
0
71
2
72
6
73
3
74
0
42
0.000000001
43
0.0000000001
44
0.0000000001
40
0
40
0
40
0
40
1
40
1
40
1
10
-2873.0267560685184
20
-1473.0256881474093
30
0
10
-2872.9112921646583
20
-1470.9144719439612
30
0
10
-2871.2746343014783
20
-1469.6097162417491
30
0
0
LINE
5
227
100
AcDbEntity
8
0
100
AcDbLine
10
-2871.2746343014783
20
-1469.6097162417491
30
0
11
-2866.7125323633486
21
-1475.2506936380191
31
0
0
LINE
5
228
100
AcDbEntity
8
0
100
AcDbLine
10
-2866.7125323633486
20
-1475.2506936380191
30
0
11
-2870.2451489209584
21
-1492.1750269642891
31
0
0
LINE
5
229
100
AcDbEntity
8
0
100
AcDbLine
10
-2870.2451489209584
20
-1492.1750269642891
30
0
11
-2875.069964038878
21
-1495.7957400082889
31
0
0
SPLINE
5
230
100
AcDbEntity
8
0
100
AcDbSpline
70
0
71
2
72
6
73
3
74
0
42
0.000000001
43
0.0000000001
44
0.0000000001
40
0
40
0
40
0
40
1
40
1
40
1
10
-2875.069964038878
20
-1495.7957400082887
30
0
10
-2877.501731963353
20
-1495.611408452331
30
0
10
-2876.6147175359783
20
-1492.9435505862889
30
0
0
LINE
5
231
100
AcDbEntity
8
0
100
AcDbLine
10
-2881.1939834018385
20
-1518.8025840152088
30
0
11
-2877.9436959414584
21
-1499.834692434209
31
0
0
SPLINE
5
232
100
AcDbEntity
8
0
100
AcDbSpline
70
0
71
2
72
6
73
3
74
0
42
0.000000001
43
0.0000000001
44
0.0000000001
40
0
40
0
40
0
40
1
40
1
40
1
10
-2877.9436959414584
20
-1499.834692434209
30
0
10
-2877.3555795162788
20
-1497.1134608263769
30
0
10
-2874.5441873949881
20
-1497.0546615659189
30
0
0
LINE
5
233
100
AcDbEntity
8
0
100
AcDbLine
10
-2874.5441873949881
20
-1497.0546615659189
30
0
11
-2871.4133468604387
21
-1500.8333528015687
31
0
0
LINE
5
234
100
AcDbEntity
8
0
100
AcDbLine
10
-2871.4133468604387
20
-1500.8333528015687
30
0
11
-2874.3385705463479
21
-1517.9373819429989
31
0
0
LINE
5
235
100
AcDbEntity
8
0
100
AcDbLine
10
-2874.3385705463479
20
-1517.9373819429989
30
0
11
-2878.883858840908
21
-1521.8374466681289
31
0
0
SPLINE
5
236
100
AcDbEntity
8
0
100
AcDbSpline
70
0
71
3
72
31
73
27
74
0
42
0.000000001
43
0.0000000001
44
0.0000000001
40
0
40
0
40
0
40
0
40
0.1875
40
0.25
40
0.3125
40
0.375
40
0.4375
40
0.46875
40
0.5
40
0.53125
40
0.5625
40
0.59375
40
0.609375
40
0.625
40
0.640625
40
0.65625
40
0.671875
40
0.6875
40
0.703125
40
0.71875
40
0.75
40
0.78125
40
0.8125
40
0.875
40
0.9375
40
1
40
1
40
1
40
1
10
-2881.1939834018385
20
-1518.8025840152088
30
0
10
-2881.3018573133418
20
-1519.2474430799298
30
0
10
-2881.4221999061242
20
-1519.8425719993656
30
0
10
-2881.5127582732293
20
-1520.5931062597047
30
0
10
-2881.5470430919099
20
-1521.0457377357834
30
0
10
-2881.5592686493396
20
-1521.5010403448809
30
0
10
-2881.5491462457085
20
-1521.8828708017734
30
0
10
-2881.5282730611534
20
-1522.1901499684839
30
0
10
-2881.5047901907365
20
-1522.4210243777561
30
0
10
-2881.4619344044104
20
-1522.6472229280214
30
0
10
-2881.3891758627574
20
-1522.8641614912403
30
0
10
-2881.2946457798857
20
-1523.0331708743836
30
0
10
-2881.1932779123008
20
-1523.1591940650856
30
0
10
-2881.1031475122422
20
-1523.2479333023573
30
0
10
-2881.0027934160917
20
-1523.3112595029436
30
0
10
-2880.8958737116977
20
-1523.3269910361616
30
0
10
-2880.7864038382131
20
-1523.2850817095598
30
0
10
-2880.6814104341306
20
-1523.2264794604448
30
0
10
-2880.5831026076817
20
-1523.1671120145747
30
0
10
-2880.4576738386095
20
-1523.0837826969835
30
0
10
-2880.3068657198487
20
-1522.975203079282
30
0
10
-2880.1250959323256
20
-1522.8408034536569
30
0
10
-2879.8838593403943
20
-1522.6567480413787
30
0
10
-2879.5841694866649
20
-1522.4194145716294
30
0
10
-2879.2297296525476
20
-1522.1284068444004
30
0
10
-2878.9981450933942
20
-1521.9339094582906
30
0
10
-2878.883858840908
20
-1521.8374466681289
30
0
0
LINE
5
237
100
AcDbEntity
8
0
100
AcDbLine
10
-2866.1205519982286
20
-1474.835957098129
30
0
11
-2870.6819533679181
21
-1468.8453960305592
31
0
0
SPLINE
5
238
100
AcDbEntity
8
0
100
AcDbSpline
70
0
71
3
72
8
73
4
74
0
42
0.000000001
43
0.0000000001
44
0.0000000001
40
0
40
0
40
0
40
0
40
1
40
1
40
1
40
1
10
-2870.6819533679181
20
-1468.8453960305592
30
0
10
-2869.810474687933
20
-1467.6580931360352
30
0
10
-2868.0558865800385
20
-1467.4796893079051
30
0
10
-2866.7125323633486
20
-1467.523423309839
30
0
0
LINE
5
239
100
AcDbEntity
8
0
100
AcDbLine
10
-2866.7125323633486
20
-1467.5234233098395
30
0
11
-2845.6786643367582
21
-1467.523423309839
31
0
0
SPLINE
5
240
100
AcDbEntity
8
0
100
AcDbSpline
70
0
71
3
72
25
73
21
74
0
42
0.000000001
43
0.0000000001
44
0.0000000001
40
0
40
0
40
0
40
0
40
0.0625
40
0.125
40
0.1875
40
0.21875
40
0.25
40
0.3125
40
0.34375
40
0.375
40
0.40625
40
0.4375
40
0.46875
40
0.5
40
0.5625
40
0.625
40
0.6875
40
0.75
40
0.875
40
1
40
1
40
1
40
1
10
-2842.9450461299884
20
-1470.0657863218189
30
0
10
-2842.8342581017687
20
-1469.9622236916932
30
0
10
-2842.6268609851859
20
-1469.7797829205263
30
0
10
-2842.351648606495
20
-1469.5325428827764
30
0
10
-2842.1480126213646
20
-1469.3097576425685
30
0
10
-2841.9951773901894
20
-1469.096275927584
30
0
10
-2841.8573605775305
20
-1468.8578629569633
30
0
10
-2841.7780967552158
20
-1468.5989885222666
30
0
10
-2841.8302776864211
20
-1468.3456581003168
30
0
10
-2841.9310492519121
20
-1468.170166768703
30
0
10
-2842.0710350106651
20
-1468.0280625369264
30
0
10
-2842.235535615423
20
-1467.9239681250515
30
0
10
-2842.4124360278365
20
-1467.8413909046876
30
0
10
-2842.6545177689718
20
-1467.7496576570502
30
0
10
-2842.9686542328573
20
-1467.6664730815239
30
0
10
-2843.3532373347671
20
-1467.5984398749169
30
0
10
-2843.7389574712815
20
-1467.5497370886353
30
0
10
-2844.2552818298832
20
-1467.5089949063681
30
0
10
-2844.9027601487473
20
-1467.4959786933439
30
0
10
-2845.420503238081
20
-1467.5121841587313
30
0
10
-2845.6786643367582
20
-1467.523423309839
30
0
0
LINE
5
241
100
AcDbEntity
8
0
100
AcDbLine
10
-2842.9450461299884
20
-1470.0657863218189
30
0
11
-2848.2550049198385
21
-1474.835957098129
31
0
0
LINE
5
242
100
AcDbEntity
8
0
100
AcDbLine
10
-2848.2550049198385
20
-1474.835957098129
30
0
11
-2866.1205519982286
21
-1474.835957098129
31
0
0
LINE
5
243
100
AcDbEntity
8
0
100
AcDbLine
10
-2905.6404375158536
20
-1525.338509109499
30
0
11
-2926.8122778472589
21
-1525.3437919075691
31
0
0
SPLINE
5
244
100
AcDbEntity
8
0
100
AcDbSpline
70
0
71
3
72
27
73
23
74
0
42
0.000000001
43
0.0000000001
44
0.0000000001
40
0
40
0
40
0
40
0
40
0.125
40
0.1875
40
0.25
40
0.3125
40
0.375
40
0.4375
40
0.5
40
0.5625
40
0.59375
40
0.625
40
0.65625
40
0.6875
40
0.71875
40
0.75
40
0.78125
40
0.8125
40
0.84375
40
0.875
40
0.9375
40
1
40
1
40
1
40
1
10
-2926.8122778472589
20
-1525.3437919075691
30
0
10
-2926.928057039227
20
-1525.3279244836467
30
0
10
-2927.2005370578113
20
-1525.2937866178145
30
0
10
-2927.6409727148098
20
-1525.2314872299698
30
0
10
-2927.9801451363751
20
-1525.1773771069584
30
0
10
-2928.2966463440589
20
-1525.1167414788515
30
0
10
-2928.5713408157399
20
-1525.0458762497915
30
0
10
-2928.8241957514674
20
-1524.965250326585
30
0
10
-2929.0756417091548
20
-1524.8833401026595
30
0
10
-2929.2877381180092
20
-1524.7926165579211
30
0
10
-2929.4503075505672
20
-1524.6969383629144
30
0
10
-2929.568696688912
20
-1524.6177028211091
30
0
10
-2929.6812455720265
20
-1524.5309081169544
30
0
10
-2929.7912636382694
20
-1524.4417609866032
30
0
10
-2929.8743323952795
20
-1524.3323801429494
30
0
10
-2929.9104610298109
20
-1524.1916063367098
30
0
10
-2929.9087992087698
20
-1524.0360130232557
30
0
10
-2929.87257382814
20
-1523.87684320065
30
0
10
-2929.8068539366068
20
-1523.7260284594117
30
0
10
-2929.6847323451047
20
-1523.5554258169234
30
0
10
-2929.4887224979775
20
-1523.401137790172
30
0
10
-2929.3502964326508
20
-1523.2885160840417
30
0
10
-2929.3013976546481
20
-1523.223171120289
30
0
0
SPLINE
5
245
100
AcDbEntity
8
0
100
AcDbSpline
70
0
71
3
72
9
73
5
74
0
42
0.000000001
43
0.0000000001
44
0.0000000001
40
0
40
0
40
0
40
0
40
0.5
40
1
40
1
40
1
40
1
10
-2929.3013976546481
20
-1523.223171120289
30
0
10
-2928.3035156373485
20
-1522.4580279802663
30
0
10
-2926.3719764856005
20
-1520.8481557611756
30
0
10
-2924.4917464560122
20
-1519.1788955782281
30
0
10
-2923.5623406710783
20
-1518.3325025654087
30
0
0
LINE
5
246
100
AcDbEntity
8
0
100
AcDbLine
10
-2923.5623406710783
20
-1518.3325025654085
30
0
11
-2905.6379458404986
21
-1518.3325025654087
31
0
0
LINE
5
247
100
AcDbEntity
8
0
100
AcDbLine
10
-2905.6379458404986
20
-1518.3325025654087
30
0
11
-2901.0411657625787
21
-1523.660325851449
31
0
0
SPLINE
5
248
100
AcDbEntity
8
0
100
AcDbSpline
70
0
71
3
72
8
73
4
74
0
42
0.000000001
43
0.0000000001
44
0.0000000001
40
0
40
0
40
0
40
0
40
1
40
1
40
1
40
1
10
-2901.0411657625787
20
-1523.660325851449
30
0
10
-2902.0605186484991
20
-1525.2474118416835
30
0
10
-2903.9530856989832
20
-1525.3743549090141
30
0
10
-2905.6404375158536
20
-1525.338509109499
30
0
0
SPLINE
5
249
100
AcDbEntity
8
0
100
AcDbSpline
70
0
71
3
72
27
73
23
74
0
42
0.000000001
43
0.0000000001
44
0.0000000001
40
0
40
0
40
0
40
0
40
0.125
40
0.1875
40
0.25
40
0.3125
40
0.375
40
0.4375
40
0.5
40
0.5625
40
0.59375
40
0.625
40
0.65625
40
0.6875
40
0.71875
40
0.75
40
0.78125
40
0.8125
40
0.84375
40
0.875
40
0.9375
40
1
40
1
40
1
40
1
10
-2876.812277847258
20
-1525.3437919075691
30
0
10
-2876.9280570392266
20
-1525.3279244836467
30
0
10
-2877.2005370578117
20
-1525.2937866178145
30
0
10
-2877.6409727148102
20
-1525.2314872299698
30
0
10
-2877.9801451363728
20
-1525.1773771069584
30
0
10
-2878.2966463440607
20
-1525.1167414788515
30
0
10
-2878.5713408157399
20
-1525.0458762497915
30
0
10
-2878.8241957514679
20
-1524.965250326585
30
0
10
-2879.0756417091552
20
-1524.8833401026595
30
0
10
-2879.2877381180069
20
-1524.7926165579211
30
0
10
-2879.4503075505672
20
-1524.6969383629144
30
0
10
-2879.5686966889111
20
-1524.6177028211091
30
0
10
-2879.6812455720274
20
-1524.5309081169544
30
0
10
-2879.791263638268
20
-1524.4417609866032
30
0
10
-2879.8743323952799
20
-1524.3323801429494
30
0
10
-2879.91046102981
20
-1524.1916063367098
30
0
10
-2879.9087992087698
20
-1524.0360130232557
30
0
10
-2879.8725738281419
20
-1523.87684320065
30
0
10
-2879.8068539366068
20
-1523.7260284594117
30
0
10
-2879.6847323451088
20
-1523.5554258169234
30
0
10
-2879.4887224979811
20
-1523.401137790172
30
0
10
-2879.3502964326531
20
-1523.2885160840417
30
0
10
-2879.3013976546486
20
-1523.223171120289
30
0
0
SPLINE
5
250
100
AcDbEntity
8
0
100
AcDbSpline
70
0
71
3
72
9
73
5
74
0
42
0.000000001
43
0.0000000001
44
0.0000000001
40
0
40
0
40
0
40
0
40
0.5
40
1
40
1
40
1
40
1
10
-2879.3013976546486
20
-1523.223171120289
30
0
10
-2878.3035156373485
20
-1522.4580279802669
30
0
10
-2876.3719764856019
20
-1520.8481557611765
30
0
10
-2874.4917464560122
20
-1519.1788955782285
30
0
10
-2873.5623406710783
20
-1518.3325025654087
30
0
0
LINE
5
251
100
AcDbEntity
8
0
100
AcDbLine
10
-2873.5623406710783
20
-1518.3325025654085
30
0
11
-2855.6379458404986
21
-1518.3325025654087
31
0
0
LINE
5
252
100
AcDbEntity
8
0
100
AcDbLine
10
-2855.6379458404986
20
-1518.3325025654087
30
0
11
-2851.0411657625782
21
-1523.660325851449
31
0
0
SPLINE
5
253
100
AcDbEntity
8
0
100
AcDbSpline
70
0
71
3
72
8
73
4
74
0
42
0.000000001
43
0.0000000001
44
0.0000000001
40
0
40
0
40
0
40
0
40
1
40
1
40
1
40
1
10
-2851.0411657625782
20
-1523.660325851449
30
0
10
-2852.0605186484981
20
-1525.2474118416835
30
0
10
-2853.9530856989882
20
-1525.3743549090141
30
0
10
-2855.6404375158531
20
-1525.338509109499
30
0
0
LINE
5
254
100
AcDbEntity
8
0
100
AcDbLine
10
-2855.6404375158531
20
-1525.3385091094988
30
0
11
-2876.812277847258
21
-1525.3437919075691
31
0
0
LWPOLYLINE
5
255
100
AcDbEntity
8
0
100
AcDbPolyline
90
2
70
1
43
0.0
10
-2919.6139996353086
20
-1406.4657227554189
42
-1.6633180620395478
10
-2916.834445719142
20
-1405.9543734405631
42
-0.70544187098291644
0
CIRCLE
5
256
100
AcDbEntity
8
0
100
AcDbCircle
10
-2922.4607743046995
20
-1349.9999999999991
30
0
40
1.4999999999997715
210
0
220
0
230
1
0
CIRCLE
5
257
100
AcDbEntity
8
0
100
AcDbCircle
10
-2854.4607743047
20
-1349.9999999999991
30
0
40
1.4999999999997715
210
0
220
0
230
1
0
CIRCLE
5
258
100
AcDbEntity
8
0
100
AcDbCircle
10
-2827.0000421255809
20
-1444.6374697843985
30
0
40
1.4999999999997715
210
0
220
-0
230
1
0
CIRCLE
5
259
100
AcDbEntity
8
0
100
AcDbCircle
10
-2854.4607743047
20
-1539.0000229328859
30
0
40
1.4999999999997715
210
0
220
-0
230
1
0
CIRCLE
5
260
100
AcDbEntity
8
0
100
AcDbCircle
10
-2950.0000439584237
20
-1444.6374697843985
30
0
40
1.4999999999997715
210
0
220
-0
230
1
0
CIRCLE
5
261
100
AcDbEntity
8
0
100
AcDbCircle
10
-2922.4607743046995
20
-1539.0000229328859
30
0
40
1.4999999999997715
210
0
220
-0
230
1
0
LWPOLYLINE
5
262
100
AcDbEntity
8
0
100
AcDbPolyline
90
4
70
1
43
0.0
10
-2935.3989999999976
20
-1389.1369999999993
10
-2937.9389999999976
20
-1389.1369999999993
10
-2937.9389999999976
20
-1396.7569999999992
10
-2935.3989999999976
20
-1396.7569999999992
0
LWPOLYLINE
5
263
100
AcDbEntity
8
0
100
AcDbPolyline
90
4
70
1
43
0.0
10
-2932.8389999999981
20
-1492.6369999999988
10
-2932.8389999999981
20
-1500.2569999999989
10
-2930.2989999999977
20
-1500.2569999999992
10
-2930.2989999999977
20
-1492.6369999999993
0
CIRCLE
5
264
100
AcDbEntity
8
0
100
AcDbCircle
10
-2913.3599999999979
20
-1380.5829999999992
30
0
40
1.600000000000249
210
0
220
0
230
1
0
CIRCLE
5
265
100
AcDbEntity
8
0
100
AcDbCircle
10
-2908.2599999999979
20
-1484.0829999999992
30
0
40
1.600000000000249
210
0
220
0
230
1
0
CIRCLE
5
266
100
AcDbEntity
8
0
100
AcDbCircle
10
-2863.2599999999979
20
-1508.9719999999988
30
0
40
1.600000000000249
210
0
220
0
230
1
0
CIRCLE
5
267
100
AcDbEntity
8
0
100
AcDbCircle
10
-2868.3599999999979
20
-1405.4719999999993
30
0
40
1.600000000000249
210
0
220
0
230
1
0
LWPOLYLINE
5
268
100
AcDbEntity
8
0
100
AcDbPolyline
90
4
70
1
43
0.0
10
-2882.8389999999981
20
-1492.6369999999988
10
-2882.8389999999981
20
-1500.2569999999989
10
-2880.2989999999977
20
-1500.2569999999992
10
-2880.2989999999977
20
-1492.6369999999993
0
LWPOLYLINE
5
269
100
AcDbEntity
8
0
100
AcDbPolyline
90
4
70
1
43
0.0
10
-2844.7639999999978
20
-1396.7569999999992
10
-2844.7639999999978
20
-1389.1369999999993
10
-2847.3039999999983
20
-1389.1369999999993
10
-2847.3039999999983
20
-1396.7569999999992
0
LWPOLYLINE
5
270
100
AcDbEntity
8
0
100
AcDbPolyline
90
4
70
1
43
0.0
10
-2894.7639999999978
20
-1389.1369999999993
10
-2897.3039999999983
20
-1389.1369999999993
10
-2897.3039999999983
20
-1396.7569999999992
10
-2894.7639999999978
20
-1396.7569999999992
0
LWPOLYLINE
5
271
100
AcDbEntity
8
0
100
AcDbPolyline
90
4
70
1
43
0.0
10
-2889.6639999999979
20
-1500.2569999999992
10
-2889.6639999999979
20
-1492.6369999999993
10
-2892.2039999999979
20
-1492.6369999999988
10
-2892.2039999999979
20
-1500.2569999999989
0
CIRCLE
5
272
100
AcDbEntity
8
0
100
AcDbCircle
10
-2913.2599999999979
20
-1508.9719999999988
30
0
40
1.600000000000249
210
0
220
0
230
1
0
CIRCLE
5
273
100
AcDbEntity
8
0
100
AcDbCircle
10
-2858.2599999999979
20
-1484.0829999999992
30
0
40
1.600000000000249
210
0
220
0
230
1
0
CIRCLE
5
274
100
AcDbEntity
8
0
100
AcDbCircle
10
-2863.3599999999979
20
-1380.5829999999992
30
0
40
1.600000000000249
210
0
220
0
230
1
0
LWPOLYLINE
5
275
100
AcDbEntity
8
0
100
AcDbPolyline
90
4
70
1
43
0.0
10
-2839.6639999999979
20
-1500.2569999999992
10
-2839.6639999999979
20
-1492.6369999999993
10
-2842.2039999999979
20
-1492.6369999999988
10
-2842.2039999999979
20
-1500.2569999999989
0
LWPOLYLINE
5
276
100
AcDbEntity
8
0
100
AcDbPolyline
90
4
70
1
43
0.0
10
-2887.9389999999976
20
-1389.1369999999993
10
-2887.9389999999976
20
-1396.7569999999992
10
-2885.3989999999976
20
-1396.7569999999992
10
-2885.3989999999976
20
-1389.1369999999993
0
ENDSEC
0
SECTION
2
OBJECTS
0
DICTIONARY
5
C
100
AcDbDictionary
3
ACAD_GROUP
350
D
3
ACAD_MLINESTYLE
350
17
0
DICTIONARY
5
D
100
AcDbDictionary
0
DICTIONARY
5
1A
330
C
100
AcDbDictionary
0
DICTIONARY
5
17
100
AcDbDictionary
0
ENDSEC
0
EOF
