  0
SECTION
  2
HEADER
  9
$ACADVER
  1
AC1015
  9
$ACADMAINTVER
 70
     6
  9
$DWGCODEPAGE
  3
ANSI_1252
  9
$INSBASE
 10
0.0
 20
0.0
 30
0.0
  9
$EXTMIN
 10
0.0
 20
0.0
 30
0.0
  9
$EXTMAX
 10
594.0
 20
420.0
 30
0.0
  9
$LIMMIN
 10
0.0
 20
0.0
  9
$LIMMAX
 10
594.0
 20
420.0
  9
$ORTHOMODE
 70
     0
  9
$REGENMODE
 70
     1
  9
$FILLMODE
 70
     1
  9
$QTEXTMODE
 70
     0
  9
$MIRRTEXT
 70
     1
  9
$LTSCALE
 40
1.0
  9
$ATTMODE
 70
     1
  9
$TEXTSIZE
 40
3.5
  9
$TRACEWID
 40
1.0
  9
$TEXTSTYLE
  7
Standard
  9
$CLAYER
  8
0
  9
$CELTYPE
  6
ByLayer
  9
$CECOLOR
 62
   256
  9
$CELTSCALE
 40
1.0
  9
$DISPSILH
 70
     0
  9
$DIMSCALE
 40
1.0
  9
$DIMASZ
 40
3.302
  9
$DIMEXO
 40
1.0
  9
$DIMDLI
 40
3.75
  9
$DIMRND
 40
0.0
  9
$DIMDLE
 40
0.0
  9
$DIMEXE
 40
1.0
  9
$DIMTP
 40
0.0
  9
$DIMTM
 40
0.0
  9
$DIMTXT
 40
3.5
  9
$DIMCEN
 40
2.5
  9
$DIMTSZ
 40
0.0
  9
$DIMTOL
 70
     0
  9
$DIMLIM
 70
     0
  9
$DIMTIH
 70
     1
  9
$DIMTOH
 70
     1
  9
$DIMSE1
 70
     0
  9
$DIMSE2
 70
     0
  9
$DIMTAD
 70
     1
  9
$DIMZIN
 70
     1
  9
$DIMBLK
  1

  9
$DIMASO
 70
     1
  9
$DIMSHO
 70
     1
  9
$DIMPOST
  1

  9
$DIMAPOST
  1

  9
$DIMALT
 70
     0
  9
$DIMALTD
 70
     3
  9
$DIMALTF
 40
0.0393700787
  9
$DIMLFAC
 40
1.0
  9
$DIMTOFL
 70
     1
  9
$DIMTVP
 40
0.0
  9
$DIMTIX
 70
     0
  9
$DIMSOXD
 70
     0
  9
$DIMSAH
 70
     0
  9
$DIMBLK1
  1

  9
$DIMBLK2
  1

  9
$DIMSTYLE
  2
ISO-25
  9
$DIMCLRD
 70
     0
  9
$DIMCLRE
 70
     0
  9
$DIMCLRT
 70
     0
  9
$DIMTFAC
 40
1.0
  9
$DIMGAP
 40
1.524
  9
$DIMJUST
 70
     0
  9
$DIMSD1
 70
     0
  9
$DIMSD2
 70
     0
  9
$DIMTOLJ
 70
     0
  9
$DIMTZIN
 70
     1
  9
$DIMALTZ
 70
     0
  9
$DIMALTTZ
 70
     0
  9
$DIMUPT
 70
     0
  9
$DIMDEC
 70
     0
  9
$DIMTDEC
 70
     2
  9
$DIMALTU
 70
     2
  9
$DIMALTTD
 70
     3
  9
$DIMTXSTY
  7
Standard
  9
$DIMAUNIT
 70
     0
  9
$DIMADEC
 70
     0
  9
$DIMALTRND
 40
0.0
  9
$DIMAZIN
 70
     0
  9
$DIMDSEP
 70
    44
  9
$DIMATFIT
 70
     3
  9
$DIMFRAC
 70
     0
  9
$DIMLDRBLK
  1

  9
$DIMLUNIT
 70
     2
  9
$DIMLWD
 70
    -2
  9
$DIMLWE
 70
    -2
  9
$DIMTMOVE
 70
     0
  9
$LUNITS
 70
     2
  9
$LUPREC
 70
     4
  9
$SKETCHINC
 40
1.0
  9
$FILLETRAD
 40
10.0
  9
$AUNITS
 70
     0
  9
$AUPREC
 70
     0
  9
$MENU
  1
.
  9
$ELEVATION
 40
0.0
  9
$PELEVATION
 40
0.0
  9
$THICKNESS
 40
0.0
  9
$LIMCHECK
 70
     0
  9
$CHAMFERA
 40
0.0
  9
$CHAMFERB
 40
0.0
  9
$CHAMFERC
 40
0.0
  9
$CHAMFERD
 40
0.0
  9
$SKPOLY
 70
     0
  9
$TDCREATE
 40
2458453.657555452
  9
$TDUCREATE
 40
2458453.907555452
  9
$TDUPDATE
 40
2458453.657561123
  9
$TDUUPDATE
 40
2458453.907561123
  9
$TDINDWG
 40
0.0000000116
  9
$TDUSRTIMER
 40
0.0000000116
  9
$USRTIMER
 70
     1
  9
$ANGBASE
 50
0.0
  9
$ANGDIR
 70
     0
  9
$PDMODE
 70
     0
  9
$PDSIZE
 40
-1.0
  9
$PLINEWID
 40
0.0
  9
$SPLFRAME
 70
     0
  9
$SPLINETYPE
 70
     6
  9
$SPLINESEGS
 70
     8
  9
$HANDSEED
  5
271
  9
$SURFTAB1
 70
     6
  9
$SURFTAB2
 70
     6
  9
$SURFTYPE
 70
     6
  9
$SURFU
 70
     6
  9
$SURFV
 70
     6
  9
$UCSBASE
  2

  9
$UCSNAME
  2

  9
$UCSORG
 10
0.0
 20
0.0
 30
0.0
  9
$UCSXDIR
 10
1.0
 20
0.0
 30
0.0
  9
$UCSYDIR
 10
0.0
 20
1.0
 30
0.0
  9
$UCSORTHOREF
  2

  9
$UCSORTHOVIEW
 70
     0
  9
$UCSORGTOP
 10
0.0
 20
0.0
 30
0.0
  9
$UCSORGBOTTOM
 10
0.0
 20
0.0
 30
0.0
  9
$UCSORGLEFT
 10
0.0
 20
0.0
 30
0.0
  9
$UCSORGRIGHT
 10
0.0
 20
0.0
 30
0.0
  9
$UCSORGFRONT
 10
0.0
 20
0.0
 30
0.0
  9
$UCSORGBACK
 10
0.0
 20
0.0
 30
0.0
  9
$PUCSBASE
  2

  9
$PUCSNAME
  2

  9
$PUCSORG
 10
0.0
 20
0.0
 30
0.0
  9
$PUCSXDIR
 10
1.0
 20
0.0
 30
0.0
  9
$PUCSYDIR
 10
0.0
 20
1.0
 30
0.0
  9
$PUCSORTHOREF
  2

  9
$PUCSORTHOVIEW
 70
     0
  9
$PUCSORGTOP
 10
0.0
 20
0.0
 30
0.0
  9
$PUCSORGBOTTOM
 10
0.0
 20
0.0
 30
0.0
  9
$PUCSORGLEFT
 10
0.0
 20
0.0
 30
0.0
  9
$PUCSORGRIGHT
 10
0.0
 20
0.0
 30
0.0
  9
$PUCSORGFRONT
 10
0.0
 20
0.0
 30
0.0
  9
$PUCSORGBACK
 10
0.0
 20
0.0
 30
0.0
  9
$USERI1
 70
     0
  9
$USERI2
 70
     0
  9
$USERI3
 70
     0
  9
$USERI4
 70
     0
  9
$USERI5
 70
     0
  9
$USERR1
 40
0.0
  9
$USERR2
 40
0.0
  9
$USERR3
 40
0.0
  9
$USERR4
 40
0.0
  9
$USERR5
 40
0.0
  9
$WORLDVIEW
 70
     1
  9
$SHADEDGE
 70
     3
  9
$SHADEDIF
 70
    70
  9
$TILEMODE
 70
     1
  9
$MAXACTVP
 70
    64
  9
$PINSBASE
 10
0.0
 20
0.0
 30
0.0
  9
$PLIMCHECK
 70
     0
  9
$PEXTMIN
 10
1.0000000000E+20
 20
1.0000000000E+20
 30
1.0000000000E+20
  9
$PEXTMAX
 10
-1.0000000000E+20
 20
-1.0000000000E+20
 30
-1.0000000000E+20
  9
$PLIMMIN
 10
0.0
 20
0.0
  9
$PLIMMAX
 10
420.0
 20
297.0
  9
$UNITMODE
 70
     0
  9
$VISRETAIN
 70
     1
  9
$PLINEGEN
 70
     0
  9
$PSLTSCALE
 70
     1
  9
$TREEDEPTH
 70
  3020
  9
$CMLSTYLE
  2
Standard
  9
$CMLJUST
 70
     0
  9
$CMLSCALE
 40
20.0
  9
$PROXYGRAPHICS
 70
     1
  9
$MEASUREMENT
 70
     1
  9
$CELWEIGHT
370
    -1
  9
$ENDCAPS
280
     0
  9
$JOINSTYLE
280
     0
  9
$LWDISPLAY
290
     1
  9
$INSUNITS
 70
     4
  9
$HYPERLINKBASE
  1

  9
$STYLESHEET
  1

  9
$XEDIT
290
     1
  9
$CEPSNTYPE
380
     0
  9
$PSTYLEMODE
290
     1
  9
$FINGERPRINTGUID
  2
{2B85FA39-8A8B-4925-A505-A11556F44998}
  9
$VERSIONGUID
  2
{FAEB1C32-E019-11D5-929B-00C0DF256EC4}
  9
$EXTNAMES
290
     1
  9
$PSVPSCALE
 40
0.0
  9
$OLESTARTUP
290
     0
  0
ENDSEC
  0
SECTION
  2
CLASSES
  0
CLASS
  1
ACDBDICTIONARYWDFLT
  2
AcDbDictionaryWithDefault
  3
ObjectDBX Classes
 90
        0
280
     0
281
     0
  0
CLASS
  1
VISUALSTYLE
  2
AcDbVisualStyle
  3
ObjectDBX Classes
 90
     4095
280
     0
281
     0
  0
CLASS
  1
MATERIAL
  2
AcDbMaterial
  3
ObjectDBX Classes
 90
     1153
280
     0
281
     0
  0
CLASS
  1
SCALE
  2
AcDbScale
  3
ObjectDBX Classes
 90
     1153
280
     0
281
     0
  0
CLASS
  1
TABLESTYLE
  2
AcDbTableStyle
  3
ObjectDBX Classes
 90
     4095
280
     0
281
     0
  0
CLASS
  1
MLEADERSTYLE
  2
AcDbMLeaderStyle
  3
ACDB_MLEADERSTYLE_CLASS
 90
     4095
280
     0
281
     0
  0
CLASS
  1
SUN
  2
AcDbSun
  3
SCENEOE
 90
     1153
280
     0
281
     0
  0
CLASS
  1
ACDBPLACEHOLDER
  2
AcDbPlaceHolder
  3
ObjectDBX Classes
 90
        0
280
     0
281
     0
  0
CLASS
  1
LAYOUT
  2
AcDbLayout
  3
ObjectDBX Classes
 90
        0
280
     0
281
     0
  0
ENDSEC
  0
SECTION
  2
TABLES
  0
TABLE
  2
VPORT
  5
8
330
0
100
AcDbSymbolTable
 70
     1
  0
VPORT
  5
29
330
8
100
AcDbSymbolTableRecord
100
AcDbViewportTableRecord
  2
*Active
 70
     0
 10
0.0
 20
0.0
 11
1.0
 21
1.0
 12
297.0
 22
210.0
 13
0.0
 23
0.0
 14
10.0
 24
10.0
 15
10.0
 25
10.0
 16
0.0
 26
0.0
 36
1.0
 17
0.0
 27
0.0
 37
0.0
 40
420.0
 41
1.4142857143
 42
50.0
 43
0.0
 44
0.0
 50
0.0
 51
0.0
 71
     0
 72
  2000
 73
     1
 74
     3
 75
     0
 76
     0
 77
     0
 78
     0
281
     0
 65
     1
110
0.0
120
0.0
130
0.0
111
1.0
121
0.0
131
0.0
112
0.0
122
1.0
132
0.0
 79
     0
146
0.0
  0
ENDTAB
  0
TABLE
  2
LTYPE
  5
5
330
0
100
AcDbSymbolTable
 70
     6
  0
LTYPE
  5
14
330
5
100
AcDbSymbolTableRecord
100
AcDbLinetypeTableRecord
  2
ByBlock
 70
     0
  3

 72
    65
 73
     0
 40
0.0
  0
LTYPE
  5
15
330
5
100
AcDbSymbolTableRecord
100
AcDbLinetypeTableRecord
  2
ByLayer
 70
     0
  3

 72
    65
 73
     0
 40
0.0
  0
LTYPE
  5
16
330
5
100
AcDbSymbolTableRecord
100
AcDbLinetypeTableRecord
  2
Continuous
 70
     0
  3
Solid line
 72
    65
 73
     0
 40
0.0
  0
LTYPE
  5
6E
330
5
100
AcDbSymbolTableRecord
100
AcDbLinetypeTableRecord
  2
HIDDEN
 70
     0
  3
Hidden __ __ __ __ __ __ __ __ __ __ __ __ __ __
 72
    65
 73
     2
 40
1.905
 49
1.27
 74
     0
 49
-0.635
 74
     0
  0
LTYPE
  5
6F
330
5
100
AcDbSymbolTableRecord
100
AcDbLinetypeTableRecord
  2
PHANTOM
 70
     0
  3
Phantom ______  __  __  ______  __  __  ______
 72
    65
 73
     6
 40
12.7
 49
6.35
 74
     0
 49
-1.27
 74
     0
 49
1.27
 74
     0
 49
-1.27
 74
     0
 49
1.27
 74
     0
 49
-1.27
 74
     0
  0
LTYPE
  5
70
330
5
100
AcDbSymbolTableRecord
100
AcDbLinetypeTableRecord
  2
CENTER
 70
     0
  3
Center ____ _ ____ _ ____ _ ____ _ ____ _ ____
 72
    65
 73
     4
 40
10.16
 49
6.35
 74
     0
 49
-1.27
 74
     0
 49
1.27
 74
     0
 49
-1.27
 74
     0
  0
LTYPE
  5
71
330
5
100
AcDbSymbolTableRecord
100
AcDbLinetypeTableRecord
  2
CENTERX2
 70
     0
  3
Center (2x) ________  __  ________  __  _____
 72
    65
 73
     4
 40
20.32
 49
12.7
 74
     0
 49
-2.54
 74
     0
 49
2.54
 74
     0
 49
-2.54
 74
     0
  0
LTYPE
  5
72
330
5
100
AcDbSymbolTableRecord
100
AcDbLinetypeTableRecord
  2
DOT2
 70
     0
  3
Dot (.5x) ........................................
 72
    65
 73
     2
 40
0.635
 49
0.0
 74
     0
 49
-0.635
 74
     0
  0
ENDTAB
  0
TABLE
  2
LAYER
  5
2
330
0
100
AcDbSymbolTable
 70
     7
  0
LAYER
  5
10
330
2
100
AcDbSymbolTableRecord
100
AcDbLayerTableRecord
  2
0
 70
     0
 62
     7
  6
Continuous
370
    -3
390
F
  0
LAYER
  5
73
330
2
100
AcDbSymbolTableRecord
100
AcDbLayerTableRecord
  2
SLD-0
 70
     0
 62
   179
  6
Continuous
370
    -3
390
F
  0
LAYER
  5
74
330
2
100
AcDbSymbolTableRecord
100
AcDbLayerTableRecord
  2
CAPA_1
 70
     0
 62
   179
  6
Continuous
370
    -3
390
F
  0
LAYER
  5
75
330
2
100
AcDbSymbolTableRecord
100
AcDbLayerTableRecord
  2
SLD-DEFPOINTS
 70
     0
 62
   179
  6
Continuous
290
     0
370
    -3
390
F
  0
LAYER
  5
76
330
2
100
AcDbSymbolTableRecord
100
AcDbLayerTableRecord
  2
SOMBREADOS
 70
     0
 62
     2
  6
Continuous
370
    -3
390
F
  0
LAYER
  5
77
330
2
100
AcDbSymbolTableRecord
100
AcDbLayerTableRecord
  2
CONTORNO
 70
     0
 62
   250
  6
Continuous
370
    -3
390
F
  0
LAYER
  5
78
330
2
100
AcDbSymbolTableRecord
100
AcDbLayerTableRecord
  2
FORMAT
 70
     0
 62
     7
  6
Continuous
370
    -3
390
F
  0
ENDTAB
  0
TABLE
  2
STYLE
  5
3
330
0
100
AcDbSymbolTable
 70
     3
  0
STYLE
  5
11
330
3
100
AcDbSymbolTableRecord
100
AcDbTextStyleTableRecord
  2
Standard
 70
     0
 40
0.0
 41
1.0
 50
0.0
 71
     0
 42
3.5
  3
txt
  4

  0
STYLE
  5
19A
330
3
100
AcDbSymbolTableRecord
100
AcDbTextStyleTableRecord
  2
SLDTEXTSTYLE0
 70
     0
 40
0.0
 41
0.75
 50
0.0
 71
     0
 42
3.5
  3
TXT
  4

  0
STYLE
  5
26C
330
3
100
AcDbSymbolTableRecord
100
AcDbTextStyleTableRecord
  2
SLDTEXTSTYLE1
 70
     0
 40
0.0
 41
0.6818181818
 50
0.0
 71
     0
 42
3.5
  3
TXT
  4

  0
ENDTAB
  0
TABLE
  2
VIEW
  5
6
330
0
100
AcDbSymbolTable
 70
     0
  0
ENDTAB
  0
TABLE
  2
UCS
  5
7
330
0
100
AcDbSymbolTable
 70
     0
  0
ENDTAB
  0
TABLE
  2
APPID
  5
9
330
0
100
AcDbSymbolTable
 70
     1
  0
APPID
  5
12
330
9
100
AcDbSymbolTableRecord
100
AcDbRegAppTableRecord
  2
ACAD
 70
     0
  0
ENDTAB
  0
TABLE
  2
DIMSTYLE
  5
A
330
0
100
AcDbSymbolTable
 70
     6
100
AcDbDimStyleTable
  0
DIMSTYLE
105
27
330
A
100
AcDbSymbolTableRecord
100
AcDbDimStyleTableRecord
  2
ISO-25
 70
     0
 41
2.5
 42
0.625
 43
3.75
 44
1.25
 73
     0
 74
     0
 77
     1
 78
     8
140
2.5
141
2.5
143
0.0393700787
147
0.625
171
     3
172
     1
178
     0
271
     2
272
     2
274
     3
278
    44
283
     0
284
     8
340
11
  0
DIMSTYLE
105
19B
102
{ACAD_REACTORS
330
199
102
}
330
A
100
AcDbSymbolTableRecord
100
AcDbDimStyleTableRecord
  2
SLDDIMSTYLE0
 70
     0
 41
3.302
 44
0.0
 45
0.000000001
 73
     0
 74
     0
 77
     1
 78
     4
 79
     1
140
3.5
141
0.0
147
0.875
173
     1
178
     0
271
     0
272
     2
276
     2
284
    12
340
19A
  0
DIMSTYLE
105
1A4
102
{ACAD_REACTORS
330
1A3
330
1C6
330
1E6
330
1F2
330
1FE
330
20A
102
}
330
A
100
AcDbSymbolTableRecord
100
AcDbDimStyleTableRecord
  2
SLDDIMSTYLE1
 70
     0
 41
3.302
 44
0.0
 45
0.000000001
 73
     0
 74
     0
 77
     1
 78
    12
 79
     3
140
3.5
147
0.875
172
     1
173
     1
178
     0
271
     0
272
     2
276
     2
284
    12
289
     0
340
19A
  0
DIMSTYLE
105
1B1
102
{ACAD_REACTORS
330
1B0
330
1D2
102
}
330
A
100
AcDbSymbolTableRecord
100
AcDbDimStyleTableRecord
  2
SLDDIMSTYLE2
 70
     0
 41
3.302
 44
0.0
 45
0.000000001
 73
     0
 74
     0
 77
     1
 78
     4
 79
     1
140
3.5
147
0.875
173
     1
178
     0
271
     0
272
     2
276
     2
284
    12
340
19A
  0
DIMSTYLE
105
1BC
102
{ACAD_REACTORS
330
1BB
330
1DC
102
}
330
A
100
AcDbSymbolTableRecord
100
AcDbDimStyleTableRecord
  2
SLDDIMSTYLE3
 70
     0
 41
3.302
 44
0.0
 45
0.000000001
 73
     0
 74
     0
 77
     1
 78
    12
 79
     3
140
3.5
147
0.875
173
     1
178
     0
271
     0
272
     2
276
     2
284
    12
340
19A
  0
DIMSTYLE
105
217
102
{ACAD_REACTORS
330
216
102
}
330
A
100
AcDbSymbolTableRecord
100
AcDbDimStyleTableRecord
  2
SLDDIMSTYLE4
 70
     0
 41
3.302
 44
0.0
 45
0.000000001
 73
     0
 74
     0
 77
     1
 78
     4
 79
     1
140
3.5
147
0.875
172
     1
173
     1
178
     0
271
     0
272
     2
276
     2
284
    12
289
     0
340
19A
  0
ENDTAB
  0
TABLE
  2
BLOCK_RECORD
  5
1
330
0
100
AcDbSymbolTable
 70
    15
  0
BLOCK_RECORD
  5
1F
330
1
100
AcDbSymbolTableRecord
100
AcDbBlockTableRecord
  2
*Model_Space
340
22
  0
BLOCK_RECORD
  5
1B
330
1
100
AcDbSymbolTableRecord
100
AcDbBlockTableRecord
  2
*Paper_Space
340
1E
  0
BLOCK_RECORD
  5
23
330
1
100
AcDbSymbolTableRecord
100
AcDbBlockTableRecord
  2
*Paper_Space0
340
26
  0
BLOCK_RECORD
  5
19C
330
1
100
AcDbSymbolTableRecord
100
AcDbBlockTableRecord
  2
_D
340
0
  0
BLOCK_RECORD
  5
1A5
330
1
100
AcDbSymbolTableRecord
100
AcDbBlockTableRecord
  2
_D_1
340
0
  0
BLOCK_RECORD
  5
1B2
330
1
100
AcDbSymbolTableRecord
100
AcDbBlockTableRecord
  2
_D_2
340
0
  0
BLOCK_RECORD
  5
1BD
330
1
100
AcDbSymbolTableRecord
100
AcDbBlockTableRecord
  2
_D_3
340
0
  0
BLOCK_RECORD
  5
1C7
330
1
100
AcDbSymbolTableRecord
100
AcDbBlockTableRecord
  2
_D_4
340
0
  0
BLOCK_RECORD
  5
1D3
330
1
100
AcDbSymbolTableRecord
100
AcDbBlockTableRecord
  2
_D_5
340
0
  0
BLOCK_RECORD
  5
1DD
330
1
100
AcDbSymbolTableRecord
100
AcDbBlockTableRecord
  2
_D_6
340
0
  0
BLOCK_RECORD
  5
1E7
330
1
100
AcDbSymbolTableRecord
100
AcDbBlockTableRecord
  2
_D_7
340
0
  0
BLOCK_RECORD
  5
1F3
330
1
100
AcDbSymbolTableRecord
100
AcDbBlockTableRecord
  2
_D_8
340
0
  0
BLOCK_RECORD
  5
1FF
330
1
100
AcDbSymbolTableRecord
100
AcDbBlockTableRecord
  2
_D_9
340
0
  0
BLOCK_RECORD
  5
20B
330
1
100
AcDbSymbolTableRecord
100
AcDbBlockTableRecord
  2
_D_10
340
0
  0
BLOCK_RECORD
  5
218
330
1
100
AcDbSymbolTableRecord
100
AcDbBlockTableRecord
  2
_D_11
340
0
  0
BLOCK_RECORD
  5
251
330
1
100
AcDbSymbolTableRecord
100
AcDbBlockTableRecord
  2
SW_NOTE_0
340
0
102
{BLKREFS
331
25A
102
}
  0
BLOCK_RECORD
  5
25C
330
1
100
AcDbSymbolTableRecord
100
AcDbBlockTableRecord
  2
SW_NOTE_1
340
0
102
{BLKREFS
331
262
102
}
  0
ENDTAB
  0
ENDSEC
  0
SECTION
  2
BLOCKS
  0
BLOCK
  5
20
330
1F
100
AcDbEntity
  8
0
100
AcDbBlockBegin
  2
*Model_Space
 70
     0
 10
0.0
 20
0.0
 30
0.0
  3
*Model_Space
  1

  0
ENDBLK
  5
21
330
1F
100
AcDbEntity
  8
0
100
AcDbBlockEnd
  0
BLOCK
  5
1C
330
1B
100
AcDbEntity
 67
     1
  8
0
100
AcDbBlockBegin
  2
*Paper_Space
 70
     0
 10
0.0
 20
0.0
 30
0.0
  3
*Paper_Space
  1

  0
ENDBLK
  5
1D
330
1B
100
AcDbEntity
 67
     1
  8
0
100
AcDbBlockEnd
  0
BLOCK
  5
24
330
23
100
AcDbEntity
  8
0
100
AcDbBlockBegin
  2
*Paper_Space0
 70
     0
 10
0.0
 20
0.0
 30
0.0
  3
*Paper_Space0
  1

  0
ENDBLK
  5
25
330
23
100
AcDbEntity
  8
0
100
AcDbBlockEnd
  0
BLOCK
  5
19D
330
19C
100
AcDbEntity
  8
0
100
AcDbBlockBegin
  2
_D
 70
     0
 10
0.0
 20
0.0
 30
0.0
  3
_D
  1

  0
SOLID
  5
19F
330
19C
100
AcDbEntity
  8
SLD-0
100
AcDbTrace
 10
465.5636517682
 20
234.8739812902
 30
0.0
 11
468.2577286045
 21
236.8496376368
 31
0.0
 12
467.5393081148
 22
237.5680581265
 32
0.0
 13
467.5393081148
 23
237.5680581265
 33
0.0
  0
LINE
  5
1A0
330
19C
100
AcDbEntity
  8
SLD-0
100
AcDbLine
 10
465.5636517682
 20
234.8739812902
 30
0.0
 11
486.8559157627
 21
256.1662452847
 31
0.0
  0
LINE
  5
1A1
330
19C
100
AcDbEntity
  8
SLD-0
100
AcDbLine
 10
465.5636517682
 20
234.8739812902
 30
0.0
 11
455.6641568316
 21
224.9744863536
 31
0.0
  0
MTEXT
  5
1A2
330
19C
100
AcDbEntity
  8
SLD-0
100
AcDbMText
 10
473.438239731
 20
249.1180886632
 30
0.0
 40
3.5
 41
0.0
 71
     1
 72
     1
  1
R14.00
  7
SLDTEXTSTYLE0
 11
0.707106781186546
 21
0.707106781186549
 31
0.0
 73
     1
 44
1.0
  0
ENDBLK
  5
19E
330
19C
100
AcDbEntity
  8
0
100
AcDbBlockEnd
  0
BLOCK
  5
1A6
330
1A5
100
AcDbEntity
  8
0
100
AcDbBlockBegin
  2
_D_1
 70
     0
 10
0.0
 20
0.0
 30
0.0
  3
_D_1
  1

  0
SOLID
  5
1A8
330
1A5
100
AcDbEntity
  8
SLD-0
100
AcDbTrace
 10
110.3935980645
 20
234.5458732747
 30
0.0
 11
107.6995212281
 21
232.570216928
 31
0.0
 12
108.4179417178
 22
231.8517964383
 32
0.0
 13
108.4179417178
 23
231.8517964383
 33
0.0
  0
SOLID
  5
1A9
330
1A5
100
AcDbEntity
  8
SLD-0
100
AcDbTrace
 10
121.4539716499
 20
245.6062468601
 30
0.0
 11
124.1480484862
 21
247.5819032067
 31
0.0
 12
123.4296279966
 22
248.3003236964
 32
0.0
 13
123.4296279966
 23
248.3003236964
 33
0.0
  0
LINE
  5
1AA
330
1A5
100
AcDbEntity
  8
SLD-0
100
AcDbLine
 10
116.5772773346
 20
228.3621940045
 30
0.0
 11
109.6864912833
 21
235.2529800558
 31
0.0
  0
LINE
  5
1AB
330
1A5
100
AcDbEntity
  8
SLD-0
100
AcDbLine
 10
127.6376509201
 20
239.4225675899
 30
0.0
 11
120.7468648687
 21
246.3133536413
 31
0.0
  0
LINE
  5
1AC
330
1A5
100
AcDbEntity
  8
SLD-0
100
AcDbLine
 10
110.3935980645
 20
234.5458732747
 30
0.0
 11
105.9034700039
 21
230.0557452141
 31
0.0
  0
LINE
  5
1AD
330
1A5
100
AcDbEntity
  8
SLD-0
100
AcDbLine
 10
110.3935980645
 20
234.5458732747
 30
0.0
 11
121.4539716499
 21
245.6062468601
 31
0.0
  0
LINE
  5
1AE
330
1A5
100
AcDbEntity
  8
SLD-0
100
AcDbLine
 10
121.4539716499
 20
245.6062468601
 30
0.0
 11
125.9440997105
 21
250.0963749206
 31
0.0
  0
MTEXT
  5
1AF
330
1A5
100
AcDbEntity
  8
SLD-0
100
AcDbMText
 10
108.1817898339
 20
238.7146245785
 30
0.0
 40
3.5
 41
0.0
 71
     1
 72
     1
  1
15.64
  7
SLDTEXTSTYLE0
 11
0.7071067811871659
 21
0.7071067811859291
 31
0.0
 73
     1
 44
1.0
  0
ENDBLK
  5
1A7
330
1A5
100
AcDbEntity
  8
0
100
AcDbBlockEnd
  0
BLOCK
  5
1B3
330
1B2
100
AcDbEntity
  8
0
100
AcDbBlockBegin
  2
_D_2
 70
     0
 10
0.0
 20
0.0
 30
0.0
  3
_D_2
  1

  0
SOLID
  5
1B5
330
1B2
100
AcDbEntity
  8
SLD-0
100
AcDbTrace
 10
93.5407872078
 20
238.7154608087
 30
0.0
 11
93.0327872078
 21
235.4134608087
 31
0.0
 12
94.0487872078
 22
235.4134608087
 32
0.0
 13
94.0487872078
 23
235.4134608087
 33
0.0
  0
SOLID
  5
1B6
330
1B2
100
AcDbEntity
  8
SLD-0
100
AcDbTrace
 10
93.5407872078
 20
108.7154608087
 30
0.0
 11
94.0487872078
 21
112.0174608087
 31
0.0
 12
93.0327872078
 22
112.0174608087
 32
0.0
 13
93.0327872078
 23
112.0174608087
 33
0.0
  0
LINE
  5
1B7
330
1B2
100
AcDbEntity
  8
SLD-0
100
AcDbLine
 10
127.3447577013
 20
238.7154608087
 30
0.0
 11
92.5407872078
 21
238.7154608087
 31
0.0
  0
LINE
  5
1B8
330
1B2
100
AcDbEntity
  8
SLD-0
100
AcDbLine
 10
127.3447577013
 20
108.7154608087
 30
0.0
 11
92.5407872078
 21
108.7154608087
 31
0.0
  0
LINE
  5
1B9
330
1B2
100
AcDbEntity
  8
SLD-0
100
AcDbLine
 10
93.5407872078
 20
238.7154608087
 30
0.0
 11
93.5407872078
 21
108.7154608087
 31
0.0
  0
MTEXT
  5
1BA
330
1B2
100
AcDbEntity
  8
SLD-0
100
AcDbMText
 10
89.0290502932
 20
157.6775421618
 30
0.0
 40
3.5
 41
0.0
 71
     1
 72
     1
  1
130.00
  7
SLDTEXTSTYLE0
 11
-7.044195017643634E-15
 21
1.0
 31
0.0
 73
     1
 44
1.0
  0
ENDBLK
  5
1B4
330
1B2
100
AcDbEntity
  8
0
100
AcDbBlockEnd
  0
BLOCK
  5
1BE
330
1BD
100
AcDbEntity
  8
0
100
AcDbBlockBegin
  2
_D_3
 70
     0
 10
0.0
 20
0.0
 30
0.0
  3
_D_3
  1

  0
SOLID
  5
1C0
330
1BD
100
AcDbEntity
  8
SLD-0
100
AcDbTrace
 10
192.8702519833
 20
216.7936198597
 30
0.0
 11
189.5682519833
 21
217.3016198597
 31
0.0
 12
189.5682519833
 22
216.2856198597
 32
0.0
 13
189.5682519833
 23
216.2856198597
 33
0.0
  0
SOLID
  5
1C1
330
1BD
100
AcDbEntity
  8
SLD-0
100
AcDbTrace
 10
161.8323388568
 20
216.7936198597
 30
0.0
 11
165.1343388568
 21
216.2856198597
 31
0.0
 12
165.1343388568
 22
217.3016198597
 32
0.0
 13
165.1343388568
 23
217.3016198597
 33
0.0
  0
LINE
  5
1C2
330
1BD
100
AcDbEntity
  8
SLD-0
100
AcDbLine
 10
192.8702519833
 20
213.0195731559
 30
0.0
 11
192.8702519833
 21
217.7936198597
 31
0.0
  0
LINE
  5
1C3
330
1BD
100
AcDbEntity
  8
SLD-0
100
AcDbLine
 10
161.8323388568
 20
213.0195731559
 30
0.0
 11
161.8323388568
 21
217.7936198597
 31
0.0
  0
LINE
  5
1C4
330
1BD
100
AcDbEntity
  8
SLD-0
100
AcDbLine
 10
192.8702519833
 20
216.7936198597
 30
0.0
 11
161.8323388568
 21
216.7936198597
 31
0.0
  0
MTEXT
  5
1C5
330
1BD
100
AcDbEntity
  8
SLD-0
100
AcDbMText
 10
174.9343516272
 20
221.3053567743
 30
0.0
 40
3.5
 41
0.0
 71
     1
 72
     1
  1
31.04
  7
SLDTEXTSTYLE0
 73
     1
 44
1.0
  0
ENDBLK
  5
1BF
330
1BD
100
AcDbEntity
  8
0
100
AcDbBlockEnd
  0
BLOCK
  5
1C8
330
1C7
100
AcDbEntity
  8
0
100
AcDbBlockBegin
  2
_D_4
 70
     0
 10
0.0
 20
0.0
 30
0.0
  3
_D_4
  1

  0
SOLID
  5
1CA
330
1C7
100
AcDbEntity
  8
SLD-0
100
AcDbTrace
 10
274.4617577013
 20
246.4883868053
 30
0.0
 11
271.1597577013
 21
246.9963868053
 31
0.0
 12
271.1597577013
 22
245.9803868053
 32
0.0
 13
271.1597577013
 23
245.9803868053
 33
0.0
  0
SOLID
  5
1CB
330
1C7
100
AcDbEntity
  8
SLD-0
100
AcDbTrace
 10
293.3447577013
 20
246.4883868053
 30
0.0
 11
296.6467577013
 21
245.9803868053
 31
0.0
 12
296.6467577013
 22
246.9963868053
 32
0.0
 13
296.6467577013
 23
246.9963868053
 33
0.0
  0
LINE
  5
1CC
330
1C7
100
AcDbEntity
  8
SLD-0
100
AcDbLine
 10
274.4617577013
 20
213.0195731559
 30
0.0
 11
274.4617577013
 21
247.4883868053
 31
0.0
  0
LINE
  5
1CD
330
1C7
100
AcDbEntity
  8
SLD-0
100
AcDbLine
 10
293.3447577013
 20
231.7562578675
 30
0.0
 11
293.3447577013
 21
247.4883868053
 31
0.0
  0
LINE
  5
1CE
330
1C7
100
AcDbEntity
  8
SLD-0
100
AcDbLine
 10
274.4617577013
 20
246.4883868053
 30
0.0
 11
268.1117577013
 21
246.4883868053
 31
0.0
  0
LINE
  5
1CF
330
1C7
100
AcDbEntity
  8
SLD-0
100
AcDbLine
 10
274.4617577013
 20
246.4883868053
 30
0.0
 11
293.3447577013
 21
246.4883868053
 31
0.0
  0
LINE
  5
1D0
330
1C7
100
AcDbEntity
  8
SLD-0
100
AcDbLine
 10
293.3447577013
 20
246.4883868053
 30
0.0
 11
299.6947577013
 21
246.4883868053
 31
0.0
  0
MTEXT
  5
1D1
330
1C7
100
AcDbEntity
  8
SLD-0
100
AcDbMText
 10
281.4174290521
 20
251.0001237199
 30
0.0
 40
3.5
 41
0.0
 71
     1
 72
     1
  1
18.88
  7
SLDTEXTSTYLE0
 73
     1
 44
1.0
  0
ENDBLK
  5
1C9
330
1C7
100
AcDbEntity
  8
0
100
AcDbBlockEnd
  0
BLOCK
  5
1D4
330
1D3
100
AcDbEntity
  8
0
100
AcDbBlockBegin
  2
_D_5
 70
     0
 10
0.0
 20
0.0
 30
0.0
  3
_D_5
  1

  0
SOLID
  5
1D6
330
1D3
100
AcDbEntity
  8
SLD-0
100
AcDbTrace
 10
128.3447577013
 20
255.5980280013
 30
0.0
 11
131.6467577013
 21
255.0900280013
 31
0.0
 12
131.6467577013
 22
256.1060280013
 32
0.0
 13
131.6467577013
 23
256.1060280013
 33
0.0
  0
SOLID
  5
1D7
330
1D3
100
AcDbEntity
  8
SLD-0
100
AcDbTrace
 10
458.3447577013
 20
255.5980280013
 30
0.0
 11
455.0427577013
 21
256.1060280013
 31
0.0
 12
455.0427577013
 22
255.0900280013
 32
0.0
 13
455.0427577013
 23
255.0900280013
 33
0.0
  0
LINE
  5
1D8
330
1D3
100
AcDbEntity
  8
SLD-0
100
AcDbLine
 10
128.3447577013
 20
239.7154608087
 30
0.0
 11
128.3447577013
 21
256.5980280013
 31
0.0
  0
LINE
  5
1D9
330
1D3
100
AcDbEntity
  8
SLD-0
100
AcDbLine
 10
458.3447577013
 20
239.7154608087
 30
0.0
 11
458.3447577013
 21
256.5980280013
 31
0.0
  0
LINE
  5
1DA
330
1D3
100
AcDbEntity
  8
SLD-0
100
AcDbLine
 10
128.3447577013
 20
255.5980280013
 30
0.0
 11
458.3447577013
 21
255.5980280013
 31
0.0
  0
MTEXT
  5
1DB
330
1D3
100
AcDbEntity
  8
SLD-0
100
AcDbMText
 10
197.1696341795
 20
260.1097649158
 30
0.0
 40
3.5
 41
0.0
 71
     1
 72
     1
  1
330.00
  7
SLDTEXTSTYLE0
 73
     1
 44
1.0
  0
ENDBLK
  5
1D5
330
1D3
100
AcDbEntity
  8
0
100
AcDbBlockEnd
  0
BLOCK
  5
1DE
330
1DD
100
AcDbEntity
  8
0
100
AcDbBlockBegin
  2
_D_6
 70
     0
 10
0.0
 20
0.0
 30
0.0
  3
_D_6
  1

  0
SOLID
  5
1E0
330
1DD
100
AcDbEntity
  8
SLD-0
100
AcDbTrace
 10
154.9402321776
 20
185.4688383772
 30
0.0
 11
158.2422321776
 21
184.9608383772
 31
0.0
 12
158.2422321776
 22
185.9768383772
 32
0.0
 13
158.2422321776
 23
185.9768383772
 33
0.0
  0
SOLID
  5
1E1
330
1DD
100
AcDbEntity
  8
SLD-0
100
AcDbTrace
 10
189.2213831048
 20
185.4688383772
 30
0.0
 11
185.9193831048
 21
185.9768383772
 31
0.0
 12
185.9193831048
 22
184.9608383772
 32
0.0
 13
185.9193831048
 23
184.9608383772
 33
0.0
  0
LINE
  5
1E2
330
1DD
100
AcDbEntity
  8
SLD-0
100
AcDbLine
 10
154.9402321776
 20
181.0522335809
 30
0.0
 11
154.9402321776
 21
186.4688383772
 31
0.0
  0
LINE
  5
1E3
330
1DD
100
AcDbEntity
  8
SLD-0
100
AcDbLine
 10
189.2213831048
 20
181.0522335809
 30
0.0
 11
189.2213831048
 21
186.4688383772
 31
0.0
  0
LINE
  5
1E4
330
1DD
100
AcDbEntity
  8
SLD-0
100
AcDbLine
 10
154.9402321776
 20
185.4688383772
 30
0.0
 11
189.2213831048
 21
185.4688383772
 31
0.0
  0
MTEXT
  5
1E5
330
1DD
100
AcDbEntity
  8
SLD-0
100
AcDbMText
 10
175.0066841523
 20
189.9805752918
 30
0.0
 40
3.5
 41
0.0
 71
     1
 72
     1
  1
34.28
  7
SLDTEXTSTYLE0
 73
     1
 44
1.0
  0
ENDBLK
  5
1DF
330
1DD
100
AcDbEntity
  8
0
100
AcDbBlockEnd
  0
BLOCK
  5
1E8
330
1E7
100
AcDbEntity
  8
0
100
AcDbBlockBegin
  2
_D_7
 70
     0
 10
0.0
 20
0.0
 30
0.0
  3
_D_7
  1

  0
SOLID
  5
1EA
330
1E7
100
AcDbEntity
  8
SLD-0
100
AcDbTrace
 10
107.1160118317
 20
109.60746211
 30
0.0
 11
105.140355485
 21
112.3015389464
 31
0.0
 12
104.4219349953
 22
111.5831184567
 32
0.0
 13
104.4219349953
 23
111.5831184567
 33
0.0
  0
SOLID
  5
1EB
330
1E7
100
AcDbEntity
  8
SLD-0
100
AcDbTrace
 10
118.1763854171
 20
98.5470885246
 30
0.0
 11
120.1520417637
 21
95.8530116883
 31
0.0
 12
120.8704622534
 22
96.571432178
 32
0.0
 13
120.8704622534
 23
96.571432178
 33
0.0
  0
LINE
  5
1EC
330
1E7
100
AcDbEntity
  8
SLD-0
100
AcDbLine
 10
116.5772773346
 20
119.068727613
 30
0.0
 11
106.4089050505
 21
108.9003553289
 31
0.0
  0
LINE
  5
1ED
330
1E7
100
AcDbEntity
  8
SLD-0
100
AcDbLine
 10
127.6376509201
 20
108.0083540276
 30
0.0
 11
117.4692786359
 21
97.8399817434
 31
0.0
  0
LINE
  5
1EE
330
1E7
100
AcDbEntity
  8
SLD-0
100
AcDbLine
 10
107.1160118317
 20
109.60746211
 30
0.0
 11
102.6258837711
 21
114.0975901706
 31
0.0
  0
LINE
  5
1EF
330
1E7
100
AcDbEntity
  8
SLD-0
100
AcDbLine
 10
107.1160118317
 20
109.60746211
 30
0.0
 11
118.1763854171
 21
98.5470885246
 31
0.0
  0
LINE
  5
1F0
330
1E7
100
AcDbEntity
  8
SLD-0
100
AcDbLine
 10
118.1763854171
 20
98.5470885246
 30
0.0
 11
122.6665134776
 21
94.0569604641
 31
0.0
  0
MTEXT
  5
1F1
330
1E7
100
AcDbEntity
  8
SLD-0
100
AcDbMText
 10
114.5623493684
 20
108.5416841078
 30
0.0
 40
3.5
 41
0.0
 71
     1
 72
     1
  1
15.64
  7
SLDTEXTSTYLE0
 11
0.7071067811868376
 21
-0.7071067811862575
 31
0.0
 73
     1
 44
1.0
  0
ENDBLK
  5
1E9
330
1E7
100
AcDbEntity
  8
0
100
AcDbBlockEnd
  0
BLOCK
  5
1F4
330
1F3
100
AcDbEntity
  8
0
100
AcDbBlockBegin
  2
_D_8
 70
     0
 10
0.0
 20
0.0
 30
0.0
  3
_D_8
  1

  0
SOLID
  5
1F6
330
1F3
100
AcDbEntity
  8
SLD-0
100
AcDbTrace
 10
467.4076213766
 20
99.6525971334
 30
0.0
 11
464.7135445402
 21
97.6769407868
 31
0.0
 12
465.4319650299
 22
96.9585202971
 32
0.0
 13
465.4319650299
 23
96.9585202971
 33
0.0
  0
SOLID
  5
1F7
330
1F3
100
AcDbEntity
  8
SLD-0
100
AcDbTrace
 10
478.467994962
 20
110.7129707189
 30
0.0
 11
481.1620717983
 21
112.6886270655
 31
0.0
 12
480.4436513087
 22
113.4070475552
 32
0.0
 13
480.4436513087
 23
113.4070475552
 33
0.0
  0
LINE
  5
1F8
330
1F3
100
AcDbEntity
  8
SLD-0
100
AcDbLine
 10
459.0518644824
 20
108.0083540276
 30
0.0
 11
468.1147281578
 21
98.9454903522
 31
0.0
  0
LINE
  5
1F9
330
1F3
100
AcDbEntity
  8
SLD-0
100
AcDbLine
 10
470.1122380679
 20
119.068727613
 30
0.0
 11
479.1751017432
 21
110.0058639377
 31
0.0
  0
LINE
  5
1FA
330
1F3
100
AcDbEntity
  8
SLD-0
100
AcDbLine
 10
467.4076213766
 20
99.6525971334
 30
0.0
 11
462.917493316
 21
95.1624690729
 31
0.0
  0
LINE
  5
1FB
330
1F3
100
AcDbEntity
  8
SLD-0
100
AcDbLine
 10
467.4076213766
 20
99.6525971334
 30
0.0
 11
478.467994962
 21
110.7129707189
 31
0.0
  0
LINE
  5
1FC
330
1F3
100
AcDbEntity
  8
SLD-0
100
AcDbLine
 10
478.467994962
 20
110.7129707189
 30
0.0
 11
482.9581230226
 21
115.2030987794
 31
0.0
  0
MTEXT
  5
1FD
330
1F3
100
AcDbEntity
  8
SLD-0
100
AcDbMText
 10
464.8784465457
 20
103.503981837
 30
0.0
 40
3.5
 41
0.0
 71
     1
 72
     1
  1
15.64
  7
SLDTEXTSTYLE0
 11
0.7071067811868914
 21
0.7071067811862036
 31
0.0
 73
     1
 44
1.0
  0
ENDBLK
  5
1F5
330
1F3
100
AcDbEntity
  8
0
100
AcDbBlockEnd
  0
BLOCK
  5
200
330
1FF
100
AcDbEntity
  8
0
100
AcDbBlockBegin
  2
_D_9
 70
     0
 10
0.0
 20
0.0
 30
0.0
  3
_D_9
  1

  0
SOLID
  5
202
330
1FF
100
AcDbEntity
  8
SLD-0
100
AcDbTrace
 10
465.7256617637
 20
246.0963648711
 30
0.0
 11
463.750005417
 21
248.7904417075
 31
0.0
 12
463.0315849273
 22
248.0720212178
 32
0.0
 13
463.0315849273
 23
248.0720212178
 33
0.0
  0
SOLID
  5
203
330
1FF
100
AcDbEntity
  8
SLD-0
100
AcDbTrace
 10
476.7860353491
 20
235.0359912857
 30
0.0
 11
478.7616916957
 21
232.3419144494
 31
0.0
 12
479.4801121854
 22
233.0603349391
 32
0.0
 13
479.4801121854
 23
233.0603349391
 33
0.0
  0
LINE
  5
204
330
1FF
100
AcDbEntity
  8
SLD-0
100
AcDbLine
 10
459.0518644824
 20
239.4225675899
 30
0.0
 11
466.4327685448
 21
246.8034716523
 31
0.0
  0
LINE
  5
205
330
1FF
100
AcDbEntity
  8
SLD-0
100
AcDbLine
 10
470.1122380679
 20
228.3621940045
 30
0.0
 11
477.4931421303
 21
235.7430980669
 31
0.0
  0
LINE
  5
206
330
1FF
100
AcDbEntity
  8
SLD-0
100
AcDbLine
 10
465.7256617637
 20
246.0963648711
 30
0.0
 11
461.2355337031
 21
250.5864929317
 31
0.0
  0
LINE
  5
207
330
1FF
100
AcDbEntity
  8
SLD-0
100
AcDbLine
 10
465.7256617637
 20
246.0963648711
 30
0.0
 11
476.7860353491
 21
235.0359912857
 31
0.0
  0
LINE
  5
208
330
1FF
100
AcDbEntity
  8
SLD-0
100
AcDbLine
 10
476.7860353491
 20
235.0359912857
 30
0.0
 11
481.2761634096
 21
230.5458632252
 31
0.0
  0
MTEXT
  5
209
330
1FF
100
AcDbEntity
  8
SLD-0
100
AcDbMText
 10
471.2590060801
 20
246.9435800892
 30
0.0
 40
3.5
 41
0.0
 71
     1
 72
     1
  1
15.64
  7
SLDTEXTSTYLE0
 11
0.7071067811867038
 21
-0.7071067811863913
 31
0.0
 73
     1
 44
1.0
  0
ENDBLK
  5
201
330
1FF
100
AcDbEntity
  8
0
100
AcDbBlockEnd
  0
BLOCK
  5
20C
330
20B
100
AcDbEntity
  8
0
100
AcDbBlockBegin
  2
_D_10
 70
     0
 10
0.0
 20
0.0
 30
0.0
  3
_D_10
  1

  0
SOLID
  5
20E
330
20B
100
AcDbEntity
  8
SLD-0
100
AcDbTrace
 10
312.2310370101
 20
94.6391838937
 30
0.0
 11
315.5330370101
 21
94.1311838937
 31
0.0
 12
315.5330370101
 22
95.1471838937
 32
0.0
 13
315.5330370101
 23
95.1471838937
 33
0.0
  0
SOLID
  5
20F
330
20B
100
AcDbEntity
  8
SLD-0
100
AcDbTrace
 10
293.3447577013
 20
94.6391838937
 30
0.0
 11
290.0427577013
 21
95.1471838937
 31
0.0
 12
290.0427577013
 22
94.1311838937
 32
0.0
 13
290.0427577013
 23
94.1311838937
 33
0.0
  0
LINE
  5
210
330
20B
100
AcDbEntity
  8
SLD-0
100
AcDbLine
 10
312.2310370101
 20
135.7008797061
 30
0.0
 11
312.2310370101
 21
93.6391838937
 31
0.0
  0
LINE
  5
211
330
20B
100
AcDbEntity
  8
SLD-0
100
AcDbLine
 10
293.3447577013
 20
119.9963795635
 30
0.0
 11
293.3447577013
 21
93.6391838937
 31
0.0
  0
LINE
  5
212
330
20B
100
AcDbEntity
  8
SLD-0
100
AcDbLine
 10
312.2310370101
 20
94.6391838937
 30
0.0
 11
318.5810370101
 21
94.6391838937
 31
0.0
  0
LINE
  5
213
330
20B
100
AcDbEntity
  8
SLD-0
100
AcDbLine
 10
312.2310370101
 20
94.6391838937
 30
0.0
 11
293.3447577013
 21
94.6391838937
 31
0.0
  0
LINE
  5
214
330
20B
100
AcDbEntity
  8
SLD-0
100
AcDbLine
 10
293.3447577013
 20
94.6391838937
 30
0.0
 11
286.9947577013
 21
94.6391838937
 31
0.0
  0
MTEXT
  5
215
330
20B
100
AcDbEntity
  8
SLD-0
100
AcDbMText
 10
301.3181436301
 20
99.1509208083
 30
0.0
 40
3.5
 41
0.0
 71
     1
 72
     1
  1
18.89
  7
SLDTEXTSTYLE0
 73
     1
 44
1.0
  0
ENDBLK
  5
20D
330
20B
100
AcDbEntity
  8
0
100
AcDbBlockEnd
  0
BLOCK
  5
219
330
218
100
AcDbEntity
  8
0
100
AcDbBlockBegin
  2
_D_11
 70
     0
 10
0.0
 20
0.0
 30
0.0
  3
_D_11
  1

  0
SOLID
  5
21B
330
218
100
AcDbEntity
  8
SLD-0
100
AcDbTrace
 10
140.7479986093
 20
226.1550872233
 30
0.0
 11
140.2399986093
 21
222.8530872233
 31
0.0
 12
141.2559986093
 22
222.8530872233
 32
0.0
 13
141.2559986093
 23
222.8530872233
 33
0.0
  0
SOLID
  5
21C
330
218
100
AcDbEntity
  8
SLD-0
100
AcDbTrace
 10
140.7479986093
 20
229.1550872233
 30
0.0
 11
141.2559986093
 21
232.4570872233
 31
0.0
 12
140.2399986093
 22
232.4570872233
 32
0.0
 13
140.2399986093
 23
232.4570872233
 33
0.0
  0
LINE
  5
21D
330
218
100
AcDbEntity
  8
SLD-0
100
AcDbLine
 10
129.3447577013
 20
226.1550872233
 30
0.0
 11
141.7479986093
 21
226.1550872233
 31
0.0
  0
LINE
  5
21E
330
218
100
AcDbEntity
  8
SLD-0
100
AcDbLine
 10
129.3447577013
 20
229.1550872233
 30
0.0
 11
141.7479986093
 21
229.1550872233
 31
0.0
  0
LINE
  5
21F
330
218
100
AcDbEntity
  8
SLD-0
100
AcDbLine
 10
140.7479986093
 20
226.1550872233
 30
0.0
 11
140.7479986093
 21
219.8050872233
 31
0.0
  0
LINE
  5
220
330
218
100
AcDbEntity
  8
SLD-0
100
AcDbLine
 10
140.7479986093
 20
226.1550872233
 30
0.0
 11
140.7479986093
 21
229.1550872233
 31
0.0
  0
LINE
  5
221
330
218
100
AcDbEntity
  8
SLD-0
100
AcDbLine
 10
140.7479986093
 20
229.1550872233
 30
0.0
 11
140.7479986093
 21
235.5050872233
 31
0.0
  0
MTEXT
  5
222
330
218
100
AcDbEntity
  8
SLD-0
100
AcDbMText
 10
136.2362615201
 20
220.0316792251
 30
0.0
 40
3.5
 41
0.0
 71
     1
 72
     1
  1
%%c
  7
SLDTEXTSTYLE0
 11
6.123233995736766E-17
 21
1.0
 31
0.0
 73
     1
 44
1.0
  0
MTEXT
  5
223
330
218
100
AcDbEntity
  8
SLD-0
100
AcDbMText
 10
136.1827893434
 20
225.3101166235
 30
0.0
 40
3.5
 41
0.0
 71
     1
 72
     1
  1
3.00
  7
SLDTEXTSTYLE0
 11
6.123233995736766E-17
 21
1.0
 31
0.0
 73
     1
 44
1.0
  0
ENDBLK
  5
21A
330
218
100
AcDbEntity
  8
0
100
AcDbBlockEnd
  0
BLOCK
  5
252
330
251
100
AcDbEntity
  8
0
100
AcDbBlockBegin
  2
SW_NOTE_0
 70
     0
 10
0.0
 20
0.0
 30
0.0
  3
SW_NOTE_0
  1

  0
MTEXT
  5
254
330
251
100
AcDbEntity
  8
0
  6
Continuous
 62
     0
370
     0
100
AcDbMText
 10
0.0
 20
1.9336016097
 30
0.0
 40
1.5
 41
0.0
 71
     1
 72
     1
  1
SI NO SE INDICA LO CONTRARIO:
  7
SLDTEXTSTYLE0
 73
     1
 44
1.0
  0
MTEXT
  5
255
330
251
100
AcDbEntity
  8
0
  6
Continuous
 62
     0
370
     0
100
AcDbMText
 10
0.0
 20
-0.5663983345
 30
0.0
 40
1.5
 41
0.0
 71
     1
 72
     1
  1
LAS COTAS SE EXPRESAN EN MM
  7
SLDTEXTSTYLE0
 73
     1
 44
1.0
  0
MTEXT
  5
256
330
251
100
AcDbEntity
  8
0
  6
Continuous
 62
     0
370
     0
100
AcDbMText
 10
0.0
 20
-3.0663982786
 30
0.0
 40
1.5
 41
0.0
 71
     1
 72
     1
  1
ACABADO SUPERFICIAL:
  7
SLDTEXTSTYLE0
 73
     1
 44
1.0
  0
MTEXT
  5
257
330
251
100
AcDbEntity
  8
0
  6
Continuous
 62
     0
370
     0
100
AcDbMText
 10
0.0
 20
-5.5663982227
 30
0.0
 40
1.5
 41
0.0
 71
     1
 72
     1
  1
TOLERANCIAS:
  7
SLDTEXTSTYLE0
 73
     1
 44
1.0
  0
MTEXT
  5
258
330
251
100
AcDbEntity
  8
0
  6
Continuous
 62
     0
370
     0
100
AcDbMText
 10
1.6875
 20
-8.0663981668
 30
0.0
 40
1.5
 41
0.0
 71
     1
 72
     1
  1
LINEAL:
  7
SLDTEXTSTYLE0
 73
     1
 44
1.0
  0
MTEXT
  5
259
330
251
100
AcDbEntity
  8
0
  6
Continuous
 62
     0
370
     0
100
AcDbMText
 10
1.6875
 20
-10.5663981109
 30
0.0
 40
1.5
 41
0.0
 71
     1
 72
     1
  1
ANGULAR:
  7
SLDTEXTSTYLE0
 73
     1
 44
1.0
  0
ENDBLK
  5
253
330
251
100
AcDbEntity
  8
0
100
AcDbBlockEnd
  0
BLOCK
  5
25D
330
25C
100
AcDbEntity
  8
0
100
AcDbBlockBegin
  2
SW_NOTE_1
 70
     0
 10
0.0
 20
0.0
 30
0.0
  3
SW_NOTE_1
  1

  0
MTEXT
  5
25F
330
25C
100
AcDbEntity
  8
0
  6
Continuous
 62
     0
370
     0
100
AcDbMText
 10
0.0
 20
1.9336016097
 30
0.0
 40
1.5
 41
0.0
 71
     1
 72
     1
  1
REBARBAR Y
  7
SLDTEXTSTYLE0
 73
     1
 44
1.0
  0
MTEXT
  5
260
330
25C
100
AcDbEntity
  8
0
  6
Continuous
 62
     0
370
     0
100
AcDbMText
 10
0.0
 20
-0.5663983345
 30
0.0
 40
1.5
 41
0.0
 71
     1
 72
     1
  1
ROMPER ARISTAS
  7
SLDTEXTSTYLE0
 73
     1
 44
1.0
  0
MTEXT
  5
261
330
25C
100
AcDbEntity
  8
0
  6
Continuous
 62
     0
370
     0
100
AcDbMText
 10
0.0
 20
-3.0663982786
 30
0.0
 40
1.5
 41
0.0
 71
     1
 72
     1
  1
VIVAS
  7
SLDTEXTSTYLE0
 73
     1
 44
1.0
  0
ENDBLK
  5
25E
330
25C
100
AcDbEntity
  8
0
100
AcDbBlockEnd
  0
ENDSEC
  0
SECTION
  2
ENTITIES
  0
LINE
  5
79
330
1F
100
AcDbEntity
  8
SLD-0
 62
   179
100
AcDbLine
 10
117.2843841158
 20
227.6550872233
 30
0.0
 11
117.2843841158
 21
119.7758343942
 31
0.0
  0
LINE
  5
7A
330
1F
100
AcDbEntity
  8
SLD-0
 62
   179
100
AcDbLine
 10
128.3447577013
 20
238.7154608087
 30
0.0
 11
458.3447577013
 21
238.7154608087
 31
0.0
  0
LINE
  5
7B
330
1F
100
AcDbEntity
  8
SLD-0
 62
   179
100
AcDbLine
 10
469.4051312867
 20
227.6550872233
 30
0.0
 11
469.4051312867
 21
119.7758343942
 31
0.0
  0
LINE
  5
7C
330
1F
100
AcDbEntity
  8
SLD-0
 62
   179
100
AcDbLine
 10
458.3447577013
 20
108.7154608087
 30
0.0
 11
128.3447577013
 21
108.7154608087
 31
0.0
  0
LINE
  5
7D
330
1F
100
AcDbEntity
  8
SOMBREADOS
100
AcDbLine
 10
147.7221011622
 20
173.7154608087
 30
0.0
 11
438.9888901333
 21
173.7154608087
 31
0.0
  0
LINE
  5
7E
330
1F
100
AcDbEntity
  8
SLD-0
100
AcDbLine
 10
128.3447577013
 20
173.7154608087
 30
0.0
 11
138.0131520009
 21
173.7154608087
 31
0.0
  0
LINE
  5
7F
330
1F
100
AcDbEntity
  8
SOMBREADOS
100
AcDbLine
 10
192.8702519833
 20
212.0195731559
 30
0.0
 11
243.4238445747
 21
212.0195731559
 31
0.0
  0
LINE
  5
80
330
1F
100
AcDbEntity
  8
SOMBREADOS
100
AcDbLine
 10
274.4617577013
 20
212.0195731559
 30
0.0
 11
325.0153502927
 21
212.0195731559
 31
0.0
  0
LINE
  5
81
330
1F
100
AcDbEntity
  8
SOMBREADOS
100
AcDbLine
 10
356.0532634192
 20
212.0195731559
 30
0.0
 11
406.6068560106
 21
212.0195731559
 31
0.0
  0
LINE
  5
82
330
1F
100
AcDbEntity
  8
SOMBREADOS
100
AcDbLine
 10
180.0859387008
 20
136.7008797061
 30
0.0
 11
230.6395312922
 21
136.7008797061
 31
0.0
  0
LINE
  5
83
330
1F
100
AcDbEntity
  8
SOMBREADOS
100
AcDbLine
 10
261.6774444187
 20
136.7008797061
 30
0.0
 11
312.2310370101
 21
136.7008797061
 31
0.0
  0
LINE
  5
84
330
1F
100
AcDbEntity
  8
SOMBREADOS
100
AcDbLine
 10
343.2689501367
 20
136.7008797061
 30
0.0
 11
393.8225427281
 21
136.7008797061
 31
0.0
  0
LINE
  5
85
330
1F
100
AcDbEntity
  8
SOMBREADOS
100
AcDbLine
 10
293.3447577013
 20
230.7562578675
 30
0.0
 11
293.3447577013
 21
120.9963795635
 31
0.0
  0
LINE
  5
86
330
1F
100
AcDbEntity
  8
SLD-0
100
AcDbLine
 10
293.3447577013
 20
238.7154608087
 30
0.0
 11
293.3447577013
 21
233.7154608087
 31
0.0
  0
LINE
  5
87
330
1F
100
AcDbEntity
  8
SOMBREADOS
100
AcDbLine
 10
128.3447577013
 20
238.7154608087
 30
0.0
 11
128.3447577013
 21
108.7154608087
 31
0.0
  0
LINE
  5
88
330
1F
100
AcDbEntity
  8
SOMBREADOS
100
AcDbLine
 10
458.3447577013
 20
238.7154608087
 30
0.0
 11
458.3447577013
 21
108.7154608087
 31
0.0
  0
LINE
  5
89
330
1F
100
AcDbEntity
  8
SOMBREADOS
100
AcDbLine
 10
469.4051312867
 20
227.6550872233
 30
0.0
 11
458.3447577013
 21
227.6550872233
 31
0.0
  0
LINE
  5
8A
330
1F
100
AcDbEntity
  8
SOMBREADOS
100
AcDbLine
 10
469.4051312867
 20
119.7758343942
 30
0.0
 11
458.3447577013
 21
119.7758343942
 31
0.0
  0
LINE
  5
8B
330
1F
100
AcDbEntity
  8
SOMBREADOS
100
AcDbLine
 10
117.2843841158
 20
227.6550872233
 30
0.0
 11
128.3447577013
 21
227.6550872233
 31
0.0
  0
LINE
  5
8C
330
1F
100
AcDbEntity
  8
SOMBREADOS
100
AcDbLine
 10
117.2843841158
 20
119.7758343942
 30
0.0
 11
128.3447577013
 21
119.7483077676
 31
0.0
  0
LINE
  5
8D
330
1F
100
AcDbEntity
  8
CAPA_1
 62
   179
370
    18
100
AcDbLine
 10
192.8702519833
 20
212.0195731559
 30
0.0
 11
161.8323388568
 21
212.0195731559
 31
0.0
  0
LINE
  5
8E
330
1F
100
AcDbEntity
  8
CAPA_1
 62
   179
370
    18
100
AcDbLine
 10
161.8323388568
 20
212.0195731559
 30
0.0
 11
153.8725465141
 21
221.2452411837
 31
0.0
  0
LINE
  5
8F
330
1F
100
AcDbEntity
  8
CAPA_1
 62
   179
370
    18
100
AcDbLine
 10
147.7221011622
 20
173.7154608087
 30
0.0
 11
154.9402321776
 21
180.0522335809
 31
0.0
  0
LINE
  5
90
330
1F
100
AcDbEntity
  8
CAPA_1
 62
   179
370
    18
100
AcDbLine
 10
154.9402321776
 20
180.0522335809
 30
0.0
 11
189.2213831048
 21
180.0522335809
 31
0.0
  0
LINE
  5
91
330
1F
100
AcDbEntity
  8
CAPA_1
 62
   179
370
    18
100
AcDbLine
 10
189.2213831048
 20
180.0522335809
 30
0.0
 11
194.2143729795
 21
173.7154608087
 31
0.0
  0
LINE
  5
92
330
1F
100
AcDbEntity
  8
CAPA_1
 62
   179
370
    18
100
AcDbLine
 10
194.2143729795
 20
173.7154608087
 30
0.0
 11
186.7622653273
 21
168.0487413117
 31
0.0
  0
LINE
  5
93
330
1F
100
AcDbEntity
  8
CAPA_1
 62
   179
370
    18
100
AcDbLine
 10
186.7622653273
 20
168.0487413117
 30
0.0
 11
152.6673261084
 21
168.0487413117
 31
0.0
  0
LINE
  5
94
330
1F
100
AcDbEntity
  8
CAPA_1
 62
   179
370
    18
100
AcDbLine
 10
152.6673261084
 20
168.0487413117
 30
0.0
 11
147.7221011622
 21
173.7154608087
 31
0.0
  0
LINE
  5
95
330
1F
100
AcDbEntity
  8
CAPA_1
 62
   179
370
    18
100
AcDbLine
 10
149.0480255742
 20
136.7008797061
 30
0.0
 11
180.0859387008
 21
136.7008797061
 31
0.0
  0
LINE
  5
96
330
1F
100
AcDbEntity
  8
CAPA_1
 62
   179
370
    18
100
AcDbLine
 10
180.0859387008
 20
136.7008797061
 30
0.0
 11
187.8825683415
 21
126.3276137882
 31
0.0
  0
LINE
  5
97
330
1F
100
AcDbEntity
  8
CAPA_1
 62
   179
370
    18
100
AcDbLine
 10
202.0850020609
 20
218.0887404334
 30
0.0
 11
194.2143729794
 21
211.335381602
 31
0.0
  0
LINE
  5
98
330
1F
100
AcDbEntity
  8
CAPA_1
 62
   179
370
    18
100
AcDbLine
 10
194.2143729794
 20
211.335381602
 30
0.0
 11
189.1490505796
 21
181.7180151233
 31
0.0
  0
LINE
  5
99
330
1F
100
AcDbEntity
  8
CAPA_1
 62
   179
370
    18
100
AcDbLine
 10
189.1490505796
 20
181.7180151233
 30
0.0
 11
194.5704194706
 21
175.1748268365
 31
0.0
  0
LINE
  5
9A
330
1F
100
AcDbEntity
  8
CAPA_1
 62
   179
370
    18
100
AcDbLine
 10
152.6830964809
 20
220.4882632942
 30
0.0
 11
161.1936387623
 21
210.8877456383
 31
0.0
  0
LINE
  5
9B
330
1F
100
AcDbEntity
  8
CAPA_1
 62
   179
370
    18
100
AcDbLine
 10
161.1936387623
 20
210.8877456383
 30
0.0
 11
155.4580755228
 21
182.0267504966
 31
0.0
  0
LINE
  5
9C
330
1F
100
AcDbEntity
  8
CAPA_1
 62
   179
370
    18
100
AcDbLine
 10
155.4580755228
 20
182.0267504966
 30
0.0
 11
147.288415913
 21
175.1748268365
 31
0.0
  0
LINE
  5
9D
330
1F
100
AcDbEntity
  8
SLD-0
 62
   179
370
    18
100
AcDbLine
 10
143.7352296336
 20
180.1124698724
 30
0.0
 11
149.9481499235
 21
214.6028815144
 31
0.0
  0
LINE
  5
9E
330
1F
100
AcDbEntity
  8
CAPA_1
 62
   179
370
    18
100
AcDbLine
 10
139.2291489119
 20
130.0821755956
 30
0.0
 11
147.6760031496
 21
137.4166120061
 31
0.0
  0
LINE
  5
9F
330
1F
100
AcDbEntity
  8
CAPA_1
 62
   179
370
    18
100
AcDbLine
 10
147.6760031496
 20
137.4166120061
 30
0.0
 11
152.1911821633
 21
166.8501929869
 31
0.0
  0
LINE
  5
A0
330
1F
100
AcDbEntity
  8
CAPA_1
 62
   179
370
    18
100
AcDbLine
 10
152.1911821633
 20
166.8501929869
 30
0.0
 11
146.5484215016
 21
173.0070071431
 31
0.0
  0
LINE
  5
A1
330
1F
100
AcDbEntity
  8
CAPA_1
 62
   179
370
    18
100
AcDbLine
 10
188.9089614997
 20
127.6510929261
 30
0.0
 11
181.0091120565
 21
137.4190382167
 31
0.0
  0
LINE
  5
A2
330
1F
100
AcDbEntity
  8
CAPA_1
 62
   179
370
    18
100
AcDbLine
 10
181.0091120565
 20
137.4190382167
 30
0.0
 11
187.1261970047
 21
166.7252431107
 31
0.0
  0
LINE
  5
A3
330
1F
100
AcDbEntity
  8
CAPA_1
 62
   179
370
    18
100
AcDbLine
 10
187.1261970047
 20
166.7252431107
 30
0.0
 11
195.4808552176
 21
172.9948760873
 31
0.0
  0
LINE
  5
A4
330
1F
100
AcDbEntity
  8
SLD-0
 62
   179
370
    18
100
AcDbLine
 10
198.1557530481
 20
168.0560199453
 30
0.0
 11
191.9429385854
 21
133.566195793
 31
0.0
  0
LINE
  5
A5
330
1F
100
AcDbEntity
  8
CONTORNO
 62
   179
370
    18
100
AcDbLine
 10
274.4617577013
 20
212.0195731559
 30
0.0
 11
243.4238445747
 21
212.0195731559
 31
0.0
  0
LINE
  5
A6
330
1F
100
AcDbEntity
  8
CAPA_1
 62
   179
370
    18
100
AcDbLine
 10
243.4238445747
 20
212.0195731559
 30
0.0
 11
235.464052232
 21
221.2452411837
 31
0.0
  0
LINE
  5
A7
330
1F
100
AcDbEntity
  8
CAPA_1
 62
   179
370
    18
100
AcDbLine
 10
229.3136068801
 20
173.7154608087
 30
0.0
 11
236.5317378956
 21
180.0522335809
 31
0.0
  0
LINE
  5
A8
330
1F
100
AcDbEntity
  8
CAPA_1
 62
   179
370
    18
100
AcDbLine
 10
236.5317378956
 20
180.0522335809
 30
0.0
 11
270.8128888228
 21
180.0522335809
 31
0.0
  0
LINE
  5
A9
330
1F
100
AcDbEntity
  8
CAPA_1
 62
   179
370
    18
100
AcDbLine
 10
270.8128888228
 20
180.0522335809
 30
0.0
 11
275.9294843673
 21
173.7154608087
 31
0.0
  0
LINE
  5
AA
330
1F
100
AcDbEntity
  8
CAPA_1
 62
   179
370
    18
100
AcDbLine
 10
275.9294843673
 20
173.7154608087
 30
0.0
 11
268.3537710452
 21
168.0487413117
 31
0.0
  0
LINE
  5
AB
330
1F
100
AcDbEntity
  8
CAPA_1
 62
   179
370
    18
100
AcDbLine
 10
268.3537710452
 20
168.0487413117
 30
0.0
 11
234.2588318264
 21
168.0487413117
 31
0.0
  0
LINE
  5
AC
330
1F
100
AcDbEntity
  8
CAPA_1
 62
   179
370
    18
100
AcDbLine
 10
234.2588318264
 20
168.0487413117
 30
0.0
 11
229.3136068801
 21
173.7154608087
 31
0.0
  0
LINE
  5
AD
330
1F
100
AcDbEntity
  8
CAPA_1
 62
   179
370
    18
100
AcDbLine
 10
230.6395312922
 20
136.7008797061
 30
0.0
 11
261.6774444187
 21
136.7008797061
 31
0.0
  0
LINE
  5
AE
330
1F
100
AcDbEntity
  8
CAPA_1
 62
   179
370
    18
100
AcDbLine
 10
261.6774444187
 20
136.7008797061
 30
0.0
 11
269.4740740594
 21
126.3276137882
 31
0.0
  0
LINE
  5
AF
330
1F
100
AcDbEntity
  8
CAPA_1
 62
   179
370
    18
100
AcDbLine
 10
283.6765077789
 20
218.1204906728
 30
0.0
 11
275.8058786974
 21
211.3671318414
 31
0.0
  0
LINE
  5
B0
330
1F
100
AcDbEntity
  8
CAPA_1
 62
   179
370
    18
100
AcDbLine
 10
275.8058786974
 20
211.3671318414
 30
0.0
 11
270.7405562976
 21
181.7497653627
 31
0.0
  0
LINE
  5
B1
330
1F
100
AcDbEntity
  8
CAPA_1
 62
   179
370
    18
100
AcDbLine
 10
270.7405562976
 20
181.7497653627
 30
0.0
 11
276.1619251885
 21
175.2065770759
 31
0.0
  0
LINE
  5
B2
330
1F
100
AcDbEntity
  8
CAPA_1
 62
   179
370
    18
100
AcDbLine
 10
234.2746021988
 20
220.5200135337
 30
0.0
 11
242.7851444802
 21
210.9194958777
 31
0.0
  0
LINE
  5
B3
330
1F
100
AcDbEntity
  8
CAPA_1
 62
   179
370
    18
100
AcDbLine
 10
242.7851444802
 20
210.9194958777
 30
0.0
 11
237.0495812408
 21
182.0585007361
 31
0.0
  0
LINE
  5
B4
330
1F
100
AcDbEntity
  8
CAPA_1
 62
   179
370
    18
100
AcDbLine
 10
237.0495812408
 20
182.0585007361
 30
0.0
 11
228.879921631
 21
175.2065770759
 31
0.0
  0
LINE
  5
B5
330
1F
100
AcDbEntity
  8
SLD-0
 62
   179
370
    18
100
AcDbLine
 10
225.3267353516
 20
180.1442201118
 30
0.0
 11
231.5396556415
 21
214.6346317538
 31
0.0
  0
LINE
  5
B6
330
1F
100
AcDbEntity
  8
CAPA_1
 62
   179
370
    18
100
AcDbLine
 10
220.8206546299
 20
130.113925835
 30
0.0
 11
229.2675088676
 21
137.4483622455
 31
0.0
  0
LINE
  5
B7
330
1F
100
AcDbEntity
  8
CAPA_1
 62
   179
370
    18
100
AcDbLine
 10
229.2675088676
 20
137.4483622455
 30
0.0
 11
233.7826878813
 21
166.8819432264
 31
0.0
  0
LINE
  5
B8
330
1F
100
AcDbEntity
  8
CAPA_1
 62
   179
370
    18
100
AcDbLine
 10
233.7826878813
 20
166.8819432264
 30
0.0
 11
228.1399272196
 21
173.0387573826
 31
0.0
  0
LINE
  5
B9
330
1F
100
AcDbEntity
  8
CAPA_1
 62
   179
370
    18
100
AcDbLine
 10
270.5004672176
 20
127.6828431655
 30
0.0
 11
262.6006177745
 21
137.4507884562
 31
0.0
  0
LINE
  5
BA
330
1F
100
AcDbEntity
  8
CAPA_1
 62
   179
370
    18
100
AcDbLine
 10
262.6006177745
 20
137.4507884562
 30
0.0
 11
268.7177027227
 21
166.7569933501
 31
0.0
  0
LINE
  5
BB
330
1F
100
AcDbEntity
  8
CAPA_1
 62
   179
370
    18
100
AcDbLine
 10
268.7177027227
 20
166.7569933501
 30
0.0
 11
277.0723609356
 21
173.0266263268
 31
0.0
  0
LINE
  5
BC
330
1F
100
AcDbEntity
  8
SLD-0
 62
   179
370
    18
100
AcDbLine
 10
279.747258766
 20
168.0877701848
 30
0.0
 11
273.5344443034
 21
133.5979460325
 31
0.0
  0
LINE
  5
BD
330
1F
100
AcDbEntity
  8
CAPA_1
 62
   179
370
    18
100
AcDbLine
 10
356.0532634192
 20
212.0195731559
 30
0.0
 11
325.0153502927
 21
212.0195731559
 31
0.0
  0
LINE
  5
BE
330
1F
100
AcDbEntity
  8
CAPA_1
 62
   179
370
    18
100
AcDbLine
 10
325.0153502927
 20
212.0195731559
 30
0.0
 11
317.05555795
 21
221.2452411837
 31
0.0
  0
LINE
  5
BF
330
1F
100
AcDbEntity
  8
CAPA_1
 62
   179
370
    18
100
AcDbLine
 10
310.905112598
 20
173.7154608087
 30
0.0
 11
318.0509110883
 21
180.0522335809
 31
0.0
  0
LINE
  5
C0
330
1F
100
AcDbEntity
  8
CAPA_1
 62
   179
370
    18
100
AcDbLine
 10
318.0509110883
 20
180.0522335809
 30
0.0
 11
352.3320620154
 21
180.0522335809
 31
0.0
  0
LINE
  5
C1
330
1F
100
AcDbEntity
  8
CAPA_1
 62
   179
370
    18
100
AcDbLine
 10
352.3320620154
 20
180.0522335809
 30
0.0
 11
357.3973844153
 21
173.7154608087
 31
0.0
  0
LINE
  5
C2
330
1F
100
AcDbEntity
  8
CAPA_1
 62
   179
370
    18
100
AcDbLine
 10
357.3973844153
 20
173.7154608087
 30
0.0
 11
349.9452767631
 21
168.0487413117
 31
0.0
  0
LINE
  5
C3
330
1F
100
AcDbEntity
  8
CAPA_1
 62
   179
370
    18
100
AcDbLine
 10
349.9452767631
 20
168.0487413117
 30
0.0
 11
315.8503375442
 21
168.0487413117
 31
0.0
  0
LINE
  5
C4
330
1F
100
AcDbEntity
  8
CAPA_1
 62
   179
370
    18
100
AcDbLine
 10
315.8503375442
 20
168.0487413117
 30
0.0
 11
310.905112598
 21
173.7154608087
 31
0.0
  0
LINE
  5
C5
330
1F
100
AcDbEntity
  8
CONTORNO
 62
   179
370
    18
100
AcDbLine
 10
312.2310370101
 20
136.7008797061
 30
0.0
 11
343.2689501367
 21
136.7008797061
 31
0.0
  0
LINE
  5
C6
330
1F
100
AcDbEntity
  8
CAPA_1
 62
   179
370
    18
100
AcDbLine
 10
343.2689501367
 20
136.7008797061
 30
0.0
 11
351.0655797774
 21
126.3276137882
 31
0.0
  0
LINE
  5
C7
330
1F
100
AcDbEntity
  8
CAPA_1
 62
   179
370
    18
100
AcDbLine
 10
365.2680134968
 20
218.1522409123
 30
0.0
 11
357.3973844153
 21
211.3988820809
 31
0.0
  0
LINE
  5
C8
330
1F
100
AcDbEntity
  8
CAPA_1
 62
   179
370
    18
100
AcDbLine
 10
357.3973844153
 20
211.3988820809
 30
0.0
 11
352.3320620154
 21
181.7815156023
 31
0.0
  0
LINE
  5
C9
330
1F
100
AcDbEntity
  8
CAPA_1
 62
   179
370
    18
100
AcDbLine
 10
352.3320620154
 20
181.7815156023
 30
0.0
 11
357.7534309064
 21
175.2383273155
 31
0.0
  0
LINE
  5
CA
330
1F
100
AcDbEntity
  8
CAPA_1
 62
   179
370
    18
100
AcDbLine
 10
315.8661079167
 20
220.5517637732
 30
0.0
 11
324.3766501981
 21
210.9512461173
 31
0.0
  0
LINE
  5
CB
330
1F
100
AcDbEntity
  8
CAPA_1
 62
   179
370
    18
100
AcDbLine
 10
324.3766501981
 20
210.9512461173
 30
0.0
 11
318.6410869587
 21
182.0902509756
 31
0.0
  0
LINE
  5
CC
330
1F
100
AcDbEntity
  8
CAPA_1
 62
   179
370
    18
100
AcDbLine
 10
318.6410869587
 20
182.0902509756
 30
0.0
 11
310.4714273489
 21
175.2383273155
 31
0.0
  0
LINE
  5
CD
330
1F
100
AcDbEntity
  8
SLD-0
 62
   179
370
    18
100
AcDbLine
 10
306.9182410695
 20
180.1759703514
 30
0.0
 11
313.1311613594
 21
214.6663819934
 31
0.0
  0
LINE
  5
CE
330
1F
100
AcDbEntity
  8
CAPA_1
 62
   179
370
    18
100
AcDbLine
 10
302.4121603478
 20
130.1456760746
 30
0.0
 11
310.8590145855
 21
137.480112485
 31
0.0
  0
LINE
  5
CF
330
1F
100
AcDbEntity
  8
CAPA_1
 62
   179
370
    18
100
AcDbLine
 10
310.8590145855
 20
137.480112485
 30
0.0
 11
315.3741935992
 21
166.9136934659
 31
0.0
  0
LINE
  5
D0
330
1F
100
AcDbEntity
  8
CAPA_1
 62
   179
370
    18
100
AcDbLine
 10
315.3741935992
 20
166.9136934659
 30
0.0
 11
309.7314329375
 21
173.0705076221
 31
0.0
  0
LINE
  5
D1
330
1F
100
AcDbEntity
  8
CAPA_1
 62
   179
370
    18
100
AcDbLine
 10
352.0919729355
 20
127.7145934051
 30
0.0
 11
344.1921234924
 21
137.4825386957
 31
0.0
  0
LINE
  5
D2
330
1F
100
AcDbEntity
  8
CAPA_1
 62
   179
370
    18
100
AcDbLine
 10
344.1921234924
 20
137.4825386957
 30
0.0
 11
350.3092084406
 21
166.7887435897
 31
0.0
  0
LINE
  5
D3
330
1F
100
AcDbEntity
  8
CAPA_1
 62
   179
370
    18
100
AcDbLine
 10
350.3092084406
 20
166.7887435897
 30
0.0
 11
358.6638666534
 21
173.0583765663
 31
0.0
  0
LINE
  5
D4
330
1F
100
AcDbEntity
  8
SLD-0
 62
   179
370
    18
100
AcDbLine
 10
361.3387644839
 20
168.1195204243
 30
0.0
 11
355.1259500213
 21
133.629696272
 31
0.0
  0
LINE
  5
D5
330
1F
100
AcDbEntity
  8
CAPA_1
 62
   179
370
    18
100
AcDbLine
 10
437.6447691372
 20
212.0195731559
 30
0.0
 11
406.6068560106
 21
212.0195731559
 31
0.0
  0
LINE
  5
D6
330
1F
100
AcDbEntity
  8
CAPA_1
 62
   179
370
    18
100
AcDbLine
 10
406.6068560106
 20
212.0195731559
 30
0.0
 11
398.6470636679
 21
221.2452411837
 31
0.0
  0
LINE
  5
D7
330
1F
100
AcDbEntity
  8
CAPA_1
 62
   179
370
    18
100
AcDbLine
 10
392.4966183159
 20
173.7154608087
 30
0.0
 11
399.5583143591
 21
180.0522335809
 31
0.0
  0
LINE
  5
D8
330
1F
100
AcDbEntity
  8
CAPA_1
 62
   179
370
    18
100
AcDbLine
 10
399.5583143591
 20
180.0522335809
 30
0.0
 11
433.8394652863
 21
180.0522335809
 31
0.0
  0
LINE
  5
D9
330
1F
100
AcDbEntity
  8
CAPA_1
 62
   179
370
    18
100
AcDbLine
 10
433.8394652863
 20
180.0522335809
 30
0.0
 11
438.9888901333
 21
173.7154608087
 31
0.0
  0
LINE
  5
DA
330
1F
100
AcDbEntity
  8
CAPA_1
 62
   179
370
    18
100
AcDbLine
 10
438.9888901333
 20
173.7154608087
 30
0.0
 11
431.5367824811
 21
168.0487413117
 31
0.0
  0
LINE
  5
DB
330
1F
100
AcDbEntity
  8
CAPA_1
 62
   179
370
    18
100
AcDbLine
 10
431.5367824811
 20
168.0487413117
 30
0.0
 11
397.4418432622
 21
168.0487413117
 31
0.0
  0
LINE
  5
DC
330
1F
100
AcDbEntity
  8
CAPA_1
 62
   179
370
    18
100
AcDbLine
 10
397.4418432622
 20
168.0487413117
 30
0.0
 11
392.4966183159
 21
173.7154608087
 31
0.0
  0
LINE
  5
DD
330
1F
100
AcDbEntity
  8
CAPA_1
 62
   179
370
    18
100
AcDbLine
 10
393.8225427281
 20
136.7008797061
 30
0.0
 11
424.8604558546
 21
136.7008797061
 31
0.0
  0
LINE
  5
DE
330
1F
100
AcDbEntity
  8
CAPA_1
 62
   179
370
    18
100
AcDbLine
 10
424.8604558546
 20
136.7008797061
 30
0.0
 11
432.6570854953
 21
126.3276137882
 31
0.0
  0
LINE
  5
DF
330
1F
100
AcDbEntity
  8
CAPA_1
 62
   179
370
    18
100
AcDbLine
 10
446.8595192147
 20
218.1839911518
 30
0.0
 11
438.9888901332
 21
211.4306323204
 31
0.0
  0
LINE
  5
E0
330
1F
100
AcDbEntity
  8
CAPA_1
 62
   179
370
    18
100
AcDbLine
 10
438.9888901332
 20
211.4306323204
 30
0.0
 11
433.9235677334
 21
181.8132658417
 31
0.0
  0
LINE
  5
E1
330
1F
100
AcDbEntity
  8
CAPA_1
 62
   179
370
    18
100
AcDbLine
 10
433.9235677334
 20
181.8132658417
 30
0.0
 11
439.3449366244
 21
175.2700775549
 31
0.0
  0
LINE
  5
E2
330
1F
100
AcDbEntity
  8
CAPA_1
 62
   179
370
    18
100
AcDbLine
 10
397.4576136347
 20
220.5835140127
 30
0.0
 11
405.9681559161
 21
210.9829963567
 31
0.0
  0
LINE
  5
E3
330
1F
100
AcDbEntity
  8
CAPA_1
 62
   179
370
    18
100
AcDbLine
 10
405.9681559161
 20
210.9829963567
 30
0.0
 11
400.2325926766
 21
182.122001215
 31
0.0
  0
LINE
  5
E4
330
1F
100
AcDbEntity
  8
CAPA_1
 62
   179
370
    18
100
AcDbLine
 10
400.2325926766
 20
182.122001215
 30
0.0
 11
392.0629330668
 21
175.2700775549
 31
0.0
  0
LINE
  5
E5
330
1F
100
AcDbEntity
  8
SLD-0
 62
   179
370
    18
100
AcDbLine
 10
388.5097467874
 20
180.2077205908
 30
0.0
 11
394.7226670773
 21
214.6981322328
 31
0.0
  0
LINE
  5
E6
330
1F
100
AcDbEntity
  8
CAPA_1
 62
   179
370
    18
100
AcDbLine
 10
384.0036660657
 20
130.177426314
 30
0.0
 11
392.4505203034
 21
137.5118627245
 31
0.0
  0
LINE
  5
E7
330
1F
100
AcDbEntity
  8
CAPA_1
 62
   179
370
    18
100
AcDbLine
 10
392.4505203034
 20
137.5118627245
 30
0.0
 11
396.9656993171
 21
166.9454437053
 31
0.0
  0
LINE
  5
E8
330
1F
100
AcDbEntity
  8
CAPA_1
 62
   179
370
    18
100
AcDbLine
 10
396.9656993171
 20
166.9454437053
 30
0.0
 11
391.3229386554
 21
173.1022578616
 31
0.0
  0
LINE
  5
E9
330
1F
100
AcDbEntity
  8
CAPA_1
 62
   179
370
    18
100
AcDbLine
 10
433.6834786534
 20
127.7463436445
 30
0.0
 11
425.7836292103
 21
137.5142889351
 31
0.0
  0
LINE
  5
EA
330
1F
100
AcDbEntity
  8
CAPA_1
 62
   179
370
    18
100
AcDbLine
 10
425.7836292103
 20
137.5142889351
 30
0.0
 11
431.9007141585
 21
166.8204938291
 31
0.0
  0
LINE
  5
EB
330
1F
100
AcDbEntity
  8
CAPA_1
 62
   179
370
    18
100
AcDbLine
 10
431.9007141585
 20
166.8204938291
 30
0.0
 11
440.2553723714
 21
173.0901268057
 31
0.0
  0
LINE
  5
EC
330
1F
100
AcDbEntity
  8
SLD-0
 62
   179
370
    18
100
AcDbLine
 10
442.9302702019
 20
168.1512706637
 30
0.0
 11
436.7174557392
 21
133.6614465114
 31
0.0
  0
LINE
  5
ED
330
1F
100
AcDbEntity
  8
0
  6
Continuous
 62
     7
370
    50
100
AcDbLine
 10
404.0
 20
14.25
 30
0.0
 11
584.0
 21
14.25
 31
0.0
  0
LINE
  5
EE
330
1F
100
AcDbEntity
  8
0
  6
Continuous
 62
     7
370
    50
100
AcDbLine
 10
584.0
 20
48.25
 30
0.0
 11
404.0
 21
48.25
 31
0.0
  0
LINE
  5
EF
330
1F
100
AcDbEntity
  8
0
  6
Continuous
 62
     7
370
    50
100
AcDbLine
 10
404.0
 20
65.25
 30
0.0
 11
584.0
 21
65.25
 31
0.0
  0
LINE
  5
F0
330
1F
100
AcDbEntity
  8
0
  6
Continuous
 62
     7
370
    50
100
AcDbLine
 10
430.9909524338
 20
48.25
 30
0.0
 11
430.9909524338
 21
10.0
 31
0.0
  0
LINE
  5
F1
330
1F
100
AcDbEntity
  8
0
  6
Continuous
 62
     7
370
    50
100
AcDbLine
 10
502.8
 20
31.25
 30
0.0
 11
404.0
 21
31.25
 31
0.0
  0
LINE
  5
F2
330
1F
100
AcDbEntity
  8
0
  6
Continuous
 62
     7
370
    50
100
AcDbLine
 10
502.8
 20
35.5
 30
0.0
 11
404.0
 21
35.5
 31
0.0
  0
LINE
  5
F3
330
1F
100
AcDbEntity
  8
0
  6
Continuous
 62
     7
370
    50
100
AcDbLine
 10
502.8
 20
39.75
 30
0.0
 11
404.0
 21
39.75
 31
0.0
  0
LINE
  5
F4
330
1F
100
AcDbEntity
  8
0
  6
Continuous
 62
     7
370
    50
100
AcDbLine
 10
502.8
 20
44.0
 30
0.0
 11
404.0
 21
44.0
 31
0.0
  0
LINE
  5
F5
330
1F
100
AcDbEntity
  8
0
  6
Continuous
 62
     7
370
    50
100
AcDbLine
 10
458.6
 20
10.0
 30
0.0
 11
458.6
 21
48.25
 31
0.0
  0
LINE
  5
F6
330
1F
100
AcDbEntity
  8
0
  6
Continuous
 62
     7
370
    50
100
AcDbLine
 10
404.0
 20
65.25
 30
0.0
 11
404.0
 21
10.0
 31
0.0
  0
LINE
  5
F7
330
1F
100
AcDbEntity
  8
0
  6
Continuous
 62
     7
370
    50
100
AcDbLine
 10
411.8
 20
48.25
 30
0.0
 11
411.8
 21
10.0
 31
0.0
  0
LINE
  5
F8
330
1F
100
AcDbEntity
  8
0
  6
Continuous
 62
     7
370
    50
100
AcDbLine
 10
437.8
 20
48.25
 30
0.0
 11
437.8
 21
65.25
 31
0.0
  0
LINE
  5
F9
330
1F
100
AcDbEntity
  8
0
  6
Continuous
 62
     7
370
    50
100
AcDbLine
 10
448.3989261635
 20
48.25
 30
0.0
 11
448.3989261635
 21
10.0
 31
0.0
  0
LINE
  5
FA
330
1F
100
AcDbEntity
  8
0
  6
Continuous
 62
     7
370
    50
100
AcDbLine
 10
469.0
 20
31.25
 30
0.0
 11
469.0
 21
48.25
 31
0.0
  0
LINE
  5
FB
330
1F
100
AcDbEntity
  8
0
  6
Continuous
 62
     7
370
    50
100
AcDbLine
 10
458.6
 20
18.5
 30
0.0
 11
404.0
 21
18.5
 31
0.0
  0
LINE
  5
FC
330
1F
100
AcDbEntity
  8
0
  6
Continuous
 62
     7
370
    50
100
AcDbLine
 10
484.6
 20
65.25
 30
0.0
 11
484.6
 21
27.0
 31
0.0
  0
LINE
  5
FD
330
1F
100
AcDbEntity
  8
0
  6
Continuous
 62
     7
370
    50
100
AcDbLine
 10
458.6
 20
22.749928
 30
0.0
 11
404.0
 21
22.749928
 31
0.0
  0
LINE
  5
FE
330
1F
100
AcDbEntity
  8
0
  6
Continuous
 62
     7
370
    50
100
AcDbLine
 10
458.6
 20
27.0
 30
0.0
 11
404.0
 21
27.0
 31
0.0
  0
LINE
  5
FF
330
1F
100
AcDbEntity
  8
0
  6
Continuous
 62
     7
370
    50
100
AcDbLine
 10
458.6
 20
27.0
 30
0.0
 11
584.0
 21
27.0
 31
0.0
  0
LINE
  5
100
330
1F
100
AcDbEntity
  8
0
  6
Continuous
 62
     7
370
    50
100
AcDbLine
 10
502.8
 20
65.25
 30
0.0
 11
502.8
 21
10.0
 31
0.0
  0
LINE
  5
101
330
1F
100
AcDbEntity
  8
0
  6
Continuous
 62
     7
370
    50
100
AcDbLine
 10
547.0
 20
10.0
 30
0.0
 11
547.0
 21
14.25
 31
0.0
  0
LINE
  5
102
330
1F
100
AcDbEntity
  8
0
  6
Continuous
 62
     7
370
    50
100
AcDbLine
 10
554.8
 20
58.875
 30
0.0
 11
554.8
 21
65.25
 31
0.0
  0
LINE
  5
103
330
1F
100
AcDbEntity
  8
0
  6
Continuous
 62
     7
370
    50
100
AcDbLine
 10
571.0
 20
14.25
 30
0.0
 11
571.0
 21
27.0
 31
0.0
  0
LINE
  5
104
330
1F
100
AcDbEntity
  8
0
  6
Continuous
 62
     7
370
    50
100
AcDbLine
 10
584.0
 20
58.875
 30
0.0
 11
502.8
 21
58.875
 31
0.0
  0
LINE
  5
105
330
1F
100
AcDbEntity
  8
0
  6
Continuous
 62
     7
370
    50
100
AcDbLine
 10
584.0
 20
18.5
 30
0.0
 11
571.0
 21
18.5
 31
0.0
  0
LINE
  5
106
330
1F
100
AcDbEntity
  8
0
  6
Continuous
 62
     7
370
    70
100
AcDbLine
 10
20.0
 20
10.0
 30
0.0
 11
20.0
 21
410.0
 31
0.0
  0
LINE
  5
107
330
1F
100
AcDbEntity
  8
0
  6
Continuous
 62
     7
370
    70
100
AcDbLine
 10
20.0
 20
410.0
 30
0.0
 11
584.0
 21
410.0
 31
0.0
  0
LINE
  5
108
330
1F
100
AcDbEntity
  8
0
  6
Continuous
 62
     7
370
    70
100
AcDbLine
 10
584.0
 20
410.0
 30
0.0
 11
584.0
 21
10.0
 31
0.0
  0
LINE
  5
109
330
1F
100
AcDbEntity
  8
0
  6
Continuous
 62
     7
370
    70
100
AcDbLine
 10
584.0
 20
10.0
 30
0.0
 11
20.0
 21
10.0
 31
0.0
  0
LINE
  5
10A
330
1F
100
AcDbEntity
  8
0
  6
Continuous
 62
     7
370
    70
100
AcDbLine
 10
15.0
 20
5.0
 30
0.0
 11
15.0
 21
415.0
 31
0.0
  0
LINE
  5
10B
330
1F
100
AcDbEntity
  8
0
  6
Continuous
 62
     7
370
    70
100
AcDbLine
 10
15.0
 20
415.0
 30
0.0
 11
589.0
 21
415.0
 31
0.0
  0
LINE
  5
10C
330
1F
100
AcDbEntity
  8
0
  6
Continuous
 62
     7
370
    70
100
AcDbLine
 10
589.0
 20
415.0
 30
0.0
 11
589.0
 21
5.0
 31
0.0
  0
LINE
  5
10D
330
1F
100
AcDbEntity
  8
0
  6
Continuous
 62
     7
370
    70
100
AcDbLine
 10
589.0
 20
5.0
 30
0.0
 11
15.0
 21
5.0
 31
0.0
  0
LINE
  5
10E
330
1F
100
AcDbEntity
  8
0
  6
Continuous
 62
     7
370
    35
100
AcDbLine
 10
15.0
 20
210.0
 30
0.0
 11
25.0
 21
210.0
 31
0.0
  0
LINE
  5
10F
330
1F
100
AcDbEntity
  8
0
  6
Continuous
 62
     7
370
    35
100
AcDbLine
 10
302.0
 20
415.0
 30
0.0
 11
302.0
 21
405.0
 31
0.0
  0
LINE
  5
110
330
1F
100
AcDbEntity
  8
0
  6
Continuous
 62
     7
370
    35
100
AcDbLine
 10
589.0
 20
210.0
 30
0.0
 11
579.0
 21
210.0
 31
0.0
  0
LINE
  5
111
330
1F
100
AcDbEntity
  8
0
  6
Continuous
 62
     7
370
    35
100
AcDbLine
 10
302.0
 20
5.0
 30
0.0
 11
302.0
 21
15.0
 31
0.0
  0
LINE
  5
112
330
1F
100
AcDbEntity
  8
0
  6
Continuous
 62
     7
370
    35
100
AcDbLine
 10
20.0
 20
60.0
 30
0.0
 11
15.0
 21
60.0
 31
0.0
  0
LINE
  5
113
330
1F
100
AcDbEntity
  8
0
  6
Continuous
 62
     7
370
    35
100
AcDbLine
 10
584.0
 20
60.0
 30
0.0
 11
589.0
 21
60.0
 31
0.0
  0
LINE
  5
114
330
1F
100
AcDbEntity
  8
0
  6
Continuous
 62
     7
370
    35
100
AcDbLine
 10
20.0
 20
110.0
 30
0.0
 11
15.0
 21
110.0
 31
0.0
  0
LINE
  5
115
330
1F
100
AcDbEntity
  8
0
  6
Continuous
 62
     7
370
    35
100
AcDbLine
 10
584.0
 20
110.0
 30
0.0
 11
589.0
 21
110.0
 31
0.0
  0
LINE
  5
116
330
1F
100
AcDbEntity
  8
0
  6
Continuous
 62
     7
370
    35
100
AcDbLine
 10
20.0
 20
160.0
 30
0.0
 11
15.0
 21
160.0
 31
0.0
  0
LINE
  5
117
330
1F
100
AcDbEntity
  8
0
  6
Continuous
 62
     7
370
    35
100
AcDbLine
 10
584.0
 20
160.0
 30
0.0
 11
589.0
 21
160.0
 31
0.0
  0
LINE
  5
118
330
1F
100
AcDbEntity
  8
0
  6
Continuous
 62
     7
370
    35
100
AcDbLine
 10
20.0
 20
210.0
 30
0.0
 11
15.0
 21
210.0
 31
0.0
  0
LINE
  5
119
330
1F
100
AcDbEntity
  8
0
  6
Continuous
 62
     7
370
    35
100
AcDbLine
 10
584.0
 20
210.0
 30
0.0
 11
589.0
 21
210.0
 31
0.0
  0
LINE
  5
11A
330
1F
100
AcDbEntity
  8
0
  6
Continuous
 62
     7
370
    35
100
AcDbLine
 10
20.0
 20
260.0
 30
0.0
 11
15.0
 21
260.0
 31
0.0
  0
LINE
  5
11B
330
1F
100
AcDbEntity
  8
0
  6
Continuous
 62
     7
370
    35
100
AcDbLine
 10
584.0
 20
260.0
 30
0.0
 11
589.0
 21
260.0
 31
0.0
  0
LINE
  5
11C
330
1F
100
AcDbEntity
  8
0
  6
Continuous
 62
     7
370
    35
100
AcDbLine
 10
20.0
 20
310.0
 30
0.0
 11
15.0
 21
310.0
 31
0.0
  0
LINE
  5
11D
330
1F
100
AcDbEntity
  8
0
  6
Continuous
 62
     7
370
    35
100
AcDbLine
 10
584.0
 20
310.0
 30
0.0
 11
589.0
 21
310.0
 31
0.0
  0
LINE
  5
11E
330
1F
100
AcDbEntity
  8
0
  6
Continuous
 62
     7
370
    35
100
AcDbLine
 10
20.0
 20
360.0
 30
0.0
 11
15.0
 21
360.0
 31
0.0
  0
LINE
  5
11F
330
1F
100
AcDbEntity
  8
0
  6
Continuous
 62
     7
370
    35
100
AcDbLine
 10
584.0
 20
360.0
 30
0.0
 11
589.0
 21
360.0
 31
0.0
  0
LINE
  5
120
330
1F
100
AcDbEntity
  8
0
  6
Continuous
 62
     7
370
    35
100
AcDbLine
 10
52.0
 20
410.0
 30
0.0
 11
52.0
 21
415.0
 31
0.0
  0
LINE
  5
121
330
1F
100
AcDbEntity
  8
0
  6
Continuous
 62
     7
370
    35
100
AcDbLine
 10
52.0
 20
10.0
 30
0.0
 11
52.0
 21
5.0
 31
0.0
  0
LINE
  5
122
330
1F
100
AcDbEntity
  8
0
  6
Continuous
 62
     7
370
    35
100
AcDbLine
 10
102.0
 20
410.0
 30
0.0
 11
102.0
 21
415.0
 31
0.0
  0
LINE
  5
123
330
1F
100
AcDbEntity
  8
0
  6
Continuous
 62
     7
370
    35
100
AcDbLine
 10
102.0
 20
10.0
 30
0.0
 11
102.0
 21
5.0
 31
0.0
  0
LINE
  5
124
330
1F
100
AcDbEntity
  8
0
  6
Continuous
 62
     7
370
    35
100
AcDbLine
 10
152.0
 20
410.0
 30
0.0
 11
152.0
 21
415.0
 31
0.0
  0
LINE
  5
125
330
1F
100
AcDbEntity
  8
0
  6
Continuous
 62
     7
370
    35
100
AcDbLine
 10
152.0
 20
10.0
 30
0.0
 11
152.0
 21
5.0
 31
0.0
  0
LINE
  5
126
330
1F
100
AcDbEntity
  8
0
  6
Continuous
 62
     7
370
    35
100
AcDbLine
 10
202.0
 20
410.0
 30
0.0
 11
202.0
 21
415.0
 31
0.0
  0
LINE
  5
127
330
1F
100
AcDbEntity
  8
0
  6
Continuous
 62
     7
370
    35
100
AcDbLine
 10
202.0
 20
10.0
 30
0.0
 11
202.0
 21
5.0
 31
0.0
  0
LINE
  5
128
330
1F
100
AcDbEntity
  8
0
  6
Continuous
 62
     7
370
    35
100
AcDbLine
 10
252.0
 20
410.0
 30
0.0
 11
252.0
 21
415.0
 31
0.0
  0
LINE
  5
129
330
1F
100
AcDbEntity
  8
0
  6
Continuous
 62
     7
370
    35
100
AcDbLine
 10
252.0
 20
10.0
 30
0.0
 11
252.0
 21
5.0
 31
0.0
  0
LINE
  5
12A
330
1F
100
AcDbEntity
  8
0
  6
Continuous
 62
     7
370
    35
100
AcDbLine
 10
302.0
 20
410.0
 30
0.0
 11
302.0
 21
415.0
 31
0.0
  0
LINE
  5
12B
330
1F
100
AcDbEntity
  8
0
  6
Continuous
 62
     7
370
    35
100
AcDbLine
 10
302.0
 20
10.0
 30
0.0
 11
302.0
 21
5.0
 31
0.0
  0
LINE
  5
12C
330
1F
100
AcDbEntity
  8
0
  6
Continuous
 62
     7
370
    35
100
AcDbLine
 10
352.0
 20
410.0
 30
0.0
 11
352.0
 21
415.0
 31
0.0
  0
LINE
  5
12D
330
1F
100
AcDbEntity
  8
0
  6
Continuous
 62
     7
370
    35
100
AcDbLine
 10
352.0
 20
10.0
 30
0.0
 11
352.0
 21
5.0
 31
0.0
  0
LINE
  5
12E
330
1F
100
AcDbEntity
  8
0
  6
Continuous
 62
     7
370
    35
100
AcDbLine
 10
402.0
 20
410.0
 30
0.0
 11
402.0
 21
415.0
 31
0.0
  0
LINE
  5
12F
330
1F
100
AcDbEntity
  8
0
  6
Continuous
 62
     7
370
    35
100
AcDbLine
 10
402.0
 20
10.0
 30
0.0
 11
402.0
 21
5.0
 31
0.0
  0
LINE
  5
130
330
1F
100
AcDbEntity
  8
0
  6
Continuous
 62
     7
370
    35
100
AcDbLine
 10
452.0
 20
410.0
 30
0.0
 11
452.0
 21
415.0
 31
0.0
  0
LINE
  5
131
330
1F
100
AcDbEntity
  8
0
  6
Continuous
 62
     7
370
    35
100
AcDbLine
 10
452.0
 20
10.0
 30
0.0
 11
452.0
 21
5.0
 31
0.0
  0
LINE
  5
132
330
1F
100
AcDbEntity
  8
0
  6
Continuous
 62
     7
370
    35
100
AcDbLine
 10
502.0
 20
410.0
 30
0.0
 11
502.0
 21
415.0
 31
0.0
  0
LINE
  5
133
330
1F
100
AcDbEntity
  8
0
  6
Continuous
 62
     7
370
    35
100
AcDbLine
 10
502.0
 20
10.0
 30
0.0
 11
502.0
 21
5.0
 31
0.0
  0
LINE
  5
134
330
1F
100
AcDbEntity
  8
0
  6
Continuous
 62
     7
370
    35
100
AcDbLine
 10
552.0
 20
410.0
 30
0.0
 11
552.0
 21
415.0
 31
0.0
  0
LINE
  5
135
330
1F
100
AcDbEntity
  8
0
  6
Continuous
 62
     7
370
    35
100
AcDbLine
 10
552.0
 20
10.0
 30
0.0
 11
552.0
 21
5.0
 31
0.0
  0
ARC
  5
136
330
1F
100
AcDbEntity
  8
SLD-0
 62
   179
100
AcDbCircle
 10
131.025358571
 20
224.9744863536
 30
0.0
 40
14.00000000000001
100
AcDbArc
 50
101.038671177
 51
168.9613288229
  0
ARC
  5
137
330
1F
100
AcDbEntity
  8
SLD-0
 62
   179
100
AcDbCircle
 10
455.6641568316
 20
224.9744863536
 30
0.0
 40
14.00000000000001
100
AcDbArc
 50
11.0386711771
 51
78.961328823
  0
ARC
  5
138
330
1F
100
AcDbEntity
  8
SLD-0
 62
   179
100
AcDbCircle
 10
131.025358571
 20
122.4564352639
 30
0.0
 40
14.0
100
AcDbArc
 50
191.0386711771
 51
258.961328823
  0
ARC
  5
139
330
1F
100
AcDbEntity
  8
SLD-0
 62
   179
100
AcDbCircle
 10
455.6641568316
 20
122.4564352639
 30
0.0
 40
14.00000000000444
100
AcDbArc
 50
281.0386711771
 51
348.9613288229
  0
CIRCLE
  5
13A
330
1F
100
AcDbEntity
  8
SLD-0
100
AcDbCircle
 10
128.3447577013
 20
227.6550872233
 30
0.0
 40
1.499999999999987
  0
CIRCLE
  5
13B
330
1F
100
AcDbEntity
  8
SLD-0
100
AcDbCircle
 10
128.3447577013
 20
119.7483077676
 30
0.0
 40
1.499999999999983
  0
CIRCLE
  5
13C
330
1F
100
AcDbEntity
  8
SLD-0
100
AcDbCircle
 10
458.3447577013
 20
119.7758343942
 30
0.0
 40
1.500000000000037
  0
CIRCLE
  5
13D
330
1F
100
AcDbEntity
  8
SLD-0
100
AcDbCircle
 10
458.3447577013
 20
227.6550872233
 30
0.0
 40
1.500000000000033
  0
SPLINE
  5
13E
330
1F
100
AcDbEntity
  8
CAPA_1
 62
   179
370
    18
100
AcDbSpline
210
0.0
220
0.0
230
1.0
 70
     8
 71
     2
 72
     6
 73
     3
 74
     0
 42
0.000000001
 43
0.00000001
 40
2.0
 40
2.0
 40
2.0
 40
3.0
 40
3.0
 40
3.0
 10
153.8725465140527
 20
221.2452411837038
 30
0.0
 10
154.8381785653694
 20
224.2755789528927
 30
0.0
 10
161.4708333901874
 20
224.1573011575127
 30
0.0
  0
SPLINE
  5
13F
330
1F
100
AcDbEntity
  8
0
  6
Continuous
 62
   179
370
    18
100
AcDbSpline
210
0.0
220
0.0
230
1.0
 70
     8
 71
     2
 72
     6
 73
     3
 74
     0
 42
0.000000001
 43
0.00000001
 40
3.0
 40
3.0
 40
3.0
 40
4.0
 40
4.0
 40
4.0
 10
161.4708333901874
 20
224.1573011575127
 30
0.0
 10
168.1047013205173
 20
224.0353840457136
 30
0.0
 10
198.497848825173
 20
224.1603339215833
 30
0.0
  0
SPLINE
  5
140
330
1F
100
AcDbEntity
  8
CAPA_1
 62
   179
370
    18
100
AcDbSpline
210
0.0
220
0.0
230
1.0
 70
     8
 71
     2
 72
     6
 73
     3
 74
     0
 42
0.000000001
 43
0.00000001
 40
4.0
 40
4.0
 40
4.0
 40
5.0
 40
5.0
 40
5.0
 10
198.497848825173
 20
224.1603339215833
 30
0.0
 10
206.786392783157
 20
223.5040437958993
 30
0.0
 10
202.8080129938246
 20
220.4882632942498
 30
0.0
  0
SPLINE
  5
141
330
1F
100
AcDbEntity
  8
CAPA_1
 62
   179
370
    18
100
AcDbSpline
210
0.0
220
0.0
230
1.0
 70
     8
 71
     2
 72
     6
 73
     3
 74
     0
 42
0.000000001
 43
0.00000001
 40
5.0
 40
5.0
 40
5.0
 40
6.0
 40
6.0
 40
6.0
 10
202.8080129938246
 20
220.4882632942498
 30
0.0
 10
198.829026651649
 20
217.4749090036237
 30
0.0
 10
192.8702519833098
 20
212.0195731559396
 30
0.0
  0
SPLINE
  5
142
330
1F
100
AcDbEntity
  8
CAPA_1
 62
   179
370
    18
100
AcDbSpline
210
0.0
220
0.0
230
1.0
 70
     8
 71
     2
 72
     6
 73
     3
 74
     0
 42
0.000000001
 43
0.00000001
 40
2.0
 40
2.0
 40
2.0
 40
3.0
 40
3.0
 40
3.0
 10
187.8825683414688
 20
126.3276137882245
 30
0.0
 10
186.5566439292091
 20
124.038483535904
 30
0.0
 10
181.8540401014546
 20
124.0384835359034
 30
0.0
  0
SPLINE
  5
143
330
1F
100
AcDbEntity
  8
0
  6
Continuous
 62
   179
370
    18
100
AcDbSpline
210
0.0
220
0.0
230
1.0
 70
    24
 71
     2
 72
     6
 73
     3
 74
     0
 42
0.000000001
 43
0.00000001
 40
3.0
 40
3.0
 40
3.0
 40
4.0
 40
4.0
 40
4.0
 10
181.8540401014546
 20
124.0384835359034
 30
0.0
 10
177.1502231681882
 20
124.0384835359034
 30
0.0
 10
144.5868297593773
 20
124.0384835359034
 30
0.0
  0
SPLINE
  5
144
330
1F
100
AcDbEntity
  8
CAPA_1
 62
   179
370
    18
100
AcDbSpline
210
0.0
220
0.0
230
1.0
 70
     8
 71
     2
 72
     6
 73
     3
 74
     0
 42
0.000000001
 43
0.00000001
 40
4.0
 40
4.0
 40
4.0
 40
5.0
 40
5.0
 40
5.0
 10
144.5868297593773
 20
124.0384835359034
 30
0.0
 10
133.4711432187981
 20
123.2997022302917
 30
0.0
 10
139.8532917390044
 20
128.4408437298005
 30
0.0
  0
SPLINE
  5
145
330
1F
100
AcDbEntity
  8
CAPA_1
 62
   179
370
    18
100
AcDbSpline
210
0.0
220
0.0
230
1.0
 70
     8
 71
     2
 72
     6
 73
     3
 74
     0
 42
0.000000001
 43
0.00000001
 40
5.0
 40
5.0
 40
5.0
 40
6.0
 40
6.0
 40
6.0
 10
139.8532917390044
 20
128.4408437298005
 30
0.0
 10
142.1260450657797
 20
130.2738462790474
 30
0.0
 10
149.0480255742375
 20
136.7008797061022
 30
0.0
  0
SPLINE
  5
146
330
1F
100
AcDbEntity
  8
CAPA_1
 62
   179
370
    18
100
AcDbSpline
210
0.0
220
0.0
230
1.0
 70
     8
 71
     2
 72
     6
 73
     3
 74
     0
 42
0.000000001
 43
0.00000001
 40
0.0
 40
0.0
 40
0.0
 40
1.0
 40
1.0
 40
1.0
 10
205.6127131228498
 20
220.6544587603165
 30
0.0
 10
205.1838802959176
 20
220.7424089158047
 30
0.0
 10
202.0850020609435
 20
218.088740433366
 30
0.0
  0
SPLINE
  5
147
330
1F
100
AcDbEntity
  8
CAPA_1
 62
   179
370
    18
100
AcDbSpline
210
0.0
220
0.0
230
1.0
 70
     8
 71
     2
 72
     6
 73
     3
 74
     0
 42
0.000000001
 43
0.00000001
 40
4.0
 40
4.0
 40
4.0
 40
5.0
 40
5.0
 40
5.0
 10
194.570419470598
 20
175.1748268364789
 30
0.0
 10
199.6126928642264
 20
174.9370581399742
 30
0.0
 10
200.4570143562672
 20
179.9887331019015
 30
0.0
  0
SPLINE
  5
148
330
1F
100
AcDbEntity
  8
0
  6
Continuous
 62
   179
370
    18
100
AcDbSpline
210
0.0
220
0.0
230
1.0
 70
     8
 71
     2
 72
     6
 73
     3
 74
     0
 42
0.000000001
 43
0.00000001
 40
5.0
 40
5.0
 40
5.0
 40
6.0
 40
6.0
 40
6.0
 10
200.4570143562672
 20
179.9887331019015
 30
0.0
 10
201.3025489539362
 20
185.0364654705952
 30
0.0
 10
206.0852177508571
 20
212.8335670084086
 30
0.0
  0
SPLINE
  5
149
330
1F
100
AcDbEntity
  8
CAPA_1
 62
   179
370
    18
100
AcDbSpline
210
0.0
220
0.0
230
1.0
 70
     8
 71
     2
 72
     6
 73
     3
 74
     0
 42
0.000000001
 43
0.00000001
 40
6.0
 40
6.0
 40
6.0
 40
7.0
 40
7.0
 40
7.0
 10
206.0852177508571
 20
212.8335670084086
 30
0.0
 10
206.9265064790309
 20
215.9372976657794
 30
0.0
 10
206.6669018823816
 20
218.6370641610445
 30
0.0
  0
SPLINE
  5
14A
330
1F
100
AcDbEntity
  8
CAPA_1
 62
   179
370
    18
100
AcDbSpline
210
0.0
220
0.0
230
1.0
 70
     8
 71
     3
 72
     8
 73
     4
 74
     0
 42
0.000000001
 43
0.00000001
 40
7.0
 40
7.0
 40
7.0
 40
7.0
 40
8.0
 40
8.0
 40
8.0
 40
8.0
 10
206.6669018823816
 20
218.6370641610445
 30
0.0
 10
206.5892631243844
 20
219.4510580132808
 30
0.0
 10
206.3223798943439
 20
220.5052467726963
 30
0.0
 10
205.6127131228498
 20
220.6544587603165
 30
0.0
  0
SPLINE
  5
14B
330
1F
100
AcDbEntity
  8
CAPA_1
 62
   179
370
    18
100
AcDbSpline
210
0.0
220
0.0
230
1.0
 70
     8
 71
     2
 72
     6
 73
     3
 74
     0
 42
0.000000001
 43
0.00000001
 40
0.0
 40
0.0
 40
0.0
 40
1.0
 40
1.0
 40
1.0
 10
149.9481499235483
 20
214.6028815143835
 30
0.0
 10
150.6517511671339
 20
219.6682039141051
 30
0.0
 10
152.683096480869
 20
220.4882632942498
 30
0.0
  0
SPLINE
  5
14C
330
1F
100
AcDbEntity
  8
CAPA_1
 62
   179
370
    18
100
AcDbSpline
210
0.0
220
0.0
230
1.0
 70
     8
 71
     2
 72
     6
 73
     3
 74
     0
 42
0.000000001
 43
0.00000001
 40
4.0
 40
4.0
 40
4.0
 40
5.0
 40
5.0
 40
5.0
 10
147.2884159130265
 20
175.1748268364789
 30
0.0
 10
141.8385390404658
 20
175.1748268364789
 30
0.0
 10
143.7352296336251
 20
180.1124698723759
 30
0.0
  0
SPLINE
  5
14D
330
1F
100
AcDbEntity
  8
CAPA_1
 62
   179
370
    18
100
AcDbSpline
210
0.0
220
0.0
230
1.0
 70
     8
 71
     2
 72
     6
 73
     3
 74
     0
 42
0.000000001
 43
0.00000001
 40
0.0
 40
0.0
 40
0.0
 40
1.0
 40
1.0
 40
1.0
 10
136.2794826644759
 20
127.5152441627897
 30
0.0
 10
136.7089220441633
 20
127.4266874547209
 30
0.0
 10
139.2291489119455
 20
130.0821755956019
 30
0.0
  0
SPLINE
  5
14E
330
1F
100
AcDbEntity
  8
CAPA_1
 62
   179
370
    18
100
AcDbSpline
210
0.0
220
0.0
230
1.0
 70
     8
 71
     2
 72
     6
 73
     3
 74
     0
 42
0.000000001
 43
0.00000001
 40
4.0
 40
4.0
 40
4.0
 40
5.0
 40
5.0
 40
5.0
 10
146.5484215016116
 20
173.0070071431435
 30
0.0
 10
142.2801094758836
 20
173.2326447833655
 30
0.0
 10
141.4351814309123
 20
168.1809698213217
 30
0.0
  0
SPLINE
  5
14F
330
1F
100
AcDbEntity
  8
0
  6
Continuous
 62
   179
370
    18
100
AcDbSpline
210
0.0
220
0.0
230
1.0
 70
     8
 71
     2
 72
     6
 73
     3
 74
     0
 42
0.000000001
 43
0.00000001
 40
5.0
 40
5.0
 40
5.0
 40
6.0
 40
6.0
 40
6.0
 10
141.4351814309123
 20
168.1809698213217
 30
0.0
 10
140.5896468333597
 20
163.1332374525116
 30
0.0
 10
135.8087976948521
 20
135.3349228090699
 30
0.0
  0
SPLINE
  5
150
330
1F
100
AcDbEntity
  8
CAPA_1
 62
   179
370
    18
100
AcDbSpline
210
0.0
220
0.0
230
1.0
 70
     8
 71
     2
 72
     6
 73
     3
 74
     0
 42
0.000000001
 43
0.00000001
 40
6.0
 40
6.0
 40
6.0
 40
7.0
 40
7.0
 40
7.0
 10
135.8087976948521
 20
135.3349228090699
 30
0.0
 10
134.9650827555672
 20
132.2330118107236
 30
0.0
 10
135.2246873523336
 20
129.5326387627601
 30
0.0
  0
SPLINE
  5
151
330
1F
100
AcDbEntity
  8
CAPA_1
 62
   179
370
    18
100
AcDbSpline
210
0.0
220
0.0
230
1.0
 70
     8
 71
     3
 72
     8
 73
     4
 74
     0
 42
0.000000001
 43
0.00000001
 40
7.0
 40
7.0
 40
7.0
 40
7.0
 40
8.0
 40
8.0
 40
8.0
 40
8.0
 10
135.2246873523336
 20
129.5326387627601
 30
0.0
 10
135.3041457685404
 20
128.7186449102909
 30
0.0
 10
135.569815893331
 20
127.6632430450144
 30
0.0
 10
136.2794826644759
 20
127.5152441627897
 30
0.0
  0
SPLINE
  5
152
330
1F
100
AcDbEntity
  8
CAPA_1
 62
   179
370
    18
100
AcDbSpline
210
0.0
220
0.0
230
1.0
 70
     8
 71
     2
 72
     6
 73
     3
 74
     0
 42
0.000000001
 43
0.00000001
 40
0.0
 40
0.0
 40
0.0
 40
1.0
 40
1.0
 40
1.0
 10
191.9429385854352
 20
133.5661957930293
 30
0.0
 10
191.2399438948093
 20
128.5002668402608
 30
0.0
 10
188.9089614996525
 20
127.6510929260853
 30
0.0
  0
SPLINE
  5
153
330
1F
100
AcDbEntity
  8
CAPA_1
 62
   179
370
    18
100
AcDbSpline
210
0.0
220
0.0
230
1.0
 70
     8
 71
     2
 72
     6
 73
     3
 74
     0
 42
0.000000001
 43
0.00000001
 40
4.0
 40
4.0
 40
4.0
 40
5.0
 40
5.0
 40
5.0
 10
195.4808552176039
 20
172.9948760873265
 30
0.0
 10
199.9141496038577
 20
172.9948760873265
 30
0.0
 10
198.1557530480716
 20
168.0560199453355
 30
0.0
  0
SPLINE
  5
154
330
1F
100
AcDbEntity
  8
CAPA_1
 62
   179
370
    18
100
AcDbSpline
210
0.0
220
0.0
230
1.0
 70
     8
 71
     2
 72
     6
 73
     3
 74
     0
 42
0.000000001
 43
0.00000001
 40
2.0
 40
2.0
 40
2.0
 40
3.0
 40
3.0
 40
3.0
 10
235.4640522320045
 20
221.2452411837038
 30
0.0
 10
236.4296842833212
 20
224.2755789528926
 30
0.0
 10
243.0623391081392
 20
224.1573011575126
 30
0.0
  0
SPLINE
  5
155
330
1F
100
AcDbEntity
  8
0
  6
Continuous
 62
   179
370
    18
100
AcDbSpline
210
0.0
220
0.0
230
1.0
 70
     8
 71
     2
 72
     6
 73
     3
 74
     0
 42
0.000000001
 43
0.00000001
 40
3.0
 40
3.0
 40
3.0
 40
4.0
 40
4.0
 40
4.0
 10
243.0623391081392
 20
224.1573011575126
 30
0.0
 10
249.6962070384691
 20
224.0353840457136
 30
0.0
 10
280.0893545431248
 20
224.1603339215834
 30
0.0
  0
SPLINE
  5
156
330
1F
100
AcDbEntity
  8
CAPA_1
 62
   179
370
    18
100
AcDbSpline
210
0.0
220
0.0
230
1.0
 70
     8
 71
     2
 72
     6
 73
     3
 74
     0
 42
0.000000001
 43
0.00000001
 40
4.0
 40
4.0
 40
4.0
 40
5.0
 40
5.0
 40
5.0
 10
280.0893545431248
 20
224.1603339215834
 30
0.0
 10
288.3778985011089
 20
223.5040437958944
 30
0.0
 10
284.3995187117764
 20
220.4882632942498
 30
0.0
  0
SPLINE
  5
157
330
1F
100
AcDbEntity
  8
CAPA_1
 62
   179
370
    18
100
AcDbSpline
210
0.0
220
0.0
230
1.0
 70
     8
 71
     2
 72
     6
 73
     3
 74
     0
 42
0.000000001
 43
0.00000001
 40
5.0
 40
5.0
 40
5.0
 40
6.0
 40
6.0
 40
6.0
 10
284.3995187117764
 20
220.4882632942498
 30
0.0
 10
280.4205323696008
 20
217.4749090036238
 30
0.0
 10
274.4617577012616
 20
212.0195731559396
 30
0.0
  0
SPLINE
  5
158
330
1F
100
AcDbEntity
  8
CAPA_1
 62
   179
370
    18
100
AcDbSpline
210
0.0
220
0.0
230
1.0
 70
     8
 71
     2
 72
     6
 73
     3
 74
     0
 42
0.000000001
 43
0.00000001
 40
2.0
 40
2.0
 40
2.0
 40
3.0
 40
3.0
 40
3.0
 10
269.4740740594206
 20
126.3276137882245
 30
0.0
 10
268.1481496471607
 20
124.0384835359041
 30
0.0
 10
263.4455458194062
 20
124.0384835359039
 30
0.0
  0
SPLINE
  5
159
330
1F
100
AcDbEntity
  8
0
  6
Continuous
 62
   179
370
    18
100
AcDbSpline
210
0.0
220
0.0
230
1.0
 70
    24
 71
     2
 72
     6
 73
     3
 74
     0
 42
0.000000001
 43
0.00000001
 40
3.0
 40
3.0
 40
3.0
 40
4.0
 40
4.0
 40
4.0
 10
263.4455458194062
 20
124.0384835359039
 30
0.0
 10
258.7417288861398
 20
124.0384835359039
 30
0.0
 10
226.1783354773289
 20
124.0384835359039
 30
0.0
  0
SPLINE
  5
15A
330
1F
100
AcDbEntity
  8
CAPA_1
 62
   179
370
    18
100
AcDbSpline
210
0.0
220
0.0
230
1.0
 70
     8
 71
     2
 72
     6
 73
     3
 74
     0
 42
0.000000001
 43
0.00000001
 40
4.0
 40
4.0
 40
4.0
 40
5.0
 40
5.0
 40
5.0
 10
226.1783354773289
 20
124.0384835359039
 30
0.0
 10
215.0626489367496
 20
123.299702230292
 30
0.0
 10
221.4447974569562
 20
128.4408437298003
 30
0.0
  0
SPLINE
  5
15B
330
1F
100
AcDbEntity
  8
CAPA_1
 62
   179
370
    18
100
AcDbSpline
210
0.0
220
0.0
230
1.0
 70
     8
 71
     2
 72
     6
 73
     3
 74
     0
 42
0.000000001
 43
0.00000001
 40
5.0
 40
5.0
 40
5.0
 40
6.0
 40
6.0
 40
6.0
 10
221.4447974569562
 20
128.4408437298004
 30
0.0
 10
223.7175507837315
 20
130.2738462790472
 30
0.0
 10
230.6395312921893
 20
136.7008797061021
 30
0.0
  0
SPLINE
  5
15C
330
1F
100
AcDbEntity
  8
CAPA_1
 62
   179
370
    18
100
AcDbSpline
210
0.0
220
0.0
230
1.0
 70
     8
 71
     2
 72
     6
 73
     3
 74
     0
 42
0.000000001
 43
0.00000001
 40
0.0
 40
0.0
 40
0.0
 40
1.0
 40
1.0
 40
1.0
 10
287.2042188408016
 20
220.6862089997484
 30
0.0
 10
286.7753860138694
 20
220.7741591552365
 30
0.0
 10
283.6765077788953
 20
218.1204906727978
 30
0.0
  0
SPLINE
  5
15D
330
1F
100
AcDbEntity
  8
CAPA_1
 62
   179
370
    18
100
AcDbSpline
210
0.0
220
0.0
230
1.0
 70
     8
 71
     2
 72
     6
 73
     3
 74
     0
 42
0.000000001
 43
0.00000001
 40
4.0
 40
4.0
 40
4.0
 40
5.0
 40
5.0
 40
5.0
 10
276.1619251885498
 20
175.2065770759107
 30
0.0
 10
281.2041985821782
 20
174.9688083794061
 30
0.0
 10
282.0485200742189
 20
180.0204833413334
 30
0.0
  0
SPLINE
  5
15E
330
1F
100
AcDbEntity
  8
0
  6
Continuous
 62
   179
370
    18
100
AcDbSpline
210
0.0
220
0.0
230
1.0
 70
     8
 71
     2
 72
     6
 73
     3
 74
     0
 42
0.000000001
 43
0.00000001
 40
5.0
 40
5.0
 40
5.0
 40
6.0
 40
6.0
 40
6.0
 10
282.0485200742189
 20
180.0204833413334
 30
0.0
 10
282.894054671888
 20
185.0682157100271
 30
0.0
 10
287.6767234688089
 20
212.8653172478406
 30
0.0
  0
SPLINE
  5
15F
330
1F
100
AcDbEntity
  8
CAPA_1
 62
   179
370
    18
100
AcDbSpline
210
0.0
220
0.0
230
1.0
 70
     8
 71
     2
 72
     6
 73
     3
 74
     0
 42
0.000000001
 43
0.00000001
 40
6.0
 40
6.0
 40
6.0
 40
7.0
 40
7.0
 40
7.0
 10
287.6767234688089
 20
212.8653172478406
 30
0.0
 10
288.5180121969827
 20
215.9690479052113
 30
0.0
 10
288.2584076003334
 20
218.6688144004764
 30
0.0
  0
SPLINE
  5
160
330
1F
100
AcDbEntity
  8
CAPA_1
 62
   179
370
    18
100
AcDbSpline
210
0.0
220
0.0
230
1.0
 70
     8
 71
     3
 72
     8
 73
     4
 74
     0
 42
0.000000001
 43
0.00000001
 40
7.0
 40
7.0
 40
7.0
 40
7.0
 40
8.0
 40
8.0
 40
8.0
 40
8.0
 10
288.2584076003334
 20
218.6688144004764
 30
0.0
 10
288.1807688423362
 20
219.4828082527126
 30
0.0
 10
287.9138856122957
 20
220.5369970121281
 30
0.0
 10
287.2042188408016
 20
220.6862089997484
 30
0.0
  0
SPLINE
  5
161
330
1F
100
AcDbEntity
  8
CAPA_1
 62
   179
370
    18
100
AcDbSpline
210
0.0
220
0.0
230
1.0
 70
     8
 71
     2
 72
     6
 73
     3
 74
     0
 42
0.000000001
 43
0.00000001
 40
0.0
 40
0.0
 40
0.0
 40
1.0
 40
1.0
 40
1.0
 10
231.5396556415001
 20
214.6346317538153
 30
0.0
 10
232.2432568850857
 20
219.6999541535368
 30
0.0
 10
234.2746021988208
 20
220.5200135336815
 30
0.0
  0
SPLINE
  5
162
330
1F
100
AcDbEntity
  8
CAPA_1
 62
   179
370
    18
100
AcDbSpline
210
0.0
220
0.0
230
1.0
 70
     8
 71
     2
 72
     6
 73
     3
 74
     0
 42
0.000000001
 43
0.00000001
 40
4.0
 40
4.0
 40
4.0
 40
5.0
 40
5.0
 40
5.0
 10
228.8799216309783
 20
175.2065770759108
 30
0.0
 10
223.4300447584176
 20
175.2065770759106
 30
0.0
 10
225.3267353515769
 20
180.1442201118077
 30
0.0
  0
SPLINE
  5
163
330
1F
100
AcDbEntity
  8
CAPA_1
 62
   179
370
    18
100
AcDbSpline
210
0.0
220
0.0
230
1.0
 70
     8
 71
     2
 72
     6
 73
     3
 74
     0
 42
0.000000001
 43
0.00000001
 40
0.0
 40
0.0
 40
0.0
 40
1.0
 40
1.0
 40
1.0
 10
217.8709883824284
 20
127.5469944022199
 30
0.0
 10
218.3004277621151
 20
127.4584376941528
 30
0.0
 10
220.8206546298973
 20
130.1139258350338
 30
0.0
  0
SPLINE
  5
164
330
1F
100
AcDbEntity
  8
CAPA_1
 62
   179
370
    18
100
AcDbSpline
210
0.0
220
0.0
230
1.0
 70
     8
 71
     2
 72
     6
 73
     3
 74
     0
 42
0.000000001
 43
0.00000001
 40
4.0
 40
4.0
 40
4.0
 40
5.0
 40
5.0
 40
5.0
 10
228.1399272195634
 20
173.0387573825754
 30
0.0
 10
223.8716151938355
 20
173.2643950227974
 30
0.0
 10
223.0266871488642
 20
168.2127200607536
 30
0.0
  0
SPLINE
  5
165
330
1F
100
AcDbEntity
  8
0
  6
Continuous
 62
   179
370
    18
100
AcDbSpline
210
0.0
220
0.0
230
1.0
 70
     8
 71
     2
 72
     6
 73
     3
 74
     0
 42
0.000000001
 43
0.00000001
 40
5.0
 40
5.0
 40
5.0
 40
6.0
 40
6.0
 40
6.0
 10
223.0266871488642
 20
168.2127200607536
 30
0.0
 10
222.1811525513115
 20
163.1649876919435
 30
0.0
 10
217.4003034128039
 20
135.3666730485018
 30
0.0
  0
SPLINE
  5
166
330
1F
100
AcDbEntity
  8
CAPA_1
 62
   179
370
    18
100
AcDbSpline
210
0.0
220
0.0
230
1.0
 70
     8
 71
     2
 72
     6
 73
     3
 74
     0
 42
0.000000001
 43
0.00000001
 40
6.0
 40
6.0
 40
6.0
 40
7.0
 40
7.0
 40
7.0
 10
217.4003034128039
 20
135.3666730485018
 30
0.0
 10
216.556588473519
 20
132.2647620501555
 30
0.0
 10
216.8161930702862
 20
129.5643890021904
 30
0.0
  0
SPLINE
  5
167
330
1F
100
AcDbEntity
  8
CAPA_1
 62
   179
370
    18
100
AcDbSpline
210
0.0
220
0.0
230
1.0
 70
     8
 71
     3
 72
     8
 73
     4
 74
     0
 42
0.000000001
 43
0.00000001
 40
7.0
 40
7.0
 40
7.0
 40
7.0
 40
8.0
 40
8.0
 40
8.0
 40
8.0
 10
216.8161930702862
 20
129.5643890021904
 30
0.0
 10
216.895651486493
 20
128.7503951497212
 30
0.0
 10
217.1613216112836
 20
127.6949932844447
 30
0.0
 10
217.8709883824284
 20
127.5469944022199
 30
0.0
  0
SPLINE
  5
168
330
1F
100
AcDbEntity
  8
CAPA_1
 62
   179
370
    18
100
AcDbSpline
210
0.0
220
0.0
230
1.0
 70
     8
 71
     2
 72
     6
 73
     3
 74
     0
 42
0.000000001
 43
0.00000001
 40
0.0
 40
0.0
 40
0.0
 40
1.0
 40
1.0
 40
1.0
 10
273.534444303387
 20
133.5979460324611
 30
0.0
 10
272.8314496127612
 20
128.5320170796929
 30
0.0
 10
270.5004672176045
 20
127.6828431655171
 30
0.0
  0
SPLINE
  5
169
330
1F
100
AcDbEntity
  8
CAPA_1
 62
   179
370
    18
100
AcDbSpline
210
0.0
220
0.0
230
1.0
 70
     8
 71
     2
 72
     6
 73
     3
 74
     0
 42
0.000000001
 43
0.00000001
 40
4.0
 40
4.0
 40
4.0
 40
5.0
 40
5.0
 40
5.0
 10
277.0723609355559
 20
173.0266263267583
 30
0.0
 10
281.5056553218096
 20
173.0266263267583
 30
0.0
 10
279.7472587660234
 20
168.0877701847674
 30
0.0
  0
SPLINE
  5
16A
330
1F
100
AcDbEntity
  8
CAPA_1
 62
   179
370
    18
100
AcDbSpline
210
0.0
220
0.0
230
1.0
 70
     8
 71
     2
 72
     6
 73
     3
 74
     0
 42
0.000000001
 43
0.00000001
 40
2.0
 40
2.0
 40
2.0
 40
3.0
 40
3.0
 40
3.0
 10
317.0555579499564
 20
221.2452411837034
 30
0.0
 10
318.0211900012732
 20
224.2755789528923
 30
0.0
 10
324.6538448260913
 20
224.1573011575123
 30
0.0
  0
SPLINE
  5
16B
330
1F
100
AcDbEntity
  8
0
  6
Continuous
 62
   179
370
    18
100
AcDbSpline
210
0.0
220
0.0
230
1.0
 70
     8
 71
     2
 72
     6
 73
     3
 74
     0
 42
0.000000001
 43
0.00000001
 40
3.0
 40
3.0
 40
3.0
 40
4.0
 40
4.0
 40
4.0
 10
324.6538448260914
 20
224.1573011575123
 30
0.0
 10
331.2877127564213
 20
224.0353840457131
 30
0.0
 10
361.6808602610769
 20
224.160333921583
 30
0.0
  0
SPLINE
  5
16C
330
1F
100
AcDbEntity
  8
CAPA_1
 62
   179
370
    18
100
AcDbSpline
210
0.0
220
0.0
230
1.0
 70
     8
 71
     2
 72
     6
 73
     3
 74
     0
 42
0.000000001
 43
0.00000001
 40
4.0
 40
4.0
 40
4.0
 40
5.0
 40
5.0
 40
5.0
 10
361.6808602610768
 20
224.160333921583
 30
0.0
 10
369.9694042190609
 20
223.5040437958991
 30
0.0
 10
365.9910244297282
 20
220.4882632942499
 30
0.0
  0
SPLINE
  5
16D
330
1F
100
AcDbEntity
  8
CAPA_1
 62
   179
370
    18
100
AcDbSpline
210
0.0
220
0.0
230
1.0
 70
     8
 71
     2
 72
     6
 73
     3
 74
     0
 42
0.000000001
 43
0.00000001
 40
5.0
 40
5.0
 40
5.0
 40
6.0
 40
6.0
 40
6.0
 10
365.9910244297282
 20
220.4882632942499
 30
0.0
 10
362.0120380875526
 20
217.4749090036239
 30
0.0
 10
356.0532634192134
 20
212.0195731559397
 30
0.0
  0
SPLINE
  5
16E
330
1F
100
AcDbEntity
  8
CAPA_1
 62
   179
370
    18
100
AcDbSpline
210
0.0
220
0.0
230
1.0
 70
     8
 71
     2
 72
     6
 73
     3
 74
     0
 42
0.000000001
 43
0.00000001
 40
2.0
 40
2.0
 40
2.0
 40
3.0
 40
3.0
 40
3.0
 10
351.0655797773732
 20
126.3276137882236
 30
0.0
 10
349.7396553651131
 20
124.0384835359033
 30
0.0
 10
345.0370515373586
 20
124.0384835359033
 30
0.0
  0
SPLINE
  5
16F
330
1F
100
AcDbEntity
  8
0
  6
Continuous
 62
   179
370
    18
100
AcDbSpline
210
0.0
220
0.0
230
1.0
 70
    24
 71
     2
 72
     6
 73
     3
 74
     0
 42
0.000000001
 43
0.00000001
 40
3.0
 40
3.0
 40
3.0
 40
4.0
 40
4.0
 40
4.0
 10
345.0370515373586
 20
124.0384835359033
 30
0.0
 10
340.3332346040922
 20
124.0384835359033
 30
0.0
 10
307.7698411952813
 20
124.0384835359033
 30
0.0
  0
SPLINE
  5
170
330
1F
100
AcDbEntity
  8
CAPA_1
 62
   179
370
    18
100
AcDbSpline
210
0.0
220
0.0
230
1.0
 70
     8
 71
     2
 72
     6
 73
     3
 74
     0
 42
0.000000001
 43
0.00000001
 40
4.0
 40
4.0
 40
4.0
 40
5.0
 40
5.0
 40
5.0
 10
307.7698411952813
 20
124.0384835359033
 30
0.0
 10
296.6541546547022
 20
123.2997022302912
 30
0.0
 10
303.0363031749082
 20
128.4408437298003
 30
0.0
  0
SPLINE
  5
171
330
1F
100
AcDbEntity
  8
CAPA_1
 62
   179
370
    18
100
AcDbSpline
210
0.0
220
0.0
230
1.0
 70
     8
 71
     2
 72
     6
 73
     3
 74
     0
 42
0.000000001
 43
0.00000001
 40
5.0
 40
5.0
 40
5.0
 40
6.0
 40
6.0
 40
6.0
 10
303.0363031749082
 20
128.4408437298003
 30
0.0
 10
305.3090565016835
 20
130.2738462790472
 30
0.0
 10
312.2310370101411
 20
136.7008797061023
 30
0.0
  0
SPLINE
  5
172
330
1F
100
AcDbEntity
  8
CAPA_1
 62
   179
370
    18
100
AcDbSpline
210
0.0
220
0.0
230
1.0
 70
     8
 71
     2
 72
     6
 73
     3
 74
     0
 42
0.000000001
 43
0.00000001
 40
0.0
 40
0.0
 40
0.0
 40
1.0
 40
1.0
 40
1.0
 10
368.7957245586952
 20
220.7179592392966
 30
0.0
 10
368.366891731763
 20
220.8059093947847
 30
0.0
 10
365.2680134967889
 20
218.1522409123461
 30
0.0
  0
SPLINE
  5
173
330
1F
100
AcDbEntity
  8
CAPA_1
 62
   179
370
    18
100
AcDbSpline
210
0.0
220
0.0
230
1.0
 70
     8
 71
     2
 72
     6
 73
     3
 74
     0
 42
0.000000001
 43
0.00000001
 40
4.0
 40
4.0
 40
4.0
 40
5.0
 40
5.0
 40
5.0
 10
357.7534309064434
 20
175.238327315459
 30
0.0
 10
362.7957043000718
 20
175.0005586189543
 30
0.0
 10
363.6400257921126
 20
180.0522335808816
 30
0.0
  0
SPLINE
  5
174
330
1F
100
AcDbEntity
  8
0
  6
Continuous
 62
   179
370
    18
100
AcDbSpline
210
0.0
220
0.0
230
1.0
 70
     8
 71
     2
 72
     6
 73
     3
 74
     0
 42
0.000000001
 43
0.00000001
 40
5.0
 40
5.0
 40
5.0
 40
6.0
 40
6.0
 40
6.0
 10
363.6400257921126
 20
180.0522335808816
 30
0.0
 10
364.4855603897816
 20
185.0999659495754
 30
0.0
 10
369.2682291867025
 20
212.8970674873888
 30
0.0
  0
SPLINE
  5
175
330
1F
100
AcDbEntity
  8
CAPA_1
 62
   179
370
    18
100
AcDbSpline
210
0.0
220
0.0
230
1.0
 70
     8
 71
     2
 72
     6
 73
     3
 74
     0
 42
0.000000001
 43
0.00000001
 40
6.0
 40
6.0
 40
6.0
 40
7.0
 40
7.0
 40
7.0
 10
369.2682291867025
 20
212.8970674873888
 30
0.0
 10
370.1095179148763
 20
216.0007981447596
 30
0.0
 10
369.849913318227
 20
218.7005646400247
 30
0.0
  0
SPLINE
  5
176
330
1F
100
AcDbEntity
  8
CAPA_1
 62
   179
370
    18
100
AcDbSpline
210
0.0
220
0.0
230
1.0
 70
     8
 71
     3
 72
     8
 73
     4
 74
     0
 42
0.000000001
 43
0.00000001
 40
7.0
 40
7.0
 40
7.0
 40
7.0
 40
8.0
 40
8.0
 40
8.0
 40
8.0
 10
369.849913318227
 20
218.7005646400247
 30
0.0
 10
369.7722745602298
 20
219.514558492261
 30
0.0
 10
369.5053913301893
 20
220.5687472516763
 30
0.0
 10
368.7957245586952
 20
220.7179592392966
 30
0.0
  0
SPLINE
  5
177
330
1F
100
AcDbEntity
  8
CAPA_1
 62
   179
370
    18
100
AcDbSpline
210
0.0
220
0.0
230
1.0
 70
     8
 71
     2
 72
     6
 73
     3
 74
     0
 42
0.000000001
 43
0.00000001
 40
0.0
 40
0.0
 40
0.0
 40
1.0
 40
1.0
 40
1.0
 10
313.1311613593937
 20
214.6663819933636
 30
0.0
 10
313.8347626029793
 20
219.731704393085
 30
0.0
 10
315.8661079167143
 20
220.5517637732299
 30
0.0
  0
SPLINE
  5
178
330
1F
100
AcDbEntity
  8
CAPA_1
 62
   179
370
    18
100
AcDbSpline
210
0.0
220
0.0
230
1.0
 70
     8
 71
     2
 72
     6
 73
     3
 74
     0
 42
0.000000001
 43
0.00000001
 40
4.0
 40
4.0
 40
4.0
 40
5.0
 40
5.0
 40
5.0
 10
310.4714273488719
 20
175.238327315459
 30
0.0
 10
305.0215504763112
 20
175.238327315459
 30
0.0
 10
306.9182410694705
 20
180.1759703513561
 30
0.0
  0
SPLINE
  5
179
330
1F
100
AcDbEntity
  8
CAPA_1
 62
   179
370
    18
100
AcDbSpline
210
0.0
220
0.0
230
1.0
 70
     8
 71
     2
 72
     6
 73
     3
 74
     0
 42
0.000000001
 43
0.00000001
 40
0.0
 40
0.0
 40
0.0
 40
1.0
 40
1.0
 40
1.0
 10
299.4624941003206
 20
127.5787446417705
 30
0.0
 10
299.8919334800087
 20
127.490187933701
 30
0.0
 10
302.4121603477909
 20
130.1456760745821
 30
0.0
  0
SPLINE
  5
17A
330
1F
100
AcDbEntity
  8
CAPA_1
 62
   179
370
    18
100
AcDbSpline
210
0.0
220
0.0
230
1.0
 70
     8
 71
     2
 72
     6
 73
     3
 74
     0
 42
0.000000001
 43
0.00000001
 40
4.0
 40
4.0
 40
4.0
 40
5.0
 40
5.0
 40
5.0
 10
309.731432937457
 20
173.0705076221236
 30
0.0
 10
305.463120911729
 20
173.2961452623456
 30
0.0
 10
304.6181928667577
 20
168.2444703003019
 30
0.0
  0
SPLINE
  5
17B
330
1F
100
AcDbEntity
  8
0
  6
Continuous
 62
   179
370
    18
100
AcDbSpline
210
0.0
220
0.0
230
1.0
 70
     8
 71
     2
 72
     6
 73
     3
 74
     0
 42
0.000000001
 43
0.00000001
 40
5.0
 40
5.0
 40
5.0
 40
6.0
 40
6.0
 40
6.0
 10
304.6181928667577
 20
168.2444703003019
 30
0.0
 10
303.7726582692051
 20
163.1967379314917
 30
0.0
 10
298.9918091306975
 20
135.3984232880501
 30
0.0
  0
SPLINE
  5
17C
330
1F
100
AcDbEntity
  8
CAPA_1
 62
   179
370
    18
100
AcDbSpline
210
0.0
220
0.0
230
1.0
 70
     8
 71
     2
 72
     6
 73
     3
 74
     0
 42
0.000000001
 43
0.00000001
 40
6.0
 40
6.0
 40
6.0
 40
7.0
 40
7.0
 40
7.0
 10
298.9918091306975
 20
135.3984232880501
 30
0.0
 10
298.1480941914126
 20
132.2965122897038
 30
0.0
 10
298.4076987881784
 20
129.596139241741
 30
0.0
  0
SPLINE
  5
17D
330
1F
100
AcDbEntity
  8
CAPA_1
 62
   179
370
    18
100
AcDbSpline
210
0.0
220
0.0
230
1.0
 70
     8
 71
     3
 72
     8
 73
     4
 74
     0
 42
0.000000001
 43
0.00000001
 40
7.0
 40
7.0
 40
7.0
 40
7.0
 40
8.0
 40
8.0
 40
8.0
 40
8.0
 10
298.4076987881784
 20
129.596139241741
 30
0.0
 10
298.4871572043851
 20
128.7821453892718
 30
0.0
 10
298.7528273291757
 20
127.7267435239953
 30
0.0
 10
299.4624941003206
 20
127.5787446417705
 30
0.0
  0
SPLINE
  5
17E
330
1F
100
AcDbEntity
  8
CAPA_1
 62
   179
370
    18
100
AcDbSpline
210
0.0
220
0.0
230
1.0
 70
     8
 71
     2
 72
     6
 73
     3
 74
     0
 42
0.000000001
 43
0.00000001
 40
0.0
 40
0.0
 40
0.0
 40
1.0
 40
1.0
 40
1.0
 10
355.1259500212807
 20
133.6296962720094
 30
0.0
 10
354.4229553306548
 20
128.5637673192409
 30
0.0
 10
352.0919729354981
 20
127.7145934050654
 30
0.0
  0
SPLINE
  5
17F
330
1F
100
AcDbEntity
  8
CAPA_1
 62
   179
370
    18
100
AcDbSpline
210
0.0
220
0.0
230
1.0
 70
     8
 71
     2
 72
     6
 73
     3
 74
     0
 42
0.000000001
 43
0.00000001
 40
4.0
 40
4.0
 40
4.0
 40
5.0
 40
5.0
 40
5.0
 10
358.6638666534494
 20
173.0583765663067
 30
0.0
 10
363.097161039703
 20
173.0583765663067
 30
0.0
 10
361.338764483917
 20
168.1195204243156
 30
0.0
  0
SPLINE
  5
180
330
1F
100
AcDbEntity
  8
CAPA_1
 62
   179
370
    18
100
AcDbSpline
210
0.0
220
0.0
230
1.0
 70
     8
 71
     2
 72
     6
 73
     3
 74
     0
 42
0.000000001
 43
0.00000001
 40
2.0
 40
2.0
 40
2.0
 40
3.0
 40
3.0
 40
3.0
 10
398.6470636679087
 20
221.2452411837025
 30
0.0
 10
399.6126957192252
 20
224.2755789528915
 30
0.0
 10
406.2453505440432
 20
224.1573011575121
 30
0.0
  0
SPLINE
  5
181
330
1F
100
AcDbEntity
  8
0
  6
Continuous
 62
   179
370
    18
100
AcDbSpline
210
0.0
220
0.0
230
1.0
 70
     8
 71
     2
 72
     6
 73
     3
 74
     0
 42
0.000000001
 43
0.00000001
 40
3.0
 40
3.0
 40
3.0
 40
4.0
 40
4.0
 40
4.0
 10
406.2453505440432
 20
224.1573011575121
 30
0.0
 10
412.8792184743731
 20
224.035384045713
 30
0.0
 10
443.2723659790287
 20
224.1603339215827
 30
0.0
  0
SPLINE
  5
182
330
1F
100
AcDbEntity
  8
CAPA_1
 62
   179
370
    18
100
AcDbSpline
210
0.0
220
0.0
230
1.0
 70
     8
 71
     2
 72
     6
 73
     3
 74
     0
 42
0.000000001
 43
0.00000001
 40
4.0
 40
4.0
 40
4.0
 40
5.0
 40
5.0
 40
5.0
 10
443.2723659790287
 20
224.1603339215827
 30
0.0
 10
451.5609099370129
 20
223.5040437958989
 30
0.0
 10
447.5825301476801
 20
220.4882632942499
 30
0.0
  0
SPLINE
  5
183
330
1F
100
AcDbEntity
  8
CAPA_1
 62
   179
370
    18
100
AcDbSpline
210
0.0
220
0.0
230
1.0
 70
     8
 71
     2
 72
     6
 73
     3
 74
     0
 42
0.000000001
 43
0.00000001
 40
5.0
 40
5.0
 40
5.0
 40
6.0
 40
6.0
 40
6.0
 10
447.5825301476801
 20
220.4882632942499
 30
0.0
 10
443.6035438055045
 20
217.4749090036238
 30
0.0
 10
437.6447691371652
 20
212.0195731559397
 30
0.0
  0
SPLINE
  5
184
330
1F
100
AcDbEntity
  8
CAPA_1
 62
   179
370
    18
100
AcDbSpline
210
0.0
220
0.0
230
1.0
 70
     8
 71
     2
 72
     6
 73
     3
 74
     0
 42
0.000000001
 43
0.00000001
 40
2.0
 40
2.0
 40
2.0
 40
3.0
 40
3.0
 40
3.0
 10
432.657085495325
 20
126.3276137882236
 30
0.0
 10
431.331161083065
 20
124.0384835359033
 30
0.0
 10
426.6285572553105
 20
124.0384835359033
 30
0.0
  0
SPLINE
  5
185
330
1F
100
AcDbEntity
  8
0
  6
Continuous
 62
   179
370
    18
100
AcDbSpline
210
0.0
220
0.0
230
1.0
 70
    24
 71
     2
 72
     6
 73
     3
 74
     0
 42
0.000000001
 43
0.00000001
 40
3.0
 40
3.0
 40
3.0
 40
4.0
 40
4.0
 40
4.0
 10
426.6285572553105
 20
124.0384835359033
 30
0.0
 10
421.9247403220442
 20
124.0384835359033
 30
0.0
 10
389.3613469132332
 20
124.0384835359033
 30
0.0
  0
SPLINE
  5
186
330
1F
100
AcDbEntity
  8
CAPA_1
 62
   179
370
    18
100
AcDbSpline
210
0.0
220
0.0
230
1.0
 70
     8
 71
     2
 72
     6
 73
     3
 74
     0
 42
0.000000001
 43
0.00000001
 40
4.0
 40
4.0
 40
4.0
 40
5.0
 40
5.0
 40
5.0
 10
389.3613469132331
 20
124.0384835359033
 30
0.0
 10
378.245660372654
 20
123.299702230291
 30
0.0
 10
384.62780889286
 20
128.4408437298003
 30
0.0
  0
SPLINE
  5
187
330
1F
100
AcDbEntity
  8
CAPA_1
 62
   179
370
    18
100
AcDbSpline
210
0.0
220
0.0
230
1.0
 70
     8
 71
     2
 72
     6
 73
     3
 74
     0
 42
0.000000001
 43
0.00000001
 40
5.0
 40
5.0
 40
5.0
 40
6.0
 40
6.0
 40
6.0
 10
384.62780889286
 20
128.4408437298003
 30
0.0
 10
386.9005622196353
 20
130.2738462790472
 30
0.0
 10
393.8225427280929
 20
136.7008797061023
 30
0.0
  0
SPLINE
  5
188
330
1F
100
AcDbEntity
  8
CAPA_1
 62
   179
370
    18
100
AcDbSpline
210
0.0
220
0.0
230
1.0
 70
     8
 71
     2
 72
     6
 73
     3
 74
     0
 42
0.000000001
 43
0.00000001
 40
0.0
 40
0.0
 40
0.0
 40
1.0
 40
1.0
 40
1.0
 10
450.3872302766518
 20
220.7497094787187
 30
0.0
 10
449.9583974497196
 20
220.8376596342069
 30
0.0
 10
446.8595192147455
 20
218.1839911517683
 30
0.0
  0
SPLINE
  5
189
330
1F
100
AcDbEntity
  8
CAPA_1
 62
   179
370
    18
100
AcDbSpline
210
0.0
220
0.0
230
1.0
 70
     8
 71
     2
 72
     6
 73
     3
 74
     0
 42
0.000000001
 43
0.00000001
 40
4.0
 40
4.0
 40
4.0
 40
5.0
 40
5.0
 40
5.0
 10
439.3449366243998
 20
175.2700775548811
 30
0.0
 10
444.3872100180282
 20
175.0323088583764
 30
0.0
 10
445.2315315100689
 20
180.0839838203038
 30
0.0
  0
SPLINE
  5
18A
330
1F
100
AcDbEntity
  8
0
  6
Continuous
 62
   179
370
    18
100
AcDbSpline
210
0.0
220
0.0
230
1.0
 70
     8
 71
     2
 72
     6
 73
     3
 74
     0
 42
0.000000001
 43
0.00000001
 40
5.0
 40
5.0
 40
5.0
 40
6.0
 40
6.0
 40
6.0
 10
445.2315315100689
 20
180.0839838203038
 30
0.0
 10
446.077066107738
 20
185.1317161889974
 30
0.0
 10
450.859734904659
 20
212.9288177268108
 30
0.0
  0
SPLINE
  5
18B
330
1F
100
AcDbEntity
  8
CAPA_1
 62
   179
370
    18
100
AcDbSpline
210
0.0
220
0.0
230
1.0
 70
     8
 71
     2
 72
     6
 73
     3
 74
     0
 42
0.000000001
 43
0.00000001
 40
6.0
 40
6.0
 40
6.0
 40
7.0
 40
7.0
 40
7.0
 10
450.859734904659
 20
212.9288177268108
 30
0.0
 10
451.7010236328329
 20
216.0325483841816
 30
0.0
 10
451.4414190361836
 20
218.7323148794467
 30
0.0
  0
SPLINE
  5
18C
330
1F
100
AcDbEntity
  8
CAPA_1
 62
   179
370
    18
100
AcDbSpline
210
0.0
220
0.0
230
1.0
 70
     8
 71
     3
 72
     8
 73
     4
 74
     0
 42
0.000000001
 43
0.00000001
 40
7.0
 40
7.0
 40
7.0
 40
7.0
 40
8.0
 40
8.0
 40
8.0
 40
8.0
 10
451.4414190361836
 20
218.7323148794467
 30
0.0
 10
451.3637802781864
 20
219.546308731683
 30
0.0
 10
451.0968970481459
 20
220.6004974910985
 30
0.0
 10
450.3872302766518
 20
220.7497094787187
 30
0.0
  0
SPLINE
  5
18D
330
1F
100
AcDbEntity
  8
CAPA_1
 62
   179
370
    18
100
AcDbSpline
210
0.0
220
0.0
230
1.0
 70
     8
 71
     2
 72
     6
 73
     3
 74
     0
 42
0.000000001
 43
0.00000001
 40
0.0
 40
0.0
 40
0.0
 40
1.0
 40
1.0
 40
1.0
 10
394.7226670773456
 20
214.6981322327954
 30
0.0
 10
395.4262683209312
 20
219.7634546325169
 30
0.0
 10
397.4576136346662
 20
220.5835140126616
 30
0.0
  0
SPLINE
  5
18E
330
1F
100
AcDbEntity
  8
CAPA_1
 62
   179
370
    18
100
AcDbSpline
210
0.0
220
0.0
230
1.0
 70
     8
 71
     2
 72
     6
 73
     3
 74
     0
 42
0.000000001
 43
0.00000001
 40
4.0
 40
4.0
 40
4.0
 40
5.0
 40
5.0
 40
5.0
 10
392.0629330668237
 20
175.2700775548909
 30
0.0
 10
386.613056194263
 20
175.2700775548909
 30
0.0
 10
388.5097467874223
 20
180.2077205907879
 30
0.0
  0
SPLINE
  5
18F
330
1F
100
AcDbEntity
  8
CAPA_1
 62
   179
370
    18
100
AcDbSpline
210
0.0
220
0.0
230
1.0
 70
     8
 71
     2
 72
     6
 73
     3
 74
     0
 42
0.000000001
 43
0.00000001
 40
0.0
 40
0.0
 40
0.0
 40
1.0
 40
1.0
 40
1.0
 10
381.0539998182724
 20
127.6104948812024
 30
0.0
 10
381.4834391979605
 20
127.5219381731329
 30
0.0
 10
384.0036660657427
 20
130.1774263140139
 30
0.0
  0
SPLINE
  5
190
330
1F
100
AcDbEntity
  8
CAPA_1
 62
   179
370
    18
100
AcDbSpline
210
0.0
220
0.0
230
1.0
 70
     8
 71
     2
 72
     6
 73
     3
 74
     0
 42
0.000000001
 43
0.00000001
 40
4.0
 40
4.0
 40
4.0
 40
5.0
 40
5.0
 40
5.0
 10
391.3229386554088
 20
173.1022578615555
 30
0.0
 10
387.0546266296808
 20
173.3278955017775
 30
0.0
 10
386.2096985847095
 20
168.2762205397337
 30
0.0
  0
SPLINE
  5
191
330
1F
100
AcDbEntity
  8
0
  6
Continuous
 62
   179
370
    18
100
AcDbSpline
210
0.0
220
0.0
230
1.0
 70
     8
 71
     2
 72
     6
 73
     3
 74
     0
 42
0.000000001
 43
0.00000001
 40
5.0
 40
5.0
 40
5.0
 40
6.0
 40
6.0
 40
6.0
 10
386.2096985847095
 20
168.2762205397337
 30
0.0
 10
385.3641639871569
 20
163.2284881709236
 30
0.0
 10
380.5833148486493
 20
135.4301735274819
 30
0.0
  0
SPLINE
  5
192
330
1F
100
AcDbEntity
  8
CAPA_1
 62
   179
370
    18
100
AcDbSpline
210
0.0
220
0.0
230
1.0
 70
     8
 71
     2
 72
     6
 73
     3
 74
     0
 42
0.000000001
 43
0.00000001
 40
6.0
 40
6.0
 40
6.0
 40
7.0
 40
7.0
 40
7.0
 10
380.5833148486493
 20
135.4301735274819
 30
0.0
 10
379.7395999093645
 20
132.3282625291356
 30
0.0
 10
379.9992045061302
 20
129.6278894811728
 30
0.0
  0
SPLINE
  5
193
330
1F
100
AcDbEntity
  8
CAPA_1
 62
   179
370
    18
100
AcDbSpline
210
0.0
220
0.0
230
1.0
 70
     8
 71
     3
 72
     8
 73
     4
 74
     0
 42
0.000000001
 43
0.00000001
 40
7.0
 40
7.0
 40
7.0
 40
7.0
 40
8.0
 40
8.0
 40
8.0
 40
8.0
 10
379.9992045061302
 20
129.6278894811728
 30
0.0
 10
380.0786629223369
 20
128.8138956287037
 30
0.0
 10
380.3443330471276
 20
127.7584937634272
 30
0.0
 10
381.0539998182724
 20
127.6104948812024
 30
0.0
  0
SPLINE
  5
194
330
1F
100
AcDbEntity
  8
CAPA_1
 62
   179
370
    18
100
AcDbSpline
210
0.0
220
0.0
230
1.0
 70
     8
 71
     2
 72
     6
 73
     3
 74
     0
 42
0.000000001
 43
0.00000001
 40
0.0
 40
0.0
 40
0.0
 40
1.0
 40
1.0
 40
1.0
 10
436.7174557392324
 20
133.6614465114412
 30
0.0
 10
436.0144610486064
 20
128.5955175586728
 30
0.0
 10
433.6834786534498
 20
127.7463436444973
 30
0.0
  0
SPLINE
  5
195
330
1F
100
AcDbEntity
  8
CAPA_1
 62
   179
370
    18
100
AcDbSpline
210
0.0
220
0.0
230
1.0
 70
     8
 71
     2
 72
     6
 73
     3
 74
     0
 42
0.000000001
 43
0.00000001
 40
4.0
 40
4.0
 40
4.0
 40
5.0
 40
5.0
 40
5.0
 10
440.2553723714012
 20
173.0901268057385
 30
0.0
 10
444.6886667576549
 20
173.0901268057385
 30
0.0
 10
442.9302702018688
 20
168.1512706637475
 30
0.0
  0
POINT
  5
196
330
1F
100
AcDbEntity
  8
SLD-0
100
AcDbPoint
 10
117.2843841158
 20
173.7154608088
 30
0.0
  0
POINT
  5
197
330
1F
100
AcDbEntity
  8
SLD-0
100
AcDbPoint
 10
128.3447577013
 20
173.7154608087
 30
0.0
  0
POINT
  5
198
330
1F
100
AcDbEntity
  8
SLD-0
100
AcDbPoint
 10
293.3447577013
 20
238.7154608087
 30
0.0
  0
DIMENSION
  5
199
330
1F
100
AcDbEntity
  8
SLD-0
100
AcDbDimension
  2
_D
 10
455.6641568316
 20
224.9744863536
 30
0.0
 11
481.8129458142
 21
251.1232753363
 31
0.0
 70
   164
  1
<>
 71
     1
 42
-1.0
  3
SLDDIMSTYLE0
100
AcDbRadialDimension
 15
465.5636517682
 25
234.8739812902
 35
0.0
 40
0.0
  0
DIMENSION
  5
1A3
330
1F
100
AcDbEntity
  8
SLD-0
100
AcDbDimension
  2
_D_1
 10
121.4539716499
 20
245.6062468601
 30
0.0
 11
115.4865473564
 21
239.6388225666
 31
0.0
 70
   160
  1
<>
 71
     2
 42
-1.0
  3
SLDDIMSTYLE1
100
AcDbAlignedDimension
 13
117.2843841158
 23
227.6550872233
 33
0.0
 14
128.3447577013
 24
238.7154608087
 34
0.0
 50
44.9999999999
100
AcDbRotatedDimension
  0
DIMENSION
  5
1B0
330
1F
100
AcDbEntity
  8
SLD-0
100
AcDbDimension
  2
_D_2
 10
93.5407872078
 20
108.7154608087
 30
0.0
 11
93.5407872078
 21
164.7893481186
 31
0.0
 70
   160
  1
<>
 71
     2
 42
-1.0
  3
SLDDIMSTYLE2
100
AcDbAlignedDimension
 13
128.3447577013
 23
238.7154608087
 33
0.0
 14
128.3447577013
 24
108.7154608087
 34
0.0
 50
90.0
100
AcDbRotatedDimension
  0
DIMENSION
  5
1BB
330
1F
100
AcDbEntity
  8
SLD-0
100
AcDbDimension
  2
_D_3
 10
161.8323388568
 20
216.7936198597
 30
0.0
 11
180.7531018708
 21
216.7936198597
 31
0.0
 70
   160
  1
<>
 71
     2
 42
-1.0
  3
SLDDIMSTYLE3
100
AcDbAlignedDimension
 13
192.8702519833
 23
212.0195731559
 33
0.0
 14
161.8323388568
 24
212.0195731559
 34
0.0
100
AcDbRotatedDimension
  0
DIMENSION
  5
1C6
330
1F
100
AcDbEntity
  8
SLD-0
100
AcDbDimension
  2
_D_4
 10
293.3447577013
 20
246.4883868053
 30
0.0
 11
287.2361792957
 21
246.4883868053
 31
0.0
 70
   160
  1
<>
 71
     2
 42
-1.0
  3
SLDDIMSTYLE1
100
AcDbAlignedDimension
 13
274.4617577013
 23
212.0195731559
 33
0.0
 14
293.3447577013
 24
230.7562578675
 34
0.0
100
AcDbRotatedDimension
  0
DIMENSION
  5
1D2
330
1F
100
AcDbEntity
  8
SLD-0
100
AcDbDimension
  2
_D_5
 10
458.3447577013
 20
255.5980280013
 30
0.0
 11
204.2814401363
 21
255.5980280013
 31
0.0
 70
   160
  1
<>
 71
     2
 42
-1.0
  3
SLDDIMSTYLE2
100
AcDbAlignedDimension
 13
128.3447577013
 23
238.7154608087
 33
0.0
 14
458.3447577013
 24
238.7154608087
 34
0.0
100
AcDbRotatedDimension
  0
DIMENSION
  5
1DC
330
1F
100
AcDbEntity
  8
SLD-0
100
AcDbDimension
  2
_D_6
 10
189.2213831048
 20
185.4688383772
 30
0.0
 11
180.825434396
 21
185.4688383772
 31
0.0
 70
   160
  1
<>
 71
     2
 42
-1.0
  3
SLDDIMSTYLE3
100
AcDbAlignedDimension
 13
154.9402321776
 23
180.0522335809
 33
0.0
 14
189.2213831048
 24
180.0522335809
 34
0.0
100
AcDbRotatedDimension
  0
DIMENSION
  5
1E6
330
1F
100
AcDbEntity
  8
SLD-0
100
AcDbDimension
  2
_D_7
 10
118.1763854171
 20
98.5470885246
 30
0.0
 11
115.4865473564
 21
101.2369265853
 31
0.0
 70
   160
  1
<>
 71
     2
 42
-1.0
  3
SLDDIMSTYLE1
100
AcDbAlignedDimension
 13
117.2843841158
 23
119.7758343942
 33
0.0
 14
128.3447577013
 24
108.7154608087
 34
0.0
 50
-45.0
100
AcDbRotatedDimension
  0
DIMENSION
  5
1F2
330
1F
100
AcDbEntity
  8
SLD-0
100
AcDbDimension
  2
_D_8
 10
478.467994962
 20
110.7129707189
 30
0.0
 11
472.1832040682
 21
104.4281798251
 31
0.0
 70
   160
  1
<>
 71
     2
 42
-1.0
  3
SLDDIMSTYLE1
100
AcDbAlignedDimension
 13
458.3447577013
 23
108.7154608087
 33
0.0
 14
469.4051312867
 24
119.7758343942
 34
0.0
 50
45.0
100
AcDbRotatedDimension
  0
DIMENSION
  5
1FE
330
1F
100
AcDbEntity
  8
SLD-0
100
AcDbDimension
  2
_D_9
 10
476.7860353491
 20
235.0359912857
 30
0.0
 11
472.1832040682
 21
239.6388225666
 31
0.0
 70
   160
  1
<>
 71
     2
 42
-1.0
  3
SLDDIMSTYLE1
100
AcDbAlignedDimension
 13
458.3447577013
 23
238.7154608087
 33
0.0
 14
469.4051312867
 24
227.6550872233
 34
0.0
 50
-45.0
100
AcDbRotatedDimension
  0
DIMENSION
  5
20A
330
1F
100
AcDbEntity
  8
SLD-0
100
AcDbDimension
  2
_D_10
 10
293.3447577013
 20
94.6391838937
 30
0.0
 11
307.1368938737
 21
94.6391838937
 31
0.0
 70
   160
  1
<>
 71
     2
 42
-1.0
  3
SLDDIMSTYLE1
100
AcDbAlignedDimension
 13
312.2310370101
 23
136.7008797061
 33
0.0
 14
293.3447577013
 24
120.9963795635
 34
0.0
100
AcDbRotatedDimension
  0
DIMENSION
  5
216
330
1F
100
AcDbEntity
  8
SLD-0
100
AcDbDimension
  2
_D_11
 10
140.7479986093
 20
229.1550872233
 30
0.0
 11
140.7479986093
 21
227.1965929204
 31
0.0
 70
   160
  1
%%c<>
 71
     2
 42
-1.0
  3
SLDDIMSTYLE4
100
AcDbAlignedDimension
 13
128.3447577013
 23
226.1550872233
 33
0.0
 14
128.3447577013
 24
229.1550872233
 34
0.0
 50
90.0
100
AcDbRotatedDimension
  0
MTEXT
  5
224
330
1F
100
AcDbEntity
  8
0
  6
Continuous
 62
     7
370
     0
100
AcDbMText
 10
17.3396881428
 20
37.5106292489
 30
0.0
 40
3.96875
 41
0.0
 71
     2
 72
     1
  1
A
  7
SLDTEXTSTYLE0
 73
     1
 44
1.0
  0
MTEXT
  5
225
330
1F
100
AcDbEntity
  8
0
  6
Continuous
 62
     7
370
     0
100
AcDbMText
 10
586.3396881428
 20
37.5106292489
 30
0.0
 40
3.96875
 41
0.0
 71
     2
 72
     1
  1
A
  7
SLDTEXTSTYLE0
 73
     1
 44
1.0
  0
MTEXT
  5
226
330
1F
100
AcDbEntity
  8
0
  6
Continuous
 62
     7
370
     0
100
AcDbMText
 10
17.4706018241
 20
87.4239741362
 30
0.0
 40
3.96875
 41
0.0
 71
     2
 72
     1
  1
B
  7
SLDTEXTSTYLE0
 73
     1
 44
1.0
  0
MTEXT
  5
227
330
1F
100
AcDbEntity
  8
0
  6
Continuous
 62
     7
370
     0
100
AcDbMText
 10
586.4706018241
 20
87.4239741362
 30
0.0
 40
3.96875
 41
0.0
 71
     2
 72
     1
  1
B
  7
SLDTEXTSTYLE0
 73
     1
 44
1.0
  0
MTEXT
  5
228
330
1F
100
AcDbEntity
  8
0
  6
Continuous
 62
     7
370
     0
100
AcDbMText
 10
17.458658902
 20
137.5106292489
 30
0.0
 40
3.96875
 41
0.0
 71
     2
 72
     1
  1
C
  7
SLDTEXTSTYLE0
 73
     1
 44
1.0
  0
MTEXT
  5
229
330
1F
100
AcDbEntity
  8
0
  6
Continuous
 62
     7
370
     0
100
AcDbMText
 10
586.458658902
 20
137.5106292489
 30
0.0
 40
3.96875
 41
0.0
 71
     2
 72
     1
  1
C
  7
SLDTEXTSTYLE0
 73
     1
 44
1.0
  0
MTEXT
  5
22A
330
1F
100
AcDbEntity
  8
0
  6
Continuous
 62
     7
370
     0
100
AcDbMText
 10
17.4526872821
 20
187.4239741362
 30
0.0
 40
3.96875
 41
0.0
 71
     2
 72
     1
  1
D
  7
SLDTEXTSTYLE0
 73
     1
 44
1.0
  0
MTEXT
  5
22B
330
1F
100
AcDbEntity
  8
0
  6
Continuous
 62
     7
370
     0
100
AcDbMText
 10
586.4526872821
 20
187.4239741362
 30
0.0
 40
3.96875
 41
0.0
 71
     2
 72
     1
  1
D
  7
SLDTEXTSTYLE0
 73
     1
 44
1.0
  0
MTEXT
  5
22C
330
1F
100
AcDbEntity
  8
0
  6
Continuous
 62
     7
370
     0
100
AcDbMText
 10
17.5078089051
 20
237.5106292489
 30
0.0
 40
3.96875
 41
0.0
 71
     2
 72
     1
  1
E
  7
SLDTEXTSTYLE0
 73
     1
 44
1.0
  0
MTEXT
  5
22D
330
1F
100
AcDbEntity
  8
0
  6
Continuous
 62
     7
370
     0
100
AcDbMText
 10
586.5078089051
 20
237.5106292489
 30
0.0
 40
3.96875
 41
0.0
 71
     2
 72
     1
  1
E
  7
SLDTEXTSTYLE0
 73
     1
 44
1.0
  0
MTEXT
  5
22E
330
1F
100
AcDbEntity
  8
0
  6
Continuous
 62
     7
370
     0
100
AcDbMText
 10
17.4577402091
 20
287.4239741362
 30
0.0
 40
3.96875
 41
0.0
 71
     2
 72
     1
  1
F
  7
SLDTEXTSTYLE0
 73
     1
 44
1.0
  0
MTEXT
  5
22F
330
1F
100
AcDbEntity
  8
0
  6
Continuous
 62
     7
370
     0
100
AcDbMText
 10
586.4577402091
 20
287.4239741362
 30
0.0
 40
3.96875
 41
0.0
 71
     2
 72
     1
  1
F
  7
SLDTEXTSTYLE0
 73
     1
 44
1.0
  0
MTEXT
  5
230
330
1F
100
AcDbEntity
  8
0
  6
Continuous
 62
     7
370
     0
100
AcDbMText
 10
17.4866788853
 20
337.5106292489
 30
0.0
 40
3.96875
 41
0.0
 71
     2
 72
     1
  1
G
  7
SLDTEXTSTYLE0
 73
     1
 44
1.0
  0
MTEXT
  5
231
330
1F
100
AcDbEntity
  8
0
  6
Continuous
 62
     7
370
     0
100
AcDbMText
 10
586.4866788853
 20
337.5106292489
 30
0.0
 40
3.96875
 41
0.0
 71
     2
 72
     1
  1
G
  7
SLDTEXTSTYLE0
 73
     1
 44
1.0
  0
MTEXT
  5
232
330
1F
100
AcDbEntity
  8
0
  6
Continuous
 62
     7
370
     0
100
AcDbMText
 10
17.4903537836
 20
387.4239741362
 30
0.0
 40
3.96875
 41
0.0
 71
     2
 72
     1
  1
H
  7
SLDTEXTSTYLE0
 73
     1
 44
1.0
  0
MTEXT
  5
233
330
1F
100
AcDbEntity
  8
0
  6
Continuous
 62
     7
370
     0
100
AcDbMText
 10
586.4903537836
 20
387.4239741362
 30
0.0
 40
3.96875
 41
0.0
 71
     2
 72
     1
  1
H
  7
SLDTEXTSTYLE0
 73
     1
 44
1.0
  0
MTEXT
  5
234
330
1F
100
AcDbEntity
  8
0
  6
Continuous
 62
     7
370
     0
100
AcDbMText
 10
35.9200738929
 20
9.9239741362
 30
0.0
 40
3.96875
 41
0.0
 71
     2
 72
     1
  1
12
  7
SLDTEXTSTYLE0
 73
     1
 44
1.0
  0
MTEXT
  5
235
330
1F
100
AcDbEntity
  8
0
  6
Continuous
 62
     7
370
     0
100
AcDbMText
 10
35.9200738929
 20
415.0106292489
 30
0.0
 40
3.96875
 41
0.0
 71
     2
 72
     1
  1
12
  7
SLDTEXTSTYLE0
 73
     1
 44
1.0
  0
MTEXT
  5
236
330
1F
100
AcDbEntity
  8
0
  6
Continuous
 62
     7
370
     0
100
AcDbMText
 10
76.9200738929
 20
9.9239741362
 30
0.0
 40
3.96875
 41
0.0
 71
     2
 72
     1
  1
11
  7
SLDTEXTSTYLE0
 73
     1
 44
1.0
  0
MTEXT
  5
237
330
1F
100
AcDbEntity
  8
0
  6
Continuous
 62
     7
370
     0
100
AcDbMText
 10
76.9200738929
 20
415.0106292489
 30
0.0
 40
3.96875
 41
0.0
 71
     2
 72
     1
  1
11
  7
SLDTEXTSTYLE0
 73
     1
 44
1.0
  0
MTEXT
  5
238
330
1F
100
AcDbEntity
  8
0
  6
Continuous
 62
     7
370
     0
100
AcDbMText
 10
126.9200738929
 20
9.9239741362
 30
0.0
 40
3.96875
 41
0.0
 71
     2
 72
     1
  1
10
  7
SLDTEXTSTYLE0
 73
     1
 44
1.0
  0
MTEXT
  5
239
330
1F
100
AcDbEntity
  8
0
  6
Continuous
 62
     7
370
     0
100
AcDbMText
 10
126.9200738929
 20
415.0106292489
 30
0.0
 40
3.96875
 41
0.0
 71
     2
 72
     1
  1
10
  7
SLDTEXTSTYLE0
 73
     1
 44
1.0
  0
MTEXT
  5
23A
330
1F
100
AcDbEntity
  8
0
  6
Continuous
 62
     7
370
     0
100
AcDbMText
 10
176.9600369465
 20
9.9239741362
 30
0.0
 40
3.96875
 41
0.0
 71
     2
 72
     1
  1
9
  7
SLDTEXTSTYLE0
 73
     1
 44
1.0
  0
MTEXT
  5
23B
330
1F
100
AcDbEntity
  8
0
  6
Continuous
 62
     7
370
     0
100
AcDbMText
 10
176.9600369465
 20
415.0106292489
 30
0.0
 40
3.96875
 41
0.0
 71
     2
 72
     1
  1
9
  7
SLDTEXTSTYLE0
 73
     1
 44
1.0
  0
MTEXT
  5
23C
330
1F
100
AcDbEntity
  8
0
  6
Continuous
 62
     7
370
     0
100
AcDbMText
 10
226.9600369465
 20
9.9239741362
 30
0.0
 40
3.96875
 41
0.0
 71
     2
 72
     1
  1
8
  7
SLDTEXTSTYLE0
 73
     1
 44
1.0
  0
MTEXT
  5
23D
330
1F
100
AcDbEntity
  8
0
  6
Continuous
 62
     7
370
     0
100
AcDbMText
 10
226.9600369465
 20
415.0106292489
 30
0.0
 40
3.96875
 41
0.0
 71
     2
 72
     1
  1
8
  7
SLDTEXTSTYLE0
 73
     1
 44
1.0
  0
MTEXT
  5
23E
330
1F
100
AcDbEntity
  8
0
  6
Continuous
 62
     7
370
     0
100
AcDbMText
 10
276.9600369465
 20
9.9239741362
 30
0.0
 40
3.96875
 41
0.0
 71
     2
 72
     1
  1
7
  7
SLDTEXTSTYLE0
 73
     1
 44
1.0
  0
MTEXT
  5
23F
330
1F
100
AcDbEntity
  8
0
  6
Continuous
 62
     7
370
     0
100
AcDbMText
 10
276.9600369465
 20
415.0106292489
 30
0.0
 40
3.96875
 41
0.0
 71
     2
 72
     1
  1
7
  7
SLDTEXTSTYLE0
 73
     1
 44
1.0
  0
MTEXT
  5
240
330
1F
100
AcDbEntity
  8
0
  6
Continuous
 62
     7
370
     0
100
AcDbMText
 10
326.9600369465
 20
9.9239741362
 30
0.0
 40
3.96875
 41
0.0
 71
     2
 72
     1
  1
6
  7
SLDTEXTSTYLE0
 73
     1
 44
1.0
  0
MTEXT
  5
241
330
1F
100
AcDbEntity
  8
0
  6
Continuous
 62
     7
370
     0
100
AcDbMText
 10
326.9600369465
 20
415.0106292489
 30
0.0
 40
3.96875
 41
0.0
 71
     2
 72
     1
  1
6
  7
SLDTEXTSTYLE0
 73
     1
 44
1.0
  0
MTEXT
  5
242
330
1F
100
AcDbEntity
  8
0
  6
Continuous
 62
     7
370
     0
100
AcDbMText
 10
376.9600369465
 20
9.9239741362
 30
0.0
 40
3.96875
 41
0.0
 71
     2
 72
     1
  1
5
  7
SLDTEXTSTYLE0
 73
     1
 44
1.0
  0
MTEXT
  5
243
330
1F
100
AcDbEntity
  8
0
  6
Continuous
 62
     7
370
     0
100
AcDbMText
 10
376.9600369465
 20
415.0106292489
 30
0.0
 40
3.96875
 41
0.0
 71
     2
 72
     1
  1
5
  7
SLDTEXTSTYLE0
 73
     1
 44
1.0
  0
MTEXT
  5
244
330
1F
100
AcDbEntity
  8
0
  6
Continuous
 62
     7
370
     0
100
AcDbMText
 10
426.9600369465
 20
9.9239741362
 30
0.0
 40
3.96875
 41
0.0
 71
     2
 72
     1
  1
4
  7
SLDTEXTSTYLE0
 73
     1
 44
1.0
  0
MTEXT
  5
245
330
1F
100
AcDbEntity
  8
0
  6
Continuous
 62
     7
370
     0
100
AcDbMText
 10
426.9600369465
 20
415.0106292489
 30
0.0
 40
3.96875
 41
0.0
 71
     2
 72
     1
  1
4
  7
SLDTEXTSTYLE0
 73
     1
 44
1.0
  0
MTEXT
  5
246
330
1F
100
AcDbEntity
  8
0
  6
Continuous
 62
     7
370
     0
100
AcDbMText
 10
476.9600369465
 20
9.9239741362
 30
0.0
 40
3.96875
 41
0.0
 71
     2
 72
     1
  1
3
  7
SLDTEXTSTYLE0
 73
     1
 44
1.0
  0
MTEXT
  5
247
330
1F
100
AcDbEntity
  8
0
  6
Continuous
 62
     7
370
     0
100
AcDbMText
 10
476.9600369465
 20
415.0106292489
 30
0.0
 40
3.96875
 41
0.0
 71
     2
 72
     1
  1
3
  7
SLDTEXTSTYLE0
 73
     1
 44
1.0
  0
MTEXT
  5
248
330
1F
100
AcDbEntity
  8
0
  6
Continuous
 62
     7
370
     0
100
AcDbMText
 10
526.9600369465
 20
9.9239741362
 30
0.0
 40
3.96875
 41
0.0
 71
     2
 72
     1
  1
2
  7
SLDTEXTSTYLE0
 73
     1
 44
1.0
  0
MTEXT
  5
249
330
1F
100
AcDbEntity
  8
0
  6
Continuous
 62
     7
370
     0
100
AcDbMText
 10
526.9600369465
 20
415.0106292489
 30
0.0
 40
3.96875
 41
0.0
 71
     2
 72
     1
  1
2
  7
SLDTEXTSTYLE0
 73
     1
 44
1.0
  0
MTEXT
  5
24A
330
1F
100
AcDbEntity
  8
0
  6
Continuous
 62
     7
370
     0
100
AcDbMText
 10
567.9600369465
 20
9.9239741362
 30
0.0
 40
3.96875
 41
0.0
 71
     2
 72
     1
  1
1
  7
SLDTEXTSTYLE0
 73
     1
 44
1.0
  0
MTEXT
  5
24B
330
1F
100
AcDbEntity
  8
0
  6
Continuous
 62
     7
370
     0
100
AcDbMText
 10
567.9600369465
 20
415.0106292489
 30
0.0
 40
3.96875
 41
0.0
 71
     2
 72
     1
  1
1
  7
SLDTEXTSTYLE0
 73
     1
 44
1.0
  0
MTEXT
  5
24C
330
1F
100
AcDbEntity
  8
0
  6
Continuous
 62
     7
370
     0
100
AcDbMText
 10
404.5900962339
 20
42.4297148859
 30
0.0
 40
1.5
 41
0.0
 71
     1
 72
     1
  1
DIBUJ.
  7
SLDTEXTSTYLE0
 73
     1
 44
1.0
  0
MTEXT
  5
24D
330
1F
100
AcDbEntity
  8
0
  6
Continuous
 62
     7
370
     0
100
AcDbMText
 10
404.6988202282
 20
38.15440716
 30
0.0
 40
1.5
 41
0.0
 71
     1
 72
     1
  1
VERIF.
  7
SLDTEXTSTYLE0
 73
     1
 44
1.0
  0
MTEXT
  5
24E
330
1F
100
AcDbEntity
  8
0
  6
Continuous
 62
     7
370
     0
100
AcDbMText
 10
404.4017224083
 20
34.0642960031
 30
0.0
 40
1.5
 41
0.0
 71
     1
 72
     1
  1
APROB.
  7
SLDTEXTSTYLE0
 73
     1
 44
1.0
  0
MTEXT
  5
24F
330
1F
100
AcDbEntity
  8
0
  6
Continuous
 62
     7
370
     0
100
AcDbMText
 10
404.5425001407
 20
29.7337046506
 30
0.0
 40
1.5
 41
0.0
 71
     1
 72
     1
  1
FABR.
  7
SLDTEXTSTYLE0
 73
     1
 44
1.0
  0
MTEXT
  5
250
330
1F
100
AcDbEntity
  8
0
  6
Continuous
 62
     7
370
     0
100
AcDbMText
 10
404.6690428622
 20
25.3496492073
 30
0.0
 40
1.5
 41
0.0
 71
     1
 72
     1
  1
CALID.
  7
SLDTEXTSTYLE0
 73
     1
 44
1.0
  0
INSERT
  5
25A
330
1F
100
AcDbEntity
  8
0
  6
Continuous
 62
     7
370
     0
100
AcDbBlockReference
  2
SW_NOTE_0
 10
405.8028337294
 20
61.9873698743
 30
0.0
  0
MTEXT
  5
25B
330
1F
100
AcDbEntity
  8
0
  6
Continuous
 62
     7
370
     0
100
AcDbMText
 10
438.3712921668
 20
63.9192719951
 30
0.0
 40
1.5
 41
0.0
 71
     1
 72
     1
  1
ACABADO:
  7
SLDTEXTSTYLE0
 73
     1
 44
1.0
  0
INSERT
  5
262
330
1F
100
AcDbEntity
  8
0
  6
Continuous
 62
     7
370
     0
100
AcDbBlockReference
  2
SW_NOTE_1
 10
485.3092156863
 20
62.069489643
 30
0.0
  0
MTEXT
  5
263
330
1F
100
AcDbEntity
  8
0
  6
Continuous
 62
     7
370
     0
100
AcDbMText
 10
418.3222392177
 20
46.5014826335
 30
0.0
 40
1.5
 41
0.0
 71
     1
 72
     1
  1
NOMBRE
  7
SLDTEXTSTYLE0
 73
     1
 44
1.0
  0
MTEXT
  5
264
330
1F
100
AcDbEntity
  8
0
  6
Continuous
 62
     7
370
     0
100
AcDbMText
 10
434.0335875632
 20
46.5617563795
 30
0.0
 40
1.5
 41
0.0
 71
     1
 72
     1
  1
FIRMA
  7
SLDTEXTSTYLE0
 73
     1
 44
1.0
  0
MTEXT
  5
265
330
1F
100
AcDbEntity
  8
0
  6
Continuous
 62
     7
370
     0
100
AcDbMText
 10
451.2147019657
 20
46.5761792212
 30
0.0
 40
1.5
 41
0.0
 71
     1
 72
     1
  1
FECHA
  7
SLDTEXTSTYLE0
 73
     1
 44
1.0
  0
MTEXT
  5
266
330
1F
100
AcDbEntity
  8
0
  6
Continuous
 62
     7
370
     0
100
AcDbMText
 10
459.6458623088
 20
25.9860562892
 30
0.0
 40
1.5
 41
0.0
 71
     1
 72
     1
  1
MATERIAL:
  7
SLDTEXTSTYLE0
 73
     1
 44
1.0
  0
MTEXT
  5
267
330
1F
100
AcDbEntity
  8
0
  6
Continuous
 62
     7
370
     0
100
AcDbMText
 10
516.6146405229
 20
62.5329935751
 30
0.0
 40
1.5
 41
0.0
 71
     1
 72
     1
  1
NO CAMBIE LA ESCALA
  7
SLDTEXTSTYLE0
 73
     1
 44
1.0
  0
MTEXT
  5
268
330
1F
100
AcDbEntity
  8
0
  6
Continuous
 62
     7
370
     0
100
AcDbMText
 10
557.3275816993
 20
62.3349086805
 30
0.0
 40
1.5
 41
0.0
 71
     1
 72
     1
  1
REVISIN
  7
SLDTEXTSTYLE0
 73
     1
 44
1.0
  0
MTEXT
  5
269
330
1F
100
AcDbEntity
  8
0
  6
Continuous
 62
     7
370
     0
100
AcDbMText
 10
503.8570879467
 20
46.5761792212
 30
0.0
 40
1.5
 41
0.0
 71
     1
 72
     1
  1
TTULO:
  7
SLDTEXTSTYLE0
 73
     1
 44
1.0
  0
MTEXT
  5
26A
330
1F
100
AcDbEntity
  8
0
  6
Continuous
 62
     7
370
     0
100
AcDbMText
 10
504.0739661175
 20
25.9860562892
 30
0.0
 40
1.5
 41
0.0
 71
     1
 72
     1
  1
N. DE DIBUJO
  7
SLDTEXTSTYLE0
 73
     1
 44
1.0
  0
MTEXT
  5
26B
330
1F
100
AcDbEntity
  8
0
  6
Continuous
 62
     7
370
     0
100
AcDbMText
 10
504.0739661175
 20
12.9000872745
 30
0.0
 40
1.5
 41
0.0
 71
     1
 72
     1
  1
ESCALA:1:1
  7
SLDTEXTSTYLE0
 73
     1
 44
1.0
  0
MTEXT
  5
26D
330
1F
100
AcDbEntity
  8
0
  6
Continuous
 62
     7
370
     0
100
AcDbMText
 10
548.4782944278
 20
12.9000872745
 30
0.0
 40
1.5
 41
0.0
 71
     1
 72
     1
  1
HOJA 1 DE 1
  7
SLDTEXTSTYLE1
 73
     1
 44
1.0
  0
MTEXT
  5
26E
330
1F
100
AcDbEntity
  8
0
  6
Continuous
 62
     7
370
     0
100
AcDbMText
 10
574.8711564346
 20
24.406388569
 30
0.0
 40
2.9104166667
 41
0.0
 71
     1
 72
     1
  1
A2
  7
SLDTEXTSTYLE0
 73
     1
 44
1.0
  0
MTEXT
  5
26F
330
1F
100
AcDbEntity
  8
0
  6
Continuous
 62
     7
370
     0
100
AcDbMText
 10
459.6178111281
 20
12.9493119036
 30
0.0
 40
1.4986
 41
0.0
 71
     1
 72
     1
  1
PESO:
  7
SLDTEXTSTYLE0
 73
     1
 44
1.0
  0
MTEXT
  5
270
330
1F
100
AcDbEntity
  8
0
  6
Continuous
 62
     7
370
     0
100
AcDbMText
 10
538.8802264019
 20
23.6069109673
 30
0.0
 40
6.35
 41
0.0
 71
     2
 72
     1
  1
4 Dgitos TOP
  7
SLDTEXTSTYLE0
 73
     1
 44
1.0
  0
ENDSEC
  0
SECTION
  2
OBJECTS
  0
DICTIONARY
  5
C
330
0
100
AcDbDictionary
281
     1
  3
ACAD_GROUP
350
D
  3
ACAD_LAYOUT
350
1A
  3
ACAD_MLINESTYLE
350
17
  3
ACAD_PLOTSETTINGS
350
19
  3
ACAD_PLOTSTYLENAME
350
E
  3
ACAD_SCALELIST
350
47
  0
DICTIONARY
  5
D
102
{ACAD_REACTORS
330
C
102
}
330
C
100
AcDbDictionary
281
     1
  0
DICTIONARY
  5
1A
102
{ACAD_REACTORS
330
C
102
}
330
C
100
AcDbDictionary
281
     1
  3
Layout1
350
1E
  3
Layout2
350
26
  3
Model
350
22
  0
DICTIONARY
  5
17
102
{ACAD_REACTORS
330
C
102
}
330
C
100
AcDbDictionary
281
     1
  3
Standard
350
18
  0
DICTIONARY
  5
19
102
{ACAD_REACTORS
330
C
102
}
330
C
100
AcDbDictionary
281
     1
  0
ACDBDICTIONARYWDFLT
  5
E
102
{ACAD_REACTORS
330
C
102
}
330
C
100
AcDbDictionary
281
     1
  3
Normal
350
F
100
AcDbDictionaryWithDefault
340
F
  0
DICTIONARY
  5
47
102
{ACAD_REACTORS
330
C
102
}
330
C
100
AcDbDictionary
281
     1
  3
A0
350
48
  3
A1
350
49
  3
A2
350
4A
  3
A3
350
4B
  3
A4
350
4C
  3
A5
350
4D
  3
A6
350
4E
  3
A7
350
4F
  3
A8
350
50
  3
A9
350
51
  3
B0
350
52
  3
B1
350
53
  3
B2
350
54
  3
B3
350
55
  3
B4
350
56
  3
B5
350
57
  3
B6
350
58
  3
B7
350
59
  3
B8
350
5A
  3
B9
350
5B
  3
C0
350
5C
  3
C1
350
5D
  3
C2
350
5E
  3
C3
350
5F
  3
C4
350
60
  3
C5
350
61
  3
C6
350
62
  3
C7
350
63
  3
C8
350
64
  3
C9
350
65
  3
D0
350
66
  3
D1
350
67
  3
D2
350
68
  0
LAYOUT
  5
1E
102
{ACAD_REACTORS
330
1A
102
}
330
1A
100
AcDbPlotSettings
  1

  2
none_device
  4

  6

 40
0.0
 41
0.0
 42
0.0
 43
0.0
 44
0.0
 45
0.0
 46
0.0
 47
0.0
 48
0.0
 49
0.0
140
0.0
141
0.0
142
1.0
143
1.0
 70
   688
 72
     1
 73
     0
 74
     5
  7

 75
    16
147
1.0
148
0.0
149
0.0
100
AcDbLayout
  1
Layout1
 70
     1
 71
     1
 10
0.0
 20
0.0
 11
420.0
 21
297.0
 12
0.0
 22
0.0
 32
0.0
 14
1.0000000000E+20
 24
1.0000000000E+20
 34
1.0000000000E+20
 15
-1.0000000000E+20
 25
-1.0000000000E+20
 35
-1.0000000000E+20
146
0.0
 13
0.0
 23
0.0
 33
0.0
 16
1.0
 26
0.0
 36
0.0
 17
0.0
 27
1.0
 37
0.0
 76
     0
330
1B
  0
LAYOUT
  5
26
102
{ACAD_REACTORS
330
1A
102
}
330
1A
100
AcDbPlotSettings
  1

  2
none_device
  4

  6

 40
0.0
 41
0.0
 42
0.0
 43
0.0
 44
0.0
 45
0.0
 46
0.0
 47
0.0
 48
0.0
 49
0.0
140
0.0
141
0.0
142
1.0
143
1.0
 70
   688
 72
     1
 73
     0
 74
     5
  7

 75
    16
147
1.0
148
0.0
149
0.0
100
AcDbLayout
  1
Layout2
 70
     1
 71
     2
 10
0.0
 20
0.0
 11
0.0
 21
0.0
 12
0.0
 22
0.0
 32
0.0
 14
0.0
 24
0.0
 34
0.0
 15
0.0
 25
0.0
 35
0.0
146
0.0
 13
0.0
 23
0.0
 33
0.0
 16
1.0
 26
0.0
 36
0.0
 17
0.0
 27
1.0
 37
0.0
 76
     0
330
23
  0
LAYOUT
  5
22
102
{ACAD_REACTORS
330
1A
102
}
330
1A
100
AcDbPlotSettings
  1

  2
none_device
  4
Letter_(8.50_x_11.00_Inches)
  6

 40
6.35
 41
6.35
 42
6.35000508
 43
6.35000508
 44
215.9
 45
279.4
 46
0.0
 47
0.0
 48
0.0
 49
0.0
140
0.0
141
0.0
142
1.0
143
1.0
 70
  1712
 72
     1
 73
     0
 74
     0
  7

 75
     0
147
1.0
148
0.0
149
0.0
100
AcDbLayout
  1
Model
 70
     1
 71
     0
 10
0.0
 20
0.0
 11
594.0
 21
420.0
 12
0.0
 22
0.0
 32
0.0
 14
0.0
 24
0.0
 34
0.0
 15
594.0
 25
420.0
 35
0.0
146
0.0
 13
0.0
 23
0.0
 33
0.0
 16
1.0
 26
0.0
 36
0.0
 17
0.0
 27
1.0
 37
0.0
 76
     0
330
1F
331
29
  0
MLINESTYLE
  5
18
102
{ACAD_REACTORS
330
17
102
}
330
17
100
AcDbMlineStyle
  2
Standard
 70
     0
  3

 62
   256
 51
90.0
 52
90.0
 71
     2
 49
0.5
 62
   256
  6
BYLAYER
 49
-0.5
 62
   256
  6
BYLAYER
  0
ACDBPLACEHOLDER
  5
F
102
{ACAD_REACTORS
330
E
102
}
330
E
  0
SCALE
  5
48
102
{ACAD_REACTORS
330
47
102
}
330
47
100
AcDbScale
 70
     0
300
1:1
140
1.0
141
1.0
290
     1
  0
SCALE
  5
49
102
{ACAD_REACTORS
330
47
102
}
330
47
100
AcDbScale
 70
     0
300
1:2
140
1.0
141
2.0
290
     0
  0
SCALE
  5
4A
102
{ACAD_REACTORS
330
47
102
}
330
47
100
AcDbScale
 70
     0
300
1:4
140
1.0
141
4.0
290
     0
  0
SCALE
  5
4B
102
{ACAD_REACTORS
330
47
102
}
330
47
100
AcDbScale
 70
     0
300
1:5
140
1.0
141
5.0
290
     0
  0
SCALE
  5
4C
102
{ACAD_REACTORS
330
47
102
}
330
47
100
AcDbScale
 70
     0
300
1:8
140
1.0
141
8.0
290
     0
  0
SCALE
  5
4D
102
{ACAD_REACTORS
330
47
102
}
330
47
100
AcDbScale
 70
     0
300
1:10
140
1.0
141
10.0
290
     0
  0
SCALE
  5
4E
102
{ACAD_REACTORS
330
47
102
}
330
47
100
AcDbScale
 70
     0
300
1:16
140
1.0
141
16.0
290
     0
  0
SCALE
  5
4F
102
{ACAD_REACTORS
330
47
102
}
330
47
100
AcDbScale
 70
     0
300
1:20
140
1.0
141
20.0
290
     0
  0
SCALE
  5
50
102
{ACAD_REACTORS
330
47
102
}
330
47
100
AcDbScale
 70
     0
300
1:30
140
1.0
141
30.0
290
     0
  0
SCALE
  5
51
102
{ACAD_REACTORS
330
47
102
}
330
47
100
AcDbScale
 70
     0
300
1:40
140
1.0
141
40.0
290
     0
  0
SCALE
  5
52
102
{ACAD_REACTORS
330
47
102
}
330
47
100
AcDbScale
 70
     0
300
1:50
140
1.0
141
50.0
290
     0
  0
SCALE
  5
53
102
{ACAD_REACTORS
330
47
102
}
330
47
100
AcDbScale
 70
     0
300
1:100
140
1.0
141
100.0
290
     0
  0
SCALE
  5
54
102
{ACAD_REACTORS
330
47
102
}
330
47
100
AcDbScale
 70
     0
300
2:1
140
2.0
141
1.0
290
     0
  0
SCALE
  5
55
102
{ACAD_REACTORS
330
47
102
}
330
47
100
AcDbScale
 70
     0
300
4:1
140
4.0
141
1.0
290
     0
  0
SCALE
  5
56
102
{ACAD_REACTORS
330
47
102
}
330
47
100
AcDbScale
 70
     0
300
8:1
140
8.0
141
1.0
290
     0
  0
SCALE
  5
57
102
{ACAD_REACTORS
330
47
102
}
330
47
100
AcDbScale
 70
     0
300
10:1
140
10.0
141
1.0
290
     0
  0
SCALE
  5
58
102
{ACAD_REACTORS
330
47
102
}
330
47
100
AcDbScale
 70
     0
300
100:1
140
100.0
141
1.0
290
     0
  0
SCALE
  5
59
102
{ACAD_REACTORS
330
47
102
}
330
47
100
AcDbScale
 70
     0
300
1/128" = 1'-0"
140
0.0078125
141
12.0
290
     0
  0
SCALE
  5
5A
102
{ACAD_REACTORS
330
47
102
}
330
47
100
AcDbScale
 70
     0
300
1/64" = 1'-0"
140
0.015625
141
12.0
290
     0
  0
SCALE
  5
5B
102
{ACAD_REACTORS
330
47
102
}
330
47
100
AcDbScale
 70
     0
300
1/32" = 1'-0"
140
0.03125
141
12.0
290
     0
  0
SCALE
  5
5C
102
{ACAD_REACTORS
330
47
102
}
330
47
100
AcDbScale
 70
     0
300
1/16" = 1'-0"
140
0.0625
141
12.0
290
     0
  0
SCALE
  5
5D
102
{ACAD_REACTORS
330
47
102
}
330
47
100
AcDbScale
 70
     0
300
3/32" = 1'-0"
140
0.09375
141
12.0
290
     0
  0
SCALE
  5
5E
102
{ACAD_REACTORS
330
47
102
}
330
47
100
AcDbScale
 70
     0
300
1/8" = 1'-0"
140
0.125
141
12.0
290
     0
  0
SCALE
  5
5F
102
{ACAD_REACTORS
330
47
102
}
330
47
100
AcDbScale
 70
     0
300
3/16" = 1'-0"
140
0.1875
141
12.0
290
     0
  0
SCALE
  5
60
102
{ACAD_REACTORS
330
47
102
}
330
47
100
AcDbScale
 70
     0
300
1/4" = 1'-0"
140
0.25
141
12.0
290
     0
  0
SCALE
  5
61
102
{ACAD_REACTORS
330
47
102
}
330
47
100
AcDbScale
 70
     0
300
3/8" = 1'-0"
140
0.375
141
12.0
290
     0
  0
SCALE
  5
62
102
{ACAD_REACTORS
330
47
102
}
330
47
100
AcDbScale
 70
     0
300
1/2" = 1'-0"
140
0.5
141
12.0
290
     0
  0
SCALE
  5
63
102
{ACAD_REACTORS
330
47
102
}
330
47
100
AcDbScale
 70
     0
300
3/4" = 1'-0"
140
0.75
141
12.0
290
     0
  0
SCALE
  5
64
102
{ACAD_REACTORS
330
47
102
}
330
47
100
AcDbScale
 70
     0
300
1" = 1'-0"
140
1.0
141
12.0
290
     0
  0
SCALE
  5
65
102
{ACAD_REACTORS
330
47
102
}
330
47
100
AcDbScale
 70
     0
300
1-1/2" = 1'-0"
140
1.5
141
12.0
290
     0
  0
SCALE
  5
66
102
{ACAD_REACTORS
330
47
102
}
330
47
100
AcDbScale
 70
     0
300
3" = 1'-0"
140
3.0
141
12.0
290
     0
  0
SCALE
  5
67
102
{ACAD_REACTORS
330
47
102
}
330
47
100
AcDbScale
 70
     0
300
6" = 1'-0"
140
6.0
141
12.0
290
     0
  0
SCALE
  5
68
102
{ACAD_REACTORS
330
47
102
}
330
47
100
AcDbScale
 70
     0
300
1'-0" = 1'-0"
140
12.0
141
12.0
290
     0
  0
ENDSEC
  0
EOF
