  0
SECTION
  2
HEADER
  9
$ACADVER
  1
AC1015
  9
$ACADMAINTVER
 70
     6
  9
$DWGCODEPAGE
  3
ANSI_1252
  9
$INSBASE
 10
0.0
 20
0.0
 30
0.0
  9
$EXTMIN
 10
-178.873321645
 20
-66.8057458415
 30
0.0
  9
$EXTMAX
 10
173.2474255259
 20
63.1942541585
 30
0.0
  9
$LIMMIN
 10
0.0
 20
0.0
  9
$LIMMAX
 10
420.0
 20
297.0
  9
$ORTHOMODE
 70
     0
  9
$REGENMODE
 70
     1
  9
$FILLMODE
 70
     1
  9
$QTEXTMODE
 70
     0
  9
$MIRRTEXT
 70
     1
  9
$LTSCALE
 40
1.0
  9
$ATTMODE
 70
     1
  9
$TEXTSIZE
 40
3.5
  9
$TRACEWID
 40
1.0
  9
$TEXTSTYLE
  7
Standard
  9
$CLAYER
  8
0
  9
$CELTYPE
  6
ByLayer
  9
$CECOLOR
 62
   256
  9
$CELTSCALE
 40
1.0
  9
$DISPSILH
 70
     0
  9
$DIMSCALE
 40
1.0
  9
$DIMASZ
 40
3.302
  9
$DIMEXO
 40
1.0
  9
$DIMDLI
 40
3.75
  9
$DIMRND
 40
0.0
  9
$DIMDLE
 40
0.0
  9
$DIMEXE
 40
1.0
  9
$DIMTP
 40
0.0
  9
$DIMTM
 40
0.0
  9
$DIMTXT
 40
3.5
  9
$DIMCEN
 40
2.5
  9
$DIMTSZ
 40
0.0
  9
$DIMTOL
 70
     0
  9
$DIMLIM
 70
     0
  9
$DIMTIH
 70
     1
  9
$DIMTOH
 70
     1
  9
$DIMSE1
 70
     0
  9
$DIMSE2
 70
     0
  9
$DIMTAD
 70
     1
  9
$DIMZIN
 70
     0
  9
$DIMBLK
  1

  9
$DIMASO
 70
     1
  9
$DIMSHO
 70
     1
  9
$DIMPOST
  1

  9
$DIMAPOST
  1

  9
$DIMALT
 70
     0
  9
$DIMALTD
 70
     3
  9
$DIMALTF
 40
0.0393700787
  9
$DIMLFAC
 40
1.0
  9
$DIMTOFL
 70
     1
  9
$DIMTVP
 40
0.0
  9
$DIMTIX
 70
     0
  9
$DIMSOXD
 70
     0
  9
$DIMSAH
 70
     0
  9
$DIMBLK1
  1

  9
$DIMBLK2
  1

  9
$DIMSTYLE
  2
ISO-25
  9
$DIMCLRD
 70
     0
  9
$DIMCLRE
 70
     0
  9
$DIMCLRT
 70
     0
  9
$DIMTFAC
 40
1.0
  9
$DIMGAP
 40
1.524
  9
$DIMJUST
 70
     0
  9
$DIMSD1
 70
     0
  9
$DIMSD2
 70
     0
  9
$DIMTOLJ
 70
     0
  9
$DIMTZIN
 70
     0
  9
$DIMALTZ
 70
     0
  9
$DIMALTTZ
 70
     0
  9
$DIMUPT
 70
     0
  9
$DIMDEC
 70
     2
  9
$DIMTDEC
 70
     2
  9
$DIMALTU
 70
     2
  9
$DIMALTTD
 70
     3
  9
$DIMTXSTY
  7
Standard
  9
$DIMAUNIT
 70
     0
  9
$DIMADEC
 70
     2
  9
$DIMALTRND
 40
0.0
  9
$DIMAZIN
 70
     0
  9
$DIMDSEP
 70
    44
  9
$DIMATFIT
 70
     3
  9
$DIMFRAC
 70
     0
  9
$DIMLDRBLK
  1

  9
$DIMLUNIT
 70
     2
  9
$DIMLWD
 70
    -2
  9
$DIMLWE
 70
    -2
  9
$DIMTMOVE
 70
     0
  9
$LUNITS
 70
     2
  9
$LUPREC
 70
     2
  9
$SKETCHINC
 40
1.0
  9
$FILLETRAD
 40
10.0
  9
$AUNITS
 70
     0
  9
$AUPREC
 70
     2
  9
$MENU
  1
.
  9
$ELEVATION
 40
0.0
  9
$PELEVATION
 40
0.0
  9
$THICKNESS
 40
0.0
  9
$LIMCHECK
 70
     0
  9
$CHAMFERA
 40
0.0
  9
$CHAMFERB
 40
0.0
  9
$CHAMFERC
 40
0.0
  9
$CHAMFERD
 40
0.0
  9
$SKPOLY
 70
     0
  9
$TDCREATE
 40
2458453.696197234
  9
$TDUCREATE
 40
2458453.946197234
  9
$TDUPDATE
 40
2458453.696247685
  9
$TDUUPDATE
 40
2458453.946247685
  9
$TDINDWG
 40
0.0000000116
  9
$TDUSRTIMER
 40
0.0000000116
  9
$USRTIMER
 70
     1
  9
$ANGBASE
 50
0.0
  9
$ANGDIR
 70
     0
  9
$PDMODE
 70
     0
  9
$PDSIZE
 40
-1.0
  9
$PLINEWID
 40
0.0
  9
$SPLFRAME
 70
     0
  9
$SPLINETYPE
 70
     6
  9
$SPLINESEGS
 70
     8
  9
$HANDSEED
  5
142
  9
$SURFTAB1
 70
     6
  9
$SURFTAB2
 70
     6
  9
$SURFTYPE
 70
     6
  9
$SURFU
 70
     6
  9
$SURFV
 70
     6
  9
$UCSBASE
  2

  9
$UCSNAME
  2

  9
$UCSORG
 10
0.0
 20
0.0
 30
0.0
  9
$UCSXDIR
 10
1.0
 20
0.0
 30
0.0
  9
$UCSYDIR
 10
0.0
 20
1.0
 30
0.0
  9
$UCSORTHOREF
  2

  9
$UCSORTHOVIEW
 70
     0
  9
$UCSORGTOP
 10
0.0
 20
0.0
 30
0.0
  9
$UCSORGBOTTOM
 10
0.0
 20
0.0
 30
0.0
  9
$UCSORGLEFT
 10
0.0
 20
0.0
 30
0.0
  9
$UCSORGRIGHT
 10
0.0
 20
0.0
 30
0.0
  9
$UCSORGFRONT
 10
0.0
 20
0.0
 30
0.0
  9
$UCSORGBACK
 10
0.0
 20
0.0
 30
0.0
  9
$PUCSBASE
  2

  9
$PUCSNAME
  2

  9
$PUCSORG
 10
0.0
 20
0.0
 30
0.0
  9
$PUCSXDIR
 10
1.0
 20
0.0
 30
0.0
  9
$PUCSYDIR
 10
0.0
 20
1.0
 30
0.0
  9
$PUCSORTHOREF
  2

  9
$PUCSORTHOVIEW
 70
     0
  9
$PUCSORGTOP
 10
0.0
 20
0.0
 30
0.0
  9
$PUCSORGBOTTOM
 10
0.0
 20
0.0
 30
0.0
  9
$PUCSORGLEFT
 10
0.0
 20
0.0
 30
0.0
  9
$PUCSORGRIGHT
 10
0.0
 20
0.0
 30
0.0
  9
$PUCSORGFRONT
 10
0.0
 20
0.0
 30
0.0
  9
$PUCSORGBACK
 10
0.0
 20
0.0
 30
0.0
  9
$USERI1
 70
     0
  9
$USERI2
 70
     0
  9
$USERI3
 70
     0
  9
$USERI4
 70
     0
  9
$USERI5
 70
     0
  9
$USERR1
 40
0.0
  9
$USERR2
 40
0.0
  9
$USERR3
 40
0.0
  9
$USERR4
 40
0.0
  9
$USERR5
 40
0.0
  9
$WORLDVIEW
 70
     1
  9
$SHADEDGE
 70
     3
  9
$SHADEDIF
 70
    70
  9
$TILEMODE
 70
     1
  9
$MAXACTVP
 70
    64
  9
$PINSBASE
 10
0.0
 20
0.0
 30
0.0
  9
$PLIMCHECK
 70
     0
  9
$PEXTMIN
 10
1.0000000000E+20
 20
1.0000000000E+20
 30
1.0000000000E+20
  9
$PEXTMAX
 10
-1.0000000000E+20
 20
-1.0000000000E+20
 30
-1.0000000000E+20
  9
$PLIMMIN
 10
0.0
 20
0.0
  9
$PLIMMAX
 10
420.0
 20
297.0
  9
$UNITMODE
 70
     0
  9
$VISRETAIN
 70
     1
  9
$PLINEGEN
 70
     0
  9
$PSLTSCALE
 70
     1
  9
$TREEDEPTH
 70
  3020
  9
$CMLSTYLE
  2
Standard
  9
$CMLJUST
 70
     0
  9
$CMLSCALE
 40
20.0
  9
$PROXYGRAPHICS
 70
     1
  9
$MEASUREMENT
 70
     1
  9
$CELWEIGHT
370
    -1
  9
$ENDCAPS
280
     0
  9
$JOINSTYLE
280
     0
  9
$LWDISPLAY
290
     1
  9
$INSUNITS
 70
     4
  9
$HYPERLINKBASE
  1

  9
$STYLESHEET
  1

  9
$XEDIT
290
     1
  9
$CEPSNTYPE
380
     0
  9
$PSTYLEMODE
290
     1
  9
$FINGERPRINTGUID
  2
{4453C811-92C7-4518-8EC6-75EA11C0FFA3}
  9
$VERSIONGUID
  2
{FAEB1C32-E019-11D5-929B-00C0DF256EC4}
  9
$EXTNAMES
290
     1
  9
$PSVPSCALE
 40
0.0
  9
$OLESTARTUP
290
     0
  0
ENDSEC
  0
SECTION
  2
CLASSES
  0
CLASS
  1
ACDBDICTIONARYWDFLT
  2
AcDbDictionaryWithDefault
  3
ObjectDBX Classes
 90
        0
280
     0
281
     0
  0
CLASS
  1
VISUALSTYLE
  2
AcDbVisualStyle
  3
ObjectDBX Classes
 90
     4095
280
     0
281
     0
  0
CLASS
  1
MATERIAL
  2
AcDbMaterial
  3
ObjectDBX Classes
 90
     1153
280
     0
281
     0
  0
CLASS
  1
SCALE
  2
AcDbScale
  3
ObjectDBX Classes
 90
     1153
280
     0
281
     0
  0
CLASS
  1
TABLESTYLE
  2
AcDbTableStyle
  3
ObjectDBX Classes
 90
     4095
280
     0
281
     0
  0
CLASS
  1
MLEADERSTYLE
  2
AcDbMLeaderStyle
  3
ACDB_MLEADERSTYLE_CLASS
 90
     4095
280
     0
281
     0
  0
CLASS
  1
SUN
  2
AcDbSun
  3
SCENEOE
 90
     1153
280
     0
281
     0
  0
CLASS
  1
ACDBPLACEHOLDER
  2
AcDbPlaceHolder
  3
ObjectDBX Classes
 90
        0
280
     0
281
     0
  0
CLASS
  1
LAYOUT
  2
AcDbLayout
  3
ObjectDBX Classes
 90
        0
280
     0
281
     0
  0
ENDSEC
  0
SECTION
  2
TABLES
  0
TABLE
  2
VPORT
  5
8
330
0
100
AcDbSymbolTable
 70
     1
  0
VPORT
  5
29
330
8
100
AcDbSymbolTableRecord
100
AcDbViewportTableRecord
  2
*Active
 70
     0
 10
0.0
 20
0.0
 11
1.0
 21
1.0
 12
-2.8129480595
 22
-1.8057458415
 13
0.0
 23
0.0
 14
10.0
 24
10.0
 15
10.0
 25
10.0
 16
0.0
 26
0.0
 36
1.0
 17
0.0
 27
0.0
 37
0.0
 40
132.6
 41
2.7086211321
 42
50.0
 43
0.0
 44
0.0
 50
0.0
 51
0.0
 71
     0
 72
   100
 73
     1
 74
     3
 75
     0
 76
     0
 77
     0
 78
     0
281
     0
 65
     1
110
0.0
120
0.0
130
0.0
111
1.0
121
0.0
131
0.0
112
0.0
122
1.0
132
0.0
 79
     0
146
0.0
  0
ENDTAB
  0
TABLE
  2
LTYPE
  5
5
330
0
100
AcDbSymbolTable
 70
     6
  0
LTYPE
  5
14
330
5
100
AcDbSymbolTableRecord
100
AcDbLinetypeTableRecord
  2
ByBlock
 70
     0
  3

 72
    65
 73
     0
 40
0.0
  0
LTYPE
  5
15
330
5
100
AcDbSymbolTableRecord
100
AcDbLinetypeTableRecord
  2
ByLayer
 70
     0
  3

 72
    65
 73
     0
 40
0.0
  0
LTYPE
  5
16
330
5
100
AcDbSymbolTableRecord
100
AcDbLinetypeTableRecord
  2
Continuous
 70
     0
  3
Solid line
 72
    65
 73
     0
 40
0.0
  0
LTYPE
  5
6E
330
5
100
AcDbSymbolTableRecord
100
AcDbLinetypeTableRecord
  2
HIDDEN
 70
     0
  3
Hidden __ __ __ __ __ __ __ __ __ __ __ __ __ __
 72
    65
 73
     2
 40
1.905
 49
1.27
 74
     0
 49
-0.635
 74
     0
  0
LTYPE
  5
6F
330
5
100
AcDbSymbolTableRecord
100
AcDbLinetypeTableRecord
  2
PHANTOM
 70
     0
  3
Phantom ______  __  __  ______  __  __  ______
 72
    65
 73
     6
 40
12.7
 49
6.35
 74
     0
 49
-1.27
 74
     0
 49
1.27
 74
     0
 49
-1.27
 74
     0
 49
1.27
 74
     0
 49
-1.27
 74
     0
  0
LTYPE
  5
70
330
5
100
AcDbSymbolTableRecord
100
AcDbLinetypeTableRecord
  2
CENTER
 70
     0
  3
Center ____ _ ____ _ ____ _ ____ _ ____ _ ____
 72
    65
 73
     4
 40
10.16
 49
6.35
 74
     0
 49
-1.27
 74
     0
 49
1.27
 74
     0
 49
-1.27
 74
     0
  0
LTYPE
  5
71
330
5
100
AcDbSymbolTableRecord
100
AcDbLinetypeTableRecord
  2
CENTERX2
 70
     0
  3
Center (2x) ________  __  ________  __  _____
 72
    65
 73
     4
 40
20.32
 49
12.7
 74
     0
 49
-2.54
 74
     0
 49
2.54
 74
     0
 49
-2.54
 74
     0
  0
LTYPE
  5
72
330
5
100
AcDbSymbolTableRecord
100
AcDbLinetypeTableRecord
  2
DOT2
 70
     0
  3
Dot (.5x) ........................................
 72
    65
 73
     2
 40
0.635
 49
0.0
 74
     0
 49
-0.635
 74
     0
  0
ENDTAB
  0
TABLE
  2
LAYER
  5
2
330
0
100
AcDbSymbolTable
 70
     1
  0
LAYER
  5
10
330
2
100
AcDbSymbolTableRecord
100
AcDbLayerTableRecord
  2
0
 70
     0
 62
     7
  6
Continuous
370
    -3
390
F
  0
ENDTAB
  0
TABLE
  2
STYLE
  5
3
330
0
100
AcDbSymbolTable
 70
     1
  0
STYLE
  5
11
330
3
100
AcDbSymbolTableRecord
100
AcDbTextStyleTableRecord
  2
Standard
 70
     0
 40
0.0
 41
1.0
 50
0.0
 71
     0
 42
3.5
  3
txt
  4

  0
ENDTAB
  0
TABLE
  2
VIEW
  5
6
330
0
100
AcDbSymbolTable
 70
     0
  0
ENDTAB
  0
TABLE
  2
UCS
  5
7
330
0
100
AcDbSymbolTable
 70
     0
  0
ENDTAB
  0
TABLE
  2
APPID
  5
9
330
0
100
AcDbSymbolTable
 70
     1
  0
APPID
  5
12
330
9
100
AcDbSymbolTableRecord
100
AcDbRegAppTableRecord
  2
ACAD
 70
     0
  0
ENDTAB
  0
TABLE
  2
DIMSTYLE
  5
A
330
0
100
AcDbSymbolTable
 70
     1
100
AcDbDimStyleTable
  0
DIMSTYLE
105
27
330
A
100
AcDbSymbolTableRecord
100
AcDbDimStyleTableRecord
  2
ISO-25
 70
     0
 41
2.5
 42
0.625
 43
3.75
 44
1.25
 73
     0
 74
     0
 77
     1
 78
     8
140
2.5
141
2.5
143
0.0393700787
147
0.625
171
     3
172
     1
178
     0
271
     2
272
     2
274
     3
278
    44
283
     0
284
     8
340
11
  0
ENDTAB
  0
TABLE
  2
BLOCK_RECORD
  5
1
330
0
100
AcDbSymbolTable
 70
     1
  0
BLOCK_RECORD
  5
1F
330
1
100
AcDbSymbolTableRecord
100
AcDbBlockTableRecord
  2
*Model_Space
340
22
  0
BLOCK_RECORD
  5
1B
330
1
100
AcDbSymbolTableRecord
100
AcDbBlockTableRecord
  2
*Paper_Space
340
1E
  0
BLOCK_RECORD
  5
23
330
1
100
AcDbSymbolTableRecord
100
AcDbBlockTableRecord
  2
*Paper_Space0
340
26
  0
ENDTAB
  0
ENDSEC
  0
SECTION
  2
BLOCKS
  0
BLOCK
  5
20
330
1F
100
AcDbEntity
  8
0
100
AcDbBlockBegin
  2
*Model_Space
 70
     0
 10
0.0
 20
0.0
 30
0.0
  3
*Model_Space
  1

  0
ENDBLK
  5
21
330
1F
100
AcDbEntity
  8
0
100
AcDbBlockEnd
  0
BLOCK
  5
1C
330
1B
100
AcDbEntity
 67
     1
  8
0
100
AcDbBlockBegin
  2
*Paper_Space
 70
     0
 10
0.0
 20
0.0
 30
0.0
  3
*Paper_Space
  1

  0
ENDBLK
  5
1D
330
1B
100
AcDbEntity
 67
     1
  8
0
100
AcDbBlockEnd
  0
BLOCK
  5
24
330
23
100
AcDbEntity
  8
0
100
AcDbBlockBegin
  2
*Paper_Space0
 70
     0
 10
0.0
 20
0.0
 30
0.0
  3
*Paper_Space0
  1

  0
ENDBLK
  5
25
330
23
100
AcDbEntity
  8
0
100
AcDbBlockEnd
  0
ENDSEC
  0
SECTION
  2
ENTITIES
  0
ARC
  5
73
330
1F
100
AcDbEntity
  8
0
  6
Continuous
 62
     7
100
AcDbCircle
 10
-165.1323471898
 20
49.4532797033
 30
0.0
 40
14.0
100
AcDbArc
 50
101.038671177
 51
168.9613288229
  0
ARC
  5
74
330
1F
100
AcDbEntity
  8
0
  6
Continuous
 62
     7
100
AcDbCircle
 10
159.5064510708
 20
49.4532797033
 30
0.0
 40
14.00000000000002
100
AcDbArc
 50
11.0386711771
 51
78.961328823
  0
ARC
  5
75
330
1F
100
AcDbEntity
  8
0
  6
Continuous
 62
     7
100
AcDbCircle
 10
-165.1323471898
 20
-53.0647713864
 30
0.0
 40
14.00000000000001
100
AcDbArc
 50
191.0386711771
 51
258.961328823
  0
ARC
  5
76
330
1F
100
AcDbEntity
  8
0
  6
Continuous
 62
     7
100
AcDbCircle
 10
159.5064510708
 20
-53.0647713864
 30
0.0
 40
14.00000000000006
100
AcDbArc
 50
281.038671177
 51
348.9613288229
  0
CIRCLE
  5
77
330
1F
100
AcDbEntity
  8
0
  6
Continuous
 62
     7
100
AcDbCircle
 10
-167.8129480595
 20
52.133880573
 30
0.0
 40
1.50000000000001
  0
CIRCLE
  5
78
330
1F
100
AcDbEntity
  8
0
  6
Continuous
 62
     7
100
AcDbCircle
 10
-167.8129480595
 20
-55.7728988826
 30
0.0
 40
1.50000000000001
  0
CIRCLE
  5
79
330
1F
100
AcDbEntity
  8
0
  6
Continuous
 62
     7
100
AcDbCircle
 10
162.1870519405
 20
-55.7453722561
 30
0.0
 40
1.50000000000001
  0
CIRCLE
  5
7A
330
1F
100
AcDbEntity
  8
0
  6
Continuous
 62
     7
100
AcDbCircle
 10
162.1870519405
 20
52.133880573
 30
0.0
 40
1.500000000000008
  0
LINE
  5
7B
330
1F
100
AcDbEntity
  8
0
  6
Continuous
 62
     7
100
AcDbLine
 10
-178.873321645
 20
52.133880573
 30
0.0
 11
-178.873321645
 21
-30.3203276564
 31
0.0
  0
LINE
  5
7C
330
1F
100
AcDbEntity
  8
0
  6
Continuous
 62
     7
100
AcDbLine
 10
-167.8129480595
 20
63.1942541585
 30
0.0
 11
162.1870519405
 21
63.1942541585
 31
0.0
  0
LINE
  5
7D
330
1F
100
AcDbEntity
  8
0
  6
Continuous
 62
     7
100
AcDbLine
 10
173.2474255259
 20
52.133880573
 30
0.0
 11
173.2474255259
 21
-30.3203276564
 31
0.0
  0
LINE
  5
7E
330
1F
100
AcDbEntity
  8
0
  6
Continuous
 62
     7
100
AcDbLine
 10
162.1870519405
 20
-66.8057458415
 30
0.0
 11
-167.8129480595
 21
-66.8057458415
 31
0.0
  0
LINE
  5
7F
330
1F
100
AcDbEntity
  8
0
  6
Continuous
 62
     7
100
AcDbLine
 10
173.2474255259
 20
-38.8203276564
 30
0.0
 11
173.2474255259
 21
-55.7453722561
 31
0.0
  0
LINE
  5
80
330
1F
100
AcDbEntity
  8
0
  6
Continuous
 62
     7
100
AcDbLine
 10
-178.873321645
 20
-38.8203276564
 30
0.0
 11
-178.873321645
 21
-55.7453722561
 31
0.0
  0
LINE
  5
81
330
1F
100
AcDbEntity
  8
0
  6
Continuous
 62
     7
100
AcDbLine
 10
-178.873321645
 20
-30.3203276564
 30
0.0
 11
-158.6529654265
 21
-30.3203276564
 31
0.0
  0
LINE
  5
82
330
1F
100
AcDbEntity
  8
0
  6
Continuous
 62
     7
100
AcDbLine
 10
-160.3489080659
 20
-40.1862838412
 30
0.0
 11
-160.1140001723
 21
-38.8203276564
 31
0.0
  0
LINE
  5
83
330
1F
100
AcDbEntity
  8
0
  6
Continuous
 62
     7
100
AcDbLine
 10
-178.873321645
 20
-38.8203276564
 30
0.0
 11
-160.1140001723
 21
-38.8203276564
 31
0.0
  0
LINE
  5
84
330
1F
100
AcDbEntity
  8
0
  6
Continuous
 62
     7
100
AcDbLine
 10
-154.7225243299
 20
-7.3402378882
 30
0.0
 11
-158.6529654265
 21
-30.3203276564
 31
0.0
  0
LINE
  5
85
330
1F
100
AcDbEntity
  8
0
  6
Continuous
 62
     7
100
AcDbLine
 10
141.1072572664
 20
-38.8203276564
 30
0.0
 11
140.5597499784
 21
-41.8597601388
 31
0.0
  0
LINE
  5
86
330
1F
100
AcDbEntity
  8
0
  6
Continuous
 62
     7
100
AcDbLine
 10
173.2474255259
 20
-38.8203276564
 30
0.0
 11
141.1072572664
 21
-38.8203276564
 31
0.0
  0
LINE
  5
87
330
1F
100
AcDbEntity
  8
0
  6
Continuous
 62
     7
100
AcDbLine
 10
173.2474255259
 20
-30.3203276564
 30
0.0
 11
142.6384022992
 21
-30.3203276564
 31
0.0
  0
LINE
  5
88
330
1F
100
AcDbEntity
  8
0
  6
Continuous
 62
     7
100
AcDbLine
 10
-103.2874537775
 20
36.4983665057
 30
0.0
 11
-134.325366904
 21
36.4983665057
 31
0.0
  0
LINE
  5
89
330
1F
100
AcDbEntity
  8
0
  6
Continuous
 62
     7
100
AcDbLine
 10
-134.325366904
 20
36.4983665057
 30
0.0
 11
-142.2851592467
 21
45.7240345334
 31
0.0
  0
LINE
  5
8A
330
1F
100
AcDbEntity
  8
0
  6
Continuous
 62
     7
100
AcDbLine
 10
-148.4356045986
 20
-1.8057458415
 30
0.0
 11
-141.2174735832
 21
4.5310269306
 31
0.0
  0
LINE
  5
8B
330
1F
100
AcDbEntity
  8
0
  6
Continuous
 62
     7
100
AcDbLine
 10
-141.2174735832
 20
4.5310269306
 30
0.0
 11
-106.936322656
 21
4.5310269306
 31
0.0
  0
LINE
  5
8C
330
1F
100
AcDbEntity
  8
0
  6
Continuous
 62
     7
100
AcDbLine
 10
-106.936322656
 20
4.5310269306
 30
0.0
 11
-101.9433327813
 21
-1.8057458415
 31
0.0
  0
LINE
  5
8D
330
1F
100
AcDbEntity
  8
0
  6
Continuous
 62
     7
100
AcDbLine
 10
-101.9433327813
 20
-1.8057458415
 30
0.0
 11
-109.3954404335
 21
-7.4724653386
 31
0.0
  0
LINE
  5
8E
330
1F
100
AcDbEntity
  8
0
  6
Continuous
 62
     7
100
AcDbLine
 10
-109.3954404335
 20
-7.4724653386
 30
0.0
 11
-143.4903796524
 21
-7.4724653386
 31
0.0
  0
LINE
  5
8F
330
1F
100
AcDbEntity
  8
0
  6
Continuous
 62
     7
100
AcDbLine
 10
-143.4903796524
 20
-7.4724653386
 30
0.0
 11
-148.4356045986
 21
-1.8057458415
 31
0.0
  0
LINE
  5
90
330
1F
100
AcDbEntity
  8
0
  6
Continuous
 62
     7
100
AcDbLine
 10
-147.1096801866
 20
-38.8203269442
 30
0.0
 11
-116.07176706
 21
-38.8203269442
 31
0.0
  0
LINE
  5
91
330
1F
100
AcDbEntity
  8
0
  6
Continuous
 62
     7
100
AcDbLine
 10
-116.07176706
 20
-38.8203269442
 30
0.0
 11
-108.2751374193
 21
-49.1935928621
 31
0.0
  0
LINE
  5
92
330
1F
100
AcDbEntity
  8
0
  6
Continuous
 62
     7
100
AcDbLine
 10
-94.0727036998
 20
42.5675337831
 30
0.0
 11
-101.9433327814
 21
35.8141749517
 31
0.0
  0
LINE
  5
93
330
1F
100
AcDbEntity
  8
0
  6
Continuous
 62
     7
100
AcDbLine
 10
-101.9433327814
 20
35.8141749517
 30
0.0
 11
-107.0086551812
 21
6.196808473
 31
0.0
  0
LINE
  5
94
330
1F
100
AcDbEntity
  8
0
  6
Continuous
 62
     7
100
AcDbLine
 10
-107.0086551812
 20
6.196808473
 30
0.0
 11
-101.5872862902
 21
-0.3463798138
 31
0.0
  0
LINE
  5
95
330
1F
100
AcDbEntity
  8
0
  6
Continuous
 62
     7
100
AcDbLine
 10
-143.4746092799
 20
44.967056644
 30
0.0
 11
-134.9640669985
 21
35.366538988
 31
0.0
  0
LINE
  5
96
330
1F
100
AcDbEntity
  8
0
  6
Continuous
 62
     7
100
AcDbLine
 10
-134.9640669985
 20
35.366538988
 30
0.0
 11
-140.6996302379
 21
6.5055438463
 31
0.0
  0
LINE
  5
97
330
1F
100
AcDbEntity
  8
0
  6
Continuous
 62
     7
100
AcDbLine
 10
-140.6996302379
 20
6.5055438463
 30
0.0
 11
-148.8692898478
 21
-0.3463798138
 31
0.0
  0
LINE
  5
98
330
1F
100
AcDbEntity
  8
0
  6
Continuous
 62
     7
100
AcDbLine
 10
-152.4224761272
 20
4.5912632221
 30
0.0
 11
-146.2095558372
 21
39.0816748641
 31
0.0
  0
LINE
  5
99
330
1F
100
AcDbEntity
  8
0
  6
Continuous
 62
     7
100
AcDbLine
 10
-156.9285568488
 20
-45.4390310547
 30
0.0
 11
-148.4817026112
 21
-38.1045946442
 31
0.0
  0
LINE
  5
9A
330
1F
100
AcDbEntity
  8
0
  6
Continuous
 62
     7
100
AcDbLine
 10
-148.4817026112
 20
-38.1045946442
 30
0.0
 11
-143.9665235975
 21
-8.6710136634
 31
0.0
  0
LINE
  5
9B
330
1F
100
AcDbEntity
  8
0
  6
Continuous
 62
     7
100
AcDbLine
 10
-143.9665235975
 20
-8.6710136634
 30
0.0
 11
-149.6092842592
 21
-2.5142005663
 31
0.0
  0
LINE
  5
9C
330
1F
100
AcDbEntity
  8
0
  6
Continuous
 62
     7
100
AcDbLine
 10
-107.2487442611
 20
-47.8701137242
 30
0.0
 11
-115.1485937043
 21
-38.1021684335
 31
0.0
  0
LINE
  5
9D
330
1F
100
AcDbEntity
  8
0
  6
Continuous
 62
     7
100
AcDbLine
 10
-115.1485937043
 20
-38.1021684335
 30
0.0
 11
-109.0315087561
 21
-8.7959635396
 31
0.0
  0
LINE
  5
9E
330
1F
100
AcDbEntity
  8
0
  6
Continuous
 62
     7
100
AcDbLine
 10
-109.0315087561
 20
-8.7959635396
 30
0.0
 11
-100.6768505432
 21
-2.526330563
 31
0.0
  0
LINE
  5
9F
330
1F
100
AcDbEntity
  8
0
  6
Continuous
 62
     7
100
AcDbLine
 10
-98.0019527127
 20
-7.4651867049
 30
0.0
 11
-104.2147671754
 21
-41.9550108573
 31
0.0
  0
LINE
  5
A0
330
1F
100
AcDbEntity
  8
0
  6
Continuous
 62
     7
100
AcDbLine
 10
-21.6959480595
 20
36.4983665057
 30
0.0
 11
-52.7338611861
 21
36.4983665057
 31
0.0
  0
LINE
  5
A1
330
1F
100
AcDbEntity
  8
0
  6
Continuous
 62
     7
100
AcDbLine
 10
-52.7338611861
 20
36.4983665057
 30
0.0
 11
-60.6936535288
 21
45.7240345334
 31
0.0
  0
LINE
  5
A2
330
1F
100
AcDbEntity
  8
0
  6
Continuous
 62
     7
100
AcDbLine
 10
-66.8440988807
 20
-1.8057458415
 30
0.0
 11
-59.6259678652
 21
4.5310269306
 31
0.0
  0
LINE
  5
A3
330
1F
100
AcDbEntity
  8
0
  6
Continuous
 62
     7
100
AcDbLine
 10
-59.6259678652
 20
4.5310269306
 30
0.0
 11
-25.344816938
 21
4.5310269306
 31
0.0
  0
LINE
  5
A4
330
1F
100
AcDbEntity
  8
0
  6
Continuous
 62
     7
100
AcDbLine
 10
-25.344816938
 20
4.5310269306
 30
0.0
 11
-20.2282213935
 21
-1.8057458415
 31
0.0
  0
LINE
  5
A5
330
1F
100
AcDbEntity
  8
0
  6
Continuous
 62
     7
100
AcDbLine
 10
-20.2282213935
 20
-1.8057458415
 30
0.0
 11
-27.8039347156
 21
-7.4724653386
 31
0.0
  0
LINE
  5
A6
330
1F
100
AcDbEntity
  8
0
  6
Continuous
 62
     7
100
AcDbLine
 10
-27.8039347156
 20
-7.4724653386
 30
0.0
 11
-61.8988739344
 21
-7.4724653386
 31
0.0
  0
LINE
  5
A7
330
1F
100
AcDbEntity
  8
0
  6
Continuous
 62
     7
100
AcDbLine
 10
-61.8988739344
 20
-7.4724653386
 30
0.0
 11
-66.8440988807
 21
-1.8057458415
 31
0.0
  0
LINE
  5
A8
330
1F
100
AcDbEntity
  8
0
  6
Continuous
 62
     7
100
AcDbLine
 10
-65.5181744686
 20
-38.8203269442
 30
0.0
 11
-34.4802613421
 21
-38.8203269442
 31
0.0
  0
LINE
  5
A9
330
1F
100
AcDbEntity
  8
0
  6
Continuous
 62
     7
100
AcDbLine
 10
-34.4802613421
 20
-38.8203269442
 30
0.0
 11
-26.6836317014
 21
-49.1935928621
 31
0.0
  0
LINE
  5
AA
330
1F
100
AcDbEntity
  8
0
  6
Continuous
 62
     7
100
AcDbLine
 10
-12.4811979819
 20
42.5992840225
 30
0.0
 11
-20.3518270634
 21
35.8459251911
 31
0.0
  0
LINE
  5
AB
330
1F
100
AcDbEntity
  8
0
  6
Continuous
 62
     7
100
AcDbLine
 10
-20.3518270634
 20
35.8459251911
 30
0.0
 11
-25.4171494632
 21
6.2285587125
 31
0.0
  0
LINE
  5
AC
330
1F
100
AcDbEntity
  8
0
  6
Continuous
 62
     7
100
AcDbLine
 10
-25.4171494632
 20
6.2285587125
 30
0.0
 11
-19.9957805722
 21
-0.3146295744
 31
0.0
  0
LINE
  5
AD
330
1F
100
AcDbEntity
  8
0
  6
Continuous
 62
     7
100
AcDbLine
 10
-61.883103562
 20
44.9988068834
 30
0.0
 11
-53.3725612806
 21
35.3982892274
 31
0.0
  0
LINE
  5
AE
330
1F
100
AcDbEntity
  8
0
  6
Continuous
 62
     7
100
AcDbLine
 10
-53.3725612806
 20
35.3982892274
 30
0.0
 11
-59.10812452
 21
6.5372940858
 31
0.0
  0
LINE
  5
AF
330
1F
100
AcDbEntity
  8
0
  6
Continuous
 62
     7
100
AcDbLine
 10
-59.10812452
 20
6.5372940858
 30
0.0
 11
-67.2777841298
 21
-0.3146295744
 31
0.0
  0
LINE
  5
B0
330
1F
100
AcDbEntity
  8
0
  6
Continuous
 62
     7
100
AcDbLine
 10
-70.8309704092
 20
4.6230134615
 30
0.0
 11
-64.6180501193
 21
39.1134251035
 31
0.0
  0
LINE
  5
B1
330
1F
100
AcDbEntity
  8
0
  6
Continuous
 62
     7
100
AcDbLine
 10
-75.3370511309
 20
-45.4072808152
 30
0.0
 11
-66.8901968932
 21
-38.0728444048
 31
0.0
  0
LINE
  5
B2
330
1F
100
AcDbEntity
  8
0
  6
Continuous
 62
     7
100
AcDbLine
 10
-66.8901968932
 20
-38.0728444048
 30
0.0
 11
-62.3750178795
 21
-8.6392634239
 31
0.0
  0
LINE
  5
B3
330
1F
100
AcDbEntity
  8
0
  6
Continuous
 62
     7
100
AcDbLine
 10
-62.3750178795
 20
-8.6392634239
 30
0.0
 11
-68.0177785412
 21
-2.4824492677
 31
0.0
  0
LINE
  5
B4
330
1F
100
AcDbEntity
  8
0
  6
Continuous
 62
     7
100
AcDbLine
 10
-25.6572385432
 20
-47.8383634848
 30
0.0
 11
-33.5570879863
 21
-38.0704181941
 31
0.0
  0
LINE
  5
B5
330
1F
100
AcDbEntity
  8
0
  6
Continuous
 62
     7
100
AcDbLine
 10
-33.5570879863
 20
-38.0704181941
 30
0.0
 11
-27.4400030381
 21
-8.7642133001
 31
0.0
  0
LINE
  5
B6
330
1F
100
AcDbEntity
  8
0
  6
Continuous
 62
     7
100
AcDbLine
 10
-27.4400030381
 20
-8.7642133001
 30
0.0
 11
-19.0853448252
 21
-2.4945803235
 31
0.0
  0
LINE
  5
B7
330
1F
100
AcDbEntity
  8
0
  6
Continuous
 62
     7
100
AcDbLine
 10
-16.4104469948
 20
-7.4334364655
 30
0.0
 11
-22.6232614574
 21
-41.9232606178
 31
0.0
  0
LINE
  5
B8
330
1F
100
AcDbEntity
  8
0
  6
Continuous
 62
     7
100
AcDbLine
 10
59.8955576584
 20
36.4983665057
 30
0.0
 11
28.8576445319
 21
36.4983665057
 31
0.0
  0
LINE
  5
B9
330
1F
100
AcDbEntity
  8
0
  6
Continuous
 62
     7
100
AcDbLine
 10
28.8576445319
 20
36.4983665057
 30
0.0
 11
20.8978521892
 21
45.7240345334
 31
0.0
  0
LINE
  5
BA
330
1F
100
AcDbEntity
  8
0
  6
Continuous
 62
     7
100
AcDbLine
 10
14.7474068372
 20
-1.8057458415
 30
0.0
 11
21.8932053275
 21
4.5310269306
 31
0.0
  0
LINE
  5
BB
330
1F
100
AcDbEntity
  8
0
  6
Continuous
 62
     7
100
AcDbLine
 10
21.8932053275
 20
4.5310269306
 30
0.0
 11
56.1743562547
 21
4.5310269306
 31
0.0
  0
LINE
  5
BC
330
1F
100
AcDbEntity
  8
0
  6
Continuous
 62
     7
100
AcDbLine
 10
56.1743562547
 20
4.5310269306
 30
0.0
 11
61.2396786545
 21
-1.8057458415
 31
0.0
  0
LINE
  5
BD
330
1F
100
AcDbEntity
  8
0
  6
Continuous
 62
     7
100
AcDbLine
 10
61.2396786545
 20
-1.8057458415
 30
0.0
 11
53.7875710023
 21
-7.4724653386
 31
0.0
  0
LINE
  5
BE
330
1F
100
AcDbEntity
  8
0
  6
Continuous
 62
     7
100
AcDbLine
 10
53.7875710023
 20
-7.4724653386
 30
0.0
 11
19.6926317835
 21
-7.4724653386
 31
0.0
  0
LINE
  5
BF
330
1F
100
AcDbEntity
  8
0
  6
Continuous
 62
     7
100
AcDbLine
 10
19.6926317835
 20
-7.4724653386
 30
0.0
 11
14.7474068372
 21
-1.8057458415
 31
0.0
  0
LINE
  5
C0
330
1F
100
AcDbEntity
  8
0
  6
Continuous
 62
     7
100
AcDbLine
 10
16.0733312493
 20
-38.8203269442
 30
0.0
 11
47.1112443759
 21
-38.8203269442
 31
0.0
  0
LINE
  5
C1
330
1F
100
AcDbEntity
  8
0
  6
Continuous
 62
     7
100
AcDbLine
 10
47.1112443759
 20
-38.8203269442
 30
0.0
 11
54.9078740166
 21
-49.1935928621
 31
0.0
  0
LINE
  5
C2
330
1F
100
AcDbEntity
  8
0
  6
Continuous
 62
     7
100
AcDbLine
 10
69.110307736
 20
42.6310342621
 30
0.0
 11
61.2396786545
 21
35.8776754307
 31
0.0
  0
LINE
  5
C3
330
1F
100
AcDbEntity
  8
0
  6
Continuous
 62
     7
100
AcDbLine
 10
61.2396786545
 20
35.8776754307
 30
0.0
 11
56.1743562547
 21
6.260308952
 31
0.0
  0
LINE
  5
C4
330
1F
100
AcDbEntity
  8
0
  6
Continuous
 62
     7
100
AcDbLine
 10
56.1743562547
 20
6.260308952
 30
0.0
 11
61.5957251457
 21
-0.2828793348
 31
0.0
  0
LINE
  5
C5
330
1F
100
AcDbEntity
  8
0
  6
Continuous
 62
     7
100
AcDbLine
 10
19.7084021559
 20
45.0305571229
 30
0.0
 11
28.2189444373
 21
35.430039467
 31
0.0
  0
LINE
  5
C6
330
1F
100
AcDbEntity
  8
0
  6
Continuous
 62
     7
100
AcDbLine
 10
28.2189444373
 20
35.430039467
 30
0.0
 11
22.4833811979
 21
6.5690443253
 31
0.0
  0
LINE
  5
C7
330
1F
100
AcDbEntity
  8
0
  6
Continuous
 62
     7
100
AcDbLine
 10
22.4833811979
 20
6.5690443253
 30
0.0
 11
14.3137215881
 21
-0.2828793348
 31
0.0
  0
LINE
  5
C8
330
1F
100
AcDbEntity
  8
0
  6
Continuous
 62
     7
100
AcDbLine
 10
10.7605353087
 20
4.6547637011
 30
0.0
 11
16.9734555986
 21
39.1451753431
 31
0.0
  0
LINE
  5
C9
330
1F
100
AcDbEntity
  8
0
  6
Continuous
 62
     7
100
AcDbLine
 10
6.254454587
 20
-45.3755305757
 30
0.0
 11
14.7013088247
 21
-38.0410941652
 31
0.0
  0
LINE
  5
CA
330
1F
100
AcDbEntity
  8
0
  6
Continuous
 62
     7
100
AcDbLine
 10
14.7013088247
 20
-38.0410941652
 30
0.0
 11
19.2164878384
 21
-8.6075131844
 31
0.0
  0
LINE
  5
CB
330
1F
100
AcDbEntity
  8
0
  6
Continuous
 62
     7
100
AcDbLine
 10
19.2164878384
 20
-8.6075131844
 30
0.0
 11
13.5737271767
 21
-2.4506990282
 31
0.0
  0
LINE
  5
CC
330
1F
100
AcDbEntity
  8
0
  6
Continuous
 62
     7
100
AcDbLine
 10
55.9342671747
 20
-47.8066132452
 30
0.0
 11
48.0344177316
 21
-38.0386679546
 31
0.0
  0
LINE
  5
CD
330
1F
100
AcDbEntity
  8
0
  6
Continuous
 62
     7
100
AcDbLine
 10
48.0344177316
 20
-38.0386679546
 30
0.0
 11
54.1515026798
 21
-8.7324630606
 31
0.0
  0
LINE
  5
CE
330
1F
100
AcDbEntity
  8
0
  6
Continuous
 62
     7
100
AcDbLine
 10
54.1515026798
 20
-8.7324630606
 30
0.0
 11
62.5061608927
 21
-2.462830084
 31
0.0
  0
LINE
  5
CF
330
1F
100
AcDbEntity
  8
0
  6
Continuous
 62
     7
100
AcDbLine
 10
65.1810587231
 20
-7.401686226
 30
0.0
 11
58.9682442605
 21
-41.8915103783
 31
0.0
  0
LINE
  5
D0
330
1F
100
AcDbEntity
  8
0
  6
Continuous
 62
     7
100
AcDbLine
 10
141.4870633764
 20
36.4983665057
 30
0.0
 11
110.4491502498
 21
36.4983665057
 31
0.0
  0
LINE
  5
D1
330
1F
100
AcDbEntity
  8
0
  6
Continuous
 62
     7
100
AcDbLine
 10
110.4491502498
 20
36.4983665057
 30
0.0
 11
102.4893579071
 21
45.7240345334
 31
0.0
  0
LINE
  5
D2
330
1F
100
AcDbEntity
  8
0
  6
Continuous
 62
     7
100
AcDbLine
 10
96.3389125552
 20
-1.8057458415
 30
0.0
 11
103.4006085983
 21
4.5310269306
 31
0.0
  0
LINE
  5
D3
330
1F
100
AcDbEntity
  8
0
  6
Continuous
 62
     7
100
AcDbLine
 10
103.4006085983
 20
4.5310269306
 30
0.0
 11
137.6817595255
 21
4.5310269306
 31
0.0
  0
LINE
  5
D4
330
1F
100
AcDbEntity
  8
0
  6
Continuous
 62
     7
100
AcDbLine
 10
137.6817595255
 20
4.5310269306
 30
0.0
 11
142.8311843725
 21
-1.8057458415
 31
0.0
  0
LINE
  5
D5
330
1F
100
AcDbEntity
  8
0
  6
Continuous
 62
     7
100
AcDbLine
 10
142.8311843725
 20
-1.8057458415
 30
0.0
 11
135.3790767203
 21
-7.4724653386
 31
0.0
  0
LINE
  5
D6
330
1F
100
AcDbEntity
  8
0
  6
Continuous
 62
     7
100
AcDbLine
 10
135.3790767203
 20
-7.4724653386
 30
0.0
 11
101.2841375014
 21
-7.4724653386
 31
0.0
  0
LINE
  5
D7
330
1F
100
AcDbEntity
  8
0
  6
Continuous
 62
     7
100
AcDbLine
 10
101.2841375014
 20
-7.4724653386
 30
0.0
 11
96.3389125552
 21
-1.8057458415
 31
0.0
  0
LINE
  5
D8
330
1F
100
AcDbEntity
  8
0
  6
Continuous
 62
     7
100
AcDbLine
 10
97.6648369673
 20
-38.8203269442
 30
0.0
 11
128.7027500939
 21
-38.8203269442
 31
0.0
  0
LINE
  5
D9
330
1F
100
AcDbEntity
  8
0
  6
Continuous
 62
     7
100
AcDbLine
 10
128.7027500939
 20
-38.8203269442
 30
0.0
 11
136.4993797345
 21
-49.1935928621
 31
0.0
  0
LINE
  5
DA
330
1F
100
AcDbEntity
  8
0
  6
Continuous
 62
     7
100
AcDbLine
 10
150.701813454
 20
42.6627845015
 30
0.0
 11
142.8311843724
 21
35.9094256701
 31
0.0
  0
LINE
  5
DB
330
1F
100
AcDbEntity
  8
0
  6
Continuous
 62
     7
100
AcDbLine
 10
142.8311843724
 20
35.9094256701
 30
0.0
 11
137.7658619726
 21
6.2920591914
 31
0.0
  0
LINE
  5
DC
330
1F
100
AcDbEntity
  8
0
  6
Continuous
 62
     7
100
AcDbLine
 10
137.7658619726
 20
6.2920591914
 30
0.0
 11
143.1872308636
 21
-0.2511290954
 31
0.0
  0
LINE
  5
DD
330
1F
100
AcDbEntity
  8
0
  6
Continuous
 62
     7
100
AcDbLine
 10
101.2999078739
 20
45.0623073624
 30
0.0
 11
109.8104501553
 21
35.4617897064
 31
0.0
  0
LINE
  5
DE
330
1F
100
AcDbEntity
  8
0
  6
Continuous
 62
     7
100
AcDbLine
 10
109.8104501553
 20
35.4617897064
 30
0.0
 11
104.0748869159
 21
6.6007945648
 31
0.0
  0
LINE
  5
DF
330
1F
100
AcDbEntity
  8
0
  6
Continuous
 62
     7
100
AcDbLine
 10
104.0748869159
 20
6.6007945648
 30
0.0
 11
95.905227306
 21
-0.2511290954
 31
0.0
  0
LINE
  5
E0
330
1F
100
AcDbEntity
  8
0
  6
Continuous
 62
     7
100
AcDbLine
 10
92.3520410266
 20
4.6865139405
 30
0.0
 11
98.5649613166
 21
39.1769255825
 31
0.0
  0
LINE
  5
E1
330
1F
100
AcDbEntity
  8
0
  6
Continuous
 62
     7
100
AcDbLine
 10
87.8459603049
 20
-45.3437803363
 30
0.0
 11
96.2928145426
 21
-38.0093439258
 31
0.0
  0
LINE
  5
E2
330
1F
100
AcDbEntity
  8
0
  6
Continuous
 62
     7
100
AcDbLine
 10
96.2928145426
 20
-38.0093439258
 30
0.0
 11
100.8079935563
 21
-8.5757629449
 31
0.0
  0
LINE
  5
E3
330
1F
100
AcDbEntity
  8
0
  6
Continuous
 62
     7
100
AcDbLine
 10
100.8079935563
 20
-8.5757629449
 30
0.0
 11
95.1652328946
 21
-2.4189487887
 31
0.0
  0
LINE
  5
E4
330
1F
100
AcDbEntity
  8
0
  6
Continuous
 62
     7
100
AcDbLine
 10
137.5257728927
 20
-47.7748630058
 30
0.0
 11
129.6259234495
 21
-38.0069177151
 31
0.0
  0
LINE
  5
E5
330
1F
100
AcDbEntity
  8
0
  6
Continuous
 62
     7
100
AcDbLine
 10
129.6259234495
 20
-38.0069177151
 30
0.0
 11
135.7430083977
 21
-8.7007128212
 31
0.0
  0
LINE
  5
E6
330
1F
100
AcDbEntity
  8
0
  6
Continuous
 62
     7
100
AcDbLine
 10
135.7430083977
 20
-8.7007128212
 30
0.0
 11
144.0976666106
 21
-2.4310798445
 31
0.0
  0
LINE
  5
E7
330
1F
100
AcDbEntity
  8
0
  6
Continuous
 62
     7
100
AcDbLine
 10
146.7725644411
 20
-7.3699359865
 30
0.0
 11
142.6384022992
 21
-30.3203276564
 31
0.0
  0
LWPOLYLINE
  5
E8
330
1F
100
AcDbEntity
  8
0
  6
Continuous
 62
     7
100
AcDbPolyline
 90
        3
 70
   128
 43
0.0
 10
-142.2851085663
 20
45.7240345334
 10
-139.4264730075
 20
48.1306069939
 10
-134.6868723706
 20
48.6360945072
  0
LWPOLYLINE
  5
E9
330
1F
100
AcDbEntity
  8
0
  6
Continuous
 62
     7
100
AcDbPolyline
 90
        5
 70
   128
 43
0.0
 10
-134.6868276596
 20
48.6360945072
 10
-129.109178811
 20
48.5871752965
 10
-119.8060302141
 20
48.5769648294
 10
-109.8828927063
 20
48.5960976881
 10
-97.6598569356
 20
48.6391272713
  0
LWPOLYLINE
  5
EA
330
1F
100
AcDbEntity
  8
0
  6
Continuous
 62
     7
100
AcDbPolyline
 90
        5
 70
   128
 43
0.0
 10
-97.6598262787
 20
48.6391272713
 10
-93.6552597509
 20
47.9915440596
 10
-92.2165763248
 20
47.1542433781
 10
-92.1271856065
 20
46.3274787463
 10
-93.349692767
 20
44.967056644
  0
LWPOLYLINE
  5
EB
330
1F
100
AcDbEntity
  8
0
  6
Continuous
 62
     7
100
AcDbPolyline
 90
        3
 70
   128
 43
0.0
 10
-93.349635601
 20
44.967056644
 10
-98.4270190893
 20
40.8262944222
 10
-103.2874537775
 20
36.4983665057
  0
LWPOLYLINE
  5
EC
330
1F
100
AcDbEntity
  8
0
  6
Continuous
 62
     7
100
AcDbPolyline
 90
        3
 70
   128
 43
0.0
 10
-108.27511549
 20
-49.1935928621
 10
-110.8190994258
 20
-51.0395474975
 10
-114.3036656593
 20
-51.4827231144
  0
LINE
  5
ED
330
1F
100
AcDbEntity
  8
0
  6
Continuous
 62
     7
100
AcDbLine
 10
-114.3036484718
 20
-51.4827231144
 30
0.0
 11
-151.5708760014
 21
-51.4827231144
 31
0.0
  0
LWPOLYLINE
  5
EE
330
1F
100
AcDbEntity
  8
0
  6
Continuous
 62
     7
100
AcDbPolyline
 90
        5
 70
   128
 43
0.0
 10
-151.5707969666
 20
-51.4827231144
 10
-156.4393435868
 20
-51.4331765175
 10
-158.5395989849
 20
-50.4534077581
 10
-158.4018735906
 20
-49.2834384949
 10
-156.3044140218
 20
-47.0803629205
  0
LWPOLYLINE
  5
EF
330
1F
100
AcDbEntity
  8
0
  6
Continuous
 62
     7
100
AcDbPolyline
 90
        3
 70
   128
 43
0.0
 10
-156.304359436
 20
-47.0803629205
 10
-152.3009326516
 20
-43.586711982
 10
-147.1096801866
 20
-38.8203269442
  0
LWPOLYLINE
  5
F0
330
1F
100
AcDbEntity
  8
0
  6
Continuous
 62
     7
100
AcDbPolyline
 90
        6
 70
   128
 43
0.0
 10
-90.5449390411
 20
45.13325211
 10
-90.6551636937
 20
45.1240348207
 10
-90.777959265
 20
45.079588815
 10
-91.0765420958
 20
44.9187900723
 10
-91.8626116441
 20
44.3719846793
 10
-94.0727036998
 20
42.5675337831
  0
LWPOLYLINE
  5
F1
330
1F
100
AcDbEntity
  8
0
  6
Continuous
 62
     7
100
AcDbPolyline
 90
        3
 70
   128
 43
0.0
 10
-101.5872359276
 20
-0.3463798138
 10
-97.2564178057
 20
1.0460887774
 10
-95.7006914045
 20
4.4675264516
  0
LWPOLYLINE
  5
F2
330
1F
100
AcDbEntity
  8
0
  6
Continuous
 62
     7
100
AcDbPolyline
 90
        5
 70
   128
 43
0.0
 10
-95.7006812096
 20
4.4675264516
 10
-94.9185207086
 20
9.0778071209
 10
-93.5190073703
 20
17.255188876
 10
-91.9863049853
 20
26.1827051493
 10
-90.0724880099
 20
37.3123603581
  0
LWPOLYLINE
  5
F3
330
1F
100
AcDbEntity
  8
0
  6
Continuous
 62
     7
100
AcDbPolyline
 90
        3
 70
   128
 43
0.0
 10
-90.072453022
 20
37.3123603581
 10
-89.475484781
 20
40.6618555331
 10
-89.4908038784
 20
43.1158575108
  0
LWPOLYLINE
  5
F4
330
1F
100
AcDbEntity
  8
0
  6
Continuous
 62
     7
100
AcDbPolyline
 90
        3
 70
   128
 43
0.0
 10
-89.4907712936
 20
43.1158575108
 10
-89.8438037084
 20
44.5082320816
 10
-90.5449926379
 20
45.13325211
  0
LWPOLYLINE
  5
F5
330
1F
100
AcDbEntity
  8
0
  6
Continuous
 62
     7
100
AcDbPolyline
 90
        3
 70
   128
 43
0.0
 10
-146.2094783783
 20
39.0816748641
 10
-145.005141904
 20
43.4235214689
 10
-143.4746092799
 20
44.967056644
  0
LWPOLYLINE
  5
F6
330
1F
100
AcDbEntity
  8
0
  6
Continuous
 62
     7
100
AcDbPolyline
 90
        3
 70
   128
 43
0.0
 10
-148.8692760468
 20
-0.3463798138
 10
-152.6692683878
 20
1.2020650423
 10
-152.4224761272
 20
4.5912632221
  0
ARC
  5
F7
330
1F
100
AcDbEntity
  8
0
  6
Continuous
 62
     7
100
AcDbCircle
 10
-162.5993166026
 20
-41.9010424324
 30
0.0
 40
6.683926965204986
100
AcDbArc
 50
294.0242476958
 51
328.0399490824
  0
LWPOLYLINE
  5
F8
330
1F
100
AcDbEntity
  8
0
  6
Continuous
 62
     7
100
AcDbPolyline
 90
        3
 70
   128
 43
0.0
 10
-149.609208107
 20
-2.5142005663
 10
-153.3162205116
 20
-3.9164516414
 10
-154.7225243299
 20
-7.3402378882
  0
LWPOLYLINE
  5
F9
330
1F
100
AcDbEntity
  8
0
  6
Continuous
 62
     7
100
AcDbPolyline
 90
        3
 70
   128
 43
0.0
 10
-160.3488922119
 20
-40.1862838412
 10
-160.9478677914
 20
-43.5345018581
 10
-160.9330184085
 20
-45.9885678875
  0
LWPOLYLINE
  5
FA
330
1F
100
AcDbEntity
  8
0
  6
Continuous
 62
     7
100
AcDbPolyline
 90
        3
 70
   128
 43
0.0
 10
-160.9330177307
 20
-45.9885678875
 10
-160.5790691342
 20
-47.3814446263
 10
-159.8782230963
 20
-48.0059624875
  0
LWPOLYLINE
  5
FB
330
1F
100
AcDbEntity
  8
0
  6
Continuous
 62
     7
100
AcDbPolyline
 90
        3
 70
   128
 43
0.0
 10
-104.2147278786
 20
-41.9550108573
 10
-105.512658173
 20
-46.3064769042
 10
-107.2487442611
 20
-47.8701137242
  0
LWPOLYLINE
  5
FC
330
1F
100
AcDbEntity
  8
0
  6
Continuous
 62
     7
100
AcDbPolyline
 90
        4
 70
   128
 43
0.0
 10
-100.6768345833
 20
-2.526330563
 10
-98.8471840339
 20
-2.8350090718
 10
-97.7914788924
 20
-3.7610445985
 10
-98.0019527127
 20
-7.4651867049
  0
LWPOLYLINE
  5
FD
330
1F
100
AcDbEntity
  8
0
  6
Continuous
 62
     7
100
AcDbPolyline
 90
        3
 70
   128
 43
0.0
 10
-60.6936514378
 20
45.7240345334
 10
-57.8349672895
 20
48.1306069939
 10
-53.0953666527
 20
48.6360945072
  0
LWPOLYLINE
  5
FE
330
1F
100
AcDbEntity
  8
0
  6
Continuous
 62
     7
100
AcDbPolyline
 90
        5
 70
   128
 43
0.0
 10
-53.0953407288
 20
48.6360945072
 10
-47.517673093
 20
48.5871752965
 10
-38.2145244962
 20
48.5769648294
 10
-28.2913869883
 20
48.5960976881
 10
-16.0683512177
 20
48.6391272713
  0
LWPOLYLINE
  5
FF
330
1F
100
AcDbEntity
  8
0
  6
Continuous
 62
     7
100
AcDbPolyline
 90
        5
 70
   128
 43
0.0
 10
-16.0683393478
 20
48.6391272713
 10
-12.063754033
 20
47.9915440596
 10
-10.6250706069
 20
47.1542433781
 10
-10.5356798886
 20
46.3274787463
 10
-11.758187049
 20
44.967056644
  0
LWPOLYLINE
  5
100
330
1F
100
AcDbEntity
  8
0
  6
Continuous
 62
     7
100
AcDbPolyline
 90
        3
 70
   128
 43
0.0
 10
-11.7581859231
 20
44.967056644
 10
-16.8355133713
 20
40.8262944222
 10
-21.6959480595
 20
36.4983665057
  0
LWPOLYLINE
  5
101
330
1F
100
AcDbEntity
  8
0
  6
Continuous
 62
     7
100
AcDbPolyline
 90
        3
 70
   128
 43
0.0
 10
-26.6836285591
 20
-49.1935928621
 10
-29.2275937078
 20
-51.0395474975
 10
-32.7121599414
 20
-51.4827231144
  0
LINE
  5
102
330
1F
100
AcDbEntity
  8
0
  6
Continuous
 62
     7
100
AcDbLine
 10
-32.7121317387
 20
-51.4827231144
 30
0.0
 11
-69.9793702835
 21
-51.4827231144
 31
0.0
  0
LWPOLYLINE
  5
103
330
1F
100
AcDbEntity
  8
0
  6
Continuous
 62
     7
100
AcDbPolyline
 90
        5
 70
   128
 43
0.0
 10
-69.9793696404
 20
-51.4827231144
 10
-74.8478378689
 20
-51.4331765175
 10
-76.9480932669
 20
-50.4534077581
 10
-76.8103678726
 20
-49.2834384949
 10
-74.7129083038
 20
-47.0803629205
  0
LWPOLYLINE
  5
104
330
1F
100
AcDbEntity
  8
0
  6
Continuous
 62
     7
100
AcDbPolyline
 90
        3
 70
   128
 43
0.0
 10
-74.7128725052
 20
-47.0803629205
 10
-70.7094269337
 20
-43.586711982
 10
-65.5181744686
 20
-38.8203269442
  0
LWPOLYLINE
  5
105
330
1F
100
AcDbEntity
  8
0
  6
Continuous
 62
     7
100
AcDbPolyline
 90
        6
 70
   128
 43
0.0
 10
-8.9534819126
 20
45.1650023495
 10
-9.0636579758
 20
45.1557850601
 10
-9.186453547
 20
45.1113390544
 10
-9.4850363779
 20
44.9505403117
 10
-10.2711059261
 20
44.4037349188
 10
-12.4811979819
 20
42.5992840225
  0
LWPOLYLINE
  5
106
330
1F
100
AcDbEntity
  8
0
  6
Continuous
 62
     7
100
AcDbPolyline
 90
        3
 70
   128
 43
0.0
 10
-19.9957787991
 20
-0.3146295744
 10
-15.6649120877
 20
1.0778390168
 10
-14.1091856866
 20
4.4992766911
  0
LWPOLYLINE
  5
107
330
1F
100
AcDbEntity
  8
0
  6
Continuous
 62
     7
100
AcDbPolyline
 90
        5
 70
   128
 43
0.0
 10
-14.1091793776
 20
4.4992766911
 10
-13.3270149907
 20
9.1095573604
 10
-11.9275016523
 20
17.2869391154
 10
-10.3947992674
 20
26.2144553887
 10
-8.480982292
 20
37.3441105976
  0
LWPOLYLINE
  5
108
330
1F
100
AcDbEntity
  8
0
  6
Continuous
 62
     7
100
AcDbPolyline
 90
        3
 70
   128
 43
0.0
 10
-8.4809809923
 20
37.3441105976
 10
-7.8839790631
 20
40.6936057726
 10
-7.8992981605
 20
43.1476077502
  0
LWPOLYLINE
  5
109
330
1F
100
AcDbEntity
  8
0
  6
Continuous
 62
     7
100
AcDbPolyline
 90
        3
 70
   128
 43
0.0
 10
-7.8992918134
 20
43.1476077502
 10
-8.2522979904
 20
44.5399823211
 10
-8.95348692
 20
45.1650023495
  0
LWPOLYLINE
  5
10A
330
1F
100
AcDbEntity
  8
0
  6
Continuous
 62
     7
100
AcDbPolyline
 90
        3
 70
   128
 43
0.0
 10
-64.6179914474
 20
39.1134251035
 10
-63.4136361861
 20
43.4552717083
 10
-61.883103562
 20
44.9988068834
  0
LWPOLYLINE
  5
10B
330
1F
100
AcDbEntity
  8
0
  6
Continuous
 62
     7
100
AcDbPolyline
 90
        3
 70
   128
 43
0.0
 10
-67.2777295113
 20
-0.3146295744
 10
-71.0777626698
 20
1.2338152817
 10
-70.8309704092
 20
4.6230134615
  0
ARC
  5
10C
330
1F
100
AcDbEntity
  8
0
  6
Continuous
 62
     7
100
AcDbCircle
 10
-81.0070775073
 20
-41.8700518144
 30
0.0
 40
6.6829026712079
100
AcDbArc
 50
294.0205423315
 51
328.0421462867
  0
LWPOLYLINE
  5
10D
330
1F
100
AcDbEntity
  8
0
  6
Continuous
 62
     7
100
AcDbPolyline
 90
        3
 70
   128
 43
0.0
 10
-68.0177211761
 20
-2.4824492677
 10
-71.7247147937
 20
-3.8847003427
 10
-73.1310186119
 20
-7.3084865895
  0
LWPOLYLINE
  5
10E
330
1F
100
AcDbEntity
  8
0
  6
Continuous
 62
     7
100
AcDbPolyline
 90
        5
 70
   128
 43
0.0
 10
-73.1309652328
 20
-7.3084865895
 10
-73.9130466466
 20
-11.9188623664
 10
-75.3121320012
 20
-20.0965294439
 10
-76.8442979508
 20
-29.0244033408
 10
-78.757402348
 20
-40.1545336018
  0
LWPOLYLINE
  5
10F
330
1F
100
AcDbEntity
  8
0
  6
Continuous
 62
     7
100
AcDbPolyline
 90
        3
 70
   128
 43
0.0
 10
-78.7573456764
 20
-40.1545336018
 10
-79.3563620735
 20
-43.5027516187
 10
-79.3415126905
 20
-45.9568176481
  0
LWPOLYLINE
  5
110
330
1F
100
AcDbEntity
  8
0
  6
Continuous
 62
     7
100
AcDbPolyline
 90
        3
 70
   128
 43
0.0
 10
-79.3414711952
 20
-45.9568176481
 10
-78.9875634162
 20
-47.3496943868
 10
-78.2867173784
 20
-47.9742122481
  0
LWPOLYLINE
  5
111
330
1F
100
AcDbEntity
  8
0
  6
Continuous
 62
     7
100
AcDbPolyline
 90
        3
 70
   128
 43
0.0
 10
-22.6232558489
 20
-41.9232606178
 10
-23.921152455
 20
-46.2747266648
 10
-25.6572385432
 20
-47.8383634848
  0
LWPOLYLINE
  5
112
330
1F
100
AcDbEntity
  8
0
  6
Continuous
 62
     7
100
AcDbPolyline
 90
        4
 70
   128
 43
0.0
 10
-19.0853327513
 20
-2.4945803235
 10
-17.255678316
 20
-2.8032588324
 10
-16.1999731745
 20
-3.729294359
 10
-16.4104469948
 20
-7.4334364655
  0
LWPOLYLINE
  5
113
330
1F
100
AcDbEntity
  8
0
  6
Continuous
 62
     7
100
AcDbPolyline
 90
        3
 70
   128
 43
0.0
 10
20.8978503942
 20
45.7240345334
 10
23.7565384284
 20
48.1306069939
 10
28.4961390653
 20
48.6360945072
  0
LWPOLYLINE
  5
114
330
1F
100
AcDbEntity
  8
0
  6
Continuous
 62
     7
100
AcDbPolyline
 90
        5
 70
   128
 43
0.0
 10
28.4961313009
 20
48.6360945072
 10
34.0738326249
 20
48.5871752965
 10
43.3769812218
 20
48.5769648293
 10
53.3001187296
 20
48.5960976881
 10
65.5231545003
 20
48.6391272713
  0
LWPOLYLINE
  5
115
330
1F
100
AcDbEntity
  8
0
  6
Continuous
 62
     7
100
AcDbPolyline
 90
        5
 70
   128
 43
0.0
 10
65.523147583
 20
48.6391272713
 10
69.527751685
 20
47.9915440596
 10
70.9664351111
 20
47.1542433781
 10
71.0558258294
 20
46.3274787463
 10
69.8333186689
 20
44.967056644
  0
LWPOLYLINE
  5
116
330
1F
100
AcDbEntity
  8
0
  6
Continuous
 62
     7
100
AcDbPolyline
 90
        3
 70
   128
 43
0.0
 10
69.833278656
 20
44.967056644
 10
64.7559923466
 20
40.8262944222
 10
59.8955576584
 20
36.4983665057
  0
LWPOLYLINE
  5
117
330
1F
100
AcDbEntity
  8
0
  6
Continuous
 62
     7
100
AcDbPolyline
 90
        3
 70
   128
 43
0.0
 10
54.9078583717
 20
-49.1935928621
 10
52.3639120102
 20
-51.0395474975
 10
48.8793457766
 20
-51.4827231144
  0
LINE
  5
118
330
1F
100
AcDbEntity
  8
0
  6
Continuous
 62
     7
100
AcDbLine
 10
48.8793253899
 20
-51.4827231144
 30
0.0
 11
11.6121354345
 21
-51.4827231144
 31
0.0
  0
LWPOLYLINE
  5
119
330
1F
100
AcDbEntity
  8
0
  6
Continuous
 62
     7
100
AcDbPolyline
 90
        5
 70
   128
 43
0.0
 10
11.6121321917
 20
-51.4827231144
 10
6.7436678491
 20
-51.4331765175
 10
4.643412451
 20
-50.4534077581
 10
4.7811378453
 20
-49.2834384949
 10
6.8785974141
 20
-47.0803629205
  0
LWPOLYLINE
  5
11A
330
1F
100
AcDbEntity
  8
0
  6
Continuous
 62
     7
100
AcDbPolyline
 90
        3
 70
   128
 43
0.0
 10
6.8785957992
 20
-47.0803629205
 10
10.8820787843
 20
-43.586711982
 10
16.0733312493
 20
-38.8203269442
  0
LWPOLYLINE
  5
11B
330
1F
100
AcDbEntity
  8
0
  6
Continuous
 62
     7
100
AcDbPolyline
 90
        6
 70
   128
 43
0.0
 10
72.6379752159
 20
45.196752589
 10
72.5278477421
 20
45.1875352997
 10
72.4050521709
 20
45.1430892939
 10
72.10646934
 20
44.9822905513
 10
71.3203997918
 20
44.4354851583
 10
69.110307736
 20
42.6310342621
  0
LWPOLYLINE
  5
11C
330
1F
100
AcDbEntity
  8
0
  6
Continuous
 62
     7
100
AcDbPolyline
 90
        3
 70
   128
 43
0.0
 10
61.5957081318
 20
-0.2828793348
 10
65.9265936302
 20
1.1095892564
 10
67.4823200313
 20
4.5310269306
  0
LWPOLYLINE
  5
11D
330
1F
100
AcDbEntity
  8
0
  6
Continuous
 62
     7
100
AcDbPolyline
 90
        5
 70
   128
 43
0.0
 10
67.4822926521
 20
4.5310269306
 10
68.2644907272
 20
9.1413075999
 10
69.6640040656
 20
17.318689355
 10
71.1967064505
 20
26.2462056283
 10
73.1105234259
 20
37.3758608371
  0
LWPOLYLINE
  5
11E
330
1F
100
AcDbEntity
  8
0
  6
Continuous
 62
     7
100
AcDbPolyline
 90
        3
 70
   128
 43
0.0
 10
73.1105208397
 20
37.3758608371
 10
73.7075266548
 20
40.7253560121
 10
73.6922075574
 20
43.1793579897
  0
LWPOLYLINE
  5
11F
330
1F
100
AcDbEntity
  8
0
  6
Continuous
 62
     7
100
AcDbPolyline
 90
        3
 70
   128
 43
0.0
 10
73.6922025681
 20
43.1793579897
 10
73.3392077275
 20
44.5717325606
 10
72.6380187979
 20
45.196752589
  0
LWPOLYLINE
  5
120
330
1F
100
AcDbEntity
  8
0
  6
Continuous
 62
     7
100
AcDbPolyline
 90
        3
 70
   128
 43
0.0
 10
16.9734507799
 20
39.1451753431
 10
18.1778695318
 20
43.4870219478
 10
19.7084021559
 20
45.0305571229
  0
LWPOLYLINE
  5
121
330
1F
100
AcDbEntity
  8
0
  6
Continuous
 62
     7
100
AcDbPolyline
 90
        3
 70
   128
 43
0.0
 10
14.3137201667
 20
-0.2828793348
 10
10.5137430481
 20
1.2655655212
 10
10.7605353087
 20
4.6547637011
  0
ARC
  5
122
330
1F
100
AcDbEntity
  8
0
  6
Continuous
 62
     7
100
AcDbCircle
 10
0.5845342279
 20
-41.8384113855
 30
0.0
 40
6.682754600060366
100
AcDbArc
 50
294.0200065551
 51
328.0424639673
  0
LWPOLYLINE
  5
123
330
1F
100
AcDbEntity
  8
0
  6
Continuous
 62
     7
100
AcDbPolyline
 90
        3
 70
   128
 43
0.0
 10
13.5737210512
 20
-2.4506990282
 10
9.8667909242
 20
-3.8529501032
 10
8.460487106
 20
-7.27673635
  0
LWPOLYLINE
  5
124
330
1F
100
AcDbEntity
  8
0
  6
Continuous
 62
     7
100
AcDbPolyline
 90
        5
 70
   128
 43
0.0
 10
8.4604844451
 20
-7.27673635
 10
7.6784590713
 20
-11.8871121268
 10
6.2793737167
 20
-20.0647792044
 10
4.7472077671
 20
-28.9926531012
 10
2.8341033699
 20
-40.1227833622
  0
LWPOLYLINE
  5
125
330
1F
100
AcDbEntity
  8
0
  6
Continuous
 62
     7
100
AcDbPolyline
 90
        3
 70
   128
 43
0.0
 10
2.8341021389
 20
-40.1227833622
 10
2.2351436444
 20
-43.4710013791
 10
2.2499930274
 20
-45.9250674085
  0
LWPOLYLINE
  5
126
330
1F
100
AcDbEntity
  8
0
  6
Continuous
 62
     7
100
AcDbPolyline
 90
        3
 70
   128
 43
0.0
 10
2.2499915212
 20
-45.9250674085
 10
2.6039423017
 20
-47.3179441473
 10
3.3047883395
 20
-47.9424620085
  0
LWPOLYLINE
  5
127
330
1F
100
AcDbEntity
  8
0
  6
Continuous
 62
     7
100
AcDbPolyline
 90
        3
 70
   128
 43
0.0
 10
58.9682161808
 20
-41.8915103783
 10
57.6703532628
 20
-46.2429764253
 10
55.9342671747
 20
-47.8066132452
  0
LWPOLYLINE
  5
128
330
1F
100
AcDbEntity
  8
0
  6
Continuous
 62
     7
100
AcDbPolyline
 90
        4
 70
   128
 43
0.0
 10
62.5061392784
 20
-2.462830084
 10
64.3358274019
 20
-2.7715085928
 10
65.3915325434
 20
-3.6975441195
 10
65.1810587231
 20
-7.401686226
  0
LWPOLYLINE
  5
129
330
1F
100
AcDbEntity
  8
0
  6
Continuous
 62
     7
100
AcDbPolyline
 90
        3
 70
   128
 43
0.0
 10
102.4893522263
 20
45.7240345334
 10
105.3480441464
 20
48.1306069939
 10
110.0876447833
 20
48.6360945072
  0
LWPOLYLINE
  5
12A
330
1F
100
AcDbEntity
  8
0
  6
Continuous
 62
     7
100
AcDbPolyline
 90
        5
 70
   128
 43
0.0
 10
110.0876331329
 20
48.6360945072
 10
115.6653383429
 20
48.5871752965
 10
124.9684869397
 20
48.5769648293
 10
134.8916244476
 20
48.5960976881
 10
147.1146602182
 20
48.6391272713
  0
LWPOLYLINE
  5
12B
330
1F
100
AcDbEntity
  8
0
  6
Continuous
 62
     7
100
AcDbPolyline
 90
        5
 70
   128
 43
0.0
 10
147.1146345139
 20
48.6391272713
 10
151.1192574029
 20
47.9915440596
 10
152.557940829
 20
47.1542433781
 10
152.6473315473
 20
46.3274787463
 10
151.4248243869
 20
44.967056644
  0
LWPOLYLINE
  5
12C
330
1F
100
AcDbEntity
  8
0
  6
Continuous
 62
     7
100
AcDbPolyline
 90
        3
 70
   128
 43
0.0
 10
151.4247655869
 20
44.967056644
 10
146.3474980646
 20
40.8262944222
 10
141.4870633764
 20
36.4983665057
  0
LWPOLYLINE
  5
12D
330
1F
100
AcDbEntity
  8
0
  6
Continuous
 62
     7
100
AcDbPolyline
 90
        3
 70
   128
 43
0.0
 10
136.4992856979
 20
-49.1935928621
 10
133.9554177281
 20
-51.0395474975
 10
130.4708514945
 20
-51.4827231144
  0
LINE
  5
12E
330
1F
100
AcDbEntity
  8
0
  6
Continuous
 62
     7
100
AcDbLine
 10
130.4707527161
 20
-51.4827231144
 30
0.0
 11
93.2036411524
 21
-51.4827231144
 31
0.0
  0
LWPOLYLINE
  5
12F
330
1F
100
AcDbEntity
  8
0
  6
Continuous
 62
     7
100
AcDbPolyline
 90
        5
 70
   128
 43
0.0
 10
93.2036042213
 20
-51.4827231144
 10
88.335173567
 20
-51.4331765175
 10
86.234918169
 20
-50.4534077581
 10
86.3726435633
 20
-49.2834384949
 10
88.4701031321
 20
-47.0803629205
  0
LWPOLYLINE
  5
130
330
1F
100
AcDbEntity
  8
0
  6
Continuous
 62
     7
100
AcDbPolyline
 90
        3
 70
   128
 43
0.0
 10
88.4701013565
 20
-47.0803629205
 10
92.4735845022
 20
-43.586711982
 10
97.6648369673
 20
-38.8203269442
  0
LWPOLYLINE
  5
131
330
1F
100
AcDbEntity
  8
0
  6
Continuous
 62
     7
100
AcDbPolyline
 90
        6
 70
   128
 43
0.0
 10
154.2295217514
 20
45.2285028284
 10
154.1193534601
 20
45.2192855391
 10
153.9965578888
 20
45.1748395334
 10
153.697975058
 20
45.0140407907
 10
152.9119055097
 20
44.4672353977
 10
150.701813454
 20
42.6627845015
  0
LWPOLYLINE
  5
132
330
1F
100
AcDbEntity
  8
0
  6
Continuous
 62
     7
100
AcDbPolyline
 90
        3
 70
   128
 43
0.0
 10
143.1871652603
 20
-0.2511290954
 10
147.5180993481
 20
1.1413394958
 10
149.0738257493
 20
4.56277717
  0
LWPOLYLINE
  5
133
330
1F
100
AcDbEntity
  8
0
  6
Continuous
 62
     7
100
AcDbPolyline
 90
        5
 70
   128
 43
0.0
 10
149.0737199783
 20
4.56277717
 10
149.8559964452
 20
9.1730578394
 10
151.2555097836
 20
17.3504395944
 10
152.7882121685
 20
26.2779558677
 10
154.7020291439
 20
37.4076110765
  0
LWPOLYLINE
  5
134
330
1F
100
AcDbEntity
  8
0
  6
Continuous
 62
     7
100
AcDbPolyline
 90
        3
 70
   128
 43
0.0
 10
154.7019481659
 20
37.4076110765
 10
155.2990323728
 20
40.7571062515
 10
155.2837132754
 20
43.2111082292
  0
LWPOLYLINE
  5
135
330
1F
100
AcDbEntity
  8
0
  6
Continuous
 62
     7
100
AcDbPolyline
 90
        3
 70
   128
 43
0.0
 10
155.2836894989
 20
43.2111082292
 10
154.9307134454
 20
44.6034828
 10
154.2295245159
 20
45.2285028284
  0
LWPOLYLINE
  5
136
330
1F
100
AcDbEntity
  8
0
  6
Continuous
 62
     7
100
AcDbPolyline
 90
        3
 70
   128
 43
0.0
 10
98.5649228096
 20
39.1769255825
 10
99.7693752498
 20
43.5187721873
 10
101.2999078739
 20
45.0623073624
  0
LWPOLYLINE
  5
137
330
1F
100
AcDbEntity
  8
0
  6
Continuous
 62
     7
100
AcDbPolyline
 90
        3
 70
   128
 43
0.0
 10
95.9051847458
 20
-0.2511290954
 10
92.105248766
 20
1.2973157607
 10
92.3520410266
 20
4.6865139405
  0
ARC
  5
138
330
1F
100
AcDbEntity
  8
0
  6
Continuous
 62
     7
100
AcDbCircle
 10
82.1762852799
 20
-41.8069152579
 30
0.0
 40
6.68241195021993
100
AcDbArc
 50
294.0187665927
 51
328.0431991615
  0
LWPOLYLINE
  5
139
330
1F
100
AcDbEntity
  8
0
  6
Continuous
 62
     7
100
AcDbPolyline
 90
        3
 70
   128
 43
0.0
 10
95.1651930809
 20
-2.4189487887
 10
91.4582966422
 20
-3.8211998637
 10
90.0519928239
 20
-7.2449861105
  0
LWPOLYLINE
  5
13A
330
1F
100
AcDbEntity
  8
0
  6
Continuous
 62
     7
100
AcDbPolyline
 90
        5
 70
   128
 43
0.0
 10
90.0519490242
 20
-7.2449861105
 10
89.2699647893
 20
-11.8553618874
 10
87.8708794346
 20
-20.0330289649
 10
86.338713485
 20
-28.9609028618
 10
84.4256090879
 20
-40.0910331228
  0
LWPOLYLINE
  5
13B
330
1F
100
AcDbEntity
  8
0
  6
Continuous
 62
     7
100
AcDbPolyline
 90
        3
 70
   128
 43
0.0
 10
84.4255685806
 20
-40.0910331228
 10
83.8266493624
 20
-43.4392511397
 10
83.8414987453
 20
-45.8933171691
  0
LWPOLYLINE
  5
13C
330
1F
100
AcDbEntity
  8
0
  6
Continuous
 62
     7
100
AcDbPolyline
 90
        3
 70
   128
 43
0.0
 10
83.8414430618
 20
-45.8933171691
 10
84.1954480196
 20
-47.2861939079
 10
84.8962940575
 20
-47.9107117691
  0
LWPOLYLINE
  5
13D
330
1F
100
AcDbEntity
  8
0
  6
Continuous
 62
     7
100
AcDbPolyline
 90
        3
 70
   128
 43
0.0
 10
140.5596733093
 20
-41.8597601388
 10
139.2618589808
 20
-46.2112261858
 10
137.5257728927
 20
-47.7748630058
  0
LWPOLYLINE
  5
13E
330
1F
100
AcDbEntity
  8
0
  6
Continuous
 62
     7
100
AcDbPolyline
 90
        4
 70
   128
 43
0.0
 10
144.0975666046
 20
-2.4310798445
 10
145.9273331199
 20
-2.7397583534
 10
146.9830382614
 20
-3.66579388
 10
146.7725644411
 20
-7.3699359865
  0
POINT
  5
13F
330
1F
100
AcDbEntity
  8
0
  6
Continuous
 62
     7
100
AcDbPoint
 10
-178.873321645
 20
-1.8057458415
 30
0.0
  0
POINT
  5
140
330
1F
100
AcDbEntity
  8
0
  6
Continuous
 62
     7
100
AcDbPoint
 10
-158.6615756385
 20
-30.3203276564
 30
0.0
  0
POINT
  5
141
330
1F
100
AcDbEntity
  8
0
  6
Continuous
 62
     7
100
AcDbPoint
 10
-2.8129480595
 20
63.1942541585
 30
0.0
  0
ENDSEC
  0
SECTION
  2
OBJECTS
  0
DICTIONARY
  5
C
330
0
100
AcDbDictionary
281
     1
  3
ACAD_GROUP
350
D
  3
ACAD_LAYOUT
350
1A
  3
ACAD_MLINESTYLE
350
17
  3
ACAD_PLOTSETTINGS
350
19
  3
ACAD_PLOTSTYLENAME
350
E
  3
ACAD_SCALELIST
350
47
  0
DICTIONARY
  5
D
102
{ACAD_REACTORS
330
C
102
}
330
C
100
AcDbDictionary
281
     1
  0
DICTIONARY
  5
1A
102
{ACAD_REACTORS
330
C
102
}
330
C
100
AcDbDictionary
281
     1
  3
Layout1
350
1E
  3
Layout2
350
26
  3
Model
350
22
  0
DICTIONARY
  5
17
102
{ACAD_REACTORS
330
C
102
}
330
C
100
AcDbDictionary
281
     1
  3
Standard
350
18
  0
DICTIONARY
  5
19
102
{ACAD_REACTORS
330
C
102
}
330
C
100
AcDbDictionary
281
     1
  0
ACDBDICTIONARYWDFLT
  5
E
102
{ACAD_REACTORS
330
C
102
}
330
C
100
AcDbDictionary
281
     1
  3
Normal
350
F
100
AcDbDictionaryWithDefault
340
F
  0
DICTIONARY
  5
47
102
{ACAD_REACTORS
330
C
102
}
330
C
100
AcDbDictionary
281
     1
  3
A0
350
48
  3
A1
350
49
  3
A2
350
4A
  3
A3
350
4B
  3
A4
350
4C
  3
A5
350
4D
  3
A6
350
4E
  3
A7
350
4F
  3
A8
350
50
  3
A9
350
51
  3
B0
350
52
  3
B1
350
53
  3
B2
350
54
  3
B3
350
55
  3
B4
350
56
  3
B5
350
57
  3
B6
350
58
  3
B7
350
59
  3
B8
350
5A
  3
B9
350
5B
  3
C0
350
5C
  3
C1
350
5D
  3
C2
350
5E
  3
C3
350
5F
  3
C4
350
60
  3
C5
350
61
  3
C6
350
62
  3
C7
350
63
  3
C8
350
64
  3
C9
350
65
  3
D0
350
66
  3
D1
350
67
  3
D2
350
68
  0
LAYOUT
  5
1E
102
{ACAD_REACTORS
330
1A
102
}
330
1A
100
AcDbPlotSettings
  1

  2
none_device
  4

  6

 40
0.0
 41
0.0
 42
0.0
 43
0.0
 44
0.0
 45
0.0
 46
0.0
 47
0.0
 48
0.0
 49
0.0
140
0.0
141
0.0
142
1.0
143
1.0
 70
   688
 72
     1
 73
     0
 74
     5
  7

 75
    16
147
1.0
148
0.0
149
0.0
100
AcDbLayout
  1
Layout1
 70
     1
 71
     1
 10
0.0
 20
0.0
 11
420.0
 21
297.0
 12
0.0
 22
0.0
 32
0.0
 14
1.0000000000E+20
 24
1.0000000000E+20
 34
1.0000000000E+20
 15
-1.0000000000E+20
 25
-1.0000000000E+20
 35
-1.0000000000E+20
146
0.0
 13
0.0
 23
0.0
 33
0.0
 16
1.0
 26
0.0
 36
0.0
 17
0.0
 27
1.0
 37
0.0
 76
     0
330
1B
  0
LAYOUT
  5
26
102
{ACAD_REACTORS
330
1A
102
}
330
1A
100
AcDbPlotSettings
  1

  2
none_device
  4

  6

 40
0.0
 41
0.0
 42
0.0
 43
0.0
 44
0.0
 45
0.0
 46
0.0
 47
0.0
 48
0.0
 49
0.0
140
0.0
141
0.0
142
1.0
143
1.0
 70
   688
 72
     1
 73
     0
 74
     5
  7

 75
    16
147
1.0
148
0.0
149
0.0
100
AcDbLayout
  1
Layout2
 70
     1
 71
     2
 10
0.0
 20
0.0
 11
0.0
 21
0.0
 12
0.0
 22
0.0
 32
0.0
 14
0.0
 24
0.0
 34
0.0
 15
0.0
 25
0.0
 35
0.0
146
0.0
 13
0.0
 23
0.0
 33
0.0
 16
1.0
 26
0.0
 36
0.0
 17
0.0
 27
1.0
 37
0.0
 76
     0
330
23
  0
LAYOUT
  5
22
102
{ACAD_REACTORS
330
1A
102
}
330
1A
100
AcDbPlotSettings
  1

  2
none_device
  4
ANSI_A_(11.00_x_8.50_Inches)
  6

 40
6.35
 41
19.05
 42
6.35000508
 43
19.05000254
 44
279.4
 45
215.9
 46
135.5596892126
 47
90.3184897966
 48
0.0
 49
0.0
140
0.0
141
0.0
142
0.0309268911
143
1.0
 70
  1696
 72
     0
 73
     0
 74
     0
  7

 75
     0
147
0.0179189148
148
-1300.4909072572
149
0.0
100
AcDbLayout
  1
Model
 70
     1
 71
     0
 10
0.0
 20
0.0
 11
420.0
 21
297.0
 12
0.0
 22
0.0
 32
0.0
 14
-178.873321645
 24
-66.8057458415
 34
0.0
 15
173.2474255259
 25
63.1942541585
 35
0.0
146
0.0
 13
0.0
 23
0.0
 33
0.0
 16
1.0
 26
0.0
 36
0.0
 17
0.0
 27
1.0
 37
0.0
 76
     0
330
1F
331
29
  0
MLINESTYLE
  5
18
102
{ACAD_REACTORS
330
17
102
}
330
17
100
AcDbMlineStyle
  2
Standard
 70
     0
  3

 62
   256
 51
90.0
 52
90.0
 71
     2
 49
0.5
 62
   256
  6
BYLAYER
 49
-0.5
 62
   256
  6
BYLAYER
  0
ACDBPLACEHOLDER
  5
F
102
{ACAD_REACTORS
330
E
102
}
330
E
  0
SCALE
  5
48
102
{ACAD_REACTORS
330
47
102
}
330
47
100
AcDbScale
 70
     0
300
1:1
140
1.0
141
1.0
290
     1
  0
SCALE
  5
49
102
{ACAD_REACTORS
330
47
102
}
330
47
100
AcDbScale
 70
     0
300
1:2
140
1.0
141
2.0
290
     0
  0
SCALE
  5
4A
102
{ACAD_REACTORS
330
47
102
}
330
47
100
AcDbScale
 70
     0
300
1:4
140
1.0
141
4.0
290
     0
  0
SCALE
  5
4B
102
{ACAD_REACTORS
330
47
102
}
330
47
100
AcDbScale
 70
     0
300
1:5
140
1.0
141
5.0
290
     0
  0
SCALE
  5
4C
102
{ACAD_REACTORS
330
47
102
}
330
47
100
AcDbScale
 70
     0
300
1:8
140
1.0
141
8.0
290
     0
  0
SCALE
  5
4D
102
{ACAD_REACTORS
330
47
102
}
330
47
100
AcDbScale
 70
     0
300
1:10
140
1.0
141
10.0
290
     0
  0
SCALE
  5
4E
102
{ACAD_REACTORS
330
47
102
}
330
47
100
AcDbScale
 70
     0
300
1:16
140
1.0
141
16.0
290
     0
  0
SCALE
  5
4F
102
{ACAD_REACTORS
330
47
102
}
330
47
100
AcDbScale
 70
     0
300
1:20
140
1.0
141
20.0
290
     0
  0
SCALE
  5
50
102
{ACAD_REACTORS
330
47
102
}
330
47
100
AcDbScale
 70
     0
300
1:30
140
1.0
141
30.0
290
     0
  0
SCALE
  5
51
102
{ACAD_REACTORS
330
47
102
}
330
47
100
AcDbScale
 70
     0
300
1:40
140
1.0
141
40.0
290
     0
  0
SCALE
  5
52
102
{ACAD_REACTORS
330
47
102
}
330
47
100
AcDbScale
 70
     0
300
1:50
140
1.0
141
50.0
290
     0
  0
SCALE
  5
53
102
{ACAD_REACTORS
330
47
102
}
330
47
100
AcDbScale
 70
     0
300
1:100
140
1.0
141
100.0
290
     0
  0
SCALE
  5
54
102
{ACAD_REACTORS
330
47
102
}
330
47
100
AcDbScale
 70
     0
300
2:1
140
2.0
141
1.0
290
     0
  0
SCALE
  5
55
102
{ACAD_REACTORS
330
47
102
}
330
47
100
AcDbScale
 70
     0
300
4:1
140
4.0
141
1.0
290
     0
  0
SCALE
  5
56
102
{ACAD_REACTORS
330
47
102
}
330
47
100
AcDbScale
 70
     0
300
8:1
140
8.0
141
1.0
290
     0
  0
SCALE
  5
57
102
{ACAD_REACTORS
330
47
102
}
330
47
100
AcDbScale
 70
     0
300
10:1
140
10.0
141
1.0
290
     0
  0
SCALE
  5
58
102
{ACAD_REACTORS
330
47
102
}
330
47
100
AcDbScale
 70
     0
300
100:1
140
100.0
141
1.0
290
     0
  0
SCALE
  5
59
102
{ACAD_REACTORS
330
47
102
}
330
47
100
AcDbScale
 70
     0
300
1/128" = 1'-0"
140
0.0078125
141
12.0
290
     0
  0
SCALE
  5
5A
102
{ACAD_REACTORS
330
47
102
}
330
47
100
AcDbScale
 70
     0
300
1/64" = 1'-0"
140
0.015625
141
12.0
290
     0
  0
SCALE
  5
5B
102
{ACAD_REACTORS
330
47
102
}
330
47
100
AcDbScale
 70
     0
300
1/32" = 1'-0"
140
0.03125
141
12.0
290
     0
  0
SCALE
  5
5C
102
{ACAD_REACTORS
330
47
102
}
330
47
100
AcDbScale
 70
     0
300
1/16" = 1'-0"
140
0.0625
141
12.0
290
     0
  0
SCALE
  5
5D
102
{ACAD_REACTORS
330
47
102
}
330
47
100
AcDbScale
 70
     0
300
3/32" = 1'-0"
140
0.09375
141
12.0
290
     0
  0
SCALE
  5
5E
102
{ACAD_REACTORS
330
47
102
}
330
47
100
AcDbScale
 70
     0
300
1/8" = 1'-0"
140
0.125
141
12.0
290
     0
  0
SCALE
  5
5F
102
{ACAD_REACTORS
330
47
102
}
330
47
100
AcDbScale
 70
     0
300
3/16" = 1'-0"
140
0.1875
141
12.0
290
     0
  0
SCALE
  5
60
102
{ACAD_REACTORS
330
47
102
}
330
47
100
AcDbScale
 70
     0
300
1/4" = 1'-0"
140
0.25
141
12.0
290
     0
  0
SCALE
  5
61
102
{ACAD_REACTORS
330
47
102
}
330
47
100
AcDbScale
 70
     0
300
3/8" = 1'-0"
140
0.375
141
12.0
290
     0
  0
SCALE
  5
62
102
{ACAD_REACTORS
330
47
102
}
330
47
100
AcDbScale
 70
     0
300
1/2" = 1'-0"
140
0.5
141
12.0
290
     0
  0
SCALE
  5
63
102
{ACAD_REACTORS
330
47
102
}
330
47
100
AcDbScale
 70
     0
300
3/4" = 1'-0"
140
0.75
141
12.0
290
     0
  0
SCALE
  5
64
102
{ACAD_REACTORS
330
47
102
}
330
47
100
AcDbScale
 70
     0
300
1" = 1'-0"
140
1.0
141
12.0
290
     0
  0
SCALE
  5
65
102
{ACAD_REACTORS
330
47
102
}
330
47
100
AcDbScale
 70
     0
300
1-1/2" = 1'-0"
140
1.5
141
12.0
290
     0
  0
SCALE
  5
66
102
{ACAD_REACTORS
330
47
102
}
330
47
100
AcDbScale
 70
     0
300
3" = 1'-0"
140
3.0
141
12.0
290
     0
  0
SCALE
  5
67
102
{ACAD_REACTORS
330
47
102
}
330
47
100
AcDbScale
 70
     0
300
6" = 1'-0"
140
6.0
141
12.0
290
     0
  0
SCALE
  5
68
102
{ACAD_REACTORS
330
47
102
}
330
47
100
AcDbScale
 70
     0
300
1'-0" = 1'-0"
140
12.0
141
12.0
290
     0
  0
ENDSEC
  0
EOF
